M48
;DRILL file {KiCad (5.0.0-3-g5ebb6b6)} date Saturday, 26 January 2019 at 00:17:40
;FORMAT={-:-/ absolute / metric / decimal}
FMAT,2
METRIC,TZ
T1C0.200
T2C1.000
%
G90
G05
M71
T1
X106.819Y-90.17
X107.384Y-89.604
X107.384Y-90.736
X107.95Y-89.039
X107.95Y-90.17
X107.95Y-91.301
X108.516Y-89.604
X108.516Y-90.736
X109.081Y-90.17
T2
X107.95Y-104.14
X107.95Y-76.2
X101.6Y-76.2
X101.6Y-78.74
X101.6Y-81.28
X101.6Y-83.82
X101.6Y-86.36
X101.6Y-88.9
X101.6Y-91.44
X101.6Y-93.98
X101.6Y-96.52
X101.6Y-99.06
X101.6Y-101.6
X101.6Y-104.14
X114.3Y-76.2
X114.3Y-78.74
X114.3Y-81.28
X114.3Y-83.82
X114.3Y-86.36
X114.3Y-88.9
X114.3Y-91.44
X114.3Y-93.98
X114.3Y-96.52
X114.3Y-99.06
X114.3Y-101.6
X114.3Y-104.14
T0
M30
