G04 #@! TF.GenerationSoftware,KiCad,Pcbnew,(5.0.0-3-g5ebb6b6)*
G04 #@! TF.CreationDate,2019-01-26T00:17:38+00:00*
G04 #@! TF.ProjectId,QFN24_DIP,51464E32345F4449502E6B696361645F,rev?*
G04 #@! TF.SameCoordinates,Original*
G04 #@! TF.FileFunction,Legend,Top*
G04 #@! TF.FilePolarity,Positive*
%FSLAX46Y46*%
G04 Gerber Fmt 4.6, Leading zero omitted, Abs format (unit mm)*
G04 Created by KiCad (PCBNEW (5.0.0-3-g5ebb6b6)) date Saturday, 26 January 2019 at 00:17:38*
%MOMM*%
%LPD*%
G01*
G04 APERTURE LIST*
%ADD10C,0.200000*%
%ADD11C,0.120000*%
G04 APERTURE END LIST*
D10*
X111569523Y-102052380D02*
X110998095Y-102052380D01*
X111283809Y-102052380D02*
X111283809Y-101052380D01*
X111188571Y-101195238D01*
X111093333Y-101290476D01*
X110998095Y-101338095D01*
X112426666Y-101385714D02*
X112426666Y-102052380D01*
X112188571Y-101004761D02*
X111950476Y-101719047D01*
X112569523Y-101719047D01*
X111569523Y-99512380D02*
X110998095Y-99512380D01*
X111283809Y-99512380D02*
X111283809Y-98512380D01*
X111188571Y-98655238D01*
X111093333Y-98750476D01*
X110998095Y-98798095D01*
X112474285Y-98512380D02*
X111998095Y-98512380D01*
X111950476Y-98988571D01*
X111998095Y-98940952D01*
X112093333Y-98893333D01*
X112331428Y-98893333D01*
X112426666Y-98940952D01*
X112474285Y-98988571D01*
X112521904Y-99083809D01*
X112521904Y-99321904D01*
X112474285Y-99417142D01*
X112426666Y-99464761D01*
X112331428Y-99512380D01*
X112093333Y-99512380D01*
X111998095Y-99464761D01*
X111950476Y-99417142D01*
X111569523Y-96972380D02*
X110998095Y-96972380D01*
X111283809Y-96972380D02*
X111283809Y-95972380D01*
X111188571Y-96115238D01*
X111093333Y-96210476D01*
X110998095Y-96258095D01*
X112426666Y-95972380D02*
X112236190Y-95972380D01*
X112140952Y-96020000D01*
X112093333Y-96067619D01*
X111998095Y-96210476D01*
X111950476Y-96400952D01*
X111950476Y-96781904D01*
X111998095Y-96877142D01*
X112045714Y-96924761D01*
X112140952Y-96972380D01*
X112331428Y-96972380D01*
X112426666Y-96924761D01*
X112474285Y-96877142D01*
X112521904Y-96781904D01*
X112521904Y-96543809D01*
X112474285Y-96448571D01*
X112426666Y-96400952D01*
X112331428Y-96353333D01*
X112140952Y-96353333D01*
X112045714Y-96400952D01*
X111998095Y-96448571D01*
X111950476Y-96543809D01*
X111569523Y-94432380D02*
X110998095Y-94432380D01*
X111283809Y-94432380D02*
X111283809Y-93432380D01*
X111188571Y-93575238D01*
X111093333Y-93670476D01*
X110998095Y-93718095D01*
X111902857Y-93432380D02*
X112569523Y-93432380D01*
X112140952Y-94432380D01*
X111569523Y-91892380D02*
X110998095Y-91892380D01*
X111283809Y-91892380D02*
X111283809Y-90892380D01*
X111188571Y-91035238D01*
X111093333Y-91130476D01*
X110998095Y-91178095D01*
X112140952Y-91320952D02*
X112045714Y-91273333D01*
X111998095Y-91225714D01*
X111950476Y-91130476D01*
X111950476Y-91082857D01*
X111998095Y-90987619D01*
X112045714Y-90940000D01*
X112140952Y-90892380D01*
X112331428Y-90892380D01*
X112426666Y-90940000D01*
X112474285Y-90987619D01*
X112521904Y-91082857D01*
X112521904Y-91130476D01*
X112474285Y-91225714D01*
X112426666Y-91273333D01*
X112331428Y-91320952D01*
X112140952Y-91320952D01*
X112045714Y-91368571D01*
X111998095Y-91416190D01*
X111950476Y-91511428D01*
X111950476Y-91701904D01*
X111998095Y-91797142D01*
X112045714Y-91844761D01*
X112140952Y-91892380D01*
X112331428Y-91892380D01*
X112426666Y-91844761D01*
X112474285Y-91797142D01*
X112521904Y-91701904D01*
X112521904Y-91511428D01*
X112474285Y-91416190D01*
X112426666Y-91368571D01*
X112331428Y-91320952D01*
X111569523Y-104592380D02*
X110998095Y-104592380D01*
X111283809Y-104592380D02*
X111283809Y-103592380D01*
X111188571Y-103735238D01*
X111093333Y-103830476D01*
X110998095Y-103878095D01*
X111902857Y-103592380D02*
X112521904Y-103592380D01*
X112188571Y-103973333D01*
X112331428Y-103973333D01*
X112426666Y-104020952D01*
X112474285Y-104068571D01*
X112521904Y-104163809D01*
X112521904Y-104401904D01*
X112474285Y-104497142D01*
X112426666Y-104544761D01*
X112331428Y-104592380D01*
X112045714Y-104592380D01*
X111950476Y-104544761D01*
X111902857Y-104497142D01*
X103949523Y-104592380D02*
X103378095Y-104592380D01*
X103663809Y-104592380D02*
X103663809Y-103592380D01*
X103568571Y-103735238D01*
X103473333Y-103830476D01*
X103378095Y-103878095D01*
X104330476Y-103687619D02*
X104378095Y-103640000D01*
X104473333Y-103592380D01*
X104711428Y-103592380D01*
X104806666Y-103640000D01*
X104854285Y-103687619D01*
X104901904Y-103782857D01*
X104901904Y-103878095D01*
X104854285Y-104020952D01*
X104282857Y-104592380D01*
X104901904Y-104592380D01*
X103949523Y-102052380D02*
X103378095Y-102052380D01*
X103663809Y-102052380D02*
X103663809Y-101052380D01*
X103568571Y-101195238D01*
X103473333Y-101290476D01*
X103378095Y-101338095D01*
X104901904Y-102052380D02*
X104330476Y-102052380D01*
X104616190Y-102052380D02*
X104616190Y-101052380D01*
X104520952Y-101195238D01*
X104425714Y-101290476D01*
X104330476Y-101338095D01*
X103949523Y-99512380D02*
X103378095Y-99512380D01*
X103663809Y-99512380D02*
X103663809Y-98512380D01*
X103568571Y-98655238D01*
X103473333Y-98750476D01*
X103378095Y-98798095D01*
X104568571Y-98512380D02*
X104663809Y-98512380D01*
X104759047Y-98560000D01*
X104806666Y-98607619D01*
X104854285Y-98702857D01*
X104901904Y-98893333D01*
X104901904Y-99131428D01*
X104854285Y-99321904D01*
X104806666Y-99417142D01*
X104759047Y-99464761D01*
X104663809Y-99512380D01*
X104568571Y-99512380D01*
X104473333Y-99464761D01*
X104425714Y-99417142D01*
X104378095Y-99321904D01*
X104330476Y-99131428D01*
X104330476Y-98893333D01*
X104378095Y-98702857D01*
X104425714Y-98607619D01*
X104473333Y-98560000D01*
X104568571Y-98512380D01*
X103949523Y-96972380D02*
X104140000Y-96972380D01*
X104235238Y-96924761D01*
X104282857Y-96877142D01*
X104378095Y-96734285D01*
X104425714Y-96543809D01*
X104425714Y-96162857D01*
X104378095Y-96067619D01*
X104330476Y-96020000D01*
X104235238Y-95972380D01*
X104044761Y-95972380D01*
X103949523Y-96020000D01*
X103901904Y-96067619D01*
X103854285Y-96162857D01*
X103854285Y-96400952D01*
X103901904Y-96496190D01*
X103949523Y-96543809D01*
X104044761Y-96591428D01*
X104235238Y-96591428D01*
X104330476Y-96543809D01*
X104378095Y-96496190D01*
X104425714Y-96400952D01*
X104044761Y-93860952D02*
X103949523Y-93813333D01*
X103901904Y-93765714D01*
X103854285Y-93670476D01*
X103854285Y-93622857D01*
X103901904Y-93527619D01*
X103949523Y-93480000D01*
X104044761Y-93432380D01*
X104235238Y-93432380D01*
X104330476Y-93480000D01*
X104378095Y-93527619D01*
X104425714Y-93622857D01*
X104425714Y-93670476D01*
X104378095Y-93765714D01*
X104330476Y-93813333D01*
X104235238Y-93860952D01*
X104044761Y-93860952D01*
X103949523Y-93908571D01*
X103901904Y-93956190D01*
X103854285Y-94051428D01*
X103854285Y-94241904D01*
X103901904Y-94337142D01*
X103949523Y-94384761D01*
X104044761Y-94432380D01*
X104235238Y-94432380D01*
X104330476Y-94384761D01*
X104378095Y-94337142D01*
X104425714Y-94241904D01*
X104425714Y-94051428D01*
X104378095Y-93956190D01*
X104330476Y-93908571D01*
X104235238Y-93860952D01*
X103806666Y-90892380D02*
X104473333Y-90892380D01*
X104044761Y-91892380D01*
X104378095Y-85812380D02*
X103901904Y-85812380D01*
X103854285Y-86288571D01*
X103901904Y-86240952D01*
X103997142Y-86193333D01*
X104235238Y-86193333D01*
X104330476Y-86240952D01*
X104378095Y-86288571D01*
X104425714Y-86383809D01*
X104425714Y-86621904D01*
X104378095Y-86717142D01*
X104330476Y-86764761D01*
X104235238Y-86812380D01*
X103997142Y-86812380D01*
X103901904Y-86764761D01*
X103854285Y-86717142D01*
X104330476Y-83605714D02*
X104330476Y-84272380D01*
X104092380Y-83224761D02*
X103854285Y-83939047D01*
X104473333Y-83939047D01*
X103806666Y-80732380D02*
X104425714Y-80732380D01*
X104092380Y-81113333D01*
X104235238Y-81113333D01*
X104330476Y-81160952D01*
X104378095Y-81208571D01*
X104425714Y-81303809D01*
X104425714Y-81541904D01*
X104378095Y-81637142D01*
X104330476Y-81684761D01*
X104235238Y-81732380D01*
X103949523Y-81732380D01*
X103854285Y-81684761D01*
X103806666Y-81637142D01*
X103854285Y-78287619D02*
X103901904Y-78240000D01*
X103997142Y-78192380D01*
X104235238Y-78192380D01*
X104330476Y-78240000D01*
X104378095Y-78287619D01*
X104425714Y-78382857D01*
X104425714Y-78478095D01*
X104378095Y-78620952D01*
X103806666Y-79192380D01*
X104425714Y-79192380D01*
X104425714Y-76652380D02*
X103854285Y-76652380D01*
X104140000Y-76652380D02*
X104140000Y-75652380D01*
X104044761Y-75795238D01*
X103949523Y-75890476D01*
X103854285Y-75938095D01*
X110998095Y-75747619D02*
X111045714Y-75700000D01*
X111140952Y-75652380D01*
X111379047Y-75652380D01*
X111474285Y-75700000D01*
X111521904Y-75747619D01*
X111569523Y-75842857D01*
X111569523Y-75938095D01*
X111521904Y-76080952D01*
X110950476Y-76652380D01*
X111569523Y-76652380D01*
X112426666Y-75985714D02*
X112426666Y-76652380D01*
X112188571Y-75604761D02*
X111950476Y-76319047D01*
X112569523Y-76319047D01*
X110998095Y-78287619D02*
X111045714Y-78240000D01*
X111140952Y-78192380D01*
X111379047Y-78192380D01*
X111474285Y-78240000D01*
X111521904Y-78287619D01*
X111569523Y-78382857D01*
X111569523Y-78478095D01*
X111521904Y-78620952D01*
X110950476Y-79192380D01*
X111569523Y-79192380D01*
X111902857Y-78192380D02*
X112521904Y-78192380D01*
X112188571Y-78573333D01*
X112331428Y-78573333D01*
X112426666Y-78620952D01*
X112474285Y-78668571D01*
X112521904Y-78763809D01*
X112521904Y-79001904D01*
X112474285Y-79097142D01*
X112426666Y-79144761D01*
X112331428Y-79192380D01*
X112045714Y-79192380D01*
X111950476Y-79144761D01*
X111902857Y-79097142D01*
X110998095Y-80827619D02*
X111045714Y-80780000D01*
X111140952Y-80732380D01*
X111379047Y-80732380D01*
X111474285Y-80780000D01*
X111521904Y-80827619D01*
X111569523Y-80922857D01*
X111569523Y-81018095D01*
X111521904Y-81160952D01*
X110950476Y-81732380D01*
X111569523Y-81732380D01*
X111950476Y-80827619D02*
X111998095Y-80780000D01*
X112093333Y-80732380D01*
X112331428Y-80732380D01*
X112426666Y-80780000D01*
X112474285Y-80827619D01*
X112521904Y-80922857D01*
X112521904Y-81018095D01*
X112474285Y-81160952D01*
X111902857Y-81732380D01*
X112521904Y-81732380D01*
X110998095Y-83367619D02*
X111045714Y-83320000D01*
X111140952Y-83272380D01*
X111379047Y-83272380D01*
X111474285Y-83320000D01*
X111521904Y-83367619D01*
X111569523Y-83462857D01*
X111569523Y-83558095D01*
X111521904Y-83700952D01*
X110950476Y-84272380D01*
X111569523Y-84272380D01*
X112521904Y-84272380D02*
X111950476Y-84272380D01*
X112236190Y-84272380D02*
X112236190Y-83272380D01*
X112140952Y-83415238D01*
X112045714Y-83510476D01*
X111950476Y-83558095D01*
X110998095Y-85907619D02*
X111045714Y-85860000D01*
X111140952Y-85812380D01*
X111379047Y-85812380D01*
X111474285Y-85860000D01*
X111521904Y-85907619D01*
X111569523Y-86002857D01*
X111569523Y-86098095D01*
X111521904Y-86240952D01*
X110950476Y-86812380D01*
X111569523Y-86812380D01*
X112188571Y-85812380D02*
X112283809Y-85812380D01*
X112379047Y-85860000D01*
X112426666Y-85907619D01*
X112474285Y-86002857D01*
X112521904Y-86193333D01*
X112521904Y-86431428D01*
X112474285Y-86621904D01*
X112426666Y-86717142D01*
X112379047Y-86764761D01*
X112283809Y-86812380D01*
X112188571Y-86812380D01*
X112093333Y-86764761D01*
X112045714Y-86717142D01*
X111998095Y-86621904D01*
X111950476Y-86431428D01*
X111950476Y-86193333D01*
X111998095Y-86002857D01*
X112045714Y-85907619D01*
X112093333Y-85860000D01*
X112188571Y-85812380D01*
X111569523Y-89352380D02*
X110998095Y-89352380D01*
X111283809Y-89352380D02*
X111283809Y-88352380D01*
X111188571Y-88495238D01*
X111093333Y-88590476D01*
X110998095Y-88638095D01*
X112045714Y-89352380D02*
X112236190Y-89352380D01*
X112331428Y-89304761D01*
X112379047Y-89257142D01*
X112474285Y-89114285D01*
X112521904Y-88923809D01*
X112521904Y-88542857D01*
X112474285Y-88447619D01*
X112426666Y-88400000D01*
X112331428Y-88352380D01*
X112140952Y-88352380D01*
X112045714Y-88400000D01*
X111998095Y-88447619D01*
X111950476Y-88542857D01*
X111950476Y-88780952D01*
X111998095Y-88876190D01*
X112045714Y-88923809D01*
X112140952Y-88971428D01*
X112331428Y-88971428D01*
X112426666Y-88923809D01*
X112474285Y-88876190D01*
X112521904Y-88780952D01*
X104330476Y-88352380D02*
X104140000Y-88352380D01*
X104044761Y-88400000D01*
X103997142Y-88447619D01*
X103901904Y-88590476D01*
X103854285Y-88780952D01*
X103854285Y-89161904D01*
X103901904Y-89257142D01*
X103949523Y-89304761D01*
X104044761Y-89352380D01*
X104235238Y-89352380D01*
X104330476Y-89304761D01*
X104378095Y-89257142D01*
X104425714Y-89161904D01*
X104425714Y-88923809D01*
X104378095Y-88828571D01*
X104330476Y-88780952D01*
X104235238Y-88733333D01*
X104044761Y-88733333D01*
X103949523Y-88780952D01*
X103901904Y-88828571D01*
X103854285Y-88923809D01*
D11*
G04 #@! TO.C,U1*
X110598115Y-89834124D02*
X110933991Y-90170000D01*
X110933991Y-90170000D02*
X110598115Y-90505876D01*
X105301885Y-90505876D02*
X104966009Y-90170000D01*
X104966009Y-90170000D02*
X105301885Y-89834124D01*
X107614124Y-92818115D02*
X107950000Y-93153991D01*
X107950000Y-93153991D02*
X108285876Y-92818115D01*
X108285876Y-87521885D02*
X107950000Y-87186009D01*
G04 #@! TD*
M02*
