G04 #@! TF.GenerationSoftware,KiCad,Pcbnew,(5.0.0-3-g5ebb6b6)*
G04 #@! TF.CreationDate,2019-01-26T00:17:38+00:00*
G04 #@! TF.ProjectId,QFN24_DIP,51464E32345F4449502E6B696361645F,rev?*
G04 #@! TF.SameCoordinates,Original*
G04 #@! TF.FileFunction,Legend,Bot*
G04 #@! TF.FilePolarity,Positive*
%FSLAX46Y46*%
G04 Gerber Fmt 4.6, Leading zero omitted, Abs format (unit mm)*
G04 Created by KiCad (PCBNEW (5.0.0-3-g5ebb6b6)) date Saturday, 26 January 2019 at 00:17:38*
%MOMM*%
%LPD*%
G01*
G04 APERTURE LIST*
%ADD10C,0.120000*%
G04 APERTURE END LIST*
D10*
G04 #@! TO.C,J1*
X102930000Y-105470000D02*
X100270000Y-105470000D01*
X102930000Y-77470000D02*
X102930000Y-105470000D01*
X100270000Y-77470000D02*
X100270000Y-105470000D01*
X102930000Y-77470000D02*
X100270000Y-77470000D01*
X102930000Y-76200000D02*
X102930000Y-74870000D01*
X102930000Y-74870000D02*
X101600000Y-74870000D01*
G04 #@! TO.C,J2*
X112970000Y-105470000D02*
X114300000Y-105470000D01*
X112970000Y-104140000D02*
X112970000Y-105470000D01*
X112970000Y-102870000D02*
X115630000Y-102870000D01*
X115630000Y-102870000D02*
X115630000Y-74870000D01*
X112970000Y-102870000D02*
X112970000Y-74870000D01*
X112970000Y-74870000D02*
X115630000Y-74870000D01*
G04 #@! TO.C,J3*
X109280000Y-77530000D02*
X106620000Y-77530000D01*
X109280000Y-77470000D02*
X109280000Y-77530000D01*
X106620000Y-77470000D02*
X106620000Y-77530000D01*
X109280000Y-77470000D02*
X106620000Y-77470000D01*
X109280000Y-76200000D02*
X109280000Y-74870000D01*
X109280000Y-74870000D02*
X107950000Y-74870000D01*
G04 #@! TO.C,J4*
X106620000Y-105470000D02*
X107950000Y-105470000D01*
X106620000Y-104140000D02*
X106620000Y-105470000D01*
X106620000Y-102870000D02*
X109280000Y-102870000D01*
X109280000Y-102870000D02*
X109280000Y-102810000D01*
X106620000Y-102870000D02*
X106620000Y-102810000D01*
X106620000Y-102810000D02*
X109280000Y-102810000D01*
G04 #@! TD*
M02*
