G04 #@! TF.GenerationSoftware,KiCad,Pcbnew,(5.0.0-3-g5ebb6b6)*
G04 #@! TF.CreationDate,2019-01-26T00:41:44+00:00*
G04 #@! TF.ProjectId,QFN32,51464E33322E6B696361645F70636200,rev?*
G04 #@! TF.SameCoordinates,Original*
G04 #@! TF.FileFunction,Copper,L2,Bot,Signal*
G04 #@! TF.FilePolarity,Positive*
%FSLAX46Y46*%
G04 Gerber Fmt 4.6, Leading zero omitted, Abs format (unit mm)*
G04 Created by KiCad (PCBNEW (5.0.0-3-g5ebb6b6)) date Saturday, 26 January 2019 at 00:41:44*
%MOMM*%
%LPD*%
G01*
G04 APERTURE LIST*
G04 #@! TA.AperFunction,ComponentPad*
%ADD10R,1.700000X1.700000*%
G04 #@! TD*
G04 #@! TA.AperFunction,ComponentPad*
%ADD11O,1.700000X1.700000*%
G04 #@! TD*
G04 #@! TA.AperFunction,ViaPad*
%ADD12C,0.500000*%
G04 #@! TD*
G04 #@! TA.AperFunction,Conductor*
%ADD13C,0.100000*%
G04 #@! TD*
G04 #@! TA.AperFunction,Conductor*
%ADD14C,2.500000*%
G04 #@! TD*
G04 #@! TA.AperFunction,Conductor*
%ADD15C,0.254000*%
G04 #@! TD*
G04 APERTURE END LIST*
D10*
G04 #@! TO.P,J1,1*
G04 #@! TO.N,/THERMAL_PAD*
X135890000Y-114300000D03*
G04 #@! TD*
G04 #@! TO.P,J2,1*
G04 #@! TO.N,/THERMAL_PAD*
X135890000Y-76200000D03*
G04 #@! TD*
G04 #@! TO.P,J3,1*
G04 #@! TO.N,/1*
X129540000Y-76200000D03*
D11*
G04 #@! TO.P,J3,2*
G04 #@! TO.N,/2*
X129540000Y-78740000D03*
G04 #@! TO.P,J3,3*
G04 #@! TO.N,/3*
X129540000Y-81280000D03*
G04 #@! TO.P,J3,4*
G04 #@! TO.N,/4*
X129540000Y-83820000D03*
G04 #@! TO.P,J3,5*
G04 #@! TO.N,/5*
X129540000Y-86360000D03*
G04 #@! TO.P,J3,6*
G04 #@! TO.N,/6*
X129540000Y-88900000D03*
G04 #@! TO.P,J3,7*
G04 #@! TO.N,/7*
X129540000Y-91440000D03*
G04 #@! TO.P,J3,8*
G04 #@! TO.N,/8*
X129540000Y-93980000D03*
G04 #@! TO.P,J3,9*
G04 #@! TO.N,/9*
X129540000Y-96520000D03*
G04 #@! TO.P,J3,10*
G04 #@! TO.N,/10*
X129540000Y-99060000D03*
G04 #@! TO.P,J3,11*
G04 #@! TO.N,/11*
X129540000Y-101600000D03*
G04 #@! TO.P,J3,12*
G04 #@! TO.N,/12*
X129540000Y-104140000D03*
G04 #@! TO.P,J3,13*
G04 #@! TO.N,/13*
X129540000Y-106680000D03*
G04 #@! TO.P,J3,14*
G04 #@! TO.N,/14*
X129540000Y-109220000D03*
G04 #@! TO.P,J3,15*
G04 #@! TO.N,/15*
X129540000Y-111760000D03*
G04 #@! TO.P,J3,16*
G04 #@! TO.N,/16*
X129540000Y-114300000D03*
G04 #@! TD*
G04 #@! TO.P,J4,16*
G04 #@! TO.N,/32*
X142240000Y-76200000D03*
G04 #@! TO.P,J4,15*
G04 #@! TO.N,/31*
X142240000Y-78740000D03*
G04 #@! TO.P,J4,14*
G04 #@! TO.N,/30*
X142240000Y-81280000D03*
G04 #@! TO.P,J4,13*
G04 #@! TO.N,/29*
X142240000Y-83820000D03*
G04 #@! TO.P,J4,12*
G04 #@! TO.N,/28*
X142240000Y-86360000D03*
G04 #@! TO.P,J4,11*
G04 #@! TO.N,/27*
X142240000Y-88900000D03*
G04 #@! TO.P,J4,10*
G04 #@! TO.N,/26*
X142240000Y-91440000D03*
G04 #@! TO.P,J4,9*
G04 #@! TO.N,/25*
X142240000Y-93980000D03*
G04 #@! TO.P,J4,8*
G04 #@! TO.N,/24*
X142240000Y-96520000D03*
G04 #@! TO.P,J4,7*
G04 #@! TO.N,/23*
X142240000Y-99060000D03*
G04 #@! TO.P,J4,6*
G04 #@! TO.N,/22*
X142240000Y-101600000D03*
G04 #@! TO.P,J4,5*
G04 #@! TO.N,/21*
X142240000Y-104140000D03*
G04 #@! TO.P,J4,4*
G04 #@! TO.N,/20*
X142240000Y-106680000D03*
G04 #@! TO.P,J4,3*
G04 #@! TO.N,/19*
X142240000Y-109220000D03*
G04 #@! TO.P,J4,2*
G04 #@! TO.N,/18*
X142240000Y-111760000D03*
D10*
G04 #@! TO.P,J4,1*
G04 #@! TO.N,/17*
X142240000Y-114300000D03*
G04 #@! TD*
D12*
G04 #@! TO.N,/THERMAL_PAD*
G04 #@! TO.C,U1*
X135890000Y-93835786D03*
X136597107Y-94542893D03*
X137304214Y-95250000D03*
X135182893Y-94542893D03*
X135890000Y-95250000D03*
X136597107Y-95957107D03*
X134475786Y-95250000D03*
X135182893Y-95957107D03*
X135890000Y-96664214D03*
D13*
G36*
X135914504Y-93586990D02*
X135938773Y-93590590D01*
X135962571Y-93596551D01*
X135985671Y-93604816D01*
X136007849Y-93615306D01*
X136028893Y-93627919D01*
X136048598Y-93642533D01*
X136066777Y-93659009D01*
X137480991Y-95073223D01*
X137497467Y-95091402D01*
X137512081Y-95111107D01*
X137524694Y-95132151D01*
X137535184Y-95154329D01*
X137543449Y-95177429D01*
X137549410Y-95201227D01*
X137553010Y-95225496D01*
X137554214Y-95250000D01*
X137553010Y-95274504D01*
X137549410Y-95298773D01*
X137543449Y-95322571D01*
X137535184Y-95345671D01*
X137524694Y-95367849D01*
X137512081Y-95388893D01*
X137497467Y-95408598D01*
X137480991Y-95426777D01*
X136066777Y-96840991D01*
X136048598Y-96857467D01*
X136028893Y-96872081D01*
X136007849Y-96884694D01*
X135985671Y-96895184D01*
X135962571Y-96903449D01*
X135938773Y-96909410D01*
X135914504Y-96913010D01*
X135890000Y-96914214D01*
X135865496Y-96913010D01*
X135841227Y-96909410D01*
X135817429Y-96903449D01*
X135794329Y-96895184D01*
X135772151Y-96884694D01*
X135751107Y-96872081D01*
X135731402Y-96857467D01*
X135713223Y-96840991D01*
X134299009Y-95426777D01*
X134282533Y-95408598D01*
X134267919Y-95388893D01*
X134255306Y-95367849D01*
X134244816Y-95345671D01*
X134236551Y-95322571D01*
X134230590Y-95298773D01*
X134226990Y-95274504D01*
X134225786Y-95250000D01*
X134226990Y-95225496D01*
X134230590Y-95201227D01*
X134236551Y-95177429D01*
X134244816Y-95154329D01*
X134255306Y-95132151D01*
X134267919Y-95111107D01*
X134282533Y-95091402D01*
X134299009Y-95073223D01*
X135713223Y-93659009D01*
X135731402Y-93642533D01*
X135751107Y-93627919D01*
X135772151Y-93615306D01*
X135794329Y-93604816D01*
X135817429Y-93596551D01*
X135841227Y-93590590D01*
X135865496Y-93586990D01*
X135890000Y-93585786D01*
X135914504Y-93586990D01*
X135914504Y-93586990D01*
G37*
D14*
X135890000Y-95250000D03*
G04 #@! TD*
D15*
G04 #@! TO.N,/THERMAL_PAD*
G36*
X144070001Y-116130000D02*
X127710000Y-116130000D01*
X127710000Y-78740000D01*
X128025908Y-78740000D01*
X128141161Y-79319418D01*
X128469375Y-79810625D01*
X128767761Y-80010000D01*
X128469375Y-80209375D01*
X128141161Y-80700582D01*
X128025908Y-81280000D01*
X128141161Y-81859418D01*
X128469375Y-82350625D01*
X128767761Y-82550000D01*
X128469375Y-82749375D01*
X128141161Y-83240582D01*
X128025908Y-83820000D01*
X128141161Y-84399418D01*
X128469375Y-84890625D01*
X128767761Y-85090000D01*
X128469375Y-85289375D01*
X128141161Y-85780582D01*
X128025908Y-86360000D01*
X128141161Y-86939418D01*
X128469375Y-87430625D01*
X128767761Y-87630000D01*
X128469375Y-87829375D01*
X128141161Y-88320582D01*
X128025908Y-88900000D01*
X128141161Y-89479418D01*
X128469375Y-89970625D01*
X128767761Y-90170000D01*
X128469375Y-90369375D01*
X128141161Y-90860582D01*
X128025908Y-91440000D01*
X128141161Y-92019418D01*
X128469375Y-92510625D01*
X128767761Y-92710000D01*
X128469375Y-92909375D01*
X128141161Y-93400582D01*
X128025908Y-93980000D01*
X128141161Y-94559418D01*
X128469375Y-95050625D01*
X128767761Y-95250000D01*
X128469375Y-95449375D01*
X128141161Y-95940582D01*
X128025908Y-96520000D01*
X128141161Y-97099418D01*
X128469375Y-97590625D01*
X128767761Y-97790000D01*
X128469375Y-97989375D01*
X128141161Y-98480582D01*
X128025908Y-99060000D01*
X128141161Y-99639418D01*
X128469375Y-100130625D01*
X128767761Y-100330000D01*
X128469375Y-100529375D01*
X128141161Y-101020582D01*
X128025908Y-101600000D01*
X128141161Y-102179418D01*
X128469375Y-102670625D01*
X128767761Y-102870000D01*
X128469375Y-103069375D01*
X128141161Y-103560582D01*
X128025908Y-104140000D01*
X128141161Y-104719418D01*
X128469375Y-105210625D01*
X128767761Y-105410000D01*
X128469375Y-105609375D01*
X128141161Y-106100582D01*
X128025908Y-106680000D01*
X128141161Y-107259418D01*
X128469375Y-107750625D01*
X128767761Y-107950000D01*
X128469375Y-108149375D01*
X128141161Y-108640582D01*
X128025908Y-109220000D01*
X128141161Y-109799418D01*
X128469375Y-110290625D01*
X128767761Y-110490000D01*
X128469375Y-110689375D01*
X128141161Y-111180582D01*
X128025908Y-111760000D01*
X128141161Y-112339418D01*
X128469375Y-112830625D01*
X128767761Y-113030000D01*
X128469375Y-113229375D01*
X128141161Y-113720582D01*
X128025908Y-114300000D01*
X128141161Y-114879418D01*
X128469375Y-115370625D01*
X128960582Y-115698839D01*
X129393744Y-115785000D01*
X129686256Y-115785000D01*
X130119418Y-115698839D01*
X130610625Y-115370625D01*
X130938839Y-114879418D01*
X131054092Y-114300000D01*
X130938839Y-113720582D01*
X130610625Y-113229375D01*
X130312239Y-113030000D01*
X130610625Y-112830625D01*
X130938839Y-112339418D01*
X131054092Y-111760000D01*
X130938839Y-111180582D01*
X130610625Y-110689375D01*
X130312239Y-110490000D01*
X130610625Y-110290625D01*
X130938839Y-109799418D01*
X131054092Y-109220000D01*
X130938839Y-108640582D01*
X130610625Y-108149375D01*
X130312239Y-107950000D01*
X130610625Y-107750625D01*
X130938839Y-107259418D01*
X131054092Y-106680000D01*
X130938839Y-106100582D01*
X130610625Y-105609375D01*
X130312239Y-105410000D01*
X130610625Y-105210625D01*
X130938839Y-104719418D01*
X131054092Y-104140000D01*
X130938839Y-103560582D01*
X130610625Y-103069375D01*
X130312239Y-102870000D01*
X130610625Y-102670625D01*
X130938839Y-102179418D01*
X131054092Y-101600000D01*
X130938839Y-101020582D01*
X130610625Y-100529375D01*
X130312239Y-100330000D01*
X130610625Y-100130625D01*
X130938839Y-99639418D01*
X131054092Y-99060000D01*
X130938839Y-98480582D01*
X130610625Y-97989375D01*
X130312239Y-97790000D01*
X130610625Y-97590625D01*
X130938839Y-97099418D01*
X131054092Y-96520000D01*
X130938839Y-95940582D01*
X130610625Y-95449375D01*
X130312239Y-95250000D01*
X130610625Y-95050625D01*
X130938839Y-94559418D01*
X131054092Y-93980000D01*
X130938839Y-93400582D01*
X130610625Y-92909375D01*
X130312239Y-92710000D01*
X130610625Y-92510625D01*
X130938839Y-92019418D01*
X131054092Y-91440000D01*
X130938839Y-90860582D01*
X130610625Y-90369375D01*
X130312239Y-90170000D01*
X130610625Y-89970625D01*
X130938839Y-89479418D01*
X131054092Y-88900000D01*
X130938839Y-88320582D01*
X130610625Y-87829375D01*
X130312239Y-87630000D01*
X130610625Y-87430625D01*
X130938839Y-86939418D01*
X131054092Y-86360000D01*
X130938839Y-85780582D01*
X130610625Y-85289375D01*
X130312239Y-85090000D01*
X130610625Y-84890625D01*
X130938839Y-84399418D01*
X131054092Y-83820000D01*
X130938839Y-83240582D01*
X130610625Y-82749375D01*
X130312239Y-82550000D01*
X130610625Y-82350625D01*
X130938839Y-81859418D01*
X131054092Y-81280000D01*
X130938839Y-80700582D01*
X130610625Y-80209375D01*
X130312239Y-80010000D01*
X130610625Y-79810625D01*
X130938839Y-79319418D01*
X131054092Y-78740000D01*
X130938839Y-78160582D01*
X130610625Y-77669375D01*
X130592381Y-77657184D01*
X130637765Y-77648157D01*
X130847809Y-77507809D01*
X130988157Y-77297765D01*
X131037440Y-77050000D01*
X131037440Y-76200000D01*
X140725908Y-76200000D01*
X140841161Y-76779418D01*
X141169375Y-77270625D01*
X141467761Y-77470000D01*
X141169375Y-77669375D01*
X140841161Y-78160582D01*
X140725908Y-78740000D01*
X140841161Y-79319418D01*
X141169375Y-79810625D01*
X141467761Y-80010000D01*
X141169375Y-80209375D01*
X140841161Y-80700582D01*
X140725908Y-81280000D01*
X140841161Y-81859418D01*
X141169375Y-82350625D01*
X141467761Y-82550000D01*
X141169375Y-82749375D01*
X140841161Y-83240582D01*
X140725908Y-83820000D01*
X140841161Y-84399418D01*
X141169375Y-84890625D01*
X141467761Y-85090000D01*
X141169375Y-85289375D01*
X140841161Y-85780582D01*
X140725908Y-86360000D01*
X140841161Y-86939418D01*
X141169375Y-87430625D01*
X141467761Y-87630000D01*
X141169375Y-87829375D01*
X140841161Y-88320582D01*
X140725908Y-88900000D01*
X140841161Y-89479418D01*
X141169375Y-89970625D01*
X141467761Y-90170000D01*
X141169375Y-90369375D01*
X140841161Y-90860582D01*
X140725908Y-91440000D01*
X140841161Y-92019418D01*
X141169375Y-92510625D01*
X141467761Y-92710000D01*
X141169375Y-92909375D01*
X140841161Y-93400582D01*
X140725908Y-93980000D01*
X140841161Y-94559418D01*
X141169375Y-95050625D01*
X141467761Y-95250000D01*
X141169375Y-95449375D01*
X140841161Y-95940582D01*
X140725908Y-96520000D01*
X140841161Y-97099418D01*
X141169375Y-97590625D01*
X141467761Y-97790000D01*
X141169375Y-97989375D01*
X140841161Y-98480582D01*
X140725908Y-99060000D01*
X140841161Y-99639418D01*
X141169375Y-100130625D01*
X141467761Y-100330000D01*
X141169375Y-100529375D01*
X140841161Y-101020582D01*
X140725908Y-101600000D01*
X140841161Y-102179418D01*
X141169375Y-102670625D01*
X141467761Y-102870000D01*
X141169375Y-103069375D01*
X140841161Y-103560582D01*
X140725908Y-104140000D01*
X140841161Y-104719418D01*
X141169375Y-105210625D01*
X141467761Y-105410000D01*
X141169375Y-105609375D01*
X140841161Y-106100582D01*
X140725908Y-106680000D01*
X140841161Y-107259418D01*
X141169375Y-107750625D01*
X141467761Y-107950000D01*
X141169375Y-108149375D01*
X140841161Y-108640582D01*
X140725908Y-109220000D01*
X140841161Y-109799418D01*
X141169375Y-110290625D01*
X141467761Y-110490000D01*
X141169375Y-110689375D01*
X140841161Y-111180582D01*
X140725908Y-111760000D01*
X140841161Y-112339418D01*
X141169375Y-112830625D01*
X141187619Y-112842816D01*
X141142235Y-112851843D01*
X140932191Y-112992191D01*
X140791843Y-113202235D01*
X140742560Y-113450000D01*
X140742560Y-115150000D01*
X140791843Y-115397765D01*
X140932191Y-115607809D01*
X141142235Y-115748157D01*
X141390000Y-115797440D01*
X143090000Y-115797440D01*
X143337765Y-115748157D01*
X143547809Y-115607809D01*
X143688157Y-115397765D01*
X143737440Y-115150000D01*
X143737440Y-113450000D01*
X143688157Y-113202235D01*
X143547809Y-112992191D01*
X143337765Y-112851843D01*
X143292381Y-112842816D01*
X143310625Y-112830625D01*
X143638839Y-112339418D01*
X143754092Y-111760000D01*
X143638839Y-111180582D01*
X143310625Y-110689375D01*
X143012239Y-110490000D01*
X143310625Y-110290625D01*
X143638839Y-109799418D01*
X143754092Y-109220000D01*
X143638839Y-108640582D01*
X143310625Y-108149375D01*
X143012239Y-107950000D01*
X143310625Y-107750625D01*
X143638839Y-107259418D01*
X143754092Y-106680000D01*
X143638839Y-106100582D01*
X143310625Y-105609375D01*
X143012239Y-105410000D01*
X143310625Y-105210625D01*
X143638839Y-104719418D01*
X143754092Y-104140000D01*
X143638839Y-103560582D01*
X143310625Y-103069375D01*
X143012239Y-102870000D01*
X143310625Y-102670625D01*
X143638839Y-102179418D01*
X143754092Y-101600000D01*
X143638839Y-101020582D01*
X143310625Y-100529375D01*
X143012239Y-100330000D01*
X143310625Y-100130625D01*
X143638839Y-99639418D01*
X143754092Y-99060000D01*
X143638839Y-98480582D01*
X143310625Y-97989375D01*
X143012239Y-97790000D01*
X143310625Y-97590625D01*
X143638839Y-97099418D01*
X143754092Y-96520000D01*
X143638839Y-95940582D01*
X143310625Y-95449375D01*
X143012239Y-95250000D01*
X143310625Y-95050625D01*
X143638839Y-94559418D01*
X143754092Y-93980000D01*
X143638839Y-93400582D01*
X143310625Y-92909375D01*
X143012239Y-92710000D01*
X143310625Y-92510625D01*
X143638839Y-92019418D01*
X143754092Y-91440000D01*
X143638839Y-90860582D01*
X143310625Y-90369375D01*
X143012239Y-90170000D01*
X143310625Y-89970625D01*
X143638839Y-89479418D01*
X143754092Y-88900000D01*
X143638839Y-88320582D01*
X143310625Y-87829375D01*
X143012239Y-87630000D01*
X143310625Y-87430625D01*
X143638839Y-86939418D01*
X143754092Y-86360000D01*
X143638839Y-85780582D01*
X143310625Y-85289375D01*
X143012239Y-85090000D01*
X143310625Y-84890625D01*
X143638839Y-84399418D01*
X143754092Y-83820000D01*
X143638839Y-83240582D01*
X143310625Y-82749375D01*
X143012239Y-82550000D01*
X143310625Y-82350625D01*
X143638839Y-81859418D01*
X143754092Y-81280000D01*
X143638839Y-80700582D01*
X143310625Y-80209375D01*
X143012239Y-80010000D01*
X143310625Y-79810625D01*
X143638839Y-79319418D01*
X143754092Y-78740000D01*
X143638839Y-78160582D01*
X143310625Y-77669375D01*
X143012239Y-77470000D01*
X143310625Y-77270625D01*
X143638839Y-76779418D01*
X143754092Y-76200000D01*
X143638839Y-75620582D01*
X143310625Y-75129375D01*
X142819418Y-74801161D01*
X142386256Y-74715000D01*
X142093744Y-74715000D01*
X141660582Y-74801161D01*
X141169375Y-75129375D01*
X140841161Y-75620582D01*
X140725908Y-76200000D01*
X131037440Y-76200000D01*
X131037440Y-75350000D01*
X130988157Y-75102235D01*
X130847809Y-74892191D01*
X130637765Y-74751843D01*
X130390000Y-74702560D01*
X128690000Y-74702560D01*
X128442235Y-74751843D01*
X128232191Y-74892191D01*
X128091843Y-75102235D01*
X128042560Y-75350000D01*
X128042560Y-77050000D01*
X128091843Y-77297765D01*
X128232191Y-77507809D01*
X128442235Y-77648157D01*
X128487619Y-77657184D01*
X128469375Y-77669375D01*
X128141161Y-78160582D01*
X128025908Y-78740000D01*
X127710000Y-78740000D01*
X127710000Y-74395000D01*
X144070000Y-74395000D01*
X144070001Y-116130000D01*
X144070001Y-116130000D01*
G37*
X144070001Y-116130000D02*
X127710000Y-116130000D01*
X127710000Y-78740000D01*
X128025908Y-78740000D01*
X128141161Y-79319418D01*
X128469375Y-79810625D01*
X128767761Y-80010000D01*
X128469375Y-80209375D01*
X128141161Y-80700582D01*
X128025908Y-81280000D01*
X128141161Y-81859418D01*
X128469375Y-82350625D01*
X128767761Y-82550000D01*
X128469375Y-82749375D01*
X128141161Y-83240582D01*
X128025908Y-83820000D01*
X128141161Y-84399418D01*
X128469375Y-84890625D01*
X128767761Y-85090000D01*
X128469375Y-85289375D01*
X128141161Y-85780582D01*
X128025908Y-86360000D01*
X128141161Y-86939418D01*
X128469375Y-87430625D01*
X128767761Y-87630000D01*
X128469375Y-87829375D01*
X128141161Y-88320582D01*
X128025908Y-88900000D01*
X128141161Y-89479418D01*
X128469375Y-89970625D01*
X128767761Y-90170000D01*
X128469375Y-90369375D01*
X128141161Y-90860582D01*
X128025908Y-91440000D01*
X128141161Y-92019418D01*
X128469375Y-92510625D01*
X128767761Y-92710000D01*
X128469375Y-92909375D01*
X128141161Y-93400582D01*
X128025908Y-93980000D01*
X128141161Y-94559418D01*
X128469375Y-95050625D01*
X128767761Y-95250000D01*
X128469375Y-95449375D01*
X128141161Y-95940582D01*
X128025908Y-96520000D01*
X128141161Y-97099418D01*
X128469375Y-97590625D01*
X128767761Y-97790000D01*
X128469375Y-97989375D01*
X128141161Y-98480582D01*
X128025908Y-99060000D01*
X128141161Y-99639418D01*
X128469375Y-100130625D01*
X128767761Y-100330000D01*
X128469375Y-100529375D01*
X128141161Y-101020582D01*
X128025908Y-101600000D01*
X128141161Y-102179418D01*
X128469375Y-102670625D01*
X128767761Y-102870000D01*
X128469375Y-103069375D01*
X128141161Y-103560582D01*
X128025908Y-104140000D01*
X128141161Y-104719418D01*
X128469375Y-105210625D01*
X128767761Y-105410000D01*
X128469375Y-105609375D01*
X128141161Y-106100582D01*
X128025908Y-106680000D01*
X128141161Y-107259418D01*
X128469375Y-107750625D01*
X128767761Y-107950000D01*
X128469375Y-108149375D01*
X128141161Y-108640582D01*
X128025908Y-109220000D01*
X128141161Y-109799418D01*
X128469375Y-110290625D01*
X128767761Y-110490000D01*
X128469375Y-110689375D01*
X128141161Y-111180582D01*
X128025908Y-111760000D01*
X128141161Y-112339418D01*
X128469375Y-112830625D01*
X128767761Y-113030000D01*
X128469375Y-113229375D01*
X128141161Y-113720582D01*
X128025908Y-114300000D01*
X128141161Y-114879418D01*
X128469375Y-115370625D01*
X128960582Y-115698839D01*
X129393744Y-115785000D01*
X129686256Y-115785000D01*
X130119418Y-115698839D01*
X130610625Y-115370625D01*
X130938839Y-114879418D01*
X131054092Y-114300000D01*
X130938839Y-113720582D01*
X130610625Y-113229375D01*
X130312239Y-113030000D01*
X130610625Y-112830625D01*
X130938839Y-112339418D01*
X131054092Y-111760000D01*
X130938839Y-111180582D01*
X130610625Y-110689375D01*
X130312239Y-110490000D01*
X130610625Y-110290625D01*
X130938839Y-109799418D01*
X131054092Y-109220000D01*
X130938839Y-108640582D01*
X130610625Y-108149375D01*
X130312239Y-107950000D01*
X130610625Y-107750625D01*
X130938839Y-107259418D01*
X131054092Y-106680000D01*
X130938839Y-106100582D01*
X130610625Y-105609375D01*
X130312239Y-105410000D01*
X130610625Y-105210625D01*
X130938839Y-104719418D01*
X131054092Y-104140000D01*
X130938839Y-103560582D01*
X130610625Y-103069375D01*
X130312239Y-102870000D01*
X130610625Y-102670625D01*
X130938839Y-102179418D01*
X131054092Y-101600000D01*
X130938839Y-101020582D01*
X130610625Y-100529375D01*
X130312239Y-100330000D01*
X130610625Y-100130625D01*
X130938839Y-99639418D01*
X131054092Y-99060000D01*
X130938839Y-98480582D01*
X130610625Y-97989375D01*
X130312239Y-97790000D01*
X130610625Y-97590625D01*
X130938839Y-97099418D01*
X131054092Y-96520000D01*
X130938839Y-95940582D01*
X130610625Y-95449375D01*
X130312239Y-95250000D01*
X130610625Y-95050625D01*
X130938839Y-94559418D01*
X131054092Y-93980000D01*
X130938839Y-93400582D01*
X130610625Y-92909375D01*
X130312239Y-92710000D01*
X130610625Y-92510625D01*
X130938839Y-92019418D01*
X131054092Y-91440000D01*
X130938839Y-90860582D01*
X130610625Y-90369375D01*
X130312239Y-90170000D01*
X130610625Y-89970625D01*
X130938839Y-89479418D01*
X131054092Y-88900000D01*
X130938839Y-88320582D01*
X130610625Y-87829375D01*
X130312239Y-87630000D01*
X130610625Y-87430625D01*
X130938839Y-86939418D01*
X131054092Y-86360000D01*
X130938839Y-85780582D01*
X130610625Y-85289375D01*
X130312239Y-85090000D01*
X130610625Y-84890625D01*
X130938839Y-84399418D01*
X131054092Y-83820000D01*
X130938839Y-83240582D01*
X130610625Y-82749375D01*
X130312239Y-82550000D01*
X130610625Y-82350625D01*
X130938839Y-81859418D01*
X131054092Y-81280000D01*
X130938839Y-80700582D01*
X130610625Y-80209375D01*
X130312239Y-80010000D01*
X130610625Y-79810625D01*
X130938839Y-79319418D01*
X131054092Y-78740000D01*
X130938839Y-78160582D01*
X130610625Y-77669375D01*
X130592381Y-77657184D01*
X130637765Y-77648157D01*
X130847809Y-77507809D01*
X130988157Y-77297765D01*
X131037440Y-77050000D01*
X131037440Y-76200000D01*
X140725908Y-76200000D01*
X140841161Y-76779418D01*
X141169375Y-77270625D01*
X141467761Y-77470000D01*
X141169375Y-77669375D01*
X140841161Y-78160582D01*
X140725908Y-78740000D01*
X140841161Y-79319418D01*
X141169375Y-79810625D01*
X141467761Y-80010000D01*
X141169375Y-80209375D01*
X140841161Y-80700582D01*
X140725908Y-81280000D01*
X140841161Y-81859418D01*
X141169375Y-82350625D01*
X141467761Y-82550000D01*
X141169375Y-82749375D01*
X140841161Y-83240582D01*
X140725908Y-83820000D01*
X140841161Y-84399418D01*
X141169375Y-84890625D01*
X141467761Y-85090000D01*
X141169375Y-85289375D01*
X140841161Y-85780582D01*
X140725908Y-86360000D01*
X140841161Y-86939418D01*
X141169375Y-87430625D01*
X141467761Y-87630000D01*
X141169375Y-87829375D01*
X140841161Y-88320582D01*
X140725908Y-88900000D01*
X140841161Y-89479418D01*
X141169375Y-89970625D01*
X141467761Y-90170000D01*
X141169375Y-90369375D01*
X140841161Y-90860582D01*
X140725908Y-91440000D01*
X140841161Y-92019418D01*
X141169375Y-92510625D01*
X141467761Y-92710000D01*
X141169375Y-92909375D01*
X140841161Y-93400582D01*
X140725908Y-93980000D01*
X140841161Y-94559418D01*
X141169375Y-95050625D01*
X141467761Y-95250000D01*
X141169375Y-95449375D01*
X140841161Y-95940582D01*
X140725908Y-96520000D01*
X140841161Y-97099418D01*
X141169375Y-97590625D01*
X141467761Y-97790000D01*
X141169375Y-97989375D01*
X140841161Y-98480582D01*
X140725908Y-99060000D01*
X140841161Y-99639418D01*
X141169375Y-100130625D01*
X141467761Y-100330000D01*
X141169375Y-100529375D01*
X140841161Y-101020582D01*
X140725908Y-101600000D01*
X140841161Y-102179418D01*
X141169375Y-102670625D01*
X141467761Y-102870000D01*
X141169375Y-103069375D01*
X140841161Y-103560582D01*
X140725908Y-104140000D01*
X140841161Y-104719418D01*
X141169375Y-105210625D01*
X141467761Y-105410000D01*
X141169375Y-105609375D01*
X140841161Y-106100582D01*
X140725908Y-106680000D01*
X140841161Y-107259418D01*
X141169375Y-107750625D01*
X141467761Y-107950000D01*
X141169375Y-108149375D01*
X140841161Y-108640582D01*
X140725908Y-109220000D01*
X140841161Y-109799418D01*
X141169375Y-110290625D01*
X141467761Y-110490000D01*
X141169375Y-110689375D01*
X140841161Y-111180582D01*
X140725908Y-111760000D01*
X140841161Y-112339418D01*
X141169375Y-112830625D01*
X141187619Y-112842816D01*
X141142235Y-112851843D01*
X140932191Y-112992191D01*
X140791843Y-113202235D01*
X140742560Y-113450000D01*
X140742560Y-115150000D01*
X140791843Y-115397765D01*
X140932191Y-115607809D01*
X141142235Y-115748157D01*
X141390000Y-115797440D01*
X143090000Y-115797440D01*
X143337765Y-115748157D01*
X143547809Y-115607809D01*
X143688157Y-115397765D01*
X143737440Y-115150000D01*
X143737440Y-113450000D01*
X143688157Y-113202235D01*
X143547809Y-112992191D01*
X143337765Y-112851843D01*
X143292381Y-112842816D01*
X143310625Y-112830625D01*
X143638839Y-112339418D01*
X143754092Y-111760000D01*
X143638839Y-111180582D01*
X143310625Y-110689375D01*
X143012239Y-110490000D01*
X143310625Y-110290625D01*
X143638839Y-109799418D01*
X143754092Y-109220000D01*
X143638839Y-108640582D01*
X143310625Y-108149375D01*
X143012239Y-107950000D01*
X143310625Y-107750625D01*
X143638839Y-107259418D01*
X143754092Y-106680000D01*
X143638839Y-106100582D01*
X143310625Y-105609375D01*
X143012239Y-105410000D01*
X143310625Y-105210625D01*
X143638839Y-104719418D01*
X143754092Y-104140000D01*
X143638839Y-103560582D01*
X143310625Y-103069375D01*
X143012239Y-102870000D01*
X143310625Y-102670625D01*
X143638839Y-102179418D01*
X143754092Y-101600000D01*
X143638839Y-101020582D01*
X143310625Y-100529375D01*
X143012239Y-100330000D01*
X143310625Y-100130625D01*
X143638839Y-99639418D01*
X143754092Y-99060000D01*
X143638839Y-98480582D01*
X143310625Y-97989375D01*
X143012239Y-97790000D01*
X143310625Y-97590625D01*
X143638839Y-97099418D01*
X143754092Y-96520000D01*
X143638839Y-95940582D01*
X143310625Y-95449375D01*
X143012239Y-95250000D01*
X143310625Y-95050625D01*
X143638839Y-94559418D01*
X143754092Y-93980000D01*
X143638839Y-93400582D01*
X143310625Y-92909375D01*
X143012239Y-92710000D01*
X143310625Y-92510625D01*
X143638839Y-92019418D01*
X143754092Y-91440000D01*
X143638839Y-90860582D01*
X143310625Y-90369375D01*
X143012239Y-90170000D01*
X143310625Y-89970625D01*
X143638839Y-89479418D01*
X143754092Y-88900000D01*
X143638839Y-88320582D01*
X143310625Y-87829375D01*
X143012239Y-87630000D01*
X143310625Y-87430625D01*
X143638839Y-86939418D01*
X143754092Y-86360000D01*
X143638839Y-85780582D01*
X143310625Y-85289375D01*
X143012239Y-85090000D01*
X143310625Y-84890625D01*
X143638839Y-84399418D01*
X143754092Y-83820000D01*
X143638839Y-83240582D01*
X143310625Y-82749375D01*
X143012239Y-82550000D01*
X143310625Y-82350625D01*
X143638839Y-81859418D01*
X143754092Y-81280000D01*
X143638839Y-80700582D01*
X143310625Y-80209375D01*
X143012239Y-80010000D01*
X143310625Y-79810625D01*
X143638839Y-79319418D01*
X143754092Y-78740000D01*
X143638839Y-78160582D01*
X143310625Y-77669375D01*
X143012239Y-77470000D01*
X143310625Y-77270625D01*
X143638839Y-76779418D01*
X143754092Y-76200000D01*
X143638839Y-75620582D01*
X143310625Y-75129375D01*
X142819418Y-74801161D01*
X142386256Y-74715000D01*
X142093744Y-74715000D01*
X141660582Y-74801161D01*
X141169375Y-75129375D01*
X140841161Y-75620582D01*
X140725908Y-76200000D01*
X131037440Y-76200000D01*
X131037440Y-75350000D01*
X130988157Y-75102235D01*
X130847809Y-74892191D01*
X130637765Y-74751843D01*
X130390000Y-74702560D01*
X128690000Y-74702560D01*
X128442235Y-74751843D01*
X128232191Y-74892191D01*
X128091843Y-75102235D01*
X128042560Y-75350000D01*
X128042560Y-77050000D01*
X128091843Y-77297765D01*
X128232191Y-77507809D01*
X128442235Y-77648157D01*
X128487619Y-77657184D01*
X128469375Y-77669375D01*
X128141161Y-78160582D01*
X128025908Y-78740000D01*
X127710000Y-78740000D01*
X127710000Y-74395000D01*
X144070000Y-74395000D01*
X144070001Y-116130000D01*
G04 #@! TD*
M02*
