G04 #@! TF.GenerationSoftware,KiCad,Pcbnew,(5.0.0-3-g5ebb6b6)*
G04 #@! TF.CreationDate,2019-01-26T00:41:44+00:00*
G04 #@! TF.ProjectId,QFN32,51464E33322E6B696361645F70636200,rev?*
G04 #@! TF.SameCoordinates,Original*
G04 #@! TF.FileFunction,Paste,Top*
G04 #@! TF.FilePolarity,Positive*
%FSLAX46Y46*%
G04 Gerber Fmt 4.6, Leading zero omitted, Abs format (unit mm)*
G04 Created by KiCad (PCBNEW (5.0.0-3-g5ebb6b6)) date Saturday, 26 January 2019 at 00:41:44*
%MOMM*%
%LPD*%
G01*
G04 APERTURE LIST*
%ADD10C,0.100000*%
%ADD11C,0.806226*%
%ADD12C,0.502693*%
%ADD13C,0.483853*%
%ADD14C,0.250000*%
G04 APERTURE END LIST*
D10*
G04 #@! TO.C,U1*
G36*
X135909756Y-94057263D02*
X135929322Y-94060165D01*
X135948509Y-94064971D01*
X135967132Y-94071635D01*
X135985013Y-94080091D01*
X136001979Y-94090260D01*
X136017866Y-94102043D01*
X136032522Y-94115326D01*
X136317567Y-94400371D01*
X136330850Y-94415027D01*
X136342633Y-94430914D01*
X136352802Y-94447880D01*
X136361258Y-94465761D01*
X136367922Y-94484384D01*
X136372728Y-94503571D01*
X136375630Y-94523137D01*
X136376601Y-94542893D01*
X136375630Y-94562649D01*
X136372728Y-94582215D01*
X136367922Y-94601402D01*
X136361258Y-94620025D01*
X136352802Y-94637906D01*
X136342633Y-94654872D01*
X136330850Y-94670759D01*
X136317567Y-94685415D01*
X136032522Y-94970460D01*
X136017866Y-94983743D01*
X136001979Y-94995526D01*
X135985013Y-95005695D01*
X135967132Y-95014151D01*
X135948509Y-95020815D01*
X135929322Y-95025621D01*
X135909756Y-95028523D01*
X135890000Y-95029494D01*
X135870244Y-95028523D01*
X135850678Y-95025621D01*
X135831491Y-95020815D01*
X135812868Y-95014151D01*
X135794987Y-95005695D01*
X135778021Y-94995526D01*
X135762134Y-94983743D01*
X135747478Y-94970460D01*
X135462433Y-94685415D01*
X135449150Y-94670759D01*
X135437367Y-94654872D01*
X135427198Y-94637906D01*
X135418742Y-94620025D01*
X135412078Y-94601402D01*
X135407272Y-94582215D01*
X135404370Y-94562649D01*
X135403399Y-94542893D01*
X135404370Y-94523137D01*
X135407272Y-94503571D01*
X135412078Y-94484384D01*
X135418742Y-94465761D01*
X135427198Y-94447880D01*
X135437367Y-94430914D01*
X135449150Y-94415027D01*
X135462433Y-94400371D01*
X135747478Y-94115326D01*
X135762134Y-94102043D01*
X135778021Y-94090260D01*
X135794987Y-94080091D01*
X135812868Y-94071635D01*
X135831491Y-94064971D01*
X135850678Y-94060165D01*
X135870244Y-94057263D01*
X135890000Y-94056292D01*
X135909756Y-94057263D01*
X135909756Y-94057263D01*
G37*
D11*
X135890000Y-94542893D03*
D10*
G36*
X135202649Y-94764370D02*
X135222215Y-94767272D01*
X135241402Y-94772078D01*
X135260025Y-94778742D01*
X135277906Y-94787198D01*
X135294872Y-94797367D01*
X135310759Y-94809150D01*
X135325415Y-94822433D01*
X135610460Y-95107478D01*
X135623743Y-95122134D01*
X135635526Y-95138021D01*
X135645695Y-95154987D01*
X135654151Y-95172868D01*
X135660815Y-95191491D01*
X135665621Y-95210678D01*
X135668523Y-95230244D01*
X135669494Y-95250000D01*
X135668523Y-95269756D01*
X135665621Y-95289322D01*
X135660815Y-95308509D01*
X135654151Y-95327132D01*
X135645695Y-95345013D01*
X135635526Y-95361979D01*
X135623743Y-95377866D01*
X135610460Y-95392522D01*
X135325415Y-95677567D01*
X135310759Y-95690850D01*
X135294872Y-95702633D01*
X135277906Y-95712802D01*
X135260025Y-95721258D01*
X135241402Y-95727922D01*
X135222215Y-95732728D01*
X135202649Y-95735630D01*
X135182893Y-95736601D01*
X135163137Y-95735630D01*
X135143571Y-95732728D01*
X135124384Y-95727922D01*
X135105761Y-95721258D01*
X135087880Y-95712802D01*
X135070914Y-95702633D01*
X135055027Y-95690850D01*
X135040371Y-95677567D01*
X134755326Y-95392522D01*
X134742043Y-95377866D01*
X134730260Y-95361979D01*
X134720091Y-95345013D01*
X134711635Y-95327132D01*
X134704971Y-95308509D01*
X134700165Y-95289322D01*
X134697263Y-95269756D01*
X134696292Y-95250000D01*
X134697263Y-95230244D01*
X134700165Y-95210678D01*
X134704971Y-95191491D01*
X134711635Y-95172868D01*
X134720091Y-95154987D01*
X134730260Y-95138021D01*
X134742043Y-95122134D01*
X134755326Y-95107478D01*
X135040371Y-94822433D01*
X135055027Y-94809150D01*
X135070914Y-94797367D01*
X135087880Y-94787198D01*
X135105761Y-94778742D01*
X135124384Y-94772078D01*
X135143571Y-94767272D01*
X135163137Y-94764370D01*
X135182893Y-94763399D01*
X135202649Y-94764370D01*
X135202649Y-94764370D01*
G37*
D11*
X135182893Y-95250000D03*
D10*
G36*
X136616863Y-94764370D02*
X136636429Y-94767272D01*
X136655616Y-94772078D01*
X136674239Y-94778742D01*
X136692120Y-94787198D01*
X136709086Y-94797367D01*
X136724973Y-94809150D01*
X136739629Y-94822433D01*
X137024674Y-95107478D01*
X137037957Y-95122134D01*
X137049740Y-95138021D01*
X137059909Y-95154987D01*
X137068365Y-95172868D01*
X137075029Y-95191491D01*
X137079835Y-95210678D01*
X137082737Y-95230244D01*
X137083708Y-95250000D01*
X137082737Y-95269756D01*
X137079835Y-95289322D01*
X137075029Y-95308509D01*
X137068365Y-95327132D01*
X137059909Y-95345013D01*
X137049740Y-95361979D01*
X137037957Y-95377866D01*
X137024674Y-95392522D01*
X136739629Y-95677567D01*
X136724973Y-95690850D01*
X136709086Y-95702633D01*
X136692120Y-95712802D01*
X136674239Y-95721258D01*
X136655616Y-95727922D01*
X136636429Y-95732728D01*
X136616863Y-95735630D01*
X136597107Y-95736601D01*
X136577351Y-95735630D01*
X136557785Y-95732728D01*
X136538598Y-95727922D01*
X136519975Y-95721258D01*
X136502094Y-95712802D01*
X136485128Y-95702633D01*
X136469241Y-95690850D01*
X136454585Y-95677567D01*
X136169540Y-95392522D01*
X136156257Y-95377866D01*
X136144474Y-95361979D01*
X136134305Y-95345013D01*
X136125849Y-95327132D01*
X136119185Y-95308509D01*
X136114379Y-95289322D01*
X136111477Y-95269756D01*
X136110506Y-95250000D01*
X136111477Y-95230244D01*
X136114379Y-95210678D01*
X136119185Y-95191491D01*
X136125849Y-95172868D01*
X136134305Y-95154987D01*
X136144474Y-95138021D01*
X136156257Y-95122134D01*
X136169540Y-95107478D01*
X136454585Y-94822433D01*
X136469241Y-94809150D01*
X136485128Y-94797367D01*
X136502094Y-94787198D01*
X136519975Y-94778742D01*
X136538598Y-94772078D01*
X136557785Y-94767272D01*
X136577351Y-94764370D01*
X136597107Y-94763399D01*
X136616863Y-94764370D01*
X136616863Y-94764370D01*
G37*
D11*
X136597107Y-95250000D03*
D10*
G36*
X135909756Y-95471477D02*
X135929322Y-95474379D01*
X135948509Y-95479185D01*
X135967132Y-95485849D01*
X135985013Y-95494305D01*
X136001979Y-95504474D01*
X136017866Y-95516257D01*
X136032522Y-95529540D01*
X136317567Y-95814585D01*
X136330850Y-95829241D01*
X136342633Y-95845128D01*
X136352802Y-95862094D01*
X136361258Y-95879975D01*
X136367922Y-95898598D01*
X136372728Y-95917785D01*
X136375630Y-95937351D01*
X136376601Y-95957107D01*
X136375630Y-95976863D01*
X136372728Y-95996429D01*
X136367922Y-96015616D01*
X136361258Y-96034239D01*
X136352802Y-96052120D01*
X136342633Y-96069086D01*
X136330850Y-96084973D01*
X136317567Y-96099629D01*
X136032522Y-96384674D01*
X136017866Y-96397957D01*
X136001979Y-96409740D01*
X135985013Y-96419909D01*
X135967132Y-96428365D01*
X135948509Y-96435029D01*
X135929322Y-96439835D01*
X135909756Y-96442737D01*
X135890000Y-96443708D01*
X135870244Y-96442737D01*
X135850678Y-96439835D01*
X135831491Y-96435029D01*
X135812868Y-96428365D01*
X135794987Y-96419909D01*
X135778021Y-96409740D01*
X135762134Y-96397957D01*
X135747478Y-96384674D01*
X135462433Y-96099629D01*
X135449150Y-96084973D01*
X135437367Y-96069086D01*
X135427198Y-96052120D01*
X135418742Y-96034239D01*
X135412078Y-96015616D01*
X135407272Y-95996429D01*
X135404370Y-95976863D01*
X135403399Y-95957107D01*
X135404370Y-95937351D01*
X135407272Y-95917785D01*
X135412078Y-95898598D01*
X135418742Y-95879975D01*
X135427198Y-95862094D01*
X135437367Y-95845128D01*
X135449150Y-95829241D01*
X135462433Y-95814585D01*
X135747478Y-95529540D01*
X135762134Y-95516257D01*
X135778021Y-95504474D01*
X135794987Y-95494305D01*
X135812868Y-95485849D01*
X135831491Y-95479185D01*
X135850678Y-95474379D01*
X135870244Y-95471477D01*
X135890000Y-95470506D01*
X135909756Y-95471477D01*
X135909756Y-95471477D01*
G37*
D11*
X135890000Y-95957107D03*
D12*
X135280120Y-93933014D03*
D10*
G36*
X135689999Y-93936448D02*
X135283554Y-94342893D01*
X135119912Y-94342893D01*
X134788419Y-94011401D01*
X135358507Y-93441313D01*
X135689999Y-93772806D01*
X135689999Y-93936448D01*
X135689999Y-93936448D01*
G37*
D12*
X134573014Y-94640120D03*
D10*
G36*
X134982893Y-94643554D02*
X134576448Y-95049999D01*
X134412806Y-95049999D01*
X134081313Y-94718507D01*
X134651401Y-94148419D01*
X134982893Y-94479912D01*
X134982893Y-94643554D01*
X134982893Y-94643554D01*
G37*
D12*
X137206986Y-95859880D03*
D10*
G36*
X137128599Y-96351581D02*
X136797107Y-96020088D01*
X136797107Y-95856446D01*
X137203552Y-95450001D01*
X137367194Y-95450001D01*
X137698687Y-95781493D01*
X137128599Y-96351581D01*
X137128599Y-96351581D01*
G37*
D12*
X136499880Y-96566986D03*
D10*
G36*
X136421493Y-97058687D02*
X136090001Y-96727194D01*
X136090001Y-96563552D01*
X136496446Y-96157107D01*
X136660088Y-96157107D01*
X136991581Y-96488599D01*
X136421493Y-97058687D01*
X136421493Y-97058687D01*
G37*
D12*
X136499880Y-93933014D03*
D10*
G36*
X136660088Y-94342893D02*
X136496446Y-94342893D01*
X136090001Y-93936448D01*
X136090001Y-93772806D01*
X136421493Y-93441313D01*
X136991581Y-94011401D01*
X136660088Y-94342893D01*
X136660088Y-94342893D01*
G37*
D12*
X137206986Y-94640120D03*
D10*
G36*
X137367194Y-95049999D02*
X137203552Y-95049999D01*
X136797107Y-94643554D01*
X136797107Y-94479912D01*
X137128599Y-94148419D01*
X137698687Y-94718507D01*
X137367194Y-95049999D01*
X137367194Y-95049999D01*
G37*
D12*
X134573014Y-95859880D03*
D10*
G36*
X134982893Y-96020088D02*
X134651401Y-96351581D01*
X134081313Y-95781493D01*
X134412806Y-95450001D01*
X134576448Y-95450001D01*
X134982893Y-95856446D01*
X134982893Y-96020088D01*
X134982893Y-96020088D01*
G37*
D12*
X135280120Y-96566986D03*
D10*
G36*
X135689999Y-96727194D02*
X135358507Y-97058687D01*
X134788419Y-96488599D01*
X135119912Y-96157107D01*
X135283554Y-96157107D01*
X135689999Y-96563552D01*
X135689999Y-96727194D01*
X135689999Y-96727194D01*
G37*
D13*
X135890000Y-93323134D03*
D10*
G36*
X135990662Y-93635786D02*
X135789338Y-93635786D01*
X135476686Y-93323134D01*
X135890000Y-92909820D01*
X136303314Y-93323134D01*
X135990662Y-93635786D01*
X135990662Y-93635786D01*
G37*
D13*
X133963134Y-95250000D03*
D10*
G36*
X134275786Y-95350662D02*
X133963134Y-95663314D01*
X133549820Y-95250000D01*
X133963134Y-94836686D01*
X134275786Y-95149338D01*
X134275786Y-95350662D01*
X134275786Y-95350662D01*
G37*
D13*
X137816866Y-95250000D03*
D10*
G36*
X137816866Y-95663314D02*
X137504214Y-95350662D01*
X137504214Y-95149338D01*
X137816866Y-94836686D01*
X138230180Y-95250000D01*
X137816866Y-95663314D01*
X137816866Y-95663314D01*
G37*
D13*
X135890000Y-97176866D03*
D10*
G36*
X135890000Y-97590180D02*
X135476686Y-97176866D01*
X135789338Y-96864214D01*
X135990662Y-96864214D01*
X136303314Y-97176866D01*
X135890000Y-97590180D01*
X135890000Y-97590180D01*
G37*
G36*
X135189019Y-91917432D02*
X135195086Y-91918332D01*
X135201036Y-91919822D01*
X135206811Y-91921889D01*
X135212355Y-91924511D01*
X135217616Y-91927664D01*
X135222543Y-91931318D01*
X135227087Y-91935437D01*
X135686707Y-92395057D01*
X135690826Y-92399601D01*
X135694480Y-92404528D01*
X135697633Y-92409789D01*
X135700255Y-92415333D01*
X135702322Y-92421108D01*
X135703812Y-92427058D01*
X135704712Y-92433125D01*
X135705013Y-92439251D01*
X135704712Y-92445377D01*
X135703812Y-92451444D01*
X135702322Y-92457394D01*
X135700255Y-92463169D01*
X135697633Y-92468713D01*
X135694480Y-92473974D01*
X135690826Y-92478901D01*
X135686707Y-92483445D01*
X135598319Y-92571833D01*
X135593775Y-92575952D01*
X135588848Y-92579606D01*
X135583587Y-92582759D01*
X135578043Y-92585381D01*
X135572268Y-92587448D01*
X135566318Y-92588938D01*
X135560251Y-92589838D01*
X135554125Y-92590139D01*
X135547999Y-92589838D01*
X135541932Y-92588938D01*
X135535982Y-92587448D01*
X135530207Y-92585381D01*
X135524663Y-92582759D01*
X135519402Y-92579606D01*
X135514475Y-92575952D01*
X135509931Y-92571833D01*
X135050311Y-92112213D01*
X135046192Y-92107669D01*
X135042538Y-92102742D01*
X135039385Y-92097481D01*
X135036763Y-92091937D01*
X135034696Y-92086162D01*
X135033206Y-92080212D01*
X135032306Y-92074145D01*
X135032005Y-92068019D01*
X135032306Y-92061893D01*
X135033206Y-92055826D01*
X135034696Y-92049876D01*
X135036763Y-92044101D01*
X135039385Y-92038557D01*
X135042538Y-92033296D01*
X135046192Y-92028369D01*
X135050311Y-92023825D01*
X135138699Y-91935437D01*
X135143243Y-91931318D01*
X135148170Y-91927664D01*
X135153431Y-91924511D01*
X135158975Y-91921889D01*
X135164750Y-91919822D01*
X135170700Y-91918332D01*
X135176767Y-91917432D01*
X135182893Y-91917131D01*
X135189019Y-91917432D01*
X135189019Y-91917432D01*
G37*
D14*
X135368509Y-92253635D03*
D10*
G36*
X134835465Y-92270985D02*
X134841532Y-92271885D01*
X134847482Y-92273375D01*
X134853257Y-92275442D01*
X134858801Y-92278064D01*
X134864062Y-92281217D01*
X134868989Y-92284871D01*
X134873533Y-92288990D01*
X135333153Y-92748610D01*
X135337272Y-92753154D01*
X135340926Y-92758081D01*
X135344079Y-92763342D01*
X135346701Y-92768886D01*
X135348768Y-92774661D01*
X135350258Y-92780611D01*
X135351158Y-92786678D01*
X135351459Y-92792804D01*
X135351158Y-92798930D01*
X135350258Y-92804997D01*
X135348768Y-92810947D01*
X135346701Y-92816722D01*
X135344079Y-92822266D01*
X135340926Y-92827527D01*
X135337272Y-92832454D01*
X135333153Y-92836998D01*
X135244765Y-92925386D01*
X135240221Y-92929505D01*
X135235294Y-92933159D01*
X135230033Y-92936312D01*
X135224489Y-92938934D01*
X135218714Y-92941001D01*
X135212764Y-92942491D01*
X135206697Y-92943391D01*
X135200571Y-92943692D01*
X135194445Y-92943391D01*
X135188378Y-92942491D01*
X135182428Y-92941001D01*
X135176653Y-92938934D01*
X135171109Y-92936312D01*
X135165848Y-92933159D01*
X135160921Y-92929505D01*
X135156377Y-92925386D01*
X134696757Y-92465766D01*
X134692638Y-92461222D01*
X134688984Y-92456295D01*
X134685831Y-92451034D01*
X134683209Y-92445490D01*
X134681142Y-92439715D01*
X134679652Y-92433765D01*
X134678752Y-92427698D01*
X134678451Y-92421572D01*
X134678752Y-92415446D01*
X134679652Y-92409379D01*
X134681142Y-92403429D01*
X134683209Y-92397654D01*
X134685831Y-92392110D01*
X134688984Y-92386849D01*
X134692638Y-92381922D01*
X134696757Y-92377378D01*
X134785145Y-92288990D01*
X134789689Y-92284871D01*
X134794616Y-92281217D01*
X134799877Y-92278064D01*
X134805421Y-92275442D01*
X134811196Y-92273375D01*
X134817146Y-92271885D01*
X134823213Y-92270985D01*
X134829339Y-92270684D01*
X134835465Y-92270985D01*
X134835465Y-92270985D01*
G37*
D14*
X135014955Y-92607188D03*
D10*
G36*
X134481912Y-92624539D02*
X134487979Y-92625439D01*
X134493929Y-92626929D01*
X134499704Y-92628996D01*
X134505248Y-92631618D01*
X134510509Y-92634771D01*
X134515436Y-92638425D01*
X134519980Y-92642544D01*
X134979600Y-93102164D01*
X134983719Y-93106708D01*
X134987373Y-93111635D01*
X134990526Y-93116896D01*
X134993148Y-93122440D01*
X134995215Y-93128215D01*
X134996705Y-93134165D01*
X134997605Y-93140232D01*
X134997906Y-93146358D01*
X134997605Y-93152484D01*
X134996705Y-93158551D01*
X134995215Y-93164501D01*
X134993148Y-93170276D01*
X134990526Y-93175820D01*
X134987373Y-93181081D01*
X134983719Y-93186008D01*
X134979600Y-93190552D01*
X134891212Y-93278940D01*
X134886668Y-93283059D01*
X134881741Y-93286713D01*
X134876480Y-93289866D01*
X134870936Y-93292488D01*
X134865161Y-93294555D01*
X134859211Y-93296045D01*
X134853144Y-93296945D01*
X134847018Y-93297246D01*
X134840892Y-93296945D01*
X134834825Y-93296045D01*
X134828875Y-93294555D01*
X134823100Y-93292488D01*
X134817556Y-93289866D01*
X134812295Y-93286713D01*
X134807368Y-93283059D01*
X134802824Y-93278940D01*
X134343204Y-92819320D01*
X134339085Y-92814776D01*
X134335431Y-92809849D01*
X134332278Y-92804588D01*
X134329656Y-92799044D01*
X134327589Y-92793269D01*
X134326099Y-92787319D01*
X134325199Y-92781252D01*
X134324898Y-92775126D01*
X134325199Y-92769000D01*
X134326099Y-92762933D01*
X134327589Y-92756983D01*
X134329656Y-92751208D01*
X134332278Y-92745664D01*
X134335431Y-92740403D01*
X134339085Y-92735476D01*
X134343204Y-92730932D01*
X134431592Y-92642544D01*
X134436136Y-92638425D01*
X134441063Y-92634771D01*
X134446324Y-92631618D01*
X134451868Y-92628996D01*
X134457643Y-92626929D01*
X134463593Y-92625439D01*
X134469660Y-92624539D01*
X134475786Y-92624238D01*
X134481912Y-92624539D01*
X134481912Y-92624539D01*
G37*
D14*
X134661402Y-92960742D03*
D10*
G36*
X134128359Y-92978092D02*
X134134426Y-92978992D01*
X134140376Y-92980482D01*
X134146151Y-92982549D01*
X134151695Y-92985171D01*
X134156956Y-92988324D01*
X134161883Y-92991978D01*
X134166427Y-92996097D01*
X134626047Y-93455717D01*
X134630166Y-93460261D01*
X134633820Y-93465188D01*
X134636973Y-93470449D01*
X134639595Y-93475993D01*
X134641662Y-93481768D01*
X134643152Y-93487718D01*
X134644052Y-93493785D01*
X134644353Y-93499911D01*
X134644052Y-93506037D01*
X134643152Y-93512104D01*
X134641662Y-93518054D01*
X134639595Y-93523829D01*
X134636973Y-93529373D01*
X134633820Y-93534634D01*
X134630166Y-93539561D01*
X134626047Y-93544105D01*
X134537659Y-93632493D01*
X134533115Y-93636612D01*
X134528188Y-93640266D01*
X134522927Y-93643419D01*
X134517383Y-93646041D01*
X134511608Y-93648108D01*
X134505658Y-93649598D01*
X134499591Y-93650498D01*
X134493465Y-93650799D01*
X134487339Y-93650498D01*
X134481272Y-93649598D01*
X134475322Y-93648108D01*
X134469547Y-93646041D01*
X134464003Y-93643419D01*
X134458742Y-93640266D01*
X134453815Y-93636612D01*
X134449271Y-93632493D01*
X133989651Y-93172873D01*
X133985532Y-93168329D01*
X133981878Y-93163402D01*
X133978725Y-93158141D01*
X133976103Y-93152597D01*
X133974036Y-93146822D01*
X133972546Y-93140872D01*
X133971646Y-93134805D01*
X133971345Y-93128679D01*
X133971646Y-93122553D01*
X133972546Y-93116486D01*
X133974036Y-93110536D01*
X133976103Y-93104761D01*
X133978725Y-93099217D01*
X133981878Y-93093956D01*
X133985532Y-93089029D01*
X133989651Y-93084485D01*
X134078039Y-92996097D01*
X134082583Y-92991978D01*
X134087510Y-92988324D01*
X134092771Y-92985171D01*
X134098315Y-92982549D01*
X134104090Y-92980482D01*
X134110040Y-92978992D01*
X134116107Y-92978092D01*
X134122233Y-92977791D01*
X134128359Y-92978092D01*
X134128359Y-92978092D01*
G37*
D14*
X134307849Y-93314295D03*
D10*
G36*
X133774805Y-93331646D02*
X133780872Y-93332546D01*
X133786822Y-93334036D01*
X133792597Y-93336103D01*
X133798141Y-93338725D01*
X133803402Y-93341878D01*
X133808329Y-93345532D01*
X133812873Y-93349651D01*
X134272493Y-93809271D01*
X134276612Y-93813815D01*
X134280266Y-93818742D01*
X134283419Y-93824003D01*
X134286041Y-93829547D01*
X134288108Y-93835322D01*
X134289598Y-93841272D01*
X134290498Y-93847339D01*
X134290799Y-93853465D01*
X134290498Y-93859591D01*
X134289598Y-93865658D01*
X134288108Y-93871608D01*
X134286041Y-93877383D01*
X134283419Y-93882927D01*
X134280266Y-93888188D01*
X134276612Y-93893115D01*
X134272493Y-93897659D01*
X134184105Y-93986047D01*
X134179561Y-93990166D01*
X134174634Y-93993820D01*
X134169373Y-93996973D01*
X134163829Y-93999595D01*
X134158054Y-94001662D01*
X134152104Y-94003152D01*
X134146037Y-94004052D01*
X134139911Y-94004353D01*
X134133785Y-94004052D01*
X134127718Y-94003152D01*
X134121768Y-94001662D01*
X134115993Y-93999595D01*
X134110449Y-93996973D01*
X134105188Y-93993820D01*
X134100261Y-93990166D01*
X134095717Y-93986047D01*
X133636097Y-93526427D01*
X133631978Y-93521883D01*
X133628324Y-93516956D01*
X133625171Y-93511695D01*
X133622549Y-93506151D01*
X133620482Y-93500376D01*
X133618992Y-93494426D01*
X133618092Y-93488359D01*
X133617791Y-93482233D01*
X133618092Y-93476107D01*
X133618992Y-93470040D01*
X133620482Y-93464090D01*
X133622549Y-93458315D01*
X133625171Y-93452771D01*
X133628324Y-93447510D01*
X133631978Y-93442583D01*
X133636097Y-93438039D01*
X133724485Y-93349651D01*
X133729029Y-93345532D01*
X133733956Y-93341878D01*
X133739217Y-93338725D01*
X133744761Y-93336103D01*
X133750536Y-93334036D01*
X133756486Y-93332546D01*
X133762553Y-93331646D01*
X133768679Y-93331345D01*
X133774805Y-93331646D01*
X133774805Y-93331646D01*
G37*
D14*
X133954295Y-93667849D03*
D10*
G36*
X133421252Y-93685199D02*
X133427319Y-93686099D01*
X133433269Y-93687589D01*
X133439044Y-93689656D01*
X133444588Y-93692278D01*
X133449849Y-93695431D01*
X133454776Y-93699085D01*
X133459320Y-93703204D01*
X133918940Y-94162824D01*
X133923059Y-94167368D01*
X133926713Y-94172295D01*
X133929866Y-94177556D01*
X133932488Y-94183100D01*
X133934555Y-94188875D01*
X133936045Y-94194825D01*
X133936945Y-94200892D01*
X133937246Y-94207018D01*
X133936945Y-94213144D01*
X133936045Y-94219211D01*
X133934555Y-94225161D01*
X133932488Y-94230936D01*
X133929866Y-94236480D01*
X133926713Y-94241741D01*
X133923059Y-94246668D01*
X133918940Y-94251212D01*
X133830552Y-94339600D01*
X133826008Y-94343719D01*
X133821081Y-94347373D01*
X133815820Y-94350526D01*
X133810276Y-94353148D01*
X133804501Y-94355215D01*
X133798551Y-94356705D01*
X133792484Y-94357605D01*
X133786358Y-94357906D01*
X133780232Y-94357605D01*
X133774165Y-94356705D01*
X133768215Y-94355215D01*
X133762440Y-94353148D01*
X133756896Y-94350526D01*
X133751635Y-94347373D01*
X133746708Y-94343719D01*
X133742164Y-94339600D01*
X133282544Y-93879980D01*
X133278425Y-93875436D01*
X133274771Y-93870509D01*
X133271618Y-93865248D01*
X133268996Y-93859704D01*
X133266929Y-93853929D01*
X133265439Y-93847979D01*
X133264539Y-93841912D01*
X133264238Y-93835786D01*
X133264539Y-93829660D01*
X133265439Y-93823593D01*
X133266929Y-93817643D01*
X133268996Y-93811868D01*
X133271618Y-93806324D01*
X133274771Y-93801063D01*
X133278425Y-93796136D01*
X133282544Y-93791592D01*
X133370932Y-93703204D01*
X133375476Y-93699085D01*
X133380403Y-93695431D01*
X133385664Y-93692278D01*
X133391208Y-93689656D01*
X133396983Y-93687589D01*
X133402933Y-93686099D01*
X133409000Y-93685199D01*
X133415126Y-93684898D01*
X133421252Y-93685199D01*
X133421252Y-93685199D01*
G37*
D14*
X133600742Y-94021402D03*
D10*
G36*
X133067698Y-94038752D02*
X133073765Y-94039652D01*
X133079715Y-94041142D01*
X133085490Y-94043209D01*
X133091034Y-94045831D01*
X133096295Y-94048984D01*
X133101222Y-94052638D01*
X133105766Y-94056757D01*
X133565386Y-94516377D01*
X133569505Y-94520921D01*
X133573159Y-94525848D01*
X133576312Y-94531109D01*
X133578934Y-94536653D01*
X133581001Y-94542428D01*
X133582491Y-94548378D01*
X133583391Y-94554445D01*
X133583692Y-94560571D01*
X133583391Y-94566697D01*
X133582491Y-94572764D01*
X133581001Y-94578714D01*
X133578934Y-94584489D01*
X133576312Y-94590033D01*
X133573159Y-94595294D01*
X133569505Y-94600221D01*
X133565386Y-94604765D01*
X133476998Y-94693153D01*
X133472454Y-94697272D01*
X133467527Y-94700926D01*
X133462266Y-94704079D01*
X133456722Y-94706701D01*
X133450947Y-94708768D01*
X133444997Y-94710258D01*
X133438930Y-94711158D01*
X133432804Y-94711459D01*
X133426678Y-94711158D01*
X133420611Y-94710258D01*
X133414661Y-94708768D01*
X133408886Y-94706701D01*
X133403342Y-94704079D01*
X133398081Y-94700926D01*
X133393154Y-94697272D01*
X133388610Y-94693153D01*
X132928990Y-94233533D01*
X132924871Y-94228989D01*
X132921217Y-94224062D01*
X132918064Y-94218801D01*
X132915442Y-94213257D01*
X132913375Y-94207482D01*
X132911885Y-94201532D01*
X132910985Y-94195465D01*
X132910684Y-94189339D01*
X132910985Y-94183213D01*
X132911885Y-94177146D01*
X132913375Y-94171196D01*
X132915442Y-94165421D01*
X132918064Y-94159877D01*
X132921217Y-94154616D01*
X132924871Y-94149689D01*
X132928990Y-94145145D01*
X133017378Y-94056757D01*
X133021922Y-94052638D01*
X133026849Y-94048984D01*
X133032110Y-94045831D01*
X133037654Y-94043209D01*
X133043429Y-94041142D01*
X133049379Y-94039652D01*
X133055446Y-94038752D01*
X133061572Y-94038451D01*
X133067698Y-94038752D01*
X133067698Y-94038752D01*
G37*
D14*
X133247188Y-94374955D03*
D10*
G36*
X132714145Y-94392306D02*
X132720212Y-94393206D01*
X132726162Y-94394696D01*
X132731937Y-94396763D01*
X132737481Y-94399385D01*
X132742742Y-94402538D01*
X132747669Y-94406192D01*
X132752213Y-94410311D01*
X133211833Y-94869931D01*
X133215952Y-94874475D01*
X133219606Y-94879402D01*
X133222759Y-94884663D01*
X133225381Y-94890207D01*
X133227448Y-94895982D01*
X133228938Y-94901932D01*
X133229838Y-94907999D01*
X133230139Y-94914125D01*
X133229838Y-94920251D01*
X133228938Y-94926318D01*
X133227448Y-94932268D01*
X133225381Y-94938043D01*
X133222759Y-94943587D01*
X133219606Y-94948848D01*
X133215952Y-94953775D01*
X133211833Y-94958319D01*
X133123445Y-95046707D01*
X133118901Y-95050826D01*
X133113974Y-95054480D01*
X133108713Y-95057633D01*
X133103169Y-95060255D01*
X133097394Y-95062322D01*
X133091444Y-95063812D01*
X133085377Y-95064712D01*
X133079251Y-95065013D01*
X133073125Y-95064712D01*
X133067058Y-95063812D01*
X133061108Y-95062322D01*
X133055333Y-95060255D01*
X133049789Y-95057633D01*
X133044528Y-95054480D01*
X133039601Y-95050826D01*
X133035057Y-95046707D01*
X132575437Y-94587087D01*
X132571318Y-94582543D01*
X132567664Y-94577616D01*
X132564511Y-94572355D01*
X132561889Y-94566811D01*
X132559822Y-94561036D01*
X132558332Y-94555086D01*
X132557432Y-94549019D01*
X132557131Y-94542893D01*
X132557432Y-94536767D01*
X132558332Y-94530700D01*
X132559822Y-94524750D01*
X132561889Y-94518975D01*
X132564511Y-94513431D01*
X132567664Y-94508170D01*
X132571318Y-94503243D01*
X132575437Y-94498699D01*
X132663825Y-94410311D01*
X132668369Y-94406192D01*
X132673296Y-94402538D01*
X132678557Y-94399385D01*
X132684101Y-94396763D01*
X132689876Y-94394696D01*
X132695826Y-94393206D01*
X132701893Y-94392306D01*
X132708019Y-94392005D01*
X132714145Y-94392306D01*
X132714145Y-94392306D01*
G37*
D14*
X132893635Y-94728509D03*
D10*
G36*
X133085377Y-95435288D02*
X133091444Y-95436188D01*
X133097394Y-95437678D01*
X133103169Y-95439745D01*
X133108713Y-95442367D01*
X133113974Y-95445520D01*
X133118901Y-95449174D01*
X133123445Y-95453293D01*
X133211833Y-95541681D01*
X133215952Y-95546225D01*
X133219606Y-95551152D01*
X133222759Y-95556413D01*
X133225381Y-95561957D01*
X133227448Y-95567732D01*
X133228938Y-95573682D01*
X133229838Y-95579749D01*
X133230139Y-95585875D01*
X133229838Y-95592001D01*
X133228938Y-95598068D01*
X133227448Y-95604018D01*
X133225381Y-95609793D01*
X133222759Y-95615337D01*
X133219606Y-95620598D01*
X133215952Y-95625525D01*
X133211833Y-95630069D01*
X132752213Y-96089689D01*
X132747669Y-96093808D01*
X132742742Y-96097462D01*
X132737481Y-96100615D01*
X132731937Y-96103237D01*
X132726162Y-96105304D01*
X132720212Y-96106794D01*
X132714145Y-96107694D01*
X132708019Y-96107995D01*
X132701893Y-96107694D01*
X132695826Y-96106794D01*
X132689876Y-96105304D01*
X132684101Y-96103237D01*
X132678557Y-96100615D01*
X132673296Y-96097462D01*
X132668369Y-96093808D01*
X132663825Y-96089689D01*
X132575437Y-96001301D01*
X132571318Y-95996757D01*
X132567664Y-95991830D01*
X132564511Y-95986569D01*
X132561889Y-95981025D01*
X132559822Y-95975250D01*
X132558332Y-95969300D01*
X132557432Y-95963233D01*
X132557131Y-95957107D01*
X132557432Y-95950981D01*
X132558332Y-95944914D01*
X132559822Y-95938964D01*
X132561889Y-95933189D01*
X132564511Y-95927645D01*
X132567664Y-95922384D01*
X132571318Y-95917457D01*
X132575437Y-95912913D01*
X133035057Y-95453293D01*
X133039601Y-95449174D01*
X133044528Y-95445520D01*
X133049789Y-95442367D01*
X133055333Y-95439745D01*
X133061108Y-95437678D01*
X133067058Y-95436188D01*
X133073125Y-95435288D01*
X133079251Y-95434987D01*
X133085377Y-95435288D01*
X133085377Y-95435288D01*
G37*
D14*
X132893635Y-95771491D03*
D10*
G36*
X133438930Y-95788842D02*
X133444997Y-95789742D01*
X133450947Y-95791232D01*
X133456722Y-95793299D01*
X133462266Y-95795921D01*
X133467527Y-95799074D01*
X133472454Y-95802728D01*
X133476998Y-95806847D01*
X133565386Y-95895235D01*
X133569505Y-95899779D01*
X133573159Y-95904706D01*
X133576312Y-95909967D01*
X133578934Y-95915511D01*
X133581001Y-95921286D01*
X133582491Y-95927236D01*
X133583391Y-95933303D01*
X133583692Y-95939429D01*
X133583391Y-95945555D01*
X133582491Y-95951622D01*
X133581001Y-95957572D01*
X133578934Y-95963347D01*
X133576312Y-95968891D01*
X133573159Y-95974152D01*
X133569505Y-95979079D01*
X133565386Y-95983623D01*
X133105766Y-96443243D01*
X133101222Y-96447362D01*
X133096295Y-96451016D01*
X133091034Y-96454169D01*
X133085490Y-96456791D01*
X133079715Y-96458858D01*
X133073765Y-96460348D01*
X133067698Y-96461248D01*
X133061572Y-96461549D01*
X133055446Y-96461248D01*
X133049379Y-96460348D01*
X133043429Y-96458858D01*
X133037654Y-96456791D01*
X133032110Y-96454169D01*
X133026849Y-96451016D01*
X133021922Y-96447362D01*
X133017378Y-96443243D01*
X132928990Y-96354855D01*
X132924871Y-96350311D01*
X132921217Y-96345384D01*
X132918064Y-96340123D01*
X132915442Y-96334579D01*
X132913375Y-96328804D01*
X132911885Y-96322854D01*
X132910985Y-96316787D01*
X132910684Y-96310661D01*
X132910985Y-96304535D01*
X132911885Y-96298468D01*
X132913375Y-96292518D01*
X132915442Y-96286743D01*
X132918064Y-96281199D01*
X132921217Y-96275938D01*
X132924871Y-96271011D01*
X132928990Y-96266467D01*
X133388610Y-95806847D01*
X133393154Y-95802728D01*
X133398081Y-95799074D01*
X133403342Y-95795921D01*
X133408886Y-95793299D01*
X133414661Y-95791232D01*
X133420611Y-95789742D01*
X133426678Y-95788842D01*
X133432804Y-95788541D01*
X133438930Y-95788842D01*
X133438930Y-95788842D01*
G37*
D14*
X133247188Y-96125045D03*
D10*
G36*
X133792484Y-96142395D02*
X133798551Y-96143295D01*
X133804501Y-96144785D01*
X133810276Y-96146852D01*
X133815820Y-96149474D01*
X133821081Y-96152627D01*
X133826008Y-96156281D01*
X133830552Y-96160400D01*
X133918940Y-96248788D01*
X133923059Y-96253332D01*
X133926713Y-96258259D01*
X133929866Y-96263520D01*
X133932488Y-96269064D01*
X133934555Y-96274839D01*
X133936045Y-96280789D01*
X133936945Y-96286856D01*
X133937246Y-96292982D01*
X133936945Y-96299108D01*
X133936045Y-96305175D01*
X133934555Y-96311125D01*
X133932488Y-96316900D01*
X133929866Y-96322444D01*
X133926713Y-96327705D01*
X133923059Y-96332632D01*
X133918940Y-96337176D01*
X133459320Y-96796796D01*
X133454776Y-96800915D01*
X133449849Y-96804569D01*
X133444588Y-96807722D01*
X133439044Y-96810344D01*
X133433269Y-96812411D01*
X133427319Y-96813901D01*
X133421252Y-96814801D01*
X133415126Y-96815102D01*
X133409000Y-96814801D01*
X133402933Y-96813901D01*
X133396983Y-96812411D01*
X133391208Y-96810344D01*
X133385664Y-96807722D01*
X133380403Y-96804569D01*
X133375476Y-96800915D01*
X133370932Y-96796796D01*
X133282544Y-96708408D01*
X133278425Y-96703864D01*
X133274771Y-96698937D01*
X133271618Y-96693676D01*
X133268996Y-96688132D01*
X133266929Y-96682357D01*
X133265439Y-96676407D01*
X133264539Y-96670340D01*
X133264238Y-96664214D01*
X133264539Y-96658088D01*
X133265439Y-96652021D01*
X133266929Y-96646071D01*
X133268996Y-96640296D01*
X133271618Y-96634752D01*
X133274771Y-96629491D01*
X133278425Y-96624564D01*
X133282544Y-96620020D01*
X133742164Y-96160400D01*
X133746708Y-96156281D01*
X133751635Y-96152627D01*
X133756896Y-96149474D01*
X133762440Y-96146852D01*
X133768215Y-96144785D01*
X133774165Y-96143295D01*
X133780232Y-96142395D01*
X133786358Y-96142094D01*
X133792484Y-96142395D01*
X133792484Y-96142395D01*
G37*
D14*
X133600742Y-96478598D03*
D10*
G36*
X134146037Y-96495948D02*
X134152104Y-96496848D01*
X134158054Y-96498338D01*
X134163829Y-96500405D01*
X134169373Y-96503027D01*
X134174634Y-96506180D01*
X134179561Y-96509834D01*
X134184105Y-96513953D01*
X134272493Y-96602341D01*
X134276612Y-96606885D01*
X134280266Y-96611812D01*
X134283419Y-96617073D01*
X134286041Y-96622617D01*
X134288108Y-96628392D01*
X134289598Y-96634342D01*
X134290498Y-96640409D01*
X134290799Y-96646535D01*
X134290498Y-96652661D01*
X134289598Y-96658728D01*
X134288108Y-96664678D01*
X134286041Y-96670453D01*
X134283419Y-96675997D01*
X134280266Y-96681258D01*
X134276612Y-96686185D01*
X134272493Y-96690729D01*
X133812873Y-97150349D01*
X133808329Y-97154468D01*
X133803402Y-97158122D01*
X133798141Y-97161275D01*
X133792597Y-97163897D01*
X133786822Y-97165964D01*
X133780872Y-97167454D01*
X133774805Y-97168354D01*
X133768679Y-97168655D01*
X133762553Y-97168354D01*
X133756486Y-97167454D01*
X133750536Y-97165964D01*
X133744761Y-97163897D01*
X133739217Y-97161275D01*
X133733956Y-97158122D01*
X133729029Y-97154468D01*
X133724485Y-97150349D01*
X133636097Y-97061961D01*
X133631978Y-97057417D01*
X133628324Y-97052490D01*
X133625171Y-97047229D01*
X133622549Y-97041685D01*
X133620482Y-97035910D01*
X133618992Y-97029960D01*
X133618092Y-97023893D01*
X133617791Y-97017767D01*
X133618092Y-97011641D01*
X133618992Y-97005574D01*
X133620482Y-96999624D01*
X133622549Y-96993849D01*
X133625171Y-96988305D01*
X133628324Y-96983044D01*
X133631978Y-96978117D01*
X133636097Y-96973573D01*
X134095717Y-96513953D01*
X134100261Y-96509834D01*
X134105188Y-96506180D01*
X134110449Y-96503027D01*
X134115993Y-96500405D01*
X134121768Y-96498338D01*
X134127718Y-96496848D01*
X134133785Y-96495948D01*
X134139911Y-96495647D01*
X134146037Y-96495948D01*
X134146037Y-96495948D01*
G37*
D14*
X133954295Y-96832151D03*
D10*
G36*
X134499591Y-96849502D02*
X134505658Y-96850402D01*
X134511608Y-96851892D01*
X134517383Y-96853959D01*
X134522927Y-96856581D01*
X134528188Y-96859734D01*
X134533115Y-96863388D01*
X134537659Y-96867507D01*
X134626047Y-96955895D01*
X134630166Y-96960439D01*
X134633820Y-96965366D01*
X134636973Y-96970627D01*
X134639595Y-96976171D01*
X134641662Y-96981946D01*
X134643152Y-96987896D01*
X134644052Y-96993963D01*
X134644353Y-97000089D01*
X134644052Y-97006215D01*
X134643152Y-97012282D01*
X134641662Y-97018232D01*
X134639595Y-97024007D01*
X134636973Y-97029551D01*
X134633820Y-97034812D01*
X134630166Y-97039739D01*
X134626047Y-97044283D01*
X134166427Y-97503903D01*
X134161883Y-97508022D01*
X134156956Y-97511676D01*
X134151695Y-97514829D01*
X134146151Y-97517451D01*
X134140376Y-97519518D01*
X134134426Y-97521008D01*
X134128359Y-97521908D01*
X134122233Y-97522209D01*
X134116107Y-97521908D01*
X134110040Y-97521008D01*
X134104090Y-97519518D01*
X134098315Y-97517451D01*
X134092771Y-97514829D01*
X134087510Y-97511676D01*
X134082583Y-97508022D01*
X134078039Y-97503903D01*
X133989651Y-97415515D01*
X133985532Y-97410971D01*
X133981878Y-97406044D01*
X133978725Y-97400783D01*
X133976103Y-97395239D01*
X133974036Y-97389464D01*
X133972546Y-97383514D01*
X133971646Y-97377447D01*
X133971345Y-97371321D01*
X133971646Y-97365195D01*
X133972546Y-97359128D01*
X133974036Y-97353178D01*
X133976103Y-97347403D01*
X133978725Y-97341859D01*
X133981878Y-97336598D01*
X133985532Y-97331671D01*
X133989651Y-97327127D01*
X134449271Y-96867507D01*
X134453815Y-96863388D01*
X134458742Y-96859734D01*
X134464003Y-96856581D01*
X134469547Y-96853959D01*
X134475322Y-96851892D01*
X134481272Y-96850402D01*
X134487339Y-96849502D01*
X134493465Y-96849201D01*
X134499591Y-96849502D01*
X134499591Y-96849502D01*
G37*
D14*
X134307849Y-97185705D03*
D10*
G36*
X134853144Y-97203055D02*
X134859211Y-97203955D01*
X134865161Y-97205445D01*
X134870936Y-97207512D01*
X134876480Y-97210134D01*
X134881741Y-97213287D01*
X134886668Y-97216941D01*
X134891212Y-97221060D01*
X134979600Y-97309448D01*
X134983719Y-97313992D01*
X134987373Y-97318919D01*
X134990526Y-97324180D01*
X134993148Y-97329724D01*
X134995215Y-97335499D01*
X134996705Y-97341449D01*
X134997605Y-97347516D01*
X134997906Y-97353642D01*
X134997605Y-97359768D01*
X134996705Y-97365835D01*
X134995215Y-97371785D01*
X134993148Y-97377560D01*
X134990526Y-97383104D01*
X134987373Y-97388365D01*
X134983719Y-97393292D01*
X134979600Y-97397836D01*
X134519980Y-97857456D01*
X134515436Y-97861575D01*
X134510509Y-97865229D01*
X134505248Y-97868382D01*
X134499704Y-97871004D01*
X134493929Y-97873071D01*
X134487979Y-97874561D01*
X134481912Y-97875461D01*
X134475786Y-97875762D01*
X134469660Y-97875461D01*
X134463593Y-97874561D01*
X134457643Y-97873071D01*
X134451868Y-97871004D01*
X134446324Y-97868382D01*
X134441063Y-97865229D01*
X134436136Y-97861575D01*
X134431592Y-97857456D01*
X134343204Y-97769068D01*
X134339085Y-97764524D01*
X134335431Y-97759597D01*
X134332278Y-97754336D01*
X134329656Y-97748792D01*
X134327589Y-97743017D01*
X134326099Y-97737067D01*
X134325199Y-97731000D01*
X134324898Y-97724874D01*
X134325199Y-97718748D01*
X134326099Y-97712681D01*
X134327589Y-97706731D01*
X134329656Y-97700956D01*
X134332278Y-97695412D01*
X134335431Y-97690151D01*
X134339085Y-97685224D01*
X134343204Y-97680680D01*
X134802824Y-97221060D01*
X134807368Y-97216941D01*
X134812295Y-97213287D01*
X134817556Y-97210134D01*
X134823100Y-97207512D01*
X134828875Y-97205445D01*
X134834825Y-97203955D01*
X134840892Y-97203055D01*
X134847018Y-97202754D01*
X134853144Y-97203055D01*
X134853144Y-97203055D01*
G37*
D14*
X134661402Y-97539258D03*
D10*
G36*
X135206697Y-97556609D02*
X135212764Y-97557509D01*
X135218714Y-97558999D01*
X135224489Y-97561066D01*
X135230033Y-97563688D01*
X135235294Y-97566841D01*
X135240221Y-97570495D01*
X135244765Y-97574614D01*
X135333153Y-97663002D01*
X135337272Y-97667546D01*
X135340926Y-97672473D01*
X135344079Y-97677734D01*
X135346701Y-97683278D01*
X135348768Y-97689053D01*
X135350258Y-97695003D01*
X135351158Y-97701070D01*
X135351459Y-97707196D01*
X135351158Y-97713322D01*
X135350258Y-97719389D01*
X135348768Y-97725339D01*
X135346701Y-97731114D01*
X135344079Y-97736658D01*
X135340926Y-97741919D01*
X135337272Y-97746846D01*
X135333153Y-97751390D01*
X134873533Y-98211010D01*
X134868989Y-98215129D01*
X134864062Y-98218783D01*
X134858801Y-98221936D01*
X134853257Y-98224558D01*
X134847482Y-98226625D01*
X134841532Y-98228115D01*
X134835465Y-98229015D01*
X134829339Y-98229316D01*
X134823213Y-98229015D01*
X134817146Y-98228115D01*
X134811196Y-98226625D01*
X134805421Y-98224558D01*
X134799877Y-98221936D01*
X134794616Y-98218783D01*
X134789689Y-98215129D01*
X134785145Y-98211010D01*
X134696757Y-98122622D01*
X134692638Y-98118078D01*
X134688984Y-98113151D01*
X134685831Y-98107890D01*
X134683209Y-98102346D01*
X134681142Y-98096571D01*
X134679652Y-98090621D01*
X134678752Y-98084554D01*
X134678451Y-98078428D01*
X134678752Y-98072302D01*
X134679652Y-98066235D01*
X134681142Y-98060285D01*
X134683209Y-98054510D01*
X134685831Y-98048966D01*
X134688984Y-98043705D01*
X134692638Y-98038778D01*
X134696757Y-98034234D01*
X135156377Y-97574614D01*
X135160921Y-97570495D01*
X135165848Y-97566841D01*
X135171109Y-97563688D01*
X135176653Y-97561066D01*
X135182428Y-97558999D01*
X135188378Y-97557509D01*
X135194445Y-97556609D01*
X135200571Y-97556308D01*
X135206697Y-97556609D01*
X135206697Y-97556609D01*
G37*
D14*
X135014955Y-97892812D03*
D10*
G36*
X135560251Y-97910162D02*
X135566318Y-97911062D01*
X135572268Y-97912552D01*
X135578043Y-97914619D01*
X135583587Y-97917241D01*
X135588848Y-97920394D01*
X135593775Y-97924048D01*
X135598319Y-97928167D01*
X135686707Y-98016555D01*
X135690826Y-98021099D01*
X135694480Y-98026026D01*
X135697633Y-98031287D01*
X135700255Y-98036831D01*
X135702322Y-98042606D01*
X135703812Y-98048556D01*
X135704712Y-98054623D01*
X135705013Y-98060749D01*
X135704712Y-98066875D01*
X135703812Y-98072942D01*
X135702322Y-98078892D01*
X135700255Y-98084667D01*
X135697633Y-98090211D01*
X135694480Y-98095472D01*
X135690826Y-98100399D01*
X135686707Y-98104943D01*
X135227087Y-98564563D01*
X135222543Y-98568682D01*
X135217616Y-98572336D01*
X135212355Y-98575489D01*
X135206811Y-98578111D01*
X135201036Y-98580178D01*
X135195086Y-98581668D01*
X135189019Y-98582568D01*
X135182893Y-98582869D01*
X135176767Y-98582568D01*
X135170700Y-98581668D01*
X135164750Y-98580178D01*
X135158975Y-98578111D01*
X135153431Y-98575489D01*
X135148170Y-98572336D01*
X135143243Y-98568682D01*
X135138699Y-98564563D01*
X135050311Y-98476175D01*
X135046192Y-98471631D01*
X135042538Y-98466704D01*
X135039385Y-98461443D01*
X135036763Y-98455899D01*
X135034696Y-98450124D01*
X135033206Y-98444174D01*
X135032306Y-98438107D01*
X135032005Y-98431981D01*
X135032306Y-98425855D01*
X135033206Y-98419788D01*
X135034696Y-98413838D01*
X135036763Y-98408063D01*
X135039385Y-98402519D01*
X135042538Y-98397258D01*
X135046192Y-98392331D01*
X135050311Y-98387787D01*
X135509931Y-97928167D01*
X135514475Y-97924048D01*
X135519402Y-97920394D01*
X135524663Y-97917241D01*
X135530207Y-97914619D01*
X135535982Y-97912552D01*
X135541932Y-97911062D01*
X135547999Y-97910162D01*
X135554125Y-97909861D01*
X135560251Y-97910162D01*
X135560251Y-97910162D01*
G37*
D14*
X135368509Y-98246365D03*
D10*
G36*
X136232001Y-97910162D02*
X136238068Y-97911062D01*
X136244018Y-97912552D01*
X136249793Y-97914619D01*
X136255337Y-97917241D01*
X136260598Y-97920394D01*
X136265525Y-97924048D01*
X136270069Y-97928167D01*
X136729689Y-98387787D01*
X136733808Y-98392331D01*
X136737462Y-98397258D01*
X136740615Y-98402519D01*
X136743237Y-98408063D01*
X136745304Y-98413838D01*
X136746794Y-98419788D01*
X136747694Y-98425855D01*
X136747995Y-98431981D01*
X136747694Y-98438107D01*
X136746794Y-98444174D01*
X136745304Y-98450124D01*
X136743237Y-98455899D01*
X136740615Y-98461443D01*
X136737462Y-98466704D01*
X136733808Y-98471631D01*
X136729689Y-98476175D01*
X136641301Y-98564563D01*
X136636757Y-98568682D01*
X136631830Y-98572336D01*
X136626569Y-98575489D01*
X136621025Y-98578111D01*
X136615250Y-98580178D01*
X136609300Y-98581668D01*
X136603233Y-98582568D01*
X136597107Y-98582869D01*
X136590981Y-98582568D01*
X136584914Y-98581668D01*
X136578964Y-98580178D01*
X136573189Y-98578111D01*
X136567645Y-98575489D01*
X136562384Y-98572336D01*
X136557457Y-98568682D01*
X136552913Y-98564563D01*
X136093293Y-98104943D01*
X136089174Y-98100399D01*
X136085520Y-98095472D01*
X136082367Y-98090211D01*
X136079745Y-98084667D01*
X136077678Y-98078892D01*
X136076188Y-98072942D01*
X136075288Y-98066875D01*
X136074987Y-98060749D01*
X136075288Y-98054623D01*
X136076188Y-98048556D01*
X136077678Y-98042606D01*
X136079745Y-98036831D01*
X136082367Y-98031287D01*
X136085520Y-98026026D01*
X136089174Y-98021099D01*
X136093293Y-98016555D01*
X136181681Y-97928167D01*
X136186225Y-97924048D01*
X136191152Y-97920394D01*
X136196413Y-97917241D01*
X136201957Y-97914619D01*
X136207732Y-97912552D01*
X136213682Y-97911062D01*
X136219749Y-97910162D01*
X136225875Y-97909861D01*
X136232001Y-97910162D01*
X136232001Y-97910162D01*
G37*
D14*
X136411491Y-98246365D03*
D10*
G36*
X136585555Y-97556609D02*
X136591622Y-97557509D01*
X136597572Y-97558999D01*
X136603347Y-97561066D01*
X136608891Y-97563688D01*
X136614152Y-97566841D01*
X136619079Y-97570495D01*
X136623623Y-97574614D01*
X137083243Y-98034234D01*
X137087362Y-98038778D01*
X137091016Y-98043705D01*
X137094169Y-98048966D01*
X137096791Y-98054510D01*
X137098858Y-98060285D01*
X137100348Y-98066235D01*
X137101248Y-98072302D01*
X137101549Y-98078428D01*
X137101248Y-98084554D01*
X137100348Y-98090621D01*
X137098858Y-98096571D01*
X137096791Y-98102346D01*
X137094169Y-98107890D01*
X137091016Y-98113151D01*
X137087362Y-98118078D01*
X137083243Y-98122622D01*
X136994855Y-98211010D01*
X136990311Y-98215129D01*
X136985384Y-98218783D01*
X136980123Y-98221936D01*
X136974579Y-98224558D01*
X136968804Y-98226625D01*
X136962854Y-98228115D01*
X136956787Y-98229015D01*
X136950661Y-98229316D01*
X136944535Y-98229015D01*
X136938468Y-98228115D01*
X136932518Y-98226625D01*
X136926743Y-98224558D01*
X136921199Y-98221936D01*
X136915938Y-98218783D01*
X136911011Y-98215129D01*
X136906467Y-98211010D01*
X136446847Y-97751390D01*
X136442728Y-97746846D01*
X136439074Y-97741919D01*
X136435921Y-97736658D01*
X136433299Y-97731114D01*
X136431232Y-97725339D01*
X136429742Y-97719389D01*
X136428842Y-97713322D01*
X136428541Y-97707196D01*
X136428842Y-97701070D01*
X136429742Y-97695003D01*
X136431232Y-97689053D01*
X136433299Y-97683278D01*
X136435921Y-97677734D01*
X136439074Y-97672473D01*
X136442728Y-97667546D01*
X136446847Y-97663002D01*
X136535235Y-97574614D01*
X136539779Y-97570495D01*
X136544706Y-97566841D01*
X136549967Y-97563688D01*
X136555511Y-97561066D01*
X136561286Y-97558999D01*
X136567236Y-97557509D01*
X136573303Y-97556609D01*
X136579429Y-97556308D01*
X136585555Y-97556609D01*
X136585555Y-97556609D01*
G37*
D14*
X136765045Y-97892812D03*
D10*
G36*
X136939108Y-97203055D02*
X136945175Y-97203955D01*
X136951125Y-97205445D01*
X136956900Y-97207512D01*
X136962444Y-97210134D01*
X136967705Y-97213287D01*
X136972632Y-97216941D01*
X136977176Y-97221060D01*
X137436796Y-97680680D01*
X137440915Y-97685224D01*
X137444569Y-97690151D01*
X137447722Y-97695412D01*
X137450344Y-97700956D01*
X137452411Y-97706731D01*
X137453901Y-97712681D01*
X137454801Y-97718748D01*
X137455102Y-97724874D01*
X137454801Y-97731000D01*
X137453901Y-97737067D01*
X137452411Y-97743017D01*
X137450344Y-97748792D01*
X137447722Y-97754336D01*
X137444569Y-97759597D01*
X137440915Y-97764524D01*
X137436796Y-97769068D01*
X137348408Y-97857456D01*
X137343864Y-97861575D01*
X137338937Y-97865229D01*
X137333676Y-97868382D01*
X137328132Y-97871004D01*
X137322357Y-97873071D01*
X137316407Y-97874561D01*
X137310340Y-97875461D01*
X137304214Y-97875762D01*
X137298088Y-97875461D01*
X137292021Y-97874561D01*
X137286071Y-97873071D01*
X137280296Y-97871004D01*
X137274752Y-97868382D01*
X137269491Y-97865229D01*
X137264564Y-97861575D01*
X137260020Y-97857456D01*
X136800400Y-97397836D01*
X136796281Y-97393292D01*
X136792627Y-97388365D01*
X136789474Y-97383104D01*
X136786852Y-97377560D01*
X136784785Y-97371785D01*
X136783295Y-97365835D01*
X136782395Y-97359768D01*
X136782094Y-97353642D01*
X136782395Y-97347516D01*
X136783295Y-97341449D01*
X136784785Y-97335499D01*
X136786852Y-97329724D01*
X136789474Y-97324180D01*
X136792627Y-97318919D01*
X136796281Y-97313992D01*
X136800400Y-97309448D01*
X136888788Y-97221060D01*
X136893332Y-97216941D01*
X136898259Y-97213287D01*
X136903520Y-97210134D01*
X136909064Y-97207512D01*
X136914839Y-97205445D01*
X136920789Y-97203955D01*
X136926856Y-97203055D01*
X136932982Y-97202754D01*
X136939108Y-97203055D01*
X136939108Y-97203055D01*
G37*
D14*
X137118598Y-97539258D03*
D10*
G36*
X137292661Y-96849502D02*
X137298728Y-96850402D01*
X137304678Y-96851892D01*
X137310453Y-96853959D01*
X137315997Y-96856581D01*
X137321258Y-96859734D01*
X137326185Y-96863388D01*
X137330729Y-96867507D01*
X137790349Y-97327127D01*
X137794468Y-97331671D01*
X137798122Y-97336598D01*
X137801275Y-97341859D01*
X137803897Y-97347403D01*
X137805964Y-97353178D01*
X137807454Y-97359128D01*
X137808354Y-97365195D01*
X137808655Y-97371321D01*
X137808354Y-97377447D01*
X137807454Y-97383514D01*
X137805964Y-97389464D01*
X137803897Y-97395239D01*
X137801275Y-97400783D01*
X137798122Y-97406044D01*
X137794468Y-97410971D01*
X137790349Y-97415515D01*
X137701961Y-97503903D01*
X137697417Y-97508022D01*
X137692490Y-97511676D01*
X137687229Y-97514829D01*
X137681685Y-97517451D01*
X137675910Y-97519518D01*
X137669960Y-97521008D01*
X137663893Y-97521908D01*
X137657767Y-97522209D01*
X137651641Y-97521908D01*
X137645574Y-97521008D01*
X137639624Y-97519518D01*
X137633849Y-97517451D01*
X137628305Y-97514829D01*
X137623044Y-97511676D01*
X137618117Y-97508022D01*
X137613573Y-97503903D01*
X137153953Y-97044283D01*
X137149834Y-97039739D01*
X137146180Y-97034812D01*
X137143027Y-97029551D01*
X137140405Y-97024007D01*
X137138338Y-97018232D01*
X137136848Y-97012282D01*
X137135948Y-97006215D01*
X137135647Y-97000089D01*
X137135948Y-96993963D01*
X137136848Y-96987896D01*
X137138338Y-96981946D01*
X137140405Y-96976171D01*
X137143027Y-96970627D01*
X137146180Y-96965366D01*
X137149834Y-96960439D01*
X137153953Y-96955895D01*
X137242341Y-96867507D01*
X137246885Y-96863388D01*
X137251812Y-96859734D01*
X137257073Y-96856581D01*
X137262617Y-96853959D01*
X137268392Y-96851892D01*
X137274342Y-96850402D01*
X137280409Y-96849502D01*
X137286535Y-96849201D01*
X137292661Y-96849502D01*
X137292661Y-96849502D01*
G37*
D14*
X137472151Y-97185705D03*
D10*
G36*
X137646215Y-96495948D02*
X137652282Y-96496848D01*
X137658232Y-96498338D01*
X137664007Y-96500405D01*
X137669551Y-96503027D01*
X137674812Y-96506180D01*
X137679739Y-96509834D01*
X137684283Y-96513953D01*
X138143903Y-96973573D01*
X138148022Y-96978117D01*
X138151676Y-96983044D01*
X138154829Y-96988305D01*
X138157451Y-96993849D01*
X138159518Y-96999624D01*
X138161008Y-97005574D01*
X138161908Y-97011641D01*
X138162209Y-97017767D01*
X138161908Y-97023893D01*
X138161008Y-97029960D01*
X138159518Y-97035910D01*
X138157451Y-97041685D01*
X138154829Y-97047229D01*
X138151676Y-97052490D01*
X138148022Y-97057417D01*
X138143903Y-97061961D01*
X138055515Y-97150349D01*
X138050971Y-97154468D01*
X138046044Y-97158122D01*
X138040783Y-97161275D01*
X138035239Y-97163897D01*
X138029464Y-97165964D01*
X138023514Y-97167454D01*
X138017447Y-97168354D01*
X138011321Y-97168655D01*
X138005195Y-97168354D01*
X137999128Y-97167454D01*
X137993178Y-97165964D01*
X137987403Y-97163897D01*
X137981859Y-97161275D01*
X137976598Y-97158122D01*
X137971671Y-97154468D01*
X137967127Y-97150349D01*
X137507507Y-96690729D01*
X137503388Y-96686185D01*
X137499734Y-96681258D01*
X137496581Y-96675997D01*
X137493959Y-96670453D01*
X137491892Y-96664678D01*
X137490402Y-96658728D01*
X137489502Y-96652661D01*
X137489201Y-96646535D01*
X137489502Y-96640409D01*
X137490402Y-96634342D01*
X137491892Y-96628392D01*
X137493959Y-96622617D01*
X137496581Y-96617073D01*
X137499734Y-96611812D01*
X137503388Y-96606885D01*
X137507507Y-96602341D01*
X137595895Y-96513953D01*
X137600439Y-96509834D01*
X137605366Y-96506180D01*
X137610627Y-96503027D01*
X137616171Y-96500405D01*
X137621946Y-96498338D01*
X137627896Y-96496848D01*
X137633963Y-96495948D01*
X137640089Y-96495647D01*
X137646215Y-96495948D01*
X137646215Y-96495948D01*
G37*
D14*
X137825705Y-96832151D03*
D10*
G36*
X137999768Y-96142395D02*
X138005835Y-96143295D01*
X138011785Y-96144785D01*
X138017560Y-96146852D01*
X138023104Y-96149474D01*
X138028365Y-96152627D01*
X138033292Y-96156281D01*
X138037836Y-96160400D01*
X138497456Y-96620020D01*
X138501575Y-96624564D01*
X138505229Y-96629491D01*
X138508382Y-96634752D01*
X138511004Y-96640296D01*
X138513071Y-96646071D01*
X138514561Y-96652021D01*
X138515461Y-96658088D01*
X138515762Y-96664214D01*
X138515461Y-96670340D01*
X138514561Y-96676407D01*
X138513071Y-96682357D01*
X138511004Y-96688132D01*
X138508382Y-96693676D01*
X138505229Y-96698937D01*
X138501575Y-96703864D01*
X138497456Y-96708408D01*
X138409068Y-96796796D01*
X138404524Y-96800915D01*
X138399597Y-96804569D01*
X138394336Y-96807722D01*
X138388792Y-96810344D01*
X138383017Y-96812411D01*
X138377067Y-96813901D01*
X138371000Y-96814801D01*
X138364874Y-96815102D01*
X138358748Y-96814801D01*
X138352681Y-96813901D01*
X138346731Y-96812411D01*
X138340956Y-96810344D01*
X138335412Y-96807722D01*
X138330151Y-96804569D01*
X138325224Y-96800915D01*
X138320680Y-96796796D01*
X137861060Y-96337176D01*
X137856941Y-96332632D01*
X137853287Y-96327705D01*
X137850134Y-96322444D01*
X137847512Y-96316900D01*
X137845445Y-96311125D01*
X137843955Y-96305175D01*
X137843055Y-96299108D01*
X137842754Y-96292982D01*
X137843055Y-96286856D01*
X137843955Y-96280789D01*
X137845445Y-96274839D01*
X137847512Y-96269064D01*
X137850134Y-96263520D01*
X137853287Y-96258259D01*
X137856941Y-96253332D01*
X137861060Y-96248788D01*
X137949448Y-96160400D01*
X137953992Y-96156281D01*
X137958919Y-96152627D01*
X137964180Y-96149474D01*
X137969724Y-96146852D01*
X137975499Y-96144785D01*
X137981449Y-96143295D01*
X137987516Y-96142395D01*
X137993642Y-96142094D01*
X137999768Y-96142395D01*
X137999768Y-96142395D01*
G37*
D14*
X138179258Y-96478598D03*
D10*
G36*
X138353322Y-95788842D02*
X138359389Y-95789742D01*
X138365339Y-95791232D01*
X138371114Y-95793299D01*
X138376658Y-95795921D01*
X138381919Y-95799074D01*
X138386846Y-95802728D01*
X138391390Y-95806847D01*
X138851010Y-96266467D01*
X138855129Y-96271011D01*
X138858783Y-96275938D01*
X138861936Y-96281199D01*
X138864558Y-96286743D01*
X138866625Y-96292518D01*
X138868115Y-96298468D01*
X138869015Y-96304535D01*
X138869316Y-96310661D01*
X138869015Y-96316787D01*
X138868115Y-96322854D01*
X138866625Y-96328804D01*
X138864558Y-96334579D01*
X138861936Y-96340123D01*
X138858783Y-96345384D01*
X138855129Y-96350311D01*
X138851010Y-96354855D01*
X138762622Y-96443243D01*
X138758078Y-96447362D01*
X138753151Y-96451016D01*
X138747890Y-96454169D01*
X138742346Y-96456791D01*
X138736571Y-96458858D01*
X138730621Y-96460348D01*
X138724554Y-96461248D01*
X138718428Y-96461549D01*
X138712302Y-96461248D01*
X138706235Y-96460348D01*
X138700285Y-96458858D01*
X138694510Y-96456791D01*
X138688966Y-96454169D01*
X138683705Y-96451016D01*
X138678778Y-96447362D01*
X138674234Y-96443243D01*
X138214614Y-95983623D01*
X138210495Y-95979079D01*
X138206841Y-95974152D01*
X138203688Y-95968891D01*
X138201066Y-95963347D01*
X138198999Y-95957572D01*
X138197509Y-95951622D01*
X138196609Y-95945555D01*
X138196308Y-95939429D01*
X138196609Y-95933303D01*
X138197509Y-95927236D01*
X138198999Y-95921286D01*
X138201066Y-95915511D01*
X138203688Y-95909967D01*
X138206841Y-95904706D01*
X138210495Y-95899779D01*
X138214614Y-95895235D01*
X138303002Y-95806847D01*
X138307546Y-95802728D01*
X138312473Y-95799074D01*
X138317734Y-95795921D01*
X138323278Y-95793299D01*
X138329053Y-95791232D01*
X138335003Y-95789742D01*
X138341070Y-95788842D01*
X138347196Y-95788541D01*
X138353322Y-95788842D01*
X138353322Y-95788842D01*
G37*
D14*
X138532812Y-96125045D03*
D10*
G36*
X138706875Y-95435288D02*
X138712942Y-95436188D01*
X138718892Y-95437678D01*
X138724667Y-95439745D01*
X138730211Y-95442367D01*
X138735472Y-95445520D01*
X138740399Y-95449174D01*
X138744943Y-95453293D01*
X139204563Y-95912913D01*
X139208682Y-95917457D01*
X139212336Y-95922384D01*
X139215489Y-95927645D01*
X139218111Y-95933189D01*
X139220178Y-95938964D01*
X139221668Y-95944914D01*
X139222568Y-95950981D01*
X139222869Y-95957107D01*
X139222568Y-95963233D01*
X139221668Y-95969300D01*
X139220178Y-95975250D01*
X139218111Y-95981025D01*
X139215489Y-95986569D01*
X139212336Y-95991830D01*
X139208682Y-95996757D01*
X139204563Y-96001301D01*
X139116175Y-96089689D01*
X139111631Y-96093808D01*
X139106704Y-96097462D01*
X139101443Y-96100615D01*
X139095899Y-96103237D01*
X139090124Y-96105304D01*
X139084174Y-96106794D01*
X139078107Y-96107694D01*
X139071981Y-96107995D01*
X139065855Y-96107694D01*
X139059788Y-96106794D01*
X139053838Y-96105304D01*
X139048063Y-96103237D01*
X139042519Y-96100615D01*
X139037258Y-96097462D01*
X139032331Y-96093808D01*
X139027787Y-96089689D01*
X138568167Y-95630069D01*
X138564048Y-95625525D01*
X138560394Y-95620598D01*
X138557241Y-95615337D01*
X138554619Y-95609793D01*
X138552552Y-95604018D01*
X138551062Y-95598068D01*
X138550162Y-95592001D01*
X138549861Y-95585875D01*
X138550162Y-95579749D01*
X138551062Y-95573682D01*
X138552552Y-95567732D01*
X138554619Y-95561957D01*
X138557241Y-95556413D01*
X138560394Y-95551152D01*
X138564048Y-95546225D01*
X138568167Y-95541681D01*
X138656555Y-95453293D01*
X138661099Y-95449174D01*
X138666026Y-95445520D01*
X138671287Y-95442367D01*
X138676831Y-95439745D01*
X138682606Y-95437678D01*
X138688556Y-95436188D01*
X138694623Y-95435288D01*
X138700749Y-95434987D01*
X138706875Y-95435288D01*
X138706875Y-95435288D01*
G37*
D14*
X138886365Y-95771491D03*
D10*
G36*
X139078107Y-94392306D02*
X139084174Y-94393206D01*
X139090124Y-94394696D01*
X139095899Y-94396763D01*
X139101443Y-94399385D01*
X139106704Y-94402538D01*
X139111631Y-94406192D01*
X139116175Y-94410311D01*
X139204563Y-94498699D01*
X139208682Y-94503243D01*
X139212336Y-94508170D01*
X139215489Y-94513431D01*
X139218111Y-94518975D01*
X139220178Y-94524750D01*
X139221668Y-94530700D01*
X139222568Y-94536767D01*
X139222869Y-94542893D01*
X139222568Y-94549019D01*
X139221668Y-94555086D01*
X139220178Y-94561036D01*
X139218111Y-94566811D01*
X139215489Y-94572355D01*
X139212336Y-94577616D01*
X139208682Y-94582543D01*
X139204563Y-94587087D01*
X138744943Y-95046707D01*
X138740399Y-95050826D01*
X138735472Y-95054480D01*
X138730211Y-95057633D01*
X138724667Y-95060255D01*
X138718892Y-95062322D01*
X138712942Y-95063812D01*
X138706875Y-95064712D01*
X138700749Y-95065013D01*
X138694623Y-95064712D01*
X138688556Y-95063812D01*
X138682606Y-95062322D01*
X138676831Y-95060255D01*
X138671287Y-95057633D01*
X138666026Y-95054480D01*
X138661099Y-95050826D01*
X138656555Y-95046707D01*
X138568167Y-94958319D01*
X138564048Y-94953775D01*
X138560394Y-94948848D01*
X138557241Y-94943587D01*
X138554619Y-94938043D01*
X138552552Y-94932268D01*
X138551062Y-94926318D01*
X138550162Y-94920251D01*
X138549861Y-94914125D01*
X138550162Y-94907999D01*
X138551062Y-94901932D01*
X138552552Y-94895982D01*
X138554619Y-94890207D01*
X138557241Y-94884663D01*
X138560394Y-94879402D01*
X138564048Y-94874475D01*
X138568167Y-94869931D01*
X139027787Y-94410311D01*
X139032331Y-94406192D01*
X139037258Y-94402538D01*
X139042519Y-94399385D01*
X139048063Y-94396763D01*
X139053838Y-94394696D01*
X139059788Y-94393206D01*
X139065855Y-94392306D01*
X139071981Y-94392005D01*
X139078107Y-94392306D01*
X139078107Y-94392306D01*
G37*
D14*
X138886365Y-94728509D03*
D10*
G36*
X138724554Y-94038752D02*
X138730621Y-94039652D01*
X138736571Y-94041142D01*
X138742346Y-94043209D01*
X138747890Y-94045831D01*
X138753151Y-94048984D01*
X138758078Y-94052638D01*
X138762622Y-94056757D01*
X138851010Y-94145145D01*
X138855129Y-94149689D01*
X138858783Y-94154616D01*
X138861936Y-94159877D01*
X138864558Y-94165421D01*
X138866625Y-94171196D01*
X138868115Y-94177146D01*
X138869015Y-94183213D01*
X138869316Y-94189339D01*
X138869015Y-94195465D01*
X138868115Y-94201532D01*
X138866625Y-94207482D01*
X138864558Y-94213257D01*
X138861936Y-94218801D01*
X138858783Y-94224062D01*
X138855129Y-94228989D01*
X138851010Y-94233533D01*
X138391390Y-94693153D01*
X138386846Y-94697272D01*
X138381919Y-94700926D01*
X138376658Y-94704079D01*
X138371114Y-94706701D01*
X138365339Y-94708768D01*
X138359389Y-94710258D01*
X138353322Y-94711158D01*
X138347196Y-94711459D01*
X138341070Y-94711158D01*
X138335003Y-94710258D01*
X138329053Y-94708768D01*
X138323278Y-94706701D01*
X138317734Y-94704079D01*
X138312473Y-94700926D01*
X138307546Y-94697272D01*
X138303002Y-94693153D01*
X138214614Y-94604765D01*
X138210495Y-94600221D01*
X138206841Y-94595294D01*
X138203688Y-94590033D01*
X138201066Y-94584489D01*
X138198999Y-94578714D01*
X138197509Y-94572764D01*
X138196609Y-94566697D01*
X138196308Y-94560571D01*
X138196609Y-94554445D01*
X138197509Y-94548378D01*
X138198999Y-94542428D01*
X138201066Y-94536653D01*
X138203688Y-94531109D01*
X138206841Y-94525848D01*
X138210495Y-94520921D01*
X138214614Y-94516377D01*
X138674234Y-94056757D01*
X138678778Y-94052638D01*
X138683705Y-94048984D01*
X138688966Y-94045831D01*
X138694510Y-94043209D01*
X138700285Y-94041142D01*
X138706235Y-94039652D01*
X138712302Y-94038752D01*
X138718428Y-94038451D01*
X138724554Y-94038752D01*
X138724554Y-94038752D01*
G37*
D14*
X138532812Y-94374955D03*
D10*
G36*
X138371000Y-93685199D02*
X138377067Y-93686099D01*
X138383017Y-93687589D01*
X138388792Y-93689656D01*
X138394336Y-93692278D01*
X138399597Y-93695431D01*
X138404524Y-93699085D01*
X138409068Y-93703204D01*
X138497456Y-93791592D01*
X138501575Y-93796136D01*
X138505229Y-93801063D01*
X138508382Y-93806324D01*
X138511004Y-93811868D01*
X138513071Y-93817643D01*
X138514561Y-93823593D01*
X138515461Y-93829660D01*
X138515762Y-93835786D01*
X138515461Y-93841912D01*
X138514561Y-93847979D01*
X138513071Y-93853929D01*
X138511004Y-93859704D01*
X138508382Y-93865248D01*
X138505229Y-93870509D01*
X138501575Y-93875436D01*
X138497456Y-93879980D01*
X138037836Y-94339600D01*
X138033292Y-94343719D01*
X138028365Y-94347373D01*
X138023104Y-94350526D01*
X138017560Y-94353148D01*
X138011785Y-94355215D01*
X138005835Y-94356705D01*
X137999768Y-94357605D01*
X137993642Y-94357906D01*
X137987516Y-94357605D01*
X137981449Y-94356705D01*
X137975499Y-94355215D01*
X137969724Y-94353148D01*
X137964180Y-94350526D01*
X137958919Y-94347373D01*
X137953992Y-94343719D01*
X137949448Y-94339600D01*
X137861060Y-94251212D01*
X137856941Y-94246668D01*
X137853287Y-94241741D01*
X137850134Y-94236480D01*
X137847512Y-94230936D01*
X137845445Y-94225161D01*
X137843955Y-94219211D01*
X137843055Y-94213144D01*
X137842754Y-94207018D01*
X137843055Y-94200892D01*
X137843955Y-94194825D01*
X137845445Y-94188875D01*
X137847512Y-94183100D01*
X137850134Y-94177556D01*
X137853287Y-94172295D01*
X137856941Y-94167368D01*
X137861060Y-94162824D01*
X138320680Y-93703204D01*
X138325224Y-93699085D01*
X138330151Y-93695431D01*
X138335412Y-93692278D01*
X138340956Y-93689656D01*
X138346731Y-93687589D01*
X138352681Y-93686099D01*
X138358748Y-93685199D01*
X138364874Y-93684898D01*
X138371000Y-93685199D01*
X138371000Y-93685199D01*
G37*
D14*
X138179258Y-94021402D03*
D10*
G36*
X138017447Y-93331646D02*
X138023514Y-93332546D01*
X138029464Y-93334036D01*
X138035239Y-93336103D01*
X138040783Y-93338725D01*
X138046044Y-93341878D01*
X138050971Y-93345532D01*
X138055515Y-93349651D01*
X138143903Y-93438039D01*
X138148022Y-93442583D01*
X138151676Y-93447510D01*
X138154829Y-93452771D01*
X138157451Y-93458315D01*
X138159518Y-93464090D01*
X138161008Y-93470040D01*
X138161908Y-93476107D01*
X138162209Y-93482233D01*
X138161908Y-93488359D01*
X138161008Y-93494426D01*
X138159518Y-93500376D01*
X138157451Y-93506151D01*
X138154829Y-93511695D01*
X138151676Y-93516956D01*
X138148022Y-93521883D01*
X138143903Y-93526427D01*
X137684283Y-93986047D01*
X137679739Y-93990166D01*
X137674812Y-93993820D01*
X137669551Y-93996973D01*
X137664007Y-93999595D01*
X137658232Y-94001662D01*
X137652282Y-94003152D01*
X137646215Y-94004052D01*
X137640089Y-94004353D01*
X137633963Y-94004052D01*
X137627896Y-94003152D01*
X137621946Y-94001662D01*
X137616171Y-93999595D01*
X137610627Y-93996973D01*
X137605366Y-93993820D01*
X137600439Y-93990166D01*
X137595895Y-93986047D01*
X137507507Y-93897659D01*
X137503388Y-93893115D01*
X137499734Y-93888188D01*
X137496581Y-93882927D01*
X137493959Y-93877383D01*
X137491892Y-93871608D01*
X137490402Y-93865658D01*
X137489502Y-93859591D01*
X137489201Y-93853465D01*
X137489502Y-93847339D01*
X137490402Y-93841272D01*
X137491892Y-93835322D01*
X137493959Y-93829547D01*
X137496581Y-93824003D01*
X137499734Y-93818742D01*
X137503388Y-93813815D01*
X137507507Y-93809271D01*
X137967127Y-93349651D01*
X137971671Y-93345532D01*
X137976598Y-93341878D01*
X137981859Y-93338725D01*
X137987403Y-93336103D01*
X137993178Y-93334036D01*
X137999128Y-93332546D01*
X138005195Y-93331646D01*
X138011321Y-93331345D01*
X138017447Y-93331646D01*
X138017447Y-93331646D01*
G37*
D14*
X137825705Y-93667849D03*
D10*
G36*
X137663893Y-92978092D02*
X137669960Y-92978992D01*
X137675910Y-92980482D01*
X137681685Y-92982549D01*
X137687229Y-92985171D01*
X137692490Y-92988324D01*
X137697417Y-92991978D01*
X137701961Y-92996097D01*
X137790349Y-93084485D01*
X137794468Y-93089029D01*
X137798122Y-93093956D01*
X137801275Y-93099217D01*
X137803897Y-93104761D01*
X137805964Y-93110536D01*
X137807454Y-93116486D01*
X137808354Y-93122553D01*
X137808655Y-93128679D01*
X137808354Y-93134805D01*
X137807454Y-93140872D01*
X137805964Y-93146822D01*
X137803897Y-93152597D01*
X137801275Y-93158141D01*
X137798122Y-93163402D01*
X137794468Y-93168329D01*
X137790349Y-93172873D01*
X137330729Y-93632493D01*
X137326185Y-93636612D01*
X137321258Y-93640266D01*
X137315997Y-93643419D01*
X137310453Y-93646041D01*
X137304678Y-93648108D01*
X137298728Y-93649598D01*
X137292661Y-93650498D01*
X137286535Y-93650799D01*
X137280409Y-93650498D01*
X137274342Y-93649598D01*
X137268392Y-93648108D01*
X137262617Y-93646041D01*
X137257073Y-93643419D01*
X137251812Y-93640266D01*
X137246885Y-93636612D01*
X137242341Y-93632493D01*
X137153953Y-93544105D01*
X137149834Y-93539561D01*
X137146180Y-93534634D01*
X137143027Y-93529373D01*
X137140405Y-93523829D01*
X137138338Y-93518054D01*
X137136848Y-93512104D01*
X137135948Y-93506037D01*
X137135647Y-93499911D01*
X137135948Y-93493785D01*
X137136848Y-93487718D01*
X137138338Y-93481768D01*
X137140405Y-93475993D01*
X137143027Y-93470449D01*
X137146180Y-93465188D01*
X137149834Y-93460261D01*
X137153953Y-93455717D01*
X137613573Y-92996097D01*
X137618117Y-92991978D01*
X137623044Y-92988324D01*
X137628305Y-92985171D01*
X137633849Y-92982549D01*
X137639624Y-92980482D01*
X137645574Y-92978992D01*
X137651641Y-92978092D01*
X137657767Y-92977791D01*
X137663893Y-92978092D01*
X137663893Y-92978092D01*
G37*
D14*
X137472151Y-93314295D03*
D10*
G36*
X137310340Y-92624539D02*
X137316407Y-92625439D01*
X137322357Y-92626929D01*
X137328132Y-92628996D01*
X137333676Y-92631618D01*
X137338937Y-92634771D01*
X137343864Y-92638425D01*
X137348408Y-92642544D01*
X137436796Y-92730932D01*
X137440915Y-92735476D01*
X137444569Y-92740403D01*
X137447722Y-92745664D01*
X137450344Y-92751208D01*
X137452411Y-92756983D01*
X137453901Y-92762933D01*
X137454801Y-92769000D01*
X137455102Y-92775126D01*
X137454801Y-92781252D01*
X137453901Y-92787319D01*
X137452411Y-92793269D01*
X137450344Y-92799044D01*
X137447722Y-92804588D01*
X137444569Y-92809849D01*
X137440915Y-92814776D01*
X137436796Y-92819320D01*
X136977176Y-93278940D01*
X136972632Y-93283059D01*
X136967705Y-93286713D01*
X136962444Y-93289866D01*
X136956900Y-93292488D01*
X136951125Y-93294555D01*
X136945175Y-93296045D01*
X136939108Y-93296945D01*
X136932982Y-93297246D01*
X136926856Y-93296945D01*
X136920789Y-93296045D01*
X136914839Y-93294555D01*
X136909064Y-93292488D01*
X136903520Y-93289866D01*
X136898259Y-93286713D01*
X136893332Y-93283059D01*
X136888788Y-93278940D01*
X136800400Y-93190552D01*
X136796281Y-93186008D01*
X136792627Y-93181081D01*
X136789474Y-93175820D01*
X136786852Y-93170276D01*
X136784785Y-93164501D01*
X136783295Y-93158551D01*
X136782395Y-93152484D01*
X136782094Y-93146358D01*
X136782395Y-93140232D01*
X136783295Y-93134165D01*
X136784785Y-93128215D01*
X136786852Y-93122440D01*
X136789474Y-93116896D01*
X136792627Y-93111635D01*
X136796281Y-93106708D01*
X136800400Y-93102164D01*
X137260020Y-92642544D01*
X137264564Y-92638425D01*
X137269491Y-92634771D01*
X137274752Y-92631618D01*
X137280296Y-92628996D01*
X137286071Y-92626929D01*
X137292021Y-92625439D01*
X137298088Y-92624539D01*
X137304214Y-92624238D01*
X137310340Y-92624539D01*
X137310340Y-92624539D01*
G37*
D14*
X137118598Y-92960742D03*
D10*
G36*
X136956787Y-92270985D02*
X136962854Y-92271885D01*
X136968804Y-92273375D01*
X136974579Y-92275442D01*
X136980123Y-92278064D01*
X136985384Y-92281217D01*
X136990311Y-92284871D01*
X136994855Y-92288990D01*
X137083243Y-92377378D01*
X137087362Y-92381922D01*
X137091016Y-92386849D01*
X137094169Y-92392110D01*
X137096791Y-92397654D01*
X137098858Y-92403429D01*
X137100348Y-92409379D01*
X137101248Y-92415446D01*
X137101549Y-92421572D01*
X137101248Y-92427698D01*
X137100348Y-92433765D01*
X137098858Y-92439715D01*
X137096791Y-92445490D01*
X137094169Y-92451034D01*
X137091016Y-92456295D01*
X137087362Y-92461222D01*
X137083243Y-92465766D01*
X136623623Y-92925386D01*
X136619079Y-92929505D01*
X136614152Y-92933159D01*
X136608891Y-92936312D01*
X136603347Y-92938934D01*
X136597572Y-92941001D01*
X136591622Y-92942491D01*
X136585555Y-92943391D01*
X136579429Y-92943692D01*
X136573303Y-92943391D01*
X136567236Y-92942491D01*
X136561286Y-92941001D01*
X136555511Y-92938934D01*
X136549967Y-92936312D01*
X136544706Y-92933159D01*
X136539779Y-92929505D01*
X136535235Y-92925386D01*
X136446847Y-92836998D01*
X136442728Y-92832454D01*
X136439074Y-92827527D01*
X136435921Y-92822266D01*
X136433299Y-92816722D01*
X136431232Y-92810947D01*
X136429742Y-92804997D01*
X136428842Y-92798930D01*
X136428541Y-92792804D01*
X136428842Y-92786678D01*
X136429742Y-92780611D01*
X136431232Y-92774661D01*
X136433299Y-92768886D01*
X136435921Y-92763342D01*
X136439074Y-92758081D01*
X136442728Y-92753154D01*
X136446847Y-92748610D01*
X136906467Y-92288990D01*
X136911011Y-92284871D01*
X136915938Y-92281217D01*
X136921199Y-92278064D01*
X136926743Y-92275442D01*
X136932518Y-92273375D01*
X136938468Y-92271885D01*
X136944535Y-92270985D01*
X136950661Y-92270684D01*
X136956787Y-92270985D01*
X136956787Y-92270985D01*
G37*
D14*
X136765045Y-92607188D03*
D10*
G36*
X136603233Y-91917432D02*
X136609300Y-91918332D01*
X136615250Y-91919822D01*
X136621025Y-91921889D01*
X136626569Y-91924511D01*
X136631830Y-91927664D01*
X136636757Y-91931318D01*
X136641301Y-91935437D01*
X136729689Y-92023825D01*
X136733808Y-92028369D01*
X136737462Y-92033296D01*
X136740615Y-92038557D01*
X136743237Y-92044101D01*
X136745304Y-92049876D01*
X136746794Y-92055826D01*
X136747694Y-92061893D01*
X136747995Y-92068019D01*
X136747694Y-92074145D01*
X136746794Y-92080212D01*
X136745304Y-92086162D01*
X136743237Y-92091937D01*
X136740615Y-92097481D01*
X136737462Y-92102742D01*
X136733808Y-92107669D01*
X136729689Y-92112213D01*
X136270069Y-92571833D01*
X136265525Y-92575952D01*
X136260598Y-92579606D01*
X136255337Y-92582759D01*
X136249793Y-92585381D01*
X136244018Y-92587448D01*
X136238068Y-92588938D01*
X136232001Y-92589838D01*
X136225875Y-92590139D01*
X136219749Y-92589838D01*
X136213682Y-92588938D01*
X136207732Y-92587448D01*
X136201957Y-92585381D01*
X136196413Y-92582759D01*
X136191152Y-92579606D01*
X136186225Y-92575952D01*
X136181681Y-92571833D01*
X136093293Y-92483445D01*
X136089174Y-92478901D01*
X136085520Y-92473974D01*
X136082367Y-92468713D01*
X136079745Y-92463169D01*
X136077678Y-92457394D01*
X136076188Y-92451444D01*
X136075288Y-92445377D01*
X136074987Y-92439251D01*
X136075288Y-92433125D01*
X136076188Y-92427058D01*
X136077678Y-92421108D01*
X136079745Y-92415333D01*
X136082367Y-92409789D01*
X136085520Y-92404528D01*
X136089174Y-92399601D01*
X136093293Y-92395057D01*
X136552913Y-91935437D01*
X136557457Y-91931318D01*
X136562384Y-91927664D01*
X136567645Y-91924511D01*
X136573189Y-91921889D01*
X136578964Y-91919822D01*
X136584914Y-91918332D01*
X136590981Y-91917432D01*
X136597107Y-91917131D01*
X136603233Y-91917432D01*
X136603233Y-91917432D01*
G37*
D14*
X136411491Y-92253635D03*
G04 #@! TD*
M02*
