G04 #@! TF.GenerationSoftware,KiCad,Pcbnew,(5.0.0-3-g5ebb6b6)*
G04 #@! TF.CreationDate,2019-01-26T00:41:44+00:00*
G04 #@! TF.ProjectId,QFN32,51464E33322E6B696361645F70636200,rev?*
G04 #@! TF.SameCoordinates,Original*
G04 #@! TF.FileFunction,Legend,Top*
G04 #@! TF.FilePolarity,Positive*
%FSLAX46Y46*%
G04 Gerber Fmt 4.6, Leading zero omitted, Abs format (unit mm)*
G04 Created by KiCad (PCBNEW (5.0.0-3-g5ebb6b6)) date Saturday, 26 January 2019 at 00:41:44*
%MOMM*%
%LPD*%
G01*
G04 APERTURE LIST*
%ADD10C,0.150000*%
%ADD11C,0.125000*%
%ADD12C,0.120000*%
G04 APERTURE END LIST*
D10*
X139092857Y-75789285D02*
X139557142Y-75789285D01*
X139307142Y-76075000D01*
X139414285Y-76075000D01*
X139485714Y-76110714D01*
X139521428Y-76146428D01*
X139557142Y-76217857D01*
X139557142Y-76396428D01*
X139521428Y-76467857D01*
X139485714Y-76503571D01*
X139414285Y-76539285D01*
X139200000Y-76539285D01*
X139128571Y-76503571D01*
X139092857Y-76467857D01*
X139842857Y-75860714D02*
X139878571Y-75825000D01*
X139950000Y-75789285D01*
X140128571Y-75789285D01*
X140200000Y-75825000D01*
X140235714Y-75860714D01*
X140271428Y-75932142D01*
X140271428Y-76003571D01*
X140235714Y-76110714D01*
X139807142Y-76539285D01*
X140271428Y-76539285D01*
X139092857Y-78329285D02*
X139557142Y-78329285D01*
X139307142Y-78615000D01*
X139414285Y-78615000D01*
X139485714Y-78650714D01*
X139521428Y-78686428D01*
X139557142Y-78757857D01*
X139557142Y-78936428D01*
X139521428Y-79007857D01*
X139485714Y-79043571D01*
X139414285Y-79079285D01*
X139200000Y-79079285D01*
X139128571Y-79043571D01*
X139092857Y-79007857D01*
X140271428Y-79079285D02*
X139842857Y-79079285D01*
X140057142Y-79079285D02*
X140057142Y-78329285D01*
X139985714Y-78436428D01*
X139914285Y-78507857D01*
X139842857Y-78543571D01*
X139092857Y-80869285D02*
X139557142Y-80869285D01*
X139307142Y-81155000D01*
X139414285Y-81155000D01*
X139485714Y-81190714D01*
X139521428Y-81226428D01*
X139557142Y-81297857D01*
X139557142Y-81476428D01*
X139521428Y-81547857D01*
X139485714Y-81583571D01*
X139414285Y-81619285D01*
X139200000Y-81619285D01*
X139128571Y-81583571D01*
X139092857Y-81547857D01*
X140021428Y-80869285D02*
X140092857Y-80869285D01*
X140164285Y-80905000D01*
X140200000Y-80940714D01*
X140235714Y-81012142D01*
X140271428Y-81155000D01*
X140271428Y-81333571D01*
X140235714Y-81476428D01*
X140200000Y-81547857D01*
X140164285Y-81583571D01*
X140092857Y-81619285D01*
X140021428Y-81619285D01*
X139950000Y-81583571D01*
X139914285Y-81547857D01*
X139878571Y-81476428D01*
X139842857Y-81333571D01*
X139842857Y-81155000D01*
X139878571Y-81012142D01*
X139914285Y-80940714D01*
X139950000Y-80905000D01*
X140021428Y-80869285D01*
X139128571Y-83480714D02*
X139164285Y-83445000D01*
X139235714Y-83409285D01*
X139414285Y-83409285D01*
X139485714Y-83445000D01*
X139521428Y-83480714D01*
X139557142Y-83552142D01*
X139557142Y-83623571D01*
X139521428Y-83730714D01*
X139092857Y-84159285D01*
X139557142Y-84159285D01*
X139914285Y-84159285D02*
X140057142Y-84159285D01*
X140128571Y-84123571D01*
X140164285Y-84087857D01*
X140235714Y-83980714D01*
X140271428Y-83837857D01*
X140271428Y-83552142D01*
X140235714Y-83480714D01*
X140200000Y-83445000D01*
X140128571Y-83409285D01*
X139985714Y-83409285D01*
X139914285Y-83445000D01*
X139878571Y-83480714D01*
X139842857Y-83552142D01*
X139842857Y-83730714D01*
X139878571Y-83802142D01*
X139914285Y-83837857D01*
X139985714Y-83873571D01*
X140128571Y-83873571D01*
X140200000Y-83837857D01*
X140235714Y-83802142D01*
X140271428Y-83730714D01*
X139128571Y-86020714D02*
X139164285Y-85985000D01*
X139235714Y-85949285D01*
X139414285Y-85949285D01*
X139485714Y-85985000D01*
X139521428Y-86020714D01*
X139557142Y-86092142D01*
X139557142Y-86163571D01*
X139521428Y-86270714D01*
X139092857Y-86699285D01*
X139557142Y-86699285D01*
X139985714Y-86270714D02*
X139914285Y-86235000D01*
X139878571Y-86199285D01*
X139842857Y-86127857D01*
X139842857Y-86092142D01*
X139878571Y-86020714D01*
X139914285Y-85985000D01*
X139985714Y-85949285D01*
X140128571Y-85949285D01*
X140200000Y-85985000D01*
X140235714Y-86020714D01*
X140271428Y-86092142D01*
X140271428Y-86127857D01*
X140235714Y-86199285D01*
X140200000Y-86235000D01*
X140128571Y-86270714D01*
X139985714Y-86270714D01*
X139914285Y-86306428D01*
X139878571Y-86342142D01*
X139842857Y-86413571D01*
X139842857Y-86556428D01*
X139878571Y-86627857D01*
X139914285Y-86663571D01*
X139985714Y-86699285D01*
X140128571Y-86699285D01*
X140200000Y-86663571D01*
X140235714Y-86627857D01*
X140271428Y-86556428D01*
X140271428Y-86413571D01*
X140235714Y-86342142D01*
X140200000Y-86306428D01*
X140128571Y-86270714D01*
X139128571Y-88560714D02*
X139164285Y-88525000D01*
X139235714Y-88489285D01*
X139414285Y-88489285D01*
X139485714Y-88525000D01*
X139521428Y-88560714D01*
X139557142Y-88632142D01*
X139557142Y-88703571D01*
X139521428Y-88810714D01*
X139092857Y-89239285D01*
X139557142Y-89239285D01*
X139807142Y-88489285D02*
X140307142Y-88489285D01*
X139985714Y-89239285D01*
X139128571Y-91100714D02*
X139164285Y-91065000D01*
X139235714Y-91029285D01*
X139414285Y-91029285D01*
X139485714Y-91065000D01*
X139521428Y-91100714D01*
X139557142Y-91172142D01*
X139557142Y-91243571D01*
X139521428Y-91350714D01*
X139092857Y-91779285D01*
X139557142Y-91779285D01*
X140200000Y-91029285D02*
X140057142Y-91029285D01*
X139985714Y-91065000D01*
X139950000Y-91100714D01*
X139878571Y-91207857D01*
X139842857Y-91350714D01*
X139842857Y-91636428D01*
X139878571Y-91707857D01*
X139914285Y-91743571D01*
X139985714Y-91779285D01*
X140128571Y-91779285D01*
X140200000Y-91743571D01*
X140235714Y-91707857D01*
X140271428Y-91636428D01*
X140271428Y-91457857D01*
X140235714Y-91386428D01*
X140200000Y-91350714D01*
X140128571Y-91315000D01*
X139985714Y-91315000D01*
X139914285Y-91350714D01*
X139878571Y-91386428D01*
X139842857Y-91457857D01*
D11*
X139573047Y-93753809D02*
X139596857Y-93730000D01*
X139644476Y-93706190D01*
X139763523Y-93706190D01*
X139811142Y-93730000D01*
X139834952Y-93753809D01*
X139858761Y-93801428D01*
X139858761Y-93849047D01*
X139834952Y-93920476D01*
X139549238Y-94206190D01*
X139858761Y-94206190D01*
X140311142Y-93706190D02*
X140073047Y-93706190D01*
X140049238Y-93944285D01*
X140073047Y-93920476D01*
X140120666Y-93896666D01*
X140239714Y-93896666D01*
X140287333Y-93920476D01*
X140311142Y-93944285D01*
X140334952Y-93991904D01*
X140334952Y-94110952D01*
X140311142Y-94158571D01*
X140287333Y-94182380D01*
X140239714Y-94206190D01*
X140120666Y-94206190D01*
X140073047Y-94182380D01*
X140049238Y-94158571D01*
X139573047Y-96293809D02*
X139596857Y-96270000D01*
X139644476Y-96246190D01*
X139763523Y-96246190D01*
X139811142Y-96270000D01*
X139834952Y-96293809D01*
X139858761Y-96341428D01*
X139858761Y-96389047D01*
X139834952Y-96460476D01*
X139549238Y-96746190D01*
X139858761Y-96746190D01*
X140287333Y-96412857D02*
X140287333Y-96746190D01*
X140168285Y-96222380D02*
X140049238Y-96579523D01*
X140358761Y-96579523D01*
D10*
X139128571Y-98720714D02*
X139164285Y-98685000D01*
X139235714Y-98649285D01*
X139414285Y-98649285D01*
X139485714Y-98685000D01*
X139521428Y-98720714D01*
X139557142Y-98792142D01*
X139557142Y-98863571D01*
X139521428Y-98970714D01*
X139092857Y-99399285D01*
X139557142Y-99399285D01*
X139807142Y-98649285D02*
X140271428Y-98649285D01*
X140021428Y-98935000D01*
X140128571Y-98935000D01*
X140200000Y-98970714D01*
X140235714Y-99006428D01*
X140271428Y-99077857D01*
X140271428Y-99256428D01*
X140235714Y-99327857D01*
X140200000Y-99363571D01*
X140128571Y-99399285D01*
X139914285Y-99399285D01*
X139842857Y-99363571D01*
X139807142Y-99327857D01*
X139128571Y-101260714D02*
X139164285Y-101225000D01*
X139235714Y-101189285D01*
X139414285Y-101189285D01*
X139485714Y-101225000D01*
X139521428Y-101260714D01*
X139557142Y-101332142D01*
X139557142Y-101403571D01*
X139521428Y-101510714D01*
X139092857Y-101939285D01*
X139557142Y-101939285D01*
X139842857Y-101260714D02*
X139878571Y-101225000D01*
X139950000Y-101189285D01*
X140128571Y-101189285D01*
X140200000Y-101225000D01*
X140235714Y-101260714D01*
X140271428Y-101332142D01*
X140271428Y-101403571D01*
X140235714Y-101510714D01*
X139807142Y-101939285D01*
X140271428Y-101939285D01*
X139128571Y-103800714D02*
X139164285Y-103765000D01*
X139235714Y-103729285D01*
X139414285Y-103729285D01*
X139485714Y-103765000D01*
X139521428Y-103800714D01*
X139557142Y-103872142D01*
X139557142Y-103943571D01*
X139521428Y-104050714D01*
X139092857Y-104479285D01*
X139557142Y-104479285D01*
X140271428Y-104479285D02*
X139842857Y-104479285D01*
X140057142Y-104479285D02*
X140057142Y-103729285D01*
X139985714Y-103836428D01*
X139914285Y-103907857D01*
X139842857Y-103943571D01*
X139128571Y-106340714D02*
X139164285Y-106305000D01*
X139235714Y-106269285D01*
X139414285Y-106269285D01*
X139485714Y-106305000D01*
X139521428Y-106340714D01*
X139557142Y-106412142D01*
X139557142Y-106483571D01*
X139521428Y-106590714D01*
X139092857Y-107019285D01*
X139557142Y-107019285D01*
X140021428Y-106269285D02*
X140092857Y-106269285D01*
X140164285Y-106305000D01*
X140200000Y-106340714D01*
X140235714Y-106412142D01*
X140271428Y-106555000D01*
X140271428Y-106733571D01*
X140235714Y-106876428D01*
X140200000Y-106947857D01*
X140164285Y-106983571D01*
X140092857Y-107019285D01*
X140021428Y-107019285D01*
X139950000Y-106983571D01*
X139914285Y-106947857D01*
X139878571Y-106876428D01*
X139842857Y-106733571D01*
X139842857Y-106555000D01*
X139878571Y-106412142D01*
X139914285Y-106340714D01*
X139950000Y-106305000D01*
X140021428Y-106269285D01*
X139557142Y-109559285D02*
X139128571Y-109559285D01*
X139342857Y-109559285D02*
X139342857Y-108809285D01*
X139271428Y-108916428D01*
X139200000Y-108987857D01*
X139128571Y-109023571D01*
X139914285Y-109559285D02*
X140057142Y-109559285D01*
X140128571Y-109523571D01*
X140164285Y-109487857D01*
X140235714Y-109380714D01*
X140271428Y-109237857D01*
X140271428Y-108952142D01*
X140235714Y-108880714D01*
X140200000Y-108845000D01*
X140128571Y-108809285D01*
X139985714Y-108809285D01*
X139914285Y-108845000D01*
X139878571Y-108880714D01*
X139842857Y-108952142D01*
X139842857Y-109130714D01*
X139878571Y-109202142D01*
X139914285Y-109237857D01*
X139985714Y-109273571D01*
X140128571Y-109273571D01*
X140200000Y-109237857D01*
X140235714Y-109202142D01*
X140271428Y-109130714D01*
X139557142Y-112099285D02*
X139128571Y-112099285D01*
X139342857Y-112099285D02*
X139342857Y-111349285D01*
X139271428Y-111456428D01*
X139200000Y-111527857D01*
X139128571Y-111563571D01*
X139985714Y-111670714D02*
X139914285Y-111635000D01*
X139878571Y-111599285D01*
X139842857Y-111527857D01*
X139842857Y-111492142D01*
X139878571Y-111420714D01*
X139914285Y-111385000D01*
X139985714Y-111349285D01*
X140128571Y-111349285D01*
X140200000Y-111385000D01*
X140235714Y-111420714D01*
X140271428Y-111492142D01*
X140271428Y-111527857D01*
X140235714Y-111599285D01*
X140200000Y-111635000D01*
X140128571Y-111670714D01*
X139985714Y-111670714D01*
X139914285Y-111706428D01*
X139878571Y-111742142D01*
X139842857Y-111813571D01*
X139842857Y-111956428D01*
X139878571Y-112027857D01*
X139914285Y-112063571D01*
X139985714Y-112099285D01*
X140128571Y-112099285D01*
X140200000Y-112063571D01*
X140235714Y-112027857D01*
X140271428Y-111956428D01*
X140271428Y-111813571D01*
X140235714Y-111742142D01*
X140200000Y-111706428D01*
X140128571Y-111670714D01*
X139557142Y-114639285D02*
X139128571Y-114639285D01*
X139342857Y-114639285D02*
X139342857Y-113889285D01*
X139271428Y-113996428D01*
X139200000Y-114067857D01*
X139128571Y-114103571D01*
X139807142Y-113889285D02*
X140307142Y-113889285D01*
X139985714Y-114639285D01*
X131937142Y-114639285D02*
X131508571Y-114639285D01*
X131722857Y-114639285D02*
X131722857Y-113889285D01*
X131651428Y-113996428D01*
X131580000Y-114067857D01*
X131508571Y-114103571D01*
X132580000Y-113889285D02*
X132437142Y-113889285D01*
X132365714Y-113925000D01*
X132330000Y-113960714D01*
X132258571Y-114067857D01*
X132222857Y-114210714D01*
X132222857Y-114496428D01*
X132258571Y-114567857D01*
X132294285Y-114603571D01*
X132365714Y-114639285D01*
X132508571Y-114639285D01*
X132580000Y-114603571D01*
X132615714Y-114567857D01*
X132651428Y-114496428D01*
X132651428Y-114317857D01*
X132615714Y-114246428D01*
X132580000Y-114210714D01*
X132508571Y-114175000D01*
X132365714Y-114175000D01*
X132294285Y-114210714D01*
X132258571Y-114246428D01*
X132222857Y-114317857D01*
X131937142Y-112099285D02*
X131508571Y-112099285D01*
X131722857Y-112099285D02*
X131722857Y-111349285D01*
X131651428Y-111456428D01*
X131580000Y-111527857D01*
X131508571Y-111563571D01*
X132615714Y-111349285D02*
X132258571Y-111349285D01*
X132222857Y-111706428D01*
X132258571Y-111670714D01*
X132330000Y-111635000D01*
X132508571Y-111635000D01*
X132580000Y-111670714D01*
X132615714Y-111706428D01*
X132651428Y-111777857D01*
X132651428Y-111956428D01*
X132615714Y-112027857D01*
X132580000Y-112063571D01*
X132508571Y-112099285D01*
X132330000Y-112099285D01*
X132258571Y-112063571D01*
X132222857Y-112027857D01*
X131937142Y-109559285D02*
X131508571Y-109559285D01*
X131722857Y-109559285D02*
X131722857Y-108809285D01*
X131651428Y-108916428D01*
X131580000Y-108987857D01*
X131508571Y-109023571D01*
X132580000Y-109059285D02*
X132580000Y-109559285D01*
X132401428Y-108773571D02*
X132222857Y-109309285D01*
X132687142Y-109309285D01*
X131937142Y-107019285D02*
X131508571Y-107019285D01*
X131722857Y-107019285D02*
X131722857Y-106269285D01*
X131651428Y-106376428D01*
X131580000Y-106447857D01*
X131508571Y-106483571D01*
X132187142Y-106269285D02*
X132651428Y-106269285D01*
X132401428Y-106555000D01*
X132508571Y-106555000D01*
X132580000Y-106590714D01*
X132615714Y-106626428D01*
X132651428Y-106697857D01*
X132651428Y-106876428D01*
X132615714Y-106947857D01*
X132580000Y-106983571D01*
X132508571Y-107019285D01*
X132294285Y-107019285D01*
X132222857Y-106983571D01*
X132187142Y-106947857D01*
X131937142Y-104479285D02*
X131508571Y-104479285D01*
X131722857Y-104479285D02*
X131722857Y-103729285D01*
X131651428Y-103836428D01*
X131580000Y-103907857D01*
X131508571Y-103943571D01*
X132222857Y-103800714D02*
X132258571Y-103765000D01*
X132330000Y-103729285D01*
X132508571Y-103729285D01*
X132580000Y-103765000D01*
X132615714Y-103800714D01*
X132651428Y-103872142D01*
X132651428Y-103943571D01*
X132615714Y-104050714D01*
X132187142Y-104479285D01*
X132651428Y-104479285D01*
X131937142Y-101939285D02*
X131508571Y-101939285D01*
X131722857Y-101939285D02*
X131722857Y-101189285D01*
X131651428Y-101296428D01*
X131580000Y-101367857D01*
X131508571Y-101403571D01*
X132651428Y-101939285D02*
X132222857Y-101939285D01*
X132437142Y-101939285D02*
X132437142Y-101189285D01*
X132365714Y-101296428D01*
X132294285Y-101367857D01*
X132222857Y-101403571D01*
X131937142Y-99399285D02*
X131508571Y-99399285D01*
X131722857Y-99399285D02*
X131722857Y-98649285D01*
X131651428Y-98756428D01*
X131580000Y-98827857D01*
X131508571Y-98863571D01*
X132401428Y-98649285D02*
X132472857Y-98649285D01*
X132544285Y-98685000D01*
X132580000Y-98720714D01*
X132615714Y-98792142D01*
X132651428Y-98935000D01*
X132651428Y-99113571D01*
X132615714Y-99256428D01*
X132580000Y-99327857D01*
X132544285Y-99363571D01*
X132472857Y-99399285D01*
X132401428Y-99399285D01*
X132330000Y-99363571D01*
X132294285Y-99327857D01*
X132258571Y-99256428D01*
X132222857Y-99113571D01*
X132222857Y-98935000D01*
X132258571Y-98792142D01*
X132294285Y-98720714D01*
X132330000Y-98685000D01*
X132401428Y-98649285D01*
D11*
X131730761Y-96746190D02*
X131826000Y-96746190D01*
X131873619Y-96722380D01*
X131897428Y-96698571D01*
X131945047Y-96627142D01*
X131968857Y-96531904D01*
X131968857Y-96341428D01*
X131945047Y-96293809D01*
X131921238Y-96270000D01*
X131873619Y-96246190D01*
X131778380Y-96246190D01*
X131730761Y-96270000D01*
X131706952Y-96293809D01*
X131683142Y-96341428D01*
X131683142Y-96460476D01*
X131706952Y-96508095D01*
X131730761Y-96531904D01*
X131778380Y-96555714D01*
X131873619Y-96555714D01*
X131921238Y-96531904D01*
X131945047Y-96508095D01*
X131968857Y-96460476D01*
X131778380Y-93920476D02*
X131730761Y-93896666D01*
X131706952Y-93872857D01*
X131683142Y-93825238D01*
X131683142Y-93801428D01*
X131706952Y-93753809D01*
X131730761Y-93730000D01*
X131778380Y-93706190D01*
X131873619Y-93706190D01*
X131921238Y-93730000D01*
X131945047Y-93753809D01*
X131968857Y-93801428D01*
X131968857Y-93825238D01*
X131945047Y-93872857D01*
X131921238Y-93896666D01*
X131873619Y-93920476D01*
X131778380Y-93920476D01*
X131730761Y-93944285D01*
X131706952Y-93968095D01*
X131683142Y-94015714D01*
X131683142Y-94110952D01*
X131706952Y-94158571D01*
X131730761Y-94182380D01*
X131778380Y-94206190D01*
X131873619Y-94206190D01*
X131921238Y-94182380D01*
X131945047Y-94158571D01*
X131968857Y-94110952D01*
X131968857Y-94015714D01*
X131945047Y-93968095D01*
X131921238Y-93944285D01*
X131873619Y-93920476D01*
D10*
X131830000Y-91029285D02*
X132330000Y-91029285D01*
X132008571Y-91779285D01*
X132222857Y-88489285D02*
X132080000Y-88489285D01*
X132008571Y-88525000D01*
X131972857Y-88560714D01*
X131901428Y-88667857D01*
X131865714Y-88810714D01*
X131865714Y-89096428D01*
X131901428Y-89167857D01*
X131937142Y-89203571D01*
X132008571Y-89239285D01*
X132151428Y-89239285D01*
X132222857Y-89203571D01*
X132258571Y-89167857D01*
X132294285Y-89096428D01*
X132294285Y-88917857D01*
X132258571Y-88846428D01*
X132222857Y-88810714D01*
X132151428Y-88775000D01*
X132008571Y-88775000D01*
X131937142Y-88810714D01*
X131901428Y-88846428D01*
X131865714Y-88917857D01*
X132258571Y-85949285D02*
X131901428Y-85949285D01*
X131865714Y-86306428D01*
X131901428Y-86270714D01*
X131972857Y-86235000D01*
X132151428Y-86235000D01*
X132222857Y-86270714D01*
X132258571Y-86306428D01*
X132294285Y-86377857D01*
X132294285Y-86556428D01*
X132258571Y-86627857D01*
X132222857Y-86663571D01*
X132151428Y-86699285D01*
X131972857Y-86699285D01*
X131901428Y-86663571D01*
X131865714Y-86627857D01*
X132222857Y-83659285D02*
X132222857Y-84159285D01*
X132044285Y-83373571D02*
X131865714Y-83909285D01*
X132330000Y-83909285D01*
X131830000Y-80869285D02*
X132294285Y-80869285D01*
X132044285Y-81155000D01*
X132151428Y-81155000D01*
X132222857Y-81190714D01*
X132258571Y-81226428D01*
X132294285Y-81297857D01*
X132294285Y-81476428D01*
X132258571Y-81547857D01*
X132222857Y-81583571D01*
X132151428Y-81619285D01*
X131937142Y-81619285D01*
X131865714Y-81583571D01*
X131830000Y-81547857D01*
X131865714Y-78400714D02*
X131901428Y-78365000D01*
X131972857Y-78329285D01*
X132151428Y-78329285D01*
X132222857Y-78365000D01*
X132258571Y-78400714D01*
X132294285Y-78472142D01*
X132294285Y-78543571D01*
X132258571Y-78650714D01*
X131830000Y-79079285D01*
X132294285Y-79079285D01*
X132294285Y-76539285D02*
X131865714Y-76539285D01*
X132080000Y-76539285D02*
X132080000Y-75789285D01*
X132008571Y-75896428D01*
X131937142Y-75967857D01*
X131865714Y-76003571D01*
D12*
G04 #@! TO.C,J1*
X134560000Y-112970000D02*
X135890000Y-112970000D01*
X134560000Y-114300000D02*
X134560000Y-112970000D01*
X134560000Y-115570000D02*
X137220000Y-115570000D01*
X137220000Y-115570000D02*
X137220000Y-115630000D01*
X134560000Y-115570000D02*
X134560000Y-115630000D01*
X134560000Y-115630000D02*
X137220000Y-115630000D01*
G04 #@! TO.C,J2*
X134560000Y-77530000D02*
X137220000Y-77530000D01*
X134560000Y-77470000D02*
X134560000Y-77530000D01*
X137220000Y-77470000D02*
X137220000Y-77530000D01*
X134560000Y-77470000D02*
X137220000Y-77470000D01*
X134560000Y-76200000D02*
X134560000Y-74870000D01*
X134560000Y-74870000D02*
X135890000Y-74870000D01*
G04 #@! TO.C,J3*
X128210000Y-115630000D02*
X130870000Y-115630000D01*
X128210000Y-77470000D02*
X128210000Y-115630000D01*
X130870000Y-77470000D02*
X130870000Y-115630000D01*
X128210000Y-77470000D02*
X130870000Y-77470000D01*
X128210000Y-76200000D02*
X128210000Y-74870000D01*
X128210000Y-74870000D02*
X129540000Y-74870000D01*
G04 #@! TO.C,J4*
X143570000Y-115630000D02*
X142240000Y-115630000D01*
X143570000Y-114300000D02*
X143570000Y-115630000D01*
X143570000Y-113030000D02*
X140910000Y-113030000D01*
X140910000Y-113030000D02*
X140910000Y-74870000D01*
X143570000Y-113030000D02*
X143570000Y-74870000D01*
X143570000Y-74870000D02*
X140910000Y-74870000D01*
G04 #@! TO.C,U1*
X139245222Y-94914124D02*
X139581097Y-95250000D01*
X139581097Y-95250000D02*
X139245222Y-95585876D01*
X132534778Y-95585876D02*
X132198903Y-95250000D01*
X132198903Y-95250000D02*
X132534778Y-94914124D01*
X135554124Y-98605222D02*
X135890000Y-98941097D01*
X135890000Y-98941097D02*
X136225876Y-98605222D01*
X136225876Y-91894778D02*
X135890000Y-91558903D01*
G04 #@! TD*
M02*
