M48
;DRILL file {KiCad (5.0.0-3-g5ebb6b6)} date Saturday, 26 January 2019 at 00:41:46
;FORMAT={-:-/ absolute / metric / decimal}
FMAT,2
METRIC,TZ
T1C0.200
T2C1.000
%
G90
G05
M71
T1
X134.476Y-95.25
X135.183Y-94.543
X135.183Y-95.957
X135.89Y-93.836
X135.89Y-95.25
X135.89Y-96.664
X136.597Y-94.543
X136.597Y-95.957
X137.304Y-95.25
T2
X129.54Y-76.2
X129.54Y-78.74
X129.54Y-81.28
X129.54Y-83.82
X129.54Y-86.36
X129.54Y-88.9
X129.54Y-91.44
X129.54Y-93.98
X129.54Y-96.52
X129.54Y-99.06
X129.54Y-101.6
X129.54Y-104.14
X129.54Y-106.68
X129.54Y-109.22
X129.54Y-111.76
X129.54Y-114.3
X135.89Y-114.3
X142.24Y-76.2
X142.24Y-78.74
X142.24Y-81.28
X142.24Y-83.82
X142.24Y-86.36
X142.24Y-88.9
X142.24Y-91.44
X142.24Y-93.98
X142.24Y-96.52
X142.24Y-99.06
X142.24Y-101.6
X142.24Y-104.14
X142.24Y-106.68
X142.24Y-109.22
X142.24Y-111.76
X142.24Y-114.3
X135.89Y-76.2
T0
M30
