G04 #@! TF.GenerationSoftware,KiCad,Pcbnew,(5.0.0-3-g5ebb6b6)*
G04 #@! TF.CreationDate,2018-09-23T00:30:24+01:00*
G04 #@! TF.ProjectId,BreadboardAdaptor44PinPLCC,4272656164626F61726441646170746F,rev?*
G04 #@! TF.SameCoordinates,Original*
G04 #@! TF.FileFunction,Copper,L2,Bot,Signal*
G04 #@! TF.FilePolarity,Positive*
%FSLAX46Y46*%
G04 Gerber Fmt 4.6, Leading zero omitted, Abs format (unit mm)*
G04 Created by KiCad (PCBNEW (5.0.0-3-g5ebb6b6)) date Sunday, 23 September 2018 at 00:30:24*
%MOMM*%
%LPD*%
G01*
G04 APERTURE LIST*
G04 #@! TA.AperFunction,ComponentPad*
%ADD10R,1.700000X1.700000*%
G04 #@! TD*
G04 #@! TA.AperFunction,ComponentPad*
%ADD11O,1.700000X1.700000*%
G04 #@! TD*
G04 #@! TA.AperFunction,ComponentPad*
%ADD12R,1.422400X1.422400*%
G04 #@! TD*
G04 #@! TA.AperFunction,ComponentPad*
%ADD13C,1.422400*%
G04 #@! TD*
G04 #@! TA.AperFunction,Conductor*
%ADD14C,0.250000*%
G04 #@! TD*
G04 APERTURE END LIST*
D10*
G04 #@! TO.P,J_1_22_PDIP1,1*
G04 #@! TO.N,Net-(J_1_22_PDIP1-Pad1)*
X158750000Y-77470000D03*
D11*
G04 #@! TO.P,J_1_22_PDIP1,2*
G04 #@! TO.N,Net-(J_1_22_PDIP1-Pad2)*
X158750000Y-80010000D03*
G04 #@! TO.P,J_1_22_PDIP1,3*
G04 #@! TO.N,Net-(J_1_22_PDIP1-Pad3)*
X158750000Y-82550000D03*
G04 #@! TO.P,J_1_22_PDIP1,4*
G04 #@! TO.N,Net-(J_1_22_PDIP1-Pad4)*
X158750000Y-85090000D03*
G04 #@! TO.P,J_1_22_PDIP1,5*
G04 #@! TO.N,Net-(J_1_22_PDIP1-Pad5)*
X158750000Y-87630000D03*
G04 #@! TO.P,J_1_22_PDIP1,6*
G04 #@! TO.N,Net-(J_1_22_PDIP1-Pad6)*
X158750000Y-90170000D03*
G04 #@! TO.P,J_1_22_PDIP1,7*
G04 #@! TO.N,Net-(J_1_22_PDIP1-Pad7)*
X158750000Y-92710000D03*
G04 #@! TO.P,J_1_22_PDIP1,8*
G04 #@! TO.N,Net-(J_1_22_PDIP1-Pad8)*
X158750000Y-95250000D03*
G04 #@! TO.P,J_1_22_PDIP1,9*
G04 #@! TO.N,Net-(J_1_22_PDIP1-Pad9)*
X158750000Y-97790000D03*
G04 #@! TO.P,J_1_22_PDIP1,10*
G04 #@! TO.N,Net-(J_1_22_PDIP1-Pad10)*
X158750000Y-100330000D03*
G04 #@! TO.P,J_1_22_PDIP1,11*
G04 #@! TO.N,Net-(J_1_22_PDIP1-Pad11)*
X158750000Y-102870000D03*
G04 #@! TO.P,J_1_22_PDIP1,12*
G04 #@! TO.N,Net-(J_1_22_PDIP1-Pad12)*
X158750000Y-105410000D03*
G04 #@! TO.P,J_1_22_PDIP1,13*
G04 #@! TO.N,Net-(J_1_22_PDIP1-Pad13)*
X158750000Y-107950000D03*
G04 #@! TO.P,J_1_22_PDIP1,14*
G04 #@! TO.N,Net-(J_1_22_PDIP1-Pad14)*
X158750000Y-110490000D03*
G04 #@! TO.P,J_1_22_PDIP1,15*
G04 #@! TO.N,Net-(J_1_22_PDIP1-Pad15)*
X158750000Y-113030000D03*
G04 #@! TO.P,J_1_22_PDIP1,16*
G04 #@! TO.N,Net-(J_1_22_PDIP1-Pad16)*
X158750000Y-115570000D03*
G04 #@! TO.P,J_1_22_PDIP1,17*
G04 #@! TO.N,Net-(J_1_22_PDIP1-Pad17)*
X158750000Y-118110000D03*
G04 #@! TO.P,J_1_22_PDIP1,18*
G04 #@! TO.N,Net-(J_1_22_PDIP1-Pad18)*
X158750000Y-120650000D03*
G04 #@! TO.P,J_1_22_PDIP1,19*
G04 #@! TO.N,Net-(J_1_22_PDIP1-Pad19)*
X158750000Y-123190000D03*
G04 #@! TO.P,J_1_22_PDIP1,20*
G04 #@! TO.N,Net-(J_1_22_PDIP1-Pad20)*
X158750000Y-125730000D03*
G04 #@! TD*
G04 #@! TO.P,J_23_44_PDIP2,20*
G04 #@! TO.N,Net-(J_23_44_PDIP2-Pad20)*
X186690000Y-77470000D03*
G04 #@! TO.P,J_23_44_PDIP2,19*
G04 #@! TO.N,Net-(J_23_44_PDIP2-Pad19)*
X186690000Y-80010000D03*
G04 #@! TO.P,J_23_44_PDIP2,18*
G04 #@! TO.N,Net-(J_23_44_PDIP2-Pad18)*
X186690000Y-82550000D03*
G04 #@! TO.P,J_23_44_PDIP2,17*
G04 #@! TO.N,Net-(J_23_44_PDIP2-Pad17)*
X186690000Y-85090000D03*
G04 #@! TO.P,J_23_44_PDIP2,16*
G04 #@! TO.N,Net-(J_23_44_PDIP2-Pad16)*
X186690000Y-87630000D03*
G04 #@! TO.P,J_23_44_PDIP2,15*
G04 #@! TO.N,Net-(J_23_44_PDIP2-Pad15)*
X186690000Y-90170000D03*
G04 #@! TO.P,J_23_44_PDIP2,14*
G04 #@! TO.N,Net-(J_23_44_PDIP2-Pad14)*
X186690000Y-92710000D03*
G04 #@! TO.P,J_23_44_PDIP2,13*
G04 #@! TO.N,Net-(J_23_44_PDIP2-Pad13)*
X186690000Y-95250000D03*
G04 #@! TO.P,J_23_44_PDIP2,12*
G04 #@! TO.N,Net-(J_23_44_PDIP2-Pad12)*
X186690000Y-97790000D03*
G04 #@! TO.P,J_23_44_PDIP2,11*
G04 #@! TO.N,Net-(J_23_44_PDIP2-Pad11)*
X186690000Y-100330000D03*
G04 #@! TO.P,J_23_44_PDIP2,10*
G04 #@! TO.N,Net-(J_23_44_PDIP2-Pad10)*
X186690000Y-102870000D03*
G04 #@! TO.P,J_23_44_PDIP2,9*
G04 #@! TO.N,Net-(J_23_44_PDIP2-Pad9)*
X186690000Y-105410000D03*
G04 #@! TO.P,J_23_44_PDIP2,8*
G04 #@! TO.N,Net-(J_23_44_PDIP2-Pad8)*
X186690000Y-107950000D03*
G04 #@! TO.P,J_23_44_PDIP2,7*
G04 #@! TO.N,Net-(J_23_44_PDIP2-Pad7)*
X186690000Y-110490000D03*
G04 #@! TO.P,J_23_44_PDIP2,6*
G04 #@! TO.N,Net-(J_23_44_PDIP2-Pad6)*
X186690000Y-113030000D03*
G04 #@! TO.P,J_23_44_PDIP2,5*
G04 #@! TO.N,Net-(J_23_44_PDIP2-Pad5)*
X186690000Y-115570000D03*
G04 #@! TO.P,J_23_44_PDIP2,4*
G04 #@! TO.N,Net-(J_23_44_PDIP2-Pad4)*
X186690000Y-118110000D03*
G04 #@! TO.P,J_23_44_PDIP2,3*
G04 #@! TO.N,Net-(J_23_44_PDIP2-Pad3)*
X186690000Y-120650000D03*
G04 #@! TO.P,J_23_44_PDIP2,2*
G04 #@! TO.N,Net-(J_23_44_PDIP2-Pad2)*
X186690000Y-123190000D03*
D10*
G04 #@! TO.P,J_23_44_PDIP2,1*
G04 #@! TO.N,Net-(J_23_44_PDIP2-Pad1)*
X186690000Y-125730000D03*
G04 #@! TD*
D12*
G04 #@! TO.P,U_PLCC1,1*
G04 #@! TO.N,Net-(J_1_22_PDIP1-Pad1)*
X173990000Y-97790000D03*
D13*
G04 #@! TO.P,U_PLCC1,3*
G04 #@! TO.N,Net-(J_1_22_PDIP1-Pad3)*
X171450000Y-97790000D03*
G04 #@! TO.P,U_PLCC1,5*
G04 #@! TO.N,N/C*
X168910000Y-97790000D03*
G04 #@! TO.P,U_PLCC1,43*
G04 #@! TO.N,Net-(J_23_44_PDIP2-Pad19)*
X176530000Y-97790000D03*
G04 #@! TO.P,U_PLCC1,41*
G04 #@! TO.N,Net-(J_23_44_PDIP2-Pad17)*
X179070000Y-97790000D03*
G04 #@! TO.P,U_PLCC1,2*
G04 #@! TO.N,Net-(J_1_22_PDIP1-Pad2)*
X171450000Y-95250000D03*
G04 #@! TO.P,U_PLCC1,4*
G04 #@! TO.N,Net-(J_1_22_PDIP1-Pad4)*
X168910000Y-95250000D03*
G04 #@! TO.P,U_PLCC1,6*
G04 #@! TO.N,N/C*
X166370000Y-95250000D03*
G04 #@! TO.P,U_PLCC1,44*
G04 #@! TO.N,Net-(J_23_44_PDIP2-Pad20)*
X173990000Y-95250000D03*
G04 #@! TO.P,U_PLCC1,42*
G04 #@! TO.N,Net-(J_23_44_PDIP2-Pad18)*
X176530000Y-95250000D03*
G04 #@! TO.P,U_PLCC1,8*
G04 #@! TO.N,Net-(J_1_22_PDIP1-Pad6)*
X166370000Y-97790000D03*
G04 #@! TO.P,U_PLCC1,10*
G04 #@! TO.N,Net-(J_1_22_PDIP1-Pad8)*
X166370000Y-100330000D03*
G04 #@! TO.P,U_PLCC1,12*
G04 #@! TO.N,Net-(J_1_22_PDIP1-Pad10)*
X166370000Y-102870000D03*
G04 #@! TO.P,U_PLCC1,14*
G04 #@! TO.N,Net-(J_1_22_PDIP1-Pad12)*
X166370000Y-105410000D03*
G04 #@! TO.P,U_PLCC1,16*
G04 #@! TO.N,Net-(J_1_22_PDIP1-Pad14)*
X166370000Y-107950000D03*
G04 #@! TO.P,U_PLCC1,7*
G04 #@! TO.N,Net-(J_1_22_PDIP1-Pad5)*
X163830000Y-97790000D03*
G04 #@! TO.P,U_PLCC1,9*
G04 #@! TO.N,Net-(J_1_22_PDIP1-Pad7)*
X163830000Y-100330000D03*
G04 #@! TO.P,U_PLCC1,11*
G04 #@! TO.N,Net-(J_1_22_PDIP1-Pad9)*
X163830000Y-102870000D03*
G04 #@! TO.P,U_PLCC1,13*
G04 #@! TO.N,Net-(J_1_22_PDIP1-Pad11)*
X163830000Y-105410000D03*
G04 #@! TO.P,U_PLCC1,15*
G04 #@! TO.N,Net-(J_1_22_PDIP1-Pad13)*
X163830000Y-107950000D03*
G04 #@! TO.P,U_PLCC1,17*
G04 #@! TO.N,Net-(J_1_22_PDIP1-Pad15)*
X163830000Y-110490000D03*
G04 #@! TO.P,U_PLCC1,19*
G04 #@! TO.N,Net-(J_1_22_PDIP1-Pad17)*
X166370000Y-110490000D03*
G04 #@! TO.P,U_PLCC1,21*
G04 #@! TO.N,Net-(J_1_22_PDIP1-Pad19)*
X168910000Y-110490000D03*
G04 #@! TO.P,U_PLCC1,23*
G04 #@! TO.N,Net-(J_23_44_PDIP2-Pad1)*
X171450000Y-110490000D03*
G04 #@! TO.P,U_PLCC1,25*
G04 #@! TO.N,Net-(J_23_44_PDIP2-Pad3)*
X173990000Y-110490000D03*
G04 #@! TO.P,U_PLCC1,27*
G04 #@! TO.N,Net-(J_23_44_PDIP2-Pad5)*
X176530000Y-110490000D03*
G04 #@! TO.P,U_PLCC1,29*
G04 #@! TO.N,Net-(J_23_44_PDIP2-Pad7)*
X181610000Y-110490000D03*
G04 #@! TO.P,U_PLCC1,18*
G04 #@! TO.N,Net-(J_1_22_PDIP1-Pad16)*
X166370000Y-113030000D03*
G04 #@! TO.P,U_PLCC1,20*
G04 #@! TO.N,Net-(J_1_22_PDIP1-Pad18)*
X168910000Y-113030000D03*
G04 #@! TO.P,U_PLCC1,22*
G04 #@! TO.N,Net-(J_1_22_PDIP1-Pad20)*
X171450000Y-113030000D03*
G04 #@! TO.P,U_PLCC1,24*
G04 #@! TO.N,Net-(J_23_44_PDIP2-Pad2)*
X173990000Y-113030000D03*
G04 #@! TO.P,U_PLCC1,26*
G04 #@! TO.N,Net-(J_23_44_PDIP2-Pad4)*
X176530000Y-113030000D03*
G04 #@! TO.P,U_PLCC1,28*
G04 #@! TO.N,Net-(J_23_44_PDIP2-Pad6)*
X179070000Y-113030000D03*
G04 #@! TO.P,U_PLCC1,30*
G04 #@! TO.N,Net-(J_23_44_PDIP2-Pad8)*
X179070000Y-110490000D03*
G04 #@! TO.P,U_PLCC1,32*
G04 #@! TO.N,Net-(J_23_44_PDIP2-Pad10)*
X179070000Y-107950000D03*
G04 #@! TO.P,U_PLCC1,34*
G04 #@! TO.N,Net-(J_23_44_PDIP2-Pad12)*
X179070000Y-105410000D03*
G04 #@! TO.P,U_PLCC1,36*
G04 #@! TO.N,Net-(J_23_44_PDIP2-Pad14)*
X179070000Y-102870000D03*
G04 #@! TO.P,U_PLCC1,38*
G04 #@! TO.N,Net-(J_23_44_PDIP2-Pad16)*
X179070000Y-100330000D03*
G04 #@! TO.P,U_PLCC1,40*
G04 #@! TO.N,N/C*
X179070000Y-95250000D03*
G04 #@! TO.P,U_PLCC1,31*
G04 #@! TO.N,Net-(J_23_44_PDIP2-Pad9)*
X181610000Y-107950000D03*
G04 #@! TO.P,U_PLCC1,33*
G04 #@! TO.N,Net-(J_23_44_PDIP2-Pad11)*
X181610000Y-105410000D03*
G04 #@! TO.P,U_PLCC1,35*
G04 #@! TO.N,Net-(J_23_44_PDIP2-Pad13)*
X181610000Y-102870000D03*
G04 #@! TO.P,U_PLCC1,37*
G04 #@! TO.N,Net-(J_23_44_PDIP2-Pad15)*
X181610000Y-100330000D03*
G04 #@! TO.P,U_PLCC1,39*
G04 #@! TO.N,N/C*
X181610000Y-97790000D03*
G04 #@! TD*
D14*
G04 #@! TO.N,Net-(J_1_22_PDIP1-Pad1)*
X172686201Y-97447401D02*
X172686201Y-86326201D01*
X173028800Y-97790000D02*
X172686201Y-97447401D01*
X173990000Y-97790000D02*
X173028800Y-97790000D01*
X163830000Y-77470000D02*
X158750000Y-77470000D01*
X172686201Y-86326201D02*
X163830000Y-77470000D01*
G04 #@! TO.N,Net-(J_1_22_PDIP1-Pad3)*
X170146201Y-96486201D02*
X170146201Y-90771201D01*
X171450000Y-97790000D02*
X170146201Y-96486201D01*
X161925000Y-82550000D02*
X158750000Y-82550000D01*
X170146201Y-90771201D02*
X161925000Y-82550000D01*
G04 #@! TO.N,Net-(J_1_22_PDIP1-Pad6)*
X166370000Y-97790000D02*
X163195000Y-94615000D01*
X163195000Y-94615000D02*
X163195000Y-91440000D01*
X161925000Y-90170000D02*
X158750000Y-90170000D01*
X163195000Y-91440000D02*
X161925000Y-90170000D01*
G04 #@! TO.N,Net-(J_1_22_PDIP1-Pad8)*
X159599999Y-96099999D02*
X158750000Y-95250000D01*
X162526201Y-99026201D02*
X159599999Y-96099999D01*
X165066201Y-99026201D02*
X162526201Y-99026201D01*
X166370000Y-100330000D02*
X165066201Y-99026201D01*
G04 #@! TO.N,Net-(J_1_22_PDIP1-Pad10)*
X165658801Y-102158801D02*
X166370000Y-102870000D01*
X165133799Y-101633799D02*
X165658801Y-102158801D01*
X160053799Y-101633799D02*
X165133799Y-101633799D01*
X158750000Y-100330000D02*
X160053799Y-101633799D01*
G04 #@! TO.N,Net-(J_1_22_PDIP1-Pad12)*
X159599999Y-104560001D02*
X158750000Y-105410000D01*
X159986201Y-104173799D02*
X159599999Y-104560001D01*
X165133799Y-104173799D02*
X159986201Y-104173799D01*
X166370000Y-105410000D02*
X165133799Y-104173799D01*
G04 #@! TO.N,Net-(J_1_22_PDIP1-Pad14)*
X165658801Y-108661199D02*
X166370000Y-107950000D01*
X160053799Y-109186201D02*
X165133799Y-109186201D01*
X165133799Y-109186201D02*
X165658801Y-108661199D01*
X158750000Y-110490000D02*
X160053799Y-109186201D01*
G04 #@! TO.N,Net-(J_1_22_PDIP1-Pad17)*
X166370000Y-110490000D02*
X158750000Y-118110000D01*
G04 #@! TO.N,Net-(J_1_22_PDIP1-Pad19)*
X168198801Y-111201199D02*
X168910000Y-110490000D01*
X167606201Y-111793799D02*
X168198801Y-111201199D01*
X167606201Y-114333799D02*
X167606201Y-111793799D01*
X158750000Y-123190000D02*
X167606201Y-114333799D01*
G04 #@! TO.N,Net-(J_23_44_PDIP2-Pad19)*
X177833799Y-96486201D02*
X177833799Y-84421201D01*
X176530000Y-97790000D02*
X177833799Y-96486201D01*
X182245000Y-80010000D02*
X186690000Y-80010000D01*
X177833799Y-84421201D02*
X182245000Y-80010000D01*
G04 #@! TO.N,Net-(J_23_44_PDIP2-Pad17)*
X179070000Y-97790000D02*
X181610000Y-95250000D01*
X181610000Y-95250000D02*
X181610000Y-86995000D01*
X183515000Y-85090000D02*
X186690000Y-85090000D01*
X181610000Y-86995000D02*
X183515000Y-85090000D01*
G04 #@! TO.N,Net-(J_23_44_PDIP2-Pad16)*
X182135779Y-99093799D02*
X183515000Y-97714578D01*
X180306201Y-99093799D02*
X182135779Y-99093799D01*
X179070000Y-100330000D02*
X180306201Y-99093799D01*
X183515000Y-97714578D02*
X183515000Y-89535000D01*
X185420000Y-87630000D02*
X186690000Y-87630000D01*
X183515000Y-89535000D02*
X185420000Y-87630000D01*
G04 #@! TO.N,Net-(J_23_44_PDIP2-Pad14)*
X184664989Y-94735011D02*
X185840001Y-93559999D01*
X184664989Y-99104589D02*
X184664989Y-94735011D01*
X182203377Y-101566201D02*
X184664989Y-99104589D01*
X180373799Y-101566201D02*
X182203377Y-101566201D01*
X185840001Y-93559999D02*
X186690000Y-92710000D01*
X179070000Y-102870000D02*
X180373799Y-101566201D01*
G04 #@! TO.N,Net-(J_23_44_PDIP2-Pad12)*
X185840001Y-98639999D02*
X186690000Y-97790000D01*
X185314999Y-99165001D02*
X185840001Y-98639999D01*
X185314999Y-100994579D02*
X185314999Y-99165001D01*
X182203377Y-104106201D02*
X185314999Y-100994579D01*
X180373799Y-104106201D02*
X182203377Y-104106201D01*
X179070000Y-105410000D02*
X180373799Y-104106201D01*
G04 #@! TO.N,Net-(J_23_44_PDIP2-Pad10)*
X185840001Y-103719999D02*
X186690000Y-102870000D01*
X182913799Y-106646201D02*
X185840001Y-103719999D01*
X180373799Y-106646201D02*
X182913799Y-106646201D01*
X179070000Y-107950000D02*
X180373799Y-106646201D01*
G04 #@! TO.N,Net-(J_23_44_PDIP2-Pad8)*
X185840001Y-108799999D02*
X186690000Y-107950000D01*
X185453799Y-109186201D02*
X185840001Y-108799999D01*
X180373799Y-109186201D02*
X185453799Y-109186201D01*
X179070000Y-110490000D02*
X180373799Y-109186201D01*
G04 #@! TO.N,Net-(J_23_44_PDIP2-Pad5)*
X185840001Y-114720001D02*
X186690000Y-115570000D01*
X182913799Y-111793799D02*
X185840001Y-114720001D01*
X177833799Y-111793799D02*
X182913799Y-111793799D01*
X176530000Y-110490000D02*
X177833799Y-111793799D01*
G04 #@! TO.N,Net-(J_23_44_PDIP2-Pad3)*
X185487919Y-120650000D02*
X186690000Y-120650000D01*
X182320422Y-120650000D02*
X185487919Y-120650000D01*
X175293799Y-113623377D02*
X182320422Y-120650000D01*
X175293799Y-111793799D02*
X175293799Y-113623377D01*
X173990000Y-110490000D02*
X175293799Y-111793799D01*
G04 #@! TO.N,Net-(J_23_44_PDIP2-Pad1)*
X172686201Y-111726201D02*
X172686201Y-114901201D01*
X171450000Y-110490000D02*
X172686201Y-111726201D01*
X183515000Y-125730000D02*
X186690000Y-125730000D01*
X172686201Y-114901201D02*
X183515000Y-125730000D01*
G04 #@! TD*
M02*
