G04 #@! TF.GenerationSoftware,KiCad,Pcbnew,(5.0.0-3-g5ebb6b6)*
G04 #@! TF.CreationDate,2019-04-23T02:19:09+01:00*
G04 #@! TF.ProjectId,Nucleo144AudioBreakout,4E75636C656F313434417564696F4272,RevA*
G04 #@! TF.SameCoordinates,Original*
G04 #@! TF.FileFunction,Copper,L3,Inr,Plane*
G04 #@! TF.FilePolarity,Positive*
%FSLAX46Y46*%
G04 Gerber Fmt 4.6, Leading zero omitted, Abs format (unit mm)*
G04 Created by KiCad (PCBNEW (5.0.0-3-g5ebb6b6)) date Tuesday, 23 April 2019 at 02:19:09*
%MOMM*%
%LPD*%
G01*
G04 APERTURE LIST*
G04 #@! TA.AperFunction,ViaPad*
%ADD10C,3.800000*%
G04 #@! TD*
G04 #@! TA.AperFunction,ViaPad*
%ADD11C,3.000000*%
G04 #@! TD*
G04 #@! TA.AperFunction,ViaPad*
%ADD12R,3.000000X3.000000*%
G04 #@! TD*
G04 #@! TA.AperFunction,ViaPad*
%ADD13O,1.700000X1.700000*%
G04 #@! TD*
G04 #@! TA.AperFunction,ViaPad*
%ADD14R,1.700000X1.700000*%
G04 #@! TD*
G04 #@! TA.AperFunction,ViaPad*
%ADD15C,1.620000*%
G04 #@! TD*
G04 #@! TA.AperFunction,ViaPad*
%ADD16C,4.200000*%
G04 #@! TD*
G04 #@! TA.AperFunction,ViaPad*
%ADD17C,1.800000*%
G04 #@! TD*
G04 #@! TA.AperFunction,ViaPad*
%ADD18C,0.600000*%
G04 #@! TD*
G04 #@! TA.AperFunction,ViaPad*
%ADD19C,0.800000*%
G04 #@! TD*
G04 #@! TA.AperFunction,Conductor*
%ADD20C,0.254000*%
G04 #@! TD*
G04 APERTURE END LIST*
D10*
G04 #@! TO.N,N/C*
G04 #@! TO.C,REF\002A\002A*
X121666000Y-87884000D03*
G04 #@! TD*
G04 #@! TO.N,N/C*
G04 #@! TO.C,REF\002A\002A*
X112130000Y-87884000D03*
G04 #@! TD*
G04 #@! TO.N,N/C*
G04 #@! TO.C,REF\002A\002A*
X91186000Y-87884000D03*
G04 #@! TD*
G04 #@! TO.N,N/C*
G04 #@! TO.C,REF\002A\002A*
X81661000Y-87884000D03*
G04 #@! TD*
D11*
G04 #@! TO.N,GNDS*
G04 #@! TO.C,JIN1*
X80290000Y-168910000D03*
X80290000Y-162560000D03*
X80290000Y-175260000D03*
G04 #@! TO.N,Net-(JIN1-Pad3)*
X96520000Y-168910000D03*
G04 #@! TO.N,Net-(JIN1-Pad2)*
X96520000Y-162560000D03*
D12*
G04 #@! TO.N,GNDS*
X96520000Y-175260000D03*
G04 #@! TD*
D13*
G04 #@! TO.N,N/C*
G04 #@! TO.C,CN11*
X73660000Y-173990000D03*
X71120000Y-173990000D03*
X73660000Y-171450000D03*
X71120000Y-171450000D03*
X73660000Y-168910000D03*
X71120000Y-168910000D03*
X73660000Y-166370000D03*
X71120000Y-166370000D03*
X73660000Y-163830000D03*
X71120000Y-163830000D03*
G04 #@! TO.N,GNDS*
X73660000Y-161290000D03*
G04 #@! TO.N,N/C*
X71120000Y-161290000D03*
X73660000Y-158750000D03*
X71120000Y-158750000D03*
X73660000Y-156210000D03*
X71120000Y-156210000D03*
X73660000Y-153670000D03*
X71120000Y-153670000D03*
X73660000Y-151130000D03*
X71120000Y-151130000D03*
X73660000Y-148590000D03*
X71120000Y-148590000D03*
X73660000Y-146050000D03*
X71120000Y-146050000D03*
X73660000Y-143510000D03*
X71120000Y-143510000D03*
X73660000Y-140970000D03*
X71120000Y-140970000D03*
X73660000Y-138430000D03*
X71120000Y-138430000D03*
X73660000Y-135890000D03*
X71120000Y-135890000D03*
X73660000Y-133350000D03*
X71120000Y-133350000D03*
X73660000Y-130810000D03*
X71120000Y-130810000D03*
X73660000Y-128270000D03*
X71120000Y-128270000D03*
G04 #@! TO.N,/PA4_DAC_OUT1*
X73660000Y-125730000D03*
G04 #@! TO.N,N/C*
X71120000Y-125730000D03*
G04 #@! TO.N,/PA1_ADC1_IN2*
X73660000Y-123190000D03*
G04 #@! TO.N,N/C*
X71120000Y-123190000D03*
G04 #@! TO.N,/PA0_ADC1_IN1*
X73660000Y-120650000D03*
G04 #@! TO.N,N/C*
X71120000Y-120650000D03*
X73660000Y-118110000D03*
X71120000Y-118110000D03*
X73660000Y-115570000D03*
X71120000Y-115570000D03*
G04 #@! TO.N,GNDS*
X73660000Y-113030000D03*
G04 #@! TO.N,N/C*
X71120000Y-113030000D03*
G04 #@! TO.N,GNDS*
X73660000Y-110490000D03*
G04 #@! TO.N,N/C*
X71120000Y-110490000D03*
G04 #@! TO.N,VDD*
X73660000Y-107950000D03*
G04 #@! TO.N,N/C*
X71120000Y-107950000D03*
X73660000Y-105410000D03*
X71120000Y-105410000D03*
X73660000Y-102870000D03*
X71120000Y-102870000D03*
X73660000Y-100330000D03*
X71120000Y-100330000D03*
X73660000Y-97790000D03*
X71120000Y-97790000D03*
X73660000Y-95250000D03*
X71120000Y-95250000D03*
X73660000Y-92710000D03*
X71120000Y-92710000D03*
X73660000Y-90170000D03*
X71120000Y-90170000D03*
X73660000Y-87630000D03*
D14*
X71120000Y-87630000D03*
G04 #@! TD*
G04 #@! TO.N,N/C*
G04 #@! TO.C,CN12*
X129540000Y-87630000D03*
D13*
X132080000Y-87630000D03*
X129540000Y-90170000D03*
X132080000Y-90170000D03*
X129540000Y-92710000D03*
X132080000Y-92710000D03*
X129540000Y-95250000D03*
X132080000Y-95250000D03*
G04 #@! TO.N,GNDS*
X129540000Y-97790000D03*
G04 #@! TO.N,N/C*
X132080000Y-97790000D03*
G04 #@! TO.N,/PA5_DAC_OUT2*
X129540000Y-100330000D03*
G04 #@! TO.N,N/C*
X132080000Y-100330000D03*
X129540000Y-102870000D03*
X132080000Y-102870000D03*
X129540000Y-105410000D03*
X132080000Y-105410000D03*
X129540000Y-107950000D03*
X132080000Y-107950000D03*
X129540000Y-110490000D03*
X132080000Y-110490000D03*
X129540000Y-113030000D03*
X132080000Y-113030000D03*
X129540000Y-115570000D03*
X132080000Y-115570000D03*
X129540000Y-118110000D03*
X132080000Y-118110000D03*
X129540000Y-120650000D03*
X132080000Y-120650000D03*
X129540000Y-123190000D03*
X132080000Y-123190000D03*
G04 #@! TO.N,Net-(CN12-Pad32)*
X132080000Y-125730000D03*
G04 #@! TO.N,N/C*
X129540000Y-128270000D03*
X132080000Y-128270000D03*
X129540000Y-130810000D03*
X132080000Y-130810000D03*
X129540000Y-133350000D03*
X132080000Y-133350000D03*
G04 #@! TO.N,GNDS*
X129540000Y-135890000D03*
G04 #@! TO.N,N/C*
X132080000Y-135890000D03*
X129540000Y-138430000D03*
X132080000Y-138430000D03*
X129540000Y-140970000D03*
X132080000Y-140970000D03*
X129540000Y-143510000D03*
X132080000Y-143510000D03*
X129540000Y-146050000D03*
X132080000Y-146050000D03*
X129540000Y-148590000D03*
X132080000Y-148590000D03*
X129540000Y-151130000D03*
X132080000Y-151130000D03*
X129540000Y-153670000D03*
X132080000Y-153670000D03*
X129540000Y-156210000D03*
X132080000Y-156210000D03*
X129540000Y-158750000D03*
X132080000Y-158750000D03*
X129540000Y-161290000D03*
X132080000Y-161290000D03*
X129540000Y-163830000D03*
X132080000Y-163830000D03*
G04 #@! TO.N,GNDS*
X129540000Y-166370000D03*
G04 #@! TO.N,N/C*
X132080000Y-166370000D03*
X129540000Y-168910000D03*
X132080000Y-168910000D03*
X129540000Y-171450000D03*
X132080000Y-171450000D03*
X129540000Y-173990000D03*
X132080000Y-173990000D03*
G04 #@! TD*
D12*
G04 #@! TO.N,GNDS*
G04 #@! TO.C,JOUT1*
X121920000Y-175260000D03*
D11*
G04 #@! TO.N,Net-(JOUT1-Pad2)*
X121920000Y-162560000D03*
G04 #@! TO.N,Net-(JOUT1-Pad3)*
X121920000Y-168910000D03*
G04 #@! TO.N,GNDS*
X105690000Y-175260000D03*
X105690000Y-162560000D03*
X105690000Y-168910000D03*
G04 #@! TD*
D15*
G04 #@! TO.N,Net-(R12-Pad1)*
G04 #@! TO.C,RV3*
X90250000Y-122555000D03*
G04 #@! TO.N,Net-(RV3-Pad2)*
X92750000Y-117555000D03*
G04 #@! TO.N,Net-(R11-Pad2)*
X95250000Y-122555000D03*
G04 #@! TD*
G04 #@! TO.N,Net-(R14-Pad1)*
G04 #@! TO.C,RV4*
X108030000Y-122555000D03*
G04 #@! TO.N,Net-(RV4-Pad2)*
X110530000Y-117555000D03*
G04 #@! TO.N,Net-(R13-Pad2)*
X113030000Y-122555000D03*
G04 #@! TD*
D16*
G04 #@! TO.N,*
G04 #@! TO.C,RV1*
X91150000Y-101050000D03*
X81650000Y-101050000D03*
D17*
G04 #@! TO.N,Net-(JIN1-Pad3)*
X88900000Y-97750000D03*
G04 #@! TO.N,Net-(R2-Pad1)*
X86400000Y-97750000D03*
G04 #@! TO.N,GNDS*
X83900000Y-97750000D03*
G04 #@! TO.N,Net-(JIN1-Pad2)*
X88900000Y-95250000D03*
G04 #@! TO.N,Net-(R1-Pad1)*
X86400000Y-95250000D03*
G04 #@! TO.N,GNDS*
X83900000Y-95250000D03*
G04 #@! TD*
G04 #@! TO.N,Net-(R5-Pad2)*
G04 #@! TO.C,RV2*
X114380000Y-95250000D03*
G04 #@! TO.N,Net-(RV2-Pad2)*
X116880000Y-95250000D03*
G04 #@! TO.N,/PA4_DAC_OUT1*
X119380000Y-95250000D03*
G04 #@! TO.N,Net-(R6-Pad2)*
X114380000Y-97750000D03*
G04 #@! TO.N,Net-(RV2-Pad5)*
X116880000Y-97750000D03*
G04 #@! TO.N,/PA5_DAC_OUT2*
X119380000Y-97750000D03*
D16*
G04 #@! TO.N,*
X112130000Y-101050000D03*
X121630000Y-101050000D03*
G04 #@! TD*
D14*
G04 #@! TO.N,Net-(CN12-Pad32)*
G04 #@! TO.C,JAGND1*
X125730000Y-125730000D03*
D13*
G04 #@! TO.N,GNDS*
X125730000Y-128270000D03*
G04 #@! TD*
D14*
G04 #@! TO.N,/LM27762PSU/VDDEXT*
G04 #@! TO.C,J1*
X100609400Y-86791800D03*
D13*
G04 #@! TO.N,GNDS*
X103149400Y-86791800D03*
G04 #@! TD*
D18*
G04 #@! TO.N,GNDS*
G04 #@! TO.C,U3*
X102044500Y-101663500D03*
X101044500Y-101663500D03*
X103044500Y-101663500D03*
G04 #@! TD*
D14*
G04 #@! TO.N,VDD*
G04 #@! TO.C,J2*
X100609400Y-92913200D03*
D13*
G04 #@! TO.N,/LM27762PSU/VDDEXT*
X100609400Y-90373200D03*
G04 #@! TO.N,/LM27762PSU/5V*
X103149400Y-92913200D03*
X103149400Y-90373200D03*
G04 #@! TD*
D18*
G04 #@! TO.N,+5V*
X104290000Y-108735000D03*
X91590000Y-134770000D03*
D19*
X118110000Y-110490000D03*
X91440000Y-110490000D03*
D18*
X100965000Y-99707700D03*
X109093000Y-145288000D03*
X96113600Y-100660200D03*
G04 #@! TO.N,-5V*
X81430000Y-142898000D03*
X120800000Y-145265000D03*
X99060000Y-121285000D03*
D19*
X114935000Y-110490000D03*
X88265000Y-110490000D03*
D18*
X104965500Y-105295700D03*
G04 #@! TO.N,/PA4_DAC_OUT1*
X125730000Y-101600000D03*
G04 #@! TO.N,/PA0_ADC1_IN1*
X86233000Y-130810000D03*
X86233000Y-133984999D03*
G04 #@! TO.N,Net-(JIN1-Pad2)*
X78536800Y-120446800D03*
X78536800Y-128930400D03*
X78536800Y-128930400D03*
G04 #@! TO.N,Net-(R1-Pad1)*
X80416400Y-122580400D03*
X80416402Y-130987800D03*
G04 #@! TO.N,/FLAT_LINE_ADJUST_IN*
X99060000Y-135255000D03*
X101549200Y-132765800D03*
G04 #@! TO.N,Net-(R2-Pad1)*
X89789000Y-133985000D03*
X89789000Y-130810000D03*
G04 #@! TO.N,Net-(R17-Pad2)*
X110354000Y-137024000D03*
X114173000Y-146685006D03*
D19*
G04 #@! TO.N,/FLAT_LINE_ADJUST_OUT*
X120650000Y-108585000D03*
X126365000Y-108585000D03*
D18*
G04 #@! TO.N,Net-(R10-Pad2)*
X115443000Y-144399000D03*
X110236000Y-149098000D03*
D19*
G04 #@! TO.N,GNDS*
X84455000Y-141604992D03*
X118745000Y-141605000D03*
X118745000Y-144145000D03*
X93345000Y-142875000D03*
D18*
X106680000Y-109855000D03*
X106680000Y-111125000D03*
X97155000Y-117475000D03*
X108100000Y-145265000D03*
X121770000Y-141755000D03*
X103060500Y-97612200D03*
X92583002Y-138112500D03*
X85090000Y-144145000D03*
X100025200Y-97612200D03*
X105968800Y-105308400D03*
X102260400Y-105308400D03*
G04 #@! TO.N,Net-(R20-Pad1)*
X99948994Y-103581200D03*
X98526600Y-102666798D03*
G04 #@! TD*
D20*
G04 #@! TO.N,-5V*
G36*
X79511930Y-86448038D02*
X79126000Y-87379757D01*
X79126000Y-88388243D01*
X79511930Y-89319962D01*
X80225038Y-90033070D01*
X81156757Y-90419000D01*
X82165243Y-90419000D01*
X83096962Y-90033070D01*
X83810070Y-89319962D01*
X84196000Y-88388243D01*
X84196000Y-87379757D01*
X83810070Y-86448038D01*
X83187032Y-85825000D01*
X89659968Y-85825000D01*
X89036930Y-86448038D01*
X88651000Y-87379757D01*
X88651000Y-88388243D01*
X89036930Y-89319962D01*
X89750038Y-90033070D01*
X90681757Y-90419000D01*
X91690243Y-90419000D01*
X91800814Y-90373200D01*
X99095308Y-90373200D01*
X99210561Y-90952618D01*
X99538775Y-91443825D01*
X99557019Y-91456016D01*
X99511635Y-91465043D01*
X99301591Y-91605391D01*
X99161243Y-91815435D01*
X99111960Y-92063200D01*
X99111960Y-93763200D01*
X99161243Y-94010965D01*
X99301591Y-94221009D01*
X99511635Y-94361357D01*
X99759400Y-94410640D01*
X101459400Y-94410640D01*
X101707165Y-94361357D01*
X101917209Y-94221009D01*
X102057557Y-94010965D01*
X102066584Y-93965581D01*
X102078775Y-93983825D01*
X102569982Y-94312039D01*
X103003144Y-94398200D01*
X103295656Y-94398200D01*
X103728818Y-94312039D01*
X104220025Y-93983825D01*
X104548239Y-93492618D01*
X104663492Y-92913200D01*
X104548239Y-92333782D01*
X104220025Y-91842575D01*
X103921639Y-91643200D01*
X104220025Y-91443825D01*
X104548239Y-90952618D01*
X104663492Y-90373200D01*
X104548239Y-89793782D01*
X104220025Y-89302575D01*
X103728818Y-88974361D01*
X103295656Y-88888200D01*
X103003144Y-88888200D01*
X102569982Y-88974361D01*
X102078775Y-89302575D01*
X101879400Y-89600961D01*
X101680025Y-89302575D01*
X101188818Y-88974361D01*
X100755656Y-88888200D01*
X100463144Y-88888200D01*
X100029982Y-88974361D01*
X99538775Y-89302575D01*
X99210561Y-89793782D01*
X99095308Y-90373200D01*
X91800814Y-90373200D01*
X92621962Y-90033070D01*
X93335070Y-89319962D01*
X93721000Y-88388243D01*
X93721000Y-87379757D01*
X93335070Y-86448038D01*
X92712032Y-85825000D01*
X99135193Y-85825000D01*
X99111960Y-85941800D01*
X99111960Y-87641800D01*
X99161243Y-87889565D01*
X99301591Y-88099609D01*
X99511635Y-88239957D01*
X99759400Y-88289240D01*
X101459400Y-88289240D01*
X101707165Y-88239957D01*
X101917209Y-88099609D01*
X102057557Y-87889565D01*
X102066584Y-87844181D01*
X102078775Y-87862425D01*
X102569982Y-88190639D01*
X103003144Y-88276800D01*
X103295656Y-88276800D01*
X103728818Y-88190639D01*
X104220025Y-87862425D01*
X104548239Y-87371218D01*
X104663492Y-86791800D01*
X104548239Y-86212382D01*
X104289399Y-85825000D01*
X110603968Y-85825000D01*
X109980930Y-86448038D01*
X109595000Y-87379757D01*
X109595000Y-88388243D01*
X109980930Y-89319962D01*
X110694038Y-90033070D01*
X111625757Y-90419000D01*
X112634243Y-90419000D01*
X113565962Y-90033070D01*
X114279070Y-89319962D01*
X114665000Y-88388243D01*
X114665000Y-87379757D01*
X114279070Y-86448038D01*
X113656032Y-85825000D01*
X120139968Y-85825000D01*
X119516930Y-86448038D01*
X119131000Y-87379757D01*
X119131000Y-88388243D01*
X119516930Y-89319962D01*
X120230038Y-90033070D01*
X121161757Y-90419000D01*
X122170243Y-90419000D01*
X123101962Y-90033070D01*
X123815070Y-89319962D01*
X124201000Y-88388243D01*
X124201000Y-87379757D01*
X123815070Y-86448038D01*
X123192032Y-85825000D01*
X128143000Y-85825000D01*
X128143000Y-86455674D01*
X128091843Y-86532235D01*
X128042560Y-86780000D01*
X128042560Y-88480000D01*
X128091843Y-88727765D01*
X128143000Y-88804326D01*
X128143000Y-89587830D01*
X128141161Y-89590582D01*
X128025908Y-90170000D01*
X128141161Y-90749418D01*
X128143000Y-90752170D01*
X128143000Y-92127830D01*
X128141161Y-92130582D01*
X128025908Y-92710000D01*
X128141161Y-93289418D01*
X128143000Y-93292170D01*
X128143000Y-94667830D01*
X128141161Y-94670582D01*
X128025908Y-95250000D01*
X128141161Y-95829418D01*
X128143000Y-95832170D01*
X128143000Y-97207830D01*
X128141161Y-97210582D01*
X128025908Y-97790000D01*
X128141161Y-98369418D01*
X128143000Y-98372170D01*
X128143000Y-99747830D01*
X128141161Y-99750582D01*
X128025908Y-100330000D01*
X128141161Y-100909418D01*
X128143000Y-100912170D01*
X128143000Y-102287830D01*
X128141161Y-102290582D01*
X128025908Y-102870000D01*
X128141161Y-103449418D01*
X128143000Y-103452170D01*
X128143000Y-104827830D01*
X128141161Y-104830582D01*
X128025908Y-105410000D01*
X128141161Y-105989418D01*
X128143000Y-105992170D01*
X128143000Y-107367830D01*
X128141161Y-107370582D01*
X128025908Y-107950000D01*
X128141161Y-108529418D01*
X128143000Y-108532170D01*
X128143000Y-109907830D01*
X128141161Y-109910582D01*
X128025908Y-110490000D01*
X128141161Y-111069418D01*
X128143000Y-111072170D01*
X128143000Y-112447830D01*
X128141161Y-112450582D01*
X128025908Y-113030000D01*
X128141161Y-113609418D01*
X128143000Y-113612170D01*
X128143000Y-114987830D01*
X128141161Y-114990582D01*
X128025908Y-115570000D01*
X128141161Y-116149418D01*
X128143000Y-116152170D01*
X128143000Y-117527830D01*
X128141161Y-117530582D01*
X128025908Y-118110000D01*
X128141161Y-118689418D01*
X128143000Y-118692170D01*
X128143000Y-120067830D01*
X128141161Y-120070582D01*
X128025908Y-120650000D01*
X128141161Y-121229418D01*
X128143000Y-121232170D01*
X128143000Y-122607830D01*
X128141161Y-122610582D01*
X128025908Y-123190000D01*
X128141161Y-123769418D01*
X128143000Y-123772170D01*
X128143000Y-127687830D01*
X128141161Y-127690582D01*
X128025908Y-128270000D01*
X128141161Y-128849418D01*
X128143000Y-128852170D01*
X128143000Y-130227830D01*
X128141161Y-130230582D01*
X128025908Y-130810000D01*
X128141161Y-131389418D01*
X128143000Y-131392170D01*
X128143000Y-132767830D01*
X128141161Y-132770582D01*
X128025908Y-133350000D01*
X128141161Y-133929418D01*
X128143000Y-133932170D01*
X128143000Y-135307830D01*
X128141161Y-135310582D01*
X128025908Y-135890000D01*
X128141161Y-136469418D01*
X128143000Y-136472170D01*
X128143000Y-137847830D01*
X128141161Y-137850582D01*
X128025908Y-138430000D01*
X128141161Y-139009418D01*
X128143000Y-139012170D01*
X128143000Y-140387830D01*
X128141161Y-140390582D01*
X128025908Y-140970000D01*
X128141161Y-141549418D01*
X128143000Y-141552170D01*
X128143000Y-142927830D01*
X128141161Y-142930582D01*
X128025908Y-143510000D01*
X128141161Y-144089418D01*
X128143000Y-144092170D01*
X128143000Y-145467830D01*
X128141161Y-145470582D01*
X128025908Y-146050000D01*
X128141161Y-146629418D01*
X128143000Y-146632170D01*
X128143000Y-148007830D01*
X128141161Y-148010582D01*
X128025908Y-148590000D01*
X128141161Y-149169418D01*
X128143000Y-149172170D01*
X128143000Y-150547830D01*
X128141161Y-150550582D01*
X128025908Y-151130000D01*
X128141161Y-151709418D01*
X128143000Y-151712170D01*
X128143000Y-153087830D01*
X128141161Y-153090582D01*
X128025908Y-153670000D01*
X128141161Y-154249418D01*
X128143000Y-154252170D01*
X128143000Y-155627830D01*
X128141161Y-155630582D01*
X128025908Y-156210000D01*
X128141161Y-156789418D01*
X128143000Y-156792170D01*
X128143000Y-158167830D01*
X128141161Y-158170582D01*
X128025908Y-158750000D01*
X128141161Y-159329418D01*
X128143000Y-159332170D01*
X128143000Y-160707830D01*
X128141161Y-160710582D01*
X128025908Y-161290000D01*
X128141161Y-161869418D01*
X128143000Y-161872170D01*
X128143000Y-163247830D01*
X128141161Y-163250582D01*
X128025908Y-163830000D01*
X128141161Y-164409418D01*
X128143000Y-164412170D01*
X128143000Y-165787830D01*
X128141161Y-165790582D01*
X128025908Y-166370000D01*
X128141161Y-166949418D01*
X128143000Y-166952170D01*
X128143000Y-168327830D01*
X128141161Y-168330582D01*
X128025908Y-168910000D01*
X128141161Y-169489418D01*
X128143000Y-169492170D01*
X128143000Y-170867830D01*
X128141161Y-170870582D01*
X128025908Y-171450000D01*
X128141161Y-172029418D01*
X128143000Y-172032170D01*
X128143000Y-173407830D01*
X128141161Y-173410582D01*
X128025908Y-173990000D01*
X128141161Y-174569418D01*
X128143000Y-174572170D01*
X128143000Y-178335000D01*
X75057000Y-178335000D01*
X75057000Y-174835322D01*
X78155000Y-174835322D01*
X78155000Y-175684678D01*
X78480034Y-176469380D01*
X79080620Y-177069966D01*
X79865322Y-177395000D01*
X80714678Y-177395000D01*
X81499380Y-177069966D01*
X82099966Y-176469380D01*
X82425000Y-175684678D01*
X82425000Y-174835322D01*
X82099966Y-174050620D01*
X81809346Y-173760000D01*
X94372560Y-173760000D01*
X94372560Y-176760000D01*
X94421843Y-177007765D01*
X94562191Y-177217809D01*
X94772235Y-177358157D01*
X95020000Y-177407440D01*
X98020000Y-177407440D01*
X98267765Y-177358157D01*
X98477809Y-177217809D01*
X98618157Y-177007765D01*
X98667440Y-176760000D01*
X98667440Y-174835322D01*
X103555000Y-174835322D01*
X103555000Y-175684678D01*
X103880034Y-176469380D01*
X104480620Y-177069966D01*
X105265322Y-177395000D01*
X106114678Y-177395000D01*
X106899380Y-177069966D01*
X107499966Y-176469380D01*
X107825000Y-175684678D01*
X107825000Y-174835322D01*
X107499966Y-174050620D01*
X107209346Y-173760000D01*
X119772560Y-173760000D01*
X119772560Y-176760000D01*
X119821843Y-177007765D01*
X119962191Y-177217809D01*
X120172235Y-177358157D01*
X120420000Y-177407440D01*
X123420000Y-177407440D01*
X123667765Y-177358157D01*
X123877809Y-177217809D01*
X124018157Y-177007765D01*
X124067440Y-176760000D01*
X124067440Y-173760000D01*
X124018157Y-173512235D01*
X123877809Y-173302191D01*
X123667765Y-173161843D01*
X123420000Y-173112560D01*
X120420000Y-173112560D01*
X120172235Y-173161843D01*
X119962191Y-173302191D01*
X119821843Y-173512235D01*
X119772560Y-173760000D01*
X107209346Y-173760000D01*
X106899380Y-173450034D01*
X106114678Y-173125000D01*
X105265322Y-173125000D01*
X104480620Y-173450034D01*
X103880034Y-174050620D01*
X103555000Y-174835322D01*
X98667440Y-174835322D01*
X98667440Y-173760000D01*
X98618157Y-173512235D01*
X98477809Y-173302191D01*
X98267765Y-173161843D01*
X98020000Y-173112560D01*
X95020000Y-173112560D01*
X94772235Y-173161843D01*
X94562191Y-173302191D01*
X94421843Y-173512235D01*
X94372560Y-173760000D01*
X81809346Y-173760000D01*
X81499380Y-173450034D01*
X80714678Y-173125000D01*
X79865322Y-173125000D01*
X79080620Y-173450034D01*
X78480034Y-174050620D01*
X78155000Y-174835322D01*
X75057000Y-174835322D01*
X75057000Y-174572170D01*
X75058839Y-174569418D01*
X75174092Y-173990000D01*
X75058839Y-173410582D01*
X75057000Y-173407830D01*
X75057000Y-172032170D01*
X75058839Y-172029418D01*
X75174092Y-171450000D01*
X75058839Y-170870582D01*
X75057000Y-170867830D01*
X75057000Y-169492170D01*
X75058839Y-169489418D01*
X75174092Y-168910000D01*
X75089619Y-168485322D01*
X78155000Y-168485322D01*
X78155000Y-169334678D01*
X78480034Y-170119380D01*
X79080620Y-170719966D01*
X79865322Y-171045000D01*
X80714678Y-171045000D01*
X81499380Y-170719966D01*
X82099966Y-170119380D01*
X82425000Y-169334678D01*
X82425000Y-168485322D01*
X94385000Y-168485322D01*
X94385000Y-169334678D01*
X94710034Y-170119380D01*
X95310620Y-170719966D01*
X96095322Y-171045000D01*
X96944678Y-171045000D01*
X97729380Y-170719966D01*
X98329966Y-170119380D01*
X98655000Y-169334678D01*
X98655000Y-168485322D01*
X103555000Y-168485322D01*
X103555000Y-169334678D01*
X103880034Y-170119380D01*
X104480620Y-170719966D01*
X105265322Y-171045000D01*
X106114678Y-171045000D01*
X106899380Y-170719966D01*
X107499966Y-170119380D01*
X107825000Y-169334678D01*
X107825000Y-168485322D01*
X119785000Y-168485322D01*
X119785000Y-169334678D01*
X120110034Y-170119380D01*
X120710620Y-170719966D01*
X121495322Y-171045000D01*
X122344678Y-171045000D01*
X123129380Y-170719966D01*
X123729966Y-170119380D01*
X124055000Y-169334678D01*
X124055000Y-168485322D01*
X123729966Y-167700620D01*
X123129380Y-167100034D01*
X122344678Y-166775000D01*
X121495322Y-166775000D01*
X120710620Y-167100034D01*
X120110034Y-167700620D01*
X119785000Y-168485322D01*
X107825000Y-168485322D01*
X107499966Y-167700620D01*
X106899380Y-167100034D01*
X106114678Y-166775000D01*
X105265322Y-166775000D01*
X104480620Y-167100034D01*
X103880034Y-167700620D01*
X103555000Y-168485322D01*
X98655000Y-168485322D01*
X98329966Y-167700620D01*
X97729380Y-167100034D01*
X96944678Y-166775000D01*
X96095322Y-166775000D01*
X95310620Y-167100034D01*
X94710034Y-167700620D01*
X94385000Y-168485322D01*
X82425000Y-168485322D01*
X82099966Y-167700620D01*
X81499380Y-167100034D01*
X80714678Y-166775000D01*
X79865322Y-166775000D01*
X79080620Y-167100034D01*
X78480034Y-167700620D01*
X78155000Y-168485322D01*
X75089619Y-168485322D01*
X75058839Y-168330582D01*
X75057000Y-168327830D01*
X75057000Y-166952170D01*
X75058839Y-166949418D01*
X75174092Y-166370000D01*
X75058839Y-165790582D01*
X75057000Y-165787830D01*
X75057000Y-164412170D01*
X75058839Y-164409418D01*
X75174092Y-163830000D01*
X75058839Y-163250582D01*
X75057000Y-163247830D01*
X75057000Y-162135322D01*
X78155000Y-162135322D01*
X78155000Y-162984678D01*
X78480034Y-163769380D01*
X79080620Y-164369966D01*
X79865322Y-164695000D01*
X80714678Y-164695000D01*
X81499380Y-164369966D01*
X82099966Y-163769380D01*
X82425000Y-162984678D01*
X82425000Y-162135322D01*
X94385000Y-162135322D01*
X94385000Y-162984678D01*
X94710034Y-163769380D01*
X95310620Y-164369966D01*
X96095322Y-164695000D01*
X96944678Y-164695000D01*
X97729380Y-164369966D01*
X98329966Y-163769380D01*
X98655000Y-162984678D01*
X98655000Y-162135322D01*
X103555000Y-162135322D01*
X103555000Y-162984678D01*
X103880034Y-163769380D01*
X104480620Y-164369966D01*
X105265322Y-164695000D01*
X106114678Y-164695000D01*
X106899380Y-164369966D01*
X107499966Y-163769380D01*
X107825000Y-162984678D01*
X107825000Y-162135322D01*
X119785000Y-162135322D01*
X119785000Y-162984678D01*
X120110034Y-163769380D01*
X120710620Y-164369966D01*
X121495322Y-164695000D01*
X122344678Y-164695000D01*
X123129380Y-164369966D01*
X123729966Y-163769380D01*
X124055000Y-162984678D01*
X124055000Y-162135322D01*
X123729966Y-161350620D01*
X123129380Y-160750034D01*
X122344678Y-160425000D01*
X121495322Y-160425000D01*
X120710620Y-160750034D01*
X120110034Y-161350620D01*
X119785000Y-162135322D01*
X107825000Y-162135322D01*
X107499966Y-161350620D01*
X106899380Y-160750034D01*
X106114678Y-160425000D01*
X105265322Y-160425000D01*
X104480620Y-160750034D01*
X103880034Y-161350620D01*
X103555000Y-162135322D01*
X98655000Y-162135322D01*
X98329966Y-161350620D01*
X97729380Y-160750034D01*
X96944678Y-160425000D01*
X96095322Y-160425000D01*
X95310620Y-160750034D01*
X94710034Y-161350620D01*
X94385000Y-162135322D01*
X82425000Y-162135322D01*
X82099966Y-161350620D01*
X81499380Y-160750034D01*
X80714678Y-160425000D01*
X79865322Y-160425000D01*
X79080620Y-160750034D01*
X78480034Y-161350620D01*
X78155000Y-162135322D01*
X75057000Y-162135322D01*
X75057000Y-161872170D01*
X75058839Y-161869418D01*
X75174092Y-161290000D01*
X75058839Y-160710582D01*
X75057000Y-160707830D01*
X75057000Y-159332170D01*
X75058839Y-159329418D01*
X75174092Y-158750000D01*
X75058839Y-158170582D01*
X75057000Y-158167830D01*
X75057000Y-156792170D01*
X75058839Y-156789418D01*
X75174092Y-156210000D01*
X75058839Y-155630582D01*
X75057000Y-155627830D01*
X75057000Y-154252170D01*
X75058839Y-154249418D01*
X75174092Y-153670000D01*
X75058839Y-153090582D01*
X75057000Y-153087830D01*
X75057000Y-151712170D01*
X75058839Y-151709418D01*
X75174092Y-151130000D01*
X75058839Y-150550582D01*
X75057000Y-150547830D01*
X75057000Y-149172170D01*
X75058839Y-149169418D01*
X75110039Y-148912017D01*
X109301000Y-148912017D01*
X109301000Y-149283983D01*
X109443345Y-149627635D01*
X109706365Y-149890655D01*
X110050017Y-150033000D01*
X110421983Y-150033000D01*
X110765635Y-149890655D01*
X111028655Y-149627635D01*
X111171000Y-149283983D01*
X111171000Y-148912017D01*
X111028655Y-148568365D01*
X110765635Y-148305345D01*
X110421983Y-148163000D01*
X110050017Y-148163000D01*
X109706365Y-148305345D01*
X109443345Y-148568365D01*
X109301000Y-148912017D01*
X75110039Y-148912017D01*
X75174092Y-148590000D01*
X75058839Y-148010582D01*
X75057000Y-148007830D01*
X75057000Y-146632170D01*
X75058839Y-146629418D01*
X75084776Y-146499023D01*
X113238000Y-146499023D01*
X113238000Y-146870989D01*
X113380345Y-147214641D01*
X113643365Y-147477661D01*
X113987017Y-147620006D01*
X114358983Y-147620006D01*
X114702635Y-147477661D01*
X114965655Y-147214641D01*
X115108000Y-146870989D01*
X115108000Y-146499023D01*
X114965655Y-146155371D01*
X114702635Y-145892351D01*
X114358983Y-145750006D01*
X113987017Y-145750006D01*
X113643365Y-145892351D01*
X113380345Y-146155371D01*
X113238000Y-146499023D01*
X75084776Y-146499023D01*
X75174092Y-146050000D01*
X75058839Y-145470582D01*
X75057000Y-145467830D01*
X75057000Y-144092170D01*
X75058839Y-144089418D01*
X75084777Y-143959017D01*
X84155000Y-143959017D01*
X84155000Y-144330983D01*
X84297345Y-144674635D01*
X84560365Y-144937655D01*
X84904017Y-145080000D01*
X85275983Y-145080000D01*
X85278356Y-145079017D01*
X107165000Y-145079017D01*
X107165000Y-145450983D01*
X107307345Y-145794635D01*
X107570365Y-146057655D01*
X107914017Y-146200000D01*
X108285983Y-146200000D01*
X108568736Y-146082880D01*
X108907017Y-146223000D01*
X109278983Y-146223000D01*
X109622635Y-146080655D01*
X109885655Y-145817635D01*
X110028000Y-145473983D01*
X110028000Y-145102017D01*
X109885655Y-144758365D01*
X109622635Y-144495345D01*
X109278983Y-144353000D01*
X108907017Y-144353000D01*
X108624264Y-144470120D01*
X108285983Y-144330000D01*
X107914017Y-144330000D01*
X107570365Y-144472345D01*
X107307345Y-144735365D01*
X107165000Y-145079017D01*
X85278356Y-145079017D01*
X85619635Y-144937655D01*
X85882655Y-144674635D01*
X86025000Y-144330983D01*
X86025000Y-144213017D01*
X114508000Y-144213017D01*
X114508000Y-144584983D01*
X114650345Y-144928635D01*
X114913365Y-145191655D01*
X115257017Y-145334000D01*
X115628983Y-145334000D01*
X115972635Y-145191655D01*
X116235655Y-144928635D01*
X116378000Y-144584983D01*
X116378000Y-144213017D01*
X116264551Y-143939126D01*
X117710000Y-143939126D01*
X117710000Y-144350874D01*
X117867569Y-144731280D01*
X118158720Y-145022431D01*
X118539126Y-145180000D01*
X118950874Y-145180000D01*
X119331280Y-145022431D01*
X119622431Y-144731280D01*
X119780000Y-144350874D01*
X119780000Y-143939126D01*
X119622431Y-143558720D01*
X119331280Y-143267569D01*
X118950874Y-143110000D01*
X118539126Y-143110000D01*
X118158720Y-143267569D01*
X117867569Y-143558720D01*
X117710000Y-143939126D01*
X116264551Y-143939126D01*
X116235655Y-143869365D01*
X115972635Y-143606345D01*
X115628983Y-143464000D01*
X115257017Y-143464000D01*
X114913365Y-143606345D01*
X114650345Y-143869365D01*
X114508000Y-144213017D01*
X86025000Y-144213017D01*
X86025000Y-143959017D01*
X85882655Y-143615365D01*
X85619635Y-143352345D01*
X85275983Y-143210000D01*
X84904017Y-143210000D01*
X84560365Y-143352345D01*
X84297345Y-143615365D01*
X84155000Y-143959017D01*
X75084777Y-143959017D01*
X75174092Y-143510000D01*
X75058839Y-142930582D01*
X75057000Y-142927830D01*
X75057000Y-142669126D01*
X92310000Y-142669126D01*
X92310000Y-143080874D01*
X92467569Y-143461280D01*
X92758720Y-143752431D01*
X93139126Y-143910000D01*
X93550874Y-143910000D01*
X93931280Y-143752431D01*
X94222431Y-143461280D01*
X94380000Y-143080874D01*
X94380000Y-142669126D01*
X94222431Y-142288720D01*
X93931280Y-141997569D01*
X93550874Y-141840000D01*
X93139126Y-141840000D01*
X92758720Y-141997569D01*
X92467569Y-142288720D01*
X92310000Y-142669126D01*
X75057000Y-142669126D01*
X75057000Y-141552170D01*
X75058839Y-141549418D01*
X75088735Y-141399118D01*
X83420000Y-141399118D01*
X83420000Y-141810866D01*
X83577569Y-142191272D01*
X83868720Y-142482423D01*
X84249126Y-142639992D01*
X84660874Y-142639992D01*
X85041280Y-142482423D01*
X85332431Y-142191272D01*
X85490000Y-141810866D01*
X85490000Y-141399126D01*
X117710000Y-141399126D01*
X117710000Y-141810874D01*
X117867569Y-142191280D01*
X118158720Y-142482431D01*
X118539126Y-142640000D01*
X118950874Y-142640000D01*
X119331280Y-142482431D01*
X119622431Y-142191280D01*
X119780000Y-141810874D01*
X119780000Y-141569017D01*
X120835000Y-141569017D01*
X120835000Y-141940983D01*
X120977345Y-142284635D01*
X121240365Y-142547655D01*
X121584017Y-142690000D01*
X121955983Y-142690000D01*
X122299635Y-142547655D01*
X122562655Y-142284635D01*
X122705000Y-141940983D01*
X122705000Y-141569017D01*
X122562655Y-141225365D01*
X122299635Y-140962345D01*
X121955983Y-140820000D01*
X121584017Y-140820000D01*
X121240365Y-140962345D01*
X120977345Y-141225365D01*
X120835000Y-141569017D01*
X119780000Y-141569017D01*
X119780000Y-141399126D01*
X119622431Y-141018720D01*
X119331280Y-140727569D01*
X118950874Y-140570000D01*
X118539126Y-140570000D01*
X118158720Y-140727569D01*
X117867569Y-141018720D01*
X117710000Y-141399126D01*
X85490000Y-141399126D01*
X85490000Y-141399118D01*
X85332431Y-141018712D01*
X85041280Y-140727561D01*
X84660874Y-140569992D01*
X84249126Y-140569992D01*
X83868720Y-140727561D01*
X83577569Y-141018712D01*
X83420000Y-141399118D01*
X75088735Y-141399118D01*
X75174092Y-140970000D01*
X75058839Y-140390582D01*
X75057000Y-140387830D01*
X75057000Y-139012170D01*
X75058839Y-139009418D01*
X75174092Y-138430000D01*
X75073944Y-137926517D01*
X91648002Y-137926517D01*
X91648002Y-138298483D01*
X91790347Y-138642135D01*
X92053367Y-138905155D01*
X92397019Y-139047500D01*
X92768985Y-139047500D01*
X93112637Y-138905155D01*
X93375657Y-138642135D01*
X93518002Y-138298483D01*
X93518002Y-137926517D01*
X93375657Y-137582865D01*
X93112637Y-137319845D01*
X92768985Y-137177500D01*
X92397019Y-137177500D01*
X92053367Y-137319845D01*
X91790347Y-137582865D01*
X91648002Y-137926517D01*
X75073944Y-137926517D01*
X75058839Y-137850582D01*
X75057000Y-137847830D01*
X75057000Y-136838017D01*
X109419000Y-136838017D01*
X109419000Y-137209983D01*
X109561345Y-137553635D01*
X109824365Y-137816655D01*
X110168017Y-137959000D01*
X110539983Y-137959000D01*
X110883635Y-137816655D01*
X111146655Y-137553635D01*
X111289000Y-137209983D01*
X111289000Y-136838017D01*
X111146655Y-136494365D01*
X110883635Y-136231345D01*
X110539983Y-136089000D01*
X110168017Y-136089000D01*
X109824365Y-136231345D01*
X109561345Y-136494365D01*
X109419000Y-136838017D01*
X75057000Y-136838017D01*
X75057000Y-136472170D01*
X75058839Y-136469418D01*
X75174092Y-135890000D01*
X75058839Y-135310582D01*
X75057000Y-135307830D01*
X75057000Y-133932170D01*
X75058839Y-133929418D01*
X75084777Y-133799016D01*
X85298000Y-133799016D01*
X85298000Y-134170982D01*
X85440345Y-134514634D01*
X85703365Y-134777654D01*
X86047017Y-134919999D01*
X86418983Y-134919999D01*
X86762635Y-134777654D01*
X87025655Y-134514634D01*
X87168000Y-134170982D01*
X87168000Y-133799017D01*
X88854000Y-133799017D01*
X88854000Y-134170983D01*
X88996345Y-134514635D01*
X89259365Y-134777655D01*
X89603017Y-134920000D01*
X89974983Y-134920000D01*
X90318635Y-134777655D01*
X90512273Y-134584017D01*
X90655000Y-134584017D01*
X90655000Y-134955983D01*
X90797345Y-135299635D01*
X91060365Y-135562655D01*
X91404017Y-135705000D01*
X91775983Y-135705000D01*
X92119635Y-135562655D01*
X92382655Y-135299635D01*
X92478179Y-135069017D01*
X98125000Y-135069017D01*
X98125000Y-135440983D01*
X98267345Y-135784635D01*
X98530365Y-136047655D01*
X98874017Y-136190000D01*
X99245983Y-136190000D01*
X99589635Y-136047655D01*
X99852655Y-135784635D01*
X99995000Y-135440983D01*
X99995000Y-135069017D01*
X99852655Y-134725365D01*
X99589635Y-134462345D01*
X99245983Y-134320000D01*
X98874017Y-134320000D01*
X98530365Y-134462345D01*
X98267345Y-134725365D01*
X98125000Y-135069017D01*
X92478179Y-135069017D01*
X92525000Y-134955983D01*
X92525000Y-134584017D01*
X92382655Y-134240365D01*
X92119635Y-133977345D01*
X91775983Y-133835000D01*
X91404017Y-133835000D01*
X91060365Y-133977345D01*
X90797345Y-134240365D01*
X90655000Y-134584017D01*
X90512273Y-134584017D01*
X90581655Y-134514635D01*
X90724000Y-134170983D01*
X90724000Y-133799017D01*
X90581655Y-133455365D01*
X90318635Y-133192345D01*
X89974983Y-133050000D01*
X89603017Y-133050000D01*
X89259365Y-133192345D01*
X88996345Y-133455365D01*
X88854000Y-133799017D01*
X87168000Y-133799017D01*
X87168000Y-133799016D01*
X87025655Y-133455364D01*
X86762635Y-133192344D01*
X86418983Y-133049999D01*
X86047017Y-133049999D01*
X85703365Y-133192344D01*
X85440345Y-133455364D01*
X85298000Y-133799016D01*
X75084777Y-133799016D01*
X75174092Y-133350000D01*
X75058839Y-132770582D01*
X75057000Y-132767830D01*
X75057000Y-132579817D01*
X100614200Y-132579817D01*
X100614200Y-132951783D01*
X100756545Y-133295435D01*
X101019565Y-133558455D01*
X101363217Y-133700800D01*
X101735183Y-133700800D01*
X102078835Y-133558455D01*
X102341855Y-133295435D01*
X102484200Y-132951783D01*
X102484200Y-132579817D01*
X102341855Y-132236165D01*
X102078835Y-131973145D01*
X101735183Y-131830800D01*
X101363217Y-131830800D01*
X101019565Y-131973145D01*
X100756545Y-132236165D01*
X100614200Y-132579817D01*
X75057000Y-132579817D01*
X75057000Y-131392170D01*
X75058839Y-131389418D01*
X75174092Y-130810000D01*
X75172465Y-130801817D01*
X79481402Y-130801817D01*
X79481402Y-131173783D01*
X79623747Y-131517435D01*
X79886767Y-131780455D01*
X80230419Y-131922800D01*
X80602385Y-131922800D01*
X80946037Y-131780455D01*
X81209057Y-131517435D01*
X81351402Y-131173783D01*
X81351402Y-130801817D01*
X81277755Y-130624017D01*
X85298000Y-130624017D01*
X85298000Y-130995983D01*
X85440345Y-131339635D01*
X85703365Y-131602655D01*
X86047017Y-131745000D01*
X86418983Y-131745000D01*
X86762635Y-131602655D01*
X87025655Y-131339635D01*
X87168000Y-130995983D01*
X87168000Y-130624017D01*
X88854000Y-130624017D01*
X88854000Y-130995983D01*
X88996345Y-131339635D01*
X89259365Y-131602655D01*
X89603017Y-131745000D01*
X89974983Y-131745000D01*
X90318635Y-131602655D01*
X90581655Y-131339635D01*
X90724000Y-130995983D01*
X90724000Y-130624017D01*
X90581655Y-130280365D01*
X90318635Y-130017345D01*
X89974983Y-129875000D01*
X89603017Y-129875000D01*
X89259365Y-130017345D01*
X88996345Y-130280365D01*
X88854000Y-130624017D01*
X87168000Y-130624017D01*
X87025655Y-130280365D01*
X86762635Y-130017345D01*
X86418983Y-129875000D01*
X86047017Y-129875000D01*
X85703365Y-130017345D01*
X85440345Y-130280365D01*
X85298000Y-130624017D01*
X81277755Y-130624017D01*
X81209057Y-130458165D01*
X80946037Y-130195145D01*
X80602385Y-130052800D01*
X80230419Y-130052800D01*
X79886767Y-130195145D01*
X79623747Y-130458165D01*
X79481402Y-130801817D01*
X75172465Y-130801817D01*
X75058839Y-130230582D01*
X75057000Y-130227830D01*
X75057000Y-128852170D01*
X75058839Y-128849418D01*
X75079724Y-128744417D01*
X77601800Y-128744417D01*
X77601800Y-129116383D01*
X77744145Y-129460035D01*
X78007165Y-129723055D01*
X78350817Y-129865400D01*
X78722783Y-129865400D01*
X79066435Y-129723055D01*
X79329455Y-129460035D01*
X79471800Y-129116383D01*
X79471800Y-128744417D01*
X79329455Y-128400765D01*
X79198690Y-128270000D01*
X124215908Y-128270000D01*
X124331161Y-128849418D01*
X124659375Y-129340625D01*
X125150582Y-129668839D01*
X125583744Y-129755000D01*
X125876256Y-129755000D01*
X126309418Y-129668839D01*
X126800625Y-129340625D01*
X127128839Y-128849418D01*
X127244092Y-128270000D01*
X127128839Y-127690582D01*
X126800625Y-127199375D01*
X126782381Y-127187184D01*
X126827765Y-127178157D01*
X127037809Y-127037809D01*
X127178157Y-126827765D01*
X127227440Y-126580000D01*
X127227440Y-124880000D01*
X127178157Y-124632235D01*
X127037809Y-124422191D01*
X126827765Y-124281843D01*
X126580000Y-124232560D01*
X124880000Y-124232560D01*
X124632235Y-124281843D01*
X124422191Y-124422191D01*
X124281843Y-124632235D01*
X124232560Y-124880000D01*
X124232560Y-126580000D01*
X124281843Y-126827765D01*
X124422191Y-127037809D01*
X124632235Y-127178157D01*
X124677619Y-127187184D01*
X124659375Y-127199375D01*
X124331161Y-127690582D01*
X124215908Y-128270000D01*
X79198690Y-128270000D01*
X79066435Y-128137745D01*
X78722783Y-127995400D01*
X78350817Y-127995400D01*
X78007165Y-128137745D01*
X77744145Y-128400765D01*
X77601800Y-128744417D01*
X75079724Y-128744417D01*
X75174092Y-128270000D01*
X75058839Y-127690582D01*
X75057000Y-127687830D01*
X75057000Y-126312170D01*
X75058839Y-126309418D01*
X75174092Y-125730000D01*
X75058839Y-125150582D01*
X75057000Y-125147830D01*
X75057000Y-123772170D01*
X75058839Y-123769418D01*
X75174092Y-123190000D01*
X75058839Y-122610582D01*
X75057000Y-122607830D01*
X75057000Y-122394417D01*
X79481400Y-122394417D01*
X79481400Y-122766383D01*
X79623745Y-123110035D01*
X79886765Y-123373055D01*
X80230417Y-123515400D01*
X80602383Y-123515400D01*
X80946035Y-123373055D01*
X81209055Y-123110035D01*
X81351400Y-122766383D01*
X81351400Y-122394417D01*
X81298860Y-122267572D01*
X88805000Y-122267572D01*
X88805000Y-122842428D01*
X89024988Y-123373527D01*
X89431473Y-123780012D01*
X89962572Y-124000000D01*
X90537428Y-124000000D01*
X91068527Y-123780012D01*
X91475012Y-123373527D01*
X91695000Y-122842428D01*
X91695000Y-122267572D01*
X93805000Y-122267572D01*
X93805000Y-122842428D01*
X94024988Y-123373527D01*
X94431473Y-123780012D01*
X94962572Y-124000000D01*
X95537428Y-124000000D01*
X96068527Y-123780012D01*
X96475012Y-123373527D01*
X96695000Y-122842428D01*
X96695000Y-122267572D01*
X106585000Y-122267572D01*
X106585000Y-122842428D01*
X106804988Y-123373527D01*
X107211473Y-123780012D01*
X107742572Y-124000000D01*
X108317428Y-124000000D01*
X108848527Y-123780012D01*
X109255012Y-123373527D01*
X109475000Y-122842428D01*
X109475000Y-122267572D01*
X111585000Y-122267572D01*
X111585000Y-122842428D01*
X111804988Y-123373527D01*
X112211473Y-123780012D01*
X112742572Y-124000000D01*
X113317428Y-124000000D01*
X113848527Y-123780012D01*
X114255012Y-123373527D01*
X114475000Y-122842428D01*
X114475000Y-122267572D01*
X114255012Y-121736473D01*
X113848527Y-121329988D01*
X113317428Y-121110000D01*
X112742572Y-121110000D01*
X112211473Y-121329988D01*
X111804988Y-121736473D01*
X111585000Y-122267572D01*
X109475000Y-122267572D01*
X109255012Y-121736473D01*
X108848527Y-121329988D01*
X108317428Y-121110000D01*
X107742572Y-121110000D01*
X107211473Y-121329988D01*
X106804988Y-121736473D01*
X106585000Y-122267572D01*
X96695000Y-122267572D01*
X96475012Y-121736473D01*
X96068527Y-121329988D01*
X95537428Y-121110000D01*
X94962572Y-121110000D01*
X94431473Y-121329988D01*
X94024988Y-121736473D01*
X93805000Y-122267572D01*
X91695000Y-122267572D01*
X91475012Y-121736473D01*
X91068527Y-121329988D01*
X90537428Y-121110000D01*
X89962572Y-121110000D01*
X89431473Y-121329988D01*
X89024988Y-121736473D01*
X88805000Y-122267572D01*
X81298860Y-122267572D01*
X81209055Y-122050765D01*
X80946035Y-121787745D01*
X80602383Y-121645400D01*
X80230417Y-121645400D01*
X79886765Y-121787745D01*
X79623745Y-122050765D01*
X79481400Y-122394417D01*
X75057000Y-122394417D01*
X75057000Y-121232170D01*
X75058839Y-121229418D01*
X75174092Y-120650000D01*
X75096679Y-120260817D01*
X77601800Y-120260817D01*
X77601800Y-120632783D01*
X77744145Y-120976435D01*
X78007165Y-121239455D01*
X78350817Y-121381800D01*
X78722783Y-121381800D01*
X79066435Y-121239455D01*
X79329455Y-120976435D01*
X79471800Y-120632783D01*
X79471800Y-120260817D01*
X79329455Y-119917165D01*
X79066435Y-119654145D01*
X78722783Y-119511800D01*
X78350817Y-119511800D01*
X78007165Y-119654145D01*
X77744145Y-119917165D01*
X77601800Y-120260817D01*
X75096679Y-120260817D01*
X75058839Y-120070582D01*
X75057000Y-120067830D01*
X75057000Y-118692170D01*
X75058839Y-118689418D01*
X75174092Y-118110000D01*
X75058839Y-117530582D01*
X75057000Y-117527830D01*
X75057000Y-117267572D01*
X91305000Y-117267572D01*
X91305000Y-117842428D01*
X91524988Y-118373527D01*
X91931473Y-118780012D01*
X92462572Y-119000000D01*
X93037428Y-119000000D01*
X93568527Y-118780012D01*
X93975012Y-118373527D01*
X94195000Y-117842428D01*
X94195000Y-117289017D01*
X96220000Y-117289017D01*
X96220000Y-117660983D01*
X96362345Y-118004635D01*
X96625365Y-118267655D01*
X96969017Y-118410000D01*
X97340983Y-118410000D01*
X97684635Y-118267655D01*
X97947655Y-118004635D01*
X98090000Y-117660983D01*
X98090000Y-117289017D01*
X98081118Y-117267572D01*
X109085000Y-117267572D01*
X109085000Y-117842428D01*
X109304988Y-118373527D01*
X109711473Y-118780012D01*
X110242572Y-119000000D01*
X110817428Y-119000000D01*
X111348527Y-118780012D01*
X111755012Y-118373527D01*
X111975000Y-117842428D01*
X111975000Y-117267572D01*
X111755012Y-116736473D01*
X111348527Y-116329988D01*
X110817428Y-116110000D01*
X110242572Y-116110000D01*
X109711473Y-116329988D01*
X109304988Y-116736473D01*
X109085000Y-117267572D01*
X98081118Y-117267572D01*
X97947655Y-116945365D01*
X97684635Y-116682345D01*
X97340983Y-116540000D01*
X96969017Y-116540000D01*
X96625365Y-116682345D01*
X96362345Y-116945365D01*
X96220000Y-117289017D01*
X94195000Y-117289017D01*
X94195000Y-117267572D01*
X93975012Y-116736473D01*
X93568527Y-116329988D01*
X93037428Y-116110000D01*
X92462572Y-116110000D01*
X91931473Y-116329988D01*
X91524988Y-116736473D01*
X91305000Y-117267572D01*
X75057000Y-117267572D01*
X75057000Y-116152170D01*
X75058839Y-116149418D01*
X75174092Y-115570000D01*
X75058839Y-114990582D01*
X75057000Y-114987830D01*
X75057000Y-113612170D01*
X75058839Y-113609418D01*
X75174092Y-113030000D01*
X75058839Y-112450582D01*
X75057000Y-112447830D01*
X75057000Y-111072170D01*
X75058839Y-111069418D01*
X75174092Y-110490000D01*
X75133142Y-110284126D01*
X90405000Y-110284126D01*
X90405000Y-110695874D01*
X90562569Y-111076280D01*
X90853720Y-111367431D01*
X91234126Y-111525000D01*
X91645874Y-111525000D01*
X92026280Y-111367431D01*
X92317431Y-111076280D01*
X92475000Y-110695874D01*
X92475000Y-110284126D01*
X92317431Y-109903720D01*
X92026280Y-109612569D01*
X91645874Y-109455000D01*
X91234126Y-109455000D01*
X90853720Y-109612569D01*
X90562569Y-109903720D01*
X90405000Y-110284126D01*
X75133142Y-110284126D01*
X75058839Y-109910582D01*
X75057000Y-109907830D01*
X75057000Y-108549017D01*
X103355000Y-108549017D01*
X103355000Y-108920983D01*
X103497345Y-109264635D01*
X103760365Y-109527655D01*
X104104017Y-109670000D01*
X104475983Y-109670000D01*
X104478356Y-109669017D01*
X105745000Y-109669017D01*
X105745000Y-110040983D01*
X105887345Y-110384635D01*
X105992710Y-110490000D01*
X105887345Y-110595365D01*
X105745000Y-110939017D01*
X105745000Y-111310983D01*
X105887345Y-111654635D01*
X106150365Y-111917655D01*
X106494017Y-112060000D01*
X106865983Y-112060000D01*
X107209635Y-111917655D01*
X107472655Y-111654635D01*
X107615000Y-111310983D01*
X107615000Y-110939017D01*
X107472655Y-110595365D01*
X107367290Y-110490000D01*
X107472655Y-110384635D01*
X107514287Y-110284126D01*
X117075000Y-110284126D01*
X117075000Y-110695874D01*
X117232569Y-111076280D01*
X117523720Y-111367431D01*
X117904126Y-111525000D01*
X118315874Y-111525000D01*
X118696280Y-111367431D01*
X118987431Y-111076280D01*
X119145000Y-110695874D01*
X119145000Y-110284126D01*
X118987431Y-109903720D01*
X118696280Y-109612569D01*
X118315874Y-109455000D01*
X117904126Y-109455000D01*
X117523720Y-109612569D01*
X117232569Y-109903720D01*
X117075000Y-110284126D01*
X107514287Y-110284126D01*
X107615000Y-110040983D01*
X107615000Y-109669017D01*
X107472655Y-109325365D01*
X107209635Y-109062345D01*
X106865983Y-108920000D01*
X106494017Y-108920000D01*
X106150365Y-109062345D01*
X105887345Y-109325365D01*
X105745000Y-109669017D01*
X104478356Y-109669017D01*
X104819635Y-109527655D01*
X105082655Y-109264635D01*
X105225000Y-108920983D01*
X105225000Y-108549017D01*
X105154630Y-108379126D01*
X119615000Y-108379126D01*
X119615000Y-108790874D01*
X119772569Y-109171280D01*
X120063720Y-109462431D01*
X120444126Y-109620000D01*
X120855874Y-109620000D01*
X121236280Y-109462431D01*
X121527431Y-109171280D01*
X121685000Y-108790874D01*
X121685000Y-108379126D01*
X125330000Y-108379126D01*
X125330000Y-108790874D01*
X125487569Y-109171280D01*
X125778720Y-109462431D01*
X126159126Y-109620000D01*
X126570874Y-109620000D01*
X126951280Y-109462431D01*
X127242431Y-109171280D01*
X127400000Y-108790874D01*
X127400000Y-108379126D01*
X127242431Y-107998720D01*
X126951280Y-107707569D01*
X126570874Y-107550000D01*
X126159126Y-107550000D01*
X125778720Y-107707569D01*
X125487569Y-107998720D01*
X125330000Y-108379126D01*
X121685000Y-108379126D01*
X121527431Y-107998720D01*
X121236280Y-107707569D01*
X120855874Y-107550000D01*
X120444126Y-107550000D01*
X120063720Y-107707569D01*
X119772569Y-107998720D01*
X119615000Y-108379126D01*
X105154630Y-108379126D01*
X105082655Y-108205365D01*
X104819635Y-107942345D01*
X104475983Y-107800000D01*
X104104017Y-107800000D01*
X103760365Y-107942345D01*
X103497345Y-108205365D01*
X103355000Y-108549017D01*
X75057000Y-108549017D01*
X75057000Y-108532170D01*
X75058839Y-108529418D01*
X75174092Y-107950000D01*
X75058839Y-107370582D01*
X75057000Y-107367830D01*
X75057000Y-105992170D01*
X75058839Y-105989418D01*
X75174092Y-105410000D01*
X75116889Y-105122417D01*
X101325400Y-105122417D01*
X101325400Y-105494383D01*
X101467745Y-105838035D01*
X101730765Y-106101055D01*
X102074417Y-106243400D01*
X102446383Y-106243400D01*
X102790035Y-106101055D01*
X103053055Y-105838035D01*
X103195400Y-105494383D01*
X103195400Y-105122417D01*
X105033800Y-105122417D01*
X105033800Y-105494383D01*
X105176145Y-105838035D01*
X105439165Y-106101055D01*
X105782817Y-106243400D01*
X106154783Y-106243400D01*
X106498435Y-106101055D01*
X106761455Y-105838035D01*
X106903800Y-105494383D01*
X106903800Y-105122417D01*
X106761455Y-104778765D01*
X106498435Y-104515745D01*
X106154783Y-104373400D01*
X105782817Y-104373400D01*
X105439165Y-104515745D01*
X105176145Y-104778765D01*
X105033800Y-105122417D01*
X103195400Y-105122417D01*
X103053055Y-104778765D01*
X102790035Y-104515745D01*
X102446383Y-104373400D01*
X102074417Y-104373400D01*
X101730765Y-104515745D01*
X101467745Y-104778765D01*
X101325400Y-105122417D01*
X75116889Y-105122417D01*
X75058839Y-104830582D01*
X75057000Y-104827830D01*
X75057000Y-103452170D01*
X75058839Y-103449418D01*
X75174092Y-102870000D01*
X75058839Y-102290582D01*
X75057000Y-102287830D01*
X75057000Y-100912170D01*
X75058839Y-100909418D01*
X75139088Y-100505975D01*
X78915000Y-100505975D01*
X78915000Y-101594025D01*
X79331379Y-102599253D01*
X80100747Y-103368621D01*
X81105975Y-103785000D01*
X82194025Y-103785000D01*
X83199253Y-103368621D01*
X83968621Y-102599253D01*
X84385000Y-101594025D01*
X84385000Y-100505975D01*
X83968621Y-99500747D01*
X83752874Y-99285000D01*
X84205330Y-99285000D01*
X84769507Y-99051310D01*
X85150000Y-98670817D01*
X85530493Y-99051310D01*
X86094670Y-99285000D01*
X86705330Y-99285000D01*
X87269507Y-99051310D01*
X87650000Y-98670817D01*
X88030493Y-99051310D01*
X88594670Y-99285000D01*
X89047126Y-99285000D01*
X88831379Y-99500747D01*
X88415000Y-100505975D01*
X88415000Y-101594025D01*
X88831379Y-102599253D01*
X89600747Y-103368621D01*
X90605975Y-103785000D01*
X91694025Y-103785000D01*
X92699253Y-103368621D01*
X93468621Y-102599253D01*
X93517679Y-102480815D01*
X97591600Y-102480815D01*
X97591600Y-102852781D01*
X97733945Y-103196433D01*
X97996965Y-103459453D01*
X98340617Y-103601798D01*
X98712583Y-103601798D01*
X99013994Y-103476950D01*
X99013994Y-103767183D01*
X99156339Y-104110835D01*
X99419359Y-104373855D01*
X99763011Y-104516200D01*
X100134977Y-104516200D01*
X100478629Y-104373855D01*
X100741649Y-104110835D01*
X100883994Y-103767183D01*
X100883994Y-103395217D01*
X100741649Y-103051565D01*
X100478629Y-102788545D01*
X100134977Y-102646200D01*
X99763011Y-102646200D01*
X99461600Y-102771048D01*
X99461600Y-102480815D01*
X99319255Y-102137163D01*
X99056235Y-101874143D01*
X98712583Y-101731798D01*
X98340617Y-101731798D01*
X97996965Y-101874143D01*
X97733945Y-102137163D01*
X97591600Y-102480815D01*
X93517679Y-102480815D01*
X93885000Y-101594025D01*
X93885000Y-100505975D01*
X93871846Y-100474217D01*
X95178600Y-100474217D01*
X95178600Y-100846183D01*
X95320945Y-101189835D01*
X95583965Y-101452855D01*
X95927617Y-101595200D01*
X96299583Y-101595200D01*
X96583695Y-101477517D01*
X100109500Y-101477517D01*
X100109500Y-101849483D01*
X100251845Y-102193135D01*
X100514865Y-102456155D01*
X100858517Y-102598500D01*
X101230483Y-102598500D01*
X101544500Y-102468430D01*
X101858517Y-102598500D01*
X102230483Y-102598500D01*
X102544500Y-102468430D01*
X102858517Y-102598500D01*
X103230483Y-102598500D01*
X103574135Y-102456155D01*
X103837155Y-102193135D01*
X103979500Y-101849483D01*
X103979500Y-101477517D01*
X103837155Y-101133865D01*
X103574135Y-100870845D01*
X103230483Y-100728500D01*
X102858517Y-100728500D01*
X102544500Y-100858570D01*
X102230483Y-100728500D01*
X101858517Y-100728500D01*
X101544500Y-100858570D01*
X101230483Y-100728500D01*
X100858517Y-100728500D01*
X100514865Y-100870845D01*
X100251845Y-101133865D01*
X100109500Y-101477517D01*
X96583695Y-101477517D01*
X96643235Y-101452855D01*
X96906255Y-101189835D01*
X97048600Y-100846183D01*
X97048600Y-100474217D01*
X96906255Y-100130565D01*
X96643235Y-99867545D01*
X96299583Y-99725200D01*
X95927617Y-99725200D01*
X95583965Y-99867545D01*
X95320945Y-100130565D01*
X95178600Y-100474217D01*
X93871846Y-100474217D01*
X93477308Y-99521717D01*
X100030000Y-99521717D01*
X100030000Y-99893683D01*
X100172345Y-100237335D01*
X100435365Y-100500355D01*
X100779017Y-100642700D01*
X101150983Y-100642700D01*
X101481067Y-100505975D01*
X109395000Y-100505975D01*
X109395000Y-101594025D01*
X109811379Y-102599253D01*
X110580747Y-103368621D01*
X111585975Y-103785000D01*
X112674025Y-103785000D01*
X113679253Y-103368621D01*
X114448621Y-102599253D01*
X114865000Y-101594025D01*
X114865000Y-100505975D01*
X114448621Y-99500747D01*
X114232874Y-99285000D01*
X114685330Y-99285000D01*
X115249507Y-99051310D01*
X115630000Y-98670817D01*
X116010493Y-99051310D01*
X116574670Y-99285000D01*
X117185330Y-99285000D01*
X117749507Y-99051310D01*
X118130000Y-98670817D01*
X118510493Y-99051310D01*
X119074670Y-99285000D01*
X119527126Y-99285000D01*
X119311379Y-99500747D01*
X118895000Y-100505975D01*
X118895000Y-101594025D01*
X119311379Y-102599253D01*
X120080747Y-103368621D01*
X121085975Y-103785000D01*
X122174025Y-103785000D01*
X123179253Y-103368621D01*
X123948621Y-102599253D01*
X124365000Y-101594025D01*
X124365000Y-101414017D01*
X124795000Y-101414017D01*
X124795000Y-101785983D01*
X124937345Y-102129635D01*
X125200365Y-102392655D01*
X125544017Y-102535000D01*
X125915983Y-102535000D01*
X126259635Y-102392655D01*
X126522655Y-102129635D01*
X126665000Y-101785983D01*
X126665000Y-101414017D01*
X126522655Y-101070365D01*
X126259635Y-100807345D01*
X125915983Y-100665000D01*
X125544017Y-100665000D01*
X125200365Y-100807345D01*
X124937345Y-101070365D01*
X124795000Y-101414017D01*
X124365000Y-101414017D01*
X124365000Y-100505975D01*
X123948621Y-99500747D01*
X123179253Y-98731379D01*
X122174025Y-98315000D01*
X121085975Y-98315000D01*
X120749755Y-98454267D01*
X120915000Y-98055330D01*
X120915000Y-97444670D01*
X120681310Y-96880493D01*
X120300817Y-96500000D01*
X120681310Y-96119507D01*
X120915000Y-95555330D01*
X120915000Y-94944670D01*
X120681310Y-94380493D01*
X120249507Y-93948690D01*
X119685330Y-93715000D01*
X119074670Y-93715000D01*
X118510493Y-93948690D01*
X118130000Y-94329183D01*
X117749507Y-93948690D01*
X117185330Y-93715000D01*
X116574670Y-93715000D01*
X116010493Y-93948690D01*
X115630000Y-94329183D01*
X115249507Y-93948690D01*
X114685330Y-93715000D01*
X114074670Y-93715000D01*
X113510493Y-93948690D01*
X113078690Y-94380493D01*
X112845000Y-94944670D01*
X112845000Y-95555330D01*
X113078690Y-96119507D01*
X113459183Y-96500000D01*
X113078690Y-96880493D01*
X112845000Y-97444670D01*
X112845000Y-98055330D01*
X113010245Y-98454267D01*
X112674025Y-98315000D01*
X111585975Y-98315000D01*
X110580747Y-98731379D01*
X109811379Y-99500747D01*
X109395000Y-100505975D01*
X101481067Y-100505975D01*
X101494635Y-100500355D01*
X101757655Y-100237335D01*
X101900000Y-99893683D01*
X101900000Y-99521717D01*
X101757655Y-99178065D01*
X101494635Y-98915045D01*
X101150983Y-98772700D01*
X100779017Y-98772700D01*
X100435365Y-98915045D01*
X100172345Y-99178065D01*
X100030000Y-99521717D01*
X93477308Y-99521717D01*
X93468621Y-99500747D01*
X92699253Y-98731379D01*
X91694025Y-98315000D01*
X90605975Y-98315000D01*
X90269755Y-98454267D01*
X90435000Y-98055330D01*
X90435000Y-97444670D01*
X90427357Y-97426217D01*
X99090200Y-97426217D01*
X99090200Y-97798183D01*
X99232545Y-98141835D01*
X99495565Y-98404855D01*
X99839217Y-98547200D01*
X100211183Y-98547200D01*
X100554835Y-98404855D01*
X100817855Y-98141835D01*
X100960200Y-97798183D01*
X100960200Y-97426217D01*
X102125500Y-97426217D01*
X102125500Y-97798183D01*
X102267845Y-98141835D01*
X102530865Y-98404855D01*
X102874517Y-98547200D01*
X103246483Y-98547200D01*
X103590135Y-98404855D01*
X103853155Y-98141835D01*
X103995500Y-97798183D01*
X103995500Y-97426217D01*
X103853155Y-97082565D01*
X103590135Y-96819545D01*
X103246483Y-96677200D01*
X102874517Y-96677200D01*
X102530865Y-96819545D01*
X102267845Y-97082565D01*
X102125500Y-97426217D01*
X100960200Y-97426217D01*
X100817855Y-97082565D01*
X100554835Y-96819545D01*
X100211183Y-96677200D01*
X99839217Y-96677200D01*
X99495565Y-96819545D01*
X99232545Y-97082565D01*
X99090200Y-97426217D01*
X90427357Y-97426217D01*
X90201310Y-96880493D01*
X89820817Y-96500000D01*
X90201310Y-96119507D01*
X90435000Y-95555330D01*
X90435000Y-94944670D01*
X90201310Y-94380493D01*
X89769507Y-93948690D01*
X89205330Y-93715000D01*
X88594670Y-93715000D01*
X88030493Y-93948690D01*
X87650000Y-94329183D01*
X87269507Y-93948690D01*
X86705330Y-93715000D01*
X86094670Y-93715000D01*
X85530493Y-93948690D01*
X85150000Y-94329183D01*
X84769507Y-93948690D01*
X84205330Y-93715000D01*
X83594670Y-93715000D01*
X83030493Y-93948690D01*
X82598690Y-94380493D01*
X82365000Y-94944670D01*
X82365000Y-95555330D01*
X82598690Y-96119507D01*
X82979183Y-96500000D01*
X82598690Y-96880493D01*
X82365000Y-97444670D01*
X82365000Y-98055330D01*
X82530245Y-98454267D01*
X82194025Y-98315000D01*
X81105975Y-98315000D01*
X80100747Y-98731379D01*
X79331379Y-99500747D01*
X78915000Y-100505975D01*
X75139088Y-100505975D01*
X75174092Y-100330000D01*
X75058839Y-99750582D01*
X75057000Y-99747830D01*
X75057000Y-98372170D01*
X75058839Y-98369418D01*
X75174092Y-97790000D01*
X75058839Y-97210582D01*
X75057000Y-97207830D01*
X75057000Y-95832170D01*
X75058839Y-95829418D01*
X75174092Y-95250000D01*
X75058839Y-94670582D01*
X75057000Y-94667830D01*
X75057000Y-93292170D01*
X75058839Y-93289418D01*
X75174092Y-92710000D01*
X75058839Y-92130582D01*
X75057000Y-92127830D01*
X75057000Y-90752170D01*
X75058839Y-90749418D01*
X75174092Y-90170000D01*
X75058839Y-89590582D01*
X75057000Y-89587830D01*
X75057000Y-88212170D01*
X75058839Y-88209418D01*
X75174092Y-87630000D01*
X75058839Y-87050582D01*
X75057000Y-87047830D01*
X75057000Y-85825000D01*
X80134968Y-85825000D01*
X79511930Y-86448038D01*
X79511930Y-86448038D01*
G37*
X79511930Y-86448038D02*
X79126000Y-87379757D01*
X79126000Y-88388243D01*
X79511930Y-89319962D01*
X80225038Y-90033070D01*
X81156757Y-90419000D01*
X82165243Y-90419000D01*
X83096962Y-90033070D01*
X83810070Y-89319962D01*
X84196000Y-88388243D01*
X84196000Y-87379757D01*
X83810070Y-86448038D01*
X83187032Y-85825000D01*
X89659968Y-85825000D01*
X89036930Y-86448038D01*
X88651000Y-87379757D01*
X88651000Y-88388243D01*
X89036930Y-89319962D01*
X89750038Y-90033070D01*
X90681757Y-90419000D01*
X91690243Y-90419000D01*
X91800814Y-90373200D01*
X99095308Y-90373200D01*
X99210561Y-90952618D01*
X99538775Y-91443825D01*
X99557019Y-91456016D01*
X99511635Y-91465043D01*
X99301591Y-91605391D01*
X99161243Y-91815435D01*
X99111960Y-92063200D01*
X99111960Y-93763200D01*
X99161243Y-94010965D01*
X99301591Y-94221009D01*
X99511635Y-94361357D01*
X99759400Y-94410640D01*
X101459400Y-94410640D01*
X101707165Y-94361357D01*
X101917209Y-94221009D01*
X102057557Y-94010965D01*
X102066584Y-93965581D01*
X102078775Y-93983825D01*
X102569982Y-94312039D01*
X103003144Y-94398200D01*
X103295656Y-94398200D01*
X103728818Y-94312039D01*
X104220025Y-93983825D01*
X104548239Y-93492618D01*
X104663492Y-92913200D01*
X104548239Y-92333782D01*
X104220025Y-91842575D01*
X103921639Y-91643200D01*
X104220025Y-91443825D01*
X104548239Y-90952618D01*
X104663492Y-90373200D01*
X104548239Y-89793782D01*
X104220025Y-89302575D01*
X103728818Y-88974361D01*
X103295656Y-88888200D01*
X103003144Y-88888200D01*
X102569982Y-88974361D01*
X102078775Y-89302575D01*
X101879400Y-89600961D01*
X101680025Y-89302575D01*
X101188818Y-88974361D01*
X100755656Y-88888200D01*
X100463144Y-88888200D01*
X100029982Y-88974361D01*
X99538775Y-89302575D01*
X99210561Y-89793782D01*
X99095308Y-90373200D01*
X91800814Y-90373200D01*
X92621962Y-90033070D01*
X93335070Y-89319962D01*
X93721000Y-88388243D01*
X93721000Y-87379757D01*
X93335070Y-86448038D01*
X92712032Y-85825000D01*
X99135193Y-85825000D01*
X99111960Y-85941800D01*
X99111960Y-87641800D01*
X99161243Y-87889565D01*
X99301591Y-88099609D01*
X99511635Y-88239957D01*
X99759400Y-88289240D01*
X101459400Y-88289240D01*
X101707165Y-88239957D01*
X101917209Y-88099609D01*
X102057557Y-87889565D01*
X102066584Y-87844181D01*
X102078775Y-87862425D01*
X102569982Y-88190639D01*
X103003144Y-88276800D01*
X103295656Y-88276800D01*
X103728818Y-88190639D01*
X104220025Y-87862425D01*
X104548239Y-87371218D01*
X104663492Y-86791800D01*
X104548239Y-86212382D01*
X104289399Y-85825000D01*
X110603968Y-85825000D01*
X109980930Y-86448038D01*
X109595000Y-87379757D01*
X109595000Y-88388243D01*
X109980930Y-89319962D01*
X110694038Y-90033070D01*
X111625757Y-90419000D01*
X112634243Y-90419000D01*
X113565962Y-90033070D01*
X114279070Y-89319962D01*
X114665000Y-88388243D01*
X114665000Y-87379757D01*
X114279070Y-86448038D01*
X113656032Y-85825000D01*
X120139968Y-85825000D01*
X119516930Y-86448038D01*
X119131000Y-87379757D01*
X119131000Y-88388243D01*
X119516930Y-89319962D01*
X120230038Y-90033070D01*
X121161757Y-90419000D01*
X122170243Y-90419000D01*
X123101962Y-90033070D01*
X123815070Y-89319962D01*
X124201000Y-88388243D01*
X124201000Y-87379757D01*
X123815070Y-86448038D01*
X123192032Y-85825000D01*
X128143000Y-85825000D01*
X128143000Y-86455674D01*
X128091843Y-86532235D01*
X128042560Y-86780000D01*
X128042560Y-88480000D01*
X128091843Y-88727765D01*
X128143000Y-88804326D01*
X128143000Y-89587830D01*
X128141161Y-89590582D01*
X128025908Y-90170000D01*
X128141161Y-90749418D01*
X128143000Y-90752170D01*
X128143000Y-92127830D01*
X128141161Y-92130582D01*
X128025908Y-92710000D01*
X128141161Y-93289418D01*
X128143000Y-93292170D01*
X128143000Y-94667830D01*
X128141161Y-94670582D01*
X128025908Y-95250000D01*
X128141161Y-95829418D01*
X128143000Y-95832170D01*
X128143000Y-97207830D01*
X128141161Y-97210582D01*
X128025908Y-97790000D01*
X128141161Y-98369418D01*
X128143000Y-98372170D01*
X128143000Y-99747830D01*
X128141161Y-99750582D01*
X128025908Y-100330000D01*
X128141161Y-100909418D01*
X128143000Y-100912170D01*
X128143000Y-102287830D01*
X128141161Y-102290582D01*
X128025908Y-102870000D01*
X128141161Y-103449418D01*
X128143000Y-103452170D01*
X128143000Y-104827830D01*
X128141161Y-104830582D01*
X128025908Y-105410000D01*
X128141161Y-105989418D01*
X128143000Y-105992170D01*
X128143000Y-107367830D01*
X128141161Y-107370582D01*
X128025908Y-107950000D01*
X128141161Y-108529418D01*
X128143000Y-108532170D01*
X128143000Y-109907830D01*
X128141161Y-109910582D01*
X128025908Y-110490000D01*
X128141161Y-111069418D01*
X128143000Y-111072170D01*
X128143000Y-112447830D01*
X128141161Y-112450582D01*
X128025908Y-113030000D01*
X128141161Y-113609418D01*
X128143000Y-113612170D01*
X128143000Y-114987830D01*
X128141161Y-114990582D01*
X128025908Y-115570000D01*
X128141161Y-116149418D01*
X128143000Y-116152170D01*
X128143000Y-117527830D01*
X128141161Y-117530582D01*
X128025908Y-118110000D01*
X128141161Y-118689418D01*
X128143000Y-118692170D01*
X128143000Y-120067830D01*
X128141161Y-120070582D01*
X128025908Y-120650000D01*
X128141161Y-121229418D01*
X128143000Y-121232170D01*
X128143000Y-122607830D01*
X128141161Y-122610582D01*
X128025908Y-123190000D01*
X128141161Y-123769418D01*
X128143000Y-123772170D01*
X128143000Y-127687830D01*
X128141161Y-127690582D01*
X128025908Y-128270000D01*
X128141161Y-128849418D01*
X128143000Y-128852170D01*
X128143000Y-130227830D01*
X128141161Y-130230582D01*
X128025908Y-130810000D01*
X128141161Y-131389418D01*
X128143000Y-131392170D01*
X128143000Y-132767830D01*
X128141161Y-132770582D01*
X128025908Y-133350000D01*
X128141161Y-133929418D01*
X128143000Y-133932170D01*
X128143000Y-135307830D01*
X128141161Y-135310582D01*
X128025908Y-135890000D01*
X128141161Y-136469418D01*
X128143000Y-136472170D01*
X128143000Y-137847830D01*
X128141161Y-137850582D01*
X128025908Y-138430000D01*
X128141161Y-139009418D01*
X128143000Y-139012170D01*
X128143000Y-140387830D01*
X128141161Y-140390582D01*
X128025908Y-140970000D01*
X128141161Y-141549418D01*
X128143000Y-141552170D01*
X128143000Y-142927830D01*
X128141161Y-142930582D01*
X128025908Y-143510000D01*
X128141161Y-144089418D01*
X128143000Y-144092170D01*
X128143000Y-145467830D01*
X128141161Y-145470582D01*
X128025908Y-146050000D01*
X128141161Y-146629418D01*
X128143000Y-146632170D01*
X128143000Y-148007830D01*
X128141161Y-148010582D01*
X128025908Y-148590000D01*
X128141161Y-149169418D01*
X128143000Y-149172170D01*
X128143000Y-150547830D01*
X128141161Y-150550582D01*
X128025908Y-151130000D01*
X128141161Y-151709418D01*
X128143000Y-151712170D01*
X128143000Y-153087830D01*
X128141161Y-153090582D01*
X128025908Y-153670000D01*
X128141161Y-154249418D01*
X128143000Y-154252170D01*
X128143000Y-155627830D01*
X128141161Y-155630582D01*
X128025908Y-156210000D01*
X128141161Y-156789418D01*
X128143000Y-156792170D01*
X128143000Y-158167830D01*
X128141161Y-158170582D01*
X128025908Y-158750000D01*
X128141161Y-159329418D01*
X128143000Y-159332170D01*
X128143000Y-160707830D01*
X128141161Y-160710582D01*
X128025908Y-161290000D01*
X128141161Y-161869418D01*
X128143000Y-161872170D01*
X128143000Y-163247830D01*
X128141161Y-163250582D01*
X128025908Y-163830000D01*
X128141161Y-164409418D01*
X128143000Y-164412170D01*
X128143000Y-165787830D01*
X128141161Y-165790582D01*
X128025908Y-166370000D01*
X128141161Y-166949418D01*
X128143000Y-166952170D01*
X128143000Y-168327830D01*
X128141161Y-168330582D01*
X128025908Y-168910000D01*
X128141161Y-169489418D01*
X128143000Y-169492170D01*
X128143000Y-170867830D01*
X128141161Y-170870582D01*
X128025908Y-171450000D01*
X128141161Y-172029418D01*
X128143000Y-172032170D01*
X128143000Y-173407830D01*
X128141161Y-173410582D01*
X128025908Y-173990000D01*
X128141161Y-174569418D01*
X128143000Y-174572170D01*
X128143000Y-178335000D01*
X75057000Y-178335000D01*
X75057000Y-174835322D01*
X78155000Y-174835322D01*
X78155000Y-175684678D01*
X78480034Y-176469380D01*
X79080620Y-177069966D01*
X79865322Y-177395000D01*
X80714678Y-177395000D01*
X81499380Y-177069966D01*
X82099966Y-176469380D01*
X82425000Y-175684678D01*
X82425000Y-174835322D01*
X82099966Y-174050620D01*
X81809346Y-173760000D01*
X94372560Y-173760000D01*
X94372560Y-176760000D01*
X94421843Y-177007765D01*
X94562191Y-177217809D01*
X94772235Y-177358157D01*
X95020000Y-177407440D01*
X98020000Y-177407440D01*
X98267765Y-177358157D01*
X98477809Y-177217809D01*
X98618157Y-177007765D01*
X98667440Y-176760000D01*
X98667440Y-174835322D01*
X103555000Y-174835322D01*
X103555000Y-175684678D01*
X103880034Y-176469380D01*
X104480620Y-177069966D01*
X105265322Y-177395000D01*
X106114678Y-177395000D01*
X106899380Y-177069966D01*
X107499966Y-176469380D01*
X107825000Y-175684678D01*
X107825000Y-174835322D01*
X107499966Y-174050620D01*
X107209346Y-173760000D01*
X119772560Y-173760000D01*
X119772560Y-176760000D01*
X119821843Y-177007765D01*
X119962191Y-177217809D01*
X120172235Y-177358157D01*
X120420000Y-177407440D01*
X123420000Y-177407440D01*
X123667765Y-177358157D01*
X123877809Y-177217809D01*
X124018157Y-177007765D01*
X124067440Y-176760000D01*
X124067440Y-173760000D01*
X124018157Y-173512235D01*
X123877809Y-173302191D01*
X123667765Y-173161843D01*
X123420000Y-173112560D01*
X120420000Y-173112560D01*
X120172235Y-173161843D01*
X119962191Y-173302191D01*
X119821843Y-173512235D01*
X119772560Y-173760000D01*
X107209346Y-173760000D01*
X106899380Y-173450034D01*
X106114678Y-173125000D01*
X105265322Y-173125000D01*
X104480620Y-173450034D01*
X103880034Y-174050620D01*
X103555000Y-174835322D01*
X98667440Y-174835322D01*
X98667440Y-173760000D01*
X98618157Y-173512235D01*
X98477809Y-173302191D01*
X98267765Y-173161843D01*
X98020000Y-173112560D01*
X95020000Y-173112560D01*
X94772235Y-173161843D01*
X94562191Y-173302191D01*
X94421843Y-173512235D01*
X94372560Y-173760000D01*
X81809346Y-173760000D01*
X81499380Y-173450034D01*
X80714678Y-173125000D01*
X79865322Y-173125000D01*
X79080620Y-173450034D01*
X78480034Y-174050620D01*
X78155000Y-174835322D01*
X75057000Y-174835322D01*
X75057000Y-174572170D01*
X75058839Y-174569418D01*
X75174092Y-173990000D01*
X75058839Y-173410582D01*
X75057000Y-173407830D01*
X75057000Y-172032170D01*
X75058839Y-172029418D01*
X75174092Y-171450000D01*
X75058839Y-170870582D01*
X75057000Y-170867830D01*
X75057000Y-169492170D01*
X75058839Y-169489418D01*
X75174092Y-168910000D01*
X75089619Y-168485322D01*
X78155000Y-168485322D01*
X78155000Y-169334678D01*
X78480034Y-170119380D01*
X79080620Y-170719966D01*
X79865322Y-171045000D01*
X80714678Y-171045000D01*
X81499380Y-170719966D01*
X82099966Y-170119380D01*
X82425000Y-169334678D01*
X82425000Y-168485322D01*
X94385000Y-168485322D01*
X94385000Y-169334678D01*
X94710034Y-170119380D01*
X95310620Y-170719966D01*
X96095322Y-171045000D01*
X96944678Y-171045000D01*
X97729380Y-170719966D01*
X98329966Y-170119380D01*
X98655000Y-169334678D01*
X98655000Y-168485322D01*
X103555000Y-168485322D01*
X103555000Y-169334678D01*
X103880034Y-170119380D01*
X104480620Y-170719966D01*
X105265322Y-171045000D01*
X106114678Y-171045000D01*
X106899380Y-170719966D01*
X107499966Y-170119380D01*
X107825000Y-169334678D01*
X107825000Y-168485322D01*
X119785000Y-168485322D01*
X119785000Y-169334678D01*
X120110034Y-170119380D01*
X120710620Y-170719966D01*
X121495322Y-171045000D01*
X122344678Y-171045000D01*
X123129380Y-170719966D01*
X123729966Y-170119380D01*
X124055000Y-169334678D01*
X124055000Y-168485322D01*
X123729966Y-167700620D01*
X123129380Y-167100034D01*
X122344678Y-166775000D01*
X121495322Y-166775000D01*
X120710620Y-167100034D01*
X120110034Y-167700620D01*
X119785000Y-168485322D01*
X107825000Y-168485322D01*
X107499966Y-167700620D01*
X106899380Y-167100034D01*
X106114678Y-166775000D01*
X105265322Y-166775000D01*
X104480620Y-167100034D01*
X103880034Y-167700620D01*
X103555000Y-168485322D01*
X98655000Y-168485322D01*
X98329966Y-167700620D01*
X97729380Y-167100034D01*
X96944678Y-166775000D01*
X96095322Y-166775000D01*
X95310620Y-167100034D01*
X94710034Y-167700620D01*
X94385000Y-168485322D01*
X82425000Y-168485322D01*
X82099966Y-167700620D01*
X81499380Y-167100034D01*
X80714678Y-166775000D01*
X79865322Y-166775000D01*
X79080620Y-167100034D01*
X78480034Y-167700620D01*
X78155000Y-168485322D01*
X75089619Y-168485322D01*
X75058839Y-168330582D01*
X75057000Y-168327830D01*
X75057000Y-166952170D01*
X75058839Y-166949418D01*
X75174092Y-166370000D01*
X75058839Y-165790582D01*
X75057000Y-165787830D01*
X75057000Y-164412170D01*
X75058839Y-164409418D01*
X75174092Y-163830000D01*
X75058839Y-163250582D01*
X75057000Y-163247830D01*
X75057000Y-162135322D01*
X78155000Y-162135322D01*
X78155000Y-162984678D01*
X78480034Y-163769380D01*
X79080620Y-164369966D01*
X79865322Y-164695000D01*
X80714678Y-164695000D01*
X81499380Y-164369966D01*
X82099966Y-163769380D01*
X82425000Y-162984678D01*
X82425000Y-162135322D01*
X94385000Y-162135322D01*
X94385000Y-162984678D01*
X94710034Y-163769380D01*
X95310620Y-164369966D01*
X96095322Y-164695000D01*
X96944678Y-164695000D01*
X97729380Y-164369966D01*
X98329966Y-163769380D01*
X98655000Y-162984678D01*
X98655000Y-162135322D01*
X103555000Y-162135322D01*
X103555000Y-162984678D01*
X103880034Y-163769380D01*
X104480620Y-164369966D01*
X105265322Y-164695000D01*
X106114678Y-164695000D01*
X106899380Y-164369966D01*
X107499966Y-163769380D01*
X107825000Y-162984678D01*
X107825000Y-162135322D01*
X119785000Y-162135322D01*
X119785000Y-162984678D01*
X120110034Y-163769380D01*
X120710620Y-164369966D01*
X121495322Y-164695000D01*
X122344678Y-164695000D01*
X123129380Y-164369966D01*
X123729966Y-163769380D01*
X124055000Y-162984678D01*
X124055000Y-162135322D01*
X123729966Y-161350620D01*
X123129380Y-160750034D01*
X122344678Y-160425000D01*
X121495322Y-160425000D01*
X120710620Y-160750034D01*
X120110034Y-161350620D01*
X119785000Y-162135322D01*
X107825000Y-162135322D01*
X107499966Y-161350620D01*
X106899380Y-160750034D01*
X106114678Y-160425000D01*
X105265322Y-160425000D01*
X104480620Y-160750034D01*
X103880034Y-161350620D01*
X103555000Y-162135322D01*
X98655000Y-162135322D01*
X98329966Y-161350620D01*
X97729380Y-160750034D01*
X96944678Y-160425000D01*
X96095322Y-160425000D01*
X95310620Y-160750034D01*
X94710034Y-161350620D01*
X94385000Y-162135322D01*
X82425000Y-162135322D01*
X82099966Y-161350620D01*
X81499380Y-160750034D01*
X80714678Y-160425000D01*
X79865322Y-160425000D01*
X79080620Y-160750034D01*
X78480034Y-161350620D01*
X78155000Y-162135322D01*
X75057000Y-162135322D01*
X75057000Y-161872170D01*
X75058839Y-161869418D01*
X75174092Y-161290000D01*
X75058839Y-160710582D01*
X75057000Y-160707830D01*
X75057000Y-159332170D01*
X75058839Y-159329418D01*
X75174092Y-158750000D01*
X75058839Y-158170582D01*
X75057000Y-158167830D01*
X75057000Y-156792170D01*
X75058839Y-156789418D01*
X75174092Y-156210000D01*
X75058839Y-155630582D01*
X75057000Y-155627830D01*
X75057000Y-154252170D01*
X75058839Y-154249418D01*
X75174092Y-153670000D01*
X75058839Y-153090582D01*
X75057000Y-153087830D01*
X75057000Y-151712170D01*
X75058839Y-151709418D01*
X75174092Y-151130000D01*
X75058839Y-150550582D01*
X75057000Y-150547830D01*
X75057000Y-149172170D01*
X75058839Y-149169418D01*
X75110039Y-148912017D01*
X109301000Y-148912017D01*
X109301000Y-149283983D01*
X109443345Y-149627635D01*
X109706365Y-149890655D01*
X110050017Y-150033000D01*
X110421983Y-150033000D01*
X110765635Y-149890655D01*
X111028655Y-149627635D01*
X111171000Y-149283983D01*
X111171000Y-148912017D01*
X111028655Y-148568365D01*
X110765635Y-148305345D01*
X110421983Y-148163000D01*
X110050017Y-148163000D01*
X109706365Y-148305345D01*
X109443345Y-148568365D01*
X109301000Y-148912017D01*
X75110039Y-148912017D01*
X75174092Y-148590000D01*
X75058839Y-148010582D01*
X75057000Y-148007830D01*
X75057000Y-146632170D01*
X75058839Y-146629418D01*
X75084776Y-146499023D01*
X113238000Y-146499023D01*
X113238000Y-146870989D01*
X113380345Y-147214641D01*
X113643365Y-147477661D01*
X113987017Y-147620006D01*
X114358983Y-147620006D01*
X114702635Y-147477661D01*
X114965655Y-147214641D01*
X115108000Y-146870989D01*
X115108000Y-146499023D01*
X114965655Y-146155371D01*
X114702635Y-145892351D01*
X114358983Y-145750006D01*
X113987017Y-145750006D01*
X113643365Y-145892351D01*
X113380345Y-146155371D01*
X113238000Y-146499023D01*
X75084776Y-146499023D01*
X75174092Y-146050000D01*
X75058839Y-145470582D01*
X75057000Y-145467830D01*
X75057000Y-144092170D01*
X75058839Y-144089418D01*
X75084777Y-143959017D01*
X84155000Y-143959017D01*
X84155000Y-144330983D01*
X84297345Y-144674635D01*
X84560365Y-144937655D01*
X84904017Y-145080000D01*
X85275983Y-145080000D01*
X85278356Y-145079017D01*
X107165000Y-145079017D01*
X107165000Y-145450983D01*
X107307345Y-145794635D01*
X107570365Y-146057655D01*
X107914017Y-146200000D01*
X108285983Y-146200000D01*
X108568736Y-146082880D01*
X108907017Y-146223000D01*
X109278983Y-146223000D01*
X109622635Y-146080655D01*
X109885655Y-145817635D01*
X110028000Y-145473983D01*
X110028000Y-145102017D01*
X109885655Y-144758365D01*
X109622635Y-144495345D01*
X109278983Y-144353000D01*
X108907017Y-144353000D01*
X108624264Y-144470120D01*
X108285983Y-144330000D01*
X107914017Y-144330000D01*
X107570365Y-144472345D01*
X107307345Y-144735365D01*
X107165000Y-145079017D01*
X85278356Y-145079017D01*
X85619635Y-144937655D01*
X85882655Y-144674635D01*
X86025000Y-144330983D01*
X86025000Y-144213017D01*
X114508000Y-144213017D01*
X114508000Y-144584983D01*
X114650345Y-144928635D01*
X114913365Y-145191655D01*
X115257017Y-145334000D01*
X115628983Y-145334000D01*
X115972635Y-145191655D01*
X116235655Y-144928635D01*
X116378000Y-144584983D01*
X116378000Y-144213017D01*
X116264551Y-143939126D01*
X117710000Y-143939126D01*
X117710000Y-144350874D01*
X117867569Y-144731280D01*
X118158720Y-145022431D01*
X118539126Y-145180000D01*
X118950874Y-145180000D01*
X119331280Y-145022431D01*
X119622431Y-144731280D01*
X119780000Y-144350874D01*
X119780000Y-143939126D01*
X119622431Y-143558720D01*
X119331280Y-143267569D01*
X118950874Y-143110000D01*
X118539126Y-143110000D01*
X118158720Y-143267569D01*
X117867569Y-143558720D01*
X117710000Y-143939126D01*
X116264551Y-143939126D01*
X116235655Y-143869365D01*
X115972635Y-143606345D01*
X115628983Y-143464000D01*
X115257017Y-143464000D01*
X114913365Y-143606345D01*
X114650345Y-143869365D01*
X114508000Y-144213017D01*
X86025000Y-144213017D01*
X86025000Y-143959017D01*
X85882655Y-143615365D01*
X85619635Y-143352345D01*
X85275983Y-143210000D01*
X84904017Y-143210000D01*
X84560365Y-143352345D01*
X84297345Y-143615365D01*
X84155000Y-143959017D01*
X75084777Y-143959017D01*
X75174092Y-143510000D01*
X75058839Y-142930582D01*
X75057000Y-142927830D01*
X75057000Y-142669126D01*
X92310000Y-142669126D01*
X92310000Y-143080874D01*
X92467569Y-143461280D01*
X92758720Y-143752431D01*
X93139126Y-143910000D01*
X93550874Y-143910000D01*
X93931280Y-143752431D01*
X94222431Y-143461280D01*
X94380000Y-143080874D01*
X94380000Y-142669126D01*
X94222431Y-142288720D01*
X93931280Y-141997569D01*
X93550874Y-141840000D01*
X93139126Y-141840000D01*
X92758720Y-141997569D01*
X92467569Y-142288720D01*
X92310000Y-142669126D01*
X75057000Y-142669126D01*
X75057000Y-141552170D01*
X75058839Y-141549418D01*
X75088735Y-141399118D01*
X83420000Y-141399118D01*
X83420000Y-141810866D01*
X83577569Y-142191272D01*
X83868720Y-142482423D01*
X84249126Y-142639992D01*
X84660874Y-142639992D01*
X85041280Y-142482423D01*
X85332431Y-142191272D01*
X85490000Y-141810866D01*
X85490000Y-141399126D01*
X117710000Y-141399126D01*
X117710000Y-141810874D01*
X117867569Y-142191280D01*
X118158720Y-142482431D01*
X118539126Y-142640000D01*
X118950874Y-142640000D01*
X119331280Y-142482431D01*
X119622431Y-142191280D01*
X119780000Y-141810874D01*
X119780000Y-141569017D01*
X120835000Y-141569017D01*
X120835000Y-141940983D01*
X120977345Y-142284635D01*
X121240365Y-142547655D01*
X121584017Y-142690000D01*
X121955983Y-142690000D01*
X122299635Y-142547655D01*
X122562655Y-142284635D01*
X122705000Y-141940983D01*
X122705000Y-141569017D01*
X122562655Y-141225365D01*
X122299635Y-140962345D01*
X121955983Y-140820000D01*
X121584017Y-140820000D01*
X121240365Y-140962345D01*
X120977345Y-141225365D01*
X120835000Y-141569017D01*
X119780000Y-141569017D01*
X119780000Y-141399126D01*
X119622431Y-141018720D01*
X119331280Y-140727569D01*
X118950874Y-140570000D01*
X118539126Y-140570000D01*
X118158720Y-140727569D01*
X117867569Y-141018720D01*
X117710000Y-141399126D01*
X85490000Y-141399126D01*
X85490000Y-141399118D01*
X85332431Y-141018712D01*
X85041280Y-140727561D01*
X84660874Y-140569992D01*
X84249126Y-140569992D01*
X83868720Y-140727561D01*
X83577569Y-141018712D01*
X83420000Y-141399118D01*
X75088735Y-141399118D01*
X75174092Y-140970000D01*
X75058839Y-140390582D01*
X75057000Y-140387830D01*
X75057000Y-139012170D01*
X75058839Y-139009418D01*
X75174092Y-138430000D01*
X75073944Y-137926517D01*
X91648002Y-137926517D01*
X91648002Y-138298483D01*
X91790347Y-138642135D01*
X92053367Y-138905155D01*
X92397019Y-139047500D01*
X92768985Y-139047500D01*
X93112637Y-138905155D01*
X93375657Y-138642135D01*
X93518002Y-138298483D01*
X93518002Y-137926517D01*
X93375657Y-137582865D01*
X93112637Y-137319845D01*
X92768985Y-137177500D01*
X92397019Y-137177500D01*
X92053367Y-137319845D01*
X91790347Y-137582865D01*
X91648002Y-137926517D01*
X75073944Y-137926517D01*
X75058839Y-137850582D01*
X75057000Y-137847830D01*
X75057000Y-136838017D01*
X109419000Y-136838017D01*
X109419000Y-137209983D01*
X109561345Y-137553635D01*
X109824365Y-137816655D01*
X110168017Y-137959000D01*
X110539983Y-137959000D01*
X110883635Y-137816655D01*
X111146655Y-137553635D01*
X111289000Y-137209983D01*
X111289000Y-136838017D01*
X111146655Y-136494365D01*
X110883635Y-136231345D01*
X110539983Y-136089000D01*
X110168017Y-136089000D01*
X109824365Y-136231345D01*
X109561345Y-136494365D01*
X109419000Y-136838017D01*
X75057000Y-136838017D01*
X75057000Y-136472170D01*
X75058839Y-136469418D01*
X75174092Y-135890000D01*
X75058839Y-135310582D01*
X75057000Y-135307830D01*
X75057000Y-133932170D01*
X75058839Y-133929418D01*
X75084777Y-133799016D01*
X85298000Y-133799016D01*
X85298000Y-134170982D01*
X85440345Y-134514634D01*
X85703365Y-134777654D01*
X86047017Y-134919999D01*
X86418983Y-134919999D01*
X86762635Y-134777654D01*
X87025655Y-134514634D01*
X87168000Y-134170982D01*
X87168000Y-133799017D01*
X88854000Y-133799017D01*
X88854000Y-134170983D01*
X88996345Y-134514635D01*
X89259365Y-134777655D01*
X89603017Y-134920000D01*
X89974983Y-134920000D01*
X90318635Y-134777655D01*
X90512273Y-134584017D01*
X90655000Y-134584017D01*
X90655000Y-134955983D01*
X90797345Y-135299635D01*
X91060365Y-135562655D01*
X91404017Y-135705000D01*
X91775983Y-135705000D01*
X92119635Y-135562655D01*
X92382655Y-135299635D01*
X92478179Y-135069017D01*
X98125000Y-135069017D01*
X98125000Y-135440983D01*
X98267345Y-135784635D01*
X98530365Y-136047655D01*
X98874017Y-136190000D01*
X99245983Y-136190000D01*
X99589635Y-136047655D01*
X99852655Y-135784635D01*
X99995000Y-135440983D01*
X99995000Y-135069017D01*
X99852655Y-134725365D01*
X99589635Y-134462345D01*
X99245983Y-134320000D01*
X98874017Y-134320000D01*
X98530365Y-134462345D01*
X98267345Y-134725365D01*
X98125000Y-135069017D01*
X92478179Y-135069017D01*
X92525000Y-134955983D01*
X92525000Y-134584017D01*
X92382655Y-134240365D01*
X92119635Y-133977345D01*
X91775983Y-133835000D01*
X91404017Y-133835000D01*
X91060365Y-133977345D01*
X90797345Y-134240365D01*
X90655000Y-134584017D01*
X90512273Y-134584017D01*
X90581655Y-134514635D01*
X90724000Y-134170983D01*
X90724000Y-133799017D01*
X90581655Y-133455365D01*
X90318635Y-133192345D01*
X89974983Y-133050000D01*
X89603017Y-133050000D01*
X89259365Y-133192345D01*
X88996345Y-133455365D01*
X88854000Y-133799017D01*
X87168000Y-133799017D01*
X87168000Y-133799016D01*
X87025655Y-133455364D01*
X86762635Y-133192344D01*
X86418983Y-133049999D01*
X86047017Y-133049999D01*
X85703365Y-133192344D01*
X85440345Y-133455364D01*
X85298000Y-133799016D01*
X75084777Y-133799016D01*
X75174092Y-133350000D01*
X75058839Y-132770582D01*
X75057000Y-132767830D01*
X75057000Y-132579817D01*
X100614200Y-132579817D01*
X100614200Y-132951783D01*
X100756545Y-133295435D01*
X101019565Y-133558455D01*
X101363217Y-133700800D01*
X101735183Y-133700800D01*
X102078835Y-133558455D01*
X102341855Y-133295435D01*
X102484200Y-132951783D01*
X102484200Y-132579817D01*
X102341855Y-132236165D01*
X102078835Y-131973145D01*
X101735183Y-131830800D01*
X101363217Y-131830800D01*
X101019565Y-131973145D01*
X100756545Y-132236165D01*
X100614200Y-132579817D01*
X75057000Y-132579817D01*
X75057000Y-131392170D01*
X75058839Y-131389418D01*
X75174092Y-130810000D01*
X75172465Y-130801817D01*
X79481402Y-130801817D01*
X79481402Y-131173783D01*
X79623747Y-131517435D01*
X79886767Y-131780455D01*
X80230419Y-131922800D01*
X80602385Y-131922800D01*
X80946037Y-131780455D01*
X81209057Y-131517435D01*
X81351402Y-131173783D01*
X81351402Y-130801817D01*
X81277755Y-130624017D01*
X85298000Y-130624017D01*
X85298000Y-130995983D01*
X85440345Y-131339635D01*
X85703365Y-131602655D01*
X86047017Y-131745000D01*
X86418983Y-131745000D01*
X86762635Y-131602655D01*
X87025655Y-131339635D01*
X87168000Y-130995983D01*
X87168000Y-130624017D01*
X88854000Y-130624017D01*
X88854000Y-130995983D01*
X88996345Y-131339635D01*
X89259365Y-131602655D01*
X89603017Y-131745000D01*
X89974983Y-131745000D01*
X90318635Y-131602655D01*
X90581655Y-131339635D01*
X90724000Y-130995983D01*
X90724000Y-130624017D01*
X90581655Y-130280365D01*
X90318635Y-130017345D01*
X89974983Y-129875000D01*
X89603017Y-129875000D01*
X89259365Y-130017345D01*
X88996345Y-130280365D01*
X88854000Y-130624017D01*
X87168000Y-130624017D01*
X87025655Y-130280365D01*
X86762635Y-130017345D01*
X86418983Y-129875000D01*
X86047017Y-129875000D01*
X85703365Y-130017345D01*
X85440345Y-130280365D01*
X85298000Y-130624017D01*
X81277755Y-130624017D01*
X81209057Y-130458165D01*
X80946037Y-130195145D01*
X80602385Y-130052800D01*
X80230419Y-130052800D01*
X79886767Y-130195145D01*
X79623747Y-130458165D01*
X79481402Y-130801817D01*
X75172465Y-130801817D01*
X75058839Y-130230582D01*
X75057000Y-130227830D01*
X75057000Y-128852170D01*
X75058839Y-128849418D01*
X75079724Y-128744417D01*
X77601800Y-128744417D01*
X77601800Y-129116383D01*
X77744145Y-129460035D01*
X78007165Y-129723055D01*
X78350817Y-129865400D01*
X78722783Y-129865400D01*
X79066435Y-129723055D01*
X79329455Y-129460035D01*
X79471800Y-129116383D01*
X79471800Y-128744417D01*
X79329455Y-128400765D01*
X79198690Y-128270000D01*
X124215908Y-128270000D01*
X124331161Y-128849418D01*
X124659375Y-129340625D01*
X125150582Y-129668839D01*
X125583744Y-129755000D01*
X125876256Y-129755000D01*
X126309418Y-129668839D01*
X126800625Y-129340625D01*
X127128839Y-128849418D01*
X127244092Y-128270000D01*
X127128839Y-127690582D01*
X126800625Y-127199375D01*
X126782381Y-127187184D01*
X126827765Y-127178157D01*
X127037809Y-127037809D01*
X127178157Y-126827765D01*
X127227440Y-126580000D01*
X127227440Y-124880000D01*
X127178157Y-124632235D01*
X127037809Y-124422191D01*
X126827765Y-124281843D01*
X126580000Y-124232560D01*
X124880000Y-124232560D01*
X124632235Y-124281843D01*
X124422191Y-124422191D01*
X124281843Y-124632235D01*
X124232560Y-124880000D01*
X124232560Y-126580000D01*
X124281843Y-126827765D01*
X124422191Y-127037809D01*
X124632235Y-127178157D01*
X124677619Y-127187184D01*
X124659375Y-127199375D01*
X124331161Y-127690582D01*
X124215908Y-128270000D01*
X79198690Y-128270000D01*
X79066435Y-128137745D01*
X78722783Y-127995400D01*
X78350817Y-127995400D01*
X78007165Y-128137745D01*
X77744145Y-128400765D01*
X77601800Y-128744417D01*
X75079724Y-128744417D01*
X75174092Y-128270000D01*
X75058839Y-127690582D01*
X75057000Y-127687830D01*
X75057000Y-126312170D01*
X75058839Y-126309418D01*
X75174092Y-125730000D01*
X75058839Y-125150582D01*
X75057000Y-125147830D01*
X75057000Y-123772170D01*
X75058839Y-123769418D01*
X75174092Y-123190000D01*
X75058839Y-122610582D01*
X75057000Y-122607830D01*
X75057000Y-122394417D01*
X79481400Y-122394417D01*
X79481400Y-122766383D01*
X79623745Y-123110035D01*
X79886765Y-123373055D01*
X80230417Y-123515400D01*
X80602383Y-123515400D01*
X80946035Y-123373055D01*
X81209055Y-123110035D01*
X81351400Y-122766383D01*
X81351400Y-122394417D01*
X81298860Y-122267572D01*
X88805000Y-122267572D01*
X88805000Y-122842428D01*
X89024988Y-123373527D01*
X89431473Y-123780012D01*
X89962572Y-124000000D01*
X90537428Y-124000000D01*
X91068527Y-123780012D01*
X91475012Y-123373527D01*
X91695000Y-122842428D01*
X91695000Y-122267572D01*
X93805000Y-122267572D01*
X93805000Y-122842428D01*
X94024988Y-123373527D01*
X94431473Y-123780012D01*
X94962572Y-124000000D01*
X95537428Y-124000000D01*
X96068527Y-123780012D01*
X96475012Y-123373527D01*
X96695000Y-122842428D01*
X96695000Y-122267572D01*
X106585000Y-122267572D01*
X106585000Y-122842428D01*
X106804988Y-123373527D01*
X107211473Y-123780012D01*
X107742572Y-124000000D01*
X108317428Y-124000000D01*
X108848527Y-123780012D01*
X109255012Y-123373527D01*
X109475000Y-122842428D01*
X109475000Y-122267572D01*
X111585000Y-122267572D01*
X111585000Y-122842428D01*
X111804988Y-123373527D01*
X112211473Y-123780012D01*
X112742572Y-124000000D01*
X113317428Y-124000000D01*
X113848527Y-123780012D01*
X114255012Y-123373527D01*
X114475000Y-122842428D01*
X114475000Y-122267572D01*
X114255012Y-121736473D01*
X113848527Y-121329988D01*
X113317428Y-121110000D01*
X112742572Y-121110000D01*
X112211473Y-121329988D01*
X111804988Y-121736473D01*
X111585000Y-122267572D01*
X109475000Y-122267572D01*
X109255012Y-121736473D01*
X108848527Y-121329988D01*
X108317428Y-121110000D01*
X107742572Y-121110000D01*
X107211473Y-121329988D01*
X106804988Y-121736473D01*
X106585000Y-122267572D01*
X96695000Y-122267572D01*
X96475012Y-121736473D01*
X96068527Y-121329988D01*
X95537428Y-121110000D01*
X94962572Y-121110000D01*
X94431473Y-121329988D01*
X94024988Y-121736473D01*
X93805000Y-122267572D01*
X91695000Y-122267572D01*
X91475012Y-121736473D01*
X91068527Y-121329988D01*
X90537428Y-121110000D01*
X89962572Y-121110000D01*
X89431473Y-121329988D01*
X89024988Y-121736473D01*
X88805000Y-122267572D01*
X81298860Y-122267572D01*
X81209055Y-122050765D01*
X80946035Y-121787745D01*
X80602383Y-121645400D01*
X80230417Y-121645400D01*
X79886765Y-121787745D01*
X79623745Y-122050765D01*
X79481400Y-122394417D01*
X75057000Y-122394417D01*
X75057000Y-121232170D01*
X75058839Y-121229418D01*
X75174092Y-120650000D01*
X75096679Y-120260817D01*
X77601800Y-120260817D01*
X77601800Y-120632783D01*
X77744145Y-120976435D01*
X78007165Y-121239455D01*
X78350817Y-121381800D01*
X78722783Y-121381800D01*
X79066435Y-121239455D01*
X79329455Y-120976435D01*
X79471800Y-120632783D01*
X79471800Y-120260817D01*
X79329455Y-119917165D01*
X79066435Y-119654145D01*
X78722783Y-119511800D01*
X78350817Y-119511800D01*
X78007165Y-119654145D01*
X77744145Y-119917165D01*
X77601800Y-120260817D01*
X75096679Y-120260817D01*
X75058839Y-120070582D01*
X75057000Y-120067830D01*
X75057000Y-118692170D01*
X75058839Y-118689418D01*
X75174092Y-118110000D01*
X75058839Y-117530582D01*
X75057000Y-117527830D01*
X75057000Y-117267572D01*
X91305000Y-117267572D01*
X91305000Y-117842428D01*
X91524988Y-118373527D01*
X91931473Y-118780012D01*
X92462572Y-119000000D01*
X93037428Y-119000000D01*
X93568527Y-118780012D01*
X93975012Y-118373527D01*
X94195000Y-117842428D01*
X94195000Y-117289017D01*
X96220000Y-117289017D01*
X96220000Y-117660983D01*
X96362345Y-118004635D01*
X96625365Y-118267655D01*
X96969017Y-118410000D01*
X97340983Y-118410000D01*
X97684635Y-118267655D01*
X97947655Y-118004635D01*
X98090000Y-117660983D01*
X98090000Y-117289017D01*
X98081118Y-117267572D01*
X109085000Y-117267572D01*
X109085000Y-117842428D01*
X109304988Y-118373527D01*
X109711473Y-118780012D01*
X110242572Y-119000000D01*
X110817428Y-119000000D01*
X111348527Y-118780012D01*
X111755012Y-118373527D01*
X111975000Y-117842428D01*
X111975000Y-117267572D01*
X111755012Y-116736473D01*
X111348527Y-116329988D01*
X110817428Y-116110000D01*
X110242572Y-116110000D01*
X109711473Y-116329988D01*
X109304988Y-116736473D01*
X109085000Y-117267572D01*
X98081118Y-117267572D01*
X97947655Y-116945365D01*
X97684635Y-116682345D01*
X97340983Y-116540000D01*
X96969017Y-116540000D01*
X96625365Y-116682345D01*
X96362345Y-116945365D01*
X96220000Y-117289017D01*
X94195000Y-117289017D01*
X94195000Y-117267572D01*
X93975012Y-116736473D01*
X93568527Y-116329988D01*
X93037428Y-116110000D01*
X92462572Y-116110000D01*
X91931473Y-116329988D01*
X91524988Y-116736473D01*
X91305000Y-117267572D01*
X75057000Y-117267572D01*
X75057000Y-116152170D01*
X75058839Y-116149418D01*
X75174092Y-115570000D01*
X75058839Y-114990582D01*
X75057000Y-114987830D01*
X75057000Y-113612170D01*
X75058839Y-113609418D01*
X75174092Y-113030000D01*
X75058839Y-112450582D01*
X75057000Y-112447830D01*
X75057000Y-111072170D01*
X75058839Y-111069418D01*
X75174092Y-110490000D01*
X75133142Y-110284126D01*
X90405000Y-110284126D01*
X90405000Y-110695874D01*
X90562569Y-111076280D01*
X90853720Y-111367431D01*
X91234126Y-111525000D01*
X91645874Y-111525000D01*
X92026280Y-111367431D01*
X92317431Y-111076280D01*
X92475000Y-110695874D01*
X92475000Y-110284126D01*
X92317431Y-109903720D01*
X92026280Y-109612569D01*
X91645874Y-109455000D01*
X91234126Y-109455000D01*
X90853720Y-109612569D01*
X90562569Y-109903720D01*
X90405000Y-110284126D01*
X75133142Y-110284126D01*
X75058839Y-109910582D01*
X75057000Y-109907830D01*
X75057000Y-108549017D01*
X103355000Y-108549017D01*
X103355000Y-108920983D01*
X103497345Y-109264635D01*
X103760365Y-109527655D01*
X104104017Y-109670000D01*
X104475983Y-109670000D01*
X104478356Y-109669017D01*
X105745000Y-109669017D01*
X105745000Y-110040983D01*
X105887345Y-110384635D01*
X105992710Y-110490000D01*
X105887345Y-110595365D01*
X105745000Y-110939017D01*
X105745000Y-111310983D01*
X105887345Y-111654635D01*
X106150365Y-111917655D01*
X106494017Y-112060000D01*
X106865983Y-112060000D01*
X107209635Y-111917655D01*
X107472655Y-111654635D01*
X107615000Y-111310983D01*
X107615000Y-110939017D01*
X107472655Y-110595365D01*
X107367290Y-110490000D01*
X107472655Y-110384635D01*
X107514287Y-110284126D01*
X117075000Y-110284126D01*
X117075000Y-110695874D01*
X117232569Y-111076280D01*
X117523720Y-111367431D01*
X117904126Y-111525000D01*
X118315874Y-111525000D01*
X118696280Y-111367431D01*
X118987431Y-111076280D01*
X119145000Y-110695874D01*
X119145000Y-110284126D01*
X118987431Y-109903720D01*
X118696280Y-109612569D01*
X118315874Y-109455000D01*
X117904126Y-109455000D01*
X117523720Y-109612569D01*
X117232569Y-109903720D01*
X117075000Y-110284126D01*
X107514287Y-110284126D01*
X107615000Y-110040983D01*
X107615000Y-109669017D01*
X107472655Y-109325365D01*
X107209635Y-109062345D01*
X106865983Y-108920000D01*
X106494017Y-108920000D01*
X106150365Y-109062345D01*
X105887345Y-109325365D01*
X105745000Y-109669017D01*
X104478356Y-109669017D01*
X104819635Y-109527655D01*
X105082655Y-109264635D01*
X105225000Y-108920983D01*
X105225000Y-108549017D01*
X105154630Y-108379126D01*
X119615000Y-108379126D01*
X119615000Y-108790874D01*
X119772569Y-109171280D01*
X120063720Y-109462431D01*
X120444126Y-109620000D01*
X120855874Y-109620000D01*
X121236280Y-109462431D01*
X121527431Y-109171280D01*
X121685000Y-108790874D01*
X121685000Y-108379126D01*
X125330000Y-108379126D01*
X125330000Y-108790874D01*
X125487569Y-109171280D01*
X125778720Y-109462431D01*
X126159126Y-109620000D01*
X126570874Y-109620000D01*
X126951280Y-109462431D01*
X127242431Y-109171280D01*
X127400000Y-108790874D01*
X127400000Y-108379126D01*
X127242431Y-107998720D01*
X126951280Y-107707569D01*
X126570874Y-107550000D01*
X126159126Y-107550000D01*
X125778720Y-107707569D01*
X125487569Y-107998720D01*
X125330000Y-108379126D01*
X121685000Y-108379126D01*
X121527431Y-107998720D01*
X121236280Y-107707569D01*
X120855874Y-107550000D01*
X120444126Y-107550000D01*
X120063720Y-107707569D01*
X119772569Y-107998720D01*
X119615000Y-108379126D01*
X105154630Y-108379126D01*
X105082655Y-108205365D01*
X104819635Y-107942345D01*
X104475983Y-107800000D01*
X104104017Y-107800000D01*
X103760365Y-107942345D01*
X103497345Y-108205365D01*
X103355000Y-108549017D01*
X75057000Y-108549017D01*
X75057000Y-108532170D01*
X75058839Y-108529418D01*
X75174092Y-107950000D01*
X75058839Y-107370582D01*
X75057000Y-107367830D01*
X75057000Y-105992170D01*
X75058839Y-105989418D01*
X75174092Y-105410000D01*
X75116889Y-105122417D01*
X101325400Y-105122417D01*
X101325400Y-105494383D01*
X101467745Y-105838035D01*
X101730765Y-106101055D01*
X102074417Y-106243400D01*
X102446383Y-106243400D01*
X102790035Y-106101055D01*
X103053055Y-105838035D01*
X103195400Y-105494383D01*
X103195400Y-105122417D01*
X105033800Y-105122417D01*
X105033800Y-105494383D01*
X105176145Y-105838035D01*
X105439165Y-106101055D01*
X105782817Y-106243400D01*
X106154783Y-106243400D01*
X106498435Y-106101055D01*
X106761455Y-105838035D01*
X106903800Y-105494383D01*
X106903800Y-105122417D01*
X106761455Y-104778765D01*
X106498435Y-104515745D01*
X106154783Y-104373400D01*
X105782817Y-104373400D01*
X105439165Y-104515745D01*
X105176145Y-104778765D01*
X105033800Y-105122417D01*
X103195400Y-105122417D01*
X103053055Y-104778765D01*
X102790035Y-104515745D01*
X102446383Y-104373400D01*
X102074417Y-104373400D01*
X101730765Y-104515745D01*
X101467745Y-104778765D01*
X101325400Y-105122417D01*
X75116889Y-105122417D01*
X75058839Y-104830582D01*
X75057000Y-104827830D01*
X75057000Y-103452170D01*
X75058839Y-103449418D01*
X75174092Y-102870000D01*
X75058839Y-102290582D01*
X75057000Y-102287830D01*
X75057000Y-100912170D01*
X75058839Y-100909418D01*
X75139088Y-100505975D01*
X78915000Y-100505975D01*
X78915000Y-101594025D01*
X79331379Y-102599253D01*
X80100747Y-103368621D01*
X81105975Y-103785000D01*
X82194025Y-103785000D01*
X83199253Y-103368621D01*
X83968621Y-102599253D01*
X84385000Y-101594025D01*
X84385000Y-100505975D01*
X83968621Y-99500747D01*
X83752874Y-99285000D01*
X84205330Y-99285000D01*
X84769507Y-99051310D01*
X85150000Y-98670817D01*
X85530493Y-99051310D01*
X86094670Y-99285000D01*
X86705330Y-99285000D01*
X87269507Y-99051310D01*
X87650000Y-98670817D01*
X88030493Y-99051310D01*
X88594670Y-99285000D01*
X89047126Y-99285000D01*
X88831379Y-99500747D01*
X88415000Y-100505975D01*
X88415000Y-101594025D01*
X88831379Y-102599253D01*
X89600747Y-103368621D01*
X90605975Y-103785000D01*
X91694025Y-103785000D01*
X92699253Y-103368621D01*
X93468621Y-102599253D01*
X93517679Y-102480815D01*
X97591600Y-102480815D01*
X97591600Y-102852781D01*
X97733945Y-103196433D01*
X97996965Y-103459453D01*
X98340617Y-103601798D01*
X98712583Y-103601798D01*
X99013994Y-103476950D01*
X99013994Y-103767183D01*
X99156339Y-104110835D01*
X99419359Y-104373855D01*
X99763011Y-104516200D01*
X100134977Y-104516200D01*
X100478629Y-104373855D01*
X100741649Y-104110835D01*
X100883994Y-103767183D01*
X100883994Y-103395217D01*
X100741649Y-103051565D01*
X100478629Y-102788545D01*
X100134977Y-102646200D01*
X99763011Y-102646200D01*
X99461600Y-102771048D01*
X99461600Y-102480815D01*
X99319255Y-102137163D01*
X99056235Y-101874143D01*
X98712583Y-101731798D01*
X98340617Y-101731798D01*
X97996965Y-101874143D01*
X97733945Y-102137163D01*
X97591600Y-102480815D01*
X93517679Y-102480815D01*
X93885000Y-101594025D01*
X93885000Y-100505975D01*
X93871846Y-100474217D01*
X95178600Y-100474217D01*
X95178600Y-100846183D01*
X95320945Y-101189835D01*
X95583965Y-101452855D01*
X95927617Y-101595200D01*
X96299583Y-101595200D01*
X96583695Y-101477517D01*
X100109500Y-101477517D01*
X100109500Y-101849483D01*
X100251845Y-102193135D01*
X100514865Y-102456155D01*
X100858517Y-102598500D01*
X101230483Y-102598500D01*
X101544500Y-102468430D01*
X101858517Y-102598500D01*
X102230483Y-102598500D01*
X102544500Y-102468430D01*
X102858517Y-102598500D01*
X103230483Y-102598500D01*
X103574135Y-102456155D01*
X103837155Y-102193135D01*
X103979500Y-101849483D01*
X103979500Y-101477517D01*
X103837155Y-101133865D01*
X103574135Y-100870845D01*
X103230483Y-100728500D01*
X102858517Y-100728500D01*
X102544500Y-100858570D01*
X102230483Y-100728500D01*
X101858517Y-100728500D01*
X101544500Y-100858570D01*
X101230483Y-100728500D01*
X100858517Y-100728500D01*
X100514865Y-100870845D01*
X100251845Y-101133865D01*
X100109500Y-101477517D01*
X96583695Y-101477517D01*
X96643235Y-101452855D01*
X96906255Y-101189835D01*
X97048600Y-100846183D01*
X97048600Y-100474217D01*
X96906255Y-100130565D01*
X96643235Y-99867545D01*
X96299583Y-99725200D01*
X95927617Y-99725200D01*
X95583965Y-99867545D01*
X95320945Y-100130565D01*
X95178600Y-100474217D01*
X93871846Y-100474217D01*
X93477308Y-99521717D01*
X100030000Y-99521717D01*
X100030000Y-99893683D01*
X100172345Y-100237335D01*
X100435365Y-100500355D01*
X100779017Y-100642700D01*
X101150983Y-100642700D01*
X101481067Y-100505975D01*
X109395000Y-100505975D01*
X109395000Y-101594025D01*
X109811379Y-102599253D01*
X110580747Y-103368621D01*
X111585975Y-103785000D01*
X112674025Y-103785000D01*
X113679253Y-103368621D01*
X114448621Y-102599253D01*
X114865000Y-101594025D01*
X114865000Y-100505975D01*
X114448621Y-99500747D01*
X114232874Y-99285000D01*
X114685330Y-99285000D01*
X115249507Y-99051310D01*
X115630000Y-98670817D01*
X116010493Y-99051310D01*
X116574670Y-99285000D01*
X117185330Y-99285000D01*
X117749507Y-99051310D01*
X118130000Y-98670817D01*
X118510493Y-99051310D01*
X119074670Y-99285000D01*
X119527126Y-99285000D01*
X119311379Y-99500747D01*
X118895000Y-100505975D01*
X118895000Y-101594025D01*
X119311379Y-102599253D01*
X120080747Y-103368621D01*
X121085975Y-103785000D01*
X122174025Y-103785000D01*
X123179253Y-103368621D01*
X123948621Y-102599253D01*
X124365000Y-101594025D01*
X124365000Y-101414017D01*
X124795000Y-101414017D01*
X124795000Y-101785983D01*
X124937345Y-102129635D01*
X125200365Y-102392655D01*
X125544017Y-102535000D01*
X125915983Y-102535000D01*
X126259635Y-102392655D01*
X126522655Y-102129635D01*
X126665000Y-101785983D01*
X126665000Y-101414017D01*
X126522655Y-101070365D01*
X126259635Y-100807345D01*
X125915983Y-100665000D01*
X125544017Y-100665000D01*
X125200365Y-100807345D01*
X124937345Y-101070365D01*
X124795000Y-101414017D01*
X124365000Y-101414017D01*
X124365000Y-100505975D01*
X123948621Y-99500747D01*
X123179253Y-98731379D01*
X122174025Y-98315000D01*
X121085975Y-98315000D01*
X120749755Y-98454267D01*
X120915000Y-98055330D01*
X120915000Y-97444670D01*
X120681310Y-96880493D01*
X120300817Y-96500000D01*
X120681310Y-96119507D01*
X120915000Y-95555330D01*
X120915000Y-94944670D01*
X120681310Y-94380493D01*
X120249507Y-93948690D01*
X119685330Y-93715000D01*
X119074670Y-93715000D01*
X118510493Y-93948690D01*
X118130000Y-94329183D01*
X117749507Y-93948690D01*
X117185330Y-93715000D01*
X116574670Y-93715000D01*
X116010493Y-93948690D01*
X115630000Y-94329183D01*
X115249507Y-93948690D01*
X114685330Y-93715000D01*
X114074670Y-93715000D01*
X113510493Y-93948690D01*
X113078690Y-94380493D01*
X112845000Y-94944670D01*
X112845000Y-95555330D01*
X113078690Y-96119507D01*
X113459183Y-96500000D01*
X113078690Y-96880493D01*
X112845000Y-97444670D01*
X112845000Y-98055330D01*
X113010245Y-98454267D01*
X112674025Y-98315000D01*
X111585975Y-98315000D01*
X110580747Y-98731379D01*
X109811379Y-99500747D01*
X109395000Y-100505975D01*
X101481067Y-100505975D01*
X101494635Y-100500355D01*
X101757655Y-100237335D01*
X101900000Y-99893683D01*
X101900000Y-99521717D01*
X101757655Y-99178065D01*
X101494635Y-98915045D01*
X101150983Y-98772700D01*
X100779017Y-98772700D01*
X100435365Y-98915045D01*
X100172345Y-99178065D01*
X100030000Y-99521717D01*
X93477308Y-99521717D01*
X93468621Y-99500747D01*
X92699253Y-98731379D01*
X91694025Y-98315000D01*
X90605975Y-98315000D01*
X90269755Y-98454267D01*
X90435000Y-98055330D01*
X90435000Y-97444670D01*
X90427357Y-97426217D01*
X99090200Y-97426217D01*
X99090200Y-97798183D01*
X99232545Y-98141835D01*
X99495565Y-98404855D01*
X99839217Y-98547200D01*
X100211183Y-98547200D01*
X100554835Y-98404855D01*
X100817855Y-98141835D01*
X100960200Y-97798183D01*
X100960200Y-97426217D01*
X102125500Y-97426217D01*
X102125500Y-97798183D01*
X102267845Y-98141835D01*
X102530865Y-98404855D01*
X102874517Y-98547200D01*
X103246483Y-98547200D01*
X103590135Y-98404855D01*
X103853155Y-98141835D01*
X103995500Y-97798183D01*
X103995500Y-97426217D01*
X103853155Y-97082565D01*
X103590135Y-96819545D01*
X103246483Y-96677200D01*
X102874517Y-96677200D01*
X102530865Y-96819545D01*
X102267845Y-97082565D01*
X102125500Y-97426217D01*
X100960200Y-97426217D01*
X100817855Y-97082565D01*
X100554835Y-96819545D01*
X100211183Y-96677200D01*
X99839217Y-96677200D01*
X99495565Y-96819545D01*
X99232545Y-97082565D01*
X99090200Y-97426217D01*
X90427357Y-97426217D01*
X90201310Y-96880493D01*
X89820817Y-96500000D01*
X90201310Y-96119507D01*
X90435000Y-95555330D01*
X90435000Y-94944670D01*
X90201310Y-94380493D01*
X89769507Y-93948690D01*
X89205330Y-93715000D01*
X88594670Y-93715000D01*
X88030493Y-93948690D01*
X87650000Y-94329183D01*
X87269507Y-93948690D01*
X86705330Y-93715000D01*
X86094670Y-93715000D01*
X85530493Y-93948690D01*
X85150000Y-94329183D01*
X84769507Y-93948690D01*
X84205330Y-93715000D01*
X83594670Y-93715000D01*
X83030493Y-93948690D01*
X82598690Y-94380493D01*
X82365000Y-94944670D01*
X82365000Y-95555330D01*
X82598690Y-96119507D01*
X82979183Y-96500000D01*
X82598690Y-96880493D01*
X82365000Y-97444670D01*
X82365000Y-98055330D01*
X82530245Y-98454267D01*
X82194025Y-98315000D01*
X81105975Y-98315000D01*
X80100747Y-98731379D01*
X79331379Y-99500747D01*
X78915000Y-100505975D01*
X75139088Y-100505975D01*
X75174092Y-100330000D01*
X75058839Y-99750582D01*
X75057000Y-99747830D01*
X75057000Y-98372170D01*
X75058839Y-98369418D01*
X75174092Y-97790000D01*
X75058839Y-97210582D01*
X75057000Y-97207830D01*
X75057000Y-95832170D01*
X75058839Y-95829418D01*
X75174092Y-95250000D01*
X75058839Y-94670582D01*
X75057000Y-94667830D01*
X75057000Y-93292170D01*
X75058839Y-93289418D01*
X75174092Y-92710000D01*
X75058839Y-92130582D01*
X75057000Y-92127830D01*
X75057000Y-90752170D01*
X75058839Y-90749418D01*
X75174092Y-90170000D01*
X75058839Y-89590582D01*
X75057000Y-89587830D01*
X75057000Y-88212170D01*
X75058839Y-88209418D01*
X75174092Y-87630000D01*
X75058839Y-87050582D01*
X75057000Y-87047830D01*
X75057000Y-85825000D01*
X80134968Y-85825000D01*
X79511930Y-86448038D01*
G04 #@! TD*
M02*
