G04 #@! TF.GenerationSoftware,KiCad,Pcbnew,(5.0.0-3-g5ebb6b6)*
G04 #@! TF.CreationDate,2019-04-23T02:19:09+01:00*
G04 #@! TF.ProjectId,Nucleo144AudioBreakout,4E75636C656F313434417564696F4272,RevA*
G04 #@! TF.SameCoordinates,Original*
G04 #@! TF.FileFunction,Soldermask,Top*
G04 #@! TF.FilePolarity,Negative*
%FSLAX46Y46*%
G04 Gerber Fmt 4.6, Leading zero omitted, Abs format (unit mm)*
G04 Created by KiCad (PCBNEW (5.0.0-3-g5ebb6b6)) date Tuesday, 23 April 2019 at 02:19:09*
%MOMM*%
%LPD*%
G01*
G04 APERTURE LIST*
%ADD10C,4.200000*%
%ADD11R,1.950000X1.000000*%
%ADD12C,0.100000*%
%ADD13C,1.550000*%
%ADD14C,3.400000*%
%ADD15R,3.400000X3.400000*%
%ADD16O,2.100000X2.100000*%
%ADD17R,2.100000X2.100000*%
%ADD18C,2.020000*%
%ADD19R,1.900000X1.000000*%
%ADD20C,0.990000*%
%ADD21C,4.600000*%
%ADD22C,2.200000*%
%ADD23R,0.650000X0.900000*%
%ADD24R,3.050000X1.400000*%
G04 APERTURE END LIST*
D10*
G04 #@! TO.C,REF\002A\002A*
X121666000Y-87884000D03*
G04 #@! TD*
G04 #@! TO.C,REF\002A\002A*
X112130000Y-87884000D03*
G04 #@! TD*
G04 #@! TO.C,REF\002A\002A*
X91186000Y-87884000D03*
G04 #@! TD*
G04 #@! TO.C,REF\002A\002A*
X81661000Y-87884000D03*
G04 #@! TD*
D11*
G04 #@! TO.C,U1*
X104427000Y-113030000D03*
X104427000Y-114300000D03*
X104427000Y-115570000D03*
X104427000Y-116840000D03*
X99027000Y-116840000D03*
X99027000Y-115570000D03*
X99027000Y-114300000D03*
X99027000Y-113030000D03*
G04 #@! TD*
D12*
G04 #@! TO.C,R4*
G36*
X95084071Y-143616623D02*
X95116781Y-143621475D01*
X95148857Y-143629509D01*
X95179991Y-143640649D01*
X95209884Y-143654787D01*
X95238247Y-143671787D01*
X95264807Y-143691485D01*
X95289308Y-143713692D01*
X95311515Y-143738193D01*
X95331213Y-143764753D01*
X95348213Y-143793116D01*
X95362351Y-143823009D01*
X95373491Y-143854143D01*
X95381525Y-143886219D01*
X95386377Y-143918929D01*
X95388000Y-143951956D01*
X95388000Y-144828044D01*
X95386377Y-144861071D01*
X95381525Y-144893781D01*
X95373491Y-144925857D01*
X95362351Y-144956991D01*
X95348213Y-144986884D01*
X95331213Y-145015247D01*
X95311515Y-145041807D01*
X95289308Y-145066308D01*
X95264807Y-145088515D01*
X95238247Y-145108213D01*
X95209884Y-145125213D01*
X95179991Y-145139351D01*
X95148857Y-145150491D01*
X95116781Y-145158525D01*
X95084071Y-145163377D01*
X95051044Y-145165000D01*
X93924956Y-145165000D01*
X93891929Y-145163377D01*
X93859219Y-145158525D01*
X93827143Y-145150491D01*
X93796009Y-145139351D01*
X93766116Y-145125213D01*
X93737753Y-145108213D01*
X93711193Y-145088515D01*
X93686692Y-145066308D01*
X93664485Y-145041807D01*
X93644787Y-145015247D01*
X93627787Y-144986884D01*
X93613649Y-144956991D01*
X93602509Y-144925857D01*
X93594475Y-144893781D01*
X93589623Y-144861071D01*
X93588000Y-144828044D01*
X93588000Y-143951956D01*
X93589623Y-143918929D01*
X93594475Y-143886219D01*
X93602509Y-143854143D01*
X93613649Y-143823009D01*
X93627787Y-143793116D01*
X93644787Y-143764753D01*
X93664485Y-143738193D01*
X93686692Y-143713692D01*
X93711193Y-143691485D01*
X93737753Y-143671787D01*
X93766116Y-143654787D01*
X93796009Y-143640649D01*
X93827143Y-143629509D01*
X93859219Y-143621475D01*
X93891929Y-143616623D01*
X93924956Y-143615000D01*
X95051044Y-143615000D01*
X95084071Y-143616623D01*
X95084071Y-143616623D01*
G37*
D13*
X94488000Y-144390000D03*
D12*
G36*
X95084071Y-145666623D02*
X95116781Y-145671475D01*
X95148857Y-145679509D01*
X95179991Y-145690649D01*
X95209884Y-145704787D01*
X95238247Y-145721787D01*
X95264807Y-145741485D01*
X95289308Y-145763692D01*
X95311515Y-145788193D01*
X95331213Y-145814753D01*
X95348213Y-145843116D01*
X95362351Y-145873009D01*
X95373491Y-145904143D01*
X95381525Y-145936219D01*
X95386377Y-145968929D01*
X95388000Y-146001956D01*
X95388000Y-146878044D01*
X95386377Y-146911071D01*
X95381525Y-146943781D01*
X95373491Y-146975857D01*
X95362351Y-147006991D01*
X95348213Y-147036884D01*
X95331213Y-147065247D01*
X95311515Y-147091807D01*
X95289308Y-147116308D01*
X95264807Y-147138515D01*
X95238247Y-147158213D01*
X95209884Y-147175213D01*
X95179991Y-147189351D01*
X95148857Y-147200491D01*
X95116781Y-147208525D01*
X95084071Y-147213377D01*
X95051044Y-147215000D01*
X93924956Y-147215000D01*
X93891929Y-147213377D01*
X93859219Y-147208525D01*
X93827143Y-147200491D01*
X93796009Y-147189351D01*
X93766116Y-147175213D01*
X93737753Y-147158213D01*
X93711193Y-147138515D01*
X93686692Y-147116308D01*
X93664485Y-147091807D01*
X93644787Y-147065247D01*
X93627787Y-147036884D01*
X93613649Y-147006991D01*
X93602509Y-146975857D01*
X93594475Y-146943781D01*
X93589623Y-146911071D01*
X93588000Y-146878044D01*
X93588000Y-146001956D01*
X93589623Y-145968929D01*
X93594475Y-145936219D01*
X93602509Y-145904143D01*
X93613649Y-145873009D01*
X93627787Y-145843116D01*
X93644787Y-145814753D01*
X93664485Y-145788193D01*
X93686692Y-145763692D01*
X93711193Y-145741485D01*
X93737753Y-145721787D01*
X93766116Y-145704787D01*
X93796009Y-145690649D01*
X93827143Y-145679509D01*
X93859219Y-145671475D01*
X93891929Y-145666623D01*
X93924956Y-145665000D01*
X95051044Y-145665000D01*
X95084071Y-145666623D01*
X95084071Y-145666623D01*
G37*
D13*
X94488000Y-146440000D03*
G04 #@! TD*
D11*
G04 #@! TO.C,U2*
X91600000Y-139065000D03*
X91600000Y-140335000D03*
X91600000Y-141605000D03*
X91600000Y-142875000D03*
X86200000Y-142875000D03*
X86200000Y-141605000D03*
X86200000Y-140335000D03*
X86200000Y-139065000D03*
G04 #@! TD*
D14*
G04 #@! TO.C,JIN1*
X80290000Y-168910000D03*
X80290000Y-162560000D03*
X80290000Y-175260000D03*
X96520000Y-168910000D03*
X96520000Y-162560000D03*
D15*
X96520000Y-175260000D03*
G04 #@! TD*
D12*
G04 #@! TO.C,R10*
G36*
X122781071Y-135626623D02*
X122813781Y-135631475D01*
X122845857Y-135639509D01*
X122876991Y-135650649D01*
X122906884Y-135664787D01*
X122935247Y-135681787D01*
X122961807Y-135701485D01*
X122986308Y-135723692D01*
X123008515Y-135748193D01*
X123028213Y-135774753D01*
X123045213Y-135803116D01*
X123059351Y-135833009D01*
X123070491Y-135864143D01*
X123078525Y-135896219D01*
X123083377Y-135928929D01*
X123085000Y-135961956D01*
X123085000Y-137088044D01*
X123083377Y-137121071D01*
X123078525Y-137153781D01*
X123070491Y-137185857D01*
X123059351Y-137216991D01*
X123045213Y-137246884D01*
X123028213Y-137275247D01*
X123008515Y-137301807D01*
X122986308Y-137326308D01*
X122961807Y-137348515D01*
X122935247Y-137368213D01*
X122906884Y-137385213D01*
X122876991Y-137399351D01*
X122845857Y-137410491D01*
X122813781Y-137418525D01*
X122781071Y-137423377D01*
X122748044Y-137425000D01*
X121871956Y-137425000D01*
X121838929Y-137423377D01*
X121806219Y-137418525D01*
X121774143Y-137410491D01*
X121743009Y-137399351D01*
X121713116Y-137385213D01*
X121684753Y-137368213D01*
X121658193Y-137348515D01*
X121633692Y-137326308D01*
X121611485Y-137301807D01*
X121591787Y-137275247D01*
X121574787Y-137246884D01*
X121560649Y-137216991D01*
X121549509Y-137185857D01*
X121541475Y-137153781D01*
X121536623Y-137121071D01*
X121535000Y-137088044D01*
X121535000Y-135961956D01*
X121536623Y-135928929D01*
X121541475Y-135896219D01*
X121549509Y-135864143D01*
X121560649Y-135833009D01*
X121574787Y-135803116D01*
X121591787Y-135774753D01*
X121611485Y-135748193D01*
X121633692Y-135723692D01*
X121658193Y-135701485D01*
X121684753Y-135681787D01*
X121713116Y-135664787D01*
X121743009Y-135650649D01*
X121774143Y-135639509D01*
X121806219Y-135631475D01*
X121838929Y-135626623D01*
X121871956Y-135625000D01*
X122748044Y-135625000D01*
X122781071Y-135626623D01*
X122781071Y-135626623D01*
G37*
D13*
X122310000Y-136525000D03*
D12*
G36*
X120731071Y-135626623D02*
X120763781Y-135631475D01*
X120795857Y-135639509D01*
X120826991Y-135650649D01*
X120856884Y-135664787D01*
X120885247Y-135681787D01*
X120911807Y-135701485D01*
X120936308Y-135723692D01*
X120958515Y-135748193D01*
X120978213Y-135774753D01*
X120995213Y-135803116D01*
X121009351Y-135833009D01*
X121020491Y-135864143D01*
X121028525Y-135896219D01*
X121033377Y-135928929D01*
X121035000Y-135961956D01*
X121035000Y-137088044D01*
X121033377Y-137121071D01*
X121028525Y-137153781D01*
X121020491Y-137185857D01*
X121009351Y-137216991D01*
X120995213Y-137246884D01*
X120978213Y-137275247D01*
X120958515Y-137301807D01*
X120936308Y-137326308D01*
X120911807Y-137348515D01*
X120885247Y-137368213D01*
X120856884Y-137385213D01*
X120826991Y-137399351D01*
X120795857Y-137410491D01*
X120763781Y-137418525D01*
X120731071Y-137423377D01*
X120698044Y-137425000D01*
X119821956Y-137425000D01*
X119788929Y-137423377D01*
X119756219Y-137418525D01*
X119724143Y-137410491D01*
X119693009Y-137399351D01*
X119663116Y-137385213D01*
X119634753Y-137368213D01*
X119608193Y-137348515D01*
X119583692Y-137326308D01*
X119561485Y-137301807D01*
X119541787Y-137275247D01*
X119524787Y-137246884D01*
X119510649Y-137216991D01*
X119499509Y-137185857D01*
X119491475Y-137153781D01*
X119486623Y-137121071D01*
X119485000Y-137088044D01*
X119485000Y-135961956D01*
X119486623Y-135928929D01*
X119491475Y-135896219D01*
X119499509Y-135864143D01*
X119510649Y-135833009D01*
X119524787Y-135803116D01*
X119541787Y-135774753D01*
X119561485Y-135748193D01*
X119583692Y-135723692D01*
X119608193Y-135701485D01*
X119634753Y-135681787D01*
X119663116Y-135664787D01*
X119693009Y-135650649D01*
X119724143Y-135639509D01*
X119756219Y-135631475D01*
X119788929Y-135626623D01*
X119821956Y-135625000D01*
X120698044Y-135625000D01*
X120731071Y-135626623D01*
X120731071Y-135626623D01*
G37*
D13*
X120260000Y-136525000D03*
G04 #@! TD*
D16*
G04 #@! TO.C,CN11*
X73660000Y-173990000D03*
X71120000Y-173990000D03*
X73660000Y-171450000D03*
X71120000Y-171450000D03*
X73660000Y-168910000D03*
X71120000Y-168910000D03*
X73660000Y-166370000D03*
X71120000Y-166370000D03*
X73660000Y-163830000D03*
X71120000Y-163830000D03*
X73660000Y-161290000D03*
X71120000Y-161290000D03*
X73660000Y-158750000D03*
X71120000Y-158750000D03*
X73660000Y-156210000D03*
X71120000Y-156210000D03*
X73660000Y-153670000D03*
X71120000Y-153670000D03*
X73660000Y-151130000D03*
X71120000Y-151130000D03*
X73660000Y-148590000D03*
X71120000Y-148590000D03*
X73660000Y-146050000D03*
X71120000Y-146050000D03*
X73660000Y-143510000D03*
X71120000Y-143510000D03*
X73660000Y-140970000D03*
X71120000Y-140970000D03*
X73660000Y-138430000D03*
X71120000Y-138430000D03*
X73660000Y-135890000D03*
X71120000Y-135890000D03*
X73660000Y-133350000D03*
X71120000Y-133350000D03*
X73660000Y-130810000D03*
X71120000Y-130810000D03*
X73660000Y-128270000D03*
X71120000Y-128270000D03*
X73660000Y-125730000D03*
X71120000Y-125730000D03*
X73660000Y-123190000D03*
X71120000Y-123190000D03*
X73660000Y-120650000D03*
X71120000Y-120650000D03*
X73660000Y-118110000D03*
X71120000Y-118110000D03*
X73660000Y-115570000D03*
X71120000Y-115570000D03*
X73660000Y-113030000D03*
X71120000Y-113030000D03*
X73660000Y-110490000D03*
X71120000Y-110490000D03*
X73660000Y-107950000D03*
X71120000Y-107950000D03*
X73660000Y-105410000D03*
X71120000Y-105410000D03*
X73660000Y-102870000D03*
X71120000Y-102870000D03*
X73660000Y-100330000D03*
X71120000Y-100330000D03*
X73660000Y-97790000D03*
X71120000Y-97790000D03*
X73660000Y-95250000D03*
X71120000Y-95250000D03*
X73660000Y-92710000D03*
X71120000Y-92710000D03*
X73660000Y-90170000D03*
X71120000Y-90170000D03*
X73660000Y-87630000D03*
D17*
X71120000Y-87630000D03*
G04 #@! TD*
G04 #@! TO.C,CN12*
X129540000Y-87630000D03*
D16*
X132080000Y-87630000D03*
X129540000Y-90170000D03*
X132080000Y-90170000D03*
X129540000Y-92710000D03*
X132080000Y-92710000D03*
X129540000Y-95250000D03*
X132080000Y-95250000D03*
X129540000Y-97790000D03*
X132080000Y-97790000D03*
X129540000Y-100330000D03*
X132080000Y-100330000D03*
X129540000Y-102870000D03*
X132080000Y-102870000D03*
X129540000Y-105410000D03*
X132080000Y-105410000D03*
X129540000Y-107950000D03*
X132080000Y-107950000D03*
X129540000Y-110490000D03*
X132080000Y-110490000D03*
X129540000Y-113030000D03*
X132080000Y-113030000D03*
X129540000Y-115570000D03*
X132080000Y-115570000D03*
X129540000Y-118110000D03*
X132080000Y-118110000D03*
X129540000Y-120650000D03*
X132080000Y-120650000D03*
X129540000Y-123190000D03*
X132080000Y-123190000D03*
X132080000Y-125730000D03*
X129540000Y-128270000D03*
X132080000Y-128270000D03*
X129540000Y-130810000D03*
X132080000Y-130810000D03*
X129540000Y-133350000D03*
X132080000Y-133350000D03*
X129540000Y-135890000D03*
X132080000Y-135890000D03*
X129540000Y-138430000D03*
X132080000Y-138430000D03*
X129540000Y-140970000D03*
X132080000Y-140970000D03*
X129540000Y-143510000D03*
X132080000Y-143510000D03*
X129540000Y-146050000D03*
X132080000Y-146050000D03*
X129540000Y-148590000D03*
X132080000Y-148590000D03*
X129540000Y-151130000D03*
X132080000Y-151130000D03*
X129540000Y-153670000D03*
X132080000Y-153670000D03*
X129540000Y-156210000D03*
X132080000Y-156210000D03*
X129540000Y-158750000D03*
X132080000Y-158750000D03*
X129540000Y-161290000D03*
X132080000Y-161290000D03*
X129540000Y-163830000D03*
X132080000Y-163830000D03*
X129540000Y-166370000D03*
X132080000Y-166370000D03*
X129540000Y-168910000D03*
X132080000Y-168910000D03*
X129540000Y-171450000D03*
X132080000Y-171450000D03*
X129540000Y-173990000D03*
X132080000Y-173990000D03*
G04 #@! TD*
D15*
G04 #@! TO.C,JOUT1*
X121920000Y-175260000D03*
D14*
X121920000Y-162560000D03*
X121920000Y-168910000D03*
X105690000Y-175260000D03*
X105690000Y-162560000D03*
X105690000Y-168910000D03*
G04 #@! TD*
D18*
G04 #@! TO.C,RV3*
X90250000Y-122555000D03*
X92750000Y-117555000D03*
X95250000Y-122555000D03*
G04 #@! TD*
G04 #@! TO.C,RV4*
X108030000Y-122555000D03*
X110530000Y-117555000D03*
X113030000Y-122555000D03*
G04 #@! TD*
D12*
G04 #@! TO.C,R1*
G36*
X88861071Y-145666623D02*
X88893781Y-145671475D01*
X88925857Y-145679509D01*
X88956991Y-145690649D01*
X88986884Y-145704787D01*
X89015247Y-145721787D01*
X89041807Y-145741485D01*
X89066308Y-145763692D01*
X89088515Y-145788193D01*
X89108213Y-145814753D01*
X89125213Y-145843116D01*
X89139351Y-145873009D01*
X89150491Y-145904143D01*
X89158525Y-145936219D01*
X89163377Y-145968929D01*
X89165000Y-146001956D01*
X89165000Y-146878044D01*
X89163377Y-146911071D01*
X89158525Y-146943781D01*
X89150491Y-146975857D01*
X89139351Y-147006991D01*
X89125213Y-147036884D01*
X89108213Y-147065247D01*
X89088515Y-147091807D01*
X89066308Y-147116308D01*
X89041807Y-147138515D01*
X89015247Y-147158213D01*
X88986884Y-147175213D01*
X88956991Y-147189351D01*
X88925857Y-147200491D01*
X88893781Y-147208525D01*
X88861071Y-147213377D01*
X88828044Y-147215000D01*
X87701956Y-147215000D01*
X87668929Y-147213377D01*
X87636219Y-147208525D01*
X87604143Y-147200491D01*
X87573009Y-147189351D01*
X87543116Y-147175213D01*
X87514753Y-147158213D01*
X87488193Y-147138515D01*
X87463692Y-147116308D01*
X87441485Y-147091807D01*
X87421787Y-147065247D01*
X87404787Y-147036884D01*
X87390649Y-147006991D01*
X87379509Y-146975857D01*
X87371475Y-146943781D01*
X87366623Y-146911071D01*
X87365000Y-146878044D01*
X87365000Y-146001956D01*
X87366623Y-145968929D01*
X87371475Y-145936219D01*
X87379509Y-145904143D01*
X87390649Y-145873009D01*
X87404787Y-145843116D01*
X87421787Y-145814753D01*
X87441485Y-145788193D01*
X87463692Y-145763692D01*
X87488193Y-145741485D01*
X87514753Y-145721787D01*
X87543116Y-145704787D01*
X87573009Y-145690649D01*
X87604143Y-145679509D01*
X87636219Y-145671475D01*
X87668929Y-145666623D01*
X87701956Y-145665000D01*
X88828044Y-145665000D01*
X88861071Y-145666623D01*
X88861071Y-145666623D01*
G37*
D13*
X88265000Y-146440000D03*
D12*
G36*
X88861071Y-143616623D02*
X88893781Y-143621475D01*
X88925857Y-143629509D01*
X88956991Y-143640649D01*
X88986884Y-143654787D01*
X89015247Y-143671787D01*
X89041807Y-143691485D01*
X89066308Y-143713692D01*
X89088515Y-143738193D01*
X89108213Y-143764753D01*
X89125213Y-143793116D01*
X89139351Y-143823009D01*
X89150491Y-143854143D01*
X89158525Y-143886219D01*
X89163377Y-143918929D01*
X89165000Y-143951956D01*
X89165000Y-144828044D01*
X89163377Y-144861071D01*
X89158525Y-144893781D01*
X89150491Y-144925857D01*
X89139351Y-144956991D01*
X89125213Y-144986884D01*
X89108213Y-145015247D01*
X89088515Y-145041807D01*
X89066308Y-145066308D01*
X89041807Y-145088515D01*
X89015247Y-145108213D01*
X88986884Y-145125213D01*
X88956991Y-145139351D01*
X88925857Y-145150491D01*
X88893781Y-145158525D01*
X88861071Y-145163377D01*
X88828044Y-145165000D01*
X87701956Y-145165000D01*
X87668929Y-145163377D01*
X87636219Y-145158525D01*
X87604143Y-145150491D01*
X87573009Y-145139351D01*
X87543116Y-145125213D01*
X87514753Y-145108213D01*
X87488193Y-145088515D01*
X87463692Y-145066308D01*
X87441485Y-145041807D01*
X87421787Y-145015247D01*
X87404787Y-144986884D01*
X87390649Y-144956991D01*
X87379509Y-144925857D01*
X87371475Y-144893781D01*
X87366623Y-144861071D01*
X87365000Y-144828044D01*
X87365000Y-143951956D01*
X87366623Y-143918929D01*
X87371475Y-143886219D01*
X87379509Y-143854143D01*
X87390649Y-143823009D01*
X87404787Y-143793116D01*
X87421787Y-143764753D01*
X87441485Y-143738193D01*
X87463692Y-143713692D01*
X87488193Y-143691485D01*
X87514753Y-143671787D01*
X87543116Y-143654787D01*
X87573009Y-143640649D01*
X87604143Y-143629509D01*
X87636219Y-143621475D01*
X87668929Y-143616623D01*
X87701956Y-143615000D01*
X88828044Y-143615000D01*
X88861071Y-143616623D01*
X88861071Y-143616623D01*
G37*
D13*
X88265000Y-144390000D03*
G04 #@! TD*
D12*
G04 #@! TO.C,R2*
G36*
X92036071Y-143616623D02*
X92068781Y-143621475D01*
X92100857Y-143629509D01*
X92131991Y-143640649D01*
X92161884Y-143654787D01*
X92190247Y-143671787D01*
X92216807Y-143691485D01*
X92241308Y-143713692D01*
X92263515Y-143738193D01*
X92283213Y-143764753D01*
X92300213Y-143793116D01*
X92314351Y-143823009D01*
X92325491Y-143854143D01*
X92333525Y-143886219D01*
X92338377Y-143918929D01*
X92340000Y-143951956D01*
X92340000Y-144828044D01*
X92338377Y-144861071D01*
X92333525Y-144893781D01*
X92325491Y-144925857D01*
X92314351Y-144956991D01*
X92300213Y-144986884D01*
X92283213Y-145015247D01*
X92263515Y-145041807D01*
X92241308Y-145066308D01*
X92216807Y-145088515D01*
X92190247Y-145108213D01*
X92161884Y-145125213D01*
X92131991Y-145139351D01*
X92100857Y-145150491D01*
X92068781Y-145158525D01*
X92036071Y-145163377D01*
X92003044Y-145165000D01*
X90876956Y-145165000D01*
X90843929Y-145163377D01*
X90811219Y-145158525D01*
X90779143Y-145150491D01*
X90748009Y-145139351D01*
X90718116Y-145125213D01*
X90689753Y-145108213D01*
X90663193Y-145088515D01*
X90638692Y-145066308D01*
X90616485Y-145041807D01*
X90596787Y-145015247D01*
X90579787Y-144986884D01*
X90565649Y-144956991D01*
X90554509Y-144925857D01*
X90546475Y-144893781D01*
X90541623Y-144861071D01*
X90540000Y-144828044D01*
X90540000Y-143951956D01*
X90541623Y-143918929D01*
X90546475Y-143886219D01*
X90554509Y-143854143D01*
X90565649Y-143823009D01*
X90579787Y-143793116D01*
X90596787Y-143764753D01*
X90616485Y-143738193D01*
X90638692Y-143713692D01*
X90663193Y-143691485D01*
X90689753Y-143671787D01*
X90718116Y-143654787D01*
X90748009Y-143640649D01*
X90779143Y-143629509D01*
X90811219Y-143621475D01*
X90843929Y-143616623D01*
X90876956Y-143615000D01*
X92003044Y-143615000D01*
X92036071Y-143616623D01*
X92036071Y-143616623D01*
G37*
D13*
X91440000Y-144390000D03*
D12*
G36*
X92036071Y-145666623D02*
X92068781Y-145671475D01*
X92100857Y-145679509D01*
X92131991Y-145690649D01*
X92161884Y-145704787D01*
X92190247Y-145721787D01*
X92216807Y-145741485D01*
X92241308Y-145763692D01*
X92263515Y-145788193D01*
X92283213Y-145814753D01*
X92300213Y-145843116D01*
X92314351Y-145873009D01*
X92325491Y-145904143D01*
X92333525Y-145936219D01*
X92338377Y-145968929D01*
X92340000Y-146001956D01*
X92340000Y-146878044D01*
X92338377Y-146911071D01*
X92333525Y-146943781D01*
X92325491Y-146975857D01*
X92314351Y-147006991D01*
X92300213Y-147036884D01*
X92283213Y-147065247D01*
X92263515Y-147091807D01*
X92241308Y-147116308D01*
X92216807Y-147138515D01*
X92190247Y-147158213D01*
X92161884Y-147175213D01*
X92131991Y-147189351D01*
X92100857Y-147200491D01*
X92068781Y-147208525D01*
X92036071Y-147213377D01*
X92003044Y-147215000D01*
X90876956Y-147215000D01*
X90843929Y-147213377D01*
X90811219Y-147208525D01*
X90779143Y-147200491D01*
X90748009Y-147189351D01*
X90718116Y-147175213D01*
X90689753Y-147158213D01*
X90663193Y-147138515D01*
X90638692Y-147116308D01*
X90616485Y-147091807D01*
X90596787Y-147065247D01*
X90579787Y-147036884D01*
X90565649Y-147006991D01*
X90554509Y-146975857D01*
X90546475Y-146943781D01*
X90541623Y-146911071D01*
X90540000Y-146878044D01*
X90540000Y-146001956D01*
X90541623Y-145968929D01*
X90546475Y-145936219D01*
X90554509Y-145904143D01*
X90565649Y-145873009D01*
X90579787Y-145843116D01*
X90596787Y-145814753D01*
X90616485Y-145788193D01*
X90638692Y-145763692D01*
X90663193Y-145741485D01*
X90689753Y-145721787D01*
X90718116Y-145704787D01*
X90748009Y-145690649D01*
X90779143Y-145679509D01*
X90811219Y-145671475D01*
X90843929Y-145666623D01*
X90876956Y-145665000D01*
X92003044Y-145665000D01*
X92036071Y-145666623D01*
X92036071Y-145666623D01*
G37*
D13*
X91440000Y-146440000D03*
G04 #@! TD*
D12*
G04 #@! TO.C,R3*
G36*
X81241071Y-138291623D02*
X81273781Y-138296475D01*
X81305857Y-138304509D01*
X81336991Y-138315649D01*
X81366884Y-138329787D01*
X81395247Y-138346787D01*
X81421807Y-138366485D01*
X81446308Y-138388692D01*
X81468515Y-138413193D01*
X81488213Y-138439753D01*
X81505213Y-138468116D01*
X81519351Y-138498009D01*
X81530491Y-138529143D01*
X81538525Y-138561219D01*
X81543377Y-138593929D01*
X81545000Y-138626956D01*
X81545000Y-139503044D01*
X81543377Y-139536071D01*
X81538525Y-139568781D01*
X81530491Y-139600857D01*
X81519351Y-139631991D01*
X81505213Y-139661884D01*
X81488213Y-139690247D01*
X81468515Y-139716807D01*
X81446308Y-139741308D01*
X81421807Y-139763515D01*
X81395247Y-139783213D01*
X81366884Y-139800213D01*
X81336991Y-139814351D01*
X81305857Y-139825491D01*
X81273781Y-139833525D01*
X81241071Y-139838377D01*
X81208044Y-139840000D01*
X80081956Y-139840000D01*
X80048929Y-139838377D01*
X80016219Y-139833525D01*
X79984143Y-139825491D01*
X79953009Y-139814351D01*
X79923116Y-139800213D01*
X79894753Y-139783213D01*
X79868193Y-139763515D01*
X79843692Y-139741308D01*
X79821485Y-139716807D01*
X79801787Y-139690247D01*
X79784787Y-139661884D01*
X79770649Y-139631991D01*
X79759509Y-139600857D01*
X79751475Y-139568781D01*
X79746623Y-139536071D01*
X79745000Y-139503044D01*
X79745000Y-138626956D01*
X79746623Y-138593929D01*
X79751475Y-138561219D01*
X79759509Y-138529143D01*
X79770649Y-138498009D01*
X79784787Y-138468116D01*
X79801787Y-138439753D01*
X79821485Y-138413193D01*
X79843692Y-138388692D01*
X79868193Y-138366485D01*
X79894753Y-138346787D01*
X79923116Y-138329787D01*
X79953009Y-138315649D01*
X79984143Y-138304509D01*
X80016219Y-138296475D01*
X80048929Y-138291623D01*
X80081956Y-138290000D01*
X81208044Y-138290000D01*
X81241071Y-138291623D01*
X81241071Y-138291623D01*
G37*
D13*
X80645000Y-139065000D03*
D12*
G36*
X81241071Y-140341623D02*
X81273781Y-140346475D01*
X81305857Y-140354509D01*
X81336991Y-140365649D01*
X81366884Y-140379787D01*
X81395247Y-140396787D01*
X81421807Y-140416485D01*
X81446308Y-140438692D01*
X81468515Y-140463193D01*
X81488213Y-140489753D01*
X81505213Y-140518116D01*
X81519351Y-140548009D01*
X81530491Y-140579143D01*
X81538525Y-140611219D01*
X81543377Y-140643929D01*
X81545000Y-140676956D01*
X81545000Y-141553044D01*
X81543377Y-141586071D01*
X81538525Y-141618781D01*
X81530491Y-141650857D01*
X81519351Y-141681991D01*
X81505213Y-141711884D01*
X81488213Y-141740247D01*
X81468515Y-141766807D01*
X81446308Y-141791308D01*
X81421807Y-141813515D01*
X81395247Y-141833213D01*
X81366884Y-141850213D01*
X81336991Y-141864351D01*
X81305857Y-141875491D01*
X81273781Y-141883525D01*
X81241071Y-141888377D01*
X81208044Y-141890000D01*
X80081956Y-141890000D01*
X80048929Y-141888377D01*
X80016219Y-141883525D01*
X79984143Y-141875491D01*
X79953009Y-141864351D01*
X79923116Y-141850213D01*
X79894753Y-141833213D01*
X79868193Y-141813515D01*
X79843692Y-141791308D01*
X79821485Y-141766807D01*
X79801787Y-141740247D01*
X79784787Y-141711884D01*
X79770649Y-141681991D01*
X79759509Y-141650857D01*
X79751475Y-141618781D01*
X79746623Y-141586071D01*
X79745000Y-141553044D01*
X79745000Y-140676956D01*
X79746623Y-140643929D01*
X79751475Y-140611219D01*
X79759509Y-140579143D01*
X79770649Y-140548009D01*
X79784787Y-140518116D01*
X79801787Y-140489753D01*
X79821485Y-140463193D01*
X79843692Y-140438692D01*
X79868193Y-140416485D01*
X79894753Y-140396787D01*
X79923116Y-140379787D01*
X79953009Y-140365649D01*
X79984143Y-140354509D01*
X80016219Y-140346475D01*
X80048929Y-140341623D01*
X80081956Y-140340000D01*
X81208044Y-140340000D01*
X81241071Y-140341623D01*
X81241071Y-140341623D01*
G37*
D13*
X80645000Y-141115000D03*
G04 #@! TD*
D12*
G04 #@! TO.C,R7*
G36*
X122897071Y-146156623D02*
X122929781Y-146161475D01*
X122961857Y-146169509D01*
X122992991Y-146180649D01*
X123022884Y-146194787D01*
X123051247Y-146211787D01*
X123077807Y-146231485D01*
X123102308Y-146253692D01*
X123124515Y-146278193D01*
X123144213Y-146304753D01*
X123161213Y-146333116D01*
X123175351Y-146363009D01*
X123186491Y-146394143D01*
X123194525Y-146426219D01*
X123199377Y-146458929D01*
X123201000Y-146491956D01*
X123201000Y-147368044D01*
X123199377Y-147401071D01*
X123194525Y-147433781D01*
X123186491Y-147465857D01*
X123175351Y-147496991D01*
X123161213Y-147526884D01*
X123144213Y-147555247D01*
X123124515Y-147581807D01*
X123102308Y-147606308D01*
X123077807Y-147628515D01*
X123051247Y-147648213D01*
X123022884Y-147665213D01*
X122992991Y-147679351D01*
X122961857Y-147690491D01*
X122929781Y-147698525D01*
X122897071Y-147703377D01*
X122864044Y-147705000D01*
X121737956Y-147705000D01*
X121704929Y-147703377D01*
X121672219Y-147698525D01*
X121640143Y-147690491D01*
X121609009Y-147679351D01*
X121579116Y-147665213D01*
X121550753Y-147648213D01*
X121524193Y-147628515D01*
X121499692Y-147606308D01*
X121477485Y-147581807D01*
X121457787Y-147555247D01*
X121440787Y-147526884D01*
X121426649Y-147496991D01*
X121415509Y-147465857D01*
X121407475Y-147433781D01*
X121402623Y-147401071D01*
X121401000Y-147368044D01*
X121401000Y-146491956D01*
X121402623Y-146458929D01*
X121407475Y-146426219D01*
X121415509Y-146394143D01*
X121426649Y-146363009D01*
X121440787Y-146333116D01*
X121457787Y-146304753D01*
X121477485Y-146278193D01*
X121499692Y-146253692D01*
X121524193Y-146231485D01*
X121550753Y-146211787D01*
X121579116Y-146194787D01*
X121609009Y-146180649D01*
X121640143Y-146169509D01*
X121672219Y-146161475D01*
X121704929Y-146156623D01*
X121737956Y-146155000D01*
X122864044Y-146155000D01*
X122897071Y-146156623D01*
X122897071Y-146156623D01*
G37*
D13*
X122301000Y-146930000D03*
D12*
G36*
X122897071Y-148206623D02*
X122929781Y-148211475D01*
X122961857Y-148219509D01*
X122992991Y-148230649D01*
X123022884Y-148244787D01*
X123051247Y-148261787D01*
X123077807Y-148281485D01*
X123102308Y-148303692D01*
X123124515Y-148328193D01*
X123144213Y-148354753D01*
X123161213Y-148383116D01*
X123175351Y-148413009D01*
X123186491Y-148444143D01*
X123194525Y-148476219D01*
X123199377Y-148508929D01*
X123201000Y-148541956D01*
X123201000Y-149418044D01*
X123199377Y-149451071D01*
X123194525Y-149483781D01*
X123186491Y-149515857D01*
X123175351Y-149546991D01*
X123161213Y-149576884D01*
X123144213Y-149605247D01*
X123124515Y-149631807D01*
X123102308Y-149656308D01*
X123077807Y-149678515D01*
X123051247Y-149698213D01*
X123022884Y-149715213D01*
X122992991Y-149729351D01*
X122961857Y-149740491D01*
X122929781Y-149748525D01*
X122897071Y-149753377D01*
X122864044Y-149755000D01*
X121737956Y-149755000D01*
X121704929Y-149753377D01*
X121672219Y-149748525D01*
X121640143Y-149740491D01*
X121609009Y-149729351D01*
X121579116Y-149715213D01*
X121550753Y-149698213D01*
X121524193Y-149678515D01*
X121499692Y-149656308D01*
X121477485Y-149631807D01*
X121457787Y-149605247D01*
X121440787Y-149576884D01*
X121426649Y-149546991D01*
X121415509Y-149515857D01*
X121407475Y-149483781D01*
X121402623Y-149451071D01*
X121401000Y-149418044D01*
X121401000Y-148541956D01*
X121402623Y-148508929D01*
X121407475Y-148476219D01*
X121415509Y-148444143D01*
X121426649Y-148413009D01*
X121440787Y-148383116D01*
X121457787Y-148354753D01*
X121477485Y-148328193D01*
X121499692Y-148303692D01*
X121524193Y-148281485D01*
X121550753Y-148261787D01*
X121579116Y-148244787D01*
X121609009Y-148230649D01*
X121640143Y-148219509D01*
X121672219Y-148211475D01*
X121704929Y-148206623D01*
X121737956Y-148205000D01*
X122864044Y-148205000D01*
X122897071Y-148206623D01*
X122897071Y-148206623D01*
G37*
D13*
X122301000Y-148980000D03*
G04 #@! TD*
D12*
G04 #@! TO.C,R8*
G36*
X122781071Y-132070623D02*
X122813781Y-132075475D01*
X122845857Y-132083509D01*
X122876991Y-132094649D01*
X122906884Y-132108787D01*
X122935247Y-132125787D01*
X122961807Y-132145485D01*
X122986308Y-132167692D01*
X123008515Y-132192193D01*
X123028213Y-132218753D01*
X123045213Y-132247116D01*
X123059351Y-132277009D01*
X123070491Y-132308143D01*
X123078525Y-132340219D01*
X123083377Y-132372929D01*
X123085000Y-132405956D01*
X123085000Y-133532044D01*
X123083377Y-133565071D01*
X123078525Y-133597781D01*
X123070491Y-133629857D01*
X123059351Y-133660991D01*
X123045213Y-133690884D01*
X123028213Y-133719247D01*
X123008515Y-133745807D01*
X122986308Y-133770308D01*
X122961807Y-133792515D01*
X122935247Y-133812213D01*
X122906884Y-133829213D01*
X122876991Y-133843351D01*
X122845857Y-133854491D01*
X122813781Y-133862525D01*
X122781071Y-133867377D01*
X122748044Y-133869000D01*
X121871956Y-133869000D01*
X121838929Y-133867377D01*
X121806219Y-133862525D01*
X121774143Y-133854491D01*
X121743009Y-133843351D01*
X121713116Y-133829213D01*
X121684753Y-133812213D01*
X121658193Y-133792515D01*
X121633692Y-133770308D01*
X121611485Y-133745807D01*
X121591787Y-133719247D01*
X121574787Y-133690884D01*
X121560649Y-133660991D01*
X121549509Y-133629857D01*
X121541475Y-133597781D01*
X121536623Y-133565071D01*
X121535000Y-133532044D01*
X121535000Y-132405956D01*
X121536623Y-132372929D01*
X121541475Y-132340219D01*
X121549509Y-132308143D01*
X121560649Y-132277009D01*
X121574787Y-132247116D01*
X121591787Y-132218753D01*
X121611485Y-132192193D01*
X121633692Y-132167692D01*
X121658193Y-132145485D01*
X121684753Y-132125787D01*
X121713116Y-132108787D01*
X121743009Y-132094649D01*
X121774143Y-132083509D01*
X121806219Y-132075475D01*
X121838929Y-132070623D01*
X121871956Y-132069000D01*
X122748044Y-132069000D01*
X122781071Y-132070623D01*
X122781071Y-132070623D01*
G37*
D13*
X122310000Y-132969000D03*
D12*
G36*
X120731071Y-132070623D02*
X120763781Y-132075475D01*
X120795857Y-132083509D01*
X120826991Y-132094649D01*
X120856884Y-132108787D01*
X120885247Y-132125787D01*
X120911807Y-132145485D01*
X120936308Y-132167692D01*
X120958515Y-132192193D01*
X120978213Y-132218753D01*
X120995213Y-132247116D01*
X121009351Y-132277009D01*
X121020491Y-132308143D01*
X121028525Y-132340219D01*
X121033377Y-132372929D01*
X121035000Y-132405956D01*
X121035000Y-133532044D01*
X121033377Y-133565071D01*
X121028525Y-133597781D01*
X121020491Y-133629857D01*
X121009351Y-133660991D01*
X120995213Y-133690884D01*
X120978213Y-133719247D01*
X120958515Y-133745807D01*
X120936308Y-133770308D01*
X120911807Y-133792515D01*
X120885247Y-133812213D01*
X120856884Y-133829213D01*
X120826991Y-133843351D01*
X120795857Y-133854491D01*
X120763781Y-133862525D01*
X120731071Y-133867377D01*
X120698044Y-133869000D01*
X119821956Y-133869000D01*
X119788929Y-133867377D01*
X119756219Y-133862525D01*
X119724143Y-133854491D01*
X119693009Y-133843351D01*
X119663116Y-133829213D01*
X119634753Y-133812213D01*
X119608193Y-133792515D01*
X119583692Y-133770308D01*
X119561485Y-133745807D01*
X119541787Y-133719247D01*
X119524787Y-133690884D01*
X119510649Y-133660991D01*
X119499509Y-133629857D01*
X119491475Y-133597781D01*
X119486623Y-133565071D01*
X119485000Y-133532044D01*
X119485000Y-132405956D01*
X119486623Y-132372929D01*
X119491475Y-132340219D01*
X119499509Y-132308143D01*
X119510649Y-132277009D01*
X119524787Y-132247116D01*
X119541787Y-132218753D01*
X119561485Y-132192193D01*
X119583692Y-132167692D01*
X119608193Y-132145485D01*
X119634753Y-132125787D01*
X119663116Y-132108787D01*
X119693009Y-132094649D01*
X119724143Y-132083509D01*
X119756219Y-132075475D01*
X119788929Y-132070623D01*
X119821956Y-132069000D01*
X120698044Y-132069000D01*
X120731071Y-132070623D01*
X120731071Y-132070623D01*
G37*
D13*
X120260000Y-132969000D03*
G04 #@! TD*
D12*
G04 #@! TO.C,R9*
G36*
X120865071Y-146156623D02*
X120897781Y-146161475D01*
X120929857Y-146169509D01*
X120960991Y-146180649D01*
X120990884Y-146194787D01*
X121019247Y-146211787D01*
X121045807Y-146231485D01*
X121070308Y-146253692D01*
X121092515Y-146278193D01*
X121112213Y-146304753D01*
X121129213Y-146333116D01*
X121143351Y-146363009D01*
X121154491Y-146394143D01*
X121162525Y-146426219D01*
X121167377Y-146458929D01*
X121169000Y-146491956D01*
X121169000Y-147368044D01*
X121167377Y-147401071D01*
X121162525Y-147433781D01*
X121154491Y-147465857D01*
X121143351Y-147496991D01*
X121129213Y-147526884D01*
X121112213Y-147555247D01*
X121092515Y-147581807D01*
X121070308Y-147606308D01*
X121045807Y-147628515D01*
X121019247Y-147648213D01*
X120990884Y-147665213D01*
X120960991Y-147679351D01*
X120929857Y-147690491D01*
X120897781Y-147698525D01*
X120865071Y-147703377D01*
X120832044Y-147705000D01*
X119705956Y-147705000D01*
X119672929Y-147703377D01*
X119640219Y-147698525D01*
X119608143Y-147690491D01*
X119577009Y-147679351D01*
X119547116Y-147665213D01*
X119518753Y-147648213D01*
X119492193Y-147628515D01*
X119467692Y-147606308D01*
X119445485Y-147581807D01*
X119425787Y-147555247D01*
X119408787Y-147526884D01*
X119394649Y-147496991D01*
X119383509Y-147465857D01*
X119375475Y-147433781D01*
X119370623Y-147401071D01*
X119369000Y-147368044D01*
X119369000Y-146491956D01*
X119370623Y-146458929D01*
X119375475Y-146426219D01*
X119383509Y-146394143D01*
X119394649Y-146363009D01*
X119408787Y-146333116D01*
X119425787Y-146304753D01*
X119445485Y-146278193D01*
X119467692Y-146253692D01*
X119492193Y-146231485D01*
X119518753Y-146211787D01*
X119547116Y-146194787D01*
X119577009Y-146180649D01*
X119608143Y-146169509D01*
X119640219Y-146161475D01*
X119672929Y-146156623D01*
X119705956Y-146155000D01*
X120832044Y-146155000D01*
X120865071Y-146156623D01*
X120865071Y-146156623D01*
G37*
D13*
X120269000Y-146930000D03*
D12*
G36*
X120865071Y-148206623D02*
X120897781Y-148211475D01*
X120929857Y-148219509D01*
X120960991Y-148230649D01*
X120990884Y-148244787D01*
X121019247Y-148261787D01*
X121045807Y-148281485D01*
X121070308Y-148303692D01*
X121092515Y-148328193D01*
X121112213Y-148354753D01*
X121129213Y-148383116D01*
X121143351Y-148413009D01*
X121154491Y-148444143D01*
X121162525Y-148476219D01*
X121167377Y-148508929D01*
X121169000Y-148541956D01*
X121169000Y-149418044D01*
X121167377Y-149451071D01*
X121162525Y-149483781D01*
X121154491Y-149515857D01*
X121143351Y-149546991D01*
X121129213Y-149576884D01*
X121112213Y-149605247D01*
X121092515Y-149631807D01*
X121070308Y-149656308D01*
X121045807Y-149678515D01*
X121019247Y-149698213D01*
X120990884Y-149715213D01*
X120960991Y-149729351D01*
X120929857Y-149740491D01*
X120897781Y-149748525D01*
X120865071Y-149753377D01*
X120832044Y-149755000D01*
X119705956Y-149755000D01*
X119672929Y-149753377D01*
X119640219Y-149748525D01*
X119608143Y-149740491D01*
X119577009Y-149729351D01*
X119547116Y-149715213D01*
X119518753Y-149698213D01*
X119492193Y-149678515D01*
X119467692Y-149656308D01*
X119445485Y-149631807D01*
X119425787Y-149605247D01*
X119408787Y-149576884D01*
X119394649Y-149546991D01*
X119383509Y-149515857D01*
X119375475Y-149483781D01*
X119370623Y-149451071D01*
X119369000Y-149418044D01*
X119369000Y-148541956D01*
X119370623Y-148508929D01*
X119375475Y-148476219D01*
X119383509Y-148444143D01*
X119394649Y-148413009D01*
X119408787Y-148383116D01*
X119425787Y-148354753D01*
X119445485Y-148328193D01*
X119467692Y-148303692D01*
X119492193Y-148281485D01*
X119518753Y-148261787D01*
X119547116Y-148244787D01*
X119577009Y-148230649D01*
X119608143Y-148219509D01*
X119640219Y-148211475D01*
X119672929Y-148206623D01*
X119705956Y-148205000D01*
X120832044Y-148205000D01*
X120865071Y-148206623D01*
X120865071Y-148206623D01*
G37*
D13*
X120269000Y-148980000D03*
G04 #@! TD*
D12*
G04 #@! TO.C,R11*
G36*
X92036071Y-111231623D02*
X92068781Y-111236475D01*
X92100857Y-111244509D01*
X92131991Y-111255649D01*
X92161884Y-111269787D01*
X92190247Y-111286787D01*
X92216807Y-111306485D01*
X92241308Y-111328692D01*
X92263515Y-111353193D01*
X92283213Y-111379753D01*
X92300213Y-111408116D01*
X92314351Y-111438009D01*
X92325491Y-111469143D01*
X92333525Y-111501219D01*
X92338377Y-111533929D01*
X92340000Y-111566956D01*
X92340000Y-112443044D01*
X92338377Y-112476071D01*
X92333525Y-112508781D01*
X92325491Y-112540857D01*
X92314351Y-112571991D01*
X92300213Y-112601884D01*
X92283213Y-112630247D01*
X92263515Y-112656807D01*
X92241308Y-112681308D01*
X92216807Y-112703515D01*
X92190247Y-112723213D01*
X92161884Y-112740213D01*
X92131991Y-112754351D01*
X92100857Y-112765491D01*
X92068781Y-112773525D01*
X92036071Y-112778377D01*
X92003044Y-112780000D01*
X90876956Y-112780000D01*
X90843929Y-112778377D01*
X90811219Y-112773525D01*
X90779143Y-112765491D01*
X90748009Y-112754351D01*
X90718116Y-112740213D01*
X90689753Y-112723213D01*
X90663193Y-112703515D01*
X90638692Y-112681308D01*
X90616485Y-112656807D01*
X90596787Y-112630247D01*
X90579787Y-112601884D01*
X90565649Y-112571991D01*
X90554509Y-112540857D01*
X90546475Y-112508781D01*
X90541623Y-112476071D01*
X90540000Y-112443044D01*
X90540000Y-111566956D01*
X90541623Y-111533929D01*
X90546475Y-111501219D01*
X90554509Y-111469143D01*
X90565649Y-111438009D01*
X90579787Y-111408116D01*
X90596787Y-111379753D01*
X90616485Y-111353193D01*
X90638692Y-111328692D01*
X90663193Y-111306485D01*
X90689753Y-111286787D01*
X90718116Y-111269787D01*
X90748009Y-111255649D01*
X90779143Y-111244509D01*
X90811219Y-111236475D01*
X90843929Y-111231623D01*
X90876956Y-111230000D01*
X92003044Y-111230000D01*
X92036071Y-111231623D01*
X92036071Y-111231623D01*
G37*
D13*
X91440000Y-112005000D03*
D12*
G36*
X92036071Y-113281623D02*
X92068781Y-113286475D01*
X92100857Y-113294509D01*
X92131991Y-113305649D01*
X92161884Y-113319787D01*
X92190247Y-113336787D01*
X92216807Y-113356485D01*
X92241308Y-113378692D01*
X92263515Y-113403193D01*
X92283213Y-113429753D01*
X92300213Y-113458116D01*
X92314351Y-113488009D01*
X92325491Y-113519143D01*
X92333525Y-113551219D01*
X92338377Y-113583929D01*
X92340000Y-113616956D01*
X92340000Y-114493044D01*
X92338377Y-114526071D01*
X92333525Y-114558781D01*
X92325491Y-114590857D01*
X92314351Y-114621991D01*
X92300213Y-114651884D01*
X92283213Y-114680247D01*
X92263515Y-114706807D01*
X92241308Y-114731308D01*
X92216807Y-114753515D01*
X92190247Y-114773213D01*
X92161884Y-114790213D01*
X92131991Y-114804351D01*
X92100857Y-114815491D01*
X92068781Y-114823525D01*
X92036071Y-114828377D01*
X92003044Y-114830000D01*
X90876956Y-114830000D01*
X90843929Y-114828377D01*
X90811219Y-114823525D01*
X90779143Y-114815491D01*
X90748009Y-114804351D01*
X90718116Y-114790213D01*
X90689753Y-114773213D01*
X90663193Y-114753515D01*
X90638692Y-114731308D01*
X90616485Y-114706807D01*
X90596787Y-114680247D01*
X90579787Y-114651884D01*
X90565649Y-114621991D01*
X90554509Y-114590857D01*
X90546475Y-114558781D01*
X90541623Y-114526071D01*
X90540000Y-114493044D01*
X90540000Y-113616956D01*
X90541623Y-113583929D01*
X90546475Y-113551219D01*
X90554509Y-113519143D01*
X90565649Y-113488009D01*
X90579787Y-113458116D01*
X90596787Y-113429753D01*
X90616485Y-113403193D01*
X90638692Y-113378692D01*
X90663193Y-113356485D01*
X90689753Y-113336787D01*
X90718116Y-113319787D01*
X90748009Y-113305649D01*
X90779143Y-113294509D01*
X90811219Y-113286475D01*
X90843929Y-113281623D01*
X90876956Y-113280000D01*
X92003044Y-113280000D01*
X92036071Y-113281623D01*
X92036071Y-113281623D01*
G37*
D13*
X91440000Y-114055000D03*
G04 #@! TD*
D12*
G04 #@! TO.C,R12*
G36*
X88861071Y-113281623D02*
X88893781Y-113286475D01*
X88925857Y-113294509D01*
X88956991Y-113305649D01*
X88986884Y-113319787D01*
X89015247Y-113336787D01*
X89041807Y-113356485D01*
X89066308Y-113378692D01*
X89088515Y-113403193D01*
X89108213Y-113429753D01*
X89125213Y-113458116D01*
X89139351Y-113488009D01*
X89150491Y-113519143D01*
X89158525Y-113551219D01*
X89163377Y-113583929D01*
X89165000Y-113616956D01*
X89165000Y-114493044D01*
X89163377Y-114526071D01*
X89158525Y-114558781D01*
X89150491Y-114590857D01*
X89139351Y-114621991D01*
X89125213Y-114651884D01*
X89108213Y-114680247D01*
X89088515Y-114706807D01*
X89066308Y-114731308D01*
X89041807Y-114753515D01*
X89015247Y-114773213D01*
X88986884Y-114790213D01*
X88956991Y-114804351D01*
X88925857Y-114815491D01*
X88893781Y-114823525D01*
X88861071Y-114828377D01*
X88828044Y-114830000D01*
X87701956Y-114830000D01*
X87668929Y-114828377D01*
X87636219Y-114823525D01*
X87604143Y-114815491D01*
X87573009Y-114804351D01*
X87543116Y-114790213D01*
X87514753Y-114773213D01*
X87488193Y-114753515D01*
X87463692Y-114731308D01*
X87441485Y-114706807D01*
X87421787Y-114680247D01*
X87404787Y-114651884D01*
X87390649Y-114621991D01*
X87379509Y-114590857D01*
X87371475Y-114558781D01*
X87366623Y-114526071D01*
X87365000Y-114493044D01*
X87365000Y-113616956D01*
X87366623Y-113583929D01*
X87371475Y-113551219D01*
X87379509Y-113519143D01*
X87390649Y-113488009D01*
X87404787Y-113458116D01*
X87421787Y-113429753D01*
X87441485Y-113403193D01*
X87463692Y-113378692D01*
X87488193Y-113356485D01*
X87514753Y-113336787D01*
X87543116Y-113319787D01*
X87573009Y-113305649D01*
X87604143Y-113294509D01*
X87636219Y-113286475D01*
X87668929Y-113281623D01*
X87701956Y-113280000D01*
X88828044Y-113280000D01*
X88861071Y-113281623D01*
X88861071Y-113281623D01*
G37*
D13*
X88265000Y-114055000D03*
D12*
G36*
X88861071Y-111231623D02*
X88893781Y-111236475D01*
X88925857Y-111244509D01*
X88956991Y-111255649D01*
X88986884Y-111269787D01*
X89015247Y-111286787D01*
X89041807Y-111306485D01*
X89066308Y-111328692D01*
X89088515Y-111353193D01*
X89108213Y-111379753D01*
X89125213Y-111408116D01*
X89139351Y-111438009D01*
X89150491Y-111469143D01*
X89158525Y-111501219D01*
X89163377Y-111533929D01*
X89165000Y-111566956D01*
X89165000Y-112443044D01*
X89163377Y-112476071D01*
X89158525Y-112508781D01*
X89150491Y-112540857D01*
X89139351Y-112571991D01*
X89125213Y-112601884D01*
X89108213Y-112630247D01*
X89088515Y-112656807D01*
X89066308Y-112681308D01*
X89041807Y-112703515D01*
X89015247Y-112723213D01*
X88986884Y-112740213D01*
X88956991Y-112754351D01*
X88925857Y-112765491D01*
X88893781Y-112773525D01*
X88861071Y-112778377D01*
X88828044Y-112780000D01*
X87701956Y-112780000D01*
X87668929Y-112778377D01*
X87636219Y-112773525D01*
X87604143Y-112765491D01*
X87573009Y-112754351D01*
X87543116Y-112740213D01*
X87514753Y-112723213D01*
X87488193Y-112703515D01*
X87463692Y-112681308D01*
X87441485Y-112656807D01*
X87421787Y-112630247D01*
X87404787Y-112601884D01*
X87390649Y-112571991D01*
X87379509Y-112540857D01*
X87371475Y-112508781D01*
X87366623Y-112476071D01*
X87365000Y-112443044D01*
X87365000Y-111566956D01*
X87366623Y-111533929D01*
X87371475Y-111501219D01*
X87379509Y-111469143D01*
X87390649Y-111438009D01*
X87404787Y-111408116D01*
X87421787Y-111379753D01*
X87441485Y-111353193D01*
X87463692Y-111328692D01*
X87488193Y-111306485D01*
X87514753Y-111286787D01*
X87543116Y-111269787D01*
X87573009Y-111255649D01*
X87604143Y-111244509D01*
X87636219Y-111236475D01*
X87668929Y-111231623D01*
X87701956Y-111230000D01*
X88828044Y-111230000D01*
X88861071Y-111231623D01*
X88861071Y-111231623D01*
G37*
D13*
X88265000Y-112005000D03*
G04 #@! TD*
D12*
G04 #@! TO.C,R13*
G36*
X118706071Y-113281623D02*
X118738781Y-113286475D01*
X118770857Y-113294509D01*
X118801991Y-113305649D01*
X118831884Y-113319787D01*
X118860247Y-113336787D01*
X118886807Y-113356485D01*
X118911308Y-113378692D01*
X118933515Y-113403193D01*
X118953213Y-113429753D01*
X118970213Y-113458116D01*
X118984351Y-113488009D01*
X118995491Y-113519143D01*
X119003525Y-113551219D01*
X119008377Y-113583929D01*
X119010000Y-113616956D01*
X119010000Y-114493044D01*
X119008377Y-114526071D01*
X119003525Y-114558781D01*
X118995491Y-114590857D01*
X118984351Y-114621991D01*
X118970213Y-114651884D01*
X118953213Y-114680247D01*
X118933515Y-114706807D01*
X118911308Y-114731308D01*
X118886807Y-114753515D01*
X118860247Y-114773213D01*
X118831884Y-114790213D01*
X118801991Y-114804351D01*
X118770857Y-114815491D01*
X118738781Y-114823525D01*
X118706071Y-114828377D01*
X118673044Y-114830000D01*
X117546956Y-114830000D01*
X117513929Y-114828377D01*
X117481219Y-114823525D01*
X117449143Y-114815491D01*
X117418009Y-114804351D01*
X117388116Y-114790213D01*
X117359753Y-114773213D01*
X117333193Y-114753515D01*
X117308692Y-114731308D01*
X117286485Y-114706807D01*
X117266787Y-114680247D01*
X117249787Y-114651884D01*
X117235649Y-114621991D01*
X117224509Y-114590857D01*
X117216475Y-114558781D01*
X117211623Y-114526071D01*
X117210000Y-114493044D01*
X117210000Y-113616956D01*
X117211623Y-113583929D01*
X117216475Y-113551219D01*
X117224509Y-113519143D01*
X117235649Y-113488009D01*
X117249787Y-113458116D01*
X117266787Y-113429753D01*
X117286485Y-113403193D01*
X117308692Y-113378692D01*
X117333193Y-113356485D01*
X117359753Y-113336787D01*
X117388116Y-113319787D01*
X117418009Y-113305649D01*
X117449143Y-113294509D01*
X117481219Y-113286475D01*
X117513929Y-113281623D01*
X117546956Y-113280000D01*
X118673044Y-113280000D01*
X118706071Y-113281623D01*
X118706071Y-113281623D01*
G37*
D13*
X118110000Y-114055000D03*
D12*
G36*
X118706071Y-111231623D02*
X118738781Y-111236475D01*
X118770857Y-111244509D01*
X118801991Y-111255649D01*
X118831884Y-111269787D01*
X118860247Y-111286787D01*
X118886807Y-111306485D01*
X118911308Y-111328692D01*
X118933515Y-111353193D01*
X118953213Y-111379753D01*
X118970213Y-111408116D01*
X118984351Y-111438009D01*
X118995491Y-111469143D01*
X119003525Y-111501219D01*
X119008377Y-111533929D01*
X119010000Y-111566956D01*
X119010000Y-112443044D01*
X119008377Y-112476071D01*
X119003525Y-112508781D01*
X118995491Y-112540857D01*
X118984351Y-112571991D01*
X118970213Y-112601884D01*
X118953213Y-112630247D01*
X118933515Y-112656807D01*
X118911308Y-112681308D01*
X118886807Y-112703515D01*
X118860247Y-112723213D01*
X118831884Y-112740213D01*
X118801991Y-112754351D01*
X118770857Y-112765491D01*
X118738781Y-112773525D01*
X118706071Y-112778377D01*
X118673044Y-112780000D01*
X117546956Y-112780000D01*
X117513929Y-112778377D01*
X117481219Y-112773525D01*
X117449143Y-112765491D01*
X117418009Y-112754351D01*
X117388116Y-112740213D01*
X117359753Y-112723213D01*
X117333193Y-112703515D01*
X117308692Y-112681308D01*
X117286485Y-112656807D01*
X117266787Y-112630247D01*
X117249787Y-112601884D01*
X117235649Y-112571991D01*
X117224509Y-112540857D01*
X117216475Y-112508781D01*
X117211623Y-112476071D01*
X117210000Y-112443044D01*
X117210000Y-111566956D01*
X117211623Y-111533929D01*
X117216475Y-111501219D01*
X117224509Y-111469143D01*
X117235649Y-111438009D01*
X117249787Y-111408116D01*
X117266787Y-111379753D01*
X117286485Y-111353193D01*
X117308692Y-111328692D01*
X117333193Y-111306485D01*
X117359753Y-111286787D01*
X117388116Y-111269787D01*
X117418009Y-111255649D01*
X117449143Y-111244509D01*
X117481219Y-111236475D01*
X117513929Y-111231623D01*
X117546956Y-111230000D01*
X118673044Y-111230000D01*
X118706071Y-111231623D01*
X118706071Y-111231623D01*
G37*
D13*
X118110000Y-112005000D03*
G04 #@! TD*
D12*
G04 #@! TO.C,R14*
G36*
X115531071Y-113281623D02*
X115563781Y-113286475D01*
X115595857Y-113294509D01*
X115626991Y-113305649D01*
X115656884Y-113319787D01*
X115685247Y-113336787D01*
X115711807Y-113356485D01*
X115736308Y-113378692D01*
X115758515Y-113403193D01*
X115778213Y-113429753D01*
X115795213Y-113458116D01*
X115809351Y-113488009D01*
X115820491Y-113519143D01*
X115828525Y-113551219D01*
X115833377Y-113583929D01*
X115835000Y-113616956D01*
X115835000Y-114493044D01*
X115833377Y-114526071D01*
X115828525Y-114558781D01*
X115820491Y-114590857D01*
X115809351Y-114621991D01*
X115795213Y-114651884D01*
X115778213Y-114680247D01*
X115758515Y-114706807D01*
X115736308Y-114731308D01*
X115711807Y-114753515D01*
X115685247Y-114773213D01*
X115656884Y-114790213D01*
X115626991Y-114804351D01*
X115595857Y-114815491D01*
X115563781Y-114823525D01*
X115531071Y-114828377D01*
X115498044Y-114830000D01*
X114371956Y-114830000D01*
X114338929Y-114828377D01*
X114306219Y-114823525D01*
X114274143Y-114815491D01*
X114243009Y-114804351D01*
X114213116Y-114790213D01*
X114184753Y-114773213D01*
X114158193Y-114753515D01*
X114133692Y-114731308D01*
X114111485Y-114706807D01*
X114091787Y-114680247D01*
X114074787Y-114651884D01*
X114060649Y-114621991D01*
X114049509Y-114590857D01*
X114041475Y-114558781D01*
X114036623Y-114526071D01*
X114035000Y-114493044D01*
X114035000Y-113616956D01*
X114036623Y-113583929D01*
X114041475Y-113551219D01*
X114049509Y-113519143D01*
X114060649Y-113488009D01*
X114074787Y-113458116D01*
X114091787Y-113429753D01*
X114111485Y-113403193D01*
X114133692Y-113378692D01*
X114158193Y-113356485D01*
X114184753Y-113336787D01*
X114213116Y-113319787D01*
X114243009Y-113305649D01*
X114274143Y-113294509D01*
X114306219Y-113286475D01*
X114338929Y-113281623D01*
X114371956Y-113280000D01*
X115498044Y-113280000D01*
X115531071Y-113281623D01*
X115531071Y-113281623D01*
G37*
D13*
X114935000Y-114055000D03*
D12*
G36*
X115531071Y-111231623D02*
X115563781Y-111236475D01*
X115595857Y-111244509D01*
X115626991Y-111255649D01*
X115656884Y-111269787D01*
X115685247Y-111286787D01*
X115711807Y-111306485D01*
X115736308Y-111328692D01*
X115758515Y-111353193D01*
X115778213Y-111379753D01*
X115795213Y-111408116D01*
X115809351Y-111438009D01*
X115820491Y-111469143D01*
X115828525Y-111501219D01*
X115833377Y-111533929D01*
X115835000Y-111566956D01*
X115835000Y-112443044D01*
X115833377Y-112476071D01*
X115828525Y-112508781D01*
X115820491Y-112540857D01*
X115809351Y-112571991D01*
X115795213Y-112601884D01*
X115778213Y-112630247D01*
X115758515Y-112656807D01*
X115736308Y-112681308D01*
X115711807Y-112703515D01*
X115685247Y-112723213D01*
X115656884Y-112740213D01*
X115626991Y-112754351D01*
X115595857Y-112765491D01*
X115563781Y-112773525D01*
X115531071Y-112778377D01*
X115498044Y-112780000D01*
X114371956Y-112780000D01*
X114338929Y-112778377D01*
X114306219Y-112773525D01*
X114274143Y-112765491D01*
X114243009Y-112754351D01*
X114213116Y-112740213D01*
X114184753Y-112723213D01*
X114158193Y-112703515D01*
X114133692Y-112681308D01*
X114111485Y-112656807D01*
X114091787Y-112630247D01*
X114074787Y-112601884D01*
X114060649Y-112571991D01*
X114049509Y-112540857D01*
X114041475Y-112508781D01*
X114036623Y-112476071D01*
X114035000Y-112443044D01*
X114035000Y-111566956D01*
X114036623Y-111533929D01*
X114041475Y-111501219D01*
X114049509Y-111469143D01*
X114060649Y-111438009D01*
X114074787Y-111408116D01*
X114091787Y-111379753D01*
X114111485Y-111353193D01*
X114133692Y-111328692D01*
X114158193Y-111306485D01*
X114184753Y-111286787D01*
X114213116Y-111269787D01*
X114243009Y-111255649D01*
X114274143Y-111244509D01*
X114306219Y-111236475D01*
X114338929Y-111231623D01*
X114371956Y-111230000D01*
X115498044Y-111230000D01*
X115531071Y-111231623D01*
X115531071Y-111231623D01*
G37*
D13*
X114935000Y-112005000D03*
G04 #@! TD*
D12*
G04 #@! TO.C,R15*
G36*
X95211071Y-113281623D02*
X95243781Y-113286475D01*
X95275857Y-113294509D01*
X95306991Y-113305649D01*
X95336884Y-113319787D01*
X95365247Y-113336787D01*
X95391807Y-113356485D01*
X95416308Y-113378692D01*
X95438515Y-113403193D01*
X95458213Y-113429753D01*
X95475213Y-113458116D01*
X95489351Y-113488009D01*
X95500491Y-113519143D01*
X95508525Y-113551219D01*
X95513377Y-113583929D01*
X95515000Y-113616956D01*
X95515000Y-114493044D01*
X95513377Y-114526071D01*
X95508525Y-114558781D01*
X95500491Y-114590857D01*
X95489351Y-114621991D01*
X95475213Y-114651884D01*
X95458213Y-114680247D01*
X95438515Y-114706807D01*
X95416308Y-114731308D01*
X95391807Y-114753515D01*
X95365247Y-114773213D01*
X95336884Y-114790213D01*
X95306991Y-114804351D01*
X95275857Y-114815491D01*
X95243781Y-114823525D01*
X95211071Y-114828377D01*
X95178044Y-114830000D01*
X94051956Y-114830000D01*
X94018929Y-114828377D01*
X93986219Y-114823525D01*
X93954143Y-114815491D01*
X93923009Y-114804351D01*
X93893116Y-114790213D01*
X93864753Y-114773213D01*
X93838193Y-114753515D01*
X93813692Y-114731308D01*
X93791485Y-114706807D01*
X93771787Y-114680247D01*
X93754787Y-114651884D01*
X93740649Y-114621991D01*
X93729509Y-114590857D01*
X93721475Y-114558781D01*
X93716623Y-114526071D01*
X93715000Y-114493044D01*
X93715000Y-113616956D01*
X93716623Y-113583929D01*
X93721475Y-113551219D01*
X93729509Y-113519143D01*
X93740649Y-113488009D01*
X93754787Y-113458116D01*
X93771787Y-113429753D01*
X93791485Y-113403193D01*
X93813692Y-113378692D01*
X93838193Y-113356485D01*
X93864753Y-113336787D01*
X93893116Y-113319787D01*
X93923009Y-113305649D01*
X93954143Y-113294509D01*
X93986219Y-113286475D01*
X94018929Y-113281623D01*
X94051956Y-113280000D01*
X95178044Y-113280000D01*
X95211071Y-113281623D01*
X95211071Y-113281623D01*
G37*
D13*
X94615000Y-114055000D03*
D12*
G36*
X95211071Y-111231623D02*
X95243781Y-111236475D01*
X95275857Y-111244509D01*
X95306991Y-111255649D01*
X95336884Y-111269787D01*
X95365247Y-111286787D01*
X95391807Y-111306485D01*
X95416308Y-111328692D01*
X95438515Y-111353193D01*
X95458213Y-111379753D01*
X95475213Y-111408116D01*
X95489351Y-111438009D01*
X95500491Y-111469143D01*
X95508525Y-111501219D01*
X95513377Y-111533929D01*
X95515000Y-111566956D01*
X95515000Y-112443044D01*
X95513377Y-112476071D01*
X95508525Y-112508781D01*
X95500491Y-112540857D01*
X95489351Y-112571991D01*
X95475213Y-112601884D01*
X95458213Y-112630247D01*
X95438515Y-112656807D01*
X95416308Y-112681308D01*
X95391807Y-112703515D01*
X95365247Y-112723213D01*
X95336884Y-112740213D01*
X95306991Y-112754351D01*
X95275857Y-112765491D01*
X95243781Y-112773525D01*
X95211071Y-112778377D01*
X95178044Y-112780000D01*
X94051956Y-112780000D01*
X94018929Y-112778377D01*
X93986219Y-112773525D01*
X93954143Y-112765491D01*
X93923009Y-112754351D01*
X93893116Y-112740213D01*
X93864753Y-112723213D01*
X93838193Y-112703515D01*
X93813692Y-112681308D01*
X93791485Y-112656807D01*
X93771787Y-112630247D01*
X93754787Y-112601884D01*
X93740649Y-112571991D01*
X93729509Y-112540857D01*
X93721475Y-112508781D01*
X93716623Y-112476071D01*
X93715000Y-112443044D01*
X93715000Y-111566956D01*
X93716623Y-111533929D01*
X93721475Y-111501219D01*
X93729509Y-111469143D01*
X93740649Y-111438009D01*
X93754787Y-111408116D01*
X93771787Y-111379753D01*
X93791485Y-111353193D01*
X93813692Y-111328692D01*
X93838193Y-111306485D01*
X93864753Y-111286787D01*
X93893116Y-111269787D01*
X93923009Y-111255649D01*
X93954143Y-111244509D01*
X93986219Y-111236475D01*
X94018929Y-111231623D01*
X94051956Y-111230000D01*
X95178044Y-111230000D01*
X95211071Y-111231623D01*
X95211071Y-111231623D01*
G37*
D13*
X94615000Y-112005000D03*
G04 #@! TD*
D12*
G04 #@! TO.C,R16*
G36*
X112356071Y-113281623D02*
X112388781Y-113286475D01*
X112420857Y-113294509D01*
X112451991Y-113305649D01*
X112481884Y-113319787D01*
X112510247Y-113336787D01*
X112536807Y-113356485D01*
X112561308Y-113378692D01*
X112583515Y-113403193D01*
X112603213Y-113429753D01*
X112620213Y-113458116D01*
X112634351Y-113488009D01*
X112645491Y-113519143D01*
X112653525Y-113551219D01*
X112658377Y-113583929D01*
X112660000Y-113616956D01*
X112660000Y-114493044D01*
X112658377Y-114526071D01*
X112653525Y-114558781D01*
X112645491Y-114590857D01*
X112634351Y-114621991D01*
X112620213Y-114651884D01*
X112603213Y-114680247D01*
X112583515Y-114706807D01*
X112561308Y-114731308D01*
X112536807Y-114753515D01*
X112510247Y-114773213D01*
X112481884Y-114790213D01*
X112451991Y-114804351D01*
X112420857Y-114815491D01*
X112388781Y-114823525D01*
X112356071Y-114828377D01*
X112323044Y-114830000D01*
X111196956Y-114830000D01*
X111163929Y-114828377D01*
X111131219Y-114823525D01*
X111099143Y-114815491D01*
X111068009Y-114804351D01*
X111038116Y-114790213D01*
X111009753Y-114773213D01*
X110983193Y-114753515D01*
X110958692Y-114731308D01*
X110936485Y-114706807D01*
X110916787Y-114680247D01*
X110899787Y-114651884D01*
X110885649Y-114621991D01*
X110874509Y-114590857D01*
X110866475Y-114558781D01*
X110861623Y-114526071D01*
X110860000Y-114493044D01*
X110860000Y-113616956D01*
X110861623Y-113583929D01*
X110866475Y-113551219D01*
X110874509Y-113519143D01*
X110885649Y-113488009D01*
X110899787Y-113458116D01*
X110916787Y-113429753D01*
X110936485Y-113403193D01*
X110958692Y-113378692D01*
X110983193Y-113356485D01*
X111009753Y-113336787D01*
X111038116Y-113319787D01*
X111068009Y-113305649D01*
X111099143Y-113294509D01*
X111131219Y-113286475D01*
X111163929Y-113281623D01*
X111196956Y-113280000D01*
X112323044Y-113280000D01*
X112356071Y-113281623D01*
X112356071Y-113281623D01*
G37*
D13*
X111760000Y-114055000D03*
D12*
G36*
X112356071Y-111231623D02*
X112388781Y-111236475D01*
X112420857Y-111244509D01*
X112451991Y-111255649D01*
X112481884Y-111269787D01*
X112510247Y-111286787D01*
X112536807Y-111306485D01*
X112561308Y-111328692D01*
X112583515Y-111353193D01*
X112603213Y-111379753D01*
X112620213Y-111408116D01*
X112634351Y-111438009D01*
X112645491Y-111469143D01*
X112653525Y-111501219D01*
X112658377Y-111533929D01*
X112660000Y-111566956D01*
X112660000Y-112443044D01*
X112658377Y-112476071D01*
X112653525Y-112508781D01*
X112645491Y-112540857D01*
X112634351Y-112571991D01*
X112620213Y-112601884D01*
X112603213Y-112630247D01*
X112583515Y-112656807D01*
X112561308Y-112681308D01*
X112536807Y-112703515D01*
X112510247Y-112723213D01*
X112481884Y-112740213D01*
X112451991Y-112754351D01*
X112420857Y-112765491D01*
X112388781Y-112773525D01*
X112356071Y-112778377D01*
X112323044Y-112780000D01*
X111196956Y-112780000D01*
X111163929Y-112778377D01*
X111131219Y-112773525D01*
X111099143Y-112765491D01*
X111068009Y-112754351D01*
X111038116Y-112740213D01*
X111009753Y-112723213D01*
X110983193Y-112703515D01*
X110958692Y-112681308D01*
X110936485Y-112656807D01*
X110916787Y-112630247D01*
X110899787Y-112601884D01*
X110885649Y-112571991D01*
X110874509Y-112540857D01*
X110866475Y-112508781D01*
X110861623Y-112476071D01*
X110860000Y-112443044D01*
X110860000Y-111566956D01*
X110861623Y-111533929D01*
X110866475Y-111501219D01*
X110874509Y-111469143D01*
X110885649Y-111438009D01*
X110899787Y-111408116D01*
X110916787Y-111379753D01*
X110936485Y-111353193D01*
X110958692Y-111328692D01*
X110983193Y-111306485D01*
X111009753Y-111286787D01*
X111038116Y-111269787D01*
X111068009Y-111255649D01*
X111099143Y-111244509D01*
X111131219Y-111236475D01*
X111163929Y-111231623D01*
X111196956Y-111230000D01*
X112323044Y-111230000D01*
X112356071Y-111231623D01*
X112356071Y-111231623D01*
G37*
D13*
X111760000Y-112005000D03*
G04 #@! TD*
D12*
G04 #@! TO.C,R17*
G36*
X109435071Y-136250623D02*
X109467781Y-136255475D01*
X109499857Y-136263509D01*
X109530991Y-136274649D01*
X109560884Y-136288787D01*
X109589247Y-136305787D01*
X109615807Y-136325485D01*
X109640308Y-136347692D01*
X109662515Y-136372193D01*
X109682213Y-136398753D01*
X109699213Y-136427116D01*
X109713351Y-136457009D01*
X109724491Y-136488143D01*
X109732525Y-136520219D01*
X109737377Y-136552929D01*
X109739000Y-136585956D01*
X109739000Y-137462044D01*
X109737377Y-137495071D01*
X109732525Y-137527781D01*
X109724491Y-137559857D01*
X109713351Y-137590991D01*
X109699213Y-137620884D01*
X109682213Y-137649247D01*
X109662515Y-137675807D01*
X109640308Y-137700308D01*
X109615807Y-137722515D01*
X109589247Y-137742213D01*
X109560884Y-137759213D01*
X109530991Y-137773351D01*
X109499857Y-137784491D01*
X109467781Y-137792525D01*
X109435071Y-137797377D01*
X109402044Y-137799000D01*
X108275956Y-137799000D01*
X108242929Y-137797377D01*
X108210219Y-137792525D01*
X108178143Y-137784491D01*
X108147009Y-137773351D01*
X108117116Y-137759213D01*
X108088753Y-137742213D01*
X108062193Y-137722515D01*
X108037692Y-137700308D01*
X108015485Y-137675807D01*
X107995787Y-137649247D01*
X107978787Y-137620884D01*
X107964649Y-137590991D01*
X107953509Y-137559857D01*
X107945475Y-137527781D01*
X107940623Y-137495071D01*
X107939000Y-137462044D01*
X107939000Y-136585956D01*
X107940623Y-136552929D01*
X107945475Y-136520219D01*
X107953509Y-136488143D01*
X107964649Y-136457009D01*
X107978787Y-136427116D01*
X107995787Y-136398753D01*
X108015485Y-136372193D01*
X108037692Y-136347692D01*
X108062193Y-136325485D01*
X108088753Y-136305787D01*
X108117116Y-136288787D01*
X108147009Y-136274649D01*
X108178143Y-136263509D01*
X108210219Y-136255475D01*
X108242929Y-136250623D01*
X108275956Y-136249000D01*
X109402044Y-136249000D01*
X109435071Y-136250623D01*
X109435071Y-136250623D01*
G37*
D13*
X108839000Y-137024000D03*
D12*
G36*
X109435071Y-138300623D02*
X109467781Y-138305475D01*
X109499857Y-138313509D01*
X109530991Y-138324649D01*
X109560884Y-138338787D01*
X109589247Y-138355787D01*
X109615807Y-138375485D01*
X109640308Y-138397692D01*
X109662515Y-138422193D01*
X109682213Y-138448753D01*
X109699213Y-138477116D01*
X109713351Y-138507009D01*
X109724491Y-138538143D01*
X109732525Y-138570219D01*
X109737377Y-138602929D01*
X109739000Y-138635956D01*
X109739000Y-139512044D01*
X109737377Y-139545071D01*
X109732525Y-139577781D01*
X109724491Y-139609857D01*
X109713351Y-139640991D01*
X109699213Y-139670884D01*
X109682213Y-139699247D01*
X109662515Y-139725807D01*
X109640308Y-139750308D01*
X109615807Y-139772515D01*
X109589247Y-139792213D01*
X109560884Y-139809213D01*
X109530991Y-139823351D01*
X109499857Y-139834491D01*
X109467781Y-139842525D01*
X109435071Y-139847377D01*
X109402044Y-139849000D01*
X108275956Y-139849000D01*
X108242929Y-139847377D01*
X108210219Y-139842525D01*
X108178143Y-139834491D01*
X108147009Y-139823351D01*
X108117116Y-139809213D01*
X108088753Y-139792213D01*
X108062193Y-139772515D01*
X108037692Y-139750308D01*
X108015485Y-139725807D01*
X107995787Y-139699247D01*
X107978787Y-139670884D01*
X107964649Y-139640991D01*
X107953509Y-139609857D01*
X107945475Y-139577781D01*
X107940623Y-139545071D01*
X107939000Y-139512044D01*
X107939000Y-138635956D01*
X107940623Y-138602929D01*
X107945475Y-138570219D01*
X107953509Y-138538143D01*
X107964649Y-138507009D01*
X107978787Y-138477116D01*
X107995787Y-138448753D01*
X108015485Y-138422193D01*
X108037692Y-138397692D01*
X108062193Y-138375485D01*
X108088753Y-138355787D01*
X108117116Y-138338787D01*
X108147009Y-138324649D01*
X108178143Y-138313509D01*
X108210219Y-138305475D01*
X108242929Y-138300623D01*
X108275956Y-138299000D01*
X109402044Y-138299000D01*
X109435071Y-138300623D01*
X109435071Y-138300623D01*
G37*
D13*
X108839000Y-139074000D03*
G04 #@! TD*
D12*
G04 #@! TO.C,R18*
G36*
X107269071Y-148199623D02*
X107301781Y-148204475D01*
X107333857Y-148212509D01*
X107364991Y-148223649D01*
X107394884Y-148237787D01*
X107423247Y-148254787D01*
X107449807Y-148274485D01*
X107474308Y-148296692D01*
X107496515Y-148321193D01*
X107516213Y-148347753D01*
X107533213Y-148376116D01*
X107547351Y-148406009D01*
X107558491Y-148437143D01*
X107566525Y-148469219D01*
X107571377Y-148501929D01*
X107573000Y-148534956D01*
X107573000Y-149661044D01*
X107571377Y-149694071D01*
X107566525Y-149726781D01*
X107558491Y-149758857D01*
X107547351Y-149789991D01*
X107533213Y-149819884D01*
X107516213Y-149848247D01*
X107496515Y-149874807D01*
X107474308Y-149899308D01*
X107449807Y-149921515D01*
X107423247Y-149941213D01*
X107394884Y-149958213D01*
X107364991Y-149972351D01*
X107333857Y-149983491D01*
X107301781Y-149991525D01*
X107269071Y-149996377D01*
X107236044Y-149998000D01*
X106359956Y-149998000D01*
X106326929Y-149996377D01*
X106294219Y-149991525D01*
X106262143Y-149983491D01*
X106231009Y-149972351D01*
X106201116Y-149958213D01*
X106172753Y-149941213D01*
X106146193Y-149921515D01*
X106121692Y-149899308D01*
X106099485Y-149874807D01*
X106079787Y-149848247D01*
X106062787Y-149819884D01*
X106048649Y-149789991D01*
X106037509Y-149758857D01*
X106029475Y-149726781D01*
X106024623Y-149694071D01*
X106023000Y-149661044D01*
X106023000Y-148534956D01*
X106024623Y-148501929D01*
X106029475Y-148469219D01*
X106037509Y-148437143D01*
X106048649Y-148406009D01*
X106062787Y-148376116D01*
X106079787Y-148347753D01*
X106099485Y-148321193D01*
X106121692Y-148296692D01*
X106146193Y-148274485D01*
X106172753Y-148254787D01*
X106201116Y-148237787D01*
X106231009Y-148223649D01*
X106262143Y-148212509D01*
X106294219Y-148204475D01*
X106326929Y-148199623D01*
X106359956Y-148198000D01*
X107236044Y-148198000D01*
X107269071Y-148199623D01*
X107269071Y-148199623D01*
G37*
D13*
X106798000Y-149098000D03*
D12*
G36*
X109319071Y-148199623D02*
X109351781Y-148204475D01*
X109383857Y-148212509D01*
X109414991Y-148223649D01*
X109444884Y-148237787D01*
X109473247Y-148254787D01*
X109499807Y-148274485D01*
X109524308Y-148296692D01*
X109546515Y-148321193D01*
X109566213Y-148347753D01*
X109583213Y-148376116D01*
X109597351Y-148406009D01*
X109608491Y-148437143D01*
X109616525Y-148469219D01*
X109621377Y-148501929D01*
X109623000Y-148534956D01*
X109623000Y-149661044D01*
X109621377Y-149694071D01*
X109616525Y-149726781D01*
X109608491Y-149758857D01*
X109597351Y-149789991D01*
X109583213Y-149819884D01*
X109566213Y-149848247D01*
X109546515Y-149874807D01*
X109524308Y-149899308D01*
X109499807Y-149921515D01*
X109473247Y-149941213D01*
X109444884Y-149958213D01*
X109414991Y-149972351D01*
X109383857Y-149983491D01*
X109351781Y-149991525D01*
X109319071Y-149996377D01*
X109286044Y-149998000D01*
X108409956Y-149998000D01*
X108376929Y-149996377D01*
X108344219Y-149991525D01*
X108312143Y-149983491D01*
X108281009Y-149972351D01*
X108251116Y-149958213D01*
X108222753Y-149941213D01*
X108196193Y-149921515D01*
X108171692Y-149899308D01*
X108149485Y-149874807D01*
X108129787Y-149848247D01*
X108112787Y-149819884D01*
X108098649Y-149789991D01*
X108087509Y-149758857D01*
X108079475Y-149726781D01*
X108074623Y-149694071D01*
X108073000Y-149661044D01*
X108073000Y-148534956D01*
X108074623Y-148501929D01*
X108079475Y-148469219D01*
X108087509Y-148437143D01*
X108098649Y-148406009D01*
X108112787Y-148376116D01*
X108129787Y-148347753D01*
X108149485Y-148321193D01*
X108171692Y-148296692D01*
X108196193Y-148274485D01*
X108222753Y-148254787D01*
X108251116Y-148237787D01*
X108281009Y-148223649D01*
X108312143Y-148212509D01*
X108344219Y-148204475D01*
X108376929Y-148199623D01*
X108409956Y-148198000D01*
X109286044Y-148198000D01*
X109319071Y-148199623D01*
X109319071Y-148199623D01*
G37*
D13*
X108848000Y-149098000D03*
G04 #@! TD*
D19*
G04 #@! TO.C,U4*
X111600000Y-139065000D03*
X111600000Y-140335000D03*
X111600000Y-141605000D03*
X111600000Y-142875000D03*
X111600000Y-144145000D03*
X111600000Y-145415000D03*
X111600000Y-146685000D03*
X117000000Y-146685000D03*
X117000000Y-145415000D03*
X117000000Y-144145000D03*
X117000000Y-142875000D03*
X117000000Y-141605000D03*
X117000000Y-140335000D03*
X117000000Y-139065000D03*
G04 #@! TD*
D12*
G04 #@! TO.C,C1*
G36*
X92831759Y-135371192D02*
X92855785Y-135374756D01*
X92879345Y-135380657D01*
X92902214Y-135388840D01*
X92924171Y-135399224D01*
X92945004Y-135411711D01*
X92964512Y-135426180D01*
X92982509Y-135442491D01*
X92998820Y-135460488D01*
X93013289Y-135479996D01*
X93025776Y-135500829D01*
X93036160Y-135522786D01*
X93044343Y-135545655D01*
X93050244Y-135569215D01*
X93053808Y-135593241D01*
X93055000Y-135617500D01*
X93055000Y-136162500D01*
X93053808Y-136186759D01*
X93050244Y-136210785D01*
X93044343Y-136234345D01*
X93036160Y-136257214D01*
X93025776Y-136279171D01*
X93013289Y-136300004D01*
X92998820Y-136319512D01*
X92982509Y-136337509D01*
X92964512Y-136353820D01*
X92945004Y-136368289D01*
X92924171Y-136380776D01*
X92902214Y-136391160D01*
X92879345Y-136399343D01*
X92855785Y-136405244D01*
X92831759Y-136408808D01*
X92807500Y-136410000D01*
X92312500Y-136410000D01*
X92288241Y-136408808D01*
X92264215Y-136405244D01*
X92240655Y-136399343D01*
X92217786Y-136391160D01*
X92195829Y-136380776D01*
X92174996Y-136368289D01*
X92155488Y-136353820D01*
X92137491Y-136337509D01*
X92121180Y-136319512D01*
X92106711Y-136300004D01*
X92094224Y-136279171D01*
X92083840Y-136257214D01*
X92075657Y-136234345D01*
X92069756Y-136210785D01*
X92066192Y-136186759D01*
X92065000Y-136162500D01*
X92065000Y-135617500D01*
X92066192Y-135593241D01*
X92069756Y-135569215D01*
X92075657Y-135545655D01*
X92083840Y-135522786D01*
X92094224Y-135500829D01*
X92106711Y-135479996D01*
X92121180Y-135460488D01*
X92137491Y-135442491D01*
X92155488Y-135426180D01*
X92174996Y-135411711D01*
X92195829Y-135399224D01*
X92217786Y-135388840D01*
X92240655Y-135380657D01*
X92264215Y-135374756D01*
X92288241Y-135371192D01*
X92312500Y-135370000D01*
X92807500Y-135370000D01*
X92831759Y-135371192D01*
X92831759Y-135371192D01*
G37*
D20*
X92560000Y-135890000D03*
D12*
G36*
X91861759Y-135371192D02*
X91885785Y-135374756D01*
X91909345Y-135380657D01*
X91932214Y-135388840D01*
X91954171Y-135399224D01*
X91975004Y-135411711D01*
X91994512Y-135426180D01*
X92012509Y-135442491D01*
X92028820Y-135460488D01*
X92043289Y-135479996D01*
X92055776Y-135500829D01*
X92066160Y-135522786D01*
X92074343Y-135545655D01*
X92080244Y-135569215D01*
X92083808Y-135593241D01*
X92085000Y-135617500D01*
X92085000Y-136162500D01*
X92083808Y-136186759D01*
X92080244Y-136210785D01*
X92074343Y-136234345D01*
X92066160Y-136257214D01*
X92055776Y-136279171D01*
X92043289Y-136300004D01*
X92028820Y-136319512D01*
X92012509Y-136337509D01*
X91994512Y-136353820D01*
X91975004Y-136368289D01*
X91954171Y-136380776D01*
X91932214Y-136391160D01*
X91909345Y-136399343D01*
X91885785Y-136405244D01*
X91861759Y-136408808D01*
X91837500Y-136410000D01*
X91342500Y-136410000D01*
X91318241Y-136408808D01*
X91294215Y-136405244D01*
X91270655Y-136399343D01*
X91247786Y-136391160D01*
X91225829Y-136380776D01*
X91204996Y-136368289D01*
X91185488Y-136353820D01*
X91167491Y-136337509D01*
X91151180Y-136319512D01*
X91136711Y-136300004D01*
X91124224Y-136279171D01*
X91113840Y-136257214D01*
X91105657Y-136234345D01*
X91099756Y-136210785D01*
X91096192Y-136186759D01*
X91095000Y-136162500D01*
X91095000Y-135617500D01*
X91096192Y-135593241D01*
X91099756Y-135569215D01*
X91105657Y-135545655D01*
X91113840Y-135522786D01*
X91124224Y-135500829D01*
X91136711Y-135479996D01*
X91151180Y-135460488D01*
X91167491Y-135442491D01*
X91185488Y-135426180D01*
X91204996Y-135411711D01*
X91225829Y-135399224D01*
X91247786Y-135388840D01*
X91270655Y-135380657D01*
X91294215Y-135374756D01*
X91318241Y-135371192D01*
X91342500Y-135370000D01*
X91837500Y-135370000D01*
X91861759Y-135371192D01*
X91861759Y-135371192D01*
G37*
D20*
X91590000Y-135890000D03*
G04 #@! TD*
D12*
G04 #@! TO.C,C2*
G36*
X84116759Y-142404192D02*
X84140785Y-142407756D01*
X84164345Y-142413657D01*
X84187214Y-142421840D01*
X84209171Y-142432224D01*
X84230004Y-142444711D01*
X84249512Y-142459180D01*
X84267509Y-142475491D01*
X84283820Y-142493488D01*
X84298289Y-142512996D01*
X84310776Y-142533829D01*
X84321160Y-142555786D01*
X84329343Y-142578655D01*
X84335244Y-142602215D01*
X84338808Y-142626241D01*
X84340000Y-142650500D01*
X84340000Y-143145500D01*
X84338808Y-143169759D01*
X84335244Y-143193785D01*
X84329343Y-143217345D01*
X84321160Y-143240214D01*
X84310776Y-143262171D01*
X84298289Y-143283004D01*
X84283820Y-143302512D01*
X84267509Y-143320509D01*
X84249512Y-143336820D01*
X84230004Y-143351289D01*
X84209171Y-143363776D01*
X84187214Y-143374160D01*
X84164345Y-143382343D01*
X84140785Y-143388244D01*
X84116759Y-143391808D01*
X84092500Y-143393000D01*
X83547500Y-143393000D01*
X83523241Y-143391808D01*
X83499215Y-143388244D01*
X83475655Y-143382343D01*
X83452786Y-143374160D01*
X83430829Y-143363776D01*
X83409996Y-143351289D01*
X83390488Y-143336820D01*
X83372491Y-143320509D01*
X83356180Y-143302512D01*
X83341711Y-143283004D01*
X83329224Y-143262171D01*
X83318840Y-143240214D01*
X83310657Y-143217345D01*
X83304756Y-143193785D01*
X83301192Y-143169759D01*
X83300000Y-143145500D01*
X83300000Y-142650500D01*
X83301192Y-142626241D01*
X83304756Y-142602215D01*
X83310657Y-142578655D01*
X83318840Y-142555786D01*
X83329224Y-142533829D01*
X83341711Y-142512996D01*
X83356180Y-142493488D01*
X83372491Y-142475491D01*
X83390488Y-142459180D01*
X83409996Y-142444711D01*
X83430829Y-142432224D01*
X83452786Y-142421840D01*
X83475655Y-142413657D01*
X83499215Y-142407756D01*
X83523241Y-142404192D01*
X83547500Y-142403000D01*
X84092500Y-142403000D01*
X84116759Y-142404192D01*
X84116759Y-142404192D01*
G37*
D20*
X83820000Y-142898000D03*
D12*
G36*
X84116759Y-143374192D02*
X84140785Y-143377756D01*
X84164345Y-143383657D01*
X84187214Y-143391840D01*
X84209171Y-143402224D01*
X84230004Y-143414711D01*
X84249512Y-143429180D01*
X84267509Y-143445491D01*
X84283820Y-143463488D01*
X84298289Y-143482996D01*
X84310776Y-143503829D01*
X84321160Y-143525786D01*
X84329343Y-143548655D01*
X84335244Y-143572215D01*
X84338808Y-143596241D01*
X84340000Y-143620500D01*
X84340000Y-144115500D01*
X84338808Y-144139759D01*
X84335244Y-144163785D01*
X84329343Y-144187345D01*
X84321160Y-144210214D01*
X84310776Y-144232171D01*
X84298289Y-144253004D01*
X84283820Y-144272512D01*
X84267509Y-144290509D01*
X84249512Y-144306820D01*
X84230004Y-144321289D01*
X84209171Y-144333776D01*
X84187214Y-144344160D01*
X84164345Y-144352343D01*
X84140785Y-144358244D01*
X84116759Y-144361808D01*
X84092500Y-144363000D01*
X83547500Y-144363000D01*
X83523241Y-144361808D01*
X83499215Y-144358244D01*
X83475655Y-144352343D01*
X83452786Y-144344160D01*
X83430829Y-144333776D01*
X83409996Y-144321289D01*
X83390488Y-144306820D01*
X83372491Y-144290509D01*
X83356180Y-144272512D01*
X83341711Y-144253004D01*
X83329224Y-144232171D01*
X83318840Y-144210214D01*
X83310657Y-144187345D01*
X83304756Y-144163785D01*
X83301192Y-144139759D01*
X83300000Y-144115500D01*
X83300000Y-143620500D01*
X83301192Y-143596241D01*
X83304756Y-143572215D01*
X83310657Y-143548655D01*
X83318840Y-143525786D01*
X83329224Y-143503829D01*
X83341711Y-143482996D01*
X83356180Y-143463488D01*
X83372491Y-143445491D01*
X83390488Y-143429180D01*
X83409996Y-143414711D01*
X83430829Y-143402224D01*
X83452786Y-143391840D01*
X83475655Y-143383657D01*
X83499215Y-143377756D01*
X83523241Y-143374192D01*
X83547500Y-143373000D01*
X84092500Y-143373000D01*
X84116759Y-143374192D01*
X84116759Y-143374192D01*
G37*
D20*
X83820000Y-143868000D03*
G04 #@! TD*
D12*
G04 #@! TO.C,C3*
G36*
X91861759Y-136641192D02*
X91885785Y-136644756D01*
X91909345Y-136650657D01*
X91932214Y-136658840D01*
X91954171Y-136669224D01*
X91975004Y-136681711D01*
X91994512Y-136696180D01*
X92012509Y-136712491D01*
X92028820Y-136730488D01*
X92043289Y-136749996D01*
X92055776Y-136770829D01*
X92066160Y-136792786D01*
X92074343Y-136815655D01*
X92080244Y-136839215D01*
X92083808Y-136863241D01*
X92085000Y-136887500D01*
X92085000Y-137432500D01*
X92083808Y-137456759D01*
X92080244Y-137480785D01*
X92074343Y-137504345D01*
X92066160Y-137527214D01*
X92055776Y-137549171D01*
X92043289Y-137570004D01*
X92028820Y-137589512D01*
X92012509Y-137607509D01*
X91994512Y-137623820D01*
X91975004Y-137638289D01*
X91954171Y-137650776D01*
X91932214Y-137661160D01*
X91909345Y-137669343D01*
X91885785Y-137675244D01*
X91861759Y-137678808D01*
X91837500Y-137680000D01*
X91342500Y-137680000D01*
X91318241Y-137678808D01*
X91294215Y-137675244D01*
X91270655Y-137669343D01*
X91247786Y-137661160D01*
X91225829Y-137650776D01*
X91204996Y-137638289D01*
X91185488Y-137623820D01*
X91167491Y-137607509D01*
X91151180Y-137589512D01*
X91136711Y-137570004D01*
X91124224Y-137549171D01*
X91113840Y-137527214D01*
X91105657Y-137504345D01*
X91099756Y-137480785D01*
X91096192Y-137456759D01*
X91095000Y-137432500D01*
X91095000Y-136887500D01*
X91096192Y-136863241D01*
X91099756Y-136839215D01*
X91105657Y-136815655D01*
X91113840Y-136792786D01*
X91124224Y-136770829D01*
X91136711Y-136749996D01*
X91151180Y-136730488D01*
X91167491Y-136712491D01*
X91185488Y-136696180D01*
X91204996Y-136681711D01*
X91225829Y-136669224D01*
X91247786Y-136658840D01*
X91270655Y-136650657D01*
X91294215Y-136644756D01*
X91318241Y-136641192D01*
X91342500Y-136640000D01*
X91837500Y-136640000D01*
X91861759Y-136641192D01*
X91861759Y-136641192D01*
G37*
D20*
X91590000Y-137160000D03*
D12*
G36*
X92831759Y-136641192D02*
X92855785Y-136644756D01*
X92879345Y-136650657D01*
X92902214Y-136658840D01*
X92924171Y-136669224D01*
X92945004Y-136681711D01*
X92964512Y-136696180D01*
X92982509Y-136712491D01*
X92998820Y-136730488D01*
X93013289Y-136749996D01*
X93025776Y-136770829D01*
X93036160Y-136792786D01*
X93044343Y-136815655D01*
X93050244Y-136839215D01*
X93053808Y-136863241D01*
X93055000Y-136887500D01*
X93055000Y-137432500D01*
X93053808Y-137456759D01*
X93050244Y-137480785D01*
X93044343Y-137504345D01*
X93036160Y-137527214D01*
X93025776Y-137549171D01*
X93013289Y-137570004D01*
X92998820Y-137589512D01*
X92982509Y-137607509D01*
X92964512Y-137623820D01*
X92945004Y-137638289D01*
X92924171Y-137650776D01*
X92902214Y-137661160D01*
X92879345Y-137669343D01*
X92855785Y-137675244D01*
X92831759Y-137678808D01*
X92807500Y-137680000D01*
X92312500Y-137680000D01*
X92288241Y-137678808D01*
X92264215Y-137675244D01*
X92240655Y-137669343D01*
X92217786Y-137661160D01*
X92195829Y-137650776D01*
X92174996Y-137638289D01*
X92155488Y-137623820D01*
X92137491Y-137607509D01*
X92121180Y-137589512D01*
X92106711Y-137570004D01*
X92094224Y-137549171D01*
X92083840Y-137527214D01*
X92075657Y-137504345D01*
X92069756Y-137480785D01*
X92066192Y-137456759D01*
X92065000Y-137432500D01*
X92065000Y-136887500D01*
X92066192Y-136863241D01*
X92069756Y-136839215D01*
X92075657Y-136815655D01*
X92083840Y-136792786D01*
X92094224Y-136770829D01*
X92106711Y-136749996D01*
X92121180Y-136730488D01*
X92137491Y-136712491D01*
X92155488Y-136696180D01*
X92174996Y-136681711D01*
X92195829Y-136669224D01*
X92217786Y-136658840D01*
X92240655Y-136650657D01*
X92264215Y-136644756D01*
X92288241Y-136641192D01*
X92312500Y-136640000D01*
X92807500Y-136640000D01*
X92831759Y-136641192D01*
X92831759Y-136641192D01*
G37*
D20*
X92560000Y-137160000D03*
G04 #@! TD*
D12*
G04 #@! TO.C,C4*
G36*
X82846759Y-143374192D02*
X82870785Y-143377756D01*
X82894345Y-143383657D01*
X82917214Y-143391840D01*
X82939171Y-143402224D01*
X82960004Y-143414711D01*
X82979512Y-143429180D01*
X82997509Y-143445491D01*
X83013820Y-143463488D01*
X83028289Y-143482996D01*
X83040776Y-143503829D01*
X83051160Y-143525786D01*
X83059343Y-143548655D01*
X83065244Y-143572215D01*
X83068808Y-143596241D01*
X83070000Y-143620500D01*
X83070000Y-144115500D01*
X83068808Y-144139759D01*
X83065244Y-144163785D01*
X83059343Y-144187345D01*
X83051160Y-144210214D01*
X83040776Y-144232171D01*
X83028289Y-144253004D01*
X83013820Y-144272512D01*
X82997509Y-144290509D01*
X82979512Y-144306820D01*
X82960004Y-144321289D01*
X82939171Y-144333776D01*
X82917214Y-144344160D01*
X82894345Y-144352343D01*
X82870785Y-144358244D01*
X82846759Y-144361808D01*
X82822500Y-144363000D01*
X82277500Y-144363000D01*
X82253241Y-144361808D01*
X82229215Y-144358244D01*
X82205655Y-144352343D01*
X82182786Y-144344160D01*
X82160829Y-144333776D01*
X82139996Y-144321289D01*
X82120488Y-144306820D01*
X82102491Y-144290509D01*
X82086180Y-144272512D01*
X82071711Y-144253004D01*
X82059224Y-144232171D01*
X82048840Y-144210214D01*
X82040657Y-144187345D01*
X82034756Y-144163785D01*
X82031192Y-144139759D01*
X82030000Y-144115500D01*
X82030000Y-143620500D01*
X82031192Y-143596241D01*
X82034756Y-143572215D01*
X82040657Y-143548655D01*
X82048840Y-143525786D01*
X82059224Y-143503829D01*
X82071711Y-143482996D01*
X82086180Y-143463488D01*
X82102491Y-143445491D01*
X82120488Y-143429180D01*
X82139996Y-143414711D01*
X82160829Y-143402224D01*
X82182786Y-143391840D01*
X82205655Y-143383657D01*
X82229215Y-143377756D01*
X82253241Y-143374192D01*
X82277500Y-143373000D01*
X82822500Y-143373000D01*
X82846759Y-143374192D01*
X82846759Y-143374192D01*
G37*
D20*
X82550000Y-143868000D03*
D12*
G36*
X82846759Y-142404192D02*
X82870785Y-142407756D01*
X82894345Y-142413657D01*
X82917214Y-142421840D01*
X82939171Y-142432224D01*
X82960004Y-142444711D01*
X82979512Y-142459180D01*
X82997509Y-142475491D01*
X83013820Y-142493488D01*
X83028289Y-142512996D01*
X83040776Y-142533829D01*
X83051160Y-142555786D01*
X83059343Y-142578655D01*
X83065244Y-142602215D01*
X83068808Y-142626241D01*
X83070000Y-142650500D01*
X83070000Y-143145500D01*
X83068808Y-143169759D01*
X83065244Y-143193785D01*
X83059343Y-143217345D01*
X83051160Y-143240214D01*
X83040776Y-143262171D01*
X83028289Y-143283004D01*
X83013820Y-143302512D01*
X82997509Y-143320509D01*
X82979512Y-143336820D01*
X82960004Y-143351289D01*
X82939171Y-143363776D01*
X82917214Y-143374160D01*
X82894345Y-143382343D01*
X82870785Y-143388244D01*
X82846759Y-143391808D01*
X82822500Y-143393000D01*
X82277500Y-143393000D01*
X82253241Y-143391808D01*
X82229215Y-143388244D01*
X82205655Y-143382343D01*
X82182786Y-143374160D01*
X82160829Y-143363776D01*
X82139996Y-143351289D01*
X82120488Y-143336820D01*
X82102491Y-143320509D01*
X82086180Y-143302512D01*
X82071711Y-143283004D01*
X82059224Y-143262171D01*
X82048840Y-143240214D01*
X82040657Y-143217345D01*
X82034756Y-143193785D01*
X82031192Y-143169759D01*
X82030000Y-143145500D01*
X82030000Y-142650500D01*
X82031192Y-142626241D01*
X82034756Y-142602215D01*
X82040657Y-142578655D01*
X82048840Y-142555786D01*
X82059224Y-142533829D01*
X82071711Y-142512996D01*
X82086180Y-142493488D01*
X82102491Y-142475491D01*
X82120488Y-142459180D01*
X82139996Y-142444711D01*
X82160829Y-142432224D01*
X82182786Y-142421840D01*
X82205655Y-142413657D01*
X82229215Y-142407756D01*
X82253241Y-142404192D01*
X82277500Y-142403000D01*
X82822500Y-142403000D01*
X82846759Y-142404192D01*
X82846759Y-142404192D01*
G37*
D20*
X82550000Y-142898000D03*
G04 #@! TD*
D12*
G04 #@! TO.C,C9*
G36*
X105531759Y-110606192D02*
X105555785Y-110609756D01*
X105579345Y-110615657D01*
X105602214Y-110623840D01*
X105624171Y-110634224D01*
X105645004Y-110646711D01*
X105664512Y-110661180D01*
X105682509Y-110677491D01*
X105698820Y-110695488D01*
X105713289Y-110714996D01*
X105725776Y-110735829D01*
X105736160Y-110757786D01*
X105744343Y-110780655D01*
X105750244Y-110804215D01*
X105753808Y-110828241D01*
X105755000Y-110852500D01*
X105755000Y-111397500D01*
X105753808Y-111421759D01*
X105750244Y-111445785D01*
X105744343Y-111469345D01*
X105736160Y-111492214D01*
X105725776Y-111514171D01*
X105713289Y-111535004D01*
X105698820Y-111554512D01*
X105682509Y-111572509D01*
X105664512Y-111588820D01*
X105645004Y-111603289D01*
X105624171Y-111615776D01*
X105602214Y-111626160D01*
X105579345Y-111634343D01*
X105555785Y-111640244D01*
X105531759Y-111643808D01*
X105507500Y-111645000D01*
X105012500Y-111645000D01*
X104988241Y-111643808D01*
X104964215Y-111640244D01*
X104940655Y-111634343D01*
X104917786Y-111626160D01*
X104895829Y-111615776D01*
X104874996Y-111603289D01*
X104855488Y-111588820D01*
X104837491Y-111572509D01*
X104821180Y-111554512D01*
X104806711Y-111535004D01*
X104794224Y-111514171D01*
X104783840Y-111492214D01*
X104775657Y-111469345D01*
X104769756Y-111445785D01*
X104766192Y-111421759D01*
X104765000Y-111397500D01*
X104765000Y-110852500D01*
X104766192Y-110828241D01*
X104769756Y-110804215D01*
X104775657Y-110780655D01*
X104783840Y-110757786D01*
X104794224Y-110735829D01*
X104806711Y-110714996D01*
X104821180Y-110695488D01*
X104837491Y-110677491D01*
X104855488Y-110661180D01*
X104874996Y-110646711D01*
X104895829Y-110634224D01*
X104917786Y-110623840D01*
X104940655Y-110615657D01*
X104964215Y-110609756D01*
X104988241Y-110606192D01*
X105012500Y-110605000D01*
X105507500Y-110605000D01*
X105531759Y-110606192D01*
X105531759Y-110606192D01*
G37*
D20*
X105260000Y-111125000D03*
D12*
G36*
X104561759Y-110606192D02*
X104585785Y-110609756D01*
X104609345Y-110615657D01*
X104632214Y-110623840D01*
X104654171Y-110634224D01*
X104675004Y-110646711D01*
X104694512Y-110661180D01*
X104712509Y-110677491D01*
X104728820Y-110695488D01*
X104743289Y-110714996D01*
X104755776Y-110735829D01*
X104766160Y-110757786D01*
X104774343Y-110780655D01*
X104780244Y-110804215D01*
X104783808Y-110828241D01*
X104785000Y-110852500D01*
X104785000Y-111397500D01*
X104783808Y-111421759D01*
X104780244Y-111445785D01*
X104774343Y-111469345D01*
X104766160Y-111492214D01*
X104755776Y-111514171D01*
X104743289Y-111535004D01*
X104728820Y-111554512D01*
X104712509Y-111572509D01*
X104694512Y-111588820D01*
X104675004Y-111603289D01*
X104654171Y-111615776D01*
X104632214Y-111626160D01*
X104609345Y-111634343D01*
X104585785Y-111640244D01*
X104561759Y-111643808D01*
X104537500Y-111645000D01*
X104042500Y-111645000D01*
X104018241Y-111643808D01*
X103994215Y-111640244D01*
X103970655Y-111634343D01*
X103947786Y-111626160D01*
X103925829Y-111615776D01*
X103904996Y-111603289D01*
X103885488Y-111588820D01*
X103867491Y-111572509D01*
X103851180Y-111554512D01*
X103836711Y-111535004D01*
X103824224Y-111514171D01*
X103813840Y-111492214D01*
X103805657Y-111469345D01*
X103799756Y-111445785D01*
X103796192Y-111421759D01*
X103795000Y-111397500D01*
X103795000Y-110852500D01*
X103796192Y-110828241D01*
X103799756Y-110804215D01*
X103805657Y-110780655D01*
X103813840Y-110757786D01*
X103824224Y-110735829D01*
X103836711Y-110714996D01*
X103851180Y-110695488D01*
X103867491Y-110677491D01*
X103885488Y-110661180D01*
X103904996Y-110646711D01*
X103925829Y-110634224D01*
X103947786Y-110623840D01*
X103970655Y-110615657D01*
X103994215Y-110609756D01*
X104018241Y-110606192D01*
X104042500Y-110605000D01*
X104537500Y-110605000D01*
X104561759Y-110606192D01*
X104561759Y-110606192D01*
G37*
D20*
X104290000Y-111125000D03*
G04 #@! TD*
D12*
G04 #@! TO.C,C10*
G36*
X99181759Y-118226192D02*
X99205785Y-118229756D01*
X99229345Y-118235657D01*
X99252214Y-118243840D01*
X99274171Y-118254224D01*
X99295004Y-118266711D01*
X99314512Y-118281180D01*
X99332509Y-118297491D01*
X99348820Y-118315488D01*
X99363289Y-118334996D01*
X99375776Y-118355829D01*
X99386160Y-118377786D01*
X99394343Y-118400655D01*
X99400244Y-118424215D01*
X99403808Y-118448241D01*
X99405000Y-118472500D01*
X99405000Y-119017500D01*
X99403808Y-119041759D01*
X99400244Y-119065785D01*
X99394343Y-119089345D01*
X99386160Y-119112214D01*
X99375776Y-119134171D01*
X99363289Y-119155004D01*
X99348820Y-119174512D01*
X99332509Y-119192509D01*
X99314512Y-119208820D01*
X99295004Y-119223289D01*
X99274171Y-119235776D01*
X99252214Y-119246160D01*
X99229345Y-119254343D01*
X99205785Y-119260244D01*
X99181759Y-119263808D01*
X99157500Y-119265000D01*
X98662500Y-119265000D01*
X98638241Y-119263808D01*
X98614215Y-119260244D01*
X98590655Y-119254343D01*
X98567786Y-119246160D01*
X98545829Y-119235776D01*
X98524996Y-119223289D01*
X98505488Y-119208820D01*
X98487491Y-119192509D01*
X98471180Y-119174512D01*
X98456711Y-119155004D01*
X98444224Y-119134171D01*
X98433840Y-119112214D01*
X98425657Y-119089345D01*
X98419756Y-119065785D01*
X98416192Y-119041759D01*
X98415000Y-119017500D01*
X98415000Y-118472500D01*
X98416192Y-118448241D01*
X98419756Y-118424215D01*
X98425657Y-118400655D01*
X98433840Y-118377786D01*
X98444224Y-118355829D01*
X98456711Y-118334996D01*
X98471180Y-118315488D01*
X98487491Y-118297491D01*
X98505488Y-118281180D01*
X98524996Y-118266711D01*
X98545829Y-118254224D01*
X98567786Y-118243840D01*
X98590655Y-118235657D01*
X98614215Y-118229756D01*
X98638241Y-118226192D01*
X98662500Y-118225000D01*
X99157500Y-118225000D01*
X99181759Y-118226192D01*
X99181759Y-118226192D01*
G37*
D20*
X98910000Y-118745000D03*
D12*
G36*
X98211759Y-118226192D02*
X98235785Y-118229756D01*
X98259345Y-118235657D01*
X98282214Y-118243840D01*
X98304171Y-118254224D01*
X98325004Y-118266711D01*
X98344512Y-118281180D01*
X98362509Y-118297491D01*
X98378820Y-118315488D01*
X98393289Y-118334996D01*
X98405776Y-118355829D01*
X98416160Y-118377786D01*
X98424343Y-118400655D01*
X98430244Y-118424215D01*
X98433808Y-118448241D01*
X98435000Y-118472500D01*
X98435000Y-119017500D01*
X98433808Y-119041759D01*
X98430244Y-119065785D01*
X98424343Y-119089345D01*
X98416160Y-119112214D01*
X98405776Y-119134171D01*
X98393289Y-119155004D01*
X98378820Y-119174512D01*
X98362509Y-119192509D01*
X98344512Y-119208820D01*
X98325004Y-119223289D01*
X98304171Y-119235776D01*
X98282214Y-119246160D01*
X98259345Y-119254343D01*
X98235785Y-119260244D01*
X98211759Y-119263808D01*
X98187500Y-119265000D01*
X97692500Y-119265000D01*
X97668241Y-119263808D01*
X97644215Y-119260244D01*
X97620655Y-119254343D01*
X97597786Y-119246160D01*
X97575829Y-119235776D01*
X97554996Y-119223289D01*
X97535488Y-119208820D01*
X97517491Y-119192509D01*
X97501180Y-119174512D01*
X97486711Y-119155004D01*
X97474224Y-119134171D01*
X97463840Y-119112214D01*
X97455657Y-119089345D01*
X97449756Y-119065785D01*
X97446192Y-119041759D01*
X97445000Y-119017500D01*
X97445000Y-118472500D01*
X97446192Y-118448241D01*
X97449756Y-118424215D01*
X97455657Y-118400655D01*
X97463840Y-118377786D01*
X97474224Y-118355829D01*
X97486711Y-118334996D01*
X97501180Y-118315488D01*
X97517491Y-118297491D01*
X97535488Y-118281180D01*
X97554996Y-118266711D01*
X97575829Y-118254224D01*
X97597786Y-118243840D01*
X97620655Y-118235657D01*
X97644215Y-118229756D01*
X97668241Y-118226192D01*
X97692500Y-118225000D01*
X98187500Y-118225000D01*
X98211759Y-118226192D01*
X98211759Y-118226192D01*
G37*
D20*
X97940000Y-118745000D03*
G04 #@! TD*
D12*
G04 #@! TO.C,C11*
G36*
X104561759Y-109336192D02*
X104585785Y-109339756D01*
X104609345Y-109345657D01*
X104632214Y-109353840D01*
X104654171Y-109364224D01*
X104675004Y-109376711D01*
X104694512Y-109391180D01*
X104712509Y-109407491D01*
X104728820Y-109425488D01*
X104743289Y-109444996D01*
X104755776Y-109465829D01*
X104766160Y-109487786D01*
X104774343Y-109510655D01*
X104780244Y-109534215D01*
X104783808Y-109558241D01*
X104785000Y-109582500D01*
X104785000Y-110127500D01*
X104783808Y-110151759D01*
X104780244Y-110175785D01*
X104774343Y-110199345D01*
X104766160Y-110222214D01*
X104755776Y-110244171D01*
X104743289Y-110265004D01*
X104728820Y-110284512D01*
X104712509Y-110302509D01*
X104694512Y-110318820D01*
X104675004Y-110333289D01*
X104654171Y-110345776D01*
X104632214Y-110356160D01*
X104609345Y-110364343D01*
X104585785Y-110370244D01*
X104561759Y-110373808D01*
X104537500Y-110375000D01*
X104042500Y-110375000D01*
X104018241Y-110373808D01*
X103994215Y-110370244D01*
X103970655Y-110364343D01*
X103947786Y-110356160D01*
X103925829Y-110345776D01*
X103904996Y-110333289D01*
X103885488Y-110318820D01*
X103867491Y-110302509D01*
X103851180Y-110284512D01*
X103836711Y-110265004D01*
X103824224Y-110244171D01*
X103813840Y-110222214D01*
X103805657Y-110199345D01*
X103799756Y-110175785D01*
X103796192Y-110151759D01*
X103795000Y-110127500D01*
X103795000Y-109582500D01*
X103796192Y-109558241D01*
X103799756Y-109534215D01*
X103805657Y-109510655D01*
X103813840Y-109487786D01*
X103824224Y-109465829D01*
X103836711Y-109444996D01*
X103851180Y-109425488D01*
X103867491Y-109407491D01*
X103885488Y-109391180D01*
X103904996Y-109376711D01*
X103925829Y-109364224D01*
X103947786Y-109353840D01*
X103970655Y-109345657D01*
X103994215Y-109339756D01*
X104018241Y-109336192D01*
X104042500Y-109335000D01*
X104537500Y-109335000D01*
X104561759Y-109336192D01*
X104561759Y-109336192D01*
G37*
D20*
X104290000Y-109855000D03*
D12*
G36*
X105531759Y-109336192D02*
X105555785Y-109339756D01*
X105579345Y-109345657D01*
X105602214Y-109353840D01*
X105624171Y-109364224D01*
X105645004Y-109376711D01*
X105664512Y-109391180D01*
X105682509Y-109407491D01*
X105698820Y-109425488D01*
X105713289Y-109444996D01*
X105725776Y-109465829D01*
X105736160Y-109487786D01*
X105744343Y-109510655D01*
X105750244Y-109534215D01*
X105753808Y-109558241D01*
X105755000Y-109582500D01*
X105755000Y-110127500D01*
X105753808Y-110151759D01*
X105750244Y-110175785D01*
X105744343Y-110199345D01*
X105736160Y-110222214D01*
X105725776Y-110244171D01*
X105713289Y-110265004D01*
X105698820Y-110284512D01*
X105682509Y-110302509D01*
X105664512Y-110318820D01*
X105645004Y-110333289D01*
X105624171Y-110345776D01*
X105602214Y-110356160D01*
X105579345Y-110364343D01*
X105555785Y-110370244D01*
X105531759Y-110373808D01*
X105507500Y-110375000D01*
X105012500Y-110375000D01*
X104988241Y-110373808D01*
X104964215Y-110370244D01*
X104940655Y-110364343D01*
X104917786Y-110356160D01*
X104895829Y-110345776D01*
X104874996Y-110333289D01*
X104855488Y-110318820D01*
X104837491Y-110302509D01*
X104821180Y-110284512D01*
X104806711Y-110265004D01*
X104794224Y-110244171D01*
X104783840Y-110222214D01*
X104775657Y-110199345D01*
X104769756Y-110175785D01*
X104766192Y-110151759D01*
X104765000Y-110127500D01*
X104765000Y-109582500D01*
X104766192Y-109558241D01*
X104769756Y-109534215D01*
X104775657Y-109510655D01*
X104783840Y-109487786D01*
X104794224Y-109465829D01*
X104806711Y-109444996D01*
X104821180Y-109425488D01*
X104837491Y-109407491D01*
X104855488Y-109391180D01*
X104874996Y-109376711D01*
X104895829Y-109364224D01*
X104917786Y-109353840D01*
X104940655Y-109345657D01*
X104964215Y-109339756D01*
X104988241Y-109336192D01*
X105012500Y-109335000D01*
X105507500Y-109335000D01*
X105531759Y-109336192D01*
X105531759Y-109336192D01*
G37*
D20*
X105260000Y-109855000D03*
G04 #@! TD*
D12*
G04 #@! TO.C,C12*
G36*
X98211759Y-119496192D02*
X98235785Y-119499756D01*
X98259345Y-119505657D01*
X98282214Y-119513840D01*
X98304171Y-119524224D01*
X98325004Y-119536711D01*
X98344512Y-119551180D01*
X98362509Y-119567491D01*
X98378820Y-119585488D01*
X98393289Y-119604996D01*
X98405776Y-119625829D01*
X98416160Y-119647786D01*
X98424343Y-119670655D01*
X98430244Y-119694215D01*
X98433808Y-119718241D01*
X98435000Y-119742500D01*
X98435000Y-120287500D01*
X98433808Y-120311759D01*
X98430244Y-120335785D01*
X98424343Y-120359345D01*
X98416160Y-120382214D01*
X98405776Y-120404171D01*
X98393289Y-120425004D01*
X98378820Y-120444512D01*
X98362509Y-120462509D01*
X98344512Y-120478820D01*
X98325004Y-120493289D01*
X98304171Y-120505776D01*
X98282214Y-120516160D01*
X98259345Y-120524343D01*
X98235785Y-120530244D01*
X98211759Y-120533808D01*
X98187500Y-120535000D01*
X97692500Y-120535000D01*
X97668241Y-120533808D01*
X97644215Y-120530244D01*
X97620655Y-120524343D01*
X97597786Y-120516160D01*
X97575829Y-120505776D01*
X97554996Y-120493289D01*
X97535488Y-120478820D01*
X97517491Y-120462509D01*
X97501180Y-120444512D01*
X97486711Y-120425004D01*
X97474224Y-120404171D01*
X97463840Y-120382214D01*
X97455657Y-120359345D01*
X97449756Y-120335785D01*
X97446192Y-120311759D01*
X97445000Y-120287500D01*
X97445000Y-119742500D01*
X97446192Y-119718241D01*
X97449756Y-119694215D01*
X97455657Y-119670655D01*
X97463840Y-119647786D01*
X97474224Y-119625829D01*
X97486711Y-119604996D01*
X97501180Y-119585488D01*
X97517491Y-119567491D01*
X97535488Y-119551180D01*
X97554996Y-119536711D01*
X97575829Y-119524224D01*
X97597786Y-119513840D01*
X97620655Y-119505657D01*
X97644215Y-119499756D01*
X97668241Y-119496192D01*
X97692500Y-119495000D01*
X98187500Y-119495000D01*
X98211759Y-119496192D01*
X98211759Y-119496192D01*
G37*
D20*
X97940000Y-120015000D03*
D12*
G36*
X99181759Y-119496192D02*
X99205785Y-119499756D01*
X99229345Y-119505657D01*
X99252214Y-119513840D01*
X99274171Y-119524224D01*
X99295004Y-119536711D01*
X99314512Y-119551180D01*
X99332509Y-119567491D01*
X99348820Y-119585488D01*
X99363289Y-119604996D01*
X99375776Y-119625829D01*
X99386160Y-119647786D01*
X99394343Y-119670655D01*
X99400244Y-119694215D01*
X99403808Y-119718241D01*
X99405000Y-119742500D01*
X99405000Y-120287500D01*
X99403808Y-120311759D01*
X99400244Y-120335785D01*
X99394343Y-120359345D01*
X99386160Y-120382214D01*
X99375776Y-120404171D01*
X99363289Y-120425004D01*
X99348820Y-120444512D01*
X99332509Y-120462509D01*
X99314512Y-120478820D01*
X99295004Y-120493289D01*
X99274171Y-120505776D01*
X99252214Y-120516160D01*
X99229345Y-120524343D01*
X99205785Y-120530244D01*
X99181759Y-120533808D01*
X99157500Y-120535000D01*
X98662500Y-120535000D01*
X98638241Y-120533808D01*
X98614215Y-120530244D01*
X98590655Y-120524343D01*
X98567786Y-120516160D01*
X98545829Y-120505776D01*
X98524996Y-120493289D01*
X98505488Y-120478820D01*
X98487491Y-120462509D01*
X98471180Y-120444512D01*
X98456711Y-120425004D01*
X98444224Y-120404171D01*
X98433840Y-120382214D01*
X98425657Y-120359345D01*
X98419756Y-120335785D01*
X98416192Y-120311759D01*
X98415000Y-120287500D01*
X98415000Y-119742500D01*
X98416192Y-119718241D01*
X98419756Y-119694215D01*
X98425657Y-119670655D01*
X98433840Y-119647786D01*
X98444224Y-119625829D01*
X98456711Y-119604996D01*
X98471180Y-119585488D01*
X98487491Y-119567491D01*
X98505488Y-119551180D01*
X98524996Y-119536711D01*
X98545829Y-119524224D01*
X98567786Y-119513840D01*
X98590655Y-119505657D01*
X98614215Y-119499756D01*
X98638241Y-119496192D01*
X98662500Y-119495000D01*
X99157500Y-119495000D01*
X99181759Y-119496192D01*
X99181759Y-119496192D01*
G37*
D20*
X98910000Y-120015000D03*
G04 #@! TD*
D12*
G04 #@! TO.C,C13*
G36*
X108371759Y-143626192D02*
X108395785Y-143629756D01*
X108419345Y-143635657D01*
X108442214Y-143643840D01*
X108464171Y-143654224D01*
X108485004Y-143666711D01*
X108504512Y-143681180D01*
X108522509Y-143697491D01*
X108538820Y-143715488D01*
X108553289Y-143734996D01*
X108565776Y-143755829D01*
X108576160Y-143777786D01*
X108584343Y-143800655D01*
X108590244Y-143824215D01*
X108593808Y-143848241D01*
X108595000Y-143872500D01*
X108595000Y-144417500D01*
X108593808Y-144441759D01*
X108590244Y-144465785D01*
X108584343Y-144489345D01*
X108576160Y-144512214D01*
X108565776Y-144534171D01*
X108553289Y-144555004D01*
X108538820Y-144574512D01*
X108522509Y-144592509D01*
X108504512Y-144608820D01*
X108485004Y-144623289D01*
X108464171Y-144635776D01*
X108442214Y-144646160D01*
X108419345Y-144654343D01*
X108395785Y-144660244D01*
X108371759Y-144663808D01*
X108347500Y-144665000D01*
X107852500Y-144665000D01*
X107828241Y-144663808D01*
X107804215Y-144660244D01*
X107780655Y-144654343D01*
X107757786Y-144646160D01*
X107735829Y-144635776D01*
X107714996Y-144623289D01*
X107695488Y-144608820D01*
X107677491Y-144592509D01*
X107661180Y-144574512D01*
X107646711Y-144555004D01*
X107634224Y-144534171D01*
X107623840Y-144512214D01*
X107615657Y-144489345D01*
X107609756Y-144465785D01*
X107606192Y-144441759D01*
X107605000Y-144417500D01*
X107605000Y-143872500D01*
X107606192Y-143848241D01*
X107609756Y-143824215D01*
X107615657Y-143800655D01*
X107623840Y-143777786D01*
X107634224Y-143755829D01*
X107646711Y-143734996D01*
X107661180Y-143715488D01*
X107677491Y-143697491D01*
X107695488Y-143681180D01*
X107714996Y-143666711D01*
X107735829Y-143654224D01*
X107757786Y-143643840D01*
X107780655Y-143635657D01*
X107804215Y-143629756D01*
X107828241Y-143626192D01*
X107852500Y-143625000D01*
X108347500Y-143625000D01*
X108371759Y-143626192D01*
X108371759Y-143626192D01*
G37*
D20*
X108100000Y-144145000D03*
D12*
G36*
X109341759Y-143626192D02*
X109365785Y-143629756D01*
X109389345Y-143635657D01*
X109412214Y-143643840D01*
X109434171Y-143654224D01*
X109455004Y-143666711D01*
X109474512Y-143681180D01*
X109492509Y-143697491D01*
X109508820Y-143715488D01*
X109523289Y-143734996D01*
X109535776Y-143755829D01*
X109546160Y-143777786D01*
X109554343Y-143800655D01*
X109560244Y-143824215D01*
X109563808Y-143848241D01*
X109565000Y-143872500D01*
X109565000Y-144417500D01*
X109563808Y-144441759D01*
X109560244Y-144465785D01*
X109554343Y-144489345D01*
X109546160Y-144512214D01*
X109535776Y-144534171D01*
X109523289Y-144555004D01*
X109508820Y-144574512D01*
X109492509Y-144592509D01*
X109474512Y-144608820D01*
X109455004Y-144623289D01*
X109434171Y-144635776D01*
X109412214Y-144646160D01*
X109389345Y-144654343D01*
X109365785Y-144660244D01*
X109341759Y-144663808D01*
X109317500Y-144665000D01*
X108822500Y-144665000D01*
X108798241Y-144663808D01*
X108774215Y-144660244D01*
X108750655Y-144654343D01*
X108727786Y-144646160D01*
X108705829Y-144635776D01*
X108684996Y-144623289D01*
X108665488Y-144608820D01*
X108647491Y-144592509D01*
X108631180Y-144574512D01*
X108616711Y-144555004D01*
X108604224Y-144534171D01*
X108593840Y-144512214D01*
X108585657Y-144489345D01*
X108579756Y-144465785D01*
X108576192Y-144441759D01*
X108575000Y-144417500D01*
X108575000Y-143872500D01*
X108576192Y-143848241D01*
X108579756Y-143824215D01*
X108585657Y-143800655D01*
X108593840Y-143777786D01*
X108604224Y-143755829D01*
X108616711Y-143734996D01*
X108631180Y-143715488D01*
X108647491Y-143697491D01*
X108665488Y-143681180D01*
X108684996Y-143666711D01*
X108705829Y-143654224D01*
X108727786Y-143643840D01*
X108750655Y-143635657D01*
X108774215Y-143629756D01*
X108798241Y-143626192D01*
X108822500Y-143625000D01*
X109317500Y-143625000D01*
X109341759Y-143626192D01*
X109341759Y-143626192D01*
G37*
D20*
X109070000Y-144145000D03*
G04 #@! TD*
D12*
G04 #@! TO.C,C14*
G36*
X121071759Y-143626192D02*
X121095785Y-143629756D01*
X121119345Y-143635657D01*
X121142214Y-143643840D01*
X121164171Y-143654224D01*
X121185004Y-143666711D01*
X121204512Y-143681180D01*
X121222509Y-143697491D01*
X121238820Y-143715488D01*
X121253289Y-143734996D01*
X121265776Y-143755829D01*
X121276160Y-143777786D01*
X121284343Y-143800655D01*
X121290244Y-143824215D01*
X121293808Y-143848241D01*
X121295000Y-143872500D01*
X121295000Y-144417500D01*
X121293808Y-144441759D01*
X121290244Y-144465785D01*
X121284343Y-144489345D01*
X121276160Y-144512214D01*
X121265776Y-144534171D01*
X121253289Y-144555004D01*
X121238820Y-144574512D01*
X121222509Y-144592509D01*
X121204512Y-144608820D01*
X121185004Y-144623289D01*
X121164171Y-144635776D01*
X121142214Y-144646160D01*
X121119345Y-144654343D01*
X121095785Y-144660244D01*
X121071759Y-144663808D01*
X121047500Y-144665000D01*
X120552500Y-144665000D01*
X120528241Y-144663808D01*
X120504215Y-144660244D01*
X120480655Y-144654343D01*
X120457786Y-144646160D01*
X120435829Y-144635776D01*
X120414996Y-144623289D01*
X120395488Y-144608820D01*
X120377491Y-144592509D01*
X120361180Y-144574512D01*
X120346711Y-144555004D01*
X120334224Y-144534171D01*
X120323840Y-144512214D01*
X120315657Y-144489345D01*
X120309756Y-144465785D01*
X120306192Y-144441759D01*
X120305000Y-144417500D01*
X120305000Y-143872500D01*
X120306192Y-143848241D01*
X120309756Y-143824215D01*
X120315657Y-143800655D01*
X120323840Y-143777786D01*
X120334224Y-143755829D01*
X120346711Y-143734996D01*
X120361180Y-143715488D01*
X120377491Y-143697491D01*
X120395488Y-143681180D01*
X120414996Y-143666711D01*
X120435829Y-143654224D01*
X120457786Y-143643840D01*
X120480655Y-143635657D01*
X120504215Y-143629756D01*
X120528241Y-143626192D01*
X120552500Y-143625000D01*
X121047500Y-143625000D01*
X121071759Y-143626192D01*
X121071759Y-143626192D01*
G37*
D20*
X120800000Y-144145000D03*
D12*
G36*
X122041759Y-143626192D02*
X122065785Y-143629756D01*
X122089345Y-143635657D01*
X122112214Y-143643840D01*
X122134171Y-143654224D01*
X122155004Y-143666711D01*
X122174512Y-143681180D01*
X122192509Y-143697491D01*
X122208820Y-143715488D01*
X122223289Y-143734996D01*
X122235776Y-143755829D01*
X122246160Y-143777786D01*
X122254343Y-143800655D01*
X122260244Y-143824215D01*
X122263808Y-143848241D01*
X122265000Y-143872500D01*
X122265000Y-144417500D01*
X122263808Y-144441759D01*
X122260244Y-144465785D01*
X122254343Y-144489345D01*
X122246160Y-144512214D01*
X122235776Y-144534171D01*
X122223289Y-144555004D01*
X122208820Y-144574512D01*
X122192509Y-144592509D01*
X122174512Y-144608820D01*
X122155004Y-144623289D01*
X122134171Y-144635776D01*
X122112214Y-144646160D01*
X122089345Y-144654343D01*
X122065785Y-144660244D01*
X122041759Y-144663808D01*
X122017500Y-144665000D01*
X121522500Y-144665000D01*
X121498241Y-144663808D01*
X121474215Y-144660244D01*
X121450655Y-144654343D01*
X121427786Y-144646160D01*
X121405829Y-144635776D01*
X121384996Y-144623289D01*
X121365488Y-144608820D01*
X121347491Y-144592509D01*
X121331180Y-144574512D01*
X121316711Y-144555004D01*
X121304224Y-144534171D01*
X121293840Y-144512214D01*
X121285657Y-144489345D01*
X121279756Y-144465785D01*
X121276192Y-144441759D01*
X121275000Y-144417500D01*
X121275000Y-143872500D01*
X121276192Y-143848241D01*
X121279756Y-143824215D01*
X121285657Y-143800655D01*
X121293840Y-143777786D01*
X121304224Y-143755829D01*
X121316711Y-143734996D01*
X121331180Y-143715488D01*
X121347491Y-143697491D01*
X121365488Y-143681180D01*
X121384996Y-143666711D01*
X121405829Y-143654224D01*
X121427786Y-143643840D01*
X121450655Y-143635657D01*
X121474215Y-143629756D01*
X121498241Y-143626192D01*
X121522500Y-143625000D01*
X122017500Y-143625000D01*
X122041759Y-143626192D01*
X122041759Y-143626192D01*
G37*
D20*
X121770000Y-144145000D03*
G04 #@! TD*
D12*
G04 #@! TO.C,C15*
G36*
X109341759Y-142356192D02*
X109365785Y-142359756D01*
X109389345Y-142365657D01*
X109412214Y-142373840D01*
X109434171Y-142384224D01*
X109455004Y-142396711D01*
X109474512Y-142411180D01*
X109492509Y-142427491D01*
X109508820Y-142445488D01*
X109523289Y-142464996D01*
X109535776Y-142485829D01*
X109546160Y-142507786D01*
X109554343Y-142530655D01*
X109560244Y-142554215D01*
X109563808Y-142578241D01*
X109565000Y-142602500D01*
X109565000Y-143147500D01*
X109563808Y-143171759D01*
X109560244Y-143195785D01*
X109554343Y-143219345D01*
X109546160Y-143242214D01*
X109535776Y-143264171D01*
X109523289Y-143285004D01*
X109508820Y-143304512D01*
X109492509Y-143322509D01*
X109474512Y-143338820D01*
X109455004Y-143353289D01*
X109434171Y-143365776D01*
X109412214Y-143376160D01*
X109389345Y-143384343D01*
X109365785Y-143390244D01*
X109341759Y-143393808D01*
X109317500Y-143395000D01*
X108822500Y-143395000D01*
X108798241Y-143393808D01*
X108774215Y-143390244D01*
X108750655Y-143384343D01*
X108727786Y-143376160D01*
X108705829Y-143365776D01*
X108684996Y-143353289D01*
X108665488Y-143338820D01*
X108647491Y-143322509D01*
X108631180Y-143304512D01*
X108616711Y-143285004D01*
X108604224Y-143264171D01*
X108593840Y-143242214D01*
X108585657Y-143219345D01*
X108579756Y-143195785D01*
X108576192Y-143171759D01*
X108575000Y-143147500D01*
X108575000Y-142602500D01*
X108576192Y-142578241D01*
X108579756Y-142554215D01*
X108585657Y-142530655D01*
X108593840Y-142507786D01*
X108604224Y-142485829D01*
X108616711Y-142464996D01*
X108631180Y-142445488D01*
X108647491Y-142427491D01*
X108665488Y-142411180D01*
X108684996Y-142396711D01*
X108705829Y-142384224D01*
X108727786Y-142373840D01*
X108750655Y-142365657D01*
X108774215Y-142359756D01*
X108798241Y-142356192D01*
X108822500Y-142355000D01*
X109317500Y-142355000D01*
X109341759Y-142356192D01*
X109341759Y-142356192D01*
G37*
D20*
X109070000Y-142875000D03*
D12*
G36*
X108371759Y-142356192D02*
X108395785Y-142359756D01*
X108419345Y-142365657D01*
X108442214Y-142373840D01*
X108464171Y-142384224D01*
X108485004Y-142396711D01*
X108504512Y-142411180D01*
X108522509Y-142427491D01*
X108538820Y-142445488D01*
X108553289Y-142464996D01*
X108565776Y-142485829D01*
X108576160Y-142507786D01*
X108584343Y-142530655D01*
X108590244Y-142554215D01*
X108593808Y-142578241D01*
X108595000Y-142602500D01*
X108595000Y-143147500D01*
X108593808Y-143171759D01*
X108590244Y-143195785D01*
X108584343Y-143219345D01*
X108576160Y-143242214D01*
X108565776Y-143264171D01*
X108553289Y-143285004D01*
X108538820Y-143304512D01*
X108522509Y-143322509D01*
X108504512Y-143338820D01*
X108485004Y-143353289D01*
X108464171Y-143365776D01*
X108442214Y-143376160D01*
X108419345Y-143384343D01*
X108395785Y-143390244D01*
X108371759Y-143393808D01*
X108347500Y-143395000D01*
X107852500Y-143395000D01*
X107828241Y-143393808D01*
X107804215Y-143390244D01*
X107780655Y-143384343D01*
X107757786Y-143376160D01*
X107735829Y-143365776D01*
X107714996Y-143353289D01*
X107695488Y-143338820D01*
X107677491Y-143322509D01*
X107661180Y-143304512D01*
X107646711Y-143285004D01*
X107634224Y-143264171D01*
X107623840Y-143242214D01*
X107615657Y-143219345D01*
X107609756Y-143195785D01*
X107606192Y-143171759D01*
X107605000Y-143147500D01*
X107605000Y-142602500D01*
X107606192Y-142578241D01*
X107609756Y-142554215D01*
X107615657Y-142530655D01*
X107623840Y-142507786D01*
X107634224Y-142485829D01*
X107646711Y-142464996D01*
X107661180Y-142445488D01*
X107677491Y-142427491D01*
X107695488Y-142411180D01*
X107714996Y-142396711D01*
X107735829Y-142384224D01*
X107757786Y-142373840D01*
X107780655Y-142365657D01*
X107804215Y-142359756D01*
X107828241Y-142356192D01*
X107852500Y-142355000D01*
X108347500Y-142355000D01*
X108371759Y-142356192D01*
X108371759Y-142356192D01*
G37*
D20*
X108100000Y-142875000D03*
G04 #@! TD*
D12*
G04 #@! TO.C,C16*
G36*
X122041759Y-142356192D02*
X122065785Y-142359756D01*
X122089345Y-142365657D01*
X122112214Y-142373840D01*
X122134171Y-142384224D01*
X122155004Y-142396711D01*
X122174512Y-142411180D01*
X122192509Y-142427491D01*
X122208820Y-142445488D01*
X122223289Y-142464996D01*
X122235776Y-142485829D01*
X122246160Y-142507786D01*
X122254343Y-142530655D01*
X122260244Y-142554215D01*
X122263808Y-142578241D01*
X122265000Y-142602500D01*
X122265000Y-143147500D01*
X122263808Y-143171759D01*
X122260244Y-143195785D01*
X122254343Y-143219345D01*
X122246160Y-143242214D01*
X122235776Y-143264171D01*
X122223289Y-143285004D01*
X122208820Y-143304512D01*
X122192509Y-143322509D01*
X122174512Y-143338820D01*
X122155004Y-143353289D01*
X122134171Y-143365776D01*
X122112214Y-143376160D01*
X122089345Y-143384343D01*
X122065785Y-143390244D01*
X122041759Y-143393808D01*
X122017500Y-143395000D01*
X121522500Y-143395000D01*
X121498241Y-143393808D01*
X121474215Y-143390244D01*
X121450655Y-143384343D01*
X121427786Y-143376160D01*
X121405829Y-143365776D01*
X121384996Y-143353289D01*
X121365488Y-143338820D01*
X121347491Y-143322509D01*
X121331180Y-143304512D01*
X121316711Y-143285004D01*
X121304224Y-143264171D01*
X121293840Y-143242214D01*
X121285657Y-143219345D01*
X121279756Y-143195785D01*
X121276192Y-143171759D01*
X121275000Y-143147500D01*
X121275000Y-142602500D01*
X121276192Y-142578241D01*
X121279756Y-142554215D01*
X121285657Y-142530655D01*
X121293840Y-142507786D01*
X121304224Y-142485829D01*
X121316711Y-142464996D01*
X121331180Y-142445488D01*
X121347491Y-142427491D01*
X121365488Y-142411180D01*
X121384996Y-142396711D01*
X121405829Y-142384224D01*
X121427786Y-142373840D01*
X121450655Y-142365657D01*
X121474215Y-142359756D01*
X121498241Y-142356192D01*
X121522500Y-142355000D01*
X122017500Y-142355000D01*
X122041759Y-142356192D01*
X122041759Y-142356192D01*
G37*
D20*
X121770000Y-142875000D03*
D12*
G36*
X121071759Y-142356192D02*
X121095785Y-142359756D01*
X121119345Y-142365657D01*
X121142214Y-142373840D01*
X121164171Y-142384224D01*
X121185004Y-142396711D01*
X121204512Y-142411180D01*
X121222509Y-142427491D01*
X121238820Y-142445488D01*
X121253289Y-142464996D01*
X121265776Y-142485829D01*
X121276160Y-142507786D01*
X121284343Y-142530655D01*
X121290244Y-142554215D01*
X121293808Y-142578241D01*
X121295000Y-142602500D01*
X121295000Y-143147500D01*
X121293808Y-143171759D01*
X121290244Y-143195785D01*
X121284343Y-143219345D01*
X121276160Y-143242214D01*
X121265776Y-143264171D01*
X121253289Y-143285004D01*
X121238820Y-143304512D01*
X121222509Y-143322509D01*
X121204512Y-143338820D01*
X121185004Y-143353289D01*
X121164171Y-143365776D01*
X121142214Y-143376160D01*
X121119345Y-143384343D01*
X121095785Y-143390244D01*
X121071759Y-143393808D01*
X121047500Y-143395000D01*
X120552500Y-143395000D01*
X120528241Y-143393808D01*
X120504215Y-143390244D01*
X120480655Y-143384343D01*
X120457786Y-143376160D01*
X120435829Y-143365776D01*
X120414996Y-143353289D01*
X120395488Y-143338820D01*
X120377491Y-143322509D01*
X120361180Y-143304512D01*
X120346711Y-143285004D01*
X120334224Y-143264171D01*
X120323840Y-143242214D01*
X120315657Y-143219345D01*
X120309756Y-143195785D01*
X120306192Y-143171759D01*
X120305000Y-143147500D01*
X120305000Y-142602500D01*
X120306192Y-142578241D01*
X120309756Y-142554215D01*
X120315657Y-142530655D01*
X120323840Y-142507786D01*
X120334224Y-142485829D01*
X120346711Y-142464996D01*
X120361180Y-142445488D01*
X120377491Y-142427491D01*
X120395488Y-142411180D01*
X120414996Y-142396711D01*
X120435829Y-142384224D01*
X120457786Y-142373840D01*
X120480655Y-142365657D01*
X120504215Y-142359756D01*
X120528241Y-142356192D01*
X120552500Y-142355000D01*
X121047500Y-142355000D01*
X121071759Y-142356192D01*
X121071759Y-142356192D01*
G37*
D20*
X120800000Y-142875000D03*
G04 #@! TD*
D21*
G04 #@! TO.C,RV1*
X91150000Y-101050000D03*
X81650000Y-101050000D03*
D22*
X88900000Y-97750000D03*
X86400000Y-97750000D03*
X83900000Y-97750000D03*
X88900000Y-95250000D03*
X86400000Y-95250000D03*
X83900000Y-95250000D03*
G04 #@! TD*
G04 #@! TO.C,RV2*
X114380000Y-95250000D03*
X116880000Y-95250000D03*
X119380000Y-95250000D03*
X114380000Y-97750000D03*
X116880000Y-97750000D03*
X119380000Y-97750000D03*
D21*
X112130000Y-101050000D03*
X121630000Y-101050000D03*
G04 #@! TD*
D17*
G04 #@! TO.C,JAGND1*
X125730000Y-125730000D03*
D16*
X125730000Y-128270000D03*
G04 #@! TD*
D12*
G04 #@! TO.C,C5*
G36*
X103357259Y-99127392D02*
X103381285Y-99130956D01*
X103404845Y-99136857D01*
X103427714Y-99145040D01*
X103449671Y-99155424D01*
X103470504Y-99167911D01*
X103490012Y-99182380D01*
X103508009Y-99198691D01*
X103524320Y-99216688D01*
X103538789Y-99236196D01*
X103551276Y-99257029D01*
X103561660Y-99278986D01*
X103569843Y-99301855D01*
X103575744Y-99325415D01*
X103579308Y-99349441D01*
X103580500Y-99373700D01*
X103580500Y-99868700D01*
X103579308Y-99892959D01*
X103575744Y-99916985D01*
X103569843Y-99940545D01*
X103561660Y-99963414D01*
X103551276Y-99985371D01*
X103538789Y-100006204D01*
X103524320Y-100025712D01*
X103508009Y-100043709D01*
X103490012Y-100060020D01*
X103470504Y-100074489D01*
X103449671Y-100086976D01*
X103427714Y-100097360D01*
X103404845Y-100105543D01*
X103381285Y-100111444D01*
X103357259Y-100115008D01*
X103333000Y-100116200D01*
X102788000Y-100116200D01*
X102763741Y-100115008D01*
X102739715Y-100111444D01*
X102716155Y-100105543D01*
X102693286Y-100097360D01*
X102671329Y-100086976D01*
X102650496Y-100074489D01*
X102630988Y-100060020D01*
X102612991Y-100043709D01*
X102596680Y-100025712D01*
X102582211Y-100006204D01*
X102569724Y-99985371D01*
X102559340Y-99963414D01*
X102551157Y-99940545D01*
X102545256Y-99916985D01*
X102541692Y-99892959D01*
X102540500Y-99868700D01*
X102540500Y-99373700D01*
X102541692Y-99349441D01*
X102545256Y-99325415D01*
X102551157Y-99301855D01*
X102559340Y-99278986D01*
X102569724Y-99257029D01*
X102582211Y-99236196D01*
X102596680Y-99216688D01*
X102612991Y-99198691D01*
X102630988Y-99182380D01*
X102650496Y-99167911D01*
X102671329Y-99155424D01*
X102693286Y-99145040D01*
X102716155Y-99136857D01*
X102739715Y-99130956D01*
X102763741Y-99127392D01*
X102788000Y-99126200D01*
X103333000Y-99126200D01*
X103357259Y-99127392D01*
X103357259Y-99127392D01*
G37*
D20*
X103060500Y-99621200D03*
D12*
G36*
X103357259Y-98157392D02*
X103381285Y-98160956D01*
X103404845Y-98166857D01*
X103427714Y-98175040D01*
X103449671Y-98185424D01*
X103470504Y-98197911D01*
X103490012Y-98212380D01*
X103508009Y-98228691D01*
X103524320Y-98246688D01*
X103538789Y-98266196D01*
X103551276Y-98287029D01*
X103561660Y-98308986D01*
X103569843Y-98331855D01*
X103575744Y-98355415D01*
X103579308Y-98379441D01*
X103580500Y-98403700D01*
X103580500Y-98898700D01*
X103579308Y-98922959D01*
X103575744Y-98946985D01*
X103569843Y-98970545D01*
X103561660Y-98993414D01*
X103551276Y-99015371D01*
X103538789Y-99036204D01*
X103524320Y-99055712D01*
X103508009Y-99073709D01*
X103490012Y-99090020D01*
X103470504Y-99104489D01*
X103449671Y-99116976D01*
X103427714Y-99127360D01*
X103404845Y-99135543D01*
X103381285Y-99141444D01*
X103357259Y-99145008D01*
X103333000Y-99146200D01*
X102788000Y-99146200D01*
X102763741Y-99145008D01*
X102739715Y-99141444D01*
X102716155Y-99135543D01*
X102693286Y-99127360D01*
X102671329Y-99116976D01*
X102650496Y-99104489D01*
X102630988Y-99090020D01*
X102612991Y-99073709D01*
X102596680Y-99055712D01*
X102582211Y-99036204D01*
X102569724Y-99015371D01*
X102559340Y-98993414D01*
X102551157Y-98970545D01*
X102545256Y-98946985D01*
X102541692Y-98922959D01*
X102540500Y-98898700D01*
X102540500Y-98403700D01*
X102541692Y-98379441D01*
X102545256Y-98355415D01*
X102551157Y-98331855D01*
X102559340Y-98308986D01*
X102569724Y-98287029D01*
X102582211Y-98266196D01*
X102596680Y-98246688D01*
X102612991Y-98228691D01*
X102630988Y-98212380D01*
X102650496Y-98197911D01*
X102671329Y-98185424D01*
X102693286Y-98175040D01*
X102716155Y-98166857D01*
X102739715Y-98160956D01*
X102763741Y-98157392D01*
X102788000Y-98156200D01*
X103333000Y-98156200D01*
X103357259Y-98157392D01*
X103357259Y-98157392D01*
G37*
D20*
X103060500Y-98651200D03*
G04 #@! TD*
D12*
G04 #@! TO.C,C6*
G36*
X101833259Y-97204892D02*
X101857285Y-97208456D01*
X101880845Y-97214357D01*
X101903714Y-97222540D01*
X101925671Y-97232924D01*
X101946504Y-97245411D01*
X101966012Y-97259880D01*
X101984009Y-97276191D01*
X102000320Y-97294188D01*
X102014789Y-97313696D01*
X102027276Y-97334529D01*
X102037660Y-97356486D01*
X102045843Y-97379355D01*
X102051744Y-97402915D01*
X102055308Y-97426941D01*
X102056500Y-97451200D01*
X102056500Y-97946200D01*
X102055308Y-97970459D01*
X102051744Y-97994485D01*
X102045843Y-98018045D01*
X102037660Y-98040914D01*
X102027276Y-98062871D01*
X102014789Y-98083704D01*
X102000320Y-98103212D01*
X101984009Y-98121209D01*
X101966012Y-98137520D01*
X101946504Y-98151989D01*
X101925671Y-98164476D01*
X101903714Y-98174860D01*
X101880845Y-98183043D01*
X101857285Y-98188944D01*
X101833259Y-98192508D01*
X101809000Y-98193700D01*
X101264000Y-98193700D01*
X101239741Y-98192508D01*
X101215715Y-98188944D01*
X101192155Y-98183043D01*
X101169286Y-98174860D01*
X101147329Y-98164476D01*
X101126496Y-98151989D01*
X101106988Y-98137520D01*
X101088991Y-98121209D01*
X101072680Y-98103212D01*
X101058211Y-98083704D01*
X101045724Y-98062871D01*
X101035340Y-98040914D01*
X101027157Y-98018045D01*
X101021256Y-97994485D01*
X101017692Y-97970459D01*
X101016500Y-97946200D01*
X101016500Y-97451200D01*
X101017692Y-97426941D01*
X101021256Y-97402915D01*
X101027157Y-97379355D01*
X101035340Y-97356486D01*
X101045724Y-97334529D01*
X101058211Y-97313696D01*
X101072680Y-97294188D01*
X101088991Y-97276191D01*
X101106988Y-97259880D01*
X101126496Y-97245411D01*
X101147329Y-97232924D01*
X101169286Y-97222540D01*
X101192155Y-97214357D01*
X101215715Y-97208456D01*
X101239741Y-97204892D01*
X101264000Y-97203700D01*
X101809000Y-97203700D01*
X101833259Y-97204892D01*
X101833259Y-97204892D01*
G37*
D20*
X101536500Y-97698700D03*
D12*
G36*
X101833259Y-98174892D02*
X101857285Y-98178456D01*
X101880845Y-98184357D01*
X101903714Y-98192540D01*
X101925671Y-98202924D01*
X101946504Y-98215411D01*
X101966012Y-98229880D01*
X101984009Y-98246191D01*
X102000320Y-98264188D01*
X102014789Y-98283696D01*
X102027276Y-98304529D01*
X102037660Y-98326486D01*
X102045843Y-98349355D01*
X102051744Y-98372915D01*
X102055308Y-98396941D01*
X102056500Y-98421200D01*
X102056500Y-98916200D01*
X102055308Y-98940459D01*
X102051744Y-98964485D01*
X102045843Y-98988045D01*
X102037660Y-99010914D01*
X102027276Y-99032871D01*
X102014789Y-99053704D01*
X102000320Y-99073212D01*
X101984009Y-99091209D01*
X101966012Y-99107520D01*
X101946504Y-99121989D01*
X101925671Y-99134476D01*
X101903714Y-99144860D01*
X101880845Y-99153043D01*
X101857285Y-99158944D01*
X101833259Y-99162508D01*
X101809000Y-99163700D01*
X101264000Y-99163700D01*
X101239741Y-99162508D01*
X101215715Y-99158944D01*
X101192155Y-99153043D01*
X101169286Y-99144860D01*
X101147329Y-99134476D01*
X101126496Y-99121989D01*
X101106988Y-99107520D01*
X101088991Y-99091209D01*
X101072680Y-99073212D01*
X101058211Y-99053704D01*
X101045724Y-99032871D01*
X101035340Y-99010914D01*
X101027157Y-98988045D01*
X101021256Y-98964485D01*
X101017692Y-98940459D01*
X101016500Y-98916200D01*
X101016500Y-98421200D01*
X101017692Y-98396941D01*
X101021256Y-98372915D01*
X101027157Y-98349355D01*
X101035340Y-98326486D01*
X101045724Y-98304529D01*
X101058211Y-98283696D01*
X101072680Y-98264188D01*
X101088991Y-98246191D01*
X101106988Y-98229880D01*
X101126496Y-98215411D01*
X101147329Y-98202924D01*
X101169286Y-98192540D01*
X101192155Y-98184357D01*
X101215715Y-98178456D01*
X101239741Y-98174892D01*
X101264000Y-98173700D01*
X101809000Y-98173700D01*
X101833259Y-98174892D01*
X101833259Y-98174892D01*
G37*
D20*
X101536500Y-98668700D03*
G04 #@! TD*
D12*
G04 #@! TO.C,C7*
G36*
X103499759Y-103570392D02*
X103523785Y-103573956D01*
X103547345Y-103579857D01*
X103570214Y-103588040D01*
X103592171Y-103598424D01*
X103613004Y-103610911D01*
X103632512Y-103625380D01*
X103650509Y-103641691D01*
X103666820Y-103659688D01*
X103681289Y-103679196D01*
X103693776Y-103700029D01*
X103704160Y-103721986D01*
X103712343Y-103744855D01*
X103718244Y-103768415D01*
X103721808Y-103792441D01*
X103723000Y-103816700D01*
X103723000Y-104361700D01*
X103721808Y-104385959D01*
X103718244Y-104409985D01*
X103712343Y-104433545D01*
X103704160Y-104456414D01*
X103693776Y-104478371D01*
X103681289Y-104499204D01*
X103666820Y-104518712D01*
X103650509Y-104536709D01*
X103632512Y-104553020D01*
X103613004Y-104567489D01*
X103592171Y-104579976D01*
X103570214Y-104590360D01*
X103547345Y-104598543D01*
X103523785Y-104604444D01*
X103499759Y-104608008D01*
X103475500Y-104609200D01*
X102980500Y-104609200D01*
X102956241Y-104608008D01*
X102932215Y-104604444D01*
X102908655Y-104598543D01*
X102885786Y-104590360D01*
X102863829Y-104579976D01*
X102842996Y-104567489D01*
X102823488Y-104553020D01*
X102805491Y-104536709D01*
X102789180Y-104518712D01*
X102774711Y-104499204D01*
X102762224Y-104478371D01*
X102751840Y-104456414D01*
X102743657Y-104433545D01*
X102737756Y-104409985D01*
X102734192Y-104385959D01*
X102733000Y-104361700D01*
X102733000Y-103816700D01*
X102734192Y-103792441D01*
X102737756Y-103768415D01*
X102743657Y-103744855D01*
X102751840Y-103721986D01*
X102762224Y-103700029D01*
X102774711Y-103679196D01*
X102789180Y-103659688D01*
X102805491Y-103641691D01*
X102823488Y-103625380D01*
X102842996Y-103610911D01*
X102863829Y-103598424D01*
X102885786Y-103588040D01*
X102908655Y-103579857D01*
X102932215Y-103573956D01*
X102956241Y-103570392D01*
X102980500Y-103569200D01*
X103475500Y-103569200D01*
X103499759Y-103570392D01*
X103499759Y-103570392D01*
G37*
D20*
X103228000Y-104089200D03*
D12*
G36*
X102529759Y-103570392D02*
X102553785Y-103573956D01*
X102577345Y-103579857D01*
X102600214Y-103588040D01*
X102622171Y-103598424D01*
X102643004Y-103610911D01*
X102662512Y-103625380D01*
X102680509Y-103641691D01*
X102696820Y-103659688D01*
X102711289Y-103679196D01*
X102723776Y-103700029D01*
X102734160Y-103721986D01*
X102742343Y-103744855D01*
X102748244Y-103768415D01*
X102751808Y-103792441D01*
X102753000Y-103816700D01*
X102753000Y-104361700D01*
X102751808Y-104385959D01*
X102748244Y-104409985D01*
X102742343Y-104433545D01*
X102734160Y-104456414D01*
X102723776Y-104478371D01*
X102711289Y-104499204D01*
X102696820Y-104518712D01*
X102680509Y-104536709D01*
X102662512Y-104553020D01*
X102643004Y-104567489D01*
X102622171Y-104579976D01*
X102600214Y-104590360D01*
X102577345Y-104598543D01*
X102553785Y-104604444D01*
X102529759Y-104608008D01*
X102505500Y-104609200D01*
X102010500Y-104609200D01*
X101986241Y-104608008D01*
X101962215Y-104604444D01*
X101938655Y-104598543D01*
X101915786Y-104590360D01*
X101893829Y-104579976D01*
X101872996Y-104567489D01*
X101853488Y-104553020D01*
X101835491Y-104536709D01*
X101819180Y-104518712D01*
X101804711Y-104499204D01*
X101792224Y-104478371D01*
X101781840Y-104456414D01*
X101773657Y-104433545D01*
X101767756Y-104409985D01*
X101764192Y-104385959D01*
X101763000Y-104361700D01*
X101763000Y-103816700D01*
X101764192Y-103792441D01*
X101767756Y-103768415D01*
X101773657Y-103744855D01*
X101781840Y-103721986D01*
X101792224Y-103700029D01*
X101804711Y-103679196D01*
X101819180Y-103659688D01*
X101835491Y-103641691D01*
X101853488Y-103625380D01*
X101872996Y-103610911D01*
X101893829Y-103598424D01*
X101915786Y-103588040D01*
X101938655Y-103579857D01*
X101962215Y-103573956D01*
X101986241Y-103570392D01*
X102010500Y-103569200D01*
X102505500Y-103569200D01*
X102529759Y-103570392D01*
X102529759Y-103570392D01*
G37*
D20*
X102258000Y-104089200D03*
G04 #@! TD*
D12*
G04 #@! TO.C,C8*
G36*
X106230259Y-103595792D02*
X106254285Y-103599356D01*
X106277845Y-103605257D01*
X106300714Y-103613440D01*
X106322671Y-103623824D01*
X106343504Y-103636311D01*
X106363012Y-103650780D01*
X106381009Y-103667091D01*
X106397320Y-103685088D01*
X106411789Y-103704596D01*
X106424276Y-103725429D01*
X106434660Y-103747386D01*
X106442843Y-103770255D01*
X106448744Y-103793815D01*
X106452308Y-103817841D01*
X106453500Y-103842100D01*
X106453500Y-104387100D01*
X106452308Y-104411359D01*
X106448744Y-104435385D01*
X106442843Y-104458945D01*
X106434660Y-104481814D01*
X106424276Y-104503771D01*
X106411789Y-104524604D01*
X106397320Y-104544112D01*
X106381009Y-104562109D01*
X106363012Y-104578420D01*
X106343504Y-104592889D01*
X106322671Y-104605376D01*
X106300714Y-104615760D01*
X106277845Y-104623943D01*
X106254285Y-104629844D01*
X106230259Y-104633408D01*
X106206000Y-104634600D01*
X105711000Y-104634600D01*
X105686741Y-104633408D01*
X105662715Y-104629844D01*
X105639155Y-104623943D01*
X105616286Y-104615760D01*
X105594329Y-104605376D01*
X105573496Y-104592889D01*
X105553988Y-104578420D01*
X105535991Y-104562109D01*
X105519680Y-104544112D01*
X105505211Y-104524604D01*
X105492724Y-104503771D01*
X105482340Y-104481814D01*
X105474157Y-104458945D01*
X105468256Y-104435385D01*
X105464692Y-104411359D01*
X105463500Y-104387100D01*
X105463500Y-103842100D01*
X105464692Y-103817841D01*
X105468256Y-103793815D01*
X105474157Y-103770255D01*
X105482340Y-103747386D01*
X105492724Y-103725429D01*
X105505211Y-103704596D01*
X105519680Y-103685088D01*
X105535991Y-103667091D01*
X105553988Y-103650780D01*
X105573496Y-103636311D01*
X105594329Y-103623824D01*
X105616286Y-103613440D01*
X105639155Y-103605257D01*
X105662715Y-103599356D01*
X105686741Y-103595792D01*
X105711000Y-103594600D01*
X106206000Y-103594600D01*
X106230259Y-103595792D01*
X106230259Y-103595792D01*
G37*
D20*
X105958500Y-104114600D03*
D12*
G36*
X105260259Y-103595792D02*
X105284285Y-103599356D01*
X105307845Y-103605257D01*
X105330714Y-103613440D01*
X105352671Y-103623824D01*
X105373504Y-103636311D01*
X105393012Y-103650780D01*
X105411009Y-103667091D01*
X105427320Y-103685088D01*
X105441789Y-103704596D01*
X105454276Y-103725429D01*
X105464660Y-103747386D01*
X105472843Y-103770255D01*
X105478744Y-103793815D01*
X105482308Y-103817841D01*
X105483500Y-103842100D01*
X105483500Y-104387100D01*
X105482308Y-104411359D01*
X105478744Y-104435385D01*
X105472843Y-104458945D01*
X105464660Y-104481814D01*
X105454276Y-104503771D01*
X105441789Y-104524604D01*
X105427320Y-104544112D01*
X105411009Y-104562109D01*
X105393012Y-104578420D01*
X105373504Y-104592889D01*
X105352671Y-104605376D01*
X105330714Y-104615760D01*
X105307845Y-104623943D01*
X105284285Y-104629844D01*
X105260259Y-104633408D01*
X105236000Y-104634600D01*
X104741000Y-104634600D01*
X104716741Y-104633408D01*
X104692715Y-104629844D01*
X104669155Y-104623943D01*
X104646286Y-104615760D01*
X104624329Y-104605376D01*
X104603496Y-104592889D01*
X104583988Y-104578420D01*
X104565991Y-104562109D01*
X104549680Y-104544112D01*
X104535211Y-104524604D01*
X104522724Y-104503771D01*
X104512340Y-104481814D01*
X104504157Y-104458945D01*
X104498256Y-104435385D01*
X104494692Y-104411359D01*
X104493500Y-104387100D01*
X104493500Y-103842100D01*
X104494692Y-103817841D01*
X104498256Y-103793815D01*
X104504157Y-103770255D01*
X104512340Y-103747386D01*
X104522724Y-103725429D01*
X104535211Y-103704596D01*
X104549680Y-103685088D01*
X104565991Y-103667091D01*
X104583988Y-103650780D01*
X104603496Y-103636311D01*
X104624329Y-103623824D01*
X104646286Y-103613440D01*
X104669155Y-103605257D01*
X104692715Y-103599356D01*
X104716741Y-103595792D01*
X104741000Y-103594600D01*
X105236000Y-103594600D01*
X105260259Y-103595792D01*
X105260259Y-103595792D01*
G37*
D20*
X104988500Y-104114600D03*
G04 #@! TD*
D12*
G04 #@! TO.C,C17*
G36*
X100309259Y-99190892D02*
X100333285Y-99194456D01*
X100356845Y-99200357D01*
X100379714Y-99208540D01*
X100401671Y-99218924D01*
X100422504Y-99231411D01*
X100442012Y-99245880D01*
X100460009Y-99262191D01*
X100476320Y-99280188D01*
X100490789Y-99299696D01*
X100503276Y-99320529D01*
X100513660Y-99342486D01*
X100521843Y-99365355D01*
X100527744Y-99388915D01*
X100531308Y-99412941D01*
X100532500Y-99437200D01*
X100532500Y-99932200D01*
X100531308Y-99956459D01*
X100527744Y-99980485D01*
X100521843Y-100004045D01*
X100513660Y-100026914D01*
X100503276Y-100048871D01*
X100490789Y-100069704D01*
X100476320Y-100089212D01*
X100460009Y-100107209D01*
X100442012Y-100123520D01*
X100422504Y-100137989D01*
X100401671Y-100150476D01*
X100379714Y-100160860D01*
X100356845Y-100169043D01*
X100333285Y-100174944D01*
X100309259Y-100178508D01*
X100285000Y-100179700D01*
X99740000Y-100179700D01*
X99715741Y-100178508D01*
X99691715Y-100174944D01*
X99668155Y-100169043D01*
X99645286Y-100160860D01*
X99623329Y-100150476D01*
X99602496Y-100137989D01*
X99582988Y-100123520D01*
X99564991Y-100107209D01*
X99548680Y-100089212D01*
X99534211Y-100069704D01*
X99521724Y-100048871D01*
X99511340Y-100026914D01*
X99503157Y-100004045D01*
X99497256Y-99980485D01*
X99493692Y-99956459D01*
X99492500Y-99932200D01*
X99492500Y-99437200D01*
X99493692Y-99412941D01*
X99497256Y-99388915D01*
X99503157Y-99365355D01*
X99511340Y-99342486D01*
X99521724Y-99320529D01*
X99534211Y-99299696D01*
X99548680Y-99280188D01*
X99564991Y-99262191D01*
X99582988Y-99245880D01*
X99602496Y-99231411D01*
X99623329Y-99218924D01*
X99645286Y-99208540D01*
X99668155Y-99200357D01*
X99691715Y-99194456D01*
X99715741Y-99190892D01*
X99740000Y-99189700D01*
X100285000Y-99189700D01*
X100309259Y-99190892D01*
X100309259Y-99190892D01*
G37*
D20*
X100012500Y-99684700D03*
D12*
G36*
X100309259Y-98220892D02*
X100333285Y-98224456D01*
X100356845Y-98230357D01*
X100379714Y-98238540D01*
X100401671Y-98248924D01*
X100422504Y-98261411D01*
X100442012Y-98275880D01*
X100460009Y-98292191D01*
X100476320Y-98310188D01*
X100490789Y-98329696D01*
X100503276Y-98350529D01*
X100513660Y-98372486D01*
X100521843Y-98395355D01*
X100527744Y-98418915D01*
X100531308Y-98442941D01*
X100532500Y-98467200D01*
X100532500Y-98962200D01*
X100531308Y-98986459D01*
X100527744Y-99010485D01*
X100521843Y-99034045D01*
X100513660Y-99056914D01*
X100503276Y-99078871D01*
X100490789Y-99099704D01*
X100476320Y-99119212D01*
X100460009Y-99137209D01*
X100442012Y-99153520D01*
X100422504Y-99167989D01*
X100401671Y-99180476D01*
X100379714Y-99190860D01*
X100356845Y-99199043D01*
X100333285Y-99204944D01*
X100309259Y-99208508D01*
X100285000Y-99209700D01*
X99740000Y-99209700D01*
X99715741Y-99208508D01*
X99691715Y-99204944D01*
X99668155Y-99199043D01*
X99645286Y-99190860D01*
X99623329Y-99180476D01*
X99602496Y-99167989D01*
X99582988Y-99153520D01*
X99564991Y-99137209D01*
X99548680Y-99119212D01*
X99534211Y-99099704D01*
X99521724Y-99078871D01*
X99511340Y-99056914D01*
X99503157Y-99034045D01*
X99497256Y-99010485D01*
X99493692Y-98986459D01*
X99492500Y-98962200D01*
X99492500Y-98467200D01*
X99493692Y-98442941D01*
X99497256Y-98418915D01*
X99503157Y-98395355D01*
X99511340Y-98372486D01*
X99521724Y-98350529D01*
X99534211Y-98329696D01*
X99548680Y-98310188D01*
X99564991Y-98292191D01*
X99582988Y-98275880D01*
X99602496Y-98261411D01*
X99623329Y-98248924D01*
X99645286Y-98238540D01*
X99668155Y-98230357D01*
X99691715Y-98224456D01*
X99715741Y-98220892D01*
X99740000Y-98219700D01*
X100285000Y-98219700D01*
X100309259Y-98220892D01*
X100309259Y-98220892D01*
G37*
D20*
X100012500Y-98714700D03*
G04 #@! TD*
D17*
G04 #@! TO.C,J1*
X100609400Y-86791800D03*
D16*
X103149400Y-86791800D03*
G04 #@! TD*
D23*
G04 #@! TO.C,U3*
X100794500Y-102613500D03*
X101294500Y-102613500D03*
X101794500Y-102613500D03*
X102294500Y-102613500D03*
X102794500Y-102613500D03*
X103294500Y-102613500D03*
X103294500Y-100713500D03*
X102794500Y-100713500D03*
X102294500Y-100713500D03*
X101794500Y-100713500D03*
X101294500Y-100713500D03*
X100794500Y-100713500D03*
D24*
X102044500Y-101663500D03*
G04 #@! TD*
D12*
G04 #@! TO.C,R19*
G36*
X99293259Y-103872392D02*
X99317285Y-103875956D01*
X99340845Y-103881857D01*
X99363714Y-103890040D01*
X99385671Y-103900424D01*
X99406504Y-103912911D01*
X99426012Y-103927380D01*
X99444009Y-103943691D01*
X99460320Y-103961688D01*
X99474789Y-103981196D01*
X99487276Y-104002029D01*
X99497660Y-104023986D01*
X99505843Y-104046855D01*
X99511744Y-104070415D01*
X99515308Y-104094441D01*
X99516500Y-104118700D01*
X99516500Y-104613700D01*
X99515308Y-104637959D01*
X99511744Y-104661985D01*
X99505843Y-104685545D01*
X99497660Y-104708414D01*
X99487276Y-104730371D01*
X99474789Y-104751204D01*
X99460320Y-104770712D01*
X99444009Y-104788709D01*
X99426012Y-104805020D01*
X99406504Y-104819489D01*
X99385671Y-104831976D01*
X99363714Y-104842360D01*
X99340845Y-104850543D01*
X99317285Y-104856444D01*
X99293259Y-104860008D01*
X99269000Y-104861200D01*
X98724000Y-104861200D01*
X98699741Y-104860008D01*
X98675715Y-104856444D01*
X98652155Y-104850543D01*
X98629286Y-104842360D01*
X98607329Y-104831976D01*
X98586496Y-104819489D01*
X98566988Y-104805020D01*
X98548991Y-104788709D01*
X98532680Y-104770712D01*
X98518211Y-104751204D01*
X98505724Y-104730371D01*
X98495340Y-104708414D01*
X98487157Y-104685545D01*
X98481256Y-104661985D01*
X98477692Y-104637959D01*
X98476500Y-104613700D01*
X98476500Y-104118700D01*
X98477692Y-104094441D01*
X98481256Y-104070415D01*
X98487157Y-104046855D01*
X98495340Y-104023986D01*
X98505724Y-104002029D01*
X98518211Y-103981196D01*
X98532680Y-103961688D01*
X98548991Y-103943691D01*
X98566988Y-103927380D01*
X98586496Y-103912911D01*
X98607329Y-103900424D01*
X98629286Y-103890040D01*
X98652155Y-103881857D01*
X98675715Y-103875956D01*
X98699741Y-103872392D01*
X98724000Y-103871200D01*
X99269000Y-103871200D01*
X99293259Y-103872392D01*
X99293259Y-103872392D01*
G37*
D20*
X98996500Y-104366200D03*
D12*
G36*
X99293259Y-104842392D02*
X99317285Y-104845956D01*
X99340845Y-104851857D01*
X99363714Y-104860040D01*
X99385671Y-104870424D01*
X99406504Y-104882911D01*
X99426012Y-104897380D01*
X99444009Y-104913691D01*
X99460320Y-104931688D01*
X99474789Y-104951196D01*
X99487276Y-104972029D01*
X99497660Y-104993986D01*
X99505843Y-105016855D01*
X99511744Y-105040415D01*
X99515308Y-105064441D01*
X99516500Y-105088700D01*
X99516500Y-105583700D01*
X99515308Y-105607959D01*
X99511744Y-105631985D01*
X99505843Y-105655545D01*
X99497660Y-105678414D01*
X99487276Y-105700371D01*
X99474789Y-105721204D01*
X99460320Y-105740712D01*
X99444009Y-105758709D01*
X99426012Y-105775020D01*
X99406504Y-105789489D01*
X99385671Y-105801976D01*
X99363714Y-105812360D01*
X99340845Y-105820543D01*
X99317285Y-105826444D01*
X99293259Y-105830008D01*
X99269000Y-105831200D01*
X98724000Y-105831200D01*
X98699741Y-105830008D01*
X98675715Y-105826444D01*
X98652155Y-105820543D01*
X98629286Y-105812360D01*
X98607329Y-105801976D01*
X98586496Y-105789489D01*
X98566988Y-105775020D01*
X98548991Y-105758709D01*
X98532680Y-105740712D01*
X98518211Y-105721204D01*
X98505724Y-105700371D01*
X98495340Y-105678414D01*
X98487157Y-105655545D01*
X98481256Y-105631985D01*
X98477692Y-105607959D01*
X98476500Y-105583700D01*
X98476500Y-105088700D01*
X98477692Y-105064441D01*
X98481256Y-105040415D01*
X98487157Y-105016855D01*
X98495340Y-104993986D01*
X98505724Y-104972029D01*
X98518211Y-104951196D01*
X98532680Y-104931688D01*
X98548991Y-104913691D01*
X98566988Y-104897380D01*
X98586496Y-104882911D01*
X98607329Y-104870424D01*
X98629286Y-104860040D01*
X98652155Y-104851857D01*
X98675715Y-104845956D01*
X98699741Y-104842392D01*
X98724000Y-104841200D01*
X99269000Y-104841200D01*
X99293259Y-104842392D01*
X99293259Y-104842392D01*
G37*
D20*
X98996500Y-105336200D03*
G04 #@! TD*
D12*
G04 #@! TO.C,R20*
G36*
X96410359Y-102149992D02*
X96434385Y-102153556D01*
X96457945Y-102159457D01*
X96480814Y-102167640D01*
X96502771Y-102178024D01*
X96523604Y-102190511D01*
X96543112Y-102204980D01*
X96561109Y-102221291D01*
X96577420Y-102239288D01*
X96591889Y-102258796D01*
X96604376Y-102279629D01*
X96614760Y-102301586D01*
X96622943Y-102324455D01*
X96628844Y-102348015D01*
X96632408Y-102372041D01*
X96633600Y-102396300D01*
X96633600Y-102891300D01*
X96632408Y-102915559D01*
X96628844Y-102939585D01*
X96622943Y-102963145D01*
X96614760Y-102986014D01*
X96604376Y-103007971D01*
X96591889Y-103028804D01*
X96577420Y-103048312D01*
X96561109Y-103066309D01*
X96543112Y-103082620D01*
X96523604Y-103097089D01*
X96502771Y-103109576D01*
X96480814Y-103119960D01*
X96457945Y-103128143D01*
X96434385Y-103134044D01*
X96410359Y-103137608D01*
X96386100Y-103138800D01*
X95841100Y-103138800D01*
X95816841Y-103137608D01*
X95792815Y-103134044D01*
X95769255Y-103128143D01*
X95746386Y-103119960D01*
X95724429Y-103109576D01*
X95703596Y-103097089D01*
X95684088Y-103082620D01*
X95666091Y-103066309D01*
X95649780Y-103048312D01*
X95635311Y-103028804D01*
X95622824Y-103007971D01*
X95612440Y-102986014D01*
X95604257Y-102963145D01*
X95598356Y-102939585D01*
X95594792Y-102915559D01*
X95593600Y-102891300D01*
X95593600Y-102396300D01*
X95594792Y-102372041D01*
X95598356Y-102348015D01*
X95604257Y-102324455D01*
X95612440Y-102301586D01*
X95622824Y-102279629D01*
X95635311Y-102258796D01*
X95649780Y-102239288D01*
X95666091Y-102221291D01*
X95684088Y-102204980D01*
X95703596Y-102190511D01*
X95724429Y-102178024D01*
X95746386Y-102167640D01*
X95769255Y-102159457D01*
X95792815Y-102153556D01*
X95816841Y-102149992D01*
X95841100Y-102148800D01*
X96386100Y-102148800D01*
X96410359Y-102149992D01*
X96410359Y-102149992D01*
G37*
D20*
X96113600Y-102643800D03*
D12*
G36*
X96410359Y-101179992D02*
X96434385Y-101183556D01*
X96457945Y-101189457D01*
X96480814Y-101197640D01*
X96502771Y-101208024D01*
X96523604Y-101220511D01*
X96543112Y-101234980D01*
X96561109Y-101251291D01*
X96577420Y-101269288D01*
X96591889Y-101288796D01*
X96604376Y-101309629D01*
X96614760Y-101331586D01*
X96622943Y-101354455D01*
X96628844Y-101378015D01*
X96632408Y-101402041D01*
X96633600Y-101426300D01*
X96633600Y-101921300D01*
X96632408Y-101945559D01*
X96628844Y-101969585D01*
X96622943Y-101993145D01*
X96614760Y-102016014D01*
X96604376Y-102037971D01*
X96591889Y-102058804D01*
X96577420Y-102078312D01*
X96561109Y-102096309D01*
X96543112Y-102112620D01*
X96523604Y-102127089D01*
X96502771Y-102139576D01*
X96480814Y-102149960D01*
X96457945Y-102158143D01*
X96434385Y-102164044D01*
X96410359Y-102167608D01*
X96386100Y-102168800D01*
X95841100Y-102168800D01*
X95816841Y-102167608D01*
X95792815Y-102164044D01*
X95769255Y-102158143D01*
X95746386Y-102149960D01*
X95724429Y-102139576D01*
X95703596Y-102127089D01*
X95684088Y-102112620D01*
X95666091Y-102096309D01*
X95649780Y-102078312D01*
X95635311Y-102058804D01*
X95622824Y-102037971D01*
X95612440Y-102016014D01*
X95604257Y-101993145D01*
X95598356Y-101969585D01*
X95594792Y-101945559D01*
X95593600Y-101921300D01*
X95593600Y-101426300D01*
X95594792Y-101402041D01*
X95598356Y-101378015D01*
X95604257Y-101354455D01*
X95612440Y-101331586D01*
X95622824Y-101309629D01*
X95635311Y-101288796D01*
X95649780Y-101269288D01*
X95666091Y-101251291D01*
X95684088Y-101234980D01*
X95703596Y-101220511D01*
X95724429Y-101208024D01*
X95746386Y-101197640D01*
X95769255Y-101189457D01*
X95792815Y-101183556D01*
X95816841Y-101179992D01*
X95841100Y-101178800D01*
X96386100Y-101178800D01*
X96410359Y-101179992D01*
X96410359Y-101179992D01*
G37*
D20*
X96113600Y-101673800D03*
G04 #@! TD*
D12*
G04 #@! TO.C,R21*
G36*
X106230259Y-102071792D02*
X106254285Y-102075356D01*
X106277845Y-102081257D01*
X106300714Y-102089440D01*
X106322671Y-102099824D01*
X106343504Y-102112311D01*
X106363012Y-102126780D01*
X106381009Y-102143091D01*
X106397320Y-102161088D01*
X106411789Y-102180596D01*
X106424276Y-102201429D01*
X106434660Y-102223386D01*
X106442843Y-102246255D01*
X106448744Y-102269815D01*
X106452308Y-102293841D01*
X106453500Y-102318100D01*
X106453500Y-102863100D01*
X106452308Y-102887359D01*
X106448744Y-102911385D01*
X106442843Y-102934945D01*
X106434660Y-102957814D01*
X106424276Y-102979771D01*
X106411789Y-103000604D01*
X106397320Y-103020112D01*
X106381009Y-103038109D01*
X106363012Y-103054420D01*
X106343504Y-103068889D01*
X106322671Y-103081376D01*
X106300714Y-103091760D01*
X106277845Y-103099943D01*
X106254285Y-103105844D01*
X106230259Y-103109408D01*
X106206000Y-103110600D01*
X105711000Y-103110600D01*
X105686741Y-103109408D01*
X105662715Y-103105844D01*
X105639155Y-103099943D01*
X105616286Y-103091760D01*
X105594329Y-103081376D01*
X105573496Y-103068889D01*
X105553988Y-103054420D01*
X105535991Y-103038109D01*
X105519680Y-103020112D01*
X105505211Y-103000604D01*
X105492724Y-102979771D01*
X105482340Y-102957814D01*
X105474157Y-102934945D01*
X105468256Y-102911385D01*
X105464692Y-102887359D01*
X105463500Y-102863100D01*
X105463500Y-102318100D01*
X105464692Y-102293841D01*
X105468256Y-102269815D01*
X105474157Y-102246255D01*
X105482340Y-102223386D01*
X105492724Y-102201429D01*
X105505211Y-102180596D01*
X105519680Y-102161088D01*
X105535991Y-102143091D01*
X105553988Y-102126780D01*
X105573496Y-102112311D01*
X105594329Y-102099824D01*
X105616286Y-102089440D01*
X105639155Y-102081257D01*
X105662715Y-102075356D01*
X105686741Y-102071792D01*
X105711000Y-102070600D01*
X106206000Y-102070600D01*
X106230259Y-102071792D01*
X106230259Y-102071792D01*
G37*
D20*
X105958500Y-102590600D03*
D12*
G36*
X105260259Y-102071792D02*
X105284285Y-102075356D01*
X105307845Y-102081257D01*
X105330714Y-102089440D01*
X105352671Y-102099824D01*
X105373504Y-102112311D01*
X105393012Y-102126780D01*
X105411009Y-102143091D01*
X105427320Y-102161088D01*
X105441789Y-102180596D01*
X105454276Y-102201429D01*
X105464660Y-102223386D01*
X105472843Y-102246255D01*
X105478744Y-102269815D01*
X105482308Y-102293841D01*
X105483500Y-102318100D01*
X105483500Y-102863100D01*
X105482308Y-102887359D01*
X105478744Y-102911385D01*
X105472843Y-102934945D01*
X105464660Y-102957814D01*
X105454276Y-102979771D01*
X105441789Y-103000604D01*
X105427320Y-103020112D01*
X105411009Y-103038109D01*
X105393012Y-103054420D01*
X105373504Y-103068889D01*
X105352671Y-103081376D01*
X105330714Y-103091760D01*
X105307845Y-103099943D01*
X105284285Y-103105844D01*
X105260259Y-103109408D01*
X105236000Y-103110600D01*
X104741000Y-103110600D01*
X104716741Y-103109408D01*
X104692715Y-103105844D01*
X104669155Y-103099943D01*
X104646286Y-103091760D01*
X104624329Y-103081376D01*
X104603496Y-103068889D01*
X104583988Y-103054420D01*
X104565991Y-103038109D01*
X104549680Y-103020112D01*
X104535211Y-103000604D01*
X104522724Y-102979771D01*
X104512340Y-102957814D01*
X104504157Y-102934945D01*
X104498256Y-102911385D01*
X104494692Y-102887359D01*
X104493500Y-102863100D01*
X104493500Y-102318100D01*
X104494692Y-102293841D01*
X104498256Y-102269815D01*
X104504157Y-102246255D01*
X104512340Y-102223386D01*
X104522724Y-102201429D01*
X104535211Y-102180596D01*
X104549680Y-102161088D01*
X104565991Y-102143091D01*
X104583988Y-102126780D01*
X104603496Y-102112311D01*
X104624329Y-102099824D01*
X104646286Y-102089440D01*
X104669155Y-102081257D01*
X104692715Y-102075356D01*
X104716741Y-102071792D01*
X104741000Y-102070600D01*
X105236000Y-102070600D01*
X105260259Y-102071792D01*
X105260259Y-102071792D01*
G37*
D20*
X104988500Y-102590600D03*
G04 #@! TD*
D12*
G04 #@! TO.C,R22*
G36*
X97705759Y-101179992D02*
X97729785Y-101183556D01*
X97753345Y-101189457D01*
X97776214Y-101197640D01*
X97798171Y-101208024D01*
X97819004Y-101220511D01*
X97838512Y-101234980D01*
X97856509Y-101251291D01*
X97872820Y-101269288D01*
X97887289Y-101288796D01*
X97899776Y-101309629D01*
X97910160Y-101331586D01*
X97918343Y-101354455D01*
X97924244Y-101378015D01*
X97927808Y-101402041D01*
X97929000Y-101426300D01*
X97929000Y-101921300D01*
X97927808Y-101945559D01*
X97924244Y-101969585D01*
X97918343Y-101993145D01*
X97910160Y-102016014D01*
X97899776Y-102037971D01*
X97887289Y-102058804D01*
X97872820Y-102078312D01*
X97856509Y-102096309D01*
X97838512Y-102112620D01*
X97819004Y-102127089D01*
X97798171Y-102139576D01*
X97776214Y-102149960D01*
X97753345Y-102158143D01*
X97729785Y-102164044D01*
X97705759Y-102167608D01*
X97681500Y-102168800D01*
X97136500Y-102168800D01*
X97112241Y-102167608D01*
X97088215Y-102164044D01*
X97064655Y-102158143D01*
X97041786Y-102149960D01*
X97019829Y-102139576D01*
X96998996Y-102127089D01*
X96979488Y-102112620D01*
X96961491Y-102096309D01*
X96945180Y-102078312D01*
X96930711Y-102058804D01*
X96918224Y-102037971D01*
X96907840Y-102016014D01*
X96899657Y-101993145D01*
X96893756Y-101969585D01*
X96890192Y-101945559D01*
X96889000Y-101921300D01*
X96889000Y-101426300D01*
X96890192Y-101402041D01*
X96893756Y-101378015D01*
X96899657Y-101354455D01*
X96907840Y-101331586D01*
X96918224Y-101309629D01*
X96930711Y-101288796D01*
X96945180Y-101269288D01*
X96961491Y-101251291D01*
X96979488Y-101234980D01*
X96998996Y-101220511D01*
X97019829Y-101208024D01*
X97041786Y-101197640D01*
X97064655Y-101189457D01*
X97088215Y-101183556D01*
X97112241Y-101179992D01*
X97136500Y-101178800D01*
X97681500Y-101178800D01*
X97705759Y-101179992D01*
X97705759Y-101179992D01*
G37*
D20*
X97409000Y-101673800D03*
D12*
G36*
X97705759Y-102149992D02*
X97729785Y-102153556D01*
X97753345Y-102159457D01*
X97776214Y-102167640D01*
X97798171Y-102178024D01*
X97819004Y-102190511D01*
X97838512Y-102204980D01*
X97856509Y-102221291D01*
X97872820Y-102239288D01*
X97887289Y-102258796D01*
X97899776Y-102279629D01*
X97910160Y-102301586D01*
X97918343Y-102324455D01*
X97924244Y-102348015D01*
X97927808Y-102372041D01*
X97929000Y-102396300D01*
X97929000Y-102891300D01*
X97927808Y-102915559D01*
X97924244Y-102939585D01*
X97918343Y-102963145D01*
X97910160Y-102986014D01*
X97899776Y-103007971D01*
X97887289Y-103028804D01*
X97872820Y-103048312D01*
X97856509Y-103066309D01*
X97838512Y-103082620D01*
X97819004Y-103097089D01*
X97798171Y-103109576D01*
X97776214Y-103119960D01*
X97753345Y-103128143D01*
X97729785Y-103134044D01*
X97705759Y-103137608D01*
X97681500Y-103138800D01*
X97136500Y-103138800D01*
X97112241Y-103137608D01*
X97088215Y-103134044D01*
X97064655Y-103128143D01*
X97041786Y-103119960D01*
X97019829Y-103109576D01*
X96998996Y-103097089D01*
X96979488Y-103082620D01*
X96961491Y-103066309D01*
X96945180Y-103048312D01*
X96930711Y-103028804D01*
X96918224Y-103007971D01*
X96907840Y-102986014D01*
X96899657Y-102963145D01*
X96893756Y-102939585D01*
X96890192Y-102915559D01*
X96889000Y-102891300D01*
X96889000Y-102396300D01*
X96890192Y-102372041D01*
X96893756Y-102348015D01*
X96899657Y-102324455D01*
X96907840Y-102301586D01*
X96918224Y-102279629D01*
X96930711Y-102258796D01*
X96945180Y-102239288D01*
X96961491Y-102221291D01*
X96979488Y-102204980D01*
X96998996Y-102190511D01*
X97019829Y-102178024D01*
X97041786Y-102167640D01*
X97064655Y-102159457D01*
X97088215Y-102153556D01*
X97112241Y-102149992D01*
X97136500Y-102148800D01*
X97681500Y-102148800D01*
X97705759Y-102149992D01*
X97705759Y-102149992D01*
G37*
D20*
X97409000Y-102643800D03*
G04 #@! TD*
D12*
G04 #@! TO.C,R23*
G36*
X105260259Y-100179492D02*
X105284285Y-100183056D01*
X105307845Y-100188957D01*
X105330714Y-100197140D01*
X105352671Y-100207524D01*
X105373504Y-100220011D01*
X105393012Y-100234480D01*
X105411009Y-100250791D01*
X105427320Y-100268788D01*
X105441789Y-100288296D01*
X105454276Y-100309129D01*
X105464660Y-100331086D01*
X105472843Y-100353955D01*
X105478744Y-100377515D01*
X105482308Y-100401541D01*
X105483500Y-100425800D01*
X105483500Y-100970800D01*
X105482308Y-100995059D01*
X105478744Y-101019085D01*
X105472843Y-101042645D01*
X105464660Y-101065514D01*
X105454276Y-101087471D01*
X105441789Y-101108304D01*
X105427320Y-101127812D01*
X105411009Y-101145809D01*
X105393012Y-101162120D01*
X105373504Y-101176589D01*
X105352671Y-101189076D01*
X105330714Y-101199460D01*
X105307845Y-101207643D01*
X105284285Y-101213544D01*
X105260259Y-101217108D01*
X105236000Y-101218300D01*
X104741000Y-101218300D01*
X104716741Y-101217108D01*
X104692715Y-101213544D01*
X104669155Y-101207643D01*
X104646286Y-101199460D01*
X104624329Y-101189076D01*
X104603496Y-101176589D01*
X104583988Y-101162120D01*
X104565991Y-101145809D01*
X104549680Y-101127812D01*
X104535211Y-101108304D01*
X104522724Y-101087471D01*
X104512340Y-101065514D01*
X104504157Y-101042645D01*
X104498256Y-101019085D01*
X104494692Y-100995059D01*
X104493500Y-100970800D01*
X104493500Y-100425800D01*
X104494692Y-100401541D01*
X104498256Y-100377515D01*
X104504157Y-100353955D01*
X104512340Y-100331086D01*
X104522724Y-100309129D01*
X104535211Y-100288296D01*
X104549680Y-100268788D01*
X104565991Y-100250791D01*
X104583988Y-100234480D01*
X104603496Y-100220011D01*
X104624329Y-100207524D01*
X104646286Y-100197140D01*
X104669155Y-100188957D01*
X104692715Y-100183056D01*
X104716741Y-100179492D01*
X104741000Y-100178300D01*
X105236000Y-100178300D01*
X105260259Y-100179492D01*
X105260259Y-100179492D01*
G37*
D20*
X104988500Y-100698300D03*
D12*
G36*
X106230259Y-100179492D02*
X106254285Y-100183056D01*
X106277845Y-100188957D01*
X106300714Y-100197140D01*
X106322671Y-100207524D01*
X106343504Y-100220011D01*
X106363012Y-100234480D01*
X106381009Y-100250791D01*
X106397320Y-100268788D01*
X106411789Y-100288296D01*
X106424276Y-100309129D01*
X106434660Y-100331086D01*
X106442843Y-100353955D01*
X106448744Y-100377515D01*
X106452308Y-100401541D01*
X106453500Y-100425800D01*
X106453500Y-100970800D01*
X106452308Y-100995059D01*
X106448744Y-101019085D01*
X106442843Y-101042645D01*
X106434660Y-101065514D01*
X106424276Y-101087471D01*
X106411789Y-101108304D01*
X106397320Y-101127812D01*
X106381009Y-101145809D01*
X106363012Y-101162120D01*
X106343504Y-101176589D01*
X106322671Y-101189076D01*
X106300714Y-101199460D01*
X106277845Y-101207643D01*
X106254285Y-101213544D01*
X106230259Y-101217108D01*
X106206000Y-101218300D01*
X105711000Y-101218300D01*
X105686741Y-101217108D01*
X105662715Y-101213544D01*
X105639155Y-101207643D01*
X105616286Y-101199460D01*
X105594329Y-101189076D01*
X105573496Y-101176589D01*
X105553988Y-101162120D01*
X105535991Y-101145809D01*
X105519680Y-101127812D01*
X105505211Y-101108304D01*
X105492724Y-101087471D01*
X105482340Y-101065514D01*
X105474157Y-101042645D01*
X105468256Y-101019085D01*
X105464692Y-100995059D01*
X105463500Y-100970800D01*
X105463500Y-100425800D01*
X105464692Y-100401541D01*
X105468256Y-100377515D01*
X105474157Y-100353955D01*
X105482340Y-100331086D01*
X105492724Y-100309129D01*
X105505211Y-100288296D01*
X105519680Y-100268788D01*
X105535991Y-100250791D01*
X105553988Y-100234480D01*
X105573496Y-100220011D01*
X105594329Y-100207524D01*
X105616286Y-100197140D01*
X105639155Y-100188957D01*
X105662715Y-100183056D01*
X105686741Y-100179492D01*
X105711000Y-100178300D01*
X106206000Y-100178300D01*
X106230259Y-100179492D01*
X106230259Y-100179492D01*
G37*
D20*
X105958500Y-100698300D03*
G04 #@! TD*
D17*
G04 #@! TO.C,J2*
X100609400Y-92913200D03*
D16*
X100609400Y-90373200D03*
X103149400Y-92913200D03*
X103149400Y-90373200D03*
G04 #@! TD*
M02*
