G04 #@! TF.GenerationSoftware,KiCad,Pcbnew,(5.0.0-3-g5ebb6b6)*
G04 #@! TF.CreationDate,2019-04-23T02:19:09+01:00*
G04 #@! TF.ProjectId,Nucleo144AudioBreakout,4E75636C656F313434417564696F4272,RevA*
G04 #@! TF.SameCoordinates,Original*
G04 #@! TF.FileFunction,Legend,Bot*
G04 #@! TF.FilePolarity,Positive*
%FSLAX46Y46*%
G04 Gerber Fmt 4.6, Leading zero omitted, Abs format (unit mm)*
G04 Created by KiCad (PCBNEW (5.0.0-3-g5ebb6b6)) date Tuesday, 23 April 2019 at 02:19:09*
%MOMM*%
%LPD*%
G01*
G04 APERTURE LIST*
%ADD10C,0.300000*%
%ADD11C,0.120000*%
%ADD12C,0.100000*%
G04 APERTURE END LIST*
D10*
X116885714Y-154343571D02*
X116885714Y-152843571D01*
X116028571Y-154343571D01*
X116028571Y-152843571D01*
X114671428Y-153343571D02*
X114671428Y-154343571D01*
X115314285Y-153343571D02*
X115314285Y-154129285D01*
X115242857Y-154272142D01*
X115100000Y-154343571D01*
X114885714Y-154343571D01*
X114742857Y-154272142D01*
X114671428Y-154200714D01*
X113314285Y-154272142D02*
X113457142Y-154343571D01*
X113742857Y-154343571D01*
X113885714Y-154272142D01*
X113957142Y-154200714D01*
X114028571Y-154057857D01*
X114028571Y-153629285D01*
X113957142Y-153486428D01*
X113885714Y-153415000D01*
X113742857Y-153343571D01*
X113457142Y-153343571D01*
X113314285Y-153415000D01*
X112457142Y-154343571D02*
X112600000Y-154272142D01*
X112671428Y-154129285D01*
X112671428Y-152843571D01*
X111314285Y-154272142D02*
X111457142Y-154343571D01*
X111742857Y-154343571D01*
X111885714Y-154272142D01*
X111957142Y-154129285D01*
X111957142Y-153557857D01*
X111885714Y-153415000D01*
X111742857Y-153343571D01*
X111457142Y-153343571D01*
X111314285Y-153415000D01*
X111242857Y-153557857D01*
X111242857Y-153700714D01*
X111957142Y-153843571D01*
X110385714Y-154343571D02*
X110528571Y-154272142D01*
X110600000Y-154200714D01*
X110671428Y-154057857D01*
X110671428Y-153629285D01*
X110600000Y-153486428D01*
X110528571Y-153415000D01*
X110385714Y-153343571D01*
X110171428Y-153343571D01*
X110028571Y-153415000D01*
X109957142Y-153486428D01*
X109885714Y-153629285D01*
X109885714Y-154057857D01*
X109957142Y-154200714D01*
X110028571Y-154272142D01*
X110171428Y-154343571D01*
X110385714Y-154343571D01*
X108457142Y-154343571D02*
X109314285Y-154343571D01*
X108885714Y-154343571D02*
X108885714Y-152843571D01*
X109028571Y-153057857D01*
X109171428Y-153200714D01*
X109314285Y-153272142D01*
X107171428Y-153343571D02*
X107171428Y-154343571D01*
X107528571Y-152772142D02*
X107885714Y-153843571D01*
X106957142Y-153843571D01*
X105742857Y-153343571D02*
X105742857Y-154343571D01*
X106100000Y-152772142D02*
X106457142Y-153843571D01*
X105528571Y-153843571D01*
X103885714Y-153915000D02*
X103171428Y-153915000D01*
X104028571Y-154343571D02*
X103528571Y-152843571D01*
X103028571Y-154343571D01*
X101885714Y-153343571D02*
X101885714Y-154343571D01*
X102528571Y-153343571D02*
X102528571Y-154129285D01*
X102457142Y-154272142D01*
X102314285Y-154343571D01*
X102099999Y-154343571D01*
X101957142Y-154272142D01*
X101885714Y-154200714D01*
X100528571Y-154343571D02*
X100528571Y-152843571D01*
X100528571Y-154272142D02*
X100671428Y-154343571D01*
X100957142Y-154343571D01*
X101099999Y-154272142D01*
X101171428Y-154200714D01*
X101242857Y-154057857D01*
X101242857Y-153629285D01*
X101171428Y-153486428D01*
X101099999Y-153415000D01*
X100957142Y-153343571D01*
X100671428Y-153343571D01*
X100528571Y-153415000D01*
X99814285Y-154343571D02*
X99814285Y-153343571D01*
X99814285Y-152843571D02*
X99885714Y-152915000D01*
X99814285Y-152986428D01*
X99742857Y-152915000D01*
X99814285Y-152843571D01*
X99814285Y-152986428D01*
X98885714Y-154343571D02*
X99028571Y-154272142D01*
X99100000Y-154200714D01*
X99171428Y-154057857D01*
X99171428Y-153629285D01*
X99100000Y-153486428D01*
X99028571Y-153415000D01*
X98885714Y-153343571D01*
X98671428Y-153343571D01*
X98528571Y-153415000D01*
X98457142Y-153486428D01*
X98385714Y-153629285D01*
X98385714Y-154057857D01*
X98457142Y-154200714D01*
X98528571Y-154272142D01*
X98671428Y-154343571D01*
X98885714Y-154343571D01*
X96100000Y-153557857D02*
X95885714Y-153629285D01*
X95814285Y-153700714D01*
X95742857Y-153843571D01*
X95742857Y-154057857D01*
X95814285Y-154200714D01*
X95885714Y-154272142D01*
X96028571Y-154343571D01*
X96600000Y-154343571D01*
X96600000Y-152843571D01*
X96100000Y-152843571D01*
X95957142Y-152915000D01*
X95885714Y-152986428D01*
X95814285Y-153129285D01*
X95814285Y-153272142D01*
X95885714Y-153415000D01*
X95957142Y-153486428D01*
X96100000Y-153557857D01*
X96600000Y-153557857D01*
X95100000Y-154343571D02*
X95100000Y-153343571D01*
X95100000Y-153629285D02*
X95028571Y-153486428D01*
X94957142Y-153415000D01*
X94814285Y-153343571D01*
X94671428Y-153343571D01*
X93600000Y-154272142D02*
X93742857Y-154343571D01*
X94028571Y-154343571D01*
X94171428Y-154272142D01*
X94242857Y-154129285D01*
X94242857Y-153557857D01*
X94171428Y-153415000D01*
X94028571Y-153343571D01*
X93742857Y-153343571D01*
X93600000Y-153415000D01*
X93528571Y-153557857D01*
X93528571Y-153700714D01*
X94242857Y-153843571D01*
X92242857Y-154343571D02*
X92242857Y-153557857D01*
X92314285Y-153415000D01*
X92457142Y-153343571D01*
X92742857Y-153343571D01*
X92885714Y-153415000D01*
X92242857Y-154272142D02*
X92385714Y-154343571D01*
X92742857Y-154343571D01*
X92885714Y-154272142D01*
X92957142Y-154129285D01*
X92957142Y-153986428D01*
X92885714Y-153843571D01*
X92742857Y-153772142D01*
X92385714Y-153772142D01*
X92242857Y-153700714D01*
X91528571Y-154343571D02*
X91528571Y-152843571D01*
X91385714Y-153772142D02*
X90957142Y-154343571D01*
X90957142Y-153343571D02*
X91528571Y-153915000D01*
X90100000Y-154343571D02*
X90242857Y-154272142D01*
X90314285Y-154200714D01*
X90385714Y-154057857D01*
X90385714Y-153629285D01*
X90314285Y-153486428D01*
X90242857Y-153415000D01*
X90100000Y-153343571D01*
X89885714Y-153343571D01*
X89742857Y-153415000D01*
X89671428Y-153486428D01*
X89600000Y-153629285D01*
X89600000Y-154057857D01*
X89671428Y-154200714D01*
X89742857Y-154272142D01*
X89885714Y-154343571D01*
X90100000Y-154343571D01*
X88314285Y-153343571D02*
X88314285Y-154343571D01*
X88957142Y-153343571D02*
X88957142Y-154129285D01*
X88885714Y-154272142D01*
X88742857Y-154343571D01*
X88528571Y-154343571D01*
X88385714Y-154272142D01*
X88314285Y-154200714D01*
X87814285Y-153343571D02*
X87242857Y-153343571D01*
X87600000Y-152843571D02*
X87600000Y-154129285D01*
X87528571Y-154272142D01*
X87385714Y-154343571D01*
X87242857Y-154343571D01*
X111028571Y-156893571D02*
X111885714Y-156893571D01*
X111457142Y-156893571D02*
X111457142Y-155393571D01*
X111600000Y-155607857D01*
X111742857Y-155750714D01*
X111885714Y-155822142D01*
X110528571Y-155393571D02*
X109528571Y-155393571D01*
X110171428Y-156893571D01*
X108171428Y-156893571D02*
X109028571Y-156893571D01*
X108600000Y-156893571D02*
X108600000Y-155393571D01*
X108742857Y-155607857D01*
X108885714Y-155750714D01*
X109028571Y-155822142D01*
X107457142Y-156893571D02*
X107171428Y-156893571D01*
X107028571Y-156822142D01*
X106957142Y-156750714D01*
X106814285Y-156536428D01*
X106742857Y-156250714D01*
X106742857Y-155679285D01*
X106814285Y-155536428D01*
X106885714Y-155465000D01*
X107028571Y-155393571D01*
X107314285Y-155393571D01*
X107457142Y-155465000D01*
X107528571Y-155536428D01*
X107600000Y-155679285D01*
X107600000Y-156036428D01*
X107528571Y-156179285D01*
X107457142Y-156250714D01*
X107314285Y-156322142D01*
X107028571Y-156322142D01*
X106885714Y-156250714D01*
X106814285Y-156179285D01*
X106742857Y-156036428D01*
X103742857Y-155750714D02*
X103885714Y-155679285D01*
X104171428Y-155679285D01*
X104314285Y-155750714D01*
X104457142Y-155893571D01*
X104528571Y-156036428D01*
X104528571Y-156322142D01*
X104457142Y-156465000D01*
X104314285Y-156607857D01*
X104171428Y-156679285D01*
X103885714Y-156679285D01*
X103742857Y-156607857D01*
X104028571Y-155179285D02*
X104385714Y-155250714D01*
X104742857Y-155465000D01*
X104957142Y-155822142D01*
X105028571Y-156179285D01*
X104957142Y-156536428D01*
X104742857Y-156893571D01*
X104385714Y-157107857D01*
X104028571Y-157179285D01*
X103671428Y-157107857D01*
X103314285Y-156893571D01*
X103100000Y-156536428D01*
X103028571Y-156179285D01*
X103100000Y-155822142D01*
X103314285Y-155465000D01*
X103671428Y-155250714D01*
X104028571Y-155179285D01*
X100385714Y-156750714D02*
X100457142Y-156822142D01*
X100671428Y-156893571D01*
X100814285Y-156893571D01*
X101028571Y-156822142D01*
X101171428Y-156679285D01*
X101242857Y-156536428D01*
X101314285Y-156250714D01*
X101314285Y-156036428D01*
X101242857Y-155750714D01*
X101171428Y-155607857D01*
X101028571Y-155465000D01*
X100814285Y-155393571D01*
X100671428Y-155393571D01*
X100457142Y-155465000D01*
X100385714Y-155536428D01*
X99742857Y-156750714D02*
X99671428Y-156822142D01*
X99742857Y-156893571D01*
X99814285Y-156822142D01*
X99742857Y-156750714D01*
X99742857Y-156893571D01*
X97957142Y-156822142D02*
X97742857Y-156893571D01*
X97385714Y-156893571D01*
X97242857Y-156822142D01*
X97171428Y-156750714D01*
X97100000Y-156607857D01*
X97100000Y-156465000D01*
X97171428Y-156322142D01*
X97242857Y-156250714D01*
X97385714Y-156179285D01*
X97671428Y-156107857D01*
X97814285Y-156036428D01*
X97885714Y-155965000D01*
X97957142Y-155822142D01*
X97957142Y-155679285D01*
X97885714Y-155536428D01*
X97814285Y-155465000D01*
X97671428Y-155393571D01*
X97314285Y-155393571D01*
X97100000Y-155465000D01*
X95814285Y-155893571D02*
X95814285Y-156893571D01*
X96457142Y-155893571D02*
X96457142Y-156679285D01*
X96385714Y-156822142D01*
X96242857Y-156893571D01*
X96028571Y-156893571D01*
X95885714Y-156822142D01*
X95814285Y-156750714D01*
X95314285Y-155893571D02*
X94742857Y-155893571D01*
X95100000Y-155393571D02*
X95100000Y-156679285D01*
X95028571Y-156822142D01*
X94885714Y-156893571D01*
X94742857Y-156893571D01*
X94457142Y-155893571D02*
X93885714Y-155893571D01*
X94242857Y-155393571D02*
X94242857Y-156679285D01*
X94171428Y-156822142D01*
X94028571Y-156893571D01*
X93885714Y-156893571D01*
X93171428Y-156893571D02*
X93314285Y-156822142D01*
X93385714Y-156750714D01*
X93457142Y-156607857D01*
X93457142Y-156179285D01*
X93385714Y-156036428D01*
X93314285Y-155965000D01*
X93171428Y-155893571D01*
X92957142Y-155893571D01*
X92814285Y-155965000D01*
X92742857Y-156036428D01*
X92671428Y-156179285D01*
X92671428Y-156607857D01*
X92742857Y-156750714D01*
X92814285Y-156822142D01*
X92957142Y-156893571D01*
X93171428Y-156893571D01*
X92028571Y-155893571D02*
X92028571Y-156893571D01*
X92028571Y-156036428D02*
X91957142Y-155965000D01*
X91814285Y-155893571D01*
X91600000Y-155893571D01*
X91457142Y-155965000D01*
X91385714Y-156107857D01*
X91385714Y-156893571D01*
D11*
G04 #@! TO.C,CN11*
X71120000Y-86300000D02*
X69790000Y-86300000D01*
X69790000Y-86300000D02*
X69790000Y-87630000D01*
X72390000Y-86300000D02*
X72390000Y-88900000D01*
X72390000Y-88900000D02*
X69790000Y-88900000D01*
X69790000Y-88900000D02*
X69790000Y-175320000D01*
X74990000Y-175320000D02*
X69790000Y-175320000D01*
X74990000Y-86300000D02*
X74990000Y-175320000D01*
X74990000Y-86300000D02*
X72390000Y-86300000D01*
G04 #@! TO.C,CN12*
X133410000Y-86300000D02*
X130810000Y-86300000D01*
X133410000Y-86300000D02*
X133410000Y-175320000D01*
X133410000Y-175320000D02*
X128210000Y-175320000D01*
X128210000Y-88900000D02*
X128210000Y-175320000D01*
X130810000Y-88900000D02*
X128210000Y-88900000D01*
X130810000Y-86300000D02*
X130810000Y-88900000D01*
X128210000Y-86300000D02*
X128210000Y-87630000D01*
X129540000Y-86300000D02*
X128210000Y-86300000D01*
G04 #@! TO.C,R5*
X108958748Y-93270000D02*
X109481252Y-93270000D01*
X108958748Y-94690000D02*
X109481252Y-94690000D01*
G04 #@! TO.C,R6*
X108958748Y-97230000D02*
X109481252Y-97230000D01*
X108958748Y-95810000D02*
X109481252Y-95810000D01*
G04 #@! TO.C,CN11*
D12*
X73206666Y-85110000D02*
X73240000Y-85143333D01*
X73340000Y-85176666D01*
X73406666Y-85176666D01*
X73506666Y-85143333D01*
X73573333Y-85076666D01*
X73606666Y-85010000D01*
X73640000Y-84876666D01*
X73640000Y-84776666D01*
X73606666Y-84643333D01*
X73573333Y-84576666D01*
X73506666Y-84510000D01*
X73406666Y-84476666D01*
X73340000Y-84476666D01*
X73240000Y-84510000D01*
X73206666Y-84543333D01*
X72906666Y-85176666D02*
X72906666Y-84476666D01*
X72506666Y-85176666D01*
X72506666Y-84476666D01*
X71806666Y-85176666D02*
X72206666Y-85176666D01*
X72006666Y-85176666D02*
X72006666Y-84476666D01*
X72073333Y-84576666D01*
X72140000Y-84643333D01*
X72206666Y-84676666D01*
X71140000Y-85176666D02*
X71540000Y-85176666D01*
X71340000Y-85176666D02*
X71340000Y-84476666D01*
X71406666Y-84576666D01*
X71473333Y-84643333D01*
X71540000Y-84676666D01*
G04 #@! TO.C,CN12*
X131626666Y-85110000D02*
X131660000Y-85143333D01*
X131760000Y-85176666D01*
X131826666Y-85176666D01*
X131926666Y-85143333D01*
X131993333Y-85076666D01*
X132026666Y-85010000D01*
X132060000Y-84876666D01*
X132060000Y-84776666D01*
X132026666Y-84643333D01*
X131993333Y-84576666D01*
X131926666Y-84510000D01*
X131826666Y-84476666D01*
X131760000Y-84476666D01*
X131660000Y-84510000D01*
X131626666Y-84543333D01*
X131326666Y-85176666D02*
X131326666Y-84476666D01*
X130926666Y-85176666D01*
X130926666Y-84476666D01*
X130226666Y-85176666D02*
X130626666Y-85176666D01*
X130426666Y-85176666D02*
X130426666Y-84476666D01*
X130493333Y-84576666D01*
X130560000Y-84643333D01*
X130626666Y-84676666D01*
X129960000Y-84543333D02*
X129926666Y-84510000D01*
X129860000Y-84476666D01*
X129693333Y-84476666D01*
X129626666Y-84510000D01*
X129593333Y-84543333D01*
X129560000Y-84610000D01*
X129560000Y-84676666D01*
X129593333Y-84776666D01*
X129993333Y-85176666D01*
X129560000Y-85176666D01*
G04 #@! TO.C,R5*
X106796666Y-94296666D02*
X107030000Y-93963333D01*
X107196666Y-94296666D02*
X107196666Y-93596666D01*
X106930000Y-93596666D01*
X106863333Y-93630000D01*
X106830000Y-93663333D01*
X106796666Y-93730000D01*
X106796666Y-93830000D01*
X106830000Y-93896666D01*
X106863333Y-93930000D01*
X106930000Y-93963333D01*
X107196666Y-93963333D01*
X106163333Y-93596666D02*
X106496666Y-93596666D01*
X106530000Y-93930000D01*
X106496666Y-93896666D01*
X106430000Y-93863333D01*
X106263333Y-93863333D01*
X106196666Y-93896666D01*
X106163333Y-93930000D01*
X106130000Y-93996666D01*
X106130000Y-94163333D01*
X106163333Y-94230000D01*
X106196666Y-94263333D01*
X106263333Y-94296666D01*
X106430000Y-94296666D01*
X106496666Y-94263333D01*
X106530000Y-94230000D01*
G04 #@! TO.C,R6*
X106796666Y-96862066D02*
X107030000Y-96528733D01*
X107196666Y-96862066D02*
X107196666Y-96162066D01*
X106930000Y-96162066D01*
X106863333Y-96195400D01*
X106830000Y-96228733D01*
X106796666Y-96295400D01*
X106796666Y-96395400D01*
X106830000Y-96462066D01*
X106863333Y-96495400D01*
X106930000Y-96528733D01*
X107196666Y-96528733D01*
X106196666Y-96162066D02*
X106330000Y-96162066D01*
X106396666Y-96195400D01*
X106430000Y-96228733D01*
X106496666Y-96328733D01*
X106530000Y-96462066D01*
X106530000Y-96728733D01*
X106496666Y-96795400D01*
X106463333Y-96828733D01*
X106396666Y-96862066D01*
X106263333Y-96862066D01*
X106196666Y-96828733D01*
X106163333Y-96795400D01*
X106130000Y-96728733D01*
X106130000Y-96562066D01*
X106163333Y-96495400D01*
X106196666Y-96462066D01*
X106263333Y-96428733D01*
X106396666Y-96428733D01*
X106463333Y-96462066D01*
X106496666Y-96495400D01*
X106530000Y-96562066D01*
G04 #@! TD*
M02*
