G04 #@! TF.GenerationSoftware,KiCad,Pcbnew,(5.0.0-3-g5ebb6b6)*
G04 #@! TF.CreationDate,2019-04-23T02:19:09+01:00*
G04 #@! TF.ProjectId,Nucleo144AudioBreakout,4E75636C656F313434417564696F4272,RevA*
G04 #@! TF.SameCoordinates,Original*
G04 #@! TF.FileFunction,Copper,L4,Bot,Signal*
G04 #@! TF.FilePolarity,Positive*
%FSLAX46Y46*%
G04 Gerber Fmt 4.6, Leading zero omitted, Abs format (unit mm)*
G04 Created by KiCad (PCBNEW (5.0.0-3-g5ebb6b6)) date Tuesday, 23 April 2019 at 02:19:09*
%MOMM*%
%LPD*%
G01*
G04 APERTURE LIST*
G04 #@! TA.AperFunction,ComponentPad*
%ADD10C,3.800000*%
G04 #@! TD*
G04 #@! TA.AperFunction,ComponentPad*
%ADD11C,3.000000*%
G04 #@! TD*
G04 #@! TA.AperFunction,ComponentPad*
%ADD12R,3.000000X3.000000*%
G04 #@! TD*
G04 #@! TA.AperFunction,ComponentPad*
%ADD13O,1.700000X1.700000*%
G04 #@! TD*
G04 #@! TA.AperFunction,ComponentPad*
%ADD14R,1.700000X1.700000*%
G04 #@! TD*
G04 #@! TA.AperFunction,ComponentPad*
%ADD15C,1.620000*%
G04 #@! TD*
G04 #@! TA.AperFunction,Conductor*
%ADD16C,0.100000*%
G04 #@! TD*
G04 #@! TA.AperFunction,SMDPad,CuDef*
%ADD17C,1.150000*%
G04 #@! TD*
G04 #@! TA.AperFunction,ComponentPad*
%ADD18C,4.200000*%
G04 #@! TD*
G04 #@! TA.AperFunction,ComponentPad*
%ADD19C,1.800000*%
G04 #@! TD*
G04 #@! TA.AperFunction,ViaPad*
%ADD20C,0.600000*%
G04 #@! TD*
G04 #@! TA.AperFunction,Conductor*
%ADD21R,2.650000X1.000000*%
G04 #@! TD*
G04 #@! TA.AperFunction,ViaPad*
%ADD22C,0.800000*%
G04 #@! TD*
G04 #@! TA.AperFunction,Conductor*
%ADD23C,0.500000*%
G04 #@! TD*
G04 #@! TA.AperFunction,Conductor*
%ADD24C,1.000000*%
G04 #@! TD*
G04 #@! TA.AperFunction,Conductor*
%ADD25C,0.254000*%
G04 #@! TD*
G04 APERTURE END LIST*
D10*
G04 #@! TO.P,REF\002A\002A,1*
G04 #@! TO.N,N/C*
X121666000Y-87884000D03*
G04 #@! TD*
G04 #@! TO.P,REF\002A\002A,1*
G04 #@! TO.N,N/C*
X112130000Y-87884000D03*
G04 #@! TD*
G04 #@! TO.P,REF\002A\002A,1*
G04 #@! TO.N,N/C*
X91186000Y-87884000D03*
G04 #@! TD*
G04 #@! TO.P,REF\002A\002A,1*
G04 #@! TO.N,N/C*
X81661000Y-87884000D03*
G04 #@! TD*
D11*
G04 #@! TO.P,JIN1,6*
G04 #@! TO.N,GNDS*
X80290000Y-168910000D03*
G04 #@! TO.P,JIN1,5*
X80290000Y-162560000D03*
G04 #@! TO.P,JIN1,4*
X80290000Y-175260000D03*
G04 #@! TO.P,JIN1,3*
G04 #@! TO.N,Net-(JIN1-Pad3)*
X96520000Y-168910000D03*
G04 #@! TO.P,JIN1,2*
G04 #@! TO.N,Net-(JIN1-Pad2)*
X96520000Y-162560000D03*
D12*
G04 #@! TO.P,JIN1,1*
G04 #@! TO.N,GNDS*
X96520000Y-175260000D03*
G04 #@! TD*
D13*
G04 #@! TO.P,CN11,70*
G04 #@! TO.N,N/C*
X73660000Y-173990000D03*
G04 #@! TO.P,CN11,69*
X71120000Y-173990000D03*
G04 #@! TO.P,CN11,68*
X73660000Y-171450000D03*
G04 #@! TO.P,CN11,67*
X71120000Y-171450000D03*
G04 #@! TO.P,CN11,66*
X73660000Y-168910000D03*
G04 #@! TO.P,CN11,65*
X71120000Y-168910000D03*
G04 #@! TO.P,CN11,64*
X73660000Y-166370000D03*
G04 #@! TO.P,CN11,63*
X71120000Y-166370000D03*
G04 #@! TO.P,CN11,62*
X73660000Y-163830000D03*
G04 #@! TO.P,CN11,61*
X71120000Y-163830000D03*
G04 #@! TO.P,CN11,60*
G04 #@! TO.N,GNDS*
X73660000Y-161290000D03*
G04 #@! TO.P,CN11,59*
G04 #@! TO.N,N/C*
X71120000Y-161290000D03*
G04 #@! TO.P,CN11,58*
X73660000Y-158750000D03*
G04 #@! TO.P,CN11,57*
X71120000Y-158750000D03*
G04 #@! TO.P,CN11,56*
X73660000Y-156210000D03*
G04 #@! TO.P,CN11,55*
X71120000Y-156210000D03*
G04 #@! TO.P,CN11,54*
X73660000Y-153670000D03*
G04 #@! TO.P,CN11,53*
X71120000Y-153670000D03*
G04 #@! TO.P,CN11,52*
X73660000Y-151130000D03*
G04 #@! TO.P,CN11,51*
X71120000Y-151130000D03*
G04 #@! TO.P,CN11,50*
X73660000Y-148590000D03*
G04 #@! TO.P,CN11,49*
X71120000Y-148590000D03*
G04 #@! TO.P,CN11,48*
X73660000Y-146050000D03*
G04 #@! TO.P,CN11,47*
X71120000Y-146050000D03*
G04 #@! TO.P,CN11,46*
X73660000Y-143510000D03*
G04 #@! TO.P,CN11,45*
X71120000Y-143510000D03*
G04 #@! TO.P,CN11,44*
X73660000Y-140970000D03*
G04 #@! TO.P,CN11,43*
X71120000Y-140970000D03*
G04 #@! TO.P,CN11,42*
X73660000Y-138430000D03*
G04 #@! TO.P,CN11,41*
X71120000Y-138430000D03*
G04 #@! TO.P,CN11,40*
X73660000Y-135890000D03*
G04 #@! TO.P,CN11,39*
X71120000Y-135890000D03*
G04 #@! TO.P,CN11,38*
X73660000Y-133350000D03*
G04 #@! TO.P,CN11,37*
X71120000Y-133350000D03*
G04 #@! TO.P,CN11,36*
X73660000Y-130810000D03*
G04 #@! TO.P,CN11,35*
X71120000Y-130810000D03*
G04 #@! TO.P,CN11,34*
X73660000Y-128270000D03*
G04 #@! TO.P,CN11,33*
X71120000Y-128270000D03*
G04 #@! TO.P,CN11,32*
G04 #@! TO.N,/PA4_DAC_OUT1*
X73660000Y-125730000D03*
G04 #@! TO.P,CN11,31*
G04 #@! TO.N,N/C*
X71120000Y-125730000D03*
G04 #@! TO.P,CN11,30*
G04 #@! TO.N,/PA1_ADC1_IN2*
X73660000Y-123190000D03*
G04 #@! TO.P,CN11,29*
G04 #@! TO.N,N/C*
X71120000Y-123190000D03*
G04 #@! TO.P,CN11,28*
G04 #@! TO.N,/PA0_ADC1_IN1*
X73660000Y-120650000D03*
G04 #@! TO.P,CN11,27*
G04 #@! TO.N,N/C*
X71120000Y-120650000D03*
G04 #@! TO.P,CN11,26*
X73660000Y-118110000D03*
G04 #@! TO.P,CN11,25*
X71120000Y-118110000D03*
G04 #@! TO.P,CN11,24*
X73660000Y-115570000D03*
G04 #@! TO.P,CN11,23*
X71120000Y-115570000D03*
G04 #@! TO.P,CN11,22*
G04 #@! TO.N,GNDS*
X73660000Y-113030000D03*
G04 #@! TO.P,CN11,21*
G04 #@! TO.N,N/C*
X71120000Y-113030000D03*
G04 #@! TO.P,CN11,20*
G04 #@! TO.N,GNDS*
X73660000Y-110490000D03*
G04 #@! TO.P,CN11,19*
G04 #@! TO.N,N/C*
X71120000Y-110490000D03*
G04 #@! TO.P,CN11,18*
G04 #@! TO.N,VDD*
X73660000Y-107950000D03*
G04 #@! TO.P,CN11,17*
G04 #@! TO.N,N/C*
X71120000Y-107950000D03*
G04 #@! TO.P,CN11,16*
X73660000Y-105410000D03*
G04 #@! TO.P,CN11,15*
X71120000Y-105410000D03*
G04 #@! TO.P,CN11,14*
X73660000Y-102870000D03*
G04 #@! TO.P,CN11,13*
X71120000Y-102870000D03*
G04 #@! TO.P,CN11,12*
X73660000Y-100330000D03*
G04 #@! TO.P,CN11,11*
X71120000Y-100330000D03*
G04 #@! TO.P,CN11,10*
X73660000Y-97790000D03*
G04 #@! TO.P,CN11,9*
X71120000Y-97790000D03*
G04 #@! TO.P,CN11,8*
X73660000Y-95250000D03*
G04 #@! TO.P,CN11,7*
X71120000Y-95250000D03*
G04 #@! TO.P,CN11,6*
X73660000Y-92710000D03*
G04 #@! TO.P,CN11,5*
X71120000Y-92710000D03*
G04 #@! TO.P,CN11,4*
X73660000Y-90170000D03*
G04 #@! TO.P,CN11,3*
X71120000Y-90170000D03*
G04 #@! TO.P,CN11,2*
X73660000Y-87630000D03*
D14*
G04 #@! TO.P,CN11,1*
X71120000Y-87630000D03*
G04 #@! TD*
G04 #@! TO.P,CN12,1*
G04 #@! TO.N,N/C*
X129540000Y-87630000D03*
D13*
G04 #@! TO.P,CN12,2*
X132080000Y-87630000D03*
G04 #@! TO.P,CN12,3*
X129540000Y-90170000D03*
G04 #@! TO.P,CN12,4*
X132080000Y-90170000D03*
G04 #@! TO.P,CN12,5*
X129540000Y-92710000D03*
G04 #@! TO.P,CN12,6*
X132080000Y-92710000D03*
G04 #@! TO.P,CN12,7*
X129540000Y-95250000D03*
G04 #@! TO.P,CN12,8*
X132080000Y-95250000D03*
G04 #@! TO.P,CN12,9*
G04 #@! TO.N,GNDS*
X129540000Y-97790000D03*
G04 #@! TO.P,CN12,10*
G04 #@! TO.N,N/C*
X132080000Y-97790000D03*
G04 #@! TO.P,CN12,11*
G04 #@! TO.N,/PA5_DAC_OUT2*
X129540000Y-100330000D03*
G04 #@! TO.P,CN12,12*
G04 #@! TO.N,N/C*
X132080000Y-100330000D03*
G04 #@! TO.P,CN12,13*
X129540000Y-102870000D03*
G04 #@! TO.P,CN12,14*
X132080000Y-102870000D03*
G04 #@! TO.P,CN12,15*
X129540000Y-105410000D03*
G04 #@! TO.P,CN12,16*
X132080000Y-105410000D03*
G04 #@! TO.P,CN12,17*
X129540000Y-107950000D03*
G04 #@! TO.P,CN12,18*
X132080000Y-107950000D03*
G04 #@! TO.P,CN12,19*
X129540000Y-110490000D03*
G04 #@! TO.P,CN12,20*
X132080000Y-110490000D03*
G04 #@! TO.P,CN12,21*
X129540000Y-113030000D03*
G04 #@! TO.P,CN12,22*
X132080000Y-113030000D03*
G04 #@! TO.P,CN12,23*
X129540000Y-115570000D03*
G04 #@! TO.P,CN12,24*
X132080000Y-115570000D03*
G04 #@! TO.P,CN12,25*
X129540000Y-118110000D03*
G04 #@! TO.P,CN12,26*
X132080000Y-118110000D03*
G04 #@! TO.P,CN12,27*
X129540000Y-120650000D03*
G04 #@! TO.P,CN12,28*
X132080000Y-120650000D03*
G04 #@! TO.P,CN12,29*
X129540000Y-123190000D03*
G04 #@! TO.P,CN12,30*
X132080000Y-123190000D03*
G04 #@! TO.P,CN12,32*
G04 #@! TO.N,Net-(CN12-Pad32)*
X132080000Y-125730000D03*
G04 #@! TO.P,CN12,33*
G04 #@! TO.N,N/C*
X129540000Y-128270000D03*
G04 #@! TO.P,CN12,34*
X132080000Y-128270000D03*
G04 #@! TO.P,CN12,35*
X129540000Y-130810000D03*
G04 #@! TO.P,CN12,36*
X132080000Y-130810000D03*
G04 #@! TO.P,CN12,37*
X129540000Y-133350000D03*
G04 #@! TO.P,CN12,38*
X132080000Y-133350000D03*
G04 #@! TO.P,CN12,39*
G04 #@! TO.N,GNDS*
X129540000Y-135890000D03*
G04 #@! TO.P,CN12,40*
G04 #@! TO.N,N/C*
X132080000Y-135890000D03*
G04 #@! TO.P,CN12,41*
X129540000Y-138430000D03*
G04 #@! TO.P,CN12,42*
X132080000Y-138430000D03*
G04 #@! TO.P,CN12,43*
X129540000Y-140970000D03*
G04 #@! TO.P,CN12,44*
X132080000Y-140970000D03*
G04 #@! TO.P,CN12,45*
X129540000Y-143510000D03*
G04 #@! TO.P,CN12,46*
X132080000Y-143510000D03*
G04 #@! TO.P,CN12,47*
X129540000Y-146050000D03*
G04 #@! TO.P,CN12,48*
X132080000Y-146050000D03*
G04 #@! TO.P,CN12,49*
X129540000Y-148590000D03*
G04 #@! TO.P,CN12,50*
X132080000Y-148590000D03*
G04 #@! TO.P,CN12,51*
X129540000Y-151130000D03*
G04 #@! TO.P,CN12,52*
X132080000Y-151130000D03*
G04 #@! TO.P,CN12,53*
X129540000Y-153670000D03*
G04 #@! TO.P,CN12,54*
X132080000Y-153670000D03*
G04 #@! TO.P,CN12,55*
X129540000Y-156210000D03*
G04 #@! TO.P,CN12,56*
X132080000Y-156210000D03*
G04 #@! TO.P,CN12,57*
X129540000Y-158750000D03*
G04 #@! TO.P,CN12,58*
X132080000Y-158750000D03*
G04 #@! TO.P,CN12,59*
X129540000Y-161290000D03*
G04 #@! TO.P,CN12,60*
X132080000Y-161290000D03*
G04 #@! TO.P,CN12,61*
X129540000Y-163830000D03*
G04 #@! TO.P,CN12,62*
X132080000Y-163830000D03*
G04 #@! TO.P,CN12,63*
G04 #@! TO.N,GNDS*
X129540000Y-166370000D03*
G04 #@! TO.P,CN12,64*
G04 #@! TO.N,N/C*
X132080000Y-166370000D03*
G04 #@! TO.P,CN12,65*
X129540000Y-168910000D03*
G04 #@! TO.P,CN12,66*
X132080000Y-168910000D03*
G04 #@! TO.P,CN12,67*
X129540000Y-171450000D03*
G04 #@! TO.P,CN12,68*
X132080000Y-171450000D03*
G04 #@! TO.P,CN12,69*
X129540000Y-173990000D03*
G04 #@! TO.P,CN12,70*
X132080000Y-173990000D03*
G04 #@! TD*
D12*
G04 #@! TO.P,JOUT1,1*
G04 #@! TO.N,GNDS*
X121920000Y-175260000D03*
D11*
G04 #@! TO.P,JOUT1,2*
G04 #@! TO.N,Net-(JOUT1-Pad2)*
X121920000Y-162560000D03*
G04 #@! TO.P,JOUT1,3*
G04 #@! TO.N,Net-(JOUT1-Pad3)*
X121920000Y-168910000D03*
G04 #@! TO.P,JOUT1,4*
G04 #@! TO.N,GNDS*
X105690000Y-175260000D03*
G04 #@! TO.P,JOUT1,5*
X105690000Y-162560000D03*
G04 #@! TO.P,JOUT1,6*
X105690000Y-168910000D03*
G04 #@! TD*
D15*
G04 #@! TO.P,RV3,3*
G04 #@! TO.N,Net-(R12-Pad1)*
X90250000Y-122555000D03*
G04 #@! TO.P,RV3,2*
G04 #@! TO.N,Net-(RV3-Pad2)*
X92750000Y-117555000D03*
G04 #@! TO.P,RV3,1*
G04 #@! TO.N,Net-(R11-Pad2)*
X95250000Y-122555000D03*
G04 #@! TD*
G04 #@! TO.P,RV4,3*
G04 #@! TO.N,Net-(R14-Pad1)*
X108030000Y-122555000D03*
G04 #@! TO.P,RV4,2*
G04 #@! TO.N,Net-(RV4-Pad2)*
X110530000Y-117555000D03*
G04 #@! TO.P,RV4,1*
G04 #@! TO.N,Net-(R13-Pad2)*
X113030000Y-122555000D03*
G04 #@! TD*
D16*
G04 #@! TO.N,Net-(R5-Pad2)*
G04 #@! TO.C,R5*
G36*
X110594505Y-93281204D02*
X110618773Y-93284804D01*
X110642572Y-93290765D01*
X110665671Y-93299030D01*
X110687850Y-93309520D01*
X110708893Y-93322132D01*
X110728599Y-93336747D01*
X110746777Y-93353223D01*
X110763253Y-93371401D01*
X110777868Y-93391107D01*
X110790480Y-93412150D01*
X110800970Y-93434329D01*
X110809235Y-93457428D01*
X110815196Y-93481227D01*
X110818796Y-93505495D01*
X110820000Y-93529999D01*
X110820000Y-94430001D01*
X110818796Y-94454505D01*
X110815196Y-94478773D01*
X110809235Y-94502572D01*
X110800970Y-94525671D01*
X110790480Y-94547850D01*
X110777868Y-94568893D01*
X110763253Y-94588599D01*
X110746777Y-94606777D01*
X110728599Y-94623253D01*
X110708893Y-94637868D01*
X110687850Y-94650480D01*
X110665671Y-94660970D01*
X110642572Y-94669235D01*
X110618773Y-94675196D01*
X110594505Y-94678796D01*
X110570001Y-94680000D01*
X109919999Y-94680000D01*
X109895495Y-94678796D01*
X109871227Y-94675196D01*
X109847428Y-94669235D01*
X109824329Y-94660970D01*
X109802150Y-94650480D01*
X109781107Y-94637868D01*
X109761401Y-94623253D01*
X109743223Y-94606777D01*
X109726747Y-94588599D01*
X109712132Y-94568893D01*
X109699520Y-94547850D01*
X109689030Y-94525671D01*
X109680765Y-94502572D01*
X109674804Y-94478773D01*
X109671204Y-94454505D01*
X109670000Y-94430001D01*
X109670000Y-93529999D01*
X109671204Y-93505495D01*
X109674804Y-93481227D01*
X109680765Y-93457428D01*
X109689030Y-93434329D01*
X109699520Y-93412150D01*
X109712132Y-93391107D01*
X109726747Y-93371401D01*
X109743223Y-93353223D01*
X109761401Y-93336747D01*
X109781107Y-93322132D01*
X109802150Y-93309520D01*
X109824329Y-93299030D01*
X109847428Y-93290765D01*
X109871227Y-93284804D01*
X109895495Y-93281204D01*
X109919999Y-93280000D01*
X110570001Y-93280000D01*
X110594505Y-93281204D01*
X110594505Y-93281204D01*
G37*
D17*
G04 #@! TD*
G04 #@! TO.P,R5,2*
G04 #@! TO.N,Net-(R5-Pad2)*
X110245000Y-93980000D03*
D16*
G04 #@! TO.N,GNDS*
G04 #@! TO.C,R5*
G36*
X108544505Y-93281204D02*
X108568773Y-93284804D01*
X108592572Y-93290765D01*
X108615671Y-93299030D01*
X108637850Y-93309520D01*
X108658893Y-93322132D01*
X108678599Y-93336747D01*
X108696777Y-93353223D01*
X108713253Y-93371401D01*
X108727868Y-93391107D01*
X108740480Y-93412150D01*
X108750970Y-93434329D01*
X108759235Y-93457428D01*
X108765196Y-93481227D01*
X108768796Y-93505495D01*
X108770000Y-93529999D01*
X108770000Y-94430001D01*
X108768796Y-94454505D01*
X108765196Y-94478773D01*
X108759235Y-94502572D01*
X108750970Y-94525671D01*
X108740480Y-94547850D01*
X108727868Y-94568893D01*
X108713253Y-94588599D01*
X108696777Y-94606777D01*
X108678599Y-94623253D01*
X108658893Y-94637868D01*
X108637850Y-94650480D01*
X108615671Y-94660970D01*
X108592572Y-94669235D01*
X108568773Y-94675196D01*
X108544505Y-94678796D01*
X108520001Y-94680000D01*
X107869999Y-94680000D01*
X107845495Y-94678796D01*
X107821227Y-94675196D01*
X107797428Y-94669235D01*
X107774329Y-94660970D01*
X107752150Y-94650480D01*
X107731107Y-94637868D01*
X107711401Y-94623253D01*
X107693223Y-94606777D01*
X107676747Y-94588599D01*
X107662132Y-94568893D01*
X107649520Y-94547850D01*
X107639030Y-94525671D01*
X107630765Y-94502572D01*
X107624804Y-94478773D01*
X107621204Y-94454505D01*
X107620000Y-94430001D01*
X107620000Y-93529999D01*
X107621204Y-93505495D01*
X107624804Y-93481227D01*
X107630765Y-93457428D01*
X107639030Y-93434329D01*
X107649520Y-93412150D01*
X107662132Y-93391107D01*
X107676747Y-93371401D01*
X107693223Y-93353223D01*
X107711401Y-93336747D01*
X107731107Y-93322132D01*
X107752150Y-93309520D01*
X107774329Y-93299030D01*
X107797428Y-93290765D01*
X107821227Y-93284804D01*
X107845495Y-93281204D01*
X107869999Y-93280000D01*
X108520001Y-93280000D01*
X108544505Y-93281204D01*
X108544505Y-93281204D01*
G37*
D17*
G04 #@! TD*
G04 #@! TO.P,R5,1*
G04 #@! TO.N,GNDS*
X108195000Y-93980000D03*
D16*
G04 #@! TO.N,GNDS*
G04 #@! TO.C,R6*
G36*
X108544505Y-95821204D02*
X108568773Y-95824804D01*
X108592572Y-95830765D01*
X108615671Y-95839030D01*
X108637850Y-95849520D01*
X108658893Y-95862132D01*
X108678599Y-95876747D01*
X108696777Y-95893223D01*
X108713253Y-95911401D01*
X108727868Y-95931107D01*
X108740480Y-95952150D01*
X108750970Y-95974329D01*
X108759235Y-95997428D01*
X108765196Y-96021227D01*
X108768796Y-96045495D01*
X108770000Y-96069999D01*
X108770000Y-96970001D01*
X108768796Y-96994505D01*
X108765196Y-97018773D01*
X108759235Y-97042572D01*
X108750970Y-97065671D01*
X108740480Y-97087850D01*
X108727868Y-97108893D01*
X108713253Y-97128599D01*
X108696777Y-97146777D01*
X108678599Y-97163253D01*
X108658893Y-97177868D01*
X108637850Y-97190480D01*
X108615671Y-97200970D01*
X108592572Y-97209235D01*
X108568773Y-97215196D01*
X108544505Y-97218796D01*
X108520001Y-97220000D01*
X107869999Y-97220000D01*
X107845495Y-97218796D01*
X107821227Y-97215196D01*
X107797428Y-97209235D01*
X107774329Y-97200970D01*
X107752150Y-97190480D01*
X107731107Y-97177868D01*
X107711401Y-97163253D01*
X107693223Y-97146777D01*
X107676747Y-97128599D01*
X107662132Y-97108893D01*
X107649520Y-97087850D01*
X107639030Y-97065671D01*
X107630765Y-97042572D01*
X107624804Y-97018773D01*
X107621204Y-96994505D01*
X107620000Y-96970001D01*
X107620000Y-96069999D01*
X107621204Y-96045495D01*
X107624804Y-96021227D01*
X107630765Y-95997428D01*
X107639030Y-95974329D01*
X107649520Y-95952150D01*
X107662132Y-95931107D01*
X107676747Y-95911401D01*
X107693223Y-95893223D01*
X107711401Y-95876747D01*
X107731107Y-95862132D01*
X107752150Y-95849520D01*
X107774329Y-95839030D01*
X107797428Y-95830765D01*
X107821227Y-95824804D01*
X107845495Y-95821204D01*
X107869999Y-95820000D01*
X108520001Y-95820000D01*
X108544505Y-95821204D01*
X108544505Y-95821204D01*
G37*
D17*
G04 #@! TD*
G04 #@! TO.P,R6,1*
G04 #@! TO.N,GNDS*
X108195000Y-96520000D03*
D16*
G04 #@! TO.N,Net-(R6-Pad2)*
G04 #@! TO.C,R6*
G36*
X110594505Y-95821204D02*
X110618773Y-95824804D01*
X110642572Y-95830765D01*
X110665671Y-95839030D01*
X110687850Y-95849520D01*
X110708893Y-95862132D01*
X110728599Y-95876747D01*
X110746777Y-95893223D01*
X110763253Y-95911401D01*
X110777868Y-95931107D01*
X110790480Y-95952150D01*
X110800970Y-95974329D01*
X110809235Y-95997428D01*
X110815196Y-96021227D01*
X110818796Y-96045495D01*
X110820000Y-96069999D01*
X110820000Y-96970001D01*
X110818796Y-96994505D01*
X110815196Y-97018773D01*
X110809235Y-97042572D01*
X110800970Y-97065671D01*
X110790480Y-97087850D01*
X110777868Y-97108893D01*
X110763253Y-97128599D01*
X110746777Y-97146777D01*
X110728599Y-97163253D01*
X110708893Y-97177868D01*
X110687850Y-97190480D01*
X110665671Y-97200970D01*
X110642572Y-97209235D01*
X110618773Y-97215196D01*
X110594505Y-97218796D01*
X110570001Y-97220000D01*
X109919999Y-97220000D01*
X109895495Y-97218796D01*
X109871227Y-97215196D01*
X109847428Y-97209235D01*
X109824329Y-97200970D01*
X109802150Y-97190480D01*
X109781107Y-97177868D01*
X109761401Y-97163253D01*
X109743223Y-97146777D01*
X109726747Y-97128599D01*
X109712132Y-97108893D01*
X109699520Y-97087850D01*
X109689030Y-97065671D01*
X109680765Y-97042572D01*
X109674804Y-97018773D01*
X109671204Y-96994505D01*
X109670000Y-96970001D01*
X109670000Y-96069999D01*
X109671204Y-96045495D01*
X109674804Y-96021227D01*
X109680765Y-95997428D01*
X109689030Y-95974329D01*
X109699520Y-95952150D01*
X109712132Y-95931107D01*
X109726747Y-95911401D01*
X109743223Y-95893223D01*
X109761401Y-95876747D01*
X109781107Y-95862132D01*
X109802150Y-95849520D01*
X109824329Y-95839030D01*
X109847428Y-95830765D01*
X109871227Y-95824804D01*
X109895495Y-95821204D01*
X109919999Y-95820000D01*
X110570001Y-95820000D01*
X110594505Y-95821204D01*
X110594505Y-95821204D01*
G37*
D17*
G04 #@! TD*
G04 #@! TO.P,R6,2*
G04 #@! TO.N,Net-(R6-Pad2)*
X110245000Y-96520000D03*
D18*
G04 #@! TO.P,RV1,*
G04 #@! TO.N,*
X91150000Y-101050000D03*
X81650000Y-101050000D03*
D19*
G04 #@! TO.P,RV1,4*
G04 #@! TO.N,Net-(JIN1-Pad3)*
X88900000Y-97750000D03*
G04 #@! TO.P,RV1,5*
G04 #@! TO.N,Net-(R2-Pad1)*
X86400000Y-97750000D03*
G04 #@! TO.P,RV1,6*
G04 #@! TO.N,GNDS*
X83900000Y-97750000D03*
G04 #@! TO.P,RV1,1*
G04 #@! TO.N,Net-(JIN1-Pad2)*
X88900000Y-95250000D03*
G04 #@! TO.P,RV1,2*
G04 #@! TO.N,Net-(R1-Pad1)*
X86400000Y-95250000D03*
G04 #@! TO.P,RV1,3*
G04 #@! TO.N,GNDS*
X83900000Y-95250000D03*
G04 #@! TD*
G04 #@! TO.P,RV2,3*
G04 #@! TO.N,Net-(R5-Pad2)*
X114380000Y-95250000D03*
G04 #@! TO.P,RV2,2*
G04 #@! TO.N,Net-(RV2-Pad2)*
X116880000Y-95250000D03*
G04 #@! TO.P,RV2,1*
G04 #@! TO.N,/PA4_DAC_OUT1*
X119380000Y-95250000D03*
G04 #@! TO.P,RV2,6*
G04 #@! TO.N,Net-(R6-Pad2)*
X114380000Y-97750000D03*
G04 #@! TO.P,RV2,5*
G04 #@! TO.N,Net-(RV2-Pad5)*
X116880000Y-97750000D03*
G04 #@! TO.P,RV2,4*
G04 #@! TO.N,/PA5_DAC_OUT2*
X119380000Y-97750000D03*
D18*
G04 #@! TO.P,RV2,*
G04 #@! TO.N,*
X112130000Y-101050000D03*
X121630000Y-101050000D03*
G04 #@! TD*
D14*
G04 #@! TO.P,JAGND1,1*
G04 #@! TO.N,Net-(CN12-Pad32)*
X125730000Y-125730000D03*
D13*
G04 #@! TO.P,JAGND1,2*
G04 #@! TO.N,GNDS*
X125730000Y-128270000D03*
G04 #@! TD*
D14*
G04 #@! TO.P,J1,1*
G04 #@! TO.N,/LM27762PSU/VDDEXT*
X100609400Y-86791800D03*
D13*
G04 #@! TO.P,J1,2*
G04 #@! TO.N,GNDS*
X103149400Y-86791800D03*
G04 #@! TD*
D20*
G04 #@! TO.N,GNDS*
G04 #@! TO.C,U3*
X102044500Y-101663500D03*
X101044500Y-101663500D03*
X103044500Y-101663500D03*
D21*
X102044500Y-101663500D03*
G04 #@! TD*
D14*
G04 #@! TO.P,J2,1*
G04 #@! TO.N,VDD*
X100609400Y-92913200D03*
D13*
G04 #@! TO.P,J2,2*
G04 #@! TO.N,/LM27762PSU/VDDEXT*
X100609400Y-90373200D03*
G04 #@! TO.P,J2,3*
G04 #@! TO.N,/LM27762PSU/5V*
X103149400Y-92913200D03*
G04 #@! TO.P,J2,4*
X103149400Y-90373200D03*
G04 #@! TD*
D20*
G04 #@! TO.N,+5V*
X104290000Y-108735000D03*
X91590000Y-134770000D03*
D22*
X118110000Y-110490000D03*
X91440000Y-110490000D03*
D20*
X100965000Y-99707700D03*
X109093000Y-145288000D03*
X96113600Y-100660200D03*
G04 #@! TO.N,-5V*
X81430000Y-142898000D03*
X120800000Y-145265000D03*
X99060000Y-121285000D03*
D22*
X114935000Y-110490000D03*
X88265000Y-110490000D03*
D20*
X104965500Y-105295700D03*
G04 #@! TO.N,/PA4_DAC_OUT1*
X125730000Y-101600000D03*
G04 #@! TO.N,/PA0_ADC1_IN1*
X86233000Y-130810000D03*
X86233000Y-133984999D03*
G04 #@! TO.N,Net-(JIN1-Pad2)*
X78536800Y-120446800D03*
X78536800Y-128930400D03*
X78536800Y-128930400D03*
G04 #@! TO.N,Net-(R1-Pad1)*
X80416400Y-122580400D03*
X80416402Y-130987800D03*
G04 #@! TO.N,/FLAT_LINE_ADJUST_IN*
X99060000Y-135255000D03*
X101549200Y-132765800D03*
G04 #@! TO.N,Net-(R2-Pad1)*
X89789000Y-133985000D03*
X89789000Y-130810000D03*
G04 #@! TO.N,Net-(R17-Pad2)*
X110354000Y-137024000D03*
X114173000Y-146685006D03*
D22*
G04 #@! TO.N,/FLAT_LINE_ADJUST_OUT*
X120650000Y-108585000D03*
X126365000Y-108585000D03*
D20*
G04 #@! TO.N,Net-(R10-Pad2)*
X115443000Y-144399000D03*
X110236000Y-149098000D03*
D22*
G04 #@! TO.N,GNDS*
X84455000Y-141604992D03*
X118745000Y-141605000D03*
X118745000Y-144145000D03*
X93345000Y-142875000D03*
D20*
X106680000Y-109855000D03*
X106680000Y-111125000D03*
X97155000Y-117475000D03*
X108100000Y-145265000D03*
X121770000Y-141755000D03*
X103060500Y-97612200D03*
X92583002Y-138112500D03*
X85090000Y-144145000D03*
X100025200Y-97612200D03*
X105968800Y-105308400D03*
X102260400Y-105308400D03*
G04 #@! TO.N,Net-(R20-Pad1)*
X99948994Y-103581200D03*
X98526600Y-102666798D03*
G04 #@! TD*
D23*
G04 #@! TO.N,/PA4_DAC_OUT1*
X119380000Y-95250000D02*
X120652792Y-95250000D01*
X125730000Y-101175736D02*
X125730000Y-101600000D01*
X125730000Y-100327208D02*
X125730000Y-101175736D01*
X120652792Y-95250000D02*
X125730000Y-100327208D01*
G04 #@! TO.N,/PA0_ADC1_IN1*
X86233000Y-130810000D02*
X86233000Y-133984999D01*
G04 #@! TO.N,Net-(JIN1-Pad2)*
X78536800Y-120446800D02*
X78536800Y-120871064D01*
X78536800Y-120871064D02*
X78536800Y-128930400D01*
G04 #@! TO.N,Net-(R1-Pad1)*
X80416400Y-130987798D02*
X80416402Y-130987800D01*
X80416400Y-122580400D02*
X80416400Y-130987798D01*
G04 #@! TO.N,/FLAT_LINE_ADJUST_IN*
X99060000Y-135255000D02*
X101549200Y-132765800D01*
G04 #@! TO.N,Net-(R2-Pad1)*
X89789000Y-133985000D02*
X89789000Y-130810000D01*
D24*
G04 #@! TO.N,Net-(R5-Pad2)*
X113110000Y-93980000D02*
X114380000Y-95250000D01*
X110245000Y-93980000D02*
X113110000Y-93980000D01*
G04 #@! TO.N,Net-(R6-Pad2)*
X114340000Y-97790000D02*
X114380000Y-97750000D01*
X113030000Y-97790000D02*
X114340000Y-97790000D01*
X111760000Y-96520000D02*
X113030000Y-97790000D01*
X110245000Y-96520000D02*
X111760000Y-96520000D01*
D23*
G04 #@! TO.N,Net-(R17-Pad2)*
X112894000Y-137024000D02*
X110354000Y-137024000D01*
X114173000Y-138303000D02*
X112894000Y-137024000D01*
X114173000Y-146685006D02*
X114173000Y-138303000D01*
G04 #@! TO.N,/FLAT_LINE_ADJUST_OUT*
X126365000Y-108585000D02*
X120650000Y-108585000D01*
G04 #@! TO.N,Net-(R10-Pad2)*
X113665000Y-149098000D02*
X115443000Y-147320000D01*
X113665000Y-149098000D02*
X110236000Y-149098000D01*
X115443000Y-144399000D02*
X115443000Y-147320000D01*
D24*
G04 #@! TO.N,GNDS*
X73660000Y-110490000D02*
X76835000Y-110490000D01*
X129540000Y-97790000D02*
X127000000Y-97790000D01*
X129540000Y-135890000D02*
X127000000Y-135890000D01*
X129540000Y-166370000D02*
X127000000Y-166370000D01*
X73660000Y-161290000D02*
X76200000Y-161290000D01*
X73660000Y-113030000D02*
X76200000Y-113030000D01*
X101620236Y-101663500D02*
X101600000Y-101683736D01*
X102044500Y-101663500D02*
X101620236Y-101663500D01*
X101333300Y-101663500D02*
X102044500Y-101663500D01*
X103632000Y-100914200D02*
X102616000Y-100914200D01*
X103124000Y-102438200D02*
X103632000Y-101930200D01*
X103632000Y-101930200D02*
X103632000Y-100914200D01*
X101981000Y-100914200D02*
X100584000Y-100914200D01*
X100584000Y-100914200D02*
X100584000Y-102438200D01*
X100584000Y-102438200D02*
X103124000Y-102438200D01*
X102044500Y-100977700D02*
X101981000Y-100914200D01*
X102044500Y-101663500D02*
X102044500Y-100977700D01*
G04 #@! TO.N,Net-(CN12-Pad32)*
X125730000Y-125730000D02*
X132080000Y-125730000D01*
D23*
G04 #@! TO.N,Net-(R20-Pad1)*
X98526602Y-102666800D02*
X98526600Y-102666798D01*
X99288600Y-102666800D02*
X98526602Y-102666800D01*
X99948994Y-103327194D02*
X99288600Y-102666800D01*
X99948994Y-103581200D02*
X99948994Y-103327194D01*
G04 #@! TD*
D25*
G04 #@! TO.N,GNDS*
G36*
X79511930Y-86448038D02*
X79126000Y-87379757D01*
X79126000Y-88388243D01*
X79511930Y-89319962D01*
X80225038Y-90033070D01*
X81156757Y-90419000D01*
X82165243Y-90419000D01*
X83096962Y-90033070D01*
X83810070Y-89319962D01*
X84196000Y-88388243D01*
X84196000Y-87379757D01*
X83810070Y-86448038D01*
X83187032Y-85825000D01*
X89659968Y-85825000D01*
X89036930Y-86448038D01*
X88651000Y-87379757D01*
X88651000Y-88388243D01*
X89036930Y-89319962D01*
X89750038Y-90033070D01*
X90681757Y-90419000D01*
X91690243Y-90419000D01*
X91800814Y-90373200D01*
X99095308Y-90373200D01*
X99210561Y-90952618D01*
X99538775Y-91443825D01*
X99557019Y-91456016D01*
X99511635Y-91465043D01*
X99301591Y-91605391D01*
X99161243Y-91815435D01*
X99111960Y-92063200D01*
X99111960Y-93763200D01*
X99161243Y-94010965D01*
X99301591Y-94221009D01*
X99511635Y-94361357D01*
X99759400Y-94410640D01*
X101459400Y-94410640D01*
X101707165Y-94361357D01*
X101917209Y-94221009D01*
X102057557Y-94010965D01*
X102066584Y-93965581D01*
X102078775Y-93983825D01*
X102569982Y-94312039D01*
X103003144Y-94398200D01*
X103295656Y-94398200D01*
X103728818Y-94312039D01*
X103798094Y-94265750D01*
X106985000Y-94265750D01*
X106985000Y-94806310D01*
X107081673Y-95039699D01*
X107260302Y-95218327D01*
X107336767Y-95250000D01*
X107260302Y-95281673D01*
X107081673Y-95460301D01*
X106985000Y-95693690D01*
X106985000Y-96234250D01*
X107143750Y-96393000D01*
X108068000Y-96393000D01*
X108068000Y-95343750D01*
X107974250Y-95250000D01*
X108068000Y-95156250D01*
X108068000Y-94107000D01*
X107143750Y-94107000D01*
X106985000Y-94265750D01*
X103798094Y-94265750D01*
X104220025Y-93983825D01*
X104548239Y-93492618D01*
X104615655Y-93153690D01*
X106985000Y-93153690D01*
X106985000Y-93694250D01*
X107143750Y-93853000D01*
X108068000Y-93853000D01*
X108068000Y-92803750D01*
X108322000Y-92803750D01*
X108322000Y-93853000D01*
X108342000Y-93853000D01*
X108342000Y-94107000D01*
X108322000Y-94107000D01*
X108322000Y-95156250D01*
X108415750Y-95250000D01*
X108322000Y-95343750D01*
X108322000Y-96393000D01*
X108342000Y-96393000D01*
X108342000Y-96647000D01*
X108322000Y-96647000D01*
X108322000Y-97696250D01*
X108480750Y-97855000D01*
X108896309Y-97855000D01*
X109129698Y-97758327D01*
X109284623Y-97603403D01*
X109285414Y-97604586D01*
X109576564Y-97799127D01*
X109919999Y-97867440D01*
X110570001Y-97867440D01*
X110913436Y-97799127D01*
X111129136Y-97655000D01*
X111289869Y-97655000D01*
X111949868Y-98315000D01*
X111585975Y-98315000D01*
X110580747Y-98731379D01*
X109811379Y-99500747D01*
X109395000Y-100505975D01*
X109395000Y-101594025D01*
X109811379Y-102599253D01*
X110580747Y-103368621D01*
X111585975Y-103785000D01*
X112674025Y-103785000D01*
X113679253Y-103368621D01*
X114448621Y-102599253D01*
X114865000Y-101594025D01*
X114865000Y-100505975D01*
X114448621Y-99500747D01*
X114232874Y-99285000D01*
X114685330Y-99285000D01*
X115249507Y-99051310D01*
X115630000Y-98670817D01*
X116010493Y-99051310D01*
X116574670Y-99285000D01*
X117185330Y-99285000D01*
X117749507Y-99051310D01*
X118130000Y-98670817D01*
X118510493Y-99051310D01*
X119074670Y-99285000D01*
X119527126Y-99285000D01*
X119311379Y-99500747D01*
X118895000Y-100505975D01*
X118895000Y-101594025D01*
X119311379Y-102599253D01*
X120080747Y-103368621D01*
X121085975Y-103785000D01*
X122174025Y-103785000D01*
X123179253Y-103368621D01*
X123948621Y-102599253D01*
X124365000Y-101594025D01*
X124365000Y-100505975D01*
X124158392Y-100007179D01*
X124845000Y-100693787D01*
X124845000Y-101293306D01*
X124795000Y-101414017D01*
X124795000Y-101785983D01*
X124937345Y-102129635D01*
X125200365Y-102392655D01*
X125544017Y-102535000D01*
X125915983Y-102535000D01*
X126259635Y-102392655D01*
X126522655Y-102129635D01*
X126665000Y-101785983D01*
X126665000Y-101414017D01*
X126615000Y-101293306D01*
X126615000Y-100414367D01*
X126632337Y-100327207D01*
X126615000Y-100240047D01*
X126615000Y-100240043D01*
X126563652Y-99981898D01*
X126368049Y-99689159D01*
X126294156Y-99639785D01*
X121340217Y-94685847D01*
X121290841Y-94611951D01*
X120998102Y-94416348D01*
X120739957Y-94365000D01*
X120739953Y-94365000D01*
X120652792Y-94347663D01*
X120649195Y-94348378D01*
X120249507Y-93948690D01*
X119685330Y-93715000D01*
X119074670Y-93715000D01*
X118510493Y-93948690D01*
X118130000Y-94329183D01*
X117749507Y-93948690D01*
X117185330Y-93715000D01*
X116574670Y-93715000D01*
X116010493Y-93948690D01*
X115630000Y-94329183D01*
X115249507Y-93948690D01*
X114685330Y-93715000D01*
X114450131Y-93715000D01*
X113991613Y-93256482D01*
X113928289Y-93161711D01*
X113552855Y-92910854D01*
X113221783Y-92845000D01*
X113110000Y-92822765D01*
X112998217Y-92845000D01*
X111129136Y-92845000D01*
X110913436Y-92700873D01*
X110570001Y-92632560D01*
X109919999Y-92632560D01*
X109576564Y-92700873D01*
X109285414Y-92895414D01*
X109284623Y-92896597D01*
X109129698Y-92741673D01*
X108896309Y-92645000D01*
X108480750Y-92645000D01*
X108322000Y-92803750D01*
X108068000Y-92803750D01*
X107909250Y-92645000D01*
X107493691Y-92645000D01*
X107260302Y-92741673D01*
X107081673Y-92920301D01*
X106985000Y-93153690D01*
X104615655Y-93153690D01*
X104663492Y-92913200D01*
X104548239Y-92333782D01*
X104220025Y-91842575D01*
X103921639Y-91643200D01*
X104220025Y-91443825D01*
X104548239Y-90952618D01*
X104663492Y-90373200D01*
X104548239Y-89793782D01*
X104220025Y-89302575D01*
X103728818Y-88974361D01*
X103295656Y-88888200D01*
X103003144Y-88888200D01*
X102569982Y-88974361D01*
X102078775Y-89302575D01*
X101879400Y-89600961D01*
X101680025Y-89302575D01*
X101188818Y-88974361D01*
X100755656Y-88888200D01*
X100463144Y-88888200D01*
X100029982Y-88974361D01*
X99538775Y-89302575D01*
X99210561Y-89793782D01*
X99095308Y-90373200D01*
X91800814Y-90373200D01*
X92621962Y-90033070D01*
X93335070Y-89319962D01*
X93721000Y-88388243D01*
X93721000Y-87379757D01*
X93335070Y-86448038D01*
X92712032Y-85825000D01*
X99135193Y-85825000D01*
X99111960Y-85941800D01*
X99111960Y-87641800D01*
X99161243Y-87889565D01*
X99301591Y-88099609D01*
X99511635Y-88239957D01*
X99759400Y-88289240D01*
X101459400Y-88289240D01*
X101707165Y-88239957D01*
X101917209Y-88099609D01*
X102057557Y-87889565D01*
X102078139Y-87786092D01*
X102382476Y-88063445D01*
X102792510Y-88233276D01*
X103022400Y-88111955D01*
X103022400Y-86918800D01*
X103276400Y-86918800D01*
X103276400Y-88111955D01*
X103506290Y-88233276D01*
X103916324Y-88063445D01*
X104344583Y-87673158D01*
X104590886Y-87148692D01*
X104470219Y-86918800D01*
X103276400Y-86918800D01*
X103022400Y-86918800D01*
X103002400Y-86918800D01*
X103002400Y-86664800D01*
X103022400Y-86664800D01*
X103022400Y-86644800D01*
X103276400Y-86644800D01*
X103276400Y-86664800D01*
X104470219Y-86664800D01*
X104590886Y-86434908D01*
X104344583Y-85910442D01*
X104250828Y-85825000D01*
X110603968Y-85825000D01*
X109980930Y-86448038D01*
X109595000Y-87379757D01*
X109595000Y-88388243D01*
X109980930Y-89319962D01*
X110694038Y-90033070D01*
X111625757Y-90419000D01*
X112634243Y-90419000D01*
X113565962Y-90033070D01*
X114279070Y-89319962D01*
X114665000Y-88388243D01*
X114665000Y-87379757D01*
X114279070Y-86448038D01*
X113656032Y-85825000D01*
X120139968Y-85825000D01*
X119516930Y-86448038D01*
X119131000Y-87379757D01*
X119131000Y-88388243D01*
X119516930Y-89319962D01*
X120230038Y-90033070D01*
X121161757Y-90419000D01*
X122170243Y-90419000D01*
X123101962Y-90033070D01*
X123815070Y-89319962D01*
X124201000Y-88388243D01*
X124201000Y-87379757D01*
X123815070Y-86448038D01*
X123192032Y-85825000D01*
X128143000Y-85825000D01*
X128143000Y-86455674D01*
X128091843Y-86532235D01*
X128042560Y-86780000D01*
X128042560Y-88480000D01*
X128091843Y-88727765D01*
X128143000Y-88804326D01*
X128143000Y-89587830D01*
X128141161Y-89590582D01*
X128025908Y-90170000D01*
X128141161Y-90749418D01*
X128143000Y-90752170D01*
X128143000Y-92127830D01*
X128141161Y-92130582D01*
X128025908Y-92710000D01*
X128141161Y-93289418D01*
X128143000Y-93292170D01*
X128143000Y-94667830D01*
X128141161Y-94670582D01*
X128025908Y-95250000D01*
X128141161Y-95829418D01*
X128143000Y-95832170D01*
X128143000Y-97325729D01*
X128098524Y-97433110D01*
X128143000Y-97517387D01*
X128143000Y-98062613D01*
X128098524Y-98146890D01*
X128143000Y-98254271D01*
X128143000Y-99747830D01*
X128141161Y-99750582D01*
X128025908Y-100330000D01*
X128141161Y-100909418D01*
X128143000Y-100912170D01*
X128143000Y-102287830D01*
X128141161Y-102290582D01*
X128025908Y-102870000D01*
X128141161Y-103449418D01*
X128143000Y-103452170D01*
X128143000Y-104827830D01*
X128141161Y-104830582D01*
X128025908Y-105410000D01*
X128141161Y-105989418D01*
X128143000Y-105992170D01*
X128143000Y-107367830D01*
X128141161Y-107370582D01*
X128025908Y-107950000D01*
X128141161Y-108529418D01*
X128143000Y-108532170D01*
X128143000Y-109907830D01*
X128141161Y-109910582D01*
X128025908Y-110490000D01*
X128141161Y-111069418D01*
X128143000Y-111072170D01*
X128143000Y-112447830D01*
X128141161Y-112450582D01*
X128025908Y-113030000D01*
X128141161Y-113609418D01*
X128143000Y-113612170D01*
X128143000Y-114987830D01*
X128141161Y-114990582D01*
X128025908Y-115570000D01*
X128141161Y-116149418D01*
X128143000Y-116152170D01*
X128143000Y-117527830D01*
X128141161Y-117530582D01*
X128025908Y-118110000D01*
X128141161Y-118689418D01*
X128143000Y-118692170D01*
X128143000Y-120067830D01*
X128141161Y-120070582D01*
X128025908Y-120650000D01*
X128141161Y-121229418D01*
X128143000Y-121232170D01*
X128143000Y-122607830D01*
X128141161Y-122610582D01*
X128025908Y-123190000D01*
X128141161Y-123769418D01*
X128143000Y-123772170D01*
X128143000Y-124595000D01*
X127153277Y-124595000D01*
X127037809Y-124422191D01*
X126827765Y-124281843D01*
X126580000Y-124232560D01*
X124880000Y-124232560D01*
X124632235Y-124281843D01*
X124422191Y-124422191D01*
X124281843Y-124632235D01*
X124232560Y-124880000D01*
X124232560Y-126580000D01*
X124281843Y-126827765D01*
X124422191Y-127037809D01*
X124632235Y-127178157D01*
X124735708Y-127198739D01*
X124458355Y-127503076D01*
X124288524Y-127913110D01*
X124409845Y-128143000D01*
X125603000Y-128143000D01*
X125603000Y-128123000D01*
X125857000Y-128123000D01*
X125857000Y-128143000D01*
X127050155Y-128143000D01*
X127171476Y-127913110D01*
X127001645Y-127503076D01*
X126724292Y-127198739D01*
X126827765Y-127178157D01*
X127037809Y-127037809D01*
X127153277Y-126865000D01*
X128143000Y-126865000D01*
X128143000Y-127687830D01*
X128141161Y-127690582D01*
X128025908Y-128270000D01*
X128141161Y-128849418D01*
X128143000Y-128852170D01*
X128143000Y-130227830D01*
X128141161Y-130230582D01*
X128025908Y-130810000D01*
X128141161Y-131389418D01*
X128143000Y-131392170D01*
X128143000Y-132767830D01*
X128141161Y-132770582D01*
X128025908Y-133350000D01*
X128141161Y-133929418D01*
X128143000Y-133932170D01*
X128143000Y-135425729D01*
X128098524Y-135533110D01*
X128143000Y-135617387D01*
X128143000Y-136162613D01*
X128098524Y-136246890D01*
X128143000Y-136354271D01*
X128143000Y-137847830D01*
X128141161Y-137850582D01*
X128025908Y-138430000D01*
X128141161Y-139009418D01*
X128143000Y-139012170D01*
X128143000Y-140387830D01*
X128141161Y-140390582D01*
X128025908Y-140970000D01*
X128141161Y-141549418D01*
X128143000Y-141552170D01*
X128143000Y-142927830D01*
X128141161Y-142930582D01*
X128025908Y-143510000D01*
X128141161Y-144089418D01*
X128143000Y-144092170D01*
X128143000Y-145467830D01*
X128141161Y-145470582D01*
X128025908Y-146050000D01*
X128141161Y-146629418D01*
X128143000Y-146632170D01*
X128143000Y-148007830D01*
X128141161Y-148010582D01*
X128025908Y-148590000D01*
X128141161Y-149169418D01*
X128143000Y-149172170D01*
X128143000Y-150547830D01*
X128141161Y-150550582D01*
X128025908Y-151130000D01*
X128141161Y-151709418D01*
X128143000Y-151712170D01*
X128143000Y-153087830D01*
X128141161Y-153090582D01*
X128025908Y-153670000D01*
X128141161Y-154249418D01*
X128143000Y-154252170D01*
X128143000Y-155627830D01*
X128141161Y-155630582D01*
X128025908Y-156210000D01*
X128141161Y-156789418D01*
X128143000Y-156792170D01*
X128143000Y-158167830D01*
X128141161Y-158170582D01*
X128025908Y-158750000D01*
X128141161Y-159329418D01*
X128143000Y-159332170D01*
X128143000Y-160707830D01*
X128141161Y-160710582D01*
X128025908Y-161290000D01*
X128141161Y-161869418D01*
X128143000Y-161872170D01*
X128143000Y-163247830D01*
X128141161Y-163250582D01*
X128025908Y-163830000D01*
X128141161Y-164409418D01*
X128143000Y-164412170D01*
X128143000Y-165905729D01*
X128098524Y-166013110D01*
X128143000Y-166097387D01*
X128143000Y-166642613D01*
X128098524Y-166726890D01*
X128143000Y-166834271D01*
X128143000Y-168327830D01*
X128141161Y-168330582D01*
X128025908Y-168910000D01*
X128141161Y-169489418D01*
X128143000Y-169492170D01*
X128143000Y-170867830D01*
X128141161Y-170870582D01*
X128025908Y-171450000D01*
X128141161Y-172029418D01*
X128143000Y-172032170D01*
X128143000Y-173407830D01*
X128141161Y-173410582D01*
X128025908Y-173990000D01*
X128141161Y-174569418D01*
X128143000Y-174572170D01*
X128143000Y-178335000D01*
X75057000Y-178335000D01*
X75057000Y-176773970D01*
X78955635Y-176773970D01*
X79115418Y-177092739D01*
X79906187Y-177402723D01*
X80755387Y-177386497D01*
X81464582Y-177092739D01*
X81624365Y-176773970D01*
X80290000Y-175439605D01*
X78955635Y-176773970D01*
X75057000Y-176773970D01*
X75057000Y-174876187D01*
X78147277Y-174876187D01*
X78163503Y-175725387D01*
X78457261Y-176434582D01*
X78776030Y-176594365D01*
X80110395Y-175260000D01*
X80469605Y-175260000D01*
X81803970Y-176594365D01*
X82122739Y-176434582D01*
X82432723Y-175643813D01*
X82430850Y-175545750D01*
X94385000Y-175545750D01*
X94385000Y-176886310D01*
X94481673Y-177119699D01*
X94660302Y-177298327D01*
X94893691Y-177395000D01*
X96234250Y-177395000D01*
X96393000Y-177236250D01*
X96393000Y-175387000D01*
X96647000Y-175387000D01*
X96647000Y-177236250D01*
X96805750Y-177395000D01*
X98146309Y-177395000D01*
X98379698Y-177298327D01*
X98558327Y-177119699D01*
X98655000Y-176886310D01*
X98655000Y-176773970D01*
X104355635Y-176773970D01*
X104515418Y-177092739D01*
X105306187Y-177402723D01*
X106155387Y-177386497D01*
X106864582Y-177092739D01*
X107024365Y-176773970D01*
X105690000Y-175439605D01*
X104355635Y-176773970D01*
X98655000Y-176773970D01*
X98655000Y-175545750D01*
X98496250Y-175387000D01*
X96647000Y-175387000D01*
X96393000Y-175387000D01*
X94543750Y-175387000D01*
X94385000Y-175545750D01*
X82430850Y-175545750D01*
X82416497Y-174794613D01*
X82122739Y-174085418D01*
X81803970Y-173925635D01*
X80469605Y-175260000D01*
X80110395Y-175260000D01*
X78776030Y-173925635D01*
X78457261Y-174085418D01*
X78147277Y-174876187D01*
X75057000Y-174876187D01*
X75057000Y-174572170D01*
X75058839Y-174569418D01*
X75174092Y-173990000D01*
X75125564Y-173746030D01*
X78955635Y-173746030D01*
X80290000Y-175080395D01*
X81624365Y-173746030D01*
X81568055Y-173633690D01*
X94385000Y-173633690D01*
X94385000Y-174974250D01*
X94543750Y-175133000D01*
X96393000Y-175133000D01*
X96393000Y-173283750D01*
X96647000Y-173283750D01*
X96647000Y-175133000D01*
X98496250Y-175133000D01*
X98655000Y-174974250D01*
X98655000Y-174876187D01*
X103547277Y-174876187D01*
X103563503Y-175725387D01*
X103857261Y-176434582D01*
X104176030Y-176594365D01*
X105510395Y-175260000D01*
X105869605Y-175260000D01*
X107203970Y-176594365D01*
X107522739Y-176434582D01*
X107832723Y-175643813D01*
X107830850Y-175545750D01*
X119785000Y-175545750D01*
X119785000Y-176886310D01*
X119881673Y-177119699D01*
X120060302Y-177298327D01*
X120293691Y-177395000D01*
X121634250Y-177395000D01*
X121793000Y-177236250D01*
X121793000Y-175387000D01*
X122047000Y-175387000D01*
X122047000Y-177236250D01*
X122205750Y-177395000D01*
X123546309Y-177395000D01*
X123779698Y-177298327D01*
X123958327Y-177119699D01*
X124055000Y-176886310D01*
X124055000Y-175545750D01*
X123896250Y-175387000D01*
X122047000Y-175387000D01*
X121793000Y-175387000D01*
X119943750Y-175387000D01*
X119785000Y-175545750D01*
X107830850Y-175545750D01*
X107816497Y-174794613D01*
X107522739Y-174085418D01*
X107203970Y-173925635D01*
X105869605Y-175260000D01*
X105510395Y-175260000D01*
X104176030Y-173925635D01*
X103857261Y-174085418D01*
X103547277Y-174876187D01*
X98655000Y-174876187D01*
X98655000Y-173746030D01*
X104355635Y-173746030D01*
X105690000Y-175080395D01*
X107024365Y-173746030D01*
X106968055Y-173633690D01*
X119785000Y-173633690D01*
X119785000Y-174974250D01*
X119943750Y-175133000D01*
X121793000Y-175133000D01*
X121793000Y-173283750D01*
X122047000Y-173283750D01*
X122047000Y-175133000D01*
X123896250Y-175133000D01*
X124055000Y-174974250D01*
X124055000Y-173633690D01*
X123958327Y-173400301D01*
X123779698Y-173221673D01*
X123546309Y-173125000D01*
X122205750Y-173125000D01*
X122047000Y-173283750D01*
X121793000Y-173283750D01*
X121634250Y-173125000D01*
X120293691Y-173125000D01*
X120060302Y-173221673D01*
X119881673Y-173400301D01*
X119785000Y-173633690D01*
X106968055Y-173633690D01*
X106864582Y-173427261D01*
X106073813Y-173117277D01*
X105224613Y-173133503D01*
X104515418Y-173427261D01*
X104355635Y-173746030D01*
X98655000Y-173746030D01*
X98655000Y-173633690D01*
X98558327Y-173400301D01*
X98379698Y-173221673D01*
X98146309Y-173125000D01*
X96805750Y-173125000D01*
X96647000Y-173283750D01*
X96393000Y-173283750D01*
X96234250Y-173125000D01*
X94893691Y-173125000D01*
X94660302Y-173221673D01*
X94481673Y-173400301D01*
X94385000Y-173633690D01*
X81568055Y-173633690D01*
X81464582Y-173427261D01*
X80673813Y-173117277D01*
X79824613Y-173133503D01*
X79115418Y-173427261D01*
X78955635Y-173746030D01*
X75125564Y-173746030D01*
X75058839Y-173410582D01*
X75057000Y-173407830D01*
X75057000Y-172032170D01*
X75058839Y-172029418D01*
X75174092Y-171450000D01*
X75058839Y-170870582D01*
X75057000Y-170867830D01*
X75057000Y-170423970D01*
X78955635Y-170423970D01*
X79115418Y-170742739D01*
X79906187Y-171052723D01*
X80755387Y-171036497D01*
X81464582Y-170742739D01*
X81624365Y-170423970D01*
X80290000Y-169089605D01*
X78955635Y-170423970D01*
X75057000Y-170423970D01*
X75057000Y-169492170D01*
X75058839Y-169489418D01*
X75174092Y-168910000D01*
X75097748Y-168526187D01*
X78147277Y-168526187D01*
X78163503Y-169375387D01*
X78457261Y-170084582D01*
X78776030Y-170244365D01*
X80110395Y-168910000D01*
X80469605Y-168910000D01*
X81803970Y-170244365D01*
X82122739Y-170084582D01*
X82432723Y-169293813D01*
X82417275Y-168485322D01*
X94385000Y-168485322D01*
X94385000Y-169334678D01*
X94710034Y-170119380D01*
X95310620Y-170719966D01*
X96095322Y-171045000D01*
X96944678Y-171045000D01*
X97729380Y-170719966D01*
X98025376Y-170423970D01*
X104355635Y-170423970D01*
X104515418Y-170742739D01*
X105306187Y-171052723D01*
X106155387Y-171036497D01*
X106864582Y-170742739D01*
X107024365Y-170423970D01*
X105690000Y-169089605D01*
X104355635Y-170423970D01*
X98025376Y-170423970D01*
X98329966Y-170119380D01*
X98655000Y-169334678D01*
X98655000Y-168526187D01*
X103547277Y-168526187D01*
X103563503Y-169375387D01*
X103857261Y-170084582D01*
X104176030Y-170244365D01*
X105510395Y-168910000D01*
X105869605Y-168910000D01*
X107203970Y-170244365D01*
X107522739Y-170084582D01*
X107832723Y-169293813D01*
X107817275Y-168485322D01*
X119785000Y-168485322D01*
X119785000Y-169334678D01*
X120110034Y-170119380D01*
X120710620Y-170719966D01*
X121495322Y-171045000D01*
X122344678Y-171045000D01*
X123129380Y-170719966D01*
X123729966Y-170119380D01*
X124055000Y-169334678D01*
X124055000Y-168485322D01*
X123729966Y-167700620D01*
X123129380Y-167100034D01*
X122344678Y-166775000D01*
X121495322Y-166775000D01*
X120710620Y-167100034D01*
X120110034Y-167700620D01*
X119785000Y-168485322D01*
X107817275Y-168485322D01*
X107816497Y-168444613D01*
X107522739Y-167735418D01*
X107203970Y-167575635D01*
X105869605Y-168910000D01*
X105510395Y-168910000D01*
X104176030Y-167575635D01*
X103857261Y-167735418D01*
X103547277Y-168526187D01*
X98655000Y-168526187D01*
X98655000Y-168485322D01*
X98329966Y-167700620D01*
X98025376Y-167396030D01*
X104355635Y-167396030D01*
X105690000Y-168730395D01*
X107024365Y-167396030D01*
X106864582Y-167077261D01*
X106073813Y-166767277D01*
X105224613Y-166783503D01*
X104515418Y-167077261D01*
X104355635Y-167396030D01*
X98025376Y-167396030D01*
X97729380Y-167100034D01*
X96944678Y-166775000D01*
X96095322Y-166775000D01*
X95310620Y-167100034D01*
X94710034Y-167700620D01*
X94385000Y-168485322D01*
X82417275Y-168485322D01*
X82416497Y-168444613D01*
X82122739Y-167735418D01*
X81803970Y-167575635D01*
X80469605Y-168910000D01*
X80110395Y-168910000D01*
X78776030Y-167575635D01*
X78457261Y-167735418D01*
X78147277Y-168526187D01*
X75097748Y-168526187D01*
X75058839Y-168330582D01*
X75057000Y-168327830D01*
X75057000Y-167396030D01*
X78955635Y-167396030D01*
X80290000Y-168730395D01*
X81624365Y-167396030D01*
X81464582Y-167077261D01*
X80673813Y-166767277D01*
X79824613Y-166783503D01*
X79115418Y-167077261D01*
X78955635Y-167396030D01*
X75057000Y-167396030D01*
X75057000Y-166952170D01*
X75058839Y-166949418D01*
X75174092Y-166370000D01*
X75058839Y-165790582D01*
X75057000Y-165787830D01*
X75057000Y-164412170D01*
X75058839Y-164409418D01*
X75125563Y-164073970D01*
X78955635Y-164073970D01*
X79115418Y-164392739D01*
X79906187Y-164702723D01*
X80755387Y-164686497D01*
X81464582Y-164392739D01*
X81624365Y-164073970D01*
X80290000Y-162739605D01*
X78955635Y-164073970D01*
X75125563Y-164073970D01*
X75174092Y-163830000D01*
X75058839Y-163250582D01*
X75057000Y-163247830D01*
X75057000Y-162176187D01*
X78147277Y-162176187D01*
X78163503Y-163025387D01*
X78457261Y-163734582D01*
X78776030Y-163894365D01*
X80110395Y-162560000D01*
X80469605Y-162560000D01*
X81803970Y-163894365D01*
X82122739Y-163734582D01*
X82432723Y-162943813D01*
X82417275Y-162135322D01*
X94385000Y-162135322D01*
X94385000Y-162984678D01*
X94710034Y-163769380D01*
X95310620Y-164369966D01*
X96095322Y-164695000D01*
X96944678Y-164695000D01*
X97729380Y-164369966D01*
X98025376Y-164073970D01*
X104355635Y-164073970D01*
X104515418Y-164392739D01*
X105306187Y-164702723D01*
X106155387Y-164686497D01*
X106864582Y-164392739D01*
X107024365Y-164073970D01*
X105690000Y-162739605D01*
X104355635Y-164073970D01*
X98025376Y-164073970D01*
X98329966Y-163769380D01*
X98655000Y-162984678D01*
X98655000Y-162176187D01*
X103547277Y-162176187D01*
X103563503Y-163025387D01*
X103857261Y-163734582D01*
X104176030Y-163894365D01*
X105510395Y-162560000D01*
X105869605Y-162560000D01*
X107203970Y-163894365D01*
X107522739Y-163734582D01*
X107832723Y-162943813D01*
X107817275Y-162135322D01*
X119785000Y-162135322D01*
X119785000Y-162984678D01*
X120110034Y-163769380D01*
X120710620Y-164369966D01*
X121495322Y-164695000D01*
X122344678Y-164695000D01*
X123129380Y-164369966D01*
X123729966Y-163769380D01*
X124055000Y-162984678D01*
X124055000Y-162135322D01*
X123729966Y-161350620D01*
X123129380Y-160750034D01*
X122344678Y-160425000D01*
X121495322Y-160425000D01*
X120710620Y-160750034D01*
X120110034Y-161350620D01*
X119785000Y-162135322D01*
X107817275Y-162135322D01*
X107816497Y-162094613D01*
X107522739Y-161385418D01*
X107203970Y-161225635D01*
X105869605Y-162560000D01*
X105510395Y-162560000D01*
X104176030Y-161225635D01*
X103857261Y-161385418D01*
X103547277Y-162176187D01*
X98655000Y-162176187D01*
X98655000Y-162135322D01*
X98329966Y-161350620D01*
X98025376Y-161046030D01*
X104355635Y-161046030D01*
X105690000Y-162380395D01*
X107024365Y-161046030D01*
X106864582Y-160727261D01*
X106073813Y-160417277D01*
X105224613Y-160433503D01*
X104515418Y-160727261D01*
X104355635Y-161046030D01*
X98025376Y-161046030D01*
X97729380Y-160750034D01*
X96944678Y-160425000D01*
X96095322Y-160425000D01*
X95310620Y-160750034D01*
X94710034Y-161350620D01*
X94385000Y-162135322D01*
X82417275Y-162135322D01*
X82416497Y-162094613D01*
X82122739Y-161385418D01*
X81803970Y-161225635D01*
X80469605Y-162560000D01*
X80110395Y-162560000D01*
X78776030Y-161225635D01*
X78457261Y-161385418D01*
X78147277Y-162176187D01*
X75057000Y-162176187D01*
X75057000Y-161754271D01*
X75101476Y-161646890D01*
X75057000Y-161562613D01*
X75057000Y-161046030D01*
X78955635Y-161046030D01*
X80290000Y-162380395D01*
X81624365Y-161046030D01*
X81464582Y-160727261D01*
X80673813Y-160417277D01*
X79824613Y-160433503D01*
X79115418Y-160727261D01*
X78955635Y-161046030D01*
X75057000Y-161046030D01*
X75057000Y-161017387D01*
X75101476Y-160933110D01*
X75057000Y-160825729D01*
X75057000Y-159332170D01*
X75058839Y-159329418D01*
X75174092Y-158750000D01*
X75058839Y-158170582D01*
X75057000Y-158167830D01*
X75057000Y-156792170D01*
X75058839Y-156789418D01*
X75174092Y-156210000D01*
X75058839Y-155630582D01*
X75057000Y-155627830D01*
X75057000Y-154252170D01*
X75058839Y-154249418D01*
X75174092Y-153670000D01*
X75058839Y-153090582D01*
X75057000Y-153087830D01*
X75057000Y-151712170D01*
X75058839Y-151709418D01*
X75174092Y-151130000D01*
X75058839Y-150550582D01*
X75057000Y-150547830D01*
X75057000Y-149172170D01*
X75058839Y-149169418D01*
X75110039Y-148912017D01*
X109301000Y-148912017D01*
X109301000Y-149283983D01*
X109443345Y-149627635D01*
X109706365Y-149890655D01*
X110050017Y-150033000D01*
X110421983Y-150033000D01*
X110542694Y-149983000D01*
X113577839Y-149983000D01*
X113665000Y-150000337D01*
X113752161Y-149983000D01*
X113752165Y-149983000D01*
X114010310Y-149931652D01*
X114303049Y-149736049D01*
X114352425Y-149662153D01*
X116007156Y-148007423D01*
X116081049Y-147958049D01*
X116276652Y-147665310D01*
X116328000Y-147407165D01*
X116328000Y-147407161D01*
X116345337Y-147320000D01*
X116328000Y-147232839D01*
X116328000Y-145079017D01*
X119865000Y-145079017D01*
X119865000Y-145450983D01*
X120007345Y-145794635D01*
X120270365Y-146057655D01*
X120614017Y-146200000D01*
X120985983Y-146200000D01*
X121329635Y-146057655D01*
X121592655Y-145794635D01*
X121735000Y-145450983D01*
X121735000Y-145079017D01*
X121592655Y-144735365D01*
X121329635Y-144472345D01*
X120985983Y-144330000D01*
X120614017Y-144330000D01*
X120270365Y-144472345D01*
X120007345Y-144735365D01*
X119865000Y-145079017D01*
X116328000Y-145079017D01*
X116328000Y-144705694D01*
X116378000Y-144584983D01*
X116378000Y-144213017D01*
X116235655Y-143869365D01*
X115972635Y-143606345D01*
X115628983Y-143464000D01*
X115257017Y-143464000D01*
X115058000Y-143546435D01*
X115058000Y-138390159D01*
X115075337Y-138302999D01*
X115058000Y-138215839D01*
X115058000Y-138215835D01*
X115006652Y-137957690D01*
X114811049Y-137664951D01*
X114737156Y-137615577D01*
X113581425Y-136459847D01*
X113532049Y-136385951D01*
X113239310Y-136190348D01*
X112981165Y-136139000D01*
X112981161Y-136139000D01*
X112894000Y-136121663D01*
X112806839Y-136139000D01*
X110660694Y-136139000D01*
X110539983Y-136089000D01*
X110168017Y-136089000D01*
X109824365Y-136231345D01*
X109561345Y-136494365D01*
X109419000Y-136838017D01*
X109419000Y-137209983D01*
X109561345Y-137553635D01*
X109824365Y-137816655D01*
X110168017Y-137959000D01*
X110539983Y-137959000D01*
X110660694Y-137909000D01*
X112527422Y-137909000D01*
X113288001Y-138669580D01*
X113288000Y-146378312D01*
X113238000Y-146499023D01*
X113238000Y-146870989D01*
X113380345Y-147214641D01*
X113643365Y-147477661D01*
X113919416Y-147592005D01*
X113298422Y-148213000D01*
X110542694Y-148213000D01*
X110421983Y-148163000D01*
X110050017Y-148163000D01*
X109706365Y-148305345D01*
X109443345Y-148568365D01*
X109301000Y-148912017D01*
X75110039Y-148912017D01*
X75174092Y-148590000D01*
X75058839Y-148010582D01*
X75057000Y-148007830D01*
X75057000Y-146632170D01*
X75058839Y-146629418D01*
X75174092Y-146050000D01*
X75058839Y-145470582D01*
X75057000Y-145467830D01*
X75057000Y-145102017D01*
X108158000Y-145102017D01*
X108158000Y-145473983D01*
X108300345Y-145817635D01*
X108563365Y-146080655D01*
X108907017Y-146223000D01*
X109278983Y-146223000D01*
X109622635Y-146080655D01*
X109885655Y-145817635D01*
X110028000Y-145473983D01*
X110028000Y-145102017D01*
X109885655Y-144758365D01*
X109622635Y-144495345D01*
X109278983Y-144353000D01*
X108907017Y-144353000D01*
X108563365Y-144495345D01*
X108300345Y-144758365D01*
X108158000Y-145102017D01*
X75057000Y-145102017D01*
X75057000Y-144092170D01*
X75058839Y-144089418D01*
X75174092Y-143510000D01*
X75058839Y-142930582D01*
X75057000Y-142927830D01*
X75057000Y-142712017D01*
X80495000Y-142712017D01*
X80495000Y-143083983D01*
X80637345Y-143427635D01*
X80900365Y-143690655D01*
X81244017Y-143833000D01*
X81615983Y-143833000D01*
X81959635Y-143690655D01*
X82222655Y-143427635D01*
X82365000Y-143083983D01*
X82365000Y-142712017D01*
X82222655Y-142368365D01*
X81959635Y-142105345D01*
X81615983Y-141963000D01*
X81244017Y-141963000D01*
X80900365Y-142105345D01*
X80637345Y-142368365D01*
X80495000Y-142712017D01*
X75057000Y-142712017D01*
X75057000Y-141552170D01*
X75058839Y-141549418D01*
X75174092Y-140970000D01*
X75058839Y-140390582D01*
X75057000Y-140387830D01*
X75057000Y-139012170D01*
X75058839Y-139009418D01*
X75174092Y-138430000D01*
X75058839Y-137850582D01*
X75057000Y-137847830D01*
X75057000Y-136472170D01*
X75058839Y-136469418D01*
X75174092Y-135890000D01*
X75058839Y-135310582D01*
X75057000Y-135307830D01*
X75057000Y-133932170D01*
X75058839Y-133929418D01*
X75174092Y-133350000D01*
X75058839Y-132770582D01*
X75057000Y-132767830D01*
X75057000Y-131392170D01*
X75058839Y-131389418D01*
X75174092Y-130810000D01*
X75058839Y-130230582D01*
X75057000Y-130227830D01*
X75057000Y-128852170D01*
X75058839Y-128849418D01*
X75174092Y-128270000D01*
X75058839Y-127690582D01*
X75057000Y-127687830D01*
X75057000Y-126312170D01*
X75058839Y-126309418D01*
X75174092Y-125730000D01*
X75058839Y-125150582D01*
X75057000Y-125147830D01*
X75057000Y-123772170D01*
X75058839Y-123769418D01*
X75174092Y-123190000D01*
X75058839Y-122610582D01*
X75057000Y-122607830D01*
X75057000Y-121232170D01*
X75058839Y-121229418D01*
X75174092Y-120650000D01*
X75096679Y-120260817D01*
X77601800Y-120260817D01*
X77601800Y-120632783D01*
X77651800Y-120753494D01*
X77651800Y-120783900D01*
X77651801Y-128623704D01*
X77601800Y-128744417D01*
X77601800Y-129116383D01*
X77744145Y-129460035D01*
X78007165Y-129723055D01*
X78350817Y-129865400D01*
X78722783Y-129865400D01*
X79066435Y-129723055D01*
X79329455Y-129460035D01*
X79471800Y-129116383D01*
X79471800Y-128744417D01*
X79421800Y-128623706D01*
X79421800Y-122394417D01*
X79481400Y-122394417D01*
X79481400Y-122766383D01*
X79531400Y-122887094D01*
X79531401Y-130681109D01*
X79481402Y-130801817D01*
X79481402Y-131173783D01*
X79623747Y-131517435D01*
X79886767Y-131780455D01*
X80230419Y-131922800D01*
X80602385Y-131922800D01*
X80946037Y-131780455D01*
X81209057Y-131517435D01*
X81351402Y-131173783D01*
X81351402Y-130801817D01*
X81301400Y-130681101D01*
X81301400Y-130624017D01*
X85298000Y-130624017D01*
X85298000Y-130995983D01*
X85348000Y-131116694D01*
X85348001Y-133678303D01*
X85298000Y-133799016D01*
X85298000Y-134170982D01*
X85440345Y-134514634D01*
X85703365Y-134777654D01*
X86047017Y-134919999D01*
X86418983Y-134919999D01*
X86762635Y-134777654D01*
X87025655Y-134514634D01*
X87168000Y-134170982D01*
X87168000Y-133799016D01*
X87118000Y-133678305D01*
X87118000Y-131116694D01*
X87168000Y-130995983D01*
X87168000Y-130624017D01*
X88854000Y-130624017D01*
X88854000Y-130995983D01*
X88904001Y-131116696D01*
X88904000Y-133678306D01*
X88854000Y-133799017D01*
X88854000Y-134170983D01*
X88996345Y-134514635D01*
X89259365Y-134777655D01*
X89603017Y-134920000D01*
X89974983Y-134920000D01*
X90318635Y-134777655D01*
X90512273Y-134584017D01*
X90655000Y-134584017D01*
X90655000Y-134955983D01*
X90797345Y-135299635D01*
X91060365Y-135562655D01*
X91404017Y-135705000D01*
X91775983Y-135705000D01*
X92119635Y-135562655D01*
X92382655Y-135299635D01*
X92478179Y-135069017D01*
X98125000Y-135069017D01*
X98125000Y-135440983D01*
X98267345Y-135784635D01*
X98530365Y-136047655D01*
X98874017Y-136190000D01*
X99245983Y-136190000D01*
X99589635Y-136047655D01*
X99852655Y-135784635D01*
X99902656Y-135663922D01*
X101958124Y-133608455D01*
X102078835Y-133558455D01*
X102341855Y-133295435D01*
X102484200Y-132951783D01*
X102484200Y-132579817D01*
X102341855Y-132236165D01*
X102078835Y-131973145D01*
X101735183Y-131830800D01*
X101363217Y-131830800D01*
X101019565Y-131973145D01*
X100756545Y-132236165D01*
X100706545Y-132356876D01*
X98651078Y-134412344D01*
X98530365Y-134462345D01*
X98267345Y-134725365D01*
X98125000Y-135069017D01*
X92478179Y-135069017D01*
X92525000Y-134955983D01*
X92525000Y-134584017D01*
X92382655Y-134240365D01*
X92119635Y-133977345D01*
X91775983Y-133835000D01*
X91404017Y-133835000D01*
X91060365Y-133977345D01*
X90797345Y-134240365D01*
X90655000Y-134584017D01*
X90512273Y-134584017D01*
X90581655Y-134514635D01*
X90724000Y-134170983D01*
X90724000Y-133799017D01*
X90674000Y-133678306D01*
X90674000Y-131116694D01*
X90724000Y-130995983D01*
X90724000Y-130624017D01*
X90581655Y-130280365D01*
X90318635Y-130017345D01*
X89974983Y-129875000D01*
X89603017Y-129875000D01*
X89259365Y-130017345D01*
X88996345Y-130280365D01*
X88854000Y-130624017D01*
X87168000Y-130624017D01*
X87025655Y-130280365D01*
X86762635Y-130017345D01*
X86418983Y-129875000D01*
X86047017Y-129875000D01*
X85703365Y-130017345D01*
X85440345Y-130280365D01*
X85298000Y-130624017D01*
X81301400Y-130624017D01*
X81301400Y-128626890D01*
X124288524Y-128626890D01*
X124458355Y-129036924D01*
X124848642Y-129465183D01*
X125373108Y-129711486D01*
X125603000Y-129590819D01*
X125603000Y-128397000D01*
X125857000Y-128397000D01*
X125857000Y-129590819D01*
X126086892Y-129711486D01*
X126611358Y-129465183D01*
X127001645Y-129036924D01*
X127171476Y-128626890D01*
X127050155Y-128397000D01*
X125857000Y-128397000D01*
X125603000Y-128397000D01*
X124409845Y-128397000D01*
X124288524Y-128626890D01*
X81301400Y-128626890D01*
X81301400Y-122887094D01*
X81351400Y-122766383D01*
X81351400Y-122394417D01*
X81298860Y-122267572D01*
X88805000Y-122267572D01*
X88805000Y-122842428D01*
X89024988Y-123373527D01*
X89431473Y-123780012D01*
X89962572Y-124000000D01*
X90537428Y-124000000D01*
X91068527Y-123780012D01*
X91475012Y-123373527D01*
X91695000Y-122842428D01*
X91695000Y-122267572D01*
X93805000Y-122267572D01*
X93805000Y-122842428D01*
X94024988Y-123373527D01*
X94431473Y-123780012D01*
X94962572Y-124000000D01*
X95537428Y-124000000D01*
X96068527Y-123780012D01*
X96475012Y-123373527D01*
X96695000Y-122842428D01*
X96695000Y-122267572D01*
X106585000Y-122267572D01*
X106585000Y-122842428D01*
X106804988Y-123373527D01*
X107211473Y-123780012D01*
X107742572Y-124000000D01*
X108317428Y-124000000D01*
X108848527Y-123780012D01*
X109255012Y-123373527D01*
X109475000Y-122842428D01*
X109475000Y-122267572D01*
X111585000Y-122267572D01*
X111585000Y-122842428D01*
X111804988Y-123373527D01*
X112211473Y-123780012D01*
X112742572Y-124000000D01*
X113317428Y-124000000D01*
X113848527Y-123780012D01*
X114255012Y-123373527D01*
X114475000Y-122842428D01*
X114475000Y-122267572D01*
X114255012Y-121736473D01*
X113848527Y-121329988D01*
X113317428Y-121110000D01*
X112742572Y-121110000D01*
X112211473Y-121329988D01*
X111804988Y-121736473D01*
X111585000Y-122267572D01*
X109475000Y-122267572D01*
X109255012Y-121736473D01*
X108848527Y-121329988D01*
X108317428Y-121110000D01*
X107742572Y-121110000D01*
X107211473Y-121329988D01*
X106804988Y-121736473D01*
X106585000Y-122267572D01*
X96695000Y-122267572D01*
X96475012Y-121736473D01*
X96068527Y-121329988D01*
X95537428Y-121110000D01*
X94962572Y-121110000D01*
X94431473Y-121329988D01*
X94024988Y-121736473D01*
X93805000Y-122267572D01*
X91695000Y-122267572D01*
X91475012Y-121736473D01*
X91068527Y-121329988D01*
X90537428Y-121110000D01*
X89962572Y-121110000D01*
X89431473Y-121329988D01*
X89024988Y-121736473D01*
X88805000Y-122267572D01*
X81298860Y-122267572D01*
X81209055Y-122050765D01*
X80946035Y-121787745D01*
X80602383Y-121645400D01*
X80230417Y-121645400D01*
X79886765Y-121787745D01*
X79623745Y-122050765D01*
X79481400Y-122394417D01*
X79421800Y-122394417D01*
X79421800Y-121099017D01*
X98125000Y-121099017D01*
X98125000Y-121470983D01*
X98267345Y-121814635D01*
X98530365Y-122077655D01*
X98874017Y-122220000D01*
X99245983Y-122220000D01*
X99589635Y-122077655D01*
X99852655Y-121814635D01*
X99995000Y-121470983D01*
X99995000Y-121099017D01*
X99852655Y-120755365D01*
X99589635Y-120492345D01*
X99245983Y-120350000D01*
X98874017Y-120350000D01*
X98530365Y-120492345D01*
X98267345Y-120755365D01*
X98125000Y-121099017D01*
X79421800Y-121099017D01*
X79421800Y-120753494D01*
X79471800Y-120632783D01*
X79471800Y-120260817D01*
X79329455Y-119917165D01*
X79066435Y-119654145D01*
X78722783Y-119511800D01*
X78350817Y-119511800D01*
X78007165Y-119654145D01*
X77744145Y-119917165D01*
X77601800Y-120260817D01*
X75096679Y-120260817D01*
X75058839Y-120070582D01*
X75057000Y-120067830D01*
X75057000Y-118692170D01*
X75058839Y-118689418D01*
X75174092Y-118110000D01*
X75058839Y-117530582D01*
X75057000Y-117527830D01*
X75057000Y-117267572D01*
X91305000Y-117267572D01*
X91305000Y-117842428D01*
X91524988Y-118373527D01*
X91931473Y-118780012D01*
X92462572Y-119000000D01*
X93037428Y-119000000D01*
X93568527Y-118780012D01*
X93975012Y-118373527D01*
X94195000Y-117842428D01*
X94195000Y-117267572D01*
X109085000Y-117267572D01*
X109085000Y-117842428D01*
X109304988Y-118373527D01*
X109711473Y-118780012D01*
X110242572Y-119000000D01*
X110817428Y-119000000D01*
X111348527Y-118780012D01*
X111755012Y-118373527D01*
X111975000Y-117842428D01*
X111975000Y-117267572D01*
X111755012Y-116736473D01*
X111348527Y-116329988D01*
X110817428Y-116110000D01*
X110242572Y-116110000D01*
X109711473Y-116329988D01*
X109304988Y-116736473D01*
X109085000Y-117267572D01*
X94195000Y-117267572D01*
X93975012Y-116736473D01*
X93568527Y-116329988D01*
X93037428Y-116110000D01*
X92462572Y-116110000D01*
X91931473Y-116329988D01*
X91524988Y-116736473D01*
X91305000Y-117267572D01*
X75057000Y-117267572D01*
X75057000Y-116152170D01*
X75058839Y-116149418D01*
X75174092Y-115570000D01*
X75058839Y-114990582D01*
X75057000Y-114987830D01*
X75057000Y-113494271D01*
X75101476Y-113386890D01*
X75057000Y-113302613D01*
X75057000Y-112757387D01*
X75101476Y-112673110D01*
X75057000Y-112565729D01*
X75057000Y-110954271D01*
X75101476Y-110846890D01*
X75057000Y-110762613D01*
X75057000Y-110284126D01*
X87230000Y-110284126D01*
X87230000Y-110695874D01*
X87387569Y-111076280D01*
X87678720Y-111367431D01*
X88059126Y-111525000D01*
X88470874Y-111525000D01*
X88851280Y-111367431D01*
X89142431Y-111076280D01*
X89300000Y-110695874D01*
X89300000Y-110284126D01*
X90405000Y-110284126D01*
X90405000Y-110695874D01*
X90562569Y-111076280D01*
X90853720Y-111367431D01*
X91234126Y-111525000D01*
X91645874Y-111525000D01*
X92026280Y-111367431D01*
X92317431Y-111076280D01*
X92475000Y-110695874D01*
X92475000Y-110284126D01*
X113900000Y-110284126D01*
X113900000Y-110695874D01*
X114057569Y-111076280D01*
X114348720Y-111367431D01*
X114729126Y-111525000D01*
X115140874Y-111525000D01*
X115521280Y-111367431D01*
X115812431Y-111076280D01*
X115970000Y-110695874D01*
X115970000Y-110284126D01*
X117075000Y-110284126D01*
X117075000Y-110695874D01*
X117232569Y-111076280D01*
X117523720Y-111367431D01*
X117904126Y-111525000D01*
X118315874Y-111525000D01*
X118696280Y-111367431D01*
X118987431Y-111076280D01*
X119145000Y-110695874D01*
X119145000Y-110284126D01*
X118987431Y-109903720D01*
X118696280Y-109612569D01*
X118315874Y-109455000D01*
X117904126Y-109455000D01*
X117523720Y-109612569D01*
X117232569Y-109903720D01*
X117075000Y-110284126D01*
X115970000Y-110284126D01*
X115812431Y-109903720D01*
X115521280Y-109612569D01*
X115140874Y-109455000D01*
X114729126Y-109455000D01*
X114348720Y-109612569D01*
X114057569Y-109903720D01*
X113900000Y-110284126D01*
X92475000Y-110284126D01*
X92317431Y-109903720D01*
X92026280Y-109612569D01*
X91645874Y-109455000D01*
X91234126Y-109455000D01*
X90853720Y-109612569D01*
X90562569Y-109903720D01*
X90405000Y-110284126D01*
X89300000Y-110284126D01*
X89142431Y-109903720D01*
X88851280Y-109612569D01*
X88470874Y-109455000D01*
X88059126Y-109455000D01*
X87678720Y-109612569D01*
X87387569Y-109903720D01*
X87230000Y-110284126D01*
X75057000Y-110284126D01*
X75057000Y-110217387D01*
X75101476Y-110133110D01*
X75057000Y-110025729D01*
X75057000Y-108549017D01*
X103355000Y-108549017D01*
X103355000Y-108920983D01*
X103497345Y-109264635D01*
X103760365Y-109527655D01*
X104104017Y-109670000D01*
X104475983Y-109670000D01*
X104819635Y-109527655D01*
X105082655Y-109264635D01*
X105225000Y-108920983D01*
X105225000Y-108549017D01*
X105154630Y-108379126D01*
X119615000Y-108379126D01*
X119615000Y-108790874D01*
X119772569Y-109171280D01*
X120063720Y-109462431D01*
X120444126Y-109620000D01*
X120855874Y-109620000D01*
X121218007Y-109470000D01*
X125796993Y-109470000D01*
X126159126Y-109620000D01*
X126570874Y-109620000D01*
X126951280Y-109462431D01*
X127242431Y-109171280D01*
X127400000Y-108790874D01*
X127400000Y-108379126D01*
X127242431Y-107998720D01*
X126951280Y-107707569D01*
X126570874Y-107550000D01*
X126159126Y-107550000D01*
X125796993Y-107700000D01*
X121218007Y-107700000D01*
X120855874Y-107550000D01*
X120444126Y-107550000D01*
X120063720Y-107707569D01*
X119772569Y-107998720D01*
X119615000Y-108379126D01*
X105154630Y-108379126D01*
X105082655Y-108205365D01*
X104819635Y-107942345D01*
X104475983Y-107800000D01*
X104104017Y-107800000D01*
X103760365Y-107942345D01*
X103497345Y-108205365D01*
X103355000Y-108549017D01*
X75057000Y-108549017D01*
X75057000Y-108532170D01*
X75058839Y-108529418D01*
X75174092Y-107950000D01*
X75058839Y-107370582D01*
X75057000Y-107367830D01*
X75057000Y-105992170D01*
X75058839Y-105989418D01*
X75174092Y-105410000D01*
X75114363Y-105109717D01*
X104030500Y-105109717D01*
X104030500Y-105481683D01*
X104172845Y-105825335D01*
X104435865Y-106088355D01*
X104779517Y-106230700D01*
X105151483Y-106230700D01*
X105495135Y-106088355D01*
X105758155Y-105825335D01*
X105900500Y-105481683D01*
X105900500Y-105109717D01*
X105758155Y-104766065D01*
X105495135Y-104503045D01*
X105151483Y-104360700D01*
X104779517Y-104360700D01*
X104435865Y-104503045D01*
X104172845Y-104766065D01*
X104030500Y-105109717D01*
X75114363Y-105109717D01*
X75058839Y-104830582D01*
X75057000Y-104827830D01*
X75057000Y-103452170D01*
X75058839Y-103449418D01*
X75174092Y-102870000D01*
X75058839Y-102290582D01*
X75057000Y-102287830D01*
X75057000Y-100912170D01*
X75058839Y-100909418D01*
X75139088Y-100505975D01*
X78915000Y-100505975D01*
X78915000Y-101594025D01*
X79331379Y-102599253D01*
X80100747Y-103368621D01*
X81105975Y-103785000D01*
X82194025Y-103785000D01*
X83199253Y-103368621D01*
X83968621Y-102599253D01*
X84385000Y-101594025D01*
X84385000Y-100505975D01*
X83968621Y-99500747D01*
X83760101Y-99292227D01*
X84269460Y-99270839D01*
X84714148Y-99086643D01*
X84800554Y-98830159D01*
X83900000Y-97929605D01*
X83885858Y-97943748D01*
X83706253Y-97764143D01*
X83720395Y-97750000D01*
X82819841Y-96849446D01*
X82563357Y-96935852D01*
X82353542Y-97509336D01*
X82379161Y-98119460D01*
X82515274Y-98448066D01*
X82194025Y-98315000D01*
X81105975Y-98315000D01*
X80100747Y-98731379D01*
X79331379Y-99500747D01*
X78915000Y-100505975D01*
X75139088Y-100505975D01*
X75174092Y-100330000D01*
X75058839Y-99750582D01*
X75057000Y-99747830D01*
X75057000Y-98372170D01*
X75058839Y-98369418D01*
X75174092Y-97790000D01*
X75058839Y-97210582D01*
X75057000Y-97207830D01*
X75057000Y-96330159D01*
X82999446Y-96330159D01*
X83056663Y-96500000D01*
X82999446Y-96669841D01*
X83900000Y-97570395D01*
X84800554Y-96669841D01*
X84743337Y-96500000D01*
X84800554Y-96330159D01*
X83900000Y-95429605D01*
X82999446Y-96330159D01*
X75057000Y-96330159D01*
X75057000Y-95832170D01*
X75058839Y-95829418D01*
X75174092Y-95250000D01*
X75126222Y-95009336D01*
X82353542Y-95009336D01*
X82379161Y-95619460D01*
X82563357Y-96064148D01*
X82819841Y-96150554D01*
X83720395Y-95250000D01*
X84079605Y-95250000D01*
X84980159Y-96150554D01*
X85095461Y-96111710D01*
X85098690Y-96119507D01*
X85479183Y-96500000D01*
X85098690Y-96880493D01*
X85095461Y-96888290D01*
X84980159Y-96849446D01*
X84079605Y-97750000D01*
X84980159Y-98650554D01*
X85095461Y-98611710D01*
X85098690Y-98619507D01*
X85530493Y-99051310D01*
X86094670Y-99285000D01*
X86705330Y-99285000D01*
X87269507Y-99051310D01*
X87650000Y-98670817D01*
X88030493Y-99051310D01*
X88594670Y-99285000D01*
X89047126Y-99285000D01*
X88831379Y-99500747D01*
X88415000Y-100505975D01*
X88415000Y-101594025D01*
X88831379Y-102599253D01*
X89600747Y-103368621D01*
X90605975Y-103785000D01*
X91694025Y-103785000D01*
X92699253Y-103368621D01*
X93468621Y-102599253D01*
X93517679Y-102480815D01*
X97591600Y-102480815D01*
X97591600Y-102852781D01*
X97733945Y-103196433D01*
X97996965Y-103459453D01*
X98340617Y-103601798D01*
X98712583Y-103601798D01*
X98833289Y-103551800D01*
X98922022Y-103551800D01*
X99013994Y-103643773D01*
X99013994Y-103767183D01*
X99156339Y-104110835D01*
X99419359Y-104373855D01*
X99763011Y-104516200D01*
X100134977Y-104516200D01*
X100478629Y-104373855D01*
X100741649Y-104110835D01*
X100883994Y-103767183D01*
X100883994Y-103395217D01*
X100847186Y-103306354D01*
X100833994Y-103240033D01*
X100833994Y-103240030D01*
X100782646Y-102981884D01*
X100660112Y-102798500D01*
X101758750Y-102798500D01*
X101917500Y-102639750D01*
X101917500Y-102602659D01*
X101947427Y-102611863D01*
X102171500Y-102590660D01*
X102171500Y-102639750D01*
X102330250Y-102798500D01*
X103495810Y-102798500D01*
X103729199Y-102701827D01*
X103907827Y-102523198D01*
X104004500Y-102289809D01*
X104004500Y-101949250D01*
X103951223Y-101895973D01*
X103992863Y-101760573D01*
X103960776Y-101421474D01*
X104004500Y-101377750D01*
X104004500Y-101037191D01*
X103907827Y-100803802D01*
X103729199Y-100625173D01*
X103495810Y-100528500D01*
X102330250Y-100528500D01*
X102171500Y-100687250D01*
X102171500Y-100724341D01*
X102141573Y-100715137D01*
X101917500Y-100736340D01*
X101917500Y-100687250D01*
X101758750Y-100528500D01*
X101426687Y-100528500D01*
X101494635Y-100500355D01*
X101757655Y-100237335D01*
X101900000Y-99893683D01*
X101900000Y-99521717D01*
X101757655Y-99178065D01*
X101494635Y-98915045D01*
X101150983Y-98772700D01*
X100779017Y-98772700D01*
X100435365Y-98915045D01*
X100172345Y-99178065D01*
X100030000Y-99521717D01*
X100030000Y-99893683D01*
X100172345Y-100237335D01*
X100435365Y-100500355D01*
X100548252Y-100547114D01*
X100359801Y-100625173D01*
X100181173Y-100803802D01*
X100084500Y-101037191D01*
X100084500Y-101377750D01*
X100137777Y-101431027D01*
X100096137Y-101566427D01*
X100128224Y-101905526D01*
X100084500Y-101949250D01*
X100084500Y-102211122D01*
X99976024Y-102102646D01*
X99926649Y-102028751D01*
X99633910Y-101833148D01*
X99375765Y-101781800D01*
X99375761Y-101781800D01*
X99288600Y-101764463D01*
X99201439Y-101781800D01*
X98833299Y-101781800D01*
X98712583Y-101731798D01*
X98340617Y-101731798D01*
X97996965Y-101874143D01*
X97733945Y-102137163D01*
X97591600Y-102480815D01*
X93517679Y-102480815D01*
X93885000Y-101594025D01*
X93885000Y-100505975D01*
X93871846Y-100474217D01*
X95178600Y-100474217D01*
X95178600Y-100846183D01*
X95320945Y-101189835D01*
X95583965Y-101452855D01*
X95927617Y-101595200D01*
X96299583Y-101595200D01*
X96643235Y-101452855D01*
X96906255Y-101189835D01*
X97048600Y-100846183D01*
X97048600Y-100474217D01*
X96906255Y-100130565D01*
X96643235Y-99867545D01*
X96299583Y-99725200D01*
X95927617Y-99725200D01*
X95583965Y-99867545D01*
X95320945Y-100130565D01*
X95178600Y-100474217D01*
X93871846Y-100474217D01*
X93468621Y-99500747D01*
X92699253Y-98731379D01*
X91694025Y-98315000D01*
X90605975Y-98315000D01*
X90269755Y-98454267D01*
X90435000Y-98055330D01*
X90435000Y-97444670D01*
X90201310Y-96880493D01*
X90126567Y-96805750D01*
X106985000Y-96805750D01*
X106985000Y-97346310D01*
X107081673Y-97579699D01*
X107260302Y-97758327D01*
X107493691Y-97855000D01*
X107909250Y-97855000D01*
X108068000Y-97696250D01*
X108068000Y-96647000D01*
X107143750Y-96647000D01*
X106985000Y-96805750D01*
X90126567Y-96805750D01*
X89820817Y-96500000D01*
X90201310Y-96119507D01*
X90435000Y-95555330D01*
X90435000Y-94944670D01*
X90201310Y-94380493D01*
X89769507Y-93948690D01*
X89205330Y-93715000D01*
X88594670Y-93715000D01*
X88030493Y-93948690D01*
X87650000Y-94329183D01*
X87269507Y-93948690D01*
X86705330Y-93715000D01*
X86094670Y-93715000D01*
X85530493Y-93948690D01*
X85098690Y-94380493D01*
X85095461Y-94388290D01*
X84980159Y-94349446D01*
X84079605Y-95250000D01*
X83720395Y-95250000D01*
X82819841Y-94349446D01*
X82563357Y-94435852D01*
X82353542Y-95009336D01*
X75126222Y-95009336D01*
X75058839Y-94670582D01*
X75057000Y-94667830D01*
X75057000Y-94169841D01*
X82999446Y-94169841D01*
X83900000Y-95070395D01*
X84800554Y-94169841D01*
X84714148Y-93913357D01*
X84140664Y-93703542D01*
X83530540Y-93729161D01*
X83085852Y-93913357D01*
X82999446Y-94169841D01*
X75057000Y-94169841D01*
X75057000Y-93292170D01*
X75058839Y-93289418D01*
X75174092Y-92710000D01*
X75058839Y-92130582D01*
X75057000Y-92127830D01*
X75057000Y-90752170D01*
X75058839Y-90749418D01*
X75174092Y-90170000D01*
X75058839Y-89590582D01*
X75057000Y-89587830D01*
X75057000Y-88212170D01*
X75058839Y-88209418D01*
X75174092Y-87630000D01*
X75058839Y-87050582D01*
X75057000Y-87047830D01*
X75057000Y-85825000D01*
X80134968Y-85825000D01*
X79511930Y-86448038D01*
X79511930Y-86448038D01*
G37*
X79511930Y-86448038D02*
X79126000Y-87379757D01*
X79126000Y-88388243D01*
X79511930Y-89319962D01*
X80225038Y-90033070D01*
X81156757Y-90419000D01*
X82165243Y-90419000D01*
X83096962Y-90033070D01*
X83810070Y-89319962D01*
X84196000Y-88388243D01*
X84196000Y-87379757D01*
X83810070Y-86448038D01*
X83187032Y-85825000D01*
X89659968Y-85825000D01*
X89036930Y-86448038D01*
X88651000Y-87379757D01*
X88651000Y-88388243D01*
X89036930Y-89319962D01*
X89750038Y-90033070D01*
X90681757Y-90419000D01*
X91690243Y-90419000D01*
X91800814Y-90373200D01*
X99095308Y-90373200D01*
X99210561Y-90952618D01*
X99538775Y-91443825D01*
X99557019Y-91456016D01*
X99511635Y-91465043D01*
X99301591Y-91605391D01*
X99161243Y-91815435D01*
X99111960Y-92063200D01*
X99111960Y-93763200D01*
X99161243Y-94010965D01*
X99301591Y-94221009D01*
X99511635Y-94361357D01*
X99759400Y-94410640D01*
X101459400Y-94410640D01*
X101707165Y-94361357D01*
X101917209Y-94221009D01*
X102057557Y-94010965D01*
X102066584Y-93965581D01*
X102078775Y-93983825D01*
X102569982Y-94312039D01*
X103003144Y-94398200D01*
X103295656Y-94398200D01*
X103728818Y-94312039D01*
X103798094Y-94265750D01*
X106985000Y-94265750D01*
X106985000Y-94806310D01*
X107081673Y-95039699D01*
X107260302Y-95218327D01*
X107336767Y-95250000D01*
X107260302Y-95281673D01*
X107081673Y-95460301D01*
X106985000Y-95693690D01*
X106985000Y-96234250D01*
X107143750Y-96393000D01*
X108068000Y-96393000D01*
X108068000Y-95343750D01*
X107974250Y-95250000D01*
X108068000Y-95156250D01*
X108068000Y-94107000D01*
X107143750Y-94107000D01*
X106985000Y-94265750D01*
X103798094Y-94265750D01*
X104220025Y-93983825D01*
X104548239Y-93492618D01*
X104615655Y-93153690D01*
X106985000Y-93153690D01*
X106985000Y-93694250D01*
X107143750Y-93853000D01*
X108068000Y-93853000D01*
X108068000Y-92803750D01*
X108322000Y-92803750D01*
X108322000Y-93853000D01*
X108342000Y-93853000D01*
X108342000Y-94107000D01*
X108322000Y-94107000D01*
X108322000Y-95156250D01*
X108415750Y-95250000D01*
X108322000Y-95343750D01*
X108322000Y-96393000D01*
X108342000Y-96393000D01*
X108342000Y-96647000D01*
X108322000Y-96647000D01*
X108322000Y-97696250D01*
X108480750Y-97855000D01*
X108896309Y-97855000D01*
X109129698Y-97758327D01*
X109284623Y-97603403D01*
X109285414Y-97604586D01*
X109576564Y-97799127D01*
X109919999Y-97867440D01*
X110570001Y-97867440D01*
X110913436Y-97799127D01*
X111129136Y-97655000D01*
X111289869Y-97655000D01*
X111949868Y-98315000D01*
X111585975Y-98315000D01*
X110580747Y-98731379D01*
X109811379Y-99500747D01*
X109395000Y-100505975D01*
X109395000Y-101594025D01*
X109811379Y-102599253D01*
X110580747Y-103368621D01*
X111585975Y-103785000D01*
X112674025Y-103785000D01*
X113679253Y-103368621D01*
X114448621Y-102599253D01*
X114865000Y-101594025D01*
X114865000Y-100505975D01*
X114448621Y-99500747D01*
X114232874Y-99285000D01*
X114685330Y-99285000D01*
X115249507Y-99051310D01*
X115630000Y-98670817D01*
X116010493Y-99051310D01*
X116574670Y-99285000D01*
X117185330Y-99285000D01*
X117749507Y-99051310D01*
X118130000Y-98670817D01*
X118510493Y-99051310D01*
X119074670Y-99285000D01*
X119527126Y-99285000D01*
X119311379Y-99500747D01*
X118895000Y-100505975D01*
X118895000Y-101594025D01*
X119311379Y-102599253D01*
X120080747Y-103368621D01*
X121085975Y-103785000D01*
X122174025Y-103785000D01*
X123179253Y-103368621D01*
X123948621Y-102599253D01*
X124365000Y-101594025D01*
X124365000Y-100505975D01*
X124158392Y-100007179D01*
X124845000Y-100693787D01*
X124845000Y-101293306D01*
X124795000Y-101414017D01*
X124795000Y-101785983D01*
X124937345Y-102129635D01*
X125200365Y-102392655D01*
X125544017Y-102535000D01*
X125915983Y-102535000D01*
X126259635Y-102392655D01*
X126522655Y-102129635D01*
X126665000Y-101785983D01*
X126665000Y-101414017D01*
X126615000Y-101293306D01*
X126615000Y-100414367D01*
X126632337Y-100327207D01*
X126615000Y-100240047D01*
X126615000Y-100240043D01*
X126563652Y-99981898D01*
X126368049Y-99689159D01*
X126294156Y-99639785D01*
X121340217Y-94685847D01*
X121290841Y-94611951D01*
X120998102Y-94416348D01*
X120739957Y-94365000D01*
X120739953Y-94365000D01*
X120652792Y-94347663D01*
X120649195Y-94348378D01*
X120249507Y-93948690D01*
X119685330Y-93715000D01*
X119074670Y-93715000D01*
X118510493Y-93948690D01*
X118130000Y-94329183D01*
X117749507Y-93948690D01*
X117185330Y-93715000D01*
X116574670Y-93715000D01*
X116010493Y-93948690D01*
X115630000Y-94329183D01*
X115249507Y-93948690D01*
X114685330Y-93715000D01*
X114450131Y-93715000D01*
X113991613Y-93256482D01*
X113928289Y-93161711D01*
X113552855Y-92910854D01*
X113221783Y-92845000D01*
X113110000Y-92822765D01*
X112998217Y-92845000D01*
X111129136Y-92845000D01*
X110913436Y-92700873D01*
X110570001Y-92632560D01*
X109919999Y-92632560D01*
X109576564Y-92700873D01*
X109285414Y-92895414D01*
X109284623Y-92896597D01*
X109129698Y-92741673D01*
X108896309Y-92645000D01*
X108480750Y-92645000D01*
X108322000Y-92803750D01*
X108068000Y-92803750D01*
X107909250Y-92645000D01*
X107493691Y-92645000D01*
X107260302Y-92741673D01*
X107081673Y-92920301D01*
X106985000Y-93153690D01*
X104615655Y-93153690D01*
X104663492Y-92913200D01*
X104548239Y-92333782D01*
X104220025Y-91842575D01*
X103921639Y-91643200D01*
X104220025Y-91443825D01*
X104548239Y-90952618D01*
X104663492Y-90373200D01*
X104548239Y-89793782D01*
X104220025Y-89302575D01*
X103728818Y-88974361D01*
X103295656Y-88888200D01*
X103003144Y-88888200D01*
X102569982Y-88974361D01*
X102078775Y-89302575D01*
X101879400Y-89600961D01*
X101680025Y-89302575D01*
X101188818Y-88974361D01*
X100755656Y-88888200D01*
X100463144Y-88888200D01*
X100029982Y-88974361D01*
X99538775Y-89302575D01*
X99210561Y-89793782D01*
X99095308Y-90373200D01*
X91800814Y-90373200D01*
X92621962Y-90033070D01*
X93335070Y-89319962D01*
X93721000Y-88388243D01*
X93721000Y-87379757D01*
X93335070Y-86448038D01*
X92712032Y-85825000D01*
X99135193Y-85825000D01*
X99111960Y-85941800D01*
X99111960Y-87641800D01*
X99161243Y-87889565D01*
X99301591Y-88099609D01*
X99511635Y-88239957D01*
X99759400Y-88289240D01*
X101459400Y-88289240D01*
X101707165Y-88239957D01*
X101917209Y-88099609D01*
X102057557Y-87889565D01*
X102078139Y-87786092D01*
X102382476Y-88063445D01*
X102792510Y-88233276D01*
X103022400Y-88111955D01*
X103022400Y-86918800D01*
X103276400Y-86918800D01*
X103276400Y-88111955D01*
X103506290Y-88233276D01*
X103916324Y-88063445D01*
X104344583Y-87673158D01*
X104590886Y-87148692D01*
X104470219Y-86918800D01*
X103276400Y-86918800D01*
X103022400Y-86918800D01*
X103002400Y-86918800D01*
X103002400Y-86664800D01*
X103022400Y-86664800D01*
X103022400Y-86644800D01*
X103276400Y-86644800D01*
X103276400Y-86664800D01*
X104470219Y-86664800D01*
X104590886Y-86434908D01*
X104344583Y-85910442D01*
X104250828Y-85825000D01*
X110603968Y-85825000D01*
X109980930Y-86448038D01*
X109595000Y-87379757D01*
X109595000Y-88388243D01*
X109980930Y-89319962D01*
X110694038Y-90033070D01*
X111625757Y-90419000D01*
X112634243Y-90419000D01*
X113565962Y-90033070D01*
X114279070Y-89319962D01*
X114665000Y-88388243D01*
X114665000Y-87379757D01*
X114279070Y-86448038D01*
X113656032Y-85825000D01*
X120139968Y-85825000D01*
X119516930Y-86448038D01*
X119131000Y-87379757D01*
X119131000Y-88388243D01*
X119516930Y-89319962D01*
X120230038Y-90033070D01*
X121161757Y-90419000D01*
X122170243Y-90419000D01*
X123101962Y-90033070D01*
X123815070Y-89319962D01*
X124201000Y-88388243D01*
X124201000Y-87379757D01*
X123815070Y-86448038D01*
X123192032Y-85825000D01*
X128143000Y-85825000D01*
X128143000Y-86455674D01*
X128091843Y-86532235D01*
X128042560Y-86780000D01*
X128042560Y-88480000D01*
X128091843Y-88727765D01*
X128143000Y-88804326D01*
X128143000Y-89587830D01*
X128141161Y-89590582D01*
X128025908Y-90170000D01*
X128141161Y-90749418D01*
X128143000Y-90752170D01*
X128143000Y-92127830D01*
X128141161Y-92130582D01*
X128025908Y-92710000D01*
X128141161Y-93289418D01*
X128143000Y-93292170D01*
X128143000Y-94667830D01*
X128141161Y-94670582D01*
X128025908Y-95250000D01*
X128141161Y-95829418D01*
X128143000Y-95832170D01*
X128143000Y-97325729D01*
X128098524Y-97433110D01*
X128143000Y-97517387D01*
X128143000Y-98062613D01*
X128098524Y-98146890D01*
X128143000Y-98254271D01*
X128143000Y-99747830D01*
X128141161Y-99750582D01*
X128025908Y-100330000D01*
X128141161Y-100909418D01*
X128143000Y-100912170D01*
X128143000Y-102287830D01*
X128141161Y-102290582D01*
X128025908Y-102870000D01*
X128141161Y-103449418D01*
X128143000Y-103452170D01*
X128143000Y-104827830D01*
X128141161Y-104830582D01*
X128025908Y-105410000D01*
X128141161Y-105989418D01*
X128143000Y-105992170D01*
X128143000Y-107367830D01*
X128141161Y-107370582D01*
X128025908Y-107950000D01*
X128141161Y-108529418D01*
X128143000Y-108532170D01*
X128143000Y-109907830D01*
X128141161Y-109910582D01*
X128025908Y-110490000D01*
X128141161Y-111069418D01*
X128143000Y-111072170D01*
X128143000Y-112447830D01*
X128141161Y-112450582D01*
X128025908Y-113030000D01*
X128141161Y-113609418D01*
X128143000Y-113612170D01*
X128143000Y-114987830D01*
X128141161Y-114990582D01*
X128025908Y-115570000D01*
X128141161Y-116149418D01*
X128143000Y-116152170D01*
X128143000Y-117527830D01*
X128141161Y-117530582D01*
X128025908Y-118110000D01*
X128141161Y-118689418D01*
X128143000Y-118692170D01*
X128143000Y-120067830D01*
X128141161Y-120070582D01*
X128025908Y-120650000D01*
X128141161Y-121229418D01*
X128143000Y-121232170D01*
X128143000Y-122607830D01*
X128141161Y-122610582D01*
X128025908Y-123190000D01*
X128141161Y-123769418D01*
X128143000Y-123772170D01*
X128143000Y-124595000D01*
X127153277Y-124595000D01*
X127037809Y-124422191D01*
X126827765Y-124281843D01*
X126580000Y-124232560D01*
X124880000Y-124232560D01*
X124632235Y-124281843D01*
X124422191Y-124422191D01*
X124281843Y-124632235D01*
X124232560Y-124880000D01*
X124232560Y-126580000D01*
X124281843Y-126827765D01*
X124422191Y-127037809D01*
X124632235Y-127178157D01*
X124735708Y-127198739D01*
X124458355Y-127503076D01*
X124288524Y-127913110D01*
X124409845Y-128143000D01*
X125603000Y-128143000D01*
X125603000Y-128123000D01*
X125857000Y-128123000D01*
X125857000Y-128143000D01*
X127050155Y-128143000D01*
X127171476Y-127913110D01*
X127001645Y-127503076D01*
X126724292Y-127198739D01*
X126827765Y-127178157D01*
X127037809Y-127037809D01*
X127153277Y-126865000D01*
X128143000Y-126865000D01*
X128143000Y-127687830D01*
X128141161Y-127690582D01*
X128025908Y-128270000D01*
X128141161Y-128849418D01*
X128143000Y-128852170D01*
X128143000Y-130227830D01*
X128141161Y-130230582D01*
X128025908Y-130810000D01*
X128141161Y-131389418D01*
X128143000Y-131392170D01*
X128143000Y-132767830D01*
X128141161Y-132770582D01*
X128025908Y-133350000D01*
X128141161Y-133929418D01*
X128143000Y-133932170D01*
X128143000Y-135425729D01*
X128098524Y-135533110D01*
X128143000Y-135617387D01*
X128143000Y-136162613D01*
X128098524Y-136246890D01*
X128143000Y-136354271D01*
X128143000Y-137847830D01*
X128141161Y-137850582D01*
X128025908Y-138430000D01*
X128141161Y-139009418D01*
X128143000Y-139012170D01*
X128143000Y-140387830D01*
X128141161Y-140390582D01*
X128025908Y-140970000D01*
X128141161Y-141549418D01*
X128143000Y-141552170D01*
X128143000Y-142927830D01*
X128141161Y-142930582D01*
X128025908Y-143510000D01*
X128141161Y-144089418D01*
X128143000Y-144092170D01*
X128143000Y-145467830D01*
X128141161Y-145470582D01*
X128025908Y-146050000D01*
X128141161Y-146629418D01*
X128143000Y-146632170D01*
X128143000Y-148007830D01*
X128141161Y-148010582D01*
X128025908Y-148590000D01*
X128141161Y-149169418D01*
X128143000Y-149172170D01*
X128143000Y-150547830D01*
X128141161Y-150550582D01*
X128025908Y-151130000D01*
X128141161Y-151709418D01*
X128143000Y-151712170D01*
X128143000Y-153087830D01*
X128141161Y-153090582D01*
X128025908Y-153670000D01*
X128141161Y-154249418D01*
X128143000Y-154252170D01*
X128143000Y-155627830D01*
X128141161Y-155630582D01*
X128025908Y-156210000D01*
X128141161Y-156789418D01*
X128143000Y-156792170D01*
X128143000Y-158167830D01*
X128141161Y-158170582D01*
X128025908Y-158750000D01*
X128141161Y-159329418D01*
X128143000Y-159332170D01*
X128143000Y-160707830D01*
X128141161Y-160710582D01*
X128025908Y-161290000D01*
X128141161Y-161869418D01*
X128143000Y-161872170D01*
X128143000Y-163247830D01*
X128141161Y-163250582D01*
X128025908Y-163830000D01*
X128141161Y-164409418D01*
X128143000Y-164412170D01*
X128143000Y-165905729D01*
X128098524Y-166013110D01*
X128143000Y-166097387D01*
X128143000Y-166642613D01*
X128098524Y-166726890D01*
X128143000Y-166834271D01*
X128143000Y-168327830D01*
X128141161Y-168330582D01*
X128025908Y-168910000D01*
X128141161Y-169489418D01*
X128143000Y-169492170D01*
X128143000Y-170867830D01*
X128141161Y-170870582D01*
X128025908Y-171450000D01*
X128141161Y-172029418D01*
X128143000Y-172032170D01*
X128143000Y-173407830D01*
X128141161Y-173410582D01*
X128025908Y-173990000D01*
X128141161Y-174569418D01*
X128143000Y-174572170D01*
X128143000Y-178335000D01*
X75057000Y-178335000D01*
X75057000Y-176773970D01*
X78955635Y-176773970D01*
X79115418Y-177092739D01*
X79906187Y-177402723D01*
X80755387Y-177386497D01*
X81464582Y-177092739D01*
X81624365Y-176773970D01*
X80290000Y-175439605D01*
X78955635Y-176773970D01*
X75057000Y-176773970D01*
X75057000Y-174876187D01*
X78147277Y-174876187D01*
X78163503Y-175725387D01*
X78457261Y-176434582D01*
X78776030Y-176594365D01*
X80110395Y-175260000D01*
X80469605Y-175260000D01*
X81803970Y-176594365D01*
X82122739Y-176434582D01*
X82432723Y-175643813D01*
X82430850Y-175545750D01*
X94385000Y-175545750D01*
X94385000Y-176886310D01*
X94481673Y-177119699D01*
X94660302Y-177298327D01*
X94893691Y-177395000D01*
X96234250Y-177395000D01*
X96393000Y-177236250D01*
X96393000Y-175387000D01*
X96647000Y-175387000D01*
X96647000Y-177236250D01*
X96805750Y-177395000D01*
X98146309Y-177395000D01*
X98379698Y-177298327D01*
X98558327Y-177119699D01*
X98655000Y-176886310D01*
X98655000Y-176773970D01*
X104355635Y-176773970D01*
X104515418Y-177092739D01*
X105306187Y-177402723D01*
X106155387Y-177386497D01*
X106864582Y-177092739D01*
X107024365Y-176773970D01*
X105690000Y-175439605D01*
X104355635Y-176773970D01*
X98655000Y-176773970D01*
X98655000Y-175545750D01*
X98496250Y-175387000D01*
X96647000Y-175387000D01*
X96393000Y-175387000D01*
X94543750Y-175387000D01*
X94385000Y-175545750D01*
X82430850Y-175545750D01*
X82416497Y-174794613D01*
X82122739Y-174085418D01*
X81803970Y-173925635D01*
X80469605Y-175260000D01*
X80110395Y-175260000D01*
X78776030Y-173925635D01*
X78457261Y-174085418D01*
X78147277Y-174876187D01*
X75057000Y-174876187D01*
X75057000Y-174572170D01*
X75058839Y-174569418D01*
X75174092Y-173990000D01*
X75125564Y-173746030D01*
X78955635Y-173746030D01*
X80290000Y-175080395D01*
X81624365Y-173746030D01*
X81568055Y-173633690D01*
X94385000Y-173633690D01*
X94385000Y-174974250D01*
X94543750Y-175133000D01*
X96393000Y-175133000D01*
X96393000Y-173283750D01*
X96647000Y-173283750D01*
X96647000Y-175133000D01*
X98496250Y-175133000D01*
X98655000Y-174974250D01*
X98655000Y-174876187D01*
X103547277Y-174876187D01*
X103563503Y-175725387D01*
X103857261Y-176434582D01*
X104176030Y-176594365D01*
X105510395Y-175260000D01*
X105869605Y-175260000D01*
X107203970Y-176594365D01*
X107522739Y-176434582D01*
X107832723Y-175643813D01*
X107830850Y-175545750D01*
X119785000Y-175545750D01*
X119785000Y-176886310D01*
X119881673Y-177119699D01*
X120060302Y-177298327D01*
X120293691Y-177395000D01*
X121634250Y-177395000D01*
X121793000Y-177236250D01*
X121793000Y-175387000D01*
X122047000Y-175387000D01*
X122047000Y-177236250D01*
X122205750Y-177395000D01*
X123546309Y-177395000D01*
X123779698Y-177298327D01*
X123958327Y-177119699D01*
X124055000Y-176886310D01*
X124055000Y-175545750D01*
X123896250Y-175387000D01*
X122047000Y-175387000D01*
X121793000Y-175387000D01*
X119943750Y-175387000D01*
X119785000Y-175545750D01*
X107830850Y-175545750D01*
X107816497Y-174794613D01*
X107522739Y-174085418D01*
X107203970Y-173925635D01*
X105869605Y-175260000D01*
X105510395Y-175260000D01*
X104176030Y-173925635D01*
X103857261Y-174085418D01*
X103547277Y-174876187D01*
X98655000Y-174876187D01*
X98655000Y-173746030D01*
X104355635Y-173746030D01*
X105690000Y-175080395D01*
X107024365Y-173746030D01*
X106968055Y-173633690D01*
X119785000Y-173633690D01*
X119785000Y-174974250D01*
X119943750Y-175133000D01*
X121793000Y-175133000D01*
X121793000Y-173283750D01*
X122047000Y-173283750D01*
X122047000Y-175133000D01*
X123896250Y-175133000D01*
X124055000Y-174974250D01*
X124055000Y-173633690D01*
X123958327Y-173400301D01*
X123779698Y-173221673D01*
X123546309Y-173125000D01*
X122205750Y-173125000D01*
X122047000Y-173283750D01*
X121793000Y-173283750D01*
X121634250Y-173125000D01*
X120293691Y-173125000D01*
X120060302Y-173221673D01*
X119881673Y-173400301D01*
X119785000Y-173633690D01*
X106968055Y-173633690D01*
X106864582Y-173427261D01*
X106073813Y-173117277D01*
X105224613Y-173133503D01*
X104515418Y-173427261D01*
X104355635Y-173746030D01*
X98655000Y-173746030D01*
X98655000Y-173633690D01*
X98558327Y-173400301D01*
X98379698Y-173221673D01*
X98146309Y-173125000D01*
X96805750Y-173125000D01*
X96647000Y-173283750D01*
X96393000Y-173283750D01*
X96234250Y-173125000D01*
X94893691Y-173125000D01*
X94660302Y-173221673D01*
X94481673Y-173400301D01*
X94385000Y-173633690D01*
X81568055Y-173633690D01*
X81464582Y-173427261D01*
X80673813Y-173117277D01*
X79824613Y-173133503D01*
X79115418Y-173427261D01*
X78955635Y-173746030D01*
X75125564Y-173746030D01*
X75058839Y-173410582D01*
X75057000Y-173407830D01*
X75057000Y-172032170D01*
X75058839Y-172029418D01*
X75174092Y-171450000D01*
X75058839Y-170870582D01*
X75057000Y-170867830D01*
X75057000Y-170423970D01*
X78955635Y-170423970D01*
X79115418Y-170742739D01*
X79906187Y-171052723D01*
X80755387Y-171036497D01*
X81464582Y-170742739D01*
X81624365Y-170423970D01*
X80290000Y-169089605D01*
X78955635Y-170423970D01*
X75057000Y-170423970D01*
X75057000Y-169492170D01*
X75058839Y-169489418D01*
X75174092Y-168910000D01*
X75097748Y-168526187D01*
X78147277Y-168526187D01*
X78163503Y-169375387D01*
X78457261Y-170084582D01*
X78776030Y-170244365D01*
X80110395Y-168910000D01*
X80469605Y-168910000D01*
X81803970Y-170244365D01*
X82122739Y-170084582D01*
X82432723Y-169293813D01*
X82417275Y-168485322D01*
X94385000Y-168485322D01*
X94385000Y-169334678D01*
X94710034Y-170119380D01*
X95310620Y-170719966D01*
X96095322Y-171045000D01*
X96944678Y-171045000D01*
X97729380Y-170719966D01*
X98025376Y-170423970D01*
X104355635Y-170423970D01*
X104515418Y-170742739D01*
X105306187Y-171052723D01*
X106155387Y-171036497D01*
X106864582Y-170742739D01*
X107024365Y-170423970D01*
X105690000Y-169089605D01*
X104355635Y-170423970D01*
X98025376Y-170423970D01*
X98329966Y-170119380D01*
X98655000Y-169334678D01*
X98655000Y-168526187D01*
X103547277Y-168526187D01*
X103563503Y-169375387D01*
X103857261Y-170084582D01*
X104176030Y-170244365D01*
X105510395Y-168910000D01*
X105869605Y-168910000D01*
X107203970Y-170244365D01*
X107522739Y-170084582D01*
X107832723Y-169293813D01*
X107817275Y-168485322D01*
X119785000Y-168485322D01*
X119785000Y-169334678D01*
X120110034Y-170119380D01*
X120710620Y-170719966D01*
X121495322Y-171045000D01*
X122344678Y-171045000D01*
X123129380Y-170719966D01*
X123729966Y-170119380D01*
X124055000Y-169334678D01*
X124055000Y-168485322D01*
X123729966Y-167700620D01*
X123129380Y-167100034D01*
X122344678Y-166775000D01*
X121495322Y-166775000D01*
X120710620Y-167100034D01*
X120110034Y-167700620D01*
X119785000Y-168485322D01*
X107817275Y-168485322D01*
X107816497Y-168444613D01*
X107522739Y-167735418D01*
X107203970Y-167575635D01*
X105869605Y-168910000D01*
X105510395Y-168910000D01*
X104176030Y-167575635D01*
X103857261Y-167735418D01*
X103547277Y-168526187D01*
X98655000Y-168526187D01*
X98655000Y-168485322D01*
X98329966Y-167700620D01*
X98025376Y-167396030D01*
X104355635Y-167396030D01*
X105690000Y-168730395D01*
X107024365Y-167396030D01*
X106864582Y-167077261D01*
X106073813Y-166767277D01*
X105224613Y-166783503D01*
X104515418Y-167077261D01*
X104355635Y-167396030D01*
X98025376Y-167396030D01*
X97729380Y-167100034D01*
X96944678Y-166775000D01*
X96095322Y-166775000D01*
X95310620Y-167100034D01*
X94710034Y-167700620D01*
X94385000Y-168485322D01*
X82417275Y-168485322D01*
X82416497Y-168444613D01*
X82122739Y-167735418D01*
X81803970Y-167575635D01*
X80469605Y-168910000D01*
X80110395Y-168910000D01*
X78776030Y-167575635D01*
X78457261Y-167735418D01*
X78147277Y-168526187D01*
X75097748Y-168526187D01*
X75058839Y-168330582D01*
X75057000Y-168327830D01*
X75057000Y-167396030D01*
X78955635Y-167396030D01*
X80290000Y-168730395D01*
X81624365Y-167396030D01*
X81464582Y-167077261D01*
X80673813Y-166767277D01*
X79824613Y-166783503D01*
X79115418Y-167077261D01*
X78955635Y-167396030D01*
X75057000Y-167396030D01*
X75057000Y-166952170D01*
X75058839Y-166949418D01*
X75174092Y-166370000D01*
X75058839Y-165790582D01*
X75057000Y-165787830D01*
X75057000Y-164412170D01*
X75058839Y-164409418D01*
X75125563Y-164073970D01*
X78955635Y-164073970D01*
X79115418Y-164392739D01*
X79906187Y-164702723D01*
X80755387Y-164686497D01*
X81464582Y-164392739D01*
X81624365Y-164073970D01*
X80290000Y-162739605D01*
X78955635Y-164073970D01*
X75125563Y-164073970D01*
X75174092Y-163830000D01*
X75058839Y-163250582D01*
X75057000Y-163247830D01*
X75057000Y-162176187D01*
X78147277Y-162176187D01*
X78163503Y-163025387D01*
X78457261Y-163734582D01*
X78776030Y-163894365D01*
X80110395Y-162560000D01*
X80469605Y-162560000D01*
X81803970Y-163894365D01*
X82122739Y-163734582D01*
X82432723Y-162943813D01*
X82417275Y-162135322D01*
X94385000Y-162135322D01*
X94385000Y-162984678D01*
X94710034Y-163769380D01*
X95310620Y-164369966D01*
X96095322Y-164695000D01*
X96944678Y-164695000D01*
X97729380Y-164369966D01*
X98025376Y-164073970D01*
X104355635Y-164073970D01*
X104515418Y-164392739D01*
X105306187Y-164702723D01*
X106155387Y-164686497D01*
X106864582Y-164392739D01*
X107024365Y-164073970D01*
X105690000Y-162739605D01*
X104355635Y-164073970D01*
X98025376Y-164073970D01*
X98329966Y-163769380D01*
X98655000Y-162984678D01*
X98655000Y-162176187D01*
X103547277Y-162176187D01*
X103563503Y-163025387D01*
X103857261Y-163734582D01*
X104176030Y-163894365D01*
X105510395Y-162560000D01*
X105869605Y-162560000D01*
X107203970Y-163894365D01*
X107522739Y-163734582D01*
X107832723Y-162943813D01*
X107817275Y-162135322D01*
X119785000Y-162135322D01*
X119785000Y-162984678D01*
X120110034Y-163769380D01*
X120710620Y-164369966D01*
X121495322Y-164695000D01*
X122344678Y-164695000D01*
X123129380Y-164369966D01*
X123729966Y-163769380D01*
X124055000Y-162984678D01*
X124055000Y-162135322D01*
X123729966Y-161350620D01*
X123129380Y-160750034D01*
X122344678Y-160425000D01*
X121495322Y-160425000D01*
X120710620Y-160750034D01*
X120110034Y-161350620D01*
X119785000Y-162135322D01*
X107817275Y-162135322D01*
X107816497Y-162094613D01*
X107522739Y-161385418D01*
X107203970Y-161225635D01*
X105869605Y-162560000D01*
X105510395Y-162560000D01*
X104176030Y-161225635D01*
X103857261Y-161385418D01*
X103547277Y-162176187D01*
X98655000Y-162176187D01*
X98655000Y-162135322D01*
X98329966Y-161350620D01*
X98025376Y-161046030D01*
X104355635Y-161046030D01*
X105690000Y-162380395D01*
X107024365Y-161046030D01*
X106864582Y-160727261D01*
X106073813Y-160417277D01*
X105224613Y-160433503D01*
X104515418Y-160727261D01*
X104355635Y-161046030D01*
X98025376Y-161046030D01*
X97729380Y-160750034D01*
X96944678Y-160425000D01*
X96095322Y-160425000D01*
X95310620Y-160750034D01*
X94710034Y-161350620D01*
X94385000Y-162135322D01*
X82417275Y-162135322D01*
X82416497Y-162094613D01*
X82122739Y-161385418D01*
X81803970Y-161225635D01*
X80469605Y-162560000D01*
X80110395Y-162560000D01*
X78776030Y-161225635D01*
X78457261Y-161385418D01*
X78147277Y-162176187D01*
X75057000Y-162176187D01*
X75057000Y-161754271D01*
X75101476Y-161646890D01*
X75057000Y-161562613D01*
X75057000Y-161046030D01*
X78955635Y-161046030D01*
X80290000Y-162380395D01*
X81624365Y-161046030D01*
X81464582Y-160727261D01*
X80673813Y-160417277D01*
X79824613Y-160433503D01*
X79115418Y-160727261D01*
X78955635Y-161046030D01*
X75057000Y-161046030D01*
X75057000Y-161017387D01*
X75101476Y-160933110D01*
X75057000Y-160825729D01*
X75057000Y-159332170D01*
X75058839Y-159329418D01*
X75174092Y-158750000D01*
X75058839Y-158170582D01*
X75057000Y-158167830D01*
X75057000Y-156792170D01*
X75058839Y-156789418D01*
X75174092Y-156210000D01*
X75058839Y-155630582D01*
X75057000Y-155627830D01*
X75057000Y-154252170D01*
X75058839Y-154249418D01*
X75174092Y-153670000D01*
X75058839Y-153090582D01*
X75057000Y-153087830D01*
X75057000Y-151712170D01*
X75058839Y-151709418D01*
X75174092Y-151130000D01*
X75058839Y-150550582D01*
X75057000Y-150547830D01*
X75057000Y-149172170D01*
X75058839Y-149169418D01*
X75110039Y-148912017D01*
X109301000Y-148912017D01*
X109301000Y-149283983D01*
X109443345Y-149627635D01*
X109706365Y-149890655D01*
X110050017Y-150033000D01*
X110421983Y-150033000D01*
X110542694Y-149983000D01*
X113577839Y-149983000D01*
X113665000Y-150000337D01*
X113752161Y-149983000D01*
X113752165Y-149983000D01*
X114010310Y-149931652D01*
X114303049Y-149736049D01*
X114352425Y-149662153D01*
X116007156Y-148007423D01*
X116081049Y-147958049D01*
X116276652Y-147665310D01*
X116328000Y-147407165D01*
X116328000Y-147407161D01*
X116345337Y-147320000D01*
X116328000Y-147232839D01*
X116328000Y-145079017D01*
X119865000Y-145079017D01*
X119865000Y-145450983D01*
X120007345Y-145794635D01*
X120270365Y-146057655D01*
X120614017Y-146200000D01*
X120985983Y-146200000D01*
X121329635Y-146057655D01*
X121592655Y-145794635D01*
X121735000Y-145450983D01*
X121735000Y-145079017D01*
X121592655Y-144735365D01*
X121329635Y-144472345D01*
X120985983Y-144330000D01*
X120614017Y-144330000D01*
X120270365Y-144472345D01*
X120007345Y-144735365D01*
X119865000Y-145079017D01*
X116328000Y-145079017D01*
X116328000Y-144705694D01*
X116378000Y-144584983D01*
X116378000Y-144213017D01*
X116235655Y-143869365D01*
X115972635Y-143606345D01*
X115628983Y-143464000D01*
X115257017Y-143464000D01*
X115058000Y-143546435D01*
X115058000Y-138390159D01*
X115075337Y-138302999D01*
X115058000Y-138215839D01*
X115058000Y-138215835D01*
X115006652Y-137957690D01*
X114811049Y-137664951D01*
X114737156Y-137615577D01*
X113581425Y-136459847D01*
X113532049Y-136385951D01*
X113239310Y-136190348D01*
X112981165Y-136139000D01*
X112981161Y-136139000D01*
X112894000Y-136121663D01*
X112806839Y-136139000D01*
X110660694Y-136139000D01*
X110539983Y-136089000D01*
X110168017Y-136089000D01*
X109824365Y-136231345D01*
X109561345Y-136494365D01*
X109419000Y-136838017D01*
X109419000Y-137209983D01*
X109561345Y-137553635D01*
X109824365Y-137816655D01*
X110168017Y-137959000D01*
X110539983Y-137959000D01*
X110660694Y-137909000D01*
X112527422Y-137909000D01*
X113288001Y-138669580D01*
X113288000Y-146378312D01*
X113238000Y-146499023D01*
X113238000Y-146870989D01*
X113380345Y-147214641D01*
X113643365Y-147477661D01*
X113919416Y-147592005D01*
X113298422Y-148213000D01*
X110542694Y-148213000D01*
X110421983Y-148163000D01*
X110050017Y-148163000D01*
X109706365Y-148305345D01*
X109443345Y-148568365D01*
X109301000Y-148912017D01*
X75110039Y-148912017D01*
X75174092Y-148590000D01*
X75058839Y-148010582D01*
X75057000Y-148007830D01*
X75057000Y-146632170D01*
X75058839Y-146629418D01*
X75174092Y-146050000D01*
X75058839Y-145470582D01*
X75057000Y-145467830D01*
X75057000Y-145102017D01*
X108158000Y-145102017D01*
X108158000Y-145473983D01*
X108300345Y-145817635D01*
X108563365Y-146080655D01*
X108907017Y-146223000D01*
X109278983Y-146223000D01*
X109622635Y-146080655D01*
X109885655Y-145817635D01*
X110028000Y-145473983D01*
X110028000Y-145102017D01*
X109885655Y-144758365D01*
X109622635Y-144495345D01*
X109278983Y-144353000D01*
X108907017Y-144353000D01*
X108563365Y-144495345D01*
X108300345Y-144758365D01*
X108158000Y-145102017D01*
X75057000Y-145102017D01*
X75057000Y-144092170D01*
X75058839Y-144089418D01*
X75174092Y-143510000D01*
X75058839Y-142930582D01*
X75057000Y-142927830D01*
X75057000Y-142712017D01*
X80495000Y-142712017D01*
X80495000Y-143083983D01*
X80637345Y-143427635D01*
X80900365Y-143690655D01*
X81244017Y-143833000D01*
X81615983Y-143833000D01*
X81959635Y-143690655D01*
X82222655Y-143427635D01*
X82365000Y-143083983D01*
X82365000Y-142712017D01*
X82222655Y-142368365D01*
X81959635Y-142105345D01*
X81615983Y-141963000D01*
X81244017Y-141963000D01*
X80900365Y-142105345D01*
X80637345Y-142368365D01*
X80495000Y-142712017D01*
X75057000Y-142712017D01*
X75057000Y-141552170D01*
X75058839Y-141549418D01*
X75174092Y-140970000D01*
X75058839Y-140390582D01*
X75057000Y-140387830D01*
X75057000Y-139012170D01*
X75058839Y-139009418D01*
X75174092Y-138430000D01*
X75058839Y-137850582D01*
X75057000Y-137847830D01*
X75057000Y-136472170D01*
X75058839Y-136469418D01*
X75174092Y-135890000D01*
X75058839Y-135310582D01*
X75057000Y-135307830D01*
X75057000Y-133932170D01*
X75058839Y-133929418D01*
X75174092Y-133350000D01*
X75058839Y-132770582D01*
X75057000Y-132767830D01*
X75057000Y-131392170D01*
X75058839Y-131389418D01*
X75174092Y-130810000D01*
X75058839Y-130230582D01*
X75057000Y-130227830D01*
X75057000Y-128852170D01*
X75058839Y-128849418D01*
X75174092Y-128270000D01*
X75058839Y-127690582D01*
X75057000Y-127687830D01*
X75057000Y-126312170D01*
X75058839Y-126309418D01*
X75174092Y-125730000D01*
X75058839Y-125150582D01*
X75057000Y-125147830D01*
X75057000Y-123772170D01*
X75058839Y-123769418D01*
X75174092Y-123190000D01*
X75058839Y-122610582D01*
X75057000Y-122607830D01*
X75057000Y-121232170D01*
X75058839Y-121229418D01*
X75174092Y-120650000D01*
X75096679Y-120260817D01*
X77601800Y-120260817D01*
X77601800Y-120632783D01*
X77651800Y-120753494D01*
X77651800Y-120783900D01*
X77651801Y-128623704D01*
X77601800Y-128744417D01*
X77601800Y-129116383D01*
X77744145Y-129460035D01*
X78007165Y-129723055D01*
X78350817Y-129865400D01*
X78722783Y-129865400D01*
X79066435Y-129723055D01*
X79329455Y-129460035D01*
X79471800Y-129116383D01*
X79471800Y-128744417D01*
X79421800Y-128623706D01*
X79421800Y-122394417D01*
X79481400Y-122394417D01*
X79481400Y-122766383D01*
X79531400Y-122887094D01*
X79531401Y-130681109D01*
X79481402Y-130801817D01*
X79481402Y-131173783D01*
X79623747Y-131517435D01*
X79886767Y-131780455D01*
X80230419Y-131922800D01*
X80602385Y-131922800D01*
X80946037Y-131780455D01*
X81209057Y-131517435D01*
X81351402Y-131173783D01*
X81351402Y-130801817D01*
X81301400Y-130681101D01*
X81301400Y-130624017D01*
X85298000Y-130624017D01*
X85298000Y-130995983D01*
X85348000Y-131116694D01*
X85348001Y-133678303D01*
X85298000Y-133799016D01*
X85298000Y-134170982D01*
X85440345Y-134514634D01*
X85703365Y-134777654D01*
X86047017Y-134919999D01*
X86418983Y-134919999D01*
X86762635Y-134777654D01*
X87025655Y-134514634D01*
X87168000Y-134170982D01*
X87168000Y-133799016D01*
X87118000Y-133678305D01*
X87118000Y-131116694D01*
X87168000Y-130995983D01*
X87168000Y-130624017D01*
X88854000Y-130624017D01*
X88854000Y-130995983D01*
X88904001Y-131116696D01*
X88904000Y-133678306D01*
X88854000Y-133799017D01*
X88854000Y-134170983D01*
X88996345Y-134514635D01*
X89259365Y-134777655D01*
X89603017Y-134920000D01*
X89974983Y-134920000D01*
X90318635Y-134777655D01*
X90512273Y-134584017D01*
X90655000Y-134584017D01*
X90655000Y-134955983D01*
X90797345Y-135299635D01*
X91060365Y-135562655D01*
X91404017Y-135705000D01*
X91775983Y-135705000D01*
X92119635Y-135562655D01*
X92382655Y-135299635D01*
X92478179Y-135069017D01*
X98125000Y-135069017D01*
X98125000Y-135440983D01*
X98267345Y-135784635D01*
X98530365Y-136047655D01*
X98874017Y-136190000D01*
X99245983Y-136190000D01*
X99589635Y-136047655D01*
X99852655Y-135784635D01*
X99902656Y-135663922D01*
X101958124Y-133608455D01*
X102078835Y-133558455D01*
X102341855Y-133295435D01*
X102484200Y-132951783D01*
X102484200Y-132579817D01*
X102341855Y-132236165D01*
X102078835Y-131973145D01*
X101735183Y-131830800D01*
X101363217Y-131830800D01*
X101019565Y-131973145D01*
X100756545Y-132236165D01*
X100706545Y-132356876D01*
X98651078Y-134412344D01*
X98530365Y-134462345D01*
X98267345Y-134725365D01*
X98125000Y-135069017D01*
X92478179Y-135069017D01*
X92525000Y-134955983D01*
X92525000Y-134584017D01*
X92382655Y-134240365D01*
X92119635Y-133977345D01*
X91775983Y-133835000D01*
X91404017Y-133835000D01*
X91060365Y-133977345D01*
X90797345Y-134240365D01*
X90655000Y-134584017D01*
X90512273Y-134584017D01*
X90581655Y-134514635D01*
X90724000Y-134170983D01*
X90724000Y-133799017D01*
X90674000Y-133678306D01*
X90674000Y-131116694D01*
X90724000Y-130995983D01*
X90724000Y-130624017D01*
X90581655Y-130280365D01*
X90318635Y-130017345D01*
X89974983Y-129875000D01*
X89603017Y-129875000D01*
X89259365Y-130017345D01*
X88996345Y-130280365D01*
X88854000Y-130624017D01*
X87168000Y-130624017D01*
X87025655Y-130280365D01*
X86762635Y-130017345D01*
X86418983Y-129875000D01*
X86047017Y-129875000D01*
X85703365Y-130017345D01*
X85440345Y-130280365D01*
X85298000Y-130624017D01*
X81301400Y-130624017D01*
X81301400Y-128626890D01*
X124288524Y-128626890D01*
X124458355Y-129036924D01*
X124848642Y-129465183D01*
X125373108Y-129711486D01*
X125603000Y-129590819D01*
X125603000Y-128397000D01*
X125857000Y-128397000D01*
X125857000Y-129590819D01*
X126086892Y-129711486D01*
X126611358Y-129465183D01*
X127001645Y-129036924D01*
X127171476Y-128626890D01*
X127050155Y-128397000D01*
X125857000Y-128397000D01*
X125603000Y-128397000D01*
X124409845Y-128397000D01*
X124288524Y-128626890D01*
X81301400Y-128626890D01*
X81301400Y-122887094D01*
X81351400Y-122766383D01*
X81351400Y-122394417D01*
X81298860Y-122267572D01*
X88805000Y-122267572D01*
X88805000Y-122842428D01*
X89024988Y-123373527D01*
X89431473Y-123780012D01*
X89962572Y-124000000D01*
X90537428Y-124000000D01*
X91068527Y-123780012D01*
X91475012Y-123373527D01*
X91695000Y-122842428D01*
X91695000Y-122267572D01*
X93805000Y-122267572D01*
X93805000Y-122842428D01*
X94024988Y-123373527D01*
X94431473Y-123780012D01*
X94962572Y-124000000D01*
X95537428Y-124000000D01*
X96068527Y-123780012D01*
X96475012Y-123373527D01*
X96695000Y-122842428D01*
X96695000Y-122267572D01*
X106585000Y-122267572D01*
X106585000Y-122842428D01*
X106804988Y-123373527D01*
X107211473Y-123780012D01*
X107742572Y-124000000D01*
X108317428Y-124000000D01*
X108848527Y-123780012D01*
X109255012Y-123373527D01*
X109475000Y-122842428D01*
X109475000Y-122267572D01*
X111585000Y-122267572D01*
X111585000Y-122842428D01*
X111804988Y-123373527D01*
X112211473Y-123780012D01*
X112742572Y-124000000D01*
X113317428Y-124000000D01*
X113848527Y-123780012D01*
X114255012Y-123373527D01*
X114475000Y-122842428D01*
X114475000Y-122267572D01*
X114255012Y-121736473D01*
X113848527Y-121329988D01*
X113317428Y-121110000D01*
X112742572Y-121110000D01*
X112211473Y-121329988D01*
X111804988Y-121736473D01*
X111585000Y-122267572D01*
X109475000Y-122267572D01*
X109255012Y-121736473D01*
X108848527Y-121329988D01*
X108317428Y-121110000D01*
X107742572Y-121110000D01*
X107211473Y-121329988D01*
X106804988Y-121736473D01*
X106585000Y-122267572D01*
X96695000Y-122267572D01*
X96475012Y-121736473D01*
X96068527Y-121329988D01*
X95537428Y-121110000D01*
X94962572Y-121110000D01*
X94431473Y-121329988D01*
X94024988Y-121736473D01*
X93805000Y-122267572D01*
X91695000Y-122267572D01*
X91475012Y-121736473D01*
X91068527Y-121329988D01*
X90537428Y-121110000D01*
X89962572Y-121110000D01*
X89431473Y-121329988D01*
X89024988Y-121736473D01*
X88805000Y-122267572D01*
X81298860Y-122267572D01*
X81209055Y-122050765D01*
X80946035Y-121787745D01*
X80602383Y-121645400D01*
X80230417Y-121645400D01*
X79886765Y-121787745D01*
X79623745Y-122050765D01*
X79481400Y-122394417D01*
X79421800Y-122394417D01*
X79421800Y-121099017D01*
X98125000Y-121099017D01*
X98125000Y-121470983D01*
X98267345Y-121814635D01*
X98530365Y-122077655D01*
X98874017Y-122220000D01*
X99245983Y-122220000D01*
X99589635Y-122077655D01*
X99852655Y-121814635D01*
X99995000Y-121470983D01*
X99995000Y-121099017D01*
X99852655Y-120755365D01*
X99589635Y-120492345D01*
X99245983Y-120350000D01*
X98874017Y-120350000D01*
X98530365Y-120492345D01*
X98267345Y-120755365D01*
X98125000Y-121099017D01*
X79421800Y-121099017D01*
X79421800Y-120753494D01*
X79471800Y-120632783D01*
X79471800Y-120260817D01*
X79329455Y-119917165D01*
X79066435Y-119654145D01*
X78722783Y-119511800D01*
X78350817Y-119511800D01*
X78007165Y-119654145D01*
X77744145Y-119917165D01*
X77601800Y-120260817D01*
X75096679Y-120260817D01*
X75058839Y-120070582D01*
X75057000Y-120067830D01*
X75057000Y-118692170D01*
X75058839Y-118689418D01*
X75174092Y-118110000D01*
X75058839Y-117530582D01*
X75057000Y-117527830D01*
X75057000Y-117267572D01*
X91305000Y-117267572D01*
X91305000Y-117842428D01*
X91524988Y-118373527D01*
X91931473Y-118780012D01*
X92462572Y-119000000D01*
X93037428Y-119000000D01*
X93568527Y-118780012D01*
X93975012Y-118373527D01*
X94195000Y-117842428D01*
X94195000Y-117267572D01*
X109085000Y-117267572D01*
X109085000Y-117842428D01*
X109304988Y-118373527D01*
X109711473Y-118780012D01*
X110242572Y-119000000D01*
X110817428Y-119000000D01*
X111348527Y-118780012D01*
X111755012Y-118373527D01*
X111975000Y-117842428D01*
X111975000Y-117267572D01*
X111755012Y-116736473D01*
X111348527Y-116329988D01*
X110817428Y-116110000D01*
X110242572Y-116110000D01*
X109711473Y-116329988D01*
X109304988Y-116736473D01*
X109085000Y-117267572D01*
X94195000Y-117267572D01*
X93975012Y-116736473D01*
X93568527Y-116329988D01*
X93037428Y-116110000D01*
X92462572Y-116110000D01*
X91931473Y-116329988D01*
X91524988Y-116736473D01*
X91305000Y-117267572D01*
X75057000Y-117267572D01*
X75057000Y-116152170D01*
X75058839Y-116149418D01*
X75174092Y-115570000D01*
X75058839Y-114990582D01*
X75057000Y-114987830D01*
X75057000Y-113494271D01*
X75101476Y-113386890D01*
X75057000Y-113302613D01*
X75057000Y-112757387D01*
X75101476Y-112673110D01*
X75057000Y-112565729D01*
X75057000Y-110954271D01*
X75101476Y-110846890D01*
X75057000Y-110762613D01*
X75057000Y-110284126D01*
X87230000Y-110284126D01*
X87230000Y-110695874D01*
X87387569Y-111076280D01*
X87678720Y-111367431D01*
X88059126Y-111525000D01*
X88470874Y-111525000D01*
X88851280Y-111367431D01*
X89142431Y-111076280D01*
X89300000Y-110695874D01*
X89300000Y-110284126D01*
X90405000Y-110284126D01*
X90405000Y-110695874D01*
X90562569Y-111076280D01*
X90853720Y-111367431D01*
X91234126Y-111525000D01*
X91645874Y-111525000D01*
X92026280Y-111367431D01*
X92317431Y-111076280D01*
X92475000Y-110695874D01*
X92475000Y-110284126D01*
X113900000Y-110284126D01*
X113900000Y-110695874D01*
X114057569Y-111076280D01*
X114348720Y-111367431D01*
X114729126Y-111525000D01*
X115140874Y-111525000D01*
X115521280Y-111367431D01*
X115812431Y-111076280D01*
X115970000Y-110695874D01*
X115970000Y-110284126D01*
X117075000Y-110284126D01*
X117075000Y-110695874D01*
X117232569Y-111076280D01*
X117523720Y-111367431D01*
X117904126Y-111525000D01*
X118315874Y-111525000D01*
X118696280Y-111367431D01*
X118987431Y-111076280D01*
X119145000Y-110695874D01*
X119145000Y-110284126D01*
X118987431Y-109903720D01*
X118696280Y-109612569D01*
X118315874Y-109455000D01*
X117904126Y-109455000D01*
X117523720Y-109612569D01*
X117232569Y-109903720D01*
X117075000Y-110284126D01*
X115970000Y-110284126D01*
X115812431Y-109903720D01*
X115521280Y-109612569D01*
X115140874Y-109455000D01*
X114729126Y-109455000D01*
X114348720Y-109612569D01*
X114057569Y-109903720D01*
X113900000Y-110284126D01*
X92475000Y-110284126D01*
X92317431Y-109903720D01*
X92026280Y-109612569D01*
X91645874Y-109455000D01*
X91234126Y-109455000D01*
X90853720Y-109612569D01*
X90562569Y-109903720D01*
X90405000Y-110284126D01*
X89300000Y-110284126D01*
X89142431Y-109903720D01*
X88851280Y-109612569D01*
X88470874Y-109455000D01*
X88059126Y-109455000D01*
X87678720Y-109612569D01*
X87387569Y-109903720D01*
X87230000Y-110284126D01*
X75057000Y-110284126D01*
X75057000Y-110217387D01*
X75101476Y-110133110D01*
X75057000Y-110025729D01*
X75057000Y-108549017D01*
X103355000Y-108549017D01*
X103355000Y-108920983D01*
X103497345Y-109264635D01*
X103760365Y-109527655D01*
X104104017Y-109670000D01*
X104475983Y-109670000D01*
X104819635Y-109527655D01*
X105082655Y-109264635D01*
X105225000Y-108920983D01*
X105225000Y-108549017D01*
X105154630Y-108379126D01*
X119615000Y-108379126D01*
X119615000Y-108790874D01*
X119772569Y-109171280D01*
X120063720Y-109462431D01*
X120444126Y-109620000D01*
X120855874Y-109620000D01*
X121218007Y-109470000D01*
X125796993Y-109470000D01*
X126159126Y-109620000D01*
X126570874Y-109620000D01*
X126951280Y-109462431D01*
X127242431Y-109171280D01*
X127400000Y-108790874D01*
X127400000Y-108379126D01*
X127242431Y-107998720D01*
X126951280Y-107707569D01*
X126570874Y-107550000D01*
X126159126Y-107550000D01*
X125796993Y-107700000D01*
X121218007Y-107700000D01*
X120855874Y-107550000D01*
X120444126Y-107550000D01*
X120063720Y-107707569D01*
X119772569Y-107998720D01*
X119615000Y-108379126D01*
X105154630Y-108379126D01*
X105082655Y-108205365D01*
X104819635Y-107942345D01*
X104475983Y-107800000D01*
X104104017Y-107800000D01*
X103760365Y-107942345D01*
X103497345Y-108205365D01*
X103355000Y-108549017D01*
X75057000Y-108549017D01*
X75057000Y-108532170D01*
X75058839Y-108529418D01*
X75174092Y-107950000D01*
X75058839Y-107370582D01*
X75057000Y-107367830D01*
X75057000Y-105992170D01*
X75058839Y-105989418D01*
X75174092Y-105410000D01*
X75114363Y-105109717D01*
X104030500Y-105109717D01*
X104030500Y-105481683D01*
X104172845Y-105825335D01*
X104435865Y-106088355D01*
X104779517Y-106230700D01*
X105151483Y-106230700D01*
X105495135Y-106088355D01*
X105758155Y-105825335D01*
X105900500Y-105481683D01*
X105900500Y-105109717D01*
X105758155Y-104766065D01*
X105495135Y-104503045D01*
X105151483Y-104360700D01*
X104779517Y-104360700D01*
X104435865Y-104503045D01*
X104172845Y-104766065D01*
X104030500Y-105109717D01*
X75114363Y-105109717D01*
X75058839Y-104830582D01*
X75057000Y-104827830D01*
X75057000Y-103452170D01*
X75058839Y-103449418D01*
X75174092Y-102870000D01*
X75058839Y-102290582D01*
X75057000Y-102287830D01*
X75057000Y-100912170D01*
X75058839Y-100909418D01*
X75139088Y-100505975D01*
X78915000Y-100505975D01*
X78915000Y-101594025D01*
X79331379Y-102599253D01*
X80100747Y-103368621D01*
X81105975Y-103785000D01*
X82194025Y-103785000D01*
X83199253Y-103368621D01*
X83968621Y-102599253D01*
X84385000Y-101594025D01*
X84385000Y-100505975D01*
X83968621Y-99500747D01*
X83760101Y-99292227D01*
X84269460Y-99270839D01*
X84714148Y-99086643D01*
X84800554Y-98830159D01*
X83900000Y-97929605D01*
X83885858Y-97943748D01*
X83706253Y-97764143D01*
X83720395Y-97750000D01*
X82819841Y-96849446D01*
X82563357Y-96935852D01*
X82353542Y-97509336D01*
X82379161Y-98119460D01*
X82515274Y-98448066D01*
X82194025Y-98315000D01*
X81105975Y-98315000D01*
X80100747Y-98731379D01*
X79331379Y-99500747D01*
X78915000Y-100505975D01*
X75139088Y-100505975D01*
X75174092Y-100330000D01*
X75058839Y-99750582D01*
X75057000Y-99747830D01*
X75057000Y-98372170D01*
X75058839Y-98369418D01*
X75174092Y-97790000D01*
X75058839Y-97210582D01*
X75057000Y-97207830D01*
X75057000Y-96330159D01*
X82999446Y-96330159D01*
X83056663Y-96500000D01*
X82999446Y-96669841D01*
X83900000Y-97570395D01*
X84800554Y-96669841D01*
X84743337Y-96500000D01*
X84800554Y-96330159D01*
X83900000Y-95429605D01*
X82999446Y-96330159D01*
X75057000Y-96330159D01*
X75057000Y-95832170D01*
X75058839Y-95829418D01*
X75174092Y-95250000D01*
X75126222Y-95009336D01*
X82353542Y-95009336D01*
X82379161Y-95619460D01*
X82563357Y-96064148D01*
X82819841Y-96150554D01*
X83720395Y-95250000D01*
X84079605Y-95250000D01*
X84980159Y-96150554D01*
X85095461Y-96111710D01*
X85098690Y-96119507D01*
X85479183Y-96500000D01*
X85098690Y-96880493D01*
X85095461Y-96888290D01*
X84980159Y-96849446D01*
X84079605Y-97750000D01*
X84980159Y-98650554D01*
X85095461Y-98611710D01*
X85098690Y-98619507D01*
X85530493Y-99051310D01*
X86094670Y-99285000D01*
X86705330Y-99285000D01*
X87269507Y-99051310D01*
X87650000Y-98670817D01*
X88030493Y-99051310D01*
X88594670Y-99285000D01*
X89047126Y-99285000D01*
X88831379Y-99500747D01*
X88415000Y-100505975D01*
X88415000Y-101594025D01*
X88831379Y-102599253D01*
X89600747Y-103368621D01*
X90605975Y-103785000D01*
X91694025Y-103785000D01*
X92699253Y-103368621D01*
X93468621Y-102599253D01*
X93517679Y-102480815D01*
X97591600Y-102480815D01*
X97591600Y-102852781D01*
X97733945Y-103196433D01*
X97996965Y-103459453D01*
X98340617Y-103601798D01*
X98712583Y-103601798D01*
X98833289Y-103551800D01*
X98922022Y-103551800D01*
X99013994Y-103643773D01*
X99013994Y-103767183D01*
X99156339Y-104110835D01*
X99419359Y-104373855D01*
X99763011Y-104516200D01*
X100134977Y-104516200D01*
X100478629Y-104373855D01*
X100741649Y-104110835D01*
X100883994Y-103767183D01*
X100883994Y-103395217D01*
X100847186Y-103306354D01*
X100833994Y-103240033D01*
X100833994Y-103240030D01*
X100782646Y-102981884D01*
X100660112Y-102798500D01*
X101758750Y-102798500D01*
X101917500Y-102639750D01*
X101917500Y-102602659D01*
X101947427Y-102611863D01*
X102171500Y-102590660D01*
X102171500Y-102639750D01*
X102330250Y-102798500D01*
X103495810Y-102798500D01*
X103729199Y-102701827D01*
X103907827Y-102523198D01*
X104004500Y-102289809D01*
X104004500Y-101949250D01*
X103951223Y-101895973D01*
X103992863Y-101760573D01*
X103960776Y-101421474D01*
X104004500Y-101377750D01*
X104004500Y-101037191D01*
X103907827Y-100803802D01*
X103729199Y-100625173D01*
X103495810Y-100528500D01*
X102330250Y-100528500D01*
X102171500Y-100687250D01*
X102171500Y-100724341D01*
X102141573Y-100715137D01*
X101917500Y-100736340D01*
X101917500Y-100687250D01*
X101758750Y-100528500D01*
X101426687Y-100528500D01*
X101494635Y-100500355D01*
X101757655Y-100237335D01*
X101900000Y-99893683D01*
X101900000Y-99521717D01*
X101757655Y-99178065D01*
X101494635Y-98915045D01*
X101150983Y-98772700D01*
X100779017Y-98772700D01*
X100435365Y-98915045D01*
X100172345Y-99178065D01*
X100030000Y-99521717D01*
X100030000Y-99893683D01*
X100172345Y-100237335D01*
X100435365Y-100500355D01*
X100548252Y-100547114D01*
X100359801Y-100625173D01*
X100181173Y-100803802D01*
X100084500Y-101037191D01*
X100084500Y-101377750D01*
X100137777Y-101431027D01*
X100096137Y-101566427D01*
X100128224Y-101905526D01*
X100084500Y-101949250D01*
X100084500Y-102211122D01*
X99976024Y-102102646D01*
X99926649Y-102028751D01*
X99633910Y-101833148D01*
X99375765Y-101781800D01*
X99375761Y-101781800D01*
X99288600Y-101764463D01*
X99201439Y-101781800D01*
X98833299Y-101781800D01*
X98712583Y-101731798D01*
X98340617Y-101731798D01*
X97996965Y-101874143D01*
X97733945Y-102137163D01*
X97591600Y-102480815D01*
X93517679Y-102480815D01*
X93885000Y-101594025D01*
X93885000Y-100505975D01*
X93871846Y-100474217D01*
X95178600Y-100474217D01*
X95178600Y-100846183D01*
X95320945Y-101189835D01*
X95583965Y-101452855D01*
X95927617Y-101595200D01*
X96299583Y-101595200D01*
X96643235Y-101452855D01*
X96906255Y-101189835D01*
X97048600Y-100846183D01*
X97048600Y-100474217D01*
X96906255Y-100130565D01*
X96643235Y-99867545D01*
X96299583Y-99725200D01*
X95927617Y-99725200D01*
X95583965Y-99867545D01*
X95320945Y-100130565D01*
X95178600Y-100474217D01*
X93871846Y-100474217D01*
X93468621Y-99500747D01*
X92699253Y-98731379D01*
X91694025Y-98315000D01*
X90605975Y-98315000D01*
X90269755Y-98454267D01*
X90435000Y-98055330D01*
X90435000Y-97444670D01*
X90201310Y-96880493D01*
X90126567Y-96805750D01*
X106985000Y-96805750D01*
X106985000Y-97346310D01*
X107081673Y-97579699D01*
X107260302Y-97758327D01*
X107493691Y-97855000D01*
X107909250Y-97855000D01*
X108068000Y-97696250D01*
X108068000Y-96647000D01*
X107143750Y-96647000D01*
X106985000Y-96805750D01*
X90126567Y-96805750D01*
X89820817Y-96500000D01*
X90201310Y-96119507D01*
X90435000Y-95555330D01*
X90435000Y-94944670D01*
X90201310Y-94380493D01*
X89769507Y-93948690D01*
X89205330Y-93715000D01*
X88594670Y-93715000D01*
X88030493Y-93948690D01*
X87650000Y-94329183D01*
X87269507Y-93948690D01*
X86705330Y-93715000D01*
X86094670Y-93715000D01*
X85530493Y-93948690D01*
X85098690Y-94380493D01*
X85095461Y-94388290D01*
X84980159Y-94349446D01*
X84079605Y-95250000D01*
X83720395Y-95250000D01*
X82819841Y-94349446D01*
X82563357Y-94435852D01*
X82353542Y-95009336D01*
X75126222Y-95009336D01*
X75058839Y-94670582D01*
X75057000Y-94667830D01*
X75057000Y-94169841D01*
X82999446Y-94169841D01*
X83900000Y-95070395D01*
X84800554Y-94169841D01*
X84714148Y-93913357D01*
X84140664Y-93703542D01*
X83530540Y-93729161D01*
X83085852Y-93913357D01*
X82999446Y-94169841D01*
X75057000Y-94169841D01*
X75057000Y-93292170D01*
X75058839Y-93289418D01*
X75174092Y-92710000D01*
X75058839Y-92130582D01*
X75057000Y-92127830D01*
X75057000Y-90752170D01*
X75058839Y-90749418D01*
X75174092Y-90170000D01*
X75058839Y-89590582D01*
X75057000Y-89587830D01*
X75057000Y-88212170D01*
X75058839Y-88209418D01*
X75174092Y-87630000D01*
X75058839Y-87050582D01*
X75057000Y-87047830D01*
X75057000Y-85825000D01*
X80134968Y-85825000D01*
X79511930Y-86448038D01*
G36*
X102110056Y-101521166D02*
X102096137Y-101566427D01*
X102118036Y-101797854D01*
X102058643Y-101857248D01*
X102044500Y-101843105D01*
X102030358Y-101857248D01*
X101978944Y-101805834D01*
X101992863Y-101760573D01*
X101970964Y-101529146D01*
X102030358Y-101469753D01*
X102044500Y-101483895D01*
X102058643Y-101469753D01*
X102110056Y-101521166D01*
X102110056Y-101521166D01*
G37*
X102110056Y-101521166D02*
X102096137Y-101566427D01*
X102118036Y-101797854D01*
X102058643Y-101857248D01*
X102044500Y-101843105D01*
X102030358Y-101857248D01*
X101978944Y-101805834D01*
X101992863Y-101760573D01*
X101970964Y-101529146D01*
X102030358Y-101469753D01*
X102044500Y-101483895D01*
X102058643Y-101469753D01*
X102110056Y-101521166D01*
G36*
X101096137Y-101566427D02*
X101117340Y-101790500D01*
X100963610Y-101790500D01*
X100850753Y-101677643D01*
X100864895Y-101663500D01*
X100850753Y-101649358D01*
X100963610Y-101536500D01*
X101105341Y-101536500D01*
X101096137Y-101566427D01*
X101096137Y-101566427D01*
G37*
X101096137Y-101566427D02*
X101117340Y-101790500D01*
X100963610Y-101790500D01*
X100850753Y-101677643D01*
X100864895Y-101663500D01*
X100850753Y-101649358D01*
X100963610Y-101536500D01*
X101105341Y-101536500D01*
X101096137Y-101566427D01*
G36*
X103238248Y-101649358D02*
X103224105Y-101663500D01*
X103238248Y-101677643D01*
X103125390Y-101790500D01*
X102983659Y-101790500D01*
X102992863Y-101760573D01*
X102971660Y-101536500D01*
X103125390Y-101536500D01*
X103238248Y-101649358D01*
X103238248Y-101649358D01*
G37*
X103238248Y-101649358D02*
X103224105Y-101663500D01*
X103238248Y-101677643D01*
X103125390Y-101790500D01*
X102983659Y-101790500D01*
X102992863Y-101760573D01*
X102971660Y-101536500D01*
X103125390Y-101536500D01*
X103238248Y-101649358D01*
G04 #@! TD*
M02*
