G04 #@! TF.GenerationSoftware,KiCad,Pcbnew,(5.0.0-3-g5ebb6b6)*
G04 #@! TF.CreationDate,2018-12-29T11:49:17+00:00*
G04 #@! TF.ProjectId,BinaryBagelBoard,42696E617279426167656C426F617264,rev?*
G04 #@! TF.SameCoordinates,Original*
G04 #@! TF.FileFunction,Soldermask,Top*
G04 #@! TF.FilePolarity,Negative*
%FSLAX46Y46*%
G04 Gerber Fmt 4.6, Leading zero omitted, Abs format (unit mm)*
G04 Created by KiCad (PCBNEW (5.0.0-3-g5ebb6b6)) date Saturday, 29 December 2018 at 11:49:17*
%MOMM*%
%LPD*%
G01*
G04 APERTURE LIST*
%ADD10R,1.000000X1.950000*%
%ADD11R,3.000000X2.000000*%
%ADD12R,3.900000X3.900000*%
%ADD13C,0.100000*%
%ADD14C,3.400000*%
%ADD15C,3.900000*%
%ADD16R,2.900000X1.400000*%
%ADD17R,4.400000X2.400000*%
%ADD18C,1.150000*%
%ADD19R,2.100000X2.100000*%
%ADD20O,2.100000X2.100000*%
%ADD21R,3.400000X3.400000*%
%ADD22R,1.300000X1.600000*%
%ADD23C,0.254000*%
G04 APERTURE END LIST*
D10*
G04 #@! TO.C,U_INV1*
X117475000Y-64930000D03*
X118745000Y-64930000D03*
X120015000Y-64930000D03*
X121285000Y-64930000D03*
X121285000Y-59530000D03*
X120015000Y-59530000D03*
X118745000Y-59530000D03*
X117475000Y-59530000D03*
G04 #@! TD*
D11*
G04 #@! TO.C,C_INV1*
X123930000Y-73660000D03*
X127530000Y-73660000D03*
G04 #@! TD*
G04 #@! TO.C,C_INV2*
X125708000Y-50546000D03*
X129308000Y-50546000D03*
G04 #@! TD*
D12*
G04 #@! TO.C,J_IN1*
X106680000Y-55880000D03*
D13*
G36*
X101613315Y-53934093D02*
X101695827Y-53946333D01*
X101776742Y-53966601D01*
X101855281Y-53994702D01*
X101930687Y-54030367D01*
X102002235Y-54073251D01*
X102069234Y-54122941D01*
X102131041Y-54178959D01*
X102187059Y-54240766D01*
X102236749Y-54307765D01*
X102279633Y-54379313D01*
X102315298Y-54454719D01*
X102343399Y-54533258D01*
X102363667Y-54614173D01*
X102375907Y-54696685D01*
X102380000Y-54780000D01*
X102380000Y-56980000D01*
X102375907Y-57063315D01*
X102363667Y-57145827D01*
X102343399Y-57226742D01*
X102315298Y-57305281D01*
X102279633Y-57380687D01*
X102236749Y-57452235D01*
X102187059Y-57519234D01*
X102131041Y-57581041D01*
X102069234Y-57637059D01*
X102002235Y-57686749D01*
X101930687Y-57729633D01*
X101855281Y-57765298D01*
X101776742Y-57793399D01*
X101695827Y-57813667D01*
X101613315Y-57825907D01*
X101530000Y-57830000D01*
X99830000Y-57830000D01*
X99746685Y-57825907D01*
X99664173Y-57813667D01*
X99583258Y-57793399D01*
X99504719Y-57765298D01*
X99429313Y-57729633D01*
X99357765Y-57686749D01*
X99290766Y-57637059D01*
X99228959Y-57581041D01*
X99172941Y-57519234D01*
X99123251Y-57452235D01*
X99080367Y-57380687D01*
X99044702Y-57305281D01*
X99016601Y-57226742D01*
X98996333Y-57145827D01*
X98984093Y-57063315D01*
X98980000Y-56980000D01*
X98980000Y-54780000D01*
X98984093Y-54696685D01*
X98996333Y-54614173D01*
X99016601Y-54533258D01*
X99044702Y-54454719D01*
X99080367Y-54379313D01*
X99123251Y-54307765D01*
X99172941Y-54240766D01*
X99228959Y-54178959D01*
X99290766Y-54122941D01*
X99357765Y-54073251D01*
X99429313Y-54030367D01*
X99504719Y-53994702D01*
X99583258Y-53966601D01*
X99664173Y-53946333D01*
X99746685Y-53934093D01*
X99830000Y-53930000D01*
X101530000Y-53930000D01*
X101613315Y-53934093D01*
X101613315Y-53934093D01*
G37*
D14*
X100680000Y-55880000D03*
D13*
G36*
X104750567Y-58634695D02*
X104845213Y-58648734D01*
X104938028Y-58671983D01*
X105028116Y-58704217D01*
X105114612Y-58745127D01*
X105196681Y-58794317D01*
X105273533Y-58851315D01*
X105344429Y-58915571D01*
X105408685Y-58986467D01*
X105465683Y-59063319D01*
X105514873Y-59145388D01*
X105555783Y-59231884D01*
X105588017Y-59321972D01*
X105611266Y-59414787D01*
X105625305Y-59509433D01*
X105630000Y-59605000D01*
X105630000Y-61555000D01*
X105625305Y-61650567D01*
X105611266Y-61745213D01*
X105588017Y-61838028D01*
X105555783Y-61928116D01*
X105514873Y-62014612D01*
X105465683Y-62096681D01*
X105408685Y-62173533D01*
X105344429Y-62244429D01*
X105273533Y-62308685D01*
X105196681Y-62365683D01*
X105114612Y-62414873D01*
X105028116Y-62455783D01*
X104938028Y-62488017D01*
X104845213Y-62511266D01*
X104750567Y-62525305D01*
X104655000Y-62530000D01*
X102705000Y-62530000D01*
X102609433Y-62525305D01*
X102514787Y-62511266D01*
X102421972Y-62488017D01*
X102331884Y-62455783D01*
X102245388Y-62414873D01*
X102163319Y-62365683D01*
X102086467Y-62308685D01*
X102015571Y-62244429D01*
X101951315Y-62173533D01*
X101894317Y-62096681D01*
X101845127Y-62014612D01*
X101804217Y-61928116D01*
X101771983Y-61838028D01*
X101748734Y-61745213D01*
X101734695Y-61650567D01*
X101730000Y-61555000D01*
X101730000Y-59605000D01*
X101734695Y-59509433D01*
X101748734Y-59414787D01*
X101771983Y-59321972D01*
X101804217Y-59231884D01*
X101845127Y-59145388D01*
X101894317Y-59063319D01*
X101951315Y-58986467D01*
X102015571Y-58915571D01*
X102086467Y-58851315D01*
X102163319Y-58794317D01*
X102245388Y-58745127D01*
X102331884Y-58704217D01*
X102421972Y-58671983D01*
X102514787Y-58648734D01*
X102609433Y-58634695D01*
X102705000Y-58630000D01*
X104655000Y-58630000D01*
X104750567Y-58634695D01*
X104750567Y-58634695D01*
G37*
D15*
X103680000Y-60580000D03*
G04 #@! TD*
D16*
G04 #@! TO.C,U_NR1*
X120090000Y-55856000D03*
X120090000Y-54356000D03*
X120090000Y-52856000D03*
D17*
X116130000Y-54356000D03*
D18*
X118480000Y-54356000D03*
D13*
G36*
X117905000Y-52982297D02*
X119055000Y-53748963D01*
X119055000Y-54963037D01*
X117905000Y-55729703D01*
X117905000Y-52982297D01*
X117905000Y-52982297D01*
G37*
G04 #@! TD*
D18*
G04 #@! TO.C,U_PR1*
X114035000Y-69850000D03*
D13*
G36*
X113460000Y-68476297D02*
X114610000Y-69242963D01*
X114610000Y-70457037D01*
X113460000Y-71223703D01*
X113460000Y-68476297D01*
X113460000Y-68476297D01*
G37*
D17*
X111685000Y-69850000D03*
D16*
X115645000Y-68350000D03*
X115645000Y-69850000D03*
X115645000Y-71350000D03*
G04 #@! TD*
D19*
G04 #@! TO.C,J_MNT1*
X104140000Y-48260000D03*
D20*
X106680000Y-48260000D03*
X109220000Y-48260000D03*
X111760000Y-48260000D03*
X114300000Y-48260000D03*
X116840000Y-48260000D03*
X119380000Y-48260000D03*
X121920000Y-48260000D03*
G04 #@! TD*
G04 #@! TO.C,J_MNT2*
X121920000Y-76200000D03*
X119380000Y-76200000D03*
X116840000Y-76200000D03*
X114300000Y-76200000D03*
X111760000Y-76200000D03*
X109220000Y-76200000D03*
X106680000Y-76200000D03*
D19*
X104140000Y-76200000D03*
G04 #@! TD*
D21*
G04 #@! TO.C,J_IN2*
X99060000Y-71120000D03*
D14*
X99060000Y-66040000D03*
G04 #@! TD*
D21*
G04 #@! TO.C,J_OUT1*
X127000000Y-67310000D03*
D14*
X127000000Y-62230000D03*
X127000000Y-57150000D03*
G04 #@! TD*
D22*
G04 #@! TO.C,DP1*
X99440000Y-76200000D03*
X96140000Y-76200000D03*
G04 #@! TD*
D23*
G36*
X113919000Y-74168000D02*
X106807000Y-74168000D01*
X106807000Y-64262000D01*
X113919000Y-64262000D01*
X113919000Y-74168000D01*
X113919000Y-74168000D01*
G37*
X113919000Y-74168000D02*
X106807000Y-74168000D01*
X106807000Y-64262000D01*
X113919000Y-64262000D01*
X113919000Y-74168000D01*
G36*
X117983000Y-57658000D02*
X116205000Y-57658000D01*
X116156399Y-57667667D01*
X116115197Y-57695197D01*
X116087667Y-57736399D01*
X116078000Y-57785000D01*
X116078000Y-60198000D01*
X109982000Y-60198000D01*
X109982000Y-50292000D01*
X117983000Y-50292000D01*
X117983000Y-57658000D01*
X117983000Y-57658000D01*
G37*
X117983000Y-57658000D02*
X116205000Y-57658000D01*
X116156399Y-57667667D01*
X116115197Y-57695197D01*
X116087667Y-57736399D01*
X116078000Y-57785000D01*
X116078000Y-60198000D01*
X109982000Y-60198000D01*
X109982000Y-50292000D01*
X117983000Y-50292000D01*
X117983000Y-57658000D01*
M02*
