G04 #@! TF.GenerationSoftware,KiCad,Pcbnew,(5.0.0-3-g5ebb6b6)*
G04 #@! TF.CreationDate,2018-12-29T11:49:17+00:00*
G04 #@! TF.ProjectId,BinaryBagelBoard,42696E617279426167656C426F617264,rev?*
G04 #@! TF.SameCoordinates,Original*
G04 #@! TF.FileFunction,Paste,Bot*
G04 #@! TF.FilePolarity,Positive*
%FSLAX46Y46*%
G04 Gerber Fmt 4.6, Leading zero omitted, Abs format (unit mm)*
G04 Created by KiCad (PCBNEW (5.0.0-3-g5ebb6b6)) date Saturday, 29 December 2018 at 11:49:17*
%MOMM*%
%LPD*%
G01*
G04 APERTURE LIST*
%ADD10C,0.100000*%
%ADD11C,1.150000*%
G04 APERTURE END LIST*
D10*
G04 #@! TO.C,C_NR1*
G36*
X124299505Y-57456204D02*
X124323773Y-57459804D01*
X124347572Y-57465765D01*
X124370671Y-57474030D01*
X124392850Y-57484520D01*
X124413893Y-57497132D01*
X124433599Y-57511747D01*
X124451777Y-57528223D01*
X124468253Y-57546401D01*
X124482868Y-57566107D01*
X124495480Y-57587150D01*
X124505970Y-57609329D01*
X124514235Y-57632428D01*
X124520196Y-57656227D01*
X124523796Y-57680495D01*
X124525000Y-57704999D01*
X124525000Y-58355001D01*
X124523796Y-58379505D01*
X124520196Y-58403773D01*
X124514235Y-58427572D01*
X124505970Y-58450671D01*
X124495480Y-58472850D01*
X124482868Y-58493893D01*
X124468253Y-58513599D01*
X124451777Y-58531777D01*
X124433599Y-58548253D01*
X124413893Y-58562868D01*
X124392850Y-58575480D01*
X124370671Y-58585970D01*
X124347572Y-58594235D01*
X124323773Y-58600196D01*
X124299505Y-58603796D01*
X124275001Y-58605000D01*
X123374999Y-58605000D01*
X123350495Y-58603796D01*
X123326227Y-58600196D01*
X123302428Y-58594235D01*
X123279329Y-58585970D01*
X123257150Y-58575480D01*
X123236107Y-58562868D01*
X123216401Y-58548253D01*
X123198223Y-58531777D01*
X123181747Y-58513599D01*
X123167132Y-58493893D01*
X123154520Y-58472850D01*
X123144030Y-58450671D01*
X123135765Y-58427572D01*
X123129804Y-58403773D01*
X123126204Y-58379505D01*
X123125000Y-58355001D01*
X123125000Y-57704999D01*
X123126204Y-57680495D01*
X123129804Y-57656227D01*
X123135765Y-57632428D01*
X123144030Y-57609329D01*
X123154520Y-57587150D01*
X123167132Y-57566107D01*
X123181747Y-57546401D01*
X123198223Y-57528223D01*
X123216401Y-57511747D01*
X123236107Y-57497132D01*
X123257150Y-57484520D01*
X123279329Y-57474030D01*
X123302428Y-57465765D01*
X123326227Y-57459804D01*
X123350495Y-57456204D01*
X123374999Y-57455000D01*
X124275001Y-57455000D01*
X124299505Y-57456204D01*
X124299505Y-57456204D01*
G37*
D11*
X123825000Y-58030000D03*
D10*
G36*
X124299505Y-59506204D02*
X124323773Y-59509804D01*
X124347572Y-59515765D01*
X124370671Y-59524030D01*
X124392850Y-59534520D01*
X124413893Y-59547132D01*
X124433599Y-59561747D01*
X124451777Y-59578223D01*
X124468253Y-59596401D01*
X124482868Y-59616107D01*
X124495480Y-59637150D01*
X124505970Y-59659329D01*
X124514235Y-59682428D01*
X124520196Y-59706227D01*
X124523796Y-59730495D01*
X124525000Y-59754999D01*
X124525000Y-60405001D01*
X124523796Y-60429505D01*
X124520196Y-60453773D01*
X124514235Y-60477572D01*
X124505970Y-60500671D01*
X124495480Y-60522850D01*
X124482868Y-60543893D01*
X124468253Y-60563599D01*
X124451777Y-60581777D01*
X124433599Y-60598253D01*
X124413893Y-60612868D01*
X124392850Y-60625480D01*
X124370671Y-60635970D01*
X124347572Y-60644235D01*
X124323773Y-60650196D01*
X124299505Y-60653796D01*
X124275001Y-60655000D01*
X123374999Y-60655000D01*
X123350495Y-60653796D01*
X123326227Y-60650196D01*
X123302428Y-60644235D01*
X123279329Y-60635970D01*
X123257150Y-60625480D01*
X123236107Y-60612868D01*
X123216401Y-60598253D01*
X123198223Y-60581777D01*
X123181747Y-60563599D01*
X123167132Y-60543893D01*
X123154520Y-60522850D01*
X123144030Y-60500671D01*
X123135765Y-60477572D01*
X123129804Y-60453773D01*
X123126204Y-60429505D01*
X123125000Y-60405001D01*
X123125000Y-59754999D01*
X123126204Y-59730495D01*
X123129804Y-59706227D01*
X123135765Y-59682428D01*
X123144030Y-59659329D01*
X123154520Y-59637150D01*
X123167132Y-59616107D01*
X123181747Y-59596401D01*
X123198223Y-59578223D01*
X123216401Y-59561747D01*
X123236107Y-59547132D01*
X123257150Y-59534520D01*
X123279329Y-59524030D01*
X123302428Y-59515765D01*
X123326227Y-59509804D01*
X123350495Y-59506204D01*
X123374999Y-59505000D01*
X124275001Y-59505000D01*
X124299505Y-59506204D01*
X124299505Y-59506204D01*
G37*
D11*
X123825000Y-60080000D03*
G04 #@! TD*
D10*
G04 #@! TO.C,C_NR2*
G36*
X124299505Y-61901204D02*
X124323773Y-61904804D01*
X124347572Y-61910765D01*
X124370671Y-61919030D01*
X124392850Y-61929520D01*
X124413893Y-61942132D01*
X124433599Y-61956747D01*
X124451777Y-61973223D01*
X124468253Y-61991401D01*
X124482868Y-62011107D01*
X124495480Y-62032150D01*
X124505970Y-62054329D01*
X124514235Y-62077428D01*
X124520196Y-62101227D01*
X124523796Y-62125495D01*
X124525000Y-62149999D01*
X124525000Y-62800001D01*
X124523796Y-62824505D01*
X124520196Y-62848773D01*
X124514235Y-62872572D01*
X124505970Y-62895671D01*
X124495480Y-62917850D01*
X124482868Y-62938893D01*
X124468253Y-62958599D01*
X124451777Y-62976777D01*
X124433599Y-62993253D01*
X124413893Y-63007868D01*
X124392850Y-63020480D01*
X124370671Y-63030970D01*
X124347572Y-63039235D01*
X124323773Y-63045196D01*
X124299505Y-63048796D01*
X124275001Y-63050000D01*
X123374999Y-63050000D01*
X123350495Y-63048796D01*
X123326227Y-63045196D01*
X123302428Y-63039235D01*
X123279329Y-63030970D01*
X123257150Y-63020480D01*
X123236107Y-63007868D01*
X123216401Y-62993253D01*
X123198223Y-62976777D01*
X123181747Y-62958599D01*
X123167132Y-62938893D01*
X123154520Y-62917850D01*
X123144030Y-62895671D01*
X123135765Y-62872572D01*
X123129804Y-62848773D01*
X123126204Y-62824505D01*
X123125000Y-62800001D01*
X123125000Y-62149999D01*
X123126204Y-62125495D01*
X123129804Y-62101227D01*
X123135765Y-62077428D01*
X123144030Y-62054329D01*
X123154520Y-62032150D01*
X123167132Y-62011107D01*
X123181747Y-61991401D01*
X123198223Y-61973223D01*
X123216401Y-61956747D01*
X123236107Y-61942132D01*
X123257150Y-61929520D01*
X123279329Y-61919030D01*
X123302428Y-61910765D01*
X123326227Y-61904804D01*
X123350495Y-61901204D01*
X123374999Y-61900000D01*
X124275001Y-61900000D01*
X124299505Y-61901204D01*
X124299505Y-61901204D01*
G37*
D11*
X123825000Y-62475000D03*
D10*
G36*
X124299505Y-63951204D02*
X124323773Y-63954804D01*
X124347572Y-63960765D01*
X124370671Y-63969030D01*
X124392850Y-63979520D01*
X124413893Y-63992132D01*
X124433599Y-64006747D01*
X124451777Y-64023223D01*
X124468253Y-64041401D01*
X124482868Y-64061107D01*
X124495480Y-64082150D01*
X124505970Y-64104329D01*
X124514235Y-64127428D01*
X124520196Y-64151227D01*
X124523796Y-64175495D01*
X124525000Y-64199999D01*
X124525000Y-64850001D01*
X124523796Y-64874505D01*
X124520196Y-64898773D01*
X124514235Y-64922572D01*
X124505970Y-64945671D01*
X124495480Y-64967850D01*
X124482868Y-64988893D01*
X124468253Y-65008599D01*
X124451777Y-65026777D01*
X124433599Y-65043253D01*
X124413893Y-65057868D01*
X124392850Y-65070480D01*
X124370671Y-65080970D01*
X124347572Y-65089235D01*
X124323773Y-65095196D01*
X124299505Y-65098796D01*
X124275001Y-65100000D01*
X123374999Y-65100000D01*
X123350495Y-65098796D01*
X123326227Y-65095196D01*
X123302428Y-65089235D01*
X123279329Y-65080970D01*
X123257150Y-65070480D01*
X123236107Y-65057868D01*
X123216401Y-65043253D01*
X123198223Y-65026777D01*
X123181747Y-65008599D01*
X123167132Y-64988893D01*
X123154520Y-64967850D01*
X123144030Y-64945671D01*
X123135765Y-64922572D01*
X123129804Y-64898773D01*
X123126204Y-64874505D01*
X123125000Y-64850001D01*
X123125000Y-64199999D01*
X123126204Y-64175495D01*
X123129804Y-64151227D01*
X123135765Y-64127428D01*
X123144030Y-64104329D01*
X123154520Y-64082150D01*
X123167132Y-64061107D01*
X123181747Y-64041401D01*
X123198223Y-64023223D01*
X123216401Y-64006747D01*
X123236107Y-63992132D01*
X123257150Y-63979520D01*
X123279329Y-63969030D01*
X123302428Y-63960765D01*
X123326227Y-63954804D01*
X123350495Y-63951204D01*
X123374999Y-63950000D01*
X124275001Y-63950000D01*
X124299505Y-63951204D01*
X124299505Y-63951204D01*
G37*
D11*
X123825000Y-64525000D03*
G04 #@! TD*
D10*
G04 #@! TO.C,C_PR1*
G36*
X115953905Y-61531204D02*
X115978173Y-61534804D01*
X116001972Y-61540765D01*
X116025071Y-61549030D01*
X116047250Y-61559520D01*
X116068293Y-61572132D01*
X116087999Y-61586747D01*
X116106177Y-61603223D01*
X116122653Y-61621401D01*
X116137268Y-61641107D01*
X116149880Y-61662150D01*
X116160370Y-61684329D01*
X116168635Y-61707428D01*
X116174596Y-61731227D01*
X116178196Y-61755495D01*
X116179400Y-61779999D01*
X116179400Y-62680001D01*
X116178196Y-62704505D01*
X116174596Y-62728773D01*
X116168635Y-62752572D01*
X116160370Y-62775671D01*
X116149880Y-62797850D01*
X116137268Y-62818893D01*
X116122653Y-62838599D01*
X116106177Y-62856777D01*
X116087999Y-62873253D01*
X116068293Y-62887868D01*
X116047250Y-62900480D01*
X116025071Y-62910970D01*
X116001972Y-62919235D01*
X115978173Y-62925196D01*
X115953905Y-62928796D01*
X115929401Y-62930000D01*
X115279399Y-62930000D01*
X115254895Y-62928796D01*
X115230627Y-62925196D01*
X115206828Y-62919235D01*
X115183729Y-62910970D01*
X115161550Y-62900480D01*
X115140507Y-62887868D01*
X115120801Y-62873253D01*
X115102623Y-62856777D01*
X115086147Y-62838599D01*
X115071532Y-62818893D01*
X115058920Y-62797850D01*
X115048430Y-62775671D01*
X115040165Y-62752572D01*
X115034204Y-62728773D01*
X115030604Y-62704505D01*
X115029400Y-62680001D01*
X115029400Y-61779999D01*
X115030604Y-61755495D01*
X115034204Y-61731227D01*
X115040165Y-61707428D01*
X115048430Y-61684329D01*
X115058920Y-61662150D01*
X115071532Y-61641107D01*
X115086147Y-61621401D01*
X115102623Y-61603223D01*
X115120801Y-61586747D01*
X115140507Y-61572132D01*
X115161550Y-61559520D01*
X115183729Y-61549030D01*
X115206828Y-61540765D01*
X115230627Y-61534804D01*
X115254895Y-61531204D01*
X115279399Y-61530000D01*
X115929401Y-61530000D01*
X115953905Y-61531204D01*
X115953905Y-61531204D01*
G37*
D11*
X115604400Y-62230000D03*
D10*
G36*
X113903905Y-61531204D02*
X113928173Y-61534804D01*
X113951972Y-61540765D01*
X113975071Y-61549030D01*
X113997250Y-61559520D01*
X114018293Y-61572132D01*
X114037999Y-61586747D01*
X114056177Y-61603223D01*
X114072653Y-61621401D01*
X114087268Y-61641107D01*
X114099880Y-61662150D01*
X114110370Y-61684329D01*
X114118635Y-61707428D01*
X114124596Y-61731227D01*
X114128196Y-61755495D01*
X114129400Y-61779999D01*
X114129400Y-62680001D01*
X114128196Y-62704505D01*
X114124596Y-62728773D01*
X114118635Y-62752572D01*
X114110370Y-62775671D01*
X114099880Y-62797850D01*
X114087268Y-62818893D01*
X114072653Y-62838599D01*
X114056177Y-62856777D01*
X114037999Y-62873253D01*
X114018293Y-62887868D01*
X113997250Y-62900480D01*
X113975071Y-62910970D01*
X113951972Y-62919235D01*
X113928173Y-62925196D01*
X113903905Y-62928796D01*
X113879401Y-62930000D01*
X113229399Y-62930000D01*
X113204895Y-62928796D01*
X113180627Y-62925196D01*
X113156828Y-62919235D01*
X113133729Y-62910970D01*
X113111550Y-62900480D01*
X113090507Y-62887868D01*
X113070801Y-62873253D01*
X113052623Y-62856777D01*
X113036147Y-62838599D01*
X113021532Y-62818893D01*
X113008920Y-62797850D01*
X112998430Y-62775671D01*
X112990165Y-62752572D01*
X112984204Y-62728773D01*
X112980604Y-62704505D01*
X112979400Y-62680001D01*
X112979400Y-61779999D01*
X112980604Y-61755495D01*
X112984204Y-61731227D01*
X112990165Y-61707428D01*
X112998430Y-61684329D01*
X113008920Y-61662150D01*
X113021532Y-61641107D01*
X113036147Y-61621401D01*
X113052623Y-61603223D01*
X113070801Y-61586747D01*
X113090507Y-61572132D01*
X113111550Y-61559520D01*
X113133729Y-61549030D01*
X113156828Y-61540765D01*
X113180627Y-61534804D01*
X113204895Y-61531204D01*
X113229399Y-61530000D01*
X113879401Y-61530000D01*
X113903905Y-61531204D01*
X113903905Y-61531204D01*
G37*
D11*
X113554400Y-62230000D03*
G04 #@! TD*
D10*
G04 #@! TO.C,C_PR2*
G36*
X119854505Y-70301204D02*
X119878773Y-70304804D01*
X119902572Y-70310765D01*
X119925671Y-70319030D01*
X119947850Y-70329520D01*
X119968893Y-70342132D01*
X119988599Y-70356747D01*
X120006777Y-70373223D01*
X120023253Y-70391401D01*
X120037868Y-70411107D01*
X120050480Y-70432150D01*
X120060970Y-70454329D01*
X120069235Y-70477428D01*
X120075196Y-70501227D01*
X120078796Y-70525495D01*
X120080000Y-70549999D01*
X120080000Y-71200001D01*
X120078796Y-71224505D01*
X120075196Y-71248773D01*
X120069235Y-71272572D01*
X120060970Y-71295671D01*
X120050480Y-71317850D01*
X120037868Y-71338893D01*
X120023253Y-71358599D01*
X120006777Y-71376777D01*
X119988599Y-71393253D01*
X119968893Y-71407868D01*
X119947850Y-71420480D01*
X119925671Y-71430970D01*
X119902572Y-71439235D01*
X119878773Y-71445196D01*
X119854505Y-71448796D01*
X119830001Y-71450000D01*
X118929999Y-71450000D01*
X118905495Y-71448796D01*
X118881227Y-71445196D01*
X118857428Y-71439235D01*
X118834329Y-71430970D01*
X118812150Y-71420480D01*
X118791107Y-71407868D01*
X118771401Y-71393253D01*
X118753223Y-71376777D01*
X118736747Y-71358599D01*
X118722132Y-71338893D01*
X118709520Y-71317850D01*
X118699030Y-71295671D01*
X118690765Y-71272572D01*
X118684804Y-71248773D01*
X118681204Y-71224505D01*
X118680000Y-71200001D01*
X118680000Y-70549999D01*
X118681204Y-70525495D01*
X118684804Y-70501227D01*
X118690765Y-70477428D01*
X118699030Y-70454329D01*
X118709520Y-70432150D01*
X118722132Y-70411107D01*
X118736747Y-70391401D01*
X118753223Y-70373223D01*
X118771401Y-70356747D01*
X118791107Y-70342132D01*
X118812150Y-70329520D01*
X118834329Y-70319030D01*
X118857428Y-70310765D01*
X118881227Y-70304804D01*
X118905495Y-70301204D01*
X118929999Y-70300000D01*
X119830001Y-70300000D01*
X119854505Y-70301204D01*
X119854505Y-70301204D01*
G37*
D11*
X119380000Y-70875000D03*
D10*
G36*
X119854505Y-68251204D02*
X119878773Y-68254804D01*
X119902572Y-68260765D01*
X119925671Y-68269030D01*
X119947850Y-68279520D01*
X119968893Y-68292132D01*
X119988599Y-68306747D01*
X120006777Y-68323223D01*
X120023253Y-68341401D01*
X120037868Y-68361107D01*
X120050480Y-68382150D01*
X120060970Y-68404329D01*
X120069235Y-68427428D01*
X120075196Y-68451227D01*
X120078796Y-68475495D01*
X120080000Y-68499999D01*
X120080000Y-69150001D01*
X120078796Y-69174505D01*
X120075196Y-69198773D01*
X120069235Y-69222572D01*
X120060970Y-69245671D01*
X120050480Y-69267850D01*
X120037868Y-69288893D01*
X120023253Y-69308599D01*
X120006777Y-69326777D01*
X119988599Y-69343253D01*
X119968893Y-69357868D01*
X119947850Y-69370480D01*
X119925671Y-69380970D01*
X119902572Y-69389235D01*
X119878773Y-69395196D01*
X119854505Y-69398796D01*
X119830001Y-69400000D01*
X118929999Y-69400000D01*
X118905495Y-69398796D01*
X118881227Y-69395196D01*
X118857428Y-69389235D01*
X118834329Y-69380970D01*
X118812150Y-69370480D01*
X118791107Y-69357868D01*
X118771401Y-69343253D01*
X118753223Y-69326777D01*
X118736747Y-69308599D01*
X118722132Y-69288893D01*
X118709520Y-69267850D01*
X118699030Y-69245671D01*
X118690765Y-69222572D01*
X118684804Y-69198773D01*
X118681204Y-69174505D01*
X118680000Y-69150001D01*
X118680000Y-68499999D01*
X118681204Y-68475495D01*
X118684804Y-68451227D01*
X118690765Y-68427428D01*
X118699030Y-68404329D01*
X118709520Y-68382150D01*
X118722132Y-68361107D01*
X118736747Y-68341401D01*
X118753223Y-68323223D01*
X118771401Y-68306747D01*
X118791107Y-68292132D01*
X118812150Y-68279520D01*
X118834329Y-68269030D01*
X118857428Y-68260765D01*
X118881227Y-68254804D01*
X118905495Y-68251204D01*
X118929999Y-68250000D01*
X119830001Y-68250000D01*
X119854505Y-68251204D01*
X119854505Y-68251204D01*
G37*
D11*
X119380000Y-68825000D03*
G04 #@! TD*
M02*
