G04 #@! TF.GenerationSoftware,KiCad,Pcbnew,(5.0.0-3-g5ebb6b6)*
G04 #@! TF.CreationDate,2019-03-02T11:42:57+00:00*
G04 #@! TF.ProjectId,WsonBagelBoard,57736F6E426167656C426F6172642E6B,rev?*
G04 #@! TF.SameCoordinates,Original*
G04 #@! TF.FileFunction,Paste,Top*
G04 #@! TF.FilePolarity,Positive*
%FSLAX46Y46*%
G04 Gerber Fmt 4.6, Leading zero omitted, Abs format (unit mm)*
G04 Created by KiCad (PCBNEW (5.0.0-3-g5ebb6b6)) date Saturday, 02 March 2019 at 11:42:57*
%MOMM*%
%LPD*%
G01*
G04 APERTURE LIST*
%ADD10R,1.250000X0.760000*%
%ADD11R,3.800000X2.000000*%
%ADD12R,1.500000X2.000000*%
%ADD13R,0.250000X0.500000*%
%ADD14R,0.800000X0.950000*%
%ADD15C,0.100000*%
%ADD16C,0.590000*%
%ADD17R,0.450000X0.600000*%
G04 APERTURE END LIST*
D10*
G04 #@! TO.C,SWEN1*
X111923500Y-57594500D03*
X118073500Y-58864500D03*
X111923500Y-58864500D03*
X118073500Y-57594500D03*
G04 #@! TD*
D11*
G04 #@! TO.C,U1*
X104648000Y-58318000D03*
D12*
X104648000Y-64618000D03*
X106948000Y-64618000D03*
X102348000Y-64618000D03*
G04 #@! TD*
D13*
G04 #@! TO.C,U2*
X114256500Y-66418500D03*
X114756500Y-66418500D03*
X115256500Y-66418500D03*
X115756500Y-66418500D03*
X116256500Y-66418500D03*
X116756500Y-66418500D03*
X116756500Y-64518500D03*
X116256500Y-64518500D03*
X115756500Y-64518500D03*
X115256500Y-64518500D03*
X114756500Y-64518500D03*
X114256500Y-64518500D03*
D14*
X115006500Y-65468500D03*
X116006500Y-65468500D03*
G04 #@! TD*
D15*
G04 #@! TO.C,C1*
G36*
X116445558Y-62621910D02*
X116459876Y-62624034D01*
X116473917Y-62627551D01*
X116487546Y-62632428D01*
X116500631Y-62638617D01*
X116513047Y-62646058D01*
X116524673Y-62654681D01*
X116535398Y-62664402D01*
X116545119Y-62675127D01*
X116553742Y-62686753D01*
X116561183Y-62699169D01*
X116567372Y-62712254D01*
X116572249Y-62725883D01*
X116575766Y-62739924D01*
X116577890Y-62754242D01*
X116578600Y-62768700D01*
X116578600Y-63113700D01*
X116577890Y-63128158D01*
X116575766Y-63142476D01*
X116572249Y-63156517D01*
X116567372Y-63170146D01*
X116561183Y-63183231D01*
X116553742Y-63195647D01*
X116545119Y-63207273D01*
X116535398Y-63217998D01*
X116524673Y-63227719D01*
X116513047Y-63236342D01*
X116500631Y-63243783D01*
X116487546Y-63249972D01*
X116473917Y-63254849D01*
X116459876Y-63258366D01*
X116445558Y-63260490D01*
X116431100Y-63261200D01*
X116136100Y-63261200D01*
X116121642Y-63260490D01*
X116107324Y-63258366D01*
X116093283Y-63254849D01*
X116079654Y-63249972D01*
X116066569Y-63243783D01*
X116054153Y-63236342D01*
X116042527Y-63227719D01*
X116031802Y-63217998D01*
X116022081Y-63207273D01*
X116013458Y-63195647D01*
X116006017Y-63183231D01*
X115999828Y-63170146D01*
X115994951Y-63156517D01*
X115991434Y-63142476D01*
X115989310Y-63128158D01*
X115988600Y-63113700D01*
X115988600Y-62768700D01*
X115989310Y-62754242D01*
X115991434Y-62739924D01*
X115994951Y-62725883D01*
X115999828Y-62712254D01*
X116006017Y-62699169D01*
X116013458Y-62686753D01*
X116022081Y-62675127D01*
X116031802Y-62664402D01*
X116042527Y-62654681D01*
X116054153Y-62646058D01*
X116066569Y-62638617D01*
X116079654Y-62632428D01*
X116093283Y-62627551D01*
X116107324Y-62624034D01*
X116121642Y-62621910D01*
X116136100Y-62621200D01*
X116431100Y-62621200D01*
X116445558Y-62621910D01*
X116445558Y-62621910D01*
G37*
D16*
X116283600Y-62941200D03*
D15*
G36*
X115475558Y-62621910D02*
X115489876Y-62624034D01*
X115503917Y-62627551D01*
X115517546Y-62632428D01*
X115530631Y-62638617D01*
X115543047Y-62646058D01*
X115554673Y-62654681D01*
X115565398Y-62664402D01*
X115575119Y-62675127D01*
X115583742Y-62686753D01*
X115591183Y-62699169D01*
X115597372Y-62712254D01*
X115602249Y-62725883D01*
X115605766Y-62739924D01*
X115607890Y-62754242D01*
X115608600Y-62768700D01*
X115608600Y-63113700D01*
X115607890Y-63128158D01*
X115605766Y-63142476D01*
X115602249Y-63156517D01*
X115597372Y-63170146D01*
X115591183Y-63183231D01*
X115583742Y-63195647D01*
X115575119Y-63207273D01*
X115565398Y-63217998D01*
X115554673Y-63227719D01*
X115543047Y-63236342D01*
X115530631Y-63243783D01*
X115517546Y-63249972D01*
X115503917Y-63254849D01*
X115489876Y-63258366D01*
X115475558Y-63260490D01*
X115461100Y-63261200D01*
X115166100Y-63261200D01*
X115151642Y-63260490D01*
X115137324Y-63258366D01*
X115123283Y-63254849D01*
X115109654Y-63249972D01*
X115096569Y-63243783D01*
X115084153Y-63236342D01*
X115072527Y-63227719D01*
X115061802Y-63217998D01*
X115052081Y-63207273D01*
X115043458Y-63195647D01*
X115036017Y-63183231D01*
X115029828Y-63170146D01*
X115024951Y-63156517D01*
X115021434Y-63142476D01*
X115019310Y-63128158D01*
X115018600Y-63113700D01*
X115018600Y-62768700D01*
X115019310Y-62754242D01*
X115021434Y-62739924D01*
X115024951Y-62725883D01*
X115029828Y-62712254D01*
X115036017Y-62699169D01*
X115043458Y-62686753D01*
X115052081Y-62675127D01*
X115061802Y-62664402D01*
X115072527Y-62654681D01*
X115084153Y-62646058D01*
X115096569Y-62638617D01*
X115109654Y-62632428D01*
X115123283Y-62627551D01*
X115137324Y-62624034D01*
X115151642Y-62621910D01*
X115166100Y-62621200D01*
X115461100Y-62621200D01*
X115475558Y-62621910D01*
X115475558Y-62621910D01*
G37*
D16*
X115313600Y-62941200D03*
G04 #@! TD*
D15*
G04 #@! TO.C,CINV1*
G36*
X114929458Y-68133710D02*
X114943776Y-68135834D01*
X114957817Y-68139351D01*
X114971446Y-68144228D01*
X114984531Y-68150417D01*
X114996947Y-68157858D01*
X115008573Y-68166481D01*
X115019298Y-68176202D01*
X115029019Y-68186927D01*
X115037642Y-68198553D01*
X115045083Y-68210969D01*
X115051272Y-68224054D01*
X115056149Y-68237683D01*
X115059666Y-68251724D01*
X115061790Y-68266042D01*
X115062500Y-68280500D01*
X115062500Y-68625500D01*
X115061790Y-68639958D01*
X115059666Y-68654276D01*
X115056149Y-68668317D01*
X115051272Y-68681946D01*
X115045083Y-68695031D01*
X115037642Y-68707447D01*
X115029019Y-68719073D01*
X115019298Y-68729798D01*
X115008573Y-68739519D01*
X114996947Y-68748142D01*
X114984531Y-68755583D01*
X114971446Y-68761772D01*
X114957817Y-68766649D01*
X114943776Y-68770166D01*
X114929458Y-68772290D01*
X114915000Y-68773000D01*
X114620000Y-68773000D01*
X114605542Y-68772290D01*
X114591224Y-68770166D01*
X114577183Y-68766649D01*
X114563554Y-68761772D01*
X114550469Y-68755583D01*
X114538053Y-68748142D01*
X114526427Y-68739519D01*
X114515702Y-68729798D01*
X114505981Y-68719073D01*
X114497358Y-68707447D01*
X114489917Y-68695031D01*
X114483728Y-68681946D01*
X114478851Y-68668317D01*
X114475334Y-68654276D01*
X114473210Y-68639958D01*
X114472500Y-68625500D01*
X114472500Y-68280500D01*
X114473210Y-68266042D01*
X114475334Y-68251724D01*
X114478851Y-68237683D01*
X114483728Y-68224054D01*
X114489917Y-68210969D01*
X114497358Y-68198553D01*
X114505981Y-68186927D01*
X114515702Y-68176202D01*
X114526427Y-68166481D01*
X114538053Y-68157858D01*
X114550469Y-68150417D01*
X114563554Y-68144228D01*
X114577183Y-68139351D01*
X114591224Y-68135834D01*
X114605542Y-68133710D01*
X114620000Y-68133000D01*
X114915000Y-68133000D01*
X114929458Y-68133710D01*
X114929458Y-68133710D01*
G37*
D16*
X114767500Y-68453000D03*
D15*
G36*
X115899458Y-68133710D02*
X115913776Y-68135834D01*
X115927817Y-68139351D01*
X115941446Y-68144228D01*
X115954531Y-68150417D01*
X115966947Y-68157858D01*
X115978573Y-68166481D01*
X115989298Y-68176202D01*
X115999019Y-68186927D01*
X116007642Y-68198553D01*
X116015083Y-68210969D01*
X116021272Y-68224054D01*
X116026149Y-68237683D01*
X116029666Y-68251724D01*
X116031790Y-68266042D01*
X116032500Y-68280500D01*
X116032500Y-68625500D01*
X116031790Y-68639958D01*
X116029666Y-68654276D01*
X116026149Y-68668317D01*
X116021272Y-68681946D01*
X116015083Y-68695031D01*
X116007642Y-68707447D01*
X115999019Y-68719073D01*
X115989298Y-68729798D01*
X115978573Y-68739519D01*
X115966947Y-68748142D01*
X115954531Y-68755583D01*
X115941446Y-68761772D01*
X115927817Y-68766649D01*
X115913776Y-68770166D01*
X115899458Y-68772290D01*
X115885000Y-68773000D01*
X115590000Y-68773000D01*
X115575542Y-68772290D01*
X115561224Y-68770166D01*
X115547183Y-68766649D01*
X115533554Y-68761772D01*
X115520469Y-68755583D01*
X115508053Y-68748142D01*
X115496427Y-68739519D01*
X115485702Y-68729798D01*
X115475981Y-68719073D01*
X115467358Y-68707447D01*
X115459917Y-68695031D01*
X115453728Y-68681946D01*
X115448851Y-68668317D01*
X115445334Y-68654276D01*
X115443210Y-68639958D01*
X115442500Y-68625500D01*
X115442500Y-68280500D01*
X115443210Y-68266042D01*
X115445334Y-68251724D01*
X115448851Y-68237683D01*
X115453728Y-68224054D01*
X115459917Y-68210969D01*
X115467358Y-68198553D01*
X115475981Y-68186927D01*
X115485702Y-68176202D01*
X115496427Y-68166481D01*
X115508053Y-68157858D01*
X115520469Y-68150417D01*
X115533554Y-68144228D01*
X115547183Y-68139351D01*
X115561224Y-68135834D01*
X115575542Y-68133710D01*
X115590000Y-68133000D01*
X115885000Y-68133000D01*
X115899458Y-68133710D01*
X115899458Y-68133710D01*
G37*
D16*
X115737500Y-68453000D03*
G04 #@! TD*
D15*
G04 #@! TO.C,CP1*
G36*
X117088458Y-68133710D02*
X117102776Y-68135834D01*
X117116817Y-68139351D01*
X117130446Y-68144228D01*
X117143531Y-68150417D01*
X117155947Y-68157858D01*
X117167573Y-68166481D01*
X117178298Y-68176202D01*
X117188019Y-68186927D01*
X117196642Y-68198553D01*
X117204083Y-68210969D01*
X117210272Y-68224054D01*
X117215149Y-68237683D01*
X117218666Y-68251724D01*
X117220790Y-68266042D01*
X117221500Y-68280500D01*
X117221500Y-68625500D01*
X117220790Y-68639958D01*
X117218666Y-68654276D01*
X117215149Y-68668317D01*
X117210272Y-68681946D01*
X117204083Y-68695031D01*
X117196642Y-68707447D01*
X117188019Y-68719073D01*
X117178298Y-68729798D01*
X117167573Y-68739519D01*
X117155947Y-68748142D01*
X117143531Y-68755583D01*
X117130446Y-68761772D01*
X117116817Y-68766649D01*
X117102776Y-68770166D01*
X117088458Y-68772290D01*
X117074000Y-68773000D01*
X116779000Y-68773000D01*
X116764542Y-68772290D01*
X116750224Y-68770166D01*
X116736183Y-68766649D01*
X116722554Y-68761772D01*
X116709469Y-68755583D01*
X116697053Y-68748142D01*
X116685427Y-68739519D01*
X116674702Y-68729798D01*
X116664981Y-68719073D01*
X116656358Y-68707447D01*
X116648917Y-68695031D01*
X116642728Y-68681946D01*
X116637851Y-68668317D01*
X116634334Y-68654276D01*
X116632210Y-68639958D01*
X116631500Y-68625500D01*
X116631500Y-68280500D01*
X116632210Y-68266042D01*
X116634334Y-68251724D01*
X116637851Y-68237683D01*
X116642728Y-68224054D01*
X116648917Y-68210969D01*
X116656358Y-68198553D01*
X116664981Y-68186927D01*
X116674702Y-68176202D01*
X116685427Y-68166481D01*
X116697053Y-68157858D01*
X116709469Y-68150417D01*
X116722554Y-68144228D01*
X116736183Y-68139351D01*
X116750224Y-68135834D01*
X116764542Y-68133710D01*
X116779000Y-68133000D01*
X117074000Y-68133000D01*
X117088458Y-68133710D01*
X117088458Y-68133710D01*
G37*
D16*
X116926500Y-68453000D03*
D15*
G36*
X118058458Y-68133710D02*
X118072776Y-68135834D01*
X118086817Y-68139351D01*
X118100446Y-68144228D01*
X118113531Y-68150417D01*
X118125947Y-68157858D01*
X118137573Y-68166481D01*
X118148298Y-68176202D01*
X118158019Y-68186927D01*
X118166642Y-68198553D01*
X118174083Y-68210969D01*
X118180272Y-68224054D01*
X118185149Y-68237683D01*
X118188666Y-68251724D01*
X118190790Y-68266042D01*
X118191500Y-68280500D01*
X118191500Y-68625500D01*
X118190790Y-68639958D01*
X118188666Y-68654276D01*
X118185149Y-68668317D01*
X118180272Y-68681946D01*
X118174083Y-68695031D01*
X118166642Y-68707447D01*
X118158019Y-68719073D01*
X118148298Y-68729798D01*
X118137573Y-68739519D01*
X118125947Y-68748142D01*
X118113531Y-68755583D01*
X118100446Y-68761772D01*
X118086817Y-68766649D01*
X118072776Y-68770166D01*
X118058458Y-68772290D01*
X118044000Y-68773000D01*
X117749000Y-68773000D01*
X117734542Y-68772290D01*
X117720224Y-68770166D01*
X117706183Y-68766649D01*
X117692554Y-68761772D01*
X117679469Y-68755583D01*
X117667053Y-68748142D01*
X117655427Y-68739519D01*
X117644702Y-68729798D01*
X117634981Y-68719073D01*
X117626358Y-68707447D01*
X117618917Y-68695031D01*
X117612728Y-68681946D01*
X117607851Y-68668317D01*
X117604334Y-68654276D01*
X117602210Y-68639958D01*
X117601500Y-68625500D01*
X117601500Y-68280500D01*
X117602210Y-68266042D01*
X117604334Y-68251724D01*
X117607851Y-68237683D01*
X117612728Y-68224054D01*
X117618917Y-68210969D01*
X117626358Y-68198553D01*
X117634981Y-68186927D01*
X117644702Y-68176202D01*
X117655427Y-68166481D01*
X117667053Y-68157858D01*
X117679469Y-68150417D01*
X117692554Y-68144228D01*
X117706183Y-68139351D01*
X117720224Y-68135834D01*
X117734542Y-68133710D01*
X117749000Y-68133000D01*
X118044000Y-68133000D01*
X118058458Y-68133710D01*
X118058458Y-68133710D01*
G37*
D16*
X117896500Y-68453000D03*
G04 #@! TD*
D15*
G04 #@! TO.C,CR1*
G36*
X103516958Y-68133710D02*
X103531276Y-68135834D01*
X103545317Y-68139351D01*
X103558946Y-68144228D01*
X103572031Y-68150417D01*
X103584447Y-68157858D01*
X103596073Y-68166481D01*
X103606798Y-68176202D01*
X103616519Y-68186927D01*
X103625142Y-68198553D01*
X103632583Y-68210969D01*
X103638772Y-68224054D01*
X103643649Y-68237683D01*
X103647166Y-68251724D01*
X103649290Y-68266042D01*
X103650000Y-68280500D01*
X103650000Y-68625500D01*
X103649290Y-68639958D01*
X103647166Y-68654276D01*
X103643649Y-68668317D01*
X103638772Y-68681946D01*
X103632583Y-68695031D01*
X103625142Y-68707447D01*
X103616519Y-68719073D01*
X103606798Y-68729798D01*
X103596073Y-68739519D01*
X103584447Y-68748142D01*
X103572031Y-68755583D01*
X103558946Y-68761772D01*
X103545317Y-68766649D01*
X103531276Y-68770166D01*
X103516958Y-68772290D01*
X103502500Y-68773000D01*
X103207500Y-68773000D01*
X103193042Y-68772290D01*
X103178724Y-68770166D01*
X103164683Y-68766649D01*
X103151054Y-68761772D01*
X103137969Y-68755583D01*
X103125553Y-68748142D01*
X103113927Y-68739519D01*
X103103202Y-68729798D01*
X103093481Y-68719073D01*
X103084858Y-68707447D01*
X103077417Y-68695031D01*
X103071228Y-68681946D01*
X103066351Y-68668317D01*
X103062834Y-68654276D01*
X103060710Y-68639958D01*
X103060000Y-68625500D01*
X103060000Y-68280500D01*
X103060710Y-68266042D01*
X103062834Y-68251724D01*
X103066351Y-68237683D01*
X103071228Y-68224054D01*
X103077417Y-68210969D01*
X103084858Y-68198553D01*
X103093481Y-68186927D01*
X103103202Y-68176202D01*
X103113927Y-68166481D01*
X103125553Y-68157858D01*
X103137969Y-68150417D01*
X103151054Y-68144228D01*
X103164683Y-68139351D01*
X103178724Y-68135834D01*
X103193042Y-68133710D01*
X103207500Y-68133000D01*
X103502500Y-68133000D01*
X103516958Y-68133710D01*
X103516958Y-68133710D01*
G37*
D16*
X103355000Y-68453000D03*
D15*
G36*
X102546958Y-68133710D02*
X102561276Y-68135834D01*
X102575317Y-68139351D01*
X102588946Y-68144228D01*
X102602031Y-68150417D01*
X102614447Y-68157858D01*
X102626073Y-68166481D01*
X102636798Y-68176202D01*
X102646519Y-68186927D01*
X102655142Y-68198553D01*
X102662583Y-68210969D01*
X102668772Y-68224054D01*
X102673649Y-68237683D01*
X102677166Y-68251724D01*
X102679290Y-68266042D01*
X102680000Y-68280500D01*
X102680000Y-68625500D01*
X102679290Y-68639958D01*
X102677166Y-68654276D01*
X102673649Y-68668317D01*
X102668772Y-68681946D01*
X102662583Y-68695031D01*
X102655142Y-68707447D01*
X102646519Y-68719073D01*
X102636798Y-68729798D01*
X102626073Y-68739519D01*
X102614447Y-68748142D01*
X102602031Y-68755583D01*
X102588946Y-68761772D01*
X102575317Y-68766649D01*
X102561276Y-68770166D01*
X102546958Y-68772290D01*
X102532500Y-68773000D01*
X102237500Y-68773000D01*
X102223042Y-68772290D01*
X102208724Y-68770166D01*
X102194683Y-68766649D01*
X102181054Y-68761772D01*
X102167969Y-68755583D01*
X102155553Y-68748142D01*
X102143927Y-68739519D01*
X102133202Y-68729798D01*
X102123481Y-68719073D01*
X102114858Y-68707447D01*
X102107417Y-68695031D01*
X102101228Y-68681946D01*
X102096351Y-68668317D01*
X102092834Y-68654276D01*
X102090710Y-68639958D01*
X102090000Y-68625500D01*
X102090000Y-68280500D01*
X102090710Y-68266042D01*
X102092834Y-68251724D01*
X102096351Y-68237683D01*
X102101228Y-68224054D01*
X102107417Y-68210969D01*
X102114858Y-68198553D01*
X102123481Y-68186927D01*
X102133202Y-68176202D01*
X102143927Y-68166481D01*
X102155553Y-68157858D01*
X102167969Y-68150417D01*
X102181054Y-68144228D01*
X102194683Y-68139351D01*
X102208724Y-68135834D01*
X102223042Y-68133710D01*
X102237500Y-68133000D01*
X102532500Y-68133000D01*
X102546958Y-68133710D01*
X102546958Y-68133710D01*
G37*
D16*
X102385000Y-68453000D03*
G04 #@! TD*
D15*
G04 #@! TO.C,CR2*
G36*
X107136458Y-68133710D02*
X107150776Y-68135834D01*
X107164817Y-68139351D01*
X107178446Y-68144228D01*
X107191531Y-68150417D01*
X107203947Y-68157858D01*
X107215573Y-68166481D01*
X107226298Y-68176202D01*
X107236019Y-68186927D01*
X107244642Y-68198553D01*
X107252083Y-68210969D01*
X107258272Y-68224054D01*
X107263149Y-68237683D01*
X107266666Y-68251724D01*
X107268790Y-68266042D01*
X107269500Y-68280500D01*
X107269500Y-68625500D01*
X107268790Y-68639958D01*
X107266666Y-68654276D01*
X107263149Y-68668317D01*
X107258272Y-68681946D01*
X107252083Y-68695031D01*
X107244642Y-68707447D01*
X107236019Y-68719073D01*
X107226298Y-68729798D01*
X107215573Y-68739519D01*
X107203947Y-68748142D01*
X107191531Y-68755583D01*
X107178446Y-68761772D01*
X107164817Y-68766649D01*
X107150776Y-68770166D01*
X107136458Y-68772290D01*
X107122000Y-68773000D01*
X106827000Y-68773000D01*
X106812542Y-68772290D01*
X106798224Y-68770166D01*
X106784183Y-68766649D01*
X106770554Y-68761772D01*
X106757469Y-68755583D01*
X106745053Y-68748142D01*
X106733427Y-68739519D01*
X106722702Y-68729798D01*
X106712981Y-68719073D01*
X106704358Y-68707447D01*
X106696917Y-68695031D01*
X106690728Y-68681946D01*
X106685851Y-68668317D01*
X106682334Y-68654276D01*
X106680210Y-68639958D01*
X106679500Y-68625500D01*
X106679500Y-68280500D01*
X106680210Y-68266042D01*
X106682334Y-68251724D01*
X106685851Y-68237683D01*
X106690728Y-68224054D01*
X106696917Y-68210969D01*
X106704358Y-68198553D01*
X106712981Y-68186927D01*
X106722702Y-68176202D01*
X106733427Y-68166481D01*
X106745053Y-68157858D01*
X106757469Y-68150417D01*
X106770554Y-68144228D01*
X106784183Y-68139351D01*
X106798224Y-68135834D01*
X106812542Y-68133710D01*
X106827000Y-68133000D01*
X107122000Y-68133000D01*
X107136458Y-68133710D01*
X107136458Y-68133710D01*
G37*
D16*
X106974500Y-68453000D03*
D15*
G36*
X106166458Y-68133710D02*
X106180776Y-68135834D01*
X106194817Y-68139351D01*
X106208446Y-68144228D01*
X106221531Y-68150417D01*
X106233947Y-68157858D01*
X106245573Y-68166481D01*
X106256298Y-68176202D01*
X106266019Y-68186927D01*
X106274642Y-68198553D01*
X106282083Y-68210969D01*
X106288272Y-68224054D01*
X106293149Y-68237683D01*
X106296666Y-68251724D01*
X106298790Y-68266042D01*
X106299500Y-68280500D01*
X106299500Y-68625500D01*
X106298790Y-68639958D01*
X106296666Y-68654276D01*
X106293149Y-68668317D01*
X106288272Y-68681946D01*
X106282083Y-68695031D01*
X106274642Y-68707447D01*
X106266019Y-68719073D01*
X106256298Y-68729798D01*
X106245573Y-68739519D01*
X106233947Y-68748142D01*
X106221531Y-68755583D01*
X106208446Y-68761772D01*
X106194817Y-68766649D01*
X106180776Y-68770166D01*
X106166458Y-68772290D01*
X106152000Y-68773000D01*
X105857000Y-68773000D01*
X105842542Y-68772290D01*
X105828224Y-68770166D01*
X105814183Y-68766649D01*
X105800554Y-68761772D01*
X105787469Y-68755583D01*
X105775053Y-68748142D01*
X105763427Y-68739519D01*
X105752702Y-68729798D01*
X105742981Y-68719073D01*
X105734358Y-68707447D01*
X105726917Y-68695031D01*
X105720728Y-68681946D01*
X105715851Y-68668317D01*
X105712334Y-68654276D01*
X105710210Y-68639958D01*
X105709500Y-68625500D01*
X105709500Y-68280500D01*
X105710210Y-68266042D01*
X105712334Y-68251724D01*
X105715851Y-68237683D01*
X105720728Y-68224054D01*
X105726917Y-68210969D01*
X105734358Y-68198553D01*
X105742981Y-68186927D01*
X105752702Y-68176202D01*
X105763427Y-68166481D01*
X105775053Y-68157858D01*
X105787469Y-68150417D01*
X105800554Y-68144228D01*
X105814183Y-68139351D01*
X105828224Y-68135834D01*
X105842542Y-68133710D01*
X105857000Y-68133000D01*
X106152000Y-68133000D01*
X106166458Y-68133710D01*
X106166458Y-68133710D01*
G37*
D16*
X106004500Y-68453000D03*
G04 #@! TD*
D15*
G04 #@! TO.C,DOK1*
G36*
X110438458Y-66203310D02*
X110452776Y-66205434D01*
X110466817Y-66208951D01*
X110480446Y-66213828D01*
X110493531Y-66220017D01*
X110505947Y-66227458D01*
X110517573Y-66236081D01*
X110528298Y-66245802D01*
X110538019Y-66256527D01*
X110546642Y-66268153D01*
X110554083Y-66280569D01*
X110560272Y-66293654D01*
X110565149Y-66307283D01*
X110568666Y-66321324D01*
X110570790Y-66335642D01*
X110571500Y-66350100D01*
X110571500Y-66695100D01*
X110570790Y-66709558D01*
X110568666Y-66723876D01*
X110565149Y-66737917D01*
X110560272Y-66751546D01*
X110554083Y-66764631D01*
X110546642Y-66777047D01*
X110538019Y-66788673D01*
X110528298Y-66799398D01*
X110517573Y-66809119D01*
X110505947Y-66817742D01*
X110493531Y-66825183D01*
X110480446Y-66831372D01*
X110466817Y-66836249D01*
X110452776Y-66839766D01*
X110438458Y-66841890D01*
X110424000Y-66842600D01*
X110129000Y-66842600D01*
X110114542Y-66841890D01*
X110100224Y-66839766D01*
X110086183Y-66836249D01*
X110072554Y-66831372D01*
X110059469Y-66825183D01*
X110047053Y-66817742D01*
X110035427Y-66809119D01*
X110024702Y-66799398D01*
X110014981Y-66788673D01*
X110006358Y-66777047D01*
X109998917Y-66764631D01*
X109992728Y-66751546D01*
X109987851Y-66737917D01*
X109984334Y-66723876D01*
X109982210Y-66709558D01*
X109981500Y-66695100D01*
X109981500Y-66350100D01*
X109982210Y-66335642D01*
X109984334Y-66321324D01*
X109987851Y-66307283D01*
X109992728Y-66293654D01*
X109998917Y-66280569D01*
X110006358Y-66268153D01*
X110014981Y-66256527D01*
X110024702Y-66245802D01*
X110035427Y-66236081D01*
X110047053Y-66227458D01*
X110059469Y-66220017D01*
X110072554Y-66213828D01*
X110086183Y-66208951D01*
X110100224Y-66205434D01*
X110114542Y-66203310D01*
X110129000Y-66202600D01*
X110424000Y-66202600D01*
X110438458Y-66203310D01*
X110438458Y-66203310D01*
G37*
D16*
X110276500Y-66522600D03*
D15*
G36*
X109468458Y-66203310D02*
X109482776Y-66205434D01*
X109496817Y-66208951D01*
X109510446Y-66213828D01*
X109523531Y-66220017D01*
X109535947Y-66227458D01*
X109547573Y-66236081D01*
X109558298Y-66245802D01*
X109568019Y-66256527D01*
X109576642Y-66268153D01*
X109584083Y-66280569D01*
X109590272Y-66293654D01*
X109595149Y-66307283D01*
X109598666Y-66321324D01*
X109600790Y-66335642D01*
X109601500Y-66350100D01*
X109601500Y-66695100D01*
X109600790Y-66709558D01*
X109598666Y-66723876D01*
X109595149Y-66737917D01*
X109590272Y-66751546D01*
X109584083Y-66764631D01*
X109576642Y-66777047D01*
X109568019Y-66788673D01*
X109558298Y-66799398D01*
X109547573Y-66809119D01*
X109535947Y-66817742D01*
X109523531Y-66825183D01*
X109510446Y-66831372D01*
X109496817Y-66836249D01*
X109482776Y-66839766D01*
X109468458Y-66841890D01*
X109454000Y-66842600D01*
X109159000Y-66842600D01*
X109144542Y-66841890D01*
X109130224Y-66839766D01*
X109116183Y-66836249D01*
X109102554Y-66831372D01*
X109089469Y-66825183D01*
X109077053Y-66817742D01*
X109065427Y-66809119D01*
X109054702Y-66799398D01*
X109044981Y-66788673D01*
X109036358Y-66777047D01*
X109028917Y-66764631D01*
X109022728Y-66751546D01*
X109017851Y-66737917D01*
X109014334Y-66723876D01*
X109012210Y-66709558D01*
X109011500Y-66695100D01*
X109011500Y-66350100D01*
X109012210Y-66335642D01*
X109014334Y-66321324D01*
X109017851Y-66307283D01*
X109022728Y-66293654D01*
X109028917Y-66280569D01*
X109036358Y-66268153D01*
X109044981Y-66256527D01*
X109054702Y-66245802D01*
X109065427Y-66236081D01*
X109077053Y-66227458D01*
X109089469Y-66220017D01*
X109102554Y-66213828D01*
X109116183Y-66208951D01*
X109130224Y-66205434D01*
X109144542Y-66203310D01*
X109159000Y-66202600D01*
X109454000Y-66202600D01*
X109468458Y-66203310D01*
X109468458Y-66203310D01*
G37*
D16*
X109306500Y-66522600D03*
G04 #@! TD*
D15*
G04 #@! TO.C,R1*
G36*
X111581458Y-61275710D02*
X111595776Y-61277834D01*
X111609817Y-61281351D01*
X111623446Y-61286228D01*
X111636531Y-61292417D01*
X111648947Y-61299858D01*
X111660573Y-61308481D01*
X111671298Y-61318202D01*
X111681019Y-61328927D01*
X111689642Y-61340553D01*
X111697083Y-61352969D01*
X111703272Y-61366054D01*
X111708149Y-61379683D01*
X111711666Y-61393724D01*
X111713790Y-61408042D01*
X111714500Y-61422500D01*
X111714500Y-61767500D01*
X111713790Y-61781958D01*
X111711666Y-61796276D01*
X111708149Y-61810317D01*
X111703272Y-61823946D01*
X111697083Y-61837031D01*
X111689642Y-61849447D01*
X111681019Y-61861073D01*
X111671298Y-61871798D01*
X111660573Y-61881519D01*
X111648947Y-61890142D01*
X111636531Y-61897583D01*
X111623446Y-61903772D01*
X111609817Y-61908649D01*
X111595776Y-61912166D01*
X111581458Y-61914290D01*
X111567000Y-61915000D01*
X111272000Y-61915000D01*
X111257542Y-61914290D01*
X111243224Y-61912166D01*
X111229183Y-61908649D01*
X111215554Y-61903772D01*
X111202469Y-61897583D01*
X111190053Y-61890142D01*
X111178427Y-61881519D01*
X111167702Y-61871798D01*
X111157981Y-61861073D01*
X111149358Y-61849447D01*
X111141917Y-61837031D01*
X111135728Y-61823946D01*
X111130851Y-61810317D01*
X111127334Y-61796276D01*
X111125210Y-61781958D01*
X111124500Y-61767500D01*
X111124500Y-61422500D01*
X111125210Y-61408042D01*
X111127334Y-61393724D01*
X111130851Y-61379683D01*
X111135728Y-61366054D01*
X111141917Y-61352969D01*
X111149358Y-61340553D01*
X111157981Y-61328927D01*
X111167702Y-61318202D01*
X111178427Y-61308481D01*
X111190053Y-61299858D01*
X111202469Y-61292417D01*
X111215554Y-61286228D01*
X111229183Y-61281351D01*
X111243224Y-61277834D01*
X111257542Y-61275710D01*
X111272000Y-61275000D01*
X111567000Y-61275000D01*
X111581458Y-61275710D01*
X111581458Y-61275710D01*
G37*
D16*
X111419500Y-61595000D03*
D15*
G36*
X110611458Y-61275710D02*
X110625776Y-61277834D01*
X110639817Y-61281351D01*
X110653446Y-61286228D01*
X110666531Y-61292417D01*
X110678947Y-61299858D01*
X110690573Y-61308481D01*
X110701298Y-61318202D01*
X110711019Y-61328927D01*
X110719642Y-61340553D01*
X110727083Y-61352969D01*
X110733272Y-61366054D01*
X110738149Y-61379683D01*
X110741666Y-61393724D01*
X110743790Y-61408042D01*
X110744500Y-61422500D01*
X110744500Y-61767500D01*
X110743790Y-61781958D01*
X110741666Y-61796276D01*
X110738149Y-61810317D01*
X110733272Y-61823946D01*
X110727083Y-61837031D01*
X110719642Y-61849447D01*
X110711019Y-61861073D01*
X110701298Y-61871798D01*
X110690573Y-61881519D01*
X110678947Y-61890142D01*
X110666531Y-61897583D01*
X110653446Y-61903772D01*
X110639817Y-61908649D01*
X110625776Y-61912166D01*
X110611458Y-61914290D01*
X110597000Y-61915000D01*
X110302000Y-61915000D01*
X110287542Y-61914290D01*
X110273224Y-61912166D01*
X110259183Y-61908649D01*
X110245554Y-61903772D01*
X110232469Y-61897583D01*
X110220053Y-61890142D01*
X110208427Y-61881519D01*
X110197702Y-61871798D01*
X110187981Y-61861073D01*
X110179358Y-61849447D01*
X110171917Y-61837031D01*
X110165728Y-61823946D01*
X110160851Y-61810317D01*
X110157334Y-61796276D01*
X110155210Y-61781958D01*
X110154500Y-61767500D01*
X110154500Y-61422500D01*
X110155210Y-61408042D01*
X110157334Y-61393724D01*
X110160851Y-61379683D01*
X110165728Y-61366054D01*
X110171917Y-61352969D01*
X110179358Y-61340553D01*
X110187981Y-61328927D01*
X110197702Y-61318202D01*
X110208427Y-61308481D01*
X110220053Y-61299858D01*
X110232469Y-61292417D01*
X110245554Y-61286228D01*
X110259183Y-61281351D01*
X110273224Y-61277834D01*
X110287542Y-61275710D01*
X110302000Y-61275000D01*
X110597000Y-61275000D01*
X110611458Y-61275710D01*
X110611458Y-61275710D01*
G37*
D16*
X110449500Y-61595000D03*
G04 #@! TD*
D15*
G04 #@! TO.C,R2*
G36*
X110611458Y-62609210D02*
X110625776Y-62611334D01*
X110639817Y-62614851D01*
X110653446Y-62619728D01*
X110666531Y-62625917D01*
X110678947Y-62633358D01*
X110690573Y-62641981D01*
X110701298Y-62651702D01*
X110711019Y-62662427D01*
X110719642Y-62674053D01*
X110727083Y-62686469D01*
X110733272Y-62699554D01*
X110738149Y-62713183D01*
X110741666Y-62727224D01*
X110743790Y-62741542D01*
X110744500Y-62756000D01*
X110744500Y-63101000D01*
X110743790Y-63115458D01*
X110741666Y-63129776D01*
X110738149Y-63143817D01*
X110733272Y-63157446D01*
X110727083Y-63170531D01*
X110719642Y-63182947D01*
X110711019Y-63194573D01*
X110701298Y-63205298D01*
X110690573Y-63215019D01*
X110678947Y-63223642D01*
X110666531Y-63231083D01*
X110653446Y-63237272D01*
X110639817Y-63242149D01*
X110625776Y-63245666D01*
X110611458Y-63247790D01*
X110597000Y-63248500D01*
X110302000Y-63248500D01*
X110287542Y-63247790D01*
X110273224Y-63245666D01*
X110259183Y-63242149D01*
X110245554Y-63237272D01*
X110232469Y-63231083D01*
X110220053Y-63223642D01*
X110208427Y-63215019D01*
X110197702Y-63205298D01*
X110187981Y-63194573D01*
X110179358Y-63182947D01*
X110171917Y-63170531D01*
X110165728Y-63157446D01*
X110160851Y-63143817D01*
X110157334Y-63129776D01*
X110155210Y-63115458D01*
X110154500Y-63101000D01*
X110154500Y-62756000D01*
X110155210Y-62741542D01*
X110157334Y-62727224D01*
X110160851Y-62713183D01*
X110165728Y-62699554D01*
X110171917Y-62686469D01*
X110179358Y-62674053D01*
X110187981Y-62662427D01*
X110197702Y-62651702D01*
X110208427Y-62641981D01*
X110220053Y-62633358D01*
X110232469Y-62625917D01*
X110245554Y-62619728D01*
X110259183Y-62614851D01*
X110273224Y-62611334D01*
X110287542Y-62609210D01*
X110302000Y-62608500D01*
X110597000Y-62608500D01*
X110611458Y-62609210D01*
X110611458Y-62609210D01*
G37*
D16*
X110449500Y-62928500D03*
D15*
G36*
X111581458Y-62609210D02*
X111595776Y-62611334D01*
X111609817Y-62614851D01*
X111623446Y-62619728D01*
X111636531Y-62625917D01*
X111648947Y-62633358D01*
X111660573Y-62641981D01*
X111671298Y-62651702D01*
X111681019Y-62662427D01*
X111689642Y-62674053D01*
X111697083Y-62686469D01*
X111703272Y-62699554D01*
X111708149Y-62713183D01*
X111711666Y-62727224D01*
X111713790Y-62741542D01*
X111714500Y-62756000D01*
X111714500Y-63101000D01*
X111713790Y-63115458D01*
X111711666Y-63129776D01*
X111708149Y-63143817D01*
X111703272Y-63157446D01*
X111697083Y-63170531D01*
X111689642Y-63182947D01*
X111681019Y-63194573D01*
X111671298Y-63205298D01*
X111660573Y-63215019D01*
X111648947Y-63223642D01*
X111636531Y-63231083D01*
X111623446Y-63237272D01*
X111609817Y-63242149D01*
X111595776Y-63245666D01*
X111581458Y-63247790D01*
X111567000Y-63248500D01*
X111272000Y-63248500D01*
X111257542Y-63247790D01*
X111243224Y-63245666D01*
X111229183Y-63242149D01*
X111215554Y-63237272D01*
X111202469Y-63231083D01*
X111190053Y-63223642D01*
X111178427Y-63215019D01*
X111167702Y-63205298D01*
X111157981Y-63194573D01*
X111149358Y-63182947D01*
X111141917Y-63170531D01*
X111135728Y-63157446D01*
X111130851Y-63143817D01*
X111127334Y-63129776D01*
X111125210Y-63115458D01*
X111124500Y-63101000D01*
X111124500Y-62756000D01*
X111125210Y-62741542D01*
X111127334Y-62727224D01*
X111130851Y-62713183D01*
X111135728Y-62699554D01*
X111141917Y-62686469D01*
X111149358Y-62674053D01*
X111157981Y-62662427D01*
X111167702Y-62651702D01*
X111178427Y-62641981D01*
X111190053Y-62633358D01*
X111202469Y-62625917D01*
X111215554Y-62619728D01*
X111229183Y-62614851D01*
X111243224Y-62611334D01*
X111257542Y-62609210D01*
X111272000Y-62608500D01*
X111567000Y-62608500D01*
X111581458Y-62609210D01*
X111581458Y-62609210D01*
G37*
D16*
X111419500Y-62928500D03*
G04 #@! TD*
D15*
G04 #@! TO.C,R3*
G36*
X120709958Y-63165210D02*
X120724276Y-63167334D01*
X120738317Y-63170851D01*
X120751946Y-63175728D01*
X120765031Y-63181917D01*
X120777447Y-63189358D01*
X120789073Y-63197981D01*
X120799798Y-63207702D01*
X120809519Y-63218427D01*
X120818142Y-63230053D01*
X120825583Y-63242469D01*
X120831772Y-63255554D01*
X120836649Y-63269183D01*
X120840166Y-63283224D01*
X120842290Y-63297542D01*
X120843000Y-63312000D01*
X120843000Y-63607000D01*
X120842290Y-63621458D01*
X120840166Y-63635776D01*
X120836649Y-63649817D01*
X120831772Y-63663446D01*
X120825583Y-63676531D01*
X120818142Y-63688947D01*
X120809519Y-63700573D01*
X120799798Y-63711298D01*
X120789073Y-63721019D01*
X120777447Y-63729642D01*
X120765031Y-63737083D01*
X120751946Y-63743272D01*
X120738317Y-63748149D01*
X120724276Y-63751666D01*
X120709958Y-63753790D01*
X120695500Y-63754500D01*
X120350500Y-63754500D01*
X120336042Y-63753790D01*
X120321724Y-63751666D01*
X120307683Y-63748149D01*
X120294054Y-63743272D01*
X120280969Y-63737083D01*
X120268553Y-63729642D01*
X120256927Y-63721019D01*
X120246202Y-63711298D01*
X120236481Y-63700573D01*
X120227858Y-63688947D01*
X120220417Y-63676531D01*
X120214228Y-63663446D01*
X120209351Y-63649817D01*
X120205834Y-63635776D01*
X120203710Y-63621458D01*
X120203000Y-63607000D01*
X120203000Y-63312000D01*
X120203710Y-63297542D01*
X120205834Y-63283224D01*
X120209351Y-63269183D01*
X120214228Y-63255554D01*
X120220417Y-63242469D01*
X120227858Y-63230053D01*
X120236481Y-63218427D01*
X120246202Y-63207702D01*
X120256927Y-63197981D01*
X120268553Y-63189358D01*
X120280969Y-63181917D01*
X120294054Y-63175728D01*
X120307683Y-63170851D01*
X120321724Y-63167334D01*
X120336042Y-63165210D01*
X120350500Y-63164500D01*
X120695500Y-63164500D01*
X120709958Y-63165210D01*
X120709958Y-63165210D01*
G37*
D16*
X120523000Y-63459500D03*
D15*
G36*
X120709958Y-64135210D02*
X120724276Y-64137334D01*
X120738317Y-64140851D01*
X120751946Y-64145728D01*
X120765031Y-64151917D01*
X120777447Y-64159358D01*
X120789073Y-64167981D01*
X120799798Y-64177702D01*
X120809519Y-64188427D01*
X120818142Y-64200053D01*
X120825583Y-64212469D01*
X120831772Y-64225554D01*
X120836649Y-64239183D01*
X120840166Y-64253224D01*
X120842290Y-64267542D01*
X120843000Y-64282000D01*
X120843000Y-64577000D01*
X120842290Y-64591458D01*
X120840166Y-64605776D01*
X120836649Y-64619817D01*
X120831772Y-64633446D01*
X120825583Y-64646531D01*
X120818142Y-64658947D01*
X120809519Y-64670573D01*
X120799798Y-64681298D01*
X120789073Y-64691019D01*
X120777447Y-64699642D01*
X120765031Y-64707083D01*
X120751946Y-64713272D01*
X120738317Y-64718149D01*
X120724276Y-64721666D01*
X120709958Y-64723790D01*
X120695500Y-64724500D01*
X120350500Y-64724500D01*
X120336042Y-64723790D01*
X120321724Y-64721666D01*
X120307683Y-64718149D01*
X120294054Y-64713272D01*
X120280969Y-64707083D01*
X120268553Y-64699642D01*
X120256927Y-64691019D01*
X120246202Y-64681298D01*
X120236481Y-64670573D01*
X120227858Y-64658947D01*
X120220417Y-64646531D01*
X120214228Y-64633446D01*
X120209351Y-64619817D01*
X120205834Y-64605776D01*
X120203710Y-64591458D01*
X120203000Y-64577000D01*
X120203000Y-64282000D01*
X120203710Y-64267542D01*
X120205834Y-64253224D01*
X120209351Y-64239183D01*
X120214228Y-64225554D01*
X120220417Y-64212469D01*
X120227858Y-64200053D01*
X120236481Y-64188427D01*
X120246202Y-64177702D01*
X120256927Y-64167981D01*
X120268553Y-64159358D01*
X120280969Y-64151917D01*
X120294054Y-64145728D01*
X120307683Y-64140851D01*
X120321724Y-64137334D01*
X120336042Y-64135210D01*
X120350500Y-64134500D01*
X120695500Y-64134500D01*
X120709958Y-64135210D01*
X120709958Y-64135210D01*
G37*
D16*
X120523000Y-64429500D03*
G04 #@! TD*
D15*
G04 #@! TO.C,R4*
G36*
X118868458Y-64135210D02*
X118882776Y-64137334D01*
X118896817Y-64140851D01*
X118910446Y-64145728D01*
X118923531Y-64151917D01*
X118935947Y-64159358D01*
X118947573Y-64167981D01*
X118958298Y-64177702D01*
X118968019Y-64188427D01*
X118976642Y-64200053D01*
X118984083Y-64212469D01*
X118990272Y-64225554D01*
X118995149Y-64239183D01*
X118998666Y-64253224D01*
X119000790Y-64267542D01*
X119001500Y-64282000D01*
X119001500Y-64577000D01*
X119000790Y-64591458D01*
X118998666Y-64605776D01*
X118995149Y-64619817D01*
X118990272Y-64633446D01*
X118984083Y-64646531D01*
X118976642Y-64658947D01*
X118968019Y-64670573D01*
X118958298Y-64681298D01*
X118947573Y-64691019D01*
X118935947Y-64699642D01*
X118923531Y-64707083D01*
X118910446Y-64713272D01*
X118896817Y-64718149D01*
X118882776Y-64721666D01*
X118868458Y-64723790D01*
X118854000Y-64724500D01*
X118509000Y-64724500D01*
X118494542Y-64723790D01*
X118480224Y-64721666D01*
X118466183Y-64718149D01*
X118452554Y-64713272D01*
X118439469Y-64707083D01*
X118427053Y-64699642D01*
X118415427Y-64691019D01*
X118404702Y-64681298D01*
X118394981Y-64670573D01*
X118386358Y-64658947D01*
X118378917Y-64646531D01*
X118372728Y-64633446D01*
X118367851Y-64619817D01*
X118364334Y-64605776D01*
X118362210Y-64591458D01*
X118361500Y-64577000D01*
X118361500Y-64282000D01*
X118362210Y-64267542D01*
X118364334Y-64253224D01*
X118367851Y-64239183D01*
X118372728Y-64225554D01*
X118378917Y-64212469D01*
X118386358Y-64200053D01*
X118394981Y-64188427D01*
X118404702Y-64177702D01*
X118415427Y-64167981D01*
X118427053Y-64159358D01*
X118439469Y-64151917D01*
X118452554Y-64145728D01*
X118466183Y-64140851D01*
X118480224Y-64137334D01*
X118494542Y-64135210D01*
X118509000Y-64134500D01*
X118854000Y-64134500D01*
X118868458Y-64135210D01*
X118868458Y-64135210D01*
G37*
D16*
X118681500Y-64429500D03*
D15*
G36*
X118868458Y-63165210D02*
X118882776Y-63167334D01*
X118896817Y-63170851D01*
X118910446Y-63175728D01*
X118923531Y-63181917D01*
X118935947Y-63189358D01*
X118947573Y-63197981D01*
X118958298Y-63207702D01*
X118968019Y-63218427D01*
X118976642Y-63230053D01*
X118984083Y-63242469D01*
X118990272Y-63255554D01*
X118995149Y-63269183D01*
X118998666Y-63283224D01*
X119000790Y-63297542D01*
X119001500Y-63312000D01*
X119001500Y-63607000D01*
X119000790Y-63621458D01*
X118998666Y-63635776D01*
X118995149Y-63649817D01*
X118990272Y-63663446D01*
X118984083Y-63676531D01*
X118976642Y-63688947D01*
X118968019Y-63700573D01*
X118958298Y-63711298D01*
X118947573Y-63721019D01*
X118935947Y-63729642D01*
X118923531Y-63737083D01*
X118910446Y-63743272D01*
X118896817Y-63748149D01*
X118882776Y-63751666D01*
X118868458Y-63753790D01*
X118854000Y-63754500D01*
X118509000Y-63754500D01*
X118494542Y-63753790D01*
X118480224Y-63751666D01*
X118466183Y-63748149D01*
X118452554Y-63743272D01*
X118439469Y-63737083D01*
X118427053Y-63729642D01*
X118415427Y-63721019D01*
X118404702Y-63711298D01*
X118394981Y-63700573D01*
X118386358Y-63688947D01*
X118378917Y-63676531D01*
X118372728Y-63663446D01*
X118367851Y-63649817D01*
X118364334Y-63635776D01*
X118362210Y-63621458D01*
X118361500Y-63607000D01*
X118361500Y-63312000D01*
X118362210Y-63297542D01*
X118364334Y-63283224D01*
X118367851Y-63269183D01*
X118372728Y-63255554D01*
X118378917Y-63242469D01*
X118386358Y-63230053D01*
X118394981Y-63218427D01*
X118404702Y-63207702D01*
X118415427Y-63197981D01*
X118427053Y-63189358D01*
X118439469Y-63181917D01*
X118452554Y-63175728D01*
X118466183Y-63170851D01*
X118480224Y-63167334D01*
X118494542Y-63165210D01*
X118509000Y-63164500D01*
X118854000Y-63164500D01*
X118868458Y-63165210D01*
X118868458Y-63165210D01*
G37*
D16*
X118681500Y-63459500D03*
G04 #@! TD*
D15*
G04 #@! TO.C,REN+1*
G36*
X119264958Y-60132710D02*
X119279276Y-60134834D01*
X119293317Y-60138351D01*
X119306946Y-60143228D01*
X119320031Y-60149417D01*
X119332447Y-60156858D01*
X119344073Y-60165481D01*
X119354798Y-60175202D01*
X119364519Y-60185927D01*
X119373142Y-60197553D01*
X119380583Y-60209969D01*
X119386772Y-60223054D01*
X119391649Y-60236683D01*
X119395166Y-60250724D01*
X119397290Y-60265042D01*
X119398000Y-60279500D01*
X119398000Y-60624500D01*
X119397290Y-60638958D01*
X119395166Y-60653276D01*
X119391649Y-60667317D01*
X119386772Y-60680946D01*
X119380583Y-60694031D01*
X119373142Y-60706447D01*
X119364519Y-60718073D01*
X119354798Y-60728798D01*
X119344073Y-60738519D01*
X119332447Y-60747142D01*
X119320031Y-60754583D01*
X119306946Y-60760772D01*
X119293317Y-60765649D01*
X119279276Y-60769166D01*
X119264958Y-60771290D01*
X119250500Y-60772000D01*
X118955500Y-60772000D01*
X118941042Y-60771290D01*
X118926724Y-60769166D01*
X118912683Y-60765649D01*
X118899054Y-60760772D01*
X118885969Y-60754583D01*
X118873553Y-60747142D01*
X118861927Y-60738519D01*
X118851202Y-60728798D01*
X118841481Y-60718073D01*
X118832858Y-60706447D01*
X118825417Y-60694031D01*
X118819228Y-60680946D01*
X118814351Y-60667317D01*
X118810834Y-60653276D01*
X118808710Y-60638958D01*
X118808000Y-60624500D01*
X118808000Y-60279500D01*
X118808710Y-60265042D01*
X118810834Y-60250724D01*
X118814351Y-60236683D01*
X118819228Y-60223054D01*
X118825417Y-60209969D01*
X118832858Y-60197553D01*
X118841481Y-60185927D01*
X118851202Y-60175202D01*
X118861927Y-60165481D01*
X118873553Y-60156858D01*
X118885969Y-60149417D01*
X118899054Y-60143228D01*
X118912683Y-60138351D01*
X118926724Y-60134834D01*
X118941042Y-60132710D01*
X118955500Y-60132000D01*
X119250500Y-60132000D01*
X119264958Y-60132710D01*
X119264958Y-60132710D01*
G37*
D16*
X119103000Y-60452000D03*
D15*
G36*
X118294958Y-60132710D02*
X118309276Y-60134834D01*
X118323317Y-60138351D01*
X118336946Y-60143228D01*
X118350031Y-60149417D01*
X118362447Y-60156858D01*
X118374073Y-60165481D01*
X118384798Y-60175202D01*
X118394519Y-60185927D01*
X118403142Y-60197553D01*
X118410583Y-60209969D01*
X118416772Y-60223054D01*
X118421649Y-60236683D01*
X118425166Y-60250724D01*
X118427290Y-60265042D01*
X118428000Y-60279500D01*
X118428000Y-60624500D01*
X118427290Y-60638958D01*
X118425166Y-60653276D01*
X118421649Y-60667317D01*
X118416772Y-60680946D01*
X118410583Y-60694031D01*
X118403142Y-60706447D01*
X118394519Y-60718073D01*
X118384798Y-60728798D01*
X118374073Y-60738519D01*
X118362447Y-60747142D01*
X118350031Y-60754583D01*
X118336946Y-60760772D01*
X118323317Y-60765649D01*
X118309276Y-60769166D01*
X118294958Y-60771290D01*
X118280500Y-60772000D01*
X117985500Y-60772000D01*
X117971042Y-60771290D01*
X117956724Y-60769166D01*
X117942683Y-60765649D01*
X117929054Y-60760772D01*
X117915969Y-60754583D01*
X117903553Y-60747142D01*
X117891927Y-60738519D01*
X117881202Y-60728798D01*
X117871481Y-60718073D01*
X117862858Y-60706447D01*
X117855417Y-60694031D01*
X117849228Y-60680946D01*
X117844351Y-60667317D01*
X117840834Y-60653276D01*
X117838710Y-60638958D01*
X117838000Y-60624500D01*
X117838000Y-60279500D01*
X117838710Y-60265042D01*
X117840834Y-60250724D01*
X117844351Y-60236683D01*
X117849228Y-60223054D01*
X117855417Y-60209969D01*
X117862858Y-60197553D01*
X117871481Y-60185927D01*
X117881202Y-60175202D01*
X117891927Y-60165481D01*
X117903553Y-60156858D01*
X117915969Y-60149417D01*
X117929054Y-60143228D01*
X117942683Y-60138351D01*
X117956724Y-60134834D01*
X117971042Y-60132710D01*
X117985500Y-60132000D01*
X118280500Y-60132000D01*
X118294958Y-60132710D01*
X118294958Y-60132710D01*
G37*
D16*
X118133000Y-60452000D03*
G04 #@! TD*
D15*
G04 #@! TO.C,REN-1*
G36*
X118231458Y-55687710D02*
X118245776Y-55689834D01*
X118259817Y-55693351D01*
X118273446Y-55698228D01*
X118286531Y-55704417D01*
X118298947Y-55711858D01*
X118310573Y-55720481D01*
X118321298Y-55730202D01*
X118331019Y-55740927D01*
X118339642Y-55752553D01*
X118347083Y-55764969D01*
X118353272Y-55778054D01*
X118358149Y-55791683D01*
X118361666Y-55805724D01*
X118363790Y-55820042D01*
X118364500Y-55834500D01*
X118364500Y-56179500D01*
X118363790Y-56193958D01*
X118361666Y-56208276D01*
X118358149Y-56222317D01*
X118353272Y-56235946D01*
X118347083Y-56249031D01*
X118339642Y-56261447D01*
X118331019Y-56273073D01*
X118321298Y-56283798D01*
X118310573Y-56293519D01*
X118298947Y-56302142D01*
X118286531Y-56309583D01*
X118273446Y-56315772D01*
X118259817Y-56320649D01*
X118245776Y-56324166D01*
X118231458Y-56326290D01*
X118217000Y-56327000D01*
X117922000Y-56327000D01*
X117907542Y-56326290D01*
X117893224Y-56324166D01*
X117879183Y-56320649D01*
X117865554Y-56315772D01*
X117852469Y-56309583D01*
X117840053Y-56302142D01*
X117828427Y-56293519D01*
X117817702Y-56283798D01*
X117807981Y-56273073D01*
X117799358Y-56261447D01*
X117791917Y-56249031D01*
X117785728Y-56235946D01*
X117780851Y-56222317D01*
X117777334Y-56208276D01*
X117775210Y-56193958D01*
X117774500Y-56179500D01*
X117774500Y-55834500D01*
X117775210Y-55820042D01*
X117777334Y-55805724D01*
X117780851Y-55791683D01*
X117785728Y-55778054D01*
X117791917Y-55764969D01*
X117799358Y-55752553D01*
X117807981Y-55740927D01*
X117817702Y-55730202D01*
X117828427Y-55720481D01*
X117840053Y-55711858D01*
X117852469Y-55704417D01*
X117865554Y-55698228D01*
X117879183Y-55693351D01*
X117893224Y-55689834D01*
X117907542Y-55687710D01*
X117922000Y-55687000D01*
X118217000Y-55687000D01*
X118231458Y-55687710D01*
X118231458Y-55687710D01*
G37*
D16*
X118069500Y-56007000D03*
D15*
G36*
X119201458Y-55687710D02*
X119215776Y-55689834D01*
X119229817Y-55693351D01*
X119243446Y-55698228D01*
X119256531Y-55704417D01*
X119268947Y-55711858D01*
X119280573Y-55720481D01*
X119291298Y-55730202D01*
X119301019Y-55740927D01*
X119309642Y-55752553D01*
X119317083Y-55764969D01*
X119323272Y-55778054D01*
X119328149Y-55791683D01*
X119331666Y-55805724D01*
X119333790Y-55820042D01*
X119334500Y-55834500D01*
X119334500Y-56179500D01*
X119333790Y-56193958D01*
X119331666Y-56208276D01*
X119328149Y-56222317D01*
X119323272Y-56235946D01*
X119317083Y-56249031D01*
X119309642Y-56261447D01*
X119301019Y-56273073D01*
X119291298Y-56283798D01*
X119280573Y-56293519D01*
X119268947Y-56302142D01*
X119256531Y-56309583D01*
X119243446Y-56315772D01*
X119229817Y-56320649D01*
X119215776Y-56324166D01*
X119201458Y-56326290D01*
X119187000Y-56327000D01*
X118892000Y-56327000D01*
X118877542Y-56326290D01*
X118863224Y-56324166D01*
X118849183Y-56320649D01*
X118835554Y-56315772D01*
X118822469Y-56309583D01*
X118810053Y-56302142D01*
X118798427Y-56293519D01*
X118787702Y-56283798D01*
X118777981Y-56273073D01*
X118769358Y-56261447D01*
X118761917Y-56249031D01*
X118755728Y-56235946D01*
X118750851Y-56222317D01*
X118747334Y-56208276D01*
X118745210Y-56193958D01*
X118744500Y-56179500D01*
X118744500Y-55834500D01*
X118745210Y-55820042D01*
X118747334Y-55805724D01*
X118750851Y-55791683D01*
X118755728Y-55778054D01*
X118761917Y-55764969D01*
X118769358Y-55752553D01*
X118777981Y-55740927D01*
X118787702Y-55730202D01*
X118798427Y-55720481D01*
X118810053Y-55711858D01*
X118822469Y-55704417D01*
X118835554Y-55698228D01*
X118849183Y-55693351D01*
X118863224Y-55689834D01*
X118877542Y-55687710D01*
X118892000Y-55687000D01*
X119187000Y-55687000D01*
X119201458Y-55687710D01*
X119201458Y-55687710D01*
G37*
D16*
X119039500Y-56007000D03*
G04 #@! TD*
D15*
G04 #@! TO.C,ROK1*
G36*
X110422958Y-58356710D02*
X110437276Y-58358834D01*
X110451317Y-58362351D01*
X110464946Y-58367228D01*
X110478031Y-58373417D01*
X110490447Y-58380858D01*
X110502073Y-58389481D01*
X110512798Y-58399202D01*
X110522519Y-58409927D01*
X110531142Y-58421553D01*
X110538583Y-58433969D01*
X110544772Y-58447054D01*
X110549649Y-58460683D01*
X110553166Y-58474724D01*
X110555290Y-58489042D01*
X110556000Y-58503500D01*
X110556000Y-58798500D01*
X110555290Y-58812958D01*
X110553166Y-58827276D01*
X110549649Y-58841317D01*
X110544772Y-58854946D01*
X110538583Y-58868031D01*
X110531142Y-58880447D01*
X110522519Y-58892073D01*
X110512798Y-58902798D01*
X110502073Y-58912519D01*
X110490447Y-58921142D01*
X110478031Y-58928583D01*
X110464946Y-58934772D01*
X110451317Y-58939649D01*
X110437276Y-58943166D01*
X110422958Y-58945290D01*
X110408500Y-58946000D01*
X110063500Y-58946000D01*
X110049042Y-58945290D01*
X110034724Y-58943166D01*
X110020683Y-58939649D01*
X110007054Y-58934772D01*
X109993969Y-58928583D01*
X109981553Y-58921142D01*
X109969927Y-58912519D01*
X109959202Y-58902798D01*
X109949481Y-58892073D01*
X109940858Y-58880447D01*
X109933417Y-58868031D01*
X109927228Y-58854946D01*
X109922351Y-58841317D01*
X109918834Y-58827276D01*
X109916710Y-58812958D01*
X109916000Y-58798500D01*
X109916000Y-58503500D01*
X109916710Y-58489042D01*
X109918834Y-58474724D01*
X109922351Y-58460683D01*
X109927228Y-58447054D01*
X109933417Y-58433969D01*
X109940858Y-58421553D01*
X109949481Y-58409927D01*
X109959202Y-58399202D01*
X109969927Y-58389481D01*
X109981553Y-58380858D01*
X109993969Y-58373417D01*
X110007054Y-58367228D01*
X110020683Y-58362351D01*
X110034724Y-58358834D01*
X110049042Y-58356710D01*
X110063500Y-58356000D01*
X110408500Y-58356000D01*
X110422958Y-58356710D01*
X110422958Y-58356710D01*
G37*
D16*
X110236000Y-58651000D03*
D15*
G36*
X110422958Y-57386710D02*
X110437276Y-57388834D01*
X110451317Y-57392351D01*
X110464946Y-57397228D01*
X110478031Y-57403417D01*
X110490447Y-57410858D01*
X110502073Y-57419481D01*
X110512798Y-57429202D01*
X110522519Y-57439927D01*
X110531142Y-57451553D01*
X110538583Y-57463969D01*
X110544772Y-57477054D01*
X110549649Y-57490683D01*
X110553166Y-57504724D01*
X110555290Y-57519042D01*
X110556000Y-57533500D01*
X110556000Y-57828500D01*
X110555290Y-57842958D01*
X110553166Y-57857276D01*
X110549649Y-57871317D01*
X110544772Y-57884946D01*
X110538583Y-57898031D01*
X110531142Y-57910447D01*
X110522519Y-57922073D01*
X110512798Y-57932798D01*
X110502073Y-57942519D01*
X110490447Y-57951142D01*
X110478031Y-57958583D01*
X110464946Y-57964772D01*
X110451317Y-57969649D01*
X110437276Y-57973166D01*
X110422958Y-57975290D01*
X110408500Y-57976000D01*
X110063500Y-57976000D01*
X110049042Y-57975290D01*
X110034724Y-57973166D01*
X110020683Y-57969649D01*
X110007054Y-57964772D01*
X109993969Y-57958583D01*
X109981553Y-57951142D01*
X109969927Y-57942519D01*
X109959202Y-57932798D01*
X109949481Y-57922073D01*
X109940858Y-57910447D01*
X109933417Y-57898031D01*
X109927228Y-57884946D01*
X109922351Y-57871317D01*
X109918834Y-57857276D01*
X109916710Y-57842958D01*
X109916000Y-57828500D01*
X109916000Y-57533500D01*
X109916710Y-57519042D01*
X109918834Y-57504724D01*
X109922351Y-57490683D01*
X109927228Y-57477054D01*
X109933417Y-57463969D01*
X109940858Y-57451553D01*
X109949481Y-57439927D01*
X109959202Y-57429202D01*
X109969927Y-57419481D01*
X109981553Y-57410858D01*
X109993969Y-57403417D01*
X110007054Y-57397228D01*
X110020683Y-57392351D01*
X110034724Y-57388834D01*
X110049042Y-57386710D01*
X110063500Y-57386000D01*
X110408500Y-57386000D01*
X110422958Y-57386710D01*
X110422958Y-57386710D01*
G37*
D16*
X110236000Y-57681000D03*
G04 #@! TD*
D17*
G04 #@! TO.C,DP1*
X99695000Y-68423500D03*
X99695000Y-66323500D03*
G04 #@! TD*
D15*
G04 #@! TO.C,CO+1*
G36*
X114438958Y-62621910D02*
X114453276Y-62624034D01*
X114467317Y-62627551D01*
X114480946Y-62632428D01*
X114494031Y-62638617D01*
X114506447Y-62646058D01*
X114518073Y-62654681D01*
X114528798Y-62664402D01*
X114538519Y-62675127D01*
X114547142Y-62686753D01*
X114554583Y-62699169D01*
X114560772Y-62712254D01*
X114565649Y-62725883D01*
X114569166Y-62739924D01*
X114571290Y-62754242D01*
X114572000Y-62768700D01*
X114572000Y-63113700D01*
X114571290Y-63128158D01*
X114569166Y-63142476D01*
X114565649Y-63156517D01*
X114560772Y-63170146D01*
X114554583Y-63183231D01*
X114547142Y-63195647D01*
X114538519Y-63207273D01*
X114528798Y-63217998D01*
X114518073Y-63227719D01*
X114506447Y-63236342D01*
X114494031Y-63243783D01*
X114480946Y-63249972D01*
X114467317Y-63254849D01*
X114453276Y-63258366D01*
X114438958Y-63260490D01*
X114424500Y-63261200D01*
X114129500Y-63261200D01*
X114115042Y-63260490D01*
X114100724Y-63258366D01*
X114086683Y-63254849D01*
X114073054Y-63249972D01*
X114059969Y-63243783D01*
X114047553Y-63236342D01*
X114035927Y-63227719D01*
X114025202Y-63217998D01*
X114015481Y-63207273D01*
X114006858Y-63195647D01*
X113999417Y-63183231D01*
X113993228Y-63170146D01*
X113988351Y-63156517D01*
X113984834Y-63142476D01*
X113982710Y-63128158D01*
X113982000Y-63113700D01*
X113982000Y-62768700D01*
X113982710Y-62754242D01*
X113984834Y-62739924D01*
X113988351Y-62725883D01*
X113993228Y-62712254D01*
X113999417Y-62699169D01*
X114006858Y-62686753D01*
X114015481Y-62675127D01*
X114025202Y-62664402D01*
X114035927Y-62654681D01*
X114047553Y-62646058D01*
X114059969Y-62638617D01*
X114073054Y-62632428D01*
X114086683Y-62627551D01*
X114100724Y-62624034D01*
X114115042Y-62621910D01*
X114129500Y-62621200D01*
X114424500Y-62621200D01*
X114438958Y-62621910D01*
X114438958Y-62621910D01*
G37*
D16*
X114277000Y-62941200D03*
D15*
G36*
X113468958Y-62621910D02*
X113483276Y-62624034D01*
X113497317Y-62627551D01*
X113510946Y-62632428D01*
X113524031Y-62638617D01*
X113536447Y-62646058D01*
X113548073Y-62654681D01*
X113558798Y-62664402D01*
X113568519Y-62675127D01*
X113577142Y-62686753D01*
X113584583Y-62699169D01*
X113590772Y-62712254D01*
X113595649Y-62725883D01*
X113599166Y-62739924D01*
X113601290Y-62754242D01*
X113602000Y-62768700D01*
X113602000Y-63113700D01*
X113601290Y-63128158D01*
X113599166Y-63142476D01*
X113595649Y-63156517D01*
X113590772Y-63170146D01*
X113584583Y-63183231D01*
X113577142Y-63195647D01*
X113568519Y-63207273D01*
X113558798Y-63217998D01*
X113548073Y-63227719D01*
X113536447Y-63236342D01*
X113524031Y-63243783D01*
X113510946Y-63249972D01*
X113497317Y-63254849D01*
X113483276Y-63258366D01*
X113468958Y-63260490D01*
X113454500Y-63261200D01*
X113159500Y-63261200D01*
X113145042Y-63260490D01*
X113130724Y-63258366D01*
X113116683Y-63254849D01*
X113103054Y-63249972D01*
X113089969Y-63243783D01*
X113077553Y-63236342D01*
X113065927Y-63227719D01*
X113055202Y-63217998D01*
X113045481Y-63207273D01*
X113036858Y-63195647D01*
X113029417Y-63183231D01*
X113023228Y-63170146D01*
X113018351Y-63156517D01*
X113014834Y-63142476D01*
X113012710Y-63128158D01*
X113012000Y-63113700D01*
X113012000Y-62768700D01*
X113012710Y-62754242D01*
X113014834Y-62739924D01*
X113018351Y-62725883D01*
X113023228Y-62712254D01*
X113029417Y-62699169D01*
X113036858Y-62686753D01*
X113045481Y-62675127D01*
X113055202Y-62664402D01*
X113065927Y-62654681D01*
X113077553Y-62646058D01*
X113089969Y-62638617D01*
X113103054Y-62632428D01*
X113116683Y-62627551D01*
X113130724Y-62624034D01*
X113145042Y-62621910D01*
X113159500Y-62621200D01*
X113454500Y-62621200D01*
X113468958Y-62621910D01*
X113468958Y-62621910D01*
G37*
D16*
X113307000Y-62941200D03*
G04 #@! TD*
D15*
G04 #@! TO.C,CO-1*
G36*
X118868458Y-66086210D02*
X118882776Y-66088334D01*
X118896817Y-66091851D01*
X118910446Y-66096728D01*
X118923531Y-66102917D01*
X118935947Y-66110358D01*
X118947573Y-66118981D01*
X118958298Y-66128702D01*
X118968019Y-66139427D01*
X118976642Y-66151053D01*
X118984083Y-66163469D01*
X118990272Y-66176554D01*
X118995149Y-66190183D01*
X118998666Y-66204224D01*
X119000790Y-66218542D01*
X119001500Y-66233000D01*
X119001500Y-66528000D01*
X119000790Y-66542458D01*
X118998666Y-66556776D01*
X118995149Y-66570817D01*
X118990272Y-66584446D01*
X118984083Y-66597531D01*
X118976642Y-66609947D01*
X118968019Y-66621573D01*
X118958298Y-66632298D01*
X118947573Y-66642019D01*
X118935947Y-66650642D01*
X118923531Y-66658083D01*
X118910446Y-66664272D01*
X118896817Y-66669149D01*
X118882776Y-66672666D01*
X118868458Y-66674790D01*
X118854000Y-66675500D01*
X118509000Y-66675500D01*
X118494542Y-66674790D01*
X118480224Y-66672666D01*
X118466183Y-66669149D01*
X118452554Y-66664272D01*
X118439469Y-66658083D01*
X118427053Y-66650642D01*
X118415427Y-66642019D01*
X118404702Y-66632298D01*
X118394981Y-66621573D01*
X118386358Y-66609947D01*
X118378917Y-66597531D01*
X118372728Y-66584446D01*
X118367851Y-66570817D01*
X118364334Y-66556776D01*
X118362210Y-66542458D01*
X118361500Y-66528000D01*
X118361500Y-66233000D01*
X118362210Y-66218542D01*
X118364334Y-66204224D01*
X118367851Y-66190183D01*
X118372728Y-66176554D01*
X118378917Y-66163469D01*
X118386358Y-66151053D01*
X118394981Y-66139427D01*
X118404702Y-66128702D01*
X118415427Y-66118981D01*
X118427053Y-66110358D01*
X118439469Y-66102917D01*
X118452554Y-66096728D01*
X118466183Y-66091851D01*
X118480224Y-66088334D01*
X118494542Y-66086210D01*
X118509000Y-66085500D01*
X118854000Y-66085500D01*
X118868458Y-66086210D01*
X118868458Y-66086210D01*
G37*
D16*
X118681500Y-66380500D03*
D15*
G36*
X118868458Y-67056210D02*
X118882776Y-67058334D01*
X118896817Y-67061851D01*
X118910446Y-67066728D01*
X118923531Y-67072917D01*
X118935947Y-67080358D01*
X118947573Y-67088981D01*
X118958298Y-67098702D01*
X118968019Y-67109427D01*
X118976642Y-67121053D01*
X118984083Y-67133469D01*
X118990272Y-67146554D01*
X118995149Y-67160183D01*
X118998666Y-67174224D01*
X119000790Y-67188542D01*
X119001500Y-67203000D01*
X119001500Y-67498000D01*
X119000790Y-67512458D01*
X118998666Y-67526776D01*
X118995149Y-67540817D01*
X118990272Y-67554446D01*
X118984083Y-67567531D01*
X118976642Y-67579947D01*
X118968019Y-67591573D01*
X118958298Y-67602298D01*
X118947573Y-67612019D01*
X118935947Y-67620642D01*
X118923531Y-67628083D01*
X118910446Y-67634272D01*
X118896817Y-67639149D01*
X118882776Y-67642666D01*
X118868458Y-67644790D01*
X118854000Y-67645500D01*
X118509000Y-67645500D01*
X118494542Y-67644790D01*
X118480224Y-67642666D01*
X118466183Y-67639149D01*
X118452554Y-67634272D01*
X118439469Y-67628083D01*
X118427053Y-67620642D01*
X118415427Y-67612019D01*
X118404702Y-67602298D01*
X118394981Y-67591573D01*
X118386358Y-67579947D01*
X118378917Y-67567531D01*
X118372728Y-67554446D01*
X118367851Y-67540817D01*
X118364334Y-67526776D01*
X118362210Y-67512458D01*
X118361500Y-67498000D01*
X118361500Y-67203000D01*
X118362210Y-67188542D01*
X118364334Y-67174224D01*
X118367851Y-67160183D01*
X118372728Y-67146554D01*
X118378917Y-67133469D01*
X118386358Y-67121053D01*
X118394981Y-67109427D01*
X118404702Y-67098702D01*
X118415427Y-67088981D01*
X118427053Y-67080358D01*
X118439469Y-67072917D01*
X118452554Y-67066728D01*
X118466183Y-67061851D01*
X118480224Y-67058334D01*
X118494542Y-67056210D01*
X118509000Y-67055500D01*
X118854000Y-67055500D01*
X118868458Y-67056210D01*
X118868458Y-67056210D01*
G37*
D16*
X118681500Y-67350500D03*
G04 #@! TD*
M02*
