G04 #@! TF.FileFunction,Legend,Top*
%FSLAX46Y46*%
G04 Gerber Fmt 4.6, Leading zero omitted, Abs format (unit mm)*
G04 Created by KiCad (PCBNEW 4.0.7) date Monday, 25 June 2018 'AMt' 00:00:04*
%MOMM*%
%LPD*%
G01*
G04 APERTURE LIST*
%ADD10C,0.100000*%
%ADD11C,0.050000*%
%ADD12C,0.150000*%
%ADD13C,0.120000*%
%ADD14C,0.025000*%
G04 APERTURE END LIST*
D10*
D11*
X124089314Y-73931351D02*
X124089314Y-73550399D01*
X124279790Y-73050399D02*
X124279790Y-73336113D01*
X124279790Y-73193256D02*
X123779790Y-73193256D01*
X123851219Y-73240875D01*
X123898838Y-73288494D01*
X123922648Y-73336113D01*
X123779790Y-72598018D02*
X123779790Y-72836113D01*
X124017886Y-72859923D01*
X123994076Y-72836113D01*
X123970267Y-72788494D01*
X123970267Y-72669447D01*
X123994076Y-72621828D01*
X124017886Y-72598018D01*
X124065505Y-72574209D01*
X124184552Y-72574209D01*
X124232171Y-72598018D01*
X124255981Y-72621828D01*
X124279790Y-72669447D01*
X124279790Y-72788494D01*
X124255981Y-72836113D01*
X124232171Y-72859923D01*
X123779790Y-72431352D02*
X124279790Y-72264685D01*
X123779790Y-72098019D01*
X129455944Y-77048514D02*
X129836896Y-77048514D01*
X130098801Y-77238990D02*
X130194039Y-77238990D01*
X130241658Y-77215181D01*
X130265468Y-77191371D01*
X130313087Y-77119943D01*
X130336896Y-77024705D01*
X130336896Y-76834229D01*
X130313087Y-76786610D01*
X130289277Y-76762800D01*
X130241658Y-76738990D01*
X130146420Y-76738990D01*
X130098801Y-76762800D01*
X130074992Y-76786610D01*
X130051182Y-76834229D01*
X130051182Y-76953276D01*
X130074992Y-77000895D01*
X130098801Y-77024705D01*
X130146420Y-77048514D01*
X130241658Y-77048514D01*
X130289277Y-77024705D01*
X130313087Y-77000895D01*
X130336896Y-76953276D01*
X130479753Y-76738990D02*
X130646420Y-77238990D01*
X130813086Y-76738990D01*
X136209886Y-71797944D02*
X136209886Y-72178896D01*
X136519410Y-72655087D02*
X136519410Y-72416992D01*
X136281314Y-72393182D01*
X136305124Y-72416992D01*
X136328933Y-72464611D01*
X136328933Y-72583658D01*
X136305124Y-72631277D01*
X136281314Y-72655087D01*
X136233695Y-72678896D01*
X136114648Y-72678896D01*
X136067029Y-72655087D01*
X136043219Y-72631277D01*
X136019410Y-72583658D01*
X136019410Y-72464611D01*
X136043219Y-72416992D01*
X136067029Y-72393182D01*
X136519410Y-72821753D02*
X136019410Y-72988420D01*
X136519410Y-73155086D01*
X129048001Y-68514114D02*
X129428953Y-68514114D01*
X129619430Y-68204590D02*
X129928953Y-68204590D01*
X129762287Y-68395067D01*
X129833715Y-68395067D01*
X129881334Y-68418876D01*
X129905144Y-68442686D01*
X129928953Y-68490305D01*
X129928953Y-68609352D01*
X129905144Y-68656971D01*
X129881334Y-68680781D01*
X129833715Y-68704590D01*
X129690858Y-68704590D01*
X129643239Y-68680781D01*
X129619430Y-68656971D01*
X130143239Y-68656971D02*
X130167048Y-68680781D01*
X130143239Y-68704590D01*
X130119429Y-68680781D01*
X130143239Y-68656971D01*
X130143239Y-68704590D01*
X130333715Y-68204590D02*
X130643238Y-68204590D01*
X130476572Y-68395067D01*
X130548000Y-68395067D01*
X130595619Y-68418876D01*
X130619429Y-68442686D01*
X130643238Y-68490305D01*
X130643238Y-68609352D01*
X130619429Y-68656971D01*
X130595619Y-68680781D01*
X130548000Y-68704590D01*
X130405143Y-68704590D01*
X130357524Y-68680781D01*
X130333715Y-68656971D01*
X130786095Y-68204590D02*
X130952762Y-68704590D01*
X131119428Y-68204590D01*
D12*
X132090000Y-67980000D02*
X132090000Y-67930000D01*
X127940000Y-67980000D02*
X127940000Y-67835000D01*
X127940000Y-62830000D02*
X127940000Y-62975000D01*
X132090000Y-62830000D02*
X132090000Y-62975000D01*
X132090000Y-67980000D02*
X127940000Y-67980000D01*
X132090000Y-62830000D02*
X127940000Y-62830000D01*
X132090000Y-67930000D02*
X133490000Y-67930000D01*
D13*
X136045000Y-66890000D02*
X137045000Y-66890000D01*
X137045000Y-65190000D02*
X136045000Y-65190000D01*
X143875000Y-62140000D02*
X141875000Y-62140000D01*
X141875000Y-62140000D02*
X141875000Y-66040000D01*
X143875000Y-62140000D02*
X143875000Y-66040000D01*
X140275000Y-76895000D02*
X142935000Y-76895000D01*
X140275000Y-74295000D02*
X140275000Y-76895000D01*
X142935000Y-74295000D02*
X142935000Y-76895000D01*
X140275000Y-74295000D02*
X142935000Y-74295000D01*
X140275000Y-73025000D02*
X140275000Y-71695000D01*
X140275000Y-71695000D02*
X141605000Y-71695000D01*
X117415000Y-76895000D02*
X120075000Y-76895000D01*
X117415000Y-74295000D02*
X117415000Y-76895000D01*
X120075000Y-74295000D02*
X120075000Y-76895000D01*
X117415000Y-74295000D02*
X120075000Y-74295000D01*
X117415000Y-73025000D02*
X117415000Y-71695000D01*
X117415000Y-71695000D02*
X118745000Y-71695000D01*
X139455000Y-65290000D02*
X139455000Y-64090000D01*
X141215000Y-64090000D02*
X141215000Y-65290000D01*
X121040000Y-65925000D02*
X121040000Y-64725000D01*
X122800000Y-64725000D02*
X122800000Y-65925000D01*
X125644800Y-64725000D02*
X125644800Y-65925000D01*
X123884800Y-65925000D02*
X123884800Y-64725000D01*
X122800000Y-74410000D02*
X122800000Y-75610000D01*
X121040000Y-75610000D02*
X121040000Y-74410000D01*
X121040000Y-70958000D02*
X121040000Y-69758000D01*
X122800000Y-69758000D02*
X122800000Y-70958000D01*
X137296000Y-71132000D02*
X137296000Y-69932000D01*
X139056000Y-69932000D02*
X139056000Y-71132000D01*
X139056000Y-74584000D02*
X139056000Y-75784000D01*
X137296000Y-75784000D02*
X137296000Y-74584000D01*
D12*
X128930400Y-68935600D02*
G75*
G03X131470400Y-68935600I1270000J0D01*
G01*
X126390400Y-76555600D02*
X126390400Y-68935600D01*
X134010400Y-76555600D02*
X126390400Y-76555600D01*
X134010400Y-68935600D02*
X134010400Y-76555600D01*
X126390400Y-68935600D02*
X134010400Y-68935600D01*
D14*
X128717382Y-62006990D02*
X128717382Y-62411752D01*
X128741191Y-62459371D01*
X128765001Y-62483181D01*
X128812620Y-62506990D01*
X128907858Y-62506990D01*
X128955477Y-62483181D01*
X128979286Y-62459371D01*
X129003096Y-62411752D01*
X129003096Y-62006990D01*
X129122144Y-62554610D02*
X129503096Y-62554610D01*
X129907858Y-62506990D02*
X129741191Y-62268895D01*
X129622144Y-62506990D02*
X129622144Y-62006990D01*
X129812620Y-62006990D01*
X129860239Y-62030800D01*
X129884048Y-62054610D01*
X129907858Y-62102229D01*
X129907858Y-62173657D01*
X129884048Y-62221276D01*
X129860239Y-62245086D01*
X129812620Y-62268895D01*
X129622144Y-62268895D01*
X130122144Y-62245086D02*
X130288810Y-62245086D01*
X130360239Y-62506990D02*
X130122144Y-62506990D01*
X130122144Y-62006990D01*
X130360239Y-62006990D01*
X130836429Y-62030800D02*
X130788810Y-62006990D01*
X130717382Y-62006990D01*
X130645953Y-62030800D01*
X130598334Y-62078419D01*
X130574525Y-62126038D01*
X130550715Y-62221276D01*
X130550715Y-62292705D01*
X130574525Y-62387943D01*
X130598334Y-62435562D01*
X130645953Y-62483181D01*
X130717382Y-62506990D01*
X130765001Y-62506990D01*
X130836429Y-62483181D01*
X130860239Y-62459371D01*
X130860239Y-62292705D01*
X130765001Y-62292705D01*
X131336429Y-62506990D02*
X131050715Y-62506990D01*
X131193572Y-62506990D02*
X131193572Y-62006990D01*
X131145953Y-62078419D01*
X131098334Y-62126038D01*
X131050715Y-62149848D01*
X135353563Y-64745371D02*
X135329753Y-64769181D01*
X135258325Y-64792990D01*
X135210706Y-64792990D01*
X135139277Y-64769181D01*
X135091658Y-64721562D01*
X135067849Y-64673943D01*
X135044039Y-64578705D01*
X135044039Y-64507276D01*
X135067849Y-64412038D01*
X135091658Y-64364419D01*
X135139277Y-64316800D01*
X135210706Y-64292990D01*
X135258325Y-64292990D01*
X135329753Y-64316800D01*
X135353563Y-64340610D01*
X135496420Y-64292990D02*
X135782134Y-64292990D01*
X135639277Y-64792990D02*
X135639277Y-64292990D01*
X135948801Y-64792990D02*
X135948801Y-64459657D01*
X135948801Y-64292990D02*
X135924991Y-64316800D01*
X135948801Y-64340610D01*
X135972610Y-64316800D01*
X135948801Y-64292990D01*
X135948801Y-64340610D01*
X136186896Y-64792990D02*
X136186896Y-64459657D01*
X136186896Y-64507276D02*
X136210705Y-64483467D01*
X136258324Y-64459657D01*
X136329753Y-64459657D01*
X136377372Y-64483467D01*
X136401181Y-64531086D01*
X136401181Y-64792990D01*
X136401181Y-64531086D02*
X136424991Y-64483467D01*
X136472610Y-64459657D01*
X136544038Y-64459657D01*
X136591658Y-64483467D01*
X136615467Y-64531086D01*
X136615467Y-64792990D01*
X137044039Y-64769181D02*
X136996420Y-64792990D01*
X136901182Y-64792990D01*
X136853563Y-64769181D01*
X136829753Y-64721562D01*
X136829753Y-64531086D01*
X136853563Y-64483467D01*
X136901182Y-64459657D01*
X136996420Y-64459657D01*
X137044039Y-64483467D01*
X137067848Y-64531086D01*
X137067848Y-64578705D01*
X136829753Y-64626324D01*
X137282134Y-64792990D02*
X137282134Y-64459657D01*
X137282134Y-64554895D02*
X137305943Y-64507276D01*
X137329753Y-64483467D01*
X137377372Y-64459657D01*
X137424991Y-64459657D01*
X137853562Y-64792990D02*
X137567848Y-64792990D01*
X137710705Y-64792990D02*
X137710705Y-64292990D01*
X137663086Y-64364419D01*
X137615467Y-64412038D01*
X137567848Y-64435848D01*
X142582153Y-61948190D02*
X142582153Y-61448190D01*
X142701200Y-61448190D01*
X142772629Y-61472000D01*
X142820248Y-61519619D01*
X142844057Y-61567238D01*
X142867867Y-61662476D01*
X142867867Y-61733905D01*
X142844057Y-61829143D01*
X142820248Y-61876762D01*
X142772629Y-61924381D01*
X142701200Y-61948190D01*
X142582153Y-61948190D01*
X143344057Y-61948190D02*
X143058343Y-61948190D01*
X143201200Y-61948190D02*
X143201200Y-61448190D01*
X143153581Y-61519619D01*
X143105962Y-61567238D01*
X143058343Y-61591048D01*
X140673248Y-70896990D02*
X140673248Y-71254133D01*
X140649438Y-71325562D01*
X140601819Y-71373181D01*
X140530391Y-71396990D01*
X140482772Y-71396990D01*
X141006581Y-70896990D02*
X141101819Y-70896990D01*
X141149438Y-70920800D01*
X141197057Y-70968419D01*
X141220866Y-71063657D01*
X141220866Y-71230324D01*
X141197057Y-71325562D01*
X141149438Y-71373181D01*
X141101819Y-71396990D01*
X141006581Y-71396990D01*
X140958962Y-71373181D01*
X140911343Y-71325562D01*
X140887533Y-71230324D01*
X140887533Y-71063657D01*
X140911343Y-70968419D01*
X140958962Y-70920800D01*
X141006581Y-70896990D01*
X141435153Y-70896990D02*
X141435153Y-71301752D01*
X141458962Y-71349371D01*
X141482772Y-71373181D01*
X141530391Y-71396990D01*
X141625629Y-71396990D01*
X141673248Y-71373181D01*
X141697057Y-71349371D01*
X141720867Y-71301752D01*
X141720867Y-70896990D01*
X141887534Y-70896990D02*
X142173248Y-70896990D01*
X142030391Y-71396990D02*
X142030391Y-70896990D01*
X142601819Y-71396990D02*
X142316105Y-71396990D01*
X142458962Y-71396990D02*
X142458962Y-70896990D01*
X142411343Y-70968419D01*
X142363724Y-71016038D01*
X142316105Y-71039848D01*
X117905306Y-70896990D02*
X117905306Y-71254133D01*
X117881496Y-71325562D01*
X117833877Y-71373181D01*
X117762449Y-71396990D01*
X117714830Y-71396990D01*
X118024353Y-71444610D02*
X118405305Y-71444610D01*
X118524353Y-71396990D02*
X118524353Y-70896990D01*
X118762448Y-71396990D02*
X118762448Y-70896990D01*
X119048162Y-71396990D01*
X119048162Y-70896990D01*
X119548162Y-71396990D02*
X119262448Y-71396990D01*
X119405305Y-71396990D02*
X119405305Y-70896990D01*
X119357686Y-70968419D01*
X119310067Y-71016038D01*
X119262448Y-71039848D01*
X139863582Y-61948190D02*
X139696915Y-61710095D01*
X139577868Y-61948190D02*
X139577868Y-61448190D01*
X139768344Y-61448190D01*
X139815963Y-61472000D01*
X139839772Y-61495810D01*
X139863582Y-61543429D01*
X139863582Y-61614857D01*
X139839772Y-61662476D01*
X139815963Y-61686286D01*
X139768344Y-61710095D01*
X139577868Y-61710095D01*
X140077868Y-61948190D02*
X140077868Y-61448190D01*
X140196915Y-61448190D01*
X140268344Y-61472000D01*
X140315963Y-61519619D01*
X140339772Y-61567238D01*
X140363582Y-61662476D01*
X140363582Y-61733905D01*
X140339772Y-61829143D01*
X140315963Y-61876762D01*
X140268344Y-61924381D01*
X140196915Y-61948190D01*
X140077868Y-61948190D01*
X140506439Y-61448190D02*
X140673106Y-61948190D01*
X140839772Y-61448190D01*
X141268343Y-61948190D02*
X140982629Y-61948190D01*
X141125486Y-61948190D02*
X141125486Y-61448190D01*
X141077867Y-61519619D01*
X141030248Y-61567238D01*
X140982629Y-61591048D01*
X121346982Y-62913390D02*
X121180315Y-62675295D01*
X121061268Y-62913390D02*
X121061268Y-62413390D01*
X121251744Y-62413390D01*
X121299363Y-62437200D01*
X121323172Y-62461010D01*
X121346982Y-62508629D01*
X121346982Y-62580057D01*
X121323172Y-62627676D01*
X121299363Y-62651486D01*
X121251744Y-62675295D01*
X121061268Y-62675295D01*
X121561268Y-62913390D02*
X121561268Y-62413390D01*
X121680315Y-62413390D01*
X121751744Y-62437200D01*
X121799363Y-62484819D01*
X121823172Y-62532438D01*
X121846982Y-62627676D01*
X121846982Y-62699105D01*
X121823172Y-62794343D01*
X121799363Y-62841962D01*
X121751744Y-62889581D01*
X121680315Y-62913390D01*
X121561268Y-62913390D01*
X121989839Y-62413390D02*
X122156506Y-62913390D01*
X122323172Y-62413390D01*
X122466029Y-62461010D02*
X122489839Y-62437200D01*
X122537458Y-62413390D01*
X122656505Y-62413390D01*
X122704124Y-62437200D01*
X122727934Y-62461010D01*
X122751743Y-62508629D01*
X122751743Y-62556248D01*
X122727934Y-62627676D01*
X122442220Y-62913390D01*
X122751743Y-62913390D01*
X124218772Y-62913390D02*
X124052105Y-62675295D01*
X123933058Y-62913390D02*
X123933058Y-62413390D01*
X124123534Y-62413390D01*
X124171153Y-62437200D01*
X124194962Y-62461010D01*
X124218772Y-62508629D01*
X124218772Y-62580057D01*
X124194962Y-62627676D01*
X124171153Y-62651486D01*
X124123534Y-62675295D01*
X123933058Y-62675295D01*
X124409248Y-62889581D02*
X124480677Y-62913390D01*
X124599724Y-62913390D01*
X124647343Y-62889581D01*
X124671153Y-62865771D01*
X124694962Y-62818152D01*
X124694962Y-62770533D01*
X124671153Y-62722914D01*
X124647343Y-62699105D01*
X124599724Y-62675295D01*
X124504486Y-62651486D01*
X124456867Y-62627676D01*
X124433058Y-62603867D01*
X124409248Y-62556248D01*
X124409248Y-62508629D01*
X124433058Y-62461010D01*
X124456867Y-62437200D01*
X124504486Y-62413390D01*
X124623534Y-62413390D01*
X124694962Y-62437200D01*
X125194962Y-62865771D02*
X125171152Y-62889581D01*
X125099724Y-62913390D01*
X125052105Y-62913390D01*
X124980676Y-62889581D01*
X124933057Y-62841962D01*
X124909248Y-62794343D01*
X124885438Y-62699105D01*
X124885438Y-62627676D01*
X124909248Y-62532438D01*
X124933057Y-62484819D01*
X124980676Y-62437200D01*
X125052105Y-62413390D01*
X125099724Y-62413390D01*
X125171152Y-62437200D01*
X125194962Y-62461010D01*
X125671152Y-62913390D02*
X125385438Y-62913390D01*
X125528295Y-62913390D02*
X125528295Y-62413390D01*
X125480676Y-62484819D01*
X125433057Y-62532438D01*
X125385438Y-62556248D01*
X120876190Y-76212380D02*
X120638095Y-76379047D01*
X120876190Y-76498094D02*
X120376190Y-76498094D01*
X120376190Y-76307618D01*
X120400000Y-76259999D01*
X120423810Y-76236190D01*
X120471429Y-76212380D01*
X120542857Y-76212380D01*
X120590476Y-76236190D01*
X120614286Y-76259999D01*
X120638095Y-76307618D01*
X120638095Y-76498094D01*
X120923810Y-76117142D02*
X120923810Y-75736190D01*
X120376190Y-75688571D02*
X120876190Y-75521904D01*
X120376190Y-75355238D01*
X120376190Y-75093333D02*
X120376190Y-74998095D01*
X120400000Y-74950476D01*
X120447619Y-74902857D01*
X120542857Y-74879048D01*
X120709524Y-74879048D01*
X120804762Y-74902857D01*
X120852381Y-74950476D01*
X120876190Y-74998095D01*
X120876190Y-75093333D01*
X120852381Y-75140952D01*
X120804762Y-75188571D01*
X120709524Y-75212381D01*
X120542857Y-75212381D01*
X120447619Y-75188571D01*
X120400000Y-75140952D01*
X120376190Y-75093333D01*
X120376190Y-74664761D02*
X120780952Y-74664761D01*
X120828571Y-74640952D01*
X120852381Y-74617142D01*
X120876190Y-74569523D01*
X120876190Y-74474285D01*
X120852381Y-74426666D01*
X120828571Y-74402857D01*
X120780952Y-74379047D01*
X120376190Y-74379047D01*
X120376190Y-74212380D02*
X120376190Y-73926666D01*
X120876190Y-74069523D02*
X120376190Y-74069523D01*
X120876190Y-73498095D02*
X120876190Y-73783809D01*
X120876190Y-73640952D02*
X120376190Y-73640952D01*
X120447619Y-73688571D01*
X120495238Y-73736190D01*
X120519048Y-73783809D01*
X120876190Y-71915980D02*
X120638095Y-72082647D01*
X120876190Y-72201694D02*
X120376190Y-72201694D01*
X120376190Y-72011218D01*
X120400000Y-71963599D01*
X120423810Y-71939790D01*
X120471429Y-71915980D01*
X120542857Y-71915980D01*
X120590476Y-71939790D01*
X120614286Y-71963599D01*
X120638095Y-72011218D01*
X120638095Y-72201694D01*
X120923810Y-71820742D02*
X120923810Y-71439790D01*
X120376190Y-71392171D02*
X120876190Y-71225504D01*
X120376190Y-71058838D01*
X120376190Y-70796933D02*
X120376190Y-70701695D01*
X120400000Y-70654076D01*
X120447619Y-70606457D01*
X120542857Y-70582648D01*
X120709524Y-70582648D01*
X120804762Y-70606457D01*
X120852381Y-70654076D01*
X120876190Y-70701695D01*
X120876190Y-70796933D01*
X120852381Y-70844552D01*
X120804762Y-70892171D01*
X120709524Y-70915981D01*
X120542857Y-70915981D01*
X120447619Y-70892171D01*
X120400000Y-70844552D01*
X120376190Y-70796933D01*
X120376190Y-70368361D02*
X120780952Y-70368361D01*
X120828571Y-70344552D01*
X120852381Y-70320742D01*
X120876190Y-70273123D01*
X120876190Y-70177885D01*
X120852381Y-70130266D01*
X120828571Y-70106457D01*
X120780952Y-70082647D01*
X120376190Y-70082647D01*
X120376190Y-69915980D02*
X120376190Y-69630266D01*
X120876190Y-69773123D02*
X120376190Y-69773123D01*
X120423810Y-69487409D02*
X120400000Y-69463599D01*
X120376190Y-69415980D01*
X120376190Y-69296933D01*
X120400000Y-69249314D01*
X120423810Y-69225504D01*
X120471429Y-69201695D01*
X120519048Y-69201695D01*
X120590476Y-69225504D01*
X120876190Y-69511218D01*
X120876190Y-69201695D01*
X139926190Y-71687380D02*
X139688095Y-71854047D01*
X139926190Y-71973094D02*
X139426190Y-71973094D01*
X139426190Y-71782618D01*
X139450000Y-71734999D01*
X139473810Y-71711190D01*
X139521429Y-71687380D01*
X139592857Y-71687380D01*
X139640476Y-71711190D01*
X139664286Y-71734999D01*
X139688095Y-71782618D01*
X139688095Y-71973094D01*
X139973810Y-71592142D02*
X139973810Y-71211190D01*
X139426190Y-71163571D02*
X139926190Y-70996904D01*
X139426190Y-70830238D01*
X139426190Y-70568333D02*
X139426190Y-70473095D01*
X139450000Y-70425476D01*
X139497619Y-70377857D01*
X139592857Y-70354048D01*
X139759524Y-70354048D01*
X139854762Y-70377857D01*
X139902381Y-70425476D01*
X139926190Y-70473095D01*
X139926190Y-70568333D01*
X139902381Y-70615952D01*
X139854762Y-70663571D01*
X139759524Y-70687381D01*
X139592857Y-70687381D01*
X139497619Y-70663571D01*
X139450000Y-70615952D01*
X139426190Y-70568333D01*
X139426190Y-70139761D02*
X139830952Y-70139761D01*
X139878571Y-70115952D01*
X139902381Y-70092142D01*
X139926190Y-70044523D01*
X139926190Y-69949285D01*
X139902381Y-69901666D01*
X139878571Y-69877857D01*
X139830952Y-69854047D01*
X139426190Y-69854047D01*
X139426190Y-69687380D02*
X139426190Y-69401666D01*
X139926190Y-69544523D02*
X139426190Y-69544523D01*
X139426190Y-69282618D02*
X139426190Y-68973095D01*
X139616667Y-69139761D01*
X139616667Y-69068333D01*
X139640476Y-69020714D01*
X139664286Y-68996904D01*
X139711905Y-68973095D01*
X139830952Y-68973095D01*
X139878571Y-68996904D01*
X139902381Y-69020714D01*
X139926190Y-69068333D01*
X139926190Y-69211190D01*
X139902381Y-69258809D01*
X139878571Y-69282618D01*
X139926190Y-76132380D02*
X139688095Y-76299047D01*
X139926190Y-76418094D02*
X139426190Y-76418094D01*
X139426190Y-76227618D01*
X139450000Y-76179999D01*
X139473810Y-76156190D01*
X139521429Y-76132380D01*
X139592857Y-76132380D01*
X139640476Y-76156190D01*
X139664286Y-76179999D01*
X139688095Y-76227618D01*
X139688095Y-76418094D01*
X139973810Y-76037142D02*
X139973810Y-75656190D01*
X139426190Y-75608571D02*
X139926190Y-75441904D01*
X139426190Y-75275238D01*
X139426190Y-75013333D02*
X139426190Y-74918095D01*
X139450000Y-74870476D01*
X139497619Y-74822857D01*
X139592857Y-74799048D01*
X139759524Y-74799048D01*
X139854762Y-74822857D01*
X139902381Y-74870476D01*
X139926190Y-74918095D01*
X139926190Y-75013333D01*
X139902381Y-75060952D01*
X139854762Y-75108571D01*
X139759524Y-75132381D01*
X139592857Y-75132381D01*
X139497619Y-75108571D01*
X139450000Y-75060952D01*
X139426190Y-75013333D01*
X139426190Y-74584761D02*
X139830952Y-74584761D01*
X139878571Y-74560952D01*
X139902381Y-74537142D01*
X139926190Y-74489523D01*
X139926190Y-74394285D01*
X139902381Y-74346666D01*
X139878571Y-74322857D01*
X139830952Y-74299047D01*
X139426190Y-74299047D01*
X139426190Y-74132380D02*
X139426190Y-73846666D01*
X139926190Y-73989523D02*
X139426190Y-73989523D01*
X139426190Y-73441904D02*
X139426190Y-73679999D01*
X139664286Y-73703809D01*
X139640476Y-73679999D01*
X139616667Y-73632380D01*
X139616667Y-73513333D01*
X139640476Y-73465714D01*
X139664286Y-73441904D01*
X139711905Y-73418095D01*
X139830952Y-73418095D01*
X139878571Y-73441904D01*
X139902381Y-73465714D01*
X139926190Y-73513333D01*
X139926190Y-73632380D01*
X139902381Y-73679999D01*
X139878571Y-73703809D01*
X129559134Y-73786181D02*
X129630563Y-73809990D01*
X129749610Y-73809990D01*
X129797229Y-73786181D01*
X129821039Y-73762371D01*
X129844848Y-73714752D01*
X129844848Y-73667133D01*
X129821039Y-73619514D01*
X129797229Y-73595705D01*
X129749610Y-73571895D01*
X129654372Y-73548086D01*
X129606753Y-73524276D01*
X129582944Y-73500467D01*
X129559134Y-73452848D01*
X129559134Y-73405229D01*
X129582944Y-73357610D01*
X129606753Y-73333800D01*
X129654372Y-73309990D01*
X129773420Y-73309990D01*
X129844848Y-73333800D01*
X130011515Y-73309990D02*
X130130562Y-73809990D01*
X130225800Y-73452848D01*
X130321038Y-73809990D01*
X130440086Y-73309990D01*
X130892467Y-73809990D02*
X130606753Y-73809990D01*
X130749610Y-73809990D02*
X130749610Y-73309990D01*
X130701991Y-73381419D01*
X130654372Y-73429038D01*
X130606753Y-73452848D01*
M02*
