G04 #@! TF.GenerationSoftware,KiCad,Pcbnew,(5.0.0-3-g5ebb6b6)*
G04 #@! TF.CreationDate,2019-03-06T19:57:38+00:00*
G04 #@! TF.ProjectId,QFN16,51464E31362E6B696361645F70636200,rev?*
G04 #@! TF.SameCoordinates,Original*
G04 #@! TF.FileFunction,Legend,Top*
G04 #@! TF.FilePolarity,Positive*
%FSLAX46Y46*%
G04 Gerber Fmt 4.6, Leading zero omitted, Abs format (unit mm)*
G04 Created by KiCad (PCBNEW (5.0.0-3-g5ebb6b6)) date Wednesday, 06 March 2019 at 19:57:38*
%MOMM*%
%LPD*%
G01*
G04 APERTURE LIST*
%ADD10C,0.125000*%
%ADD11C,0.120000*%
%ADD12C,0.050000*%
G04 APERTURE END LIST*
D10*
X143668761Y-56106190D02*
X143383047Y-56106190D01*
X143525904Y-56106190D02*
X143525904Y-55606190D01*
X143478285Y-55677619D01*
X143430666Y-55725238D01*
X143383047Y-55749047D01*
X144097333Y-55606190D02*
X144002095Y-55606190D01*
X143954476Y-55630000D01*
X143930666Y-55653809D01*
X143883047Y-55725238D01*
X143859238Y-55820476D01*
X143859238Y-56010952D01*
X143883047Y-56058571D01*
X143906857Y-56082380D01*
X143954476Y-56106190D01*
X144049714Y-56106190D01*
X144097333Y-56082380D01*
X144121142Y-56058571D01*
X144144952Y-56010952D01*
X144144952Y-55891904D01*
X144121142Y-55844285D01*
X144097333Y-55820476D01*
X144049714Y-55796666D01*
X143954476Y-55796666D01*
X143906857Y-55820476D01*
X143883047Y-55844285D01*
X143859238Y-55891904D01*
X143668761Y-58646190D02*
X143383047Y-58646190D01*
X143525904Y-58646190D02*
X143525904Y-58146190D01*
X143478285Y-58217619D01*
X143430666Y-58265238D01*
X143383047Y-58289047D01*
X144121142Y-58146190D02*
X143883047Y-58146190D01*
X143859238Y-58384285D01*
X143883047Y-58360476D01*
X143930666Y-58336666D01*
X144049714Y-58336666D01*
X144097333Y-58360476D01*
X144121142Y-58384285D01*
X144144952Y-58431904D01*
X144144952Y-58550952D01*
X144121142Y-58598571D01*
X144097333Y-58622380D01*
X144049714Y-58646190D01*
X143930666Y-58646190D01*
X143883047Y-58622380D01*
X143859238Y-58598571D01*
X143668761Y-61186190D02*
X143383047Y-61186190D01*
X143525904Y-61186190D02*
X143525904Y-60686190D01*
X143478285Y-60757619D01*
X143430666Y-60805238D01*
X143383047Y-60829047D01*
X144097333Y-60852857D02*
X144097333Y-61186190D01*
X143978285Y-60662380D02*
X143859238Y-61019523D01*
X144168761Y-61019523D01*
X143668761Y-63726190D02*
X143383047Y-63726190D01*
X143525904Y-63726190D02*
X143525904Y-63226190D01*
X143478285Y-63297619D01*
X143430666Y-63345238D01*
X143383047Y-63369047D01*
X143835428Y-63226190D02*
X144144952Y-63226190D01*
X143978285Y-63416666D01*
X144049714Y-63416666D01*
X144097333Y-63440476D01*
X144121142Y-63464285D01*
X144144952Y-63511904D01*
X144144952Y-63630952D01*
X144121142Y-63678571D01*
X144097333Y-63702380D01*
X144049714Y-63726190D01*
X143906857Y-63726190D01*
X143859238Y-63702380D01*
X143835428Y-63678571D01*
X143668761Y-66266190D02*
X143383047Y-66266190D01*
X143525904Y-66266190D02*
X143525904Y-65766190D01*
X143478285Y-65837619D01*
X143430666Y-65885238D01*
X143383047Y-65909047D01*
X143859238Y-65813809D02*
X143883047Y-65790000D01*
X143930666Y-65766190D01*
X144049714Y-65766190D01*
X144097333Y-65790000D01*
X144121142Y-65813809D01*
X144144952Y-65861428D01*
X144144952Y-65909047D01*
X144121142Y-65980476D01*
X143835428Y-66266190D01*
X144144952Y-66266190D01*
X143668761Y-68806190D02*
X143383047Y-68806190D01*
X143525904Y-68806190D02*
X143525904Y-68306190D01*
X143478285Y-68377619D01*
X143430666Y-68425238D01*
X143383047Y-68449047D01*
X144144952Y-68806190D02*
X143859238Y-68806190D01*
X144002095Y-68806190D02*
X144002095Y-68306190D01*
X143954476Y-68377619D01*
X143906857Y-68425238D01*
X143859238Y-68449047D01*
X143668761Y-71346190D02*
X143383047Y-71346190D01*
X143525904Y-71346190D02*
X143525904Y-70846190D01*
X143478285Y-70917619D01*
X143430666Y-70965238D01*
X143383047Y-70989047D01*
X143978285Y-70846190D02*
X144025904Y-70846190D01*
X144073523Y-70870000D01*
X144097333Y-70893809D01*
X144121142Y-70941428D01*
X144144952Y-71036666D01*
X144144952Y-71155714D01*
X144121142Y-71250952D01*
X144097333Y-71298571D01*
X144073523Y-71322380D01*
X144025904Y-71346190D01*
X143978285Y-71346190D01*
X143930666Y-71322380D01*
X143906857Y-71298571D01*
X143883047Y-71250952D01*
X143859238Y-71155714D01*
X143859238Y-71036666D01*
X143883047Y-70941428D01*
X143906857Y-70893809D01*
X143930666Y-70870000D01*
X143978285Y-70846190D01*
X143668761Y-73886190D02*
X143764000Y-73886190D01*
X143811619Y-73862380D01*
X143835428Y-73838571D01*
X143883047Y-73767142D01*
X143906857Y-73671904D01*
X143906857Y-73481428D01*
X143883047Y-73433809D01*
X143859238Y-73410000D01*
X143811619Y-73386190D01*
X143716380Y-73386190D01*
X143668761Y-73410000D01*
X143644952Y-73433809D01*
X143621142Y-73481428D01*
X143621142Y-73600476D01*
X143644952Y-73648095D01*
X143668761Y-73671904D01*
X143716380Y-73695714D01*
X143811619Y-73695714D01*
X143859238Y-73671904D01*
X143883047Y-73648095D01*
X143906857Y-73600476D01*
X133048380Y-73600476D02*
X133000761Y-73576666D01*
X132976952Y-73552857D01*
X132953142Y-73505238D01*
X132953142Y-73481428D01*
X132976952Y-73433809D01*
X133000761Y-73410000D01*
X133048380Y-73386190D01*
X133143619Y-73386190D01*
X133191238Y-73410000D01*
X133215047Y-73433809D01*
X133238857Y-73481428D01*
X133238857Y-73505238D01*
X133215047Y-73552857D01*
X133191238Y-73576666D01*
X133143619Y-73600476D01*
X133048380Y-73600476D01*
X133000761Y-73624285D01*
X132976952Y-73648095D01*
X132953142Y-73695714D01*
X132953142Y-73790952D01*
X132976952Y-73838571D01*
X133000761Y-73862380D01*
X133048380Y-73886190D01*
X133143619Y-73886190D01*
X133191238Y-73862380D01*
X133215047Y-73838571D01*
X133238857Y-73790952D01*
X133238857Y-73695714D01*
X133215047Y-73648095D01*
X133191238Y-73624285D01*
X133143619Y-73600476D01*
X132929333Y-70846190D02*
X133262666Y-70846190D01*
X133048380Y-71346190D01*
X133191238Y-68179190D02*
X133096000Y-68179190D01*
X133048380Y-68203000D01*
X133024571Y-68226809D01*
X132976952Y-68298238D01*
X132953142Y-68393476D01*
X132953142Y-68583952D01*
X132976952Y-68631571D01*
X133000761Y-68655380D01*
X133048380Y-68679190D01*
X133143619Y-68679190D01*
X133191238Y-68655380D01*
X133215047Y-68631571D01*
X133238857Y-68583952D01*
X133238857Y-68464904D01*
X133215047Y-68417285D01*
X133191238Y-68393476D01*
X133143619Y-68369666D01*
X133048380Y-68369666D01*
X133000761Y-68393476D01*
X132976952Y-68417285D01*
X132953142Y-68464904D01*
X133215047Y-65639190D02*
X132976952Y-65639190D01*
X132953142Y-65877285D01*
X132976952Y-65853476D01*
X133024571Y-65829666D01*
X133143619Y-65829666D01*
X133191238Y-65853476D01*
X133215047Y-65877285D01*
X133238857Y-65924904D01*
X133238857Y-66043952D01*
X133215047Y-66091571D01*
X133191238Y-66115380D01*
X133143619Y-66139190D01*
X133024571Y-66139190D01*
X132976952Y-66115380D01*
X132953142Y-66091571D01*
X133191238Y-63265857D02*
X133191238Y-63599190D01*
X133072190Y-63075380D02*
X132953142Y-63432523D01*
X133262666Y-63432523D01*
X132929333Y-60686190D02*
X133238857Y-60686190D01*
X133072190Y-60876666D01*
X133143619Y-60876666D01*
X133191238Y-60900476D01*
X133215047Y-60924285D01*
X133238857Y-60971904D01*
X133238857Y-61090952D01*
X133215047Y-61138571D01*
X133191238Y-61162380D01*
X133143619Y-61186190D01*
X133000761Y-61186190D01*
X132953142Y-61162380D01*
X132929333Y-61138571D01*
X132953142Y-58193809D02*
X132976952Y-58170000D01*
X133024571Y-58146190D01*
X133143619Y-58146190D01*
X133191238Y-58170000D01*
X133215047Y-58193809D01*
X133238857Y-58241428D01*
X133238857Y-58289047D01*
X133215047Y-58360476D01*
X132929333Y-58646190D01*
X133238857Y-58646190D01*
X133238857Y-56106190D02*
X132953142Y-56106190D01*
X133096000Y-56106190D02*
X133096000Y-55606190D01*
X133048380Y-55677619D01*
X133000761Y-55725238D01*
X132953142Y-55749047D01*
D11*
G04 #@! TO.C,J_EP1*
X137100000Y-57210000D02*
X139760000Y-57210000D01*
X137100000Y-57150000D02*
X137100000Y-57210000D01*
X139760000Y-57150000D02*
X139760000Y-57210000D01*
X137100000Y-57150000D02*
X139760000Y-57150000D01*
X137100000Y-55880000D02*
X137100000Y-54550000D01*
X137100000Y-54550000D02*
X138430000Y-54550000D01*
G04 #@! TO.C,J_EP2*
X137100000Y-72330000D02*
X138430000Y-72330000D01*
X137100000Y-73660000D02*
X137100000Y-72330000D01*
X137100000Y-74930000D02*
X139760000Y-74930000D01*
X139760000Y-74930000D02*
X139760000Y-74990000D01*
X137100000Y-74930000D02*
X137100000Y-74990000D01*
X137100000Y-74990000D02*
X139760000Y-74990000D01*
G04 #@! TO.C,J_QFN16*
X140901338Y-64257348D02*
X141413991Y-64770000D01*
X141413991Y-64770000D02*
X140901338Y-65282652D01*
X135958662Y-65282652D02*
X135446009Y-64770000D01*
X135446009Y-64770000D02*
X135958662Y-64257348D01*
X137917348Y-67241338D02*
X138430000Y-67753991D01*
X138430000Y-67753991D02*
X138942652Y-67241338D01*
X138942652Y-62298662D02*
X138430000Y-61786009D01*
G04 #@! TO.C,J_DIP16*
D12*
X149915714Y-56876190D02*
X149915714Y-57233333D01*
X149891904Y-57304761D01*
X149844285Y-57352380D01*
X149772857Y-57376190D01*
X149725238Y-57376190D01*
X150034761Y-57423809D02*
X150415714Y-57423809D01*
X150534761Y-57376190D02*
X150534761Y-56876190D01*
X150653809Y-56876190D01*
X150725238Y-56900000D01*
X150772857Y-56947619D01*
X150796666Y-56995238D01*
X150820476Y-57090476D01*
X150820476Y-57161904D01*
X150796666Y-57257142D01*
X150772857Y-57304761D01*
X150725238Y-57352380D01*
X150653809Y-57376190D01*
X150534761Y-57376190D01*
X151034761Y-57376190D02*
X151034761Y-56876190D01*
X151272857Y-57376190D02*
X151272857Y-56876190D01*
X151463333Y-56876190D01*
X151510952Y-56900000D01*
X151534761Y-56923809D01*
X151558571Y-56971428D01*
X151558571Y-57042857D01*
X151534761Y-57090476D01*
X151510952Y-57114285D01*
X151463333Y-57138095D01*
X151272857Y-57138095D01*
X152034761Y-57376190D02*
X151749047Y-57376190D01*
X151891904Y-57376190D02*
X151891904Y-56876190D01*
X151844285Y-56947619D01*
X151796666Y-56995238D01*
X151749047Y-57019047D01*
X152463333Y-56876190D02*
X152368095Y-56876190D01*
X152320476Y-56900000D01*
X152296666Y-56923809D01*
X152249047Y-56995238D01*
X152225238Y-57090476D01*
X152225238Y-57280952D01*
X152249047Y-57328571D01*
X152272857Y-57352380D01*
X152320476Y-57376190D01*
X152415714Y-57376190D01*
X152463333Y-57352380D01*
X152487142Y-57328571D01*
X152510952Y-57280952D01*
X152510952Y-57161904D01*
X152487142Y-57114285D01*
X152463333Y-57090476D01*
X152415714Y-57066666D01*
X152320476Y-57066666D01*
X152272857Y-57090476D01*
X152249047Y-57114285D01*
X152225238Y-57161904D01*
G04 #@! TO.C,J_EP1*
X150296666Y-55606190D02*
X150296666Y-55963333D01*
X150272857Y-56034761D01*
X150225238Y-56082380D01*
X150153809Y-56106190D01*
X150106190Y-56106190D01*
X150415714Y-56153809D02*
X150796666Y-56153809D01*
X150915714Y-55844285D02*
X151082380Y-55844285D01*
X151153809Y-56106190D02*
X150915714Y-56106190D01*
X150915714Y-55606190D01*
X151153809Y-55606190D01*
X151368095Y-56106190D02*
X151368095Y-55606190D01*
X151558571Y-55606190D01*
X151606190Y-55630000D01*
X151630000Y-55653809D01*
X151653809Y-55701428D01*
X151653809Y-55772857D01*
X151630000Y-55820476D01*
X151606190Y-55844285D01*
X151558571Y-55868095D01*
X151368095Y-55868095D01*
X152130000Y-56106190D02*
X151844285Y-56106190D01*
X151987142Y-56106190D02*
X151987142Y-55606190D01*
X151939523Y-55677619D01*
X151891904Y-55725238D01*
X151844285Y-55749047D01*
G04 #@! TO.C,J_EP2*
X150296666Y-61956190D02*
X150296666Y-62313333D01*
X150272857Y-62384761D01*
X150225238Y-62432380D01*
X150153809Y-62456190D01*
X150106190Y-62456190D01*
X150415714Y-62503809D02*
X150796666Y-62503809D01*
X150915714Y-62194285D02*
X151082380Y-62194285D01*
X151153809Y-62456190D02*
X150915714Y-62456190D01*
X150915714Y-61956190D01*
X151153809Y-61956190D01*
X151368095Y-62456190D02*
X151368095Y-61956190D01*
X151558571Y-61956190D01*
X151606190Y-61980000D01*
X151630000Y-62003809D01*
X151653809Y-62051428D01*
X151653809Y-62122857D01*
X151630000Y-62170476D01*
X151606190Y-62194285D01*
X151558571Y-62218095D01*
X151368095Y-62218095D01*
X151844285Y-62003809D02*
X151868095Y-61980000D01*
X151915714Y-61956190D01*
X152034761Y-61956190D01*
X152082380Y-61980000D01*
X152106190Y-62003809D01*
X152130000Y-62051428D01*
X152130000Y-62099047D01*
X152106190Y-62170476D01*
X151820476Y-62456190D01*
X152130000Y-62456190D01*
G04 #@! TO.C,J_QFN16*
X147840803Y-59823578D02*
X147588265Y-60076116D01*
X147520921Y-60109788D01*
X147453578Y-60109788D01*
X147386234Y-60076116D01*
X147352563Y-60042444D01*
X147537757Y-60294982D02*
X147807131Y-60564356D01*
X148127013Y-60884238D02*
X148110177Y-60833730D01*
X148110177Y-60766387D01*
X148110177Y-60665372D01*
X148093341Y-60614864D01*
X148059669Y-60581192D01*
X147992326Y-60682208D02*
X147975490Y-60631700D01*
X147975490Y-60564356D01*
X148025998Y-60480177D01*
X148143849Y-60362326D01*
X148228028Y-60311818D01*
X148295372Y-60311818D01*
X148345879Y-60328654D01*
X148413223Y-60395998D01*
X148430059Y-60446505D01*
X148430059Y-60513849D01*
X148379551Y-60598028D01*
X148261700Y-60715879D01*
X148177521Y-60766387D01*
X148110177Y-60766387D01*
X148059669Y-60749551D01*
X147992326Y-60682208D01*
X148598417Y-60917910D02*
X148480566Y-60800059D01*
X148295372Y-60985253D02*
X148648925Y-60631700D01*
X148817284Y-60800059D01*
X148598417Y-61288299D02*
X148951971Y-60934746D01*
X148800448Y-61490330D01*
X149154001Y-61136776D01*
X149154001Y-61843883D02*
X148951971Y-61641852D01*
X149052986Y-61742868D02*
X149406539Y-61389314D01*
X149322360Y-61406150D01*
X149255017Y-61406150D01*
X149204509Y-61389314D01*
X149810600Y-61793375D02*
X149743257Y-61726032D01*
X149692749Y-61709196D01*
X149659078Y-61709196D01*
X149574898Y-61726032D01*
X149490719Y-61776539D01*
X149356032Y-61911226D01*
X149339196Y-61961734D01*
X149339196Y-61995406D01*
X149356032Y-62045913D01*
X149423375Y-62113257D01*
X149473883Y-62130093D01*
X149507555Y-62130093D01*
X149558062Y-62113257D01*
X149642242Y-62029078D01*
X149659078Y-61978570D01*
X149659078Y-61944898D01*
X149642242Y-61894391D01*
X149574898Y-61827047D01*
X149524391Y-61810211D01*
X149490719Y-61810211D01*
X149440211Y-61827047D01*
G04 #@! TD*
M02*
