M48
;DRILL file {KiCad (5.0.0-3-g5ebb6b6)} date Wednesday, 06 March 2019 at 19:57:25
;FORMAT={-:-/ absolute / metric / decimal}
FMAT,2
METRIC,TZ
T1C0.200
T2C0.800
T3C1.000
%
G90
G05
M71
T1
X136.874Y-64.77
X137.652Y-63.992
X137.652Y-65.548
X138.43Y-63.214
X138.43Y-64.77
X138.43Y-66.326
X139.208Y-63.992
X139.208Y-65.548
X139.986Y-64.77
T2
X134.62Y-55.88
X134.62Y-58.42
X134.62Y-60.96
X134.62Y-63.5
X134.62Y-66.04
X134.62Y-68.58
X134.62Y-71.12
X134.62Y-73.66
X142.24Y-55.88
X142.24Y-58.42
X142.24Y-60.96
X142.24Y-63.5
X142.24Y-66.04
X142.24Y-68.58
X142.24Y-71.12
X142.24Y-73.66
T3
X138.43Y-73.66
X138.43Y-55.88
T0
M30
