 0
SECTION
 2
HEADER
 0
ENDSEC
 0
SECTION
 2
TABLES
 0
ENDSEC
 0
SECTION
 2
BLOCKS
0
BLOCK
70
0
2
ST_48_ADI
10
0
20
0
30
0
999
##### Poly 1 ####
0
POLYLINE
5
36
70
1
8
2
6
CONTINUOUS
66
1
10
0
20
0
30
0
39
.06299
0
VERTEX
8
2
6
CONTINUOUS
 10
-.2151
 20
-.0614
 30
0
0
VERTEX
8
2
6
CONTINUOUS
 10
-.2151
 20
-.0764
 30
0
0
VERTEX
8
2
6
CONTINUOUS
 10
-.2051
 20
-.0764
 30
0
0
VERTEX
8
2
6
CONTINUOUS
 10
-.2051
 20
-.0614
 30
0
0
SEQEND
0
3DFACE
5
49
8
0
6
CONTINUOUS
 10
-.2151
 20
-.0614
 30
.06299
 11
-.2151
 21
-.0764
 31
.06299
 12
-.2051
 22
-.0764
 32
.06299
 13
-.2051
 23
-.0614
 33
.06299
0
3DFACE
5
49
8
0
6
CONTINUOUS
 10
-.2151
 20
-.0614
 30
0
 11
-.2151
 21
-.0764
 31
0
 12
-.2051
 22
-.0764
 32
0
 13
-.2051
 23
-.0614
 33
0
999
##### Poly 14 ####
0
POLYLINE
5
36
70
1
8
2
6
CONTINUOUS
66
1
10
0
20
0
30
0
39
.06299
0
VERTEX
8
2
6
CONTINUOUS
 10
.02203
 20
-.2051
 30
0
0
VERTEX
8
2
6
CONTINUOUS
 10
.02203
 20
-.2151
 30
0
0
VERTEX
8
2
6
CONTINUOUS
 10
.03703
 20
-.2151
 30
0
0
VERTEX
8
2
6
CONTINUOUS
 10
.03703
 20
-.2051
 30
0
0
SEQEND
0
3DFACE
5
49
8
0
6
CONTINUOUS
 10
.02203
 20
-.2051
 30
.06299
 11
.02203
 21
-.2151
 31
.06299
 12
.03703
 22
-.2151
 32
.06299
 13
.03703
 23
-.2051
 33
.06299
0
3DFACE
5
49
8
0
6
CONTINUOUS
 10
.02203
 20
-.2051
 30
0
 11
.02203
 21
-.2151
 31
0
 12
.03703
 22
-.2151
 32
0
 13
.03703
 23
-.2051
 33
0
999
##### Poly 27 ####
0
POLYLINE
5
36
70
1
8
2
6
CONTINUOUS
66
1
10
0
20
0
30
0
39
.06299
0
VERTEX
8
2
6
CONTINUOUS
 10
.2151
 20
-.00234
 30
0
0
VERTEX
8
2
6
CONTINUOUS
 10
.2151
 20
-.01734
 30
0
0
VERTEX
8
2
6
CONTINUOUS
 10
.2051
 20
-.01734
 30
0
0
VERTEX
8
2
6
CONTINUOUS
 10
.2051
 20
-.00234
 30
0
0
SEQEND
0
3DFACE
5
49
8
0
6
CONTINUOUS
 10
.2151
 20
-.00234
 30
.06299
 11
.2151
 21
-.01734
 31
.06299
 12
.2051
 22
-.01734
 32
.06299
 13
.2051
 23
-.00234
 33
.06299
0
3DFACE
5
49
8
0
6
CONTINUOUS
 10
.2151
 20
-.00234
 30
0
 11
.2151
 21
-.01734
 31
0
 12
.2051
 22
-.01734
 32
0
 13
.2051
 23
-.00234
 33
0
999
##### Poly 40 ####
0
POLYLINE
5
36
70
1
8
2
6
CONTINUOUS
66
1
10
0
20
0
30
0
39
.06299
0
VERTEX
8
2
6
CONTINUOUS
 10
.04171
 20
.2051
 30
0
0
VERTEX
8
2
6
CONTINUOUS
 10
.04171
 20
.2151
 30
0
0
VERTEX
8
2
6
CONTINUOUS
 10
.05671
 20
.2151
 30
0
0
VERTEX
8
2
6
CONTINUOUS
 10
.05671
 20
.2051
 30
0
0
SEQEND
0
3DFACE
5
49
8
0
6
CONTINUOUS
 10
.04171
 20
.2051
 30
.06299
 11
.04171
 21
.2151
 31
.06299
 12
.05671
 22
.2151
 32
.06299
 13
.05671
 23
.2051
 33
.06299
0
3DFACE
5
49
8
0
6
CONTINUOUS
 10
.04171
 20
.2051
 30
0
 11
.04171
 21
.2151
 31
0
 12
.05671
 22
.2151
 32
0
 13
.05671
 23
.2051
 33
0
999
##### Poly 121 ####
0
POLYLINE
5
36
70
1
8
8
6
CONTINUOUS
66
1
10
0
20
0
30
0
39
.06299
0
VERTEX
8
8
6
CONTINUOUS
 10
-.1478
 20
-.1478
 30
0
0
VERTEX
8
8
6
CONTINUOUS
 10
-.1478
 20
-.12358
 30
0
0
VERTEX
8
8
6
CONTINUOUS
 10
-.2051
 20
-.12358
 30
0
0
VERTEX
8
8
6
CONTINUOUS
 10
-.2051
 20
.12358
 30
0
0
VERTEX
8
8
6
CONTINUOUS
 10
-.1478
 20
.12358
 30
0
0
VERTEX
8
8
6
CONTINUOUS
 10
-.1478
 20
.1478
 30
0
0
VERTEX
8
8
6
CONTINUOUS
 10
-.12358
 20
.1478
 30
0
0
VERTEX
8
8
6
CONTINUOUS
 10
-.12358
 20
.2051
 30
0
0
VERTEX
8
8
6
CONTINUOUS
 10
.12358
 20
.2051
 30
0
0
VERTEX
8
8
6
CONTINUOUS
 10
.12358
 20
.1478
 30
0
0
VERTEX
8
8
6
CONTINUOUS
 10
.1478
 20
.1478
 30
0
0
VERTEX
8
8
6
CONTINUOUS
 10
.1478
 20
.12358
 30
0
0
VERTEX
8
8
6
CONTINUOUS
 10
.2051
 20
.12358
 30
0
0
VERTEX
8
8
6
CONTINUOUS
 10
.2051
 20
-.12358
 30
0
0
VERTEX
8
8
6
CONTINUOUS
 10
.1478
 20
-.12358
 30
0
0
VERTEX
8
8
6
CONTINUOUS
 10
.1478
 20
-.1478
 30
0
0
VERTEX
8
8
6
CONTINUOUS
 10
.12358
 20
-.1478
 30
0
0
VERTEX
8
8
6
CONTINUOUS
 10
.12358
 20
-.2051
 30
0
0
VERTEX
8
8
6
CONTINUOUS
 10
-.12358
 20
-.2051
 30
0
0
VERTEX
8
8
6
CONTINUOUS
 10
-.12358
 20
-.1478
 30
0
0
SEQEND
999
##### Poly 148 ####
0
POLYLINE
5
36
70
1
8
23
6
CONTINUOUS
66
1
10
0
20
0
30
0
39
.06299
0
VERTEX
8
23
6
CONTINUOUS
 10
-.2201
 20
-.2201
 30
0
0
VERTEX
8
23
6
CONTINUOUS
 10
-.2201
 20
.2201
 30
0
0
VERTEX
8
23
6
CONTINUOUS
 10
.2201
 20
.2201
 30
0
0
VERTEX
8
23
6
CONTINUOUS
 10
.2201
 20
-.2201
 30
0
0
SEQEND
0
3DFACE
5
49
8
0
6
CONTINUOUS
 10
-.2201
 20
-.2201
 30
.06299
 11
-.2201
 21
.2201
 31
.06299
 12
.2201
 22
.2201
 32
.06299
 13
.2201
 23
-.2201
 33
.06299
0
3DFACE
5
49
8
0
6
CONTINUOUS
 10
-.2201
 20
-.2201
 30
0
 11
-.2201
 21
.2201
 31
0
 12
.2201
 22
.2201
 32
0
 13
.2201
 23
-.2201
 33
0
0
ENDBLK
0
ENDSEC
0
SECTION
2
ENTITIES
 0
INSERT
 8
0
 2
ST_48_ADI
 10
0
 20
0
 30
0
 41
1
 42
1
 43
1
0
ENDSEC
 0
EOF

