 0
SECTION
 2
HEADER
 0
ENDSEC
 0
SECTION
 2
TABLES
 0
ENDSEC
 0
SECTION
 2
BLOCKS
0
BLOCK
70
0
2
CIR-TSSOP-24
10
0
20
0
30
0
999
##### Poly 1 ####
0
POLYLINE
5
36
70
1
8
2
6
CONTINUOUS
66
1
10
0
20
0
30
0
39
.043
0
VERTEX
8
2
6
CONTINUOUS
 10
-.162
 20
-.08207
 30
0
0
VERTEX
8
2
6
CONTINUOUS
 10
-.162
 20
-.09707
 30
0
0
VERTEX
8
2
6
CONTINUOUS
 10
-.152
 20
-.09707
 30
0
0
VERTEX
8
2
6
CONTINUOUS
 10
-.152
 20
-.08207
 30
0
0
SEQEND
0
3DFACE
5
49
8
0
6
CONTINUOUS
 10
-.162
 20
-.08207
 30
.043
 11
-.162
 21
-.09707
 31
.043
 12
-.152
 22
-.09707
 32
.043
 13
-.152
 23
-.08207
 33
.043
0
3DFACE
5
49
8
0
6
CONTINUOUS
 10
-.162
 20
-.08207
 30
0
 11
-.162
 21
-.09707
 31
0
 12
-.152
 22
-.09707
 32
0
 13
-.152
 23
-.08207
 33
0
999
##### Poly 74 ####
0
POLYLINE
5
36
70
1
8
2
6
CONTINUOUS
66
1
10
0
20
0
30
0
39
.043
0
VERTEX
8
2
6
CONTINUOUS
 10
.162
 20
.04589
 30
0
0
VERTEX
8
2
6
CONTINUOUS
 10
.162
 20
.03089
 30
0
0
VERTEX
8
2
6
CONTINUOUS
 10
.152
 20
.03089
 30
0
0
VERTEX
8
2
6
CONTINUOUS
 10
.152
 20
.04589
 30
0
0
SEQEND
0
3DFACE
5
49
8
0
6
CONTINUOUS
 10
.162
 20
.04589
 30
.043
 11
.162
 21
.03089
 31
.043
 12
.152
 22
.03089
 32
.043
 13
.152
 23
.04589
 33
.043
0
3DFACE
5
49
8
0
6
CONTINUOUS
 10
.162
 20
.04589
 30
0
 11
.162
 21
.03089
 31
0
 12
.152
 22
.03089
 32
0
 13
.152
 23
.04589
 33
0
999
##### Poly 183 ####
0
POLYLINE
5
36
70
1
8
8
6
CONTINUOUS
66
1
10
0
20
0
30
0
39
.043
0
VERTEX
8
8
6
CONTINUOUS
 10
-.152
 20
-.15775
 30
0
0
VERTEX
8
8
6
CONTINUOUS
 10
-.152
 20
.15775
 30
0
0
VERTEX
8
8
6
CONTINUOUS
 10
-.0985
 20
.15775
 30
0
0
VERTEX
8
8
6
CONTINUOUS
 10
-.0985
 20
.1655
 30
0
0
VERTEX
8
8
6
CONTINUOUS
 10
.0985
 20
.1655
 30
0
0
VERTEX
8
8
6
CONTINUOUS
 10
.0985
 20
.15775
 30
0
0
VERTEX
8
8
6
CONTINUOUS
 10
.152
 20
.15775
 30
0
0
VERTEX
8
8
6
CONTINUOUS
 10
.152
 20
-.15775
 30
0
0
VERTEX
8
8
6
CONTINUOUS
 10
.0985
 20
-.15775
 30
0
0
VERTEX
8
8
6
CONTINUOUS
 10
.0985
 20
-.1655
 30
0
0
VERTEX
8
8
6
CONTINUOUS
 10
-.0985
 20
-.1655
 30
0
0
VERTEX
8
8
6
CONTINUOUS
 10
-.0985
 20
-.15775
 30
0
0
SEQEND
999
##### Poly 201 ####
0
POLYLINE
5
36
70
1
8
23
6
CONTINUOUS
66
1
10
0
20
0
30
0
39
.043
0
VERTEX
8
23
6
CONTINUOUS
 10
-.167
 20
-.1655
 30
0
0
VERTEX
8
23
6
CONTINUOUS
 10
-.167
 20
.1655
 30
0
0
VERTEX
8
23
6
CONTINUOUS
 10
.167
 20
.1655
 30
0
0
VERTEX
8
23
6
CONTINUOUS
 10
.167
 20
-.1655
 30
0
0
SEQEND
0
3DFACE
5
49
8
0
6
CONTINUOUS
 10
-.167
 20
-.1655
 30
.043
 11
-.167
 21
.1655
 31
.043
 12
.167
 22
.1655
 32
.043
 13
.167
 23
-.1655
 33
.043
0
3DFACE
5
49
8
0
6
CONTINUOUS
 10
-.167
 20
-.1655
 30
0
 11
-.167
 21
.1655
 31
0
 12
.167
 22
.1655
 32
0
 13
.167
 23
-.1655
 33
0
0
ENDBLK
0
ENDSEC
0
SECTION
2
ENTITIES
 0
INSERT
 8
0
 2
CIR-TSSOP-24
 10
0
 20
0
 30
0
 41
1
 42
1
 43
1
0
ENDSEC
 0
EOF

