 0
SECTION
 2
HEADER
 0
ENDSEC
 0
SECTION
 2
TABLES
 0
ENDSEC
 0
SECTION
 2
BLOCKS
0
BLOCK
70
0
2
CIR-TSSOP-24-L
10
0
20
0
30
0
999
##### Poly 1 ####
0
POLYLINE
5
36
70
1
8
2
6
CONTINUOUS
66
1
10
0
20
0
30
0
39
.043
0
VERTEX
8
2
6
CONTINUOUS
 10
-.154
 20
-.08207
 30
0
0
VERTEX
8
2
6
CONTINUOUS
 10
-.154
 20
-.09707
 30
0
0
VERTEX
8
2
6
CONTINUOUS
 10
-.144
 20
-.09707
 30
0
0
VERTEX
8
2
6
CONTINUOUS
 10
-.144
 20
-.08207
 30
0
0
SEQEND
0
3DFACE
5
49
8
0
6
CONTINUOUS
 10
-.154
 20
-.08207
 30
.043
 11
-.154
 21
-.09707
 31
.043
 12
-.144
 22
-.09707
 32
.043
 13
-.144
 23
-.08207
 33
.043
0
3DFACE
5
49
8
0
6
CONTINUOUS
 10
-.154
 20
-.08207
 30
0
 11
-.154
 21
-.09707
 31
0
 12
-.144
 22
-.09707
 32
0
 13
-.144
 23
-.08207
 33
0
999
##### Poly 74 ####
0
POLYLINE
5
36
70
1
8
2
6
CONTINUOUS
66
1
10
0
20
0
30
0
39
.043
0
VERTEX
8
2
6
CONTINUOUS
 10
.154
 20
.04589
 30
0
0
VERTEX
8
2
6
CONTINUOUS
 10
.154
 20
.03089
 30
0
0
VERTEX
8
2
6
CONTINUOUS
 10
.144
 20
.03089
 30
0
0
VERTEX
8
2
6
CONTINUOUS
 10
.144
 20
.04589
 30
0
0
SEQEND
0
3DFACE
5
49
8
0
6
CONTINUOUS
 10
.154
 20
.04589
 30
.043
 11
.154
 21
.03089
 31
.043
 12
.144
 22
.03089
 32
.043
 13
.144
 23
.04589
 33
.043
0
3DFACE
5
49
8
0
6
CONTINUOUS
 10
.154
 20
.04589
 30
0
 11
.154
 21
.03089
 31
0
 12
.144
 22
.03089
 32
0
 13
.144
 23
.04589
 33
0
999
##### Poly 183 ####
0
POLYLINE
5
36
70
1
8
8
6
CONTINUOUS
66
1
10
0
20
0
30
0
39
.043
0
VERTEX
8
8
6
CONTINUOUS
 10
-.138
 20
-.15075
 30
0
0
VERTEX
8
8
6
CONTINUOUS
 10
-.138
 20
.15075
 30
0
0
VERTEX
8
8
6
CONTINUOUS
 10
-.0925
 20
.15075
 30
0
0
VERTEX
8
8
6
CONTINUOUS
 10
-.0925
 20
.1595
 30
0
0
VERTEX
8
8
6
CONTINUOUS
 10
.0925
 20
.1595
 30
0
0
VERTEX
8
8
6
CONTINUOUS
 10
.0925
 20
.15075
 30
0
0
VERTEX
8
8
6
CONTINUOUS
 10
.138
 20
.15075
 30
0
0
VERTEX
8
8
6
CONTINUOUS
 10
.138
 20
-.15075
 30
0
0
VERTEX
8
8
6
CONTINUOUS
 10
.0925
 20
-.15075
 30
0
0
VERTEX
8
8
6
CONTINUOUS
 10
.0925
 20
-.1595
 30
0
0
VERTEX
8
8
6
CONTINUOUS
 10
-.0925
 20
-.1595
 30
0
0
VERTEX
8
8
6
CONTINUOUS
 10
-.0925
 20
-.15075
 30
0
0
SEQEND
999
##### Poly 201 ####
0
POLYLINE
5
36
70
1
8
23
6
CONTINUOUS
66
1
10
0
20
0
30
0
39
.043
0
VERTEX
8
23
6
CONTINUOUS
 10
-.159
 20
-.1655
 30
0
0
VERTEX
8
23
6
CONTINUOUS
 10
-.159
 20
.1655
 30
0
0
VERTEX
8
23
6
CONTINUOUS
 10
.159
 20
.1655
 30
0
0
VERTEX
8
23
6
CONTINUOUS
 10
.159
 20
-.1655
 30
0
0
SEQEND
0
3DFACE
5
49
8
0
6
CONTINUOUS
 10
-.159
 20
-.1655
 30
.043
 11
-.159
 21
.1655
 31
.043
 12
.159
 22
.1655
 32
.043
 13
.159
 23
-.1655
 33
.043
0
3DFACE
5
49
8
0
6
CONTINUOUS
 10
-.159
 20
-.1655
 30
0
 11
-.159
 21
.1655
 31
0
 12
.159
 22
.1655
 32
0
 13
.159
 23
-.1655
 33
0
0
ENDBLK
0
ENDSEC
0
SECTION
2
ENTITIES
 0
INSERT
 8
0
 2
CIR-TSSOP-24-L
 10
0
 20
0
 30
0
 41
1
 42
1
 43
1
0
ENDSEC
 0
EOF

