G04 #@! TF.FileFunction,Legend,Bot*
%FSLAX46Y46*%
G04 Gerber Fmt 4.6, Leading zero omitted, Abs format (unit mm)*
G04 Created by KiCad (PCBNEW 4.0.7) date Monday, 25 June 2018 'AMt' 00:00:04*
%MOMM*%
%LPD*%
G01*
G04 APERTURE LIST*
%ADD10C,0.100000*%
%ADD11C,0.120000*%
%ADD12C,0.025000*%
%ADD13C,0.150000*%
G04 APERTURE END LIST*
D10*
D11*
X116710000Y-63624000D02*
X118260000Y-63624000D01*
X122050000Y-63624000D02*
X120500000Y-63624000D01*
X117470000Y-68964000D02*
X118260000Y-68964000D01*
X121290000Y-68964000D02*
X120500000Y-68964000D01*
X122050000Y-63624000D02*
X122050000Y-68204000D01*
X122050000Y-68204000D02*
X121290000Y-68964000D01*
X117470000Y-68964000D02*
X116710000Y-68204000D01*
X116710000Y-68204000D02*
X116710000Y-63624000D01*
X138300000Y-63624000D02*
X139850000Y-63624000D01*
X143640000Y-63624000D02*
X142090000Y-63624000D01*
X139060000Y-68964000D02*
X139850000Y-68964000D01*
X142880000Y-68964000D02*
X142090000Y-68964000D01*
X143640000Y-63624000D02*
X143640000Y-68204000D01*
X143640000Y-68204000D02*
X142880000Y-68964000D01*
X139060000Y-68964000D02*
X138300000Y-68204000D01*
X138300000Y-68204000D02*
X138300000Y-63624000D01*
X136602000Y-66550000D02*
X136602000Y-63550000D01*
X136602000Y-63550000D02*
X124002000Y-63550000D01*
X124002000Y-63550000D02*
X124002000Y-66550000D01*
X124002000Y-73150000D02*
X124002000Y-76150000D01*
X124002000Y-76150000D02*
X136602000Y-76150000D01*
X136602000Y-76150000D02*
X136602000Y-73150000D01*
D12*
X120228419Y-62002171D02*
X120252229Y-62025981D01*
X120323657Y-62049790D01*
X120371276Y-62049790D01*
X120442705Y-62025981D01*
X120490324Y-61978362D01*
X120514133Y-61930743D01*
X120537943Y-61835505D01*
X120537943Y-61764076D01*
X120514133Y-61668838D01*
X120490324Y-61621219D01*
X120442705Y-61573600D01*
X120371276Y-61549790D01*
X120323657Y-61549790D01*
X120252229Y-61573600D01*
X120228419Y-61597410D01*
X119918895Y-61549790D02*
X119823657Y-61549790D01*
X119776038Y-61573600D01*
X119728419Y-61621219D01*
X119704610Y-61716457D01*
X119704610Y-61883124D01*
X119728419Y-61978362D01*
X119776038Y-62025981D01*
X119823657Y-62049790D01*
X119918895Y-62049790D01*
X119966514Y-62025981D01*
X120014133Y-61978362D01*
X120037943Y-61883124D01*
X120037943Y-61716457D01*
X120014133Y-61621219D01*
X119966514Y-61573600D01*
X119918895Y-61549790D01*
X119490323Y-61549790D02*
X119490323Y-61954552D01*
X119466514Y-62002171D01*
X119442704Y-62025981D01*
X119395085Y-62049790D01*
X119299847Y-62049790D01*
X119252228Y-62025981D01*
X119228419Y-62002171D01*
X119204609Y-61954552D01*
X119204609Y-61549790D01*
X119037942Y-61549790D02*
X118752228Y-61549790D01*
X118895085Y-62049790D02*
X118895085Y-61549790D01*
X118323657Y-62049790D02*
X118609371Y-62049790D01*
X118466514Y-62049790D02*
X118466514Y-61549790D01*
X118514133Y-61621219D01*
X118561752Y-61668838D01*
X118609371Y-61692648D01*
D13*
X117101429Y-69293048D02*
X117101429Y-70054953D01*
X117482381Y-69674001D02*
X116720476Y-69674001D01*
D12*
X141485085Y-61849771D02*
X141508895Y-61873581D01*
X141580323Y-61897390D01*
X141627942Y-61897390D01*
X141699371Y-61873581D01*
X141746990Y-61825962D01*
X141770799Y-61778343D01*
X141794609Y-61683105D01*
X141794609Y-61611676D01*
X141770799Y-61516438D01*
X141746990Y-61468819D01*
X141699371Y-61421200D01*
X141627942Y-61397390D01*
X141580323Y-61397390D01*
X141508895Y-61421200D01*
X141485085Y-61445010D01*
X141270799Y-61897390D02*
X141270799Y-61397390D01*
X141032704Y-61897390D02*
X141032704Y-61397390D01*
X140746990Y-61897390D01*
X140746990Y-61397390D01*
X140246990Y-61897390D02*
X140532704Y-61897390D01*
X140389847Y-61897390D02*
X140389847Y-61397390D01*
X140437466Y-61468819D01*
X140485085Y-61516438D01*
X140532704Y-61540248D01*
D13*
X138691429Y-69293048D02*
X138691429Y-70054953D01*
X139072381Y-69674001D02*
X138310476Y-69674001D01*
D12*
X130334533Y-62506990D02*
X130572628Y-62506990D01*
X130572628Y-62006990D01*
X129905962Y-62506990D02*
X130191676Y-62506990D01*
X130048819Y-62506990D02*
X130048819Y-62006990D01*
X130096438Y-62078419D01*
X130144057Y-62126038D01*
X130191676Y-62149848D01*
M02*
