%
M48
M72
T01C0.01969
T02C0.03600
T03C0.03740
T04C0.04000
T05C0.06500
%
T01
X30800Y17334
X36200Y24134
X24200Y33134
X31200Y42634
X36100Y63034
X55500Y43134
X57200Y38634
X66300Y42934
X75200Y36234
X80300Y42234
X88900Y43634
X94800Y38734
X102100Y25234
X120700Y21634
X121200Y26634
X125900Y27634
X123400Y31634
X119900Y38634
X123600Y41634
X120800Y45134
X115800Y44034
X123200Y52734
X124700Y57034
X120900Y59534
X143200Y56634
X151200Y56934
X164300Y61434
X173700Y64634
X151700Y38134
X169200Y36234
X177000Y24234
X155200Y22934
X147200Y23934
X131200Y29434
X81200Y25134
X66400Y20134
X62000Y19834
X55800Y18634
X81900Y55534
X62000Y106448
X66400Y106748
X55800Y105248
X36200Y110748
X30800Y103948
X24200Y119748
X31200Y129248
X36100Y149648
X55500Y129748
X57200Y125248
X66300Y129548
X75200Y122848
X80300Y128848
X88900Y130248
X94800Y125348
X102100Y111848
X120700Y108248
X121200Y113248
X125900Y114248
X123400Y118248
X119900Y125248
X123600Y128248
X120800Y131748
X115800Y130648
X123200Y139348
X124700Y143648
X120900Y146148
X143200Y143248
X151200Y143548
X164300Y148048
X173700Y151248
X151700Y124748
X147200Y110548
X155200Y109548
X169200Y122848
X177000Y110848
X221031Y106114
X230431Y109314
X243531Y113814
X251531Y114114
X270031Y113714
X273831Y111214
X271531Y118014
X273931Y125614
X271131Y129114
X274831Y132114
X278931Y126714
X271331Y139114
X268831Y143114
X273531Y144114
X274031Y149114
X263531Y141314
X247531Y146814
X239531Y147814
X225531Y134514
X217731Y146514
X243031Y132614
X292631Y145514
X299931Y132014
X305831Y127114
X314431Y128514
X319531Y134514
X328431Y127814
X337531Y132114
X339231Y127614
X358531Y146614
X363931Y153414
X370531Y137614
X363531Y128114
X358631Y107714
X312831Y115214
X313531Y145614
X328331Y150614
X332731Y150914
X338931Y152114
X358631Y194328
X363531Y214728
X370531Y224228
X358531Y233228
X363931Y240028
X338931Y238728
X332731Y237528
X328331Y237228
X313531Y232228
X319531Y221128
X314431Y215128
X305831Y213728
X299931Y218628
X292631Y232128
X274031Y235728
X273531Y230728
X268831Y229728
X271331Y225728
X274831Y218728
X271131Y215728
X273931Y212228
X278931Y213328
X271531Y204628
X270031Y200328
X273831Y197828
X251531Y200728
X243531Y200428
X230431Y195928
X221031Y192728
X243031Y219228
X247531Y233428
X239531Y234428
X225531Y221128
X217731Y233128
X173700Y237862
X164300Y234662
X151200Y230162
X143200Y229862
X124700Y230262
X120900Y232762
X123200Y225962
X120800Y218362
X123600Y214862
X119900Y211862
X115800Y217262
X123400Y204862
X125900Y200862
X121200Y199862
X120700Y194862
X131200Y202662
X147200Y197162
X155200Y196162
X169200Y209462
X177000Y197462
X151700Y211362
X102100Y198462
X94800Y211962
X88900Y216862
X80300Y215462
X75200Y209462
X66300Y216162
X57200Y211862
X55500Y216362
X36200Y197362
X30800Y190562
X24200Y206362
X31200Y215862
X36100Y236262
X81900Y228762
X81200Y198362
X66400Y193362
X62000Y193062
X55800Y191862
X81900Y142148
X81200Y111748
X131200Y116048
X217731Y59900
X225531Y47900
X243031Y46000
X247531Y60200
X239531Y61200
X263531Y54700
X268831Y56500
X271331Y52500
X273531Y57500
X274031Y62500
X274831Y45500
X271131Y42500
X273931Y39000
X278931Y40100
X271531Y31400
X270031Y27100
X273831Y24600
X251531Y27500
X243531Y27200
X230431Y22700
X221031Y19500
X292631Y58900
X299931Y45400
X305831Y40500
X314431Y41900
X319531Y47900
X328431Y41200
X337531Y45500
X339231Y41000
X358631Y21100
X363531Y41500
X370531Y51000
X358531Y60000
X363931Y66800
X338931Y65500
X332731Y64300
X328331Y64000
X313531Y59000
X312831Y28600
X312831Y201828
X328431Y214428
X337531Y218728
X339231Y214228
X358631Y280943
X363531Y301343
X370531Y310843
X358531Y319843
X363931Y326643
X338931Y325343
X332731Y324143
X328331Y323843
X313531Y318843
X319531Y307743
X314431Y301743
X305831Y300343
X299931Y305243
X292631Y318743
X274031Y322343
X273531Y317343
X268831Y316343
X271331Y312343
X274831Y305343
X271131Y302343
X273931Y298843
X278931Y299943
X271531Y291243
X270031Y286943
X273831Y284443
X251531Y287343
X243531Y287043
X230431Y282543
X221031Y279343
X243031Y305843
X247531Y320043
X239531Y321043
X225531Y307743
X217731Y319743
X173700Y324476
X164300Y321276
X151200Y316776
X143200Y316476
X124700Y316876
X120900Y319376
X123200Y312576
X120800Y304976
X123600Y301476
X119900Y298476
X115800Y303876
X123400Y291476
X125900Y287476
X121200Y286476
X120700Y281476
X131200Y289276
X147200Y283776
X155200Y282776
X151700Y297976
X169200Y296076
X177000Y284076
X102100Y285076
X94800Y298576
X88900Y303476
X80300Y302076
X75200Y296076
X66300Y302776
X57200Y298476
X55500Y302976
X36100Y322876
X31200Y302476
X24200Y292976
X36200Y283976
X30800Y277176
X55800Y278476
X62000Y279676
X66400Y279976
X81200Y284976
X81900Y315376
X263531Y314543
X312831Y288443
X328431Y301043
X337531Y305343
X339231Y300843
X263531Y227928
T02
X259531Y245728
X249531Y245728
X239531Y245728
X229531Y245728
X219531Y245728
X219531Y272343
X229531Y272343
X239531Y272343
X249531Y272343
X259531Y272343
X269531Y272343
X279531Y272343
X289531Y272343
X299531Y272343
X309531Y272343
X319531Y272343
X329531Y272343
X339531Y272343
X349531Y272343
X359531Y272343
X359531Y245728
X349531Y245728
X339531Y245728
X329531Y245728
X319531Y245728
X309531Y245728
X299531Y245728
X289531Y245728
X279531Y245728
X269531Y245728
X269531Y185728
X279531Y185728
X289531Y185728
X299531Y185728
X309531Y185728
X319531Y185728
X329531Y185728
X339531Y185728
X349531Y185728
X359531Y185728
X359531Y159114
X349531Y159114
X339531Y159114
X329531Y159114
X319531Y159114
X309531Y159114
X299531Y159114
X289531Y159114
X279531Y159114
X269531Y159114
X259531Y159114
X249531Y159114
X239531Y159114
X229531Y159114
X219531Y159114
X219531Y185728
X229531Y185728
X239531Y185728
X249531Y185728
X259531Y185728
X175200Y184862
X165200Y184862
X155200Y184862
X145200Y184862
X135200Y184862
X125200Y184862
X115200Y184862
X105200Y184862
X95200Y184862
X85200Y184862
X75200Y184862
X65200Y184862
X55200Y184862
X45200Y184862
X35200Y184862
X35200Y158248
X45200Y158248
X55200Y158248
X65200Y158248
X75200Y158248
X85200Y158248
X95200Y158248
X105200Y158248
X115200Y158248
X125200Y158248
X135200Y158248
X145200Y158248
X155200Y158248
X165200Y158248
X175200Y158248
X175200Y98248
X165200Y98248
X155200Y98248
X145200Y98248
X135200Y98248
X125200Y98248
X115200Y98248
X105200Y98248
X95200Y98248
X85200Y98248
X75200Y98248
X65200Y98248
X55200Y98248
X45200Y98248
X35200Y98248
X35200Y71634
X45200Y71634
X55200Y71634
X65200Y71634
X75200Y71634
X85200Y71634
X95200Y71634
X105200Y71634
X115200Y71634
X125200Y71634
X135200Y71634
X145200Y71634
X155200Y71634
X165200Y71634
X175200Y71634
X219531Y72500
X229531Y72500
X239531Y72500
X249531Y72500
X259531Y72500
X269531Y72500
X279531Y72500
X289531Y72500
X299531Y72500
X309531Y72500
X319531Y72500
X329531Y72500
X339531Y72500
X349531Y72500
X359531Y72500
X359531Y99114
X349531Y99114
X339531Y99114
X329531Y99114
X319531Y99114
X309531Y99114
X299531Y99114
X289531Y99114
X279531Y99114
X269531Y99114
X259531Y99114
X249531Y99114
X239531Y99114
X229531Y99114
X219531Y99114
X219531Y12500
X229531Y12500
X239531Y12500
X249531Y12500
X259531Y12500
X269531Y12500
X279531Y12500
X289531Y12500
X299531Y12500
X309531Y12500
X319531Y12500
X329531Y12500
X339531Y12500
X349531Y12500
X359531Y12500
X175200Y11634
X165200Y11634
X155200Y11634
X145200Y11634
X135200Y11634
X125200Y11634
X115200Y11634
X105200Y11634
X95200Y11634
X85200Y11634
X75200Y11634
X65200Y11634
X55200Y11634
X45200Y11634
X35200Y11634
X35200Y244862
X45200Y244862
X55200Y244862
X65200Y244862
X75200Y244862
X85200Y244862
X95200Y244862
X105200Y244862
X115200Y244862
X125200Y244862
X135200Y244862
X145200Y244862
X155200Y244862
X165200Y244862
X175200Y244862
X175200Y271476
X165200Y271476
X155200Y271476
X145200Y271476
X135200Y271476
X125200Y271476
X115200Y271476
X105200Y271476
X95200Y271476
X85200Y271476
X75200Y271476
X65200Y271476
X55200Y271476
X45200Y271476
X35200Y271476
X35200Y331476
X45200Y331476
X55200Y331476
X65200Y331476
X75200Y331476
X85200Y331476
X95200Y331476
X105200Y331476
X115200Y331476
X125200Y331476
X135200Y331476
X145200Y331476
X155200Y331476
X165200Y331476
X175200Y331476
X219531Y332343
X229531Y332343
X239531Y332343
X249531Y332343
X259531Y332343
X269531Y332343
X279531Y332343
X289531Y332343
X299531Y332343
X309531Y332343
X319531Y332343
X329531Y332343
X339531Y332343
X349531Y332343
X359531Y332343
T03
X358148Y311005
X358148Y293682
X358148Y224391
X358148Y207068
X358148Y137776
X358148Y120454
X358148Y51162
X358148Y33839
X36583Y32972
X36583Y50294
X36583Y119586
X36583Y136909
X36583Y206200
X36583Y223523
X36583Y292814
X36583Y310137
T04
X174800Y311476
X184800Y311476
X184800Y301476
X174800Y301476
X174800Y291476
X184800Y291476
X209931Y292343
X219931Y292343
X219931Y302343
X209931Y302343
X209931Y312343
X219931Y312343
X219931Y225728
X209931Y225728
X209931Y215728
X219931Y215728
X219931Y205728
X209931Y205728
X184800Y204862
X174800Y204862
X174800Y214862
X184800Y214862
X184800Y224862
X174800Y224862
X174800Y138248
X184800Y138248
X184800Y128248
X174800Y128248
X174800Y118248
X184800Y118248
X209931Y119114
X219931Y119114
X219931Y129114
X209931Y129114
X209931Y139114
X219931Y139114
X219931Y52500
X209931Y52500
X209931Y42500
X219931Y42500
X219931Y32500
X209931Y32500
X184800Y31634
X174800Y31634
X174800Y41634
X174800Y51634
X184800Y51634
X184800Y41634
T05
X25200Y11634
X25200Y71634
X25200Y98248
X25200Y158248
X25200Y184862
X25200Y244862
X25200Y271476
X25200Y331476
X185200Y331476
X209531Y332343
X209531Y272343
X185200Y271476
X185200Y244862
X209531Y245728
X209531Y185728
X185200Y184862
X209531Y159114
X185200Y158248
X185200Y98248
X209531Y99114
X209531Y72500
X185200Y71634
X185200Y11634
X209531Y12500
X369531Y12500
X369531Y72500
X369531Y99114
X369531Y159114
X369531Y185728
X369531Y245728
X369531Y272343
X369531Y332343
M30
