G04 #@! TF.GenerationSoftware,KiCad,Pcbnew,(5.0.0-3-g5ebb6b6)*
G04 #@! TF.CreationDate,2019-01-26T00:17:38+00:00*
G04 #@! TF.ProjectId,QFN24_DIP,51464E32345F4449502E6B696361645F,rev?*
G04 #@! TF.SameCoordinates,Original*
G04 #@! TF.FileFunction,Copper,L2,Bot,Signal*
G04 #@! TF.FilePolarity,Positive*
%FSLAX46Y46*%
G04 Gerber Fmt 4.6, Leading zero omitted, Abs format (unit mm)*
G04 Created by KiCad (PCBNEW (5.0.0-3-g5ebb6b6)) date Saturday, 26 January 2019 at 00:17:38*
%MOMM*%
%LPD*%
G01*
G04 APERTURE LIST*
G04 #@! TA.AperFunction,ComponentPad*
%ADD10R,1.700000X1.700000*%
G04 #@! TD*
G04 #@! TA.AperFunction,ComponentPad*
%ADD11O,1.700000X1.700000*%
G04 #@! TD*
G04 #@! TA.AperFunction,ViaPad*
%ADD12C,0.500000*%
G04 #@! TD*
G04 #@! TA.AperFunction,Conductor*
%ADD13C,0.100000*%
G04 #@! TD*
G04 #@! TA.AperFunction,Conductor*
%ADD14C,2.100000*%
G04 #@! TD*
G04 #@! TA.AperFunction,Conductor*
%ADD15C,0.500000*%
G04 #@! TD*
G04 #@! TA.AperFunction,Conductor*
%ADD16C,0.254000*%
G04 #@! TD*
G04 APERTURE END LIST*
D10*
G04 #@! TO.P,J1,1*
G04 #@! TO.N,/1*
X101600000Y-76200000D03*
D11*
G04 #@! TO.P,J1,2*
G04 #@! TO.N,/2*
X101600000Y-78740000D03*
G04 #@! TO.P,J1,3*
G04 #@! TO.N,/3*
X101600000Y-81280000D03*
G04 #@! TO.P,J1,4*
G04 #@! TO.N,/4*
X101600000Y-83820000D03*
G04 #@! TO.P,J1,5*
G04 #@! TO.N,/5*
X101600000Y-86360000D03*
G04 #@! TO.P,J1,6*
G04 #@! TO.N,/6*
X101600000Y-88900000D03*
G04 #@! TO.P,J1,7*
G04 #@! TO.N,/7*
X101600000Y-91440000D03*
G04 #@! TO.P,J1,8*
G04 #@! TO.N,/8*
X101600000Y-93980000D03*
G04 #@! TO.P,J1,9*
G04 #@! TO.N,/9*
X101600000Y-96520000D03*
G04 #@! TO.P,J1,10*
G04 #@! TO.N,/10*
X101600000Y-99060000D03*
G04 #@! TO.P,J1,11*
G04 #@! TO.N,/11*
X101600000Y-101600000D03*
G04 #@! TO.P,J1,12*
G04 #@! TO.N,/12*
X101600000Y-104140000D03*
G04 #@! TD*
G04 #@! TO.P,J2,12*
G04 #@! TO.N,/24*
X114300000Y-76200000D03*
G04 #@! TO.P,J2,11*
G04 #@! TO.N,/23*
X114300000Y-78740000D03*
G04 #@! TO.P,J2,10*
G04 #@! TO.N,/22*
X114300000Y-81280000D03*
G04 #@! TO.P,J2,9*
G04 #@! TO.N,/21*
X114300000Y-83820000D03*
G04 #@! TO.P,J2,8*
G04 #@! TO.N,/20*
X114300000Y-86360000D03*
G04 #@! TO.P,J2,7*
G04 #@! TO.N,/19*
X114300000Y-88900000D03*
G04 #@! TO.P,J2,6*
G04 #@! TO.N,/18*
X114300000Y-91440000D03*
G04 #@! TO.P,J2,5*
G04 #@! TO.N,/17*
X114300000Y-93980000D03*
G04 #@! TO.P,J2,4*
G04 #@! TO.N,/16*
X114300000Y-96520000D03*
G04 #@! TO.P,J2,3*
G04 #@! TO.N,/15*
X114300000Y-99060000D03*
G04 #@! TO.P,J2,2*
G04 #@! TO.N,/14*
X114300000Y-101600000D03*
D10*
G04 #@! TO.P,J2,1*
G04 #@! TO.N,/13*
X114300000Y-104140000D03*
G04 #@! TD*
G04 #@! TO.P,J3,1*
G04 #@! TO.N,/THERMALPAD*
X107950000Y-76200000D03*
G04 #@! TD*
G04 #@! TO.P,J4,1*
G04 #@! TO.N,/THERMALPAD*
X107950000Y-104140000D03*
G04 #@! TD*
D12*
G04 #@! TO.N,/THERMALPAD*
G04 #@! TO.C,U1*
X107950000Y-89038629D03*
X108515685Y-89604315D03*
X109081371Y-90170000D03*
X107384315Y-89604315D03*
X107950000Y-90170000D03*
X108515685Y-90735685D03*
X106818629Y-90170000D03*
X107384315Y-90735685D03*
X107950000Y-91301371D03*
D13*
G36*
X107974504Y-88789833D02*
X107998773Y-88793433D01*
X108022571Y-88799394D01*
X108045671Y-88807659D01*
X108067849Y-88818149D01*
X108088893Y-88830762D01*
X108108598Y-88845376D01*
X108126777Y-88861852D01*
X109258148Y-89993223D01*
X109274624Y-90011402D01*
X109289238Y-90031107D01*
X109301851Y-90052151D01*
X109312341Y-90074329D01*
X109320606Y-90097429D01*
X109326567Y-90121227D01*
X109330167Y-90145496D01*
X109331371Y-90170000D01*
X109330167Y-90194504D01*
X109326567Y-90218773D01*
X109320606Y-90242571D01*
X109312341Y-90265671D01*
X109301851Y-90287849D01*
X109289238Y-90308893D01*
X109274624Y-90328598D01*
X109258148Y-90346777D01*
X108126777Y-91478148D01*
X108108598Y-91494624D01*
X108088893Y-91509238D01*
X108067849Y-91521851D01*
X108045671Y-91532341D01*
X108022571Y-91540606D01*
X107998773Y-91546567D01*
X107974504Y-91550167D01*
X107950000Y-91551371D01*
X107925496Y-91550167D01*
X107901227Y-91546567D01*
X107877429Y-91540606D01*
X107854329Y-91532341D01*
X107832151Y-91521851D01*
X107811107Y-91509238D01*
X107791402Y-91494624D01*
X107773223Y-91478148D01*
X106641852Y-90346777D01*
X106625376Y-90328598D01*
X106610762Y-90308893D01*
X106598149Y-90287849D01*
X106587659Y-90265671D01*
X106579394Y-90242571D01*
X106573433Y-90218773D01*
X106569833Y-90194504D01*
X106568629Y-90170000D01*
X106569833Y-90145496D01*
X106573433Y-90121227D01*
X106579394Y-90097429D01*
X106587659Y-90074329D01*
X106598149Y-90052151D01*
X106610762Y-90031107D01*
X106625376Y-90011402D01*
X106641852Y-89993223D01*
X107773223Y-88861852D01*
X107791402Y-88845376D01*
X107811107Y-88830762D01*
X107832151Y-88818149D01*
X107854329Y-88807659D01*
X107877429Y-88799394D01*
X107901227Y-88793433D01*
X107925496Y-88789833D01*
X107950000Y-88788629D01*
X107974504Y-88789833D01*
X107974504Y-88789833D01*
G37*
D14*
X107950000Y-90170000D03*
G04 #@! TD*
D15*
G04 #@! TO.N,/THERMALPAD*
X107950000Y-88784071D02*
X107950000Y-87630000D01*
X107950000Y-91555929D02*
X107950000Y-92710000D01*
X106564071Y-90170000D02*
X105410000Y-90170000D01*
X109335929Y-90170000D02*
X110490000Y-90170000D01*
X107950000Y-90170000D02*
X109474000Y-88646000D01*
X107950000Y-90170000D02*
X106680000Y-91440000D01*
X107950000Y-90170000D02*
X106680000Y-88900000D01*
X106680000Y-88900000D02*
X109474000Y-91694000D01*
G04 #@! TD*
D16*
G04 #@! TO.N,/THERMALPAD*
G36*
X116105001Y-105945000D02*
X99795000Y-105945000D01*
X99795000Y-78740000D01*
X100085908Y-78740000D01*
X100201161Y-79319418D01*
X100529375Y-79810625D01*
X100827761Y-80010000D01*
X100529375Y-80209375D01*
X100201161Y-80700582D01*
X100085908Y-81280000D01*
X100201161Y-81859418D01*
X100529375Y-82350625D01*
X100827761Y-82550000D01*
X100529375Y-82749375D01*
X100201161Y-83240582D01*
X100085908Y-83820000D01*
X100201161Y-84399418D01*
X100529375Y-84890625D01*
X100827761Y-85090000D01*
X100529375Y-85289375D01*
X100201161Y-85780582D01*
X100085908Y-86360000D01*
X100201161Y-86939418D01*
X100529375Y-87430625D01*
X100827761Y-87630000D01*
X100529375Y-87829375D01*
X100201161Y-88320582D01*
X100085908Y-88900000D01*
X100201161Y-89479418D01*
X100529375Y-89970625D01*
X100827761Y-90170000D01*
X100529375Y-90369375D01*
X100201161Y-90860582D01*
X100085908Y-91440000D01*
X100201161Y-92019418D01*
X100529375Y-92510625D01*
X100827761Y-92710000D01*
X100529375Y-92909375D01*
X100201161Y-93400582D01*
X100085908Y-93980000D01*
X100201161Y-94559418D01*
X100529375Y-95050625D01*
X100827761Y-95250000D01*
X100529375Y-95449375D01*
X100201161Y-95940582D01*
X100085908Y-96520000D01*
X100201161Y-97099418D01*
X100529375Y-97590625D01*
X100827761Y-97790000D01*
X100529375Y-97989375D01*
X100201161Y-98480582D01*
X100085908Y-99060000D01*
X100201161Y-99639418D01*
X100529375Y-100130625D01*
X100827761Y-100330000D01*
X100529375Y-100529375D01*
X100201161Y-101020582D01*
X100085908Y-101600000D01*
X100201161Y-102179418D01*
X100529375Y-102670625D01*
X100827761Y-102870000D01*
X100529375Y-103069375D01*
X100201161Y-103560582D01*
X100085908Y-104140000D01*
X100201161Y-104719418D01*
X100529375Y-105210625D01*
X101020582Y-105538839D01*
X101453744Y-105625000D01*
X101746256Y-105625000D01*
X102179418Y-105538839D01*
X102670625Y-105210625D01*
X102998839Y-104719418D01*
X103057252Y-104425750D01*
X106465000Y-104425750D01*
X106465000Y-105116310D01*
X106561673Y-105349699D01*
X106740302Y-105528327D01*
X106973691Y-105625000D01*
X107664250Y-105625000D01*
X107823000Y-105466250D01*
X107823000Y-104267000D01*
X108077000Y-104267000D01*
X108077000Y-105466250D01*
X108235750Y-105625000D01*
X108926309Y-105625000D01*
X109159698Y-105528327D01*
X109338327Y-105349699D01*
X109435000Y-105116310D01*
X109435000Y-104425750D01*
X109276250Y-104267000D01*
X108077000Y-104267000D01*
X107823000Y-104267000D01*
X106623750Y-104267000D01*
X106465000Y-104425750D01*
X103057252Y-104425750D01*
X103114092Y-104140000D01*
X102998839Y-103560582D01*
X102733645Y-103163690D01*
X106465000Y-103163690D01*
X106465000Y-103854250D01*
X106623750Y-104013000D01*
X107823000Y-104013000D01*
X107823000Y-102813750D01*
X108077000Y-102813750D01*
X108077000Y-104013000D01*
X109276250Y-104013000D01*
X109435000Y-103854250D01*
X109435000Y-103163690D01*
X109338327Y-102930301D01*
X109159698Y-102751673D01*
X108926309Y-102655000D01*
X108235750Y-102655000D01*
X108077000Y-102813750D01*
X107823000Y-102813750D01*
X107664250Y-102655000D01*
X106973691Y-102655000D01*
X106740302Y-102751673D01*
X106561673Y-102930301D01*
X106465000Y-103163690D01*
X102733645Y-103163690D01*
X102670625Y-103069375D01*
X102372239Y-102870000D01*
X102670625Y-102670625D01*
X102998839Y-102179418D01*
X103114092Y-101600000D01*
X102998839Y-101020582D01*
X102670625Y-100529375D01*
X102372239Y-100330000D01*
X102670625Y-100130625D01*
X102998839Y-99639418D01*
X103114092Y-99060000D01*
X102998839Y-98480582D01*
X102670625Y-97989375D01*
X102372239Y-97790000D01*
X102670625Y-97590625D01*
X102998839Y-97099418D01*
X103114092Y-96520000D01*
X102998839Y-95940582D01*
X102670625Y-95449375D01*
X102372239Y-95250000D01*
X102670625Y-95050625D01*
X102998839Y-94559418D01*
X103114092Y-93980000D01*
X102998839Y-93400582D01*
X102670625Y-92909375D01*
X102372239Y-92710000D01*
X102670625Y-92510625D01*
X102998839Y-92019418D01*
X103114092Y-91440000D01*
X102998839Y-90860582D01*
X102670625Y-90369375D01*
X102372239Y-90170000D01*
X102561273Y-90043691D01*
X105830075Y-90043691D01*
X105830076Y-90296310D01*
X105926749Y-90529699D01*
X106100501Y-90703451D01*
X106121989Y-90743505D01*
X106224068Y-90827018D01*
X106556469Y-91159419D01*
X106607326Y-91159419D01*
X106687675Y-91309190D01*
X106789748Y-91392698D01*
X106848329Y-91451279D01*
X106854189Y-91445419D01*
X106960174Y-91532127D01*
X106960581Y-91532296D01*
X106960581Y-91563531D01*
X107231872Y-91834822D01*
X107253360Y-91874876D01*
X107355439Y-91958389D01*
X107590301Y-92193251D01*
X107823690Y-92289924D01*
X108076309Y-92289925D01*
X108309698Y-92193252D01*
X108483451Y-92019499D01*
X108523505Y-91998011D01*
X108607018Y-91895932D01*
X108939419Y-91563531D01*
X108939419Y-91512674D01*
X109089190Y-91432325D01*
X109172698Y-91330252D01*
X109231279Y-91271671D01*
X109225419Y-91265811D01*
X109312127Y-91159826D01*
X109312296Y-91159419D01*
X109343531Y-91159419D01*
X109614822Y-90888128D01*
X109654876Y-90866640D01*
X109738389Y-90764561D01*
X109973252Y-90529698D01*
X110069925Y-90296309D01*
X110069924Y-90043690D01*
X109973251Y-89810301D01*
X109799499Y-89636549D01*
X109778011Y-89596495D01*
X109675932Y-89512982D01*
X109343531Y-89180581D01*
X109292674Y-89180581D01*
X109212325Y-89030810D01*
X109110252Y-88947302D01*
X109051671Y-88888721D01*
X109045811Y-88894581D01*
X108939826Y-88807873D01*
X108939419Y-88807704D01*
X108939419Y-88776469D01*
X108668128Y-88505178D01*
X108646640Y-88465124D01*
X108544561Y-88381611D01*
X108309699Y-88146749D01*
X108076310Y-88050076D01*
X107823691Y-88050075D01*
X107590302Y-88146748D01*
X107416549Y-88320501D01*
X107376495Y-88341989D01*
X107292982Y-88444068D01*
X106960581Y-88776469D01*
X106960581Y-88827326D01*
X106810810Y-88907675D01*
X106727302Y-89009748D01*
X106668721Y-89068329D01*
X106674581Y-89074189D01*
X106587873Y-89180174D01*
X106587704Y-89180581D01*
X106556469Y-89180581D01*
X106285178Y-89451872D01*
X106245124Y-89473360D01*
X106161611Y-89575439D01*
X105926748Y-89810302D01*
X105830075Y-90043691D01*
X102561273Y-90043691D01*
X102670625Y-89970625D01*
X102998839Y-89479418D01*
X103114092Y-88900000D01*
X102998839Y-88320582D01*
X102670625Y-87829375D01*
X102372239Y-87630000D01*
X102670625Y-87430625D01*
X102998839Y-86939418D01*
X103114092Y-86360000D01*
X102998839Y-85780582D01*
X102670625Y-85289375D01*
X102372239Y-85090000D01*
X102670625Y-84890625D01*
X102998839Y-84399418D01*
X103114092Y-83820000D01*
X102998839Y-83240582D01*
X102670625Y-82749375D01*
X102372239Y-82550000D01*
X102670625Y-82350625D01*
X102998839Y-81859418D01*
X103114092Y-81280000D01*
X102998839Y-80700582D01*
X102670625Y-80209375D01*
X102372239Y-80010000D01*
X102670625Y-79810625D01*
X102998839Y-79319418D01*
X103114092Y-78740000D01*
X102998839Y-78160582D01*
X102670625Y-77669375D01*
X102652381Y-77657184D01*
X102697765Y-77648157D01*
X102907809Y-77507809D01*
X103048157Y-77297765D01*
X103097440Y-77050000D01*
X103097440Y-76485750D01*
X106465000Y-76485750D01*
X106465000Y-77176310D01*
X106561673Y-77409699D01*
X106740302Y-77588327D01*
X106973691Y-77685000D01*
X107664250Y-77685000D01*
X107823000Y-77526250D01*
X107823000Y-76327000D01*
X108077000Y-76327000D01*
X108077000Y-77526250D01*
X108235750Y-77685000D01*
X108926309Y-77685000D01*
X109159698Y-77588327D01*
X109338327Y-77409699D01*
X109435000Y-77176310D01*
X109435000Y-76485750D01*
X109276250Y-76327000D01*
X108077000Y-76327000D01*
X107823000Y-76327000D01*
X106623750Y-76327000D01*
X106465000Y-76485750D01*
X103097440Y-76485750D01*
X103097440Y-76200000D01*
X112785908Y-76200000D01*
X112901161Y-76779418D01*
X113229375Y-77270625D01*
X113527761Y-77470000D01*
X113229375Y-77669375D01*
X112901161Y-78160582D01*
X112785908Y-78740000D01*
X112901161Y-79319418D01*
X113229375Y-79810625D01*
X113527761Y-80010000D01*
X113229375Y-80209375D01*
X112901161Y-80700582D01*
X112785908Y-81280000D01*
X112901161Y-81859418D01*
X113229375Y-82350625D01*
X113527761Y-82550000D01*
X113229375Y-82749375D01*
X112901161Y-83240582D01*
X112785908Y-83820000D01*
X112901161Y-84399418D01*
X113229375Y-84890625D01*
X113527761Y-85090000D01*
X113229375Y-85289375D01*
X112901161Y-85780582D01*
X112785908Y-86360000D01*
X112901161Y-86939418D01*
X113229375Y-87430625D01*
X113527761Y-87630000D01*
X113229375Y-87829375D01*
X112901161Y-88320582D01*
X112785908Y-88900000D01*
X112901161Y-89479418D01*
X113229375Y-89970625D01*
X113527761Y-90170000D01*
X113229375Y-90369375D01*
X112901161Y-90860582D01*
X112785908Y-91440000D01*
X112901161Y-92019418D01*
X113229375Y-92510625D01*
X113527761Y-92710000D01*
X113229375Y-92909375D01*
X112901161Y-93400582D01*
X112785908Y-93980000D01*
X112901161Y-94559418D01*
X113229375Y-95050625D01*
X113527761Y-95250000D01*
X113229375Y-95449375D01*
X112901161Y-95940582D01*
X112785908Y-96520000D01*
X112901161Y-97099418D01*
X113229375Y-97590625D01*
X113527761Y-97790000D01*
X113229375Y-97989375D01*
X112901161Y-98480582D01*
X112785908Y-99060000D01*
X112901161Y-99639418D01*
X113229375Y-100130625D01*
X113527761Y-100330000D01*
X113229375Y-100529375D01*
X112901161Y-101020582D01*
X112785908Y-101600000D01*
X112901161Y-102179418D01*
X113229375Y-102670625D01*
X113247619Y-102682816D01*
X113202235Y-102691843D01*
X112992191Y-102832191D01*
X112851843Y-103042235D01*
X112802560Y-103290000D01*
X112802560Y-104990000D01*
X112851843Y-105237765D01*
X112992191Y-105447809D01*
X113202235Y-105588157D01*
X113450000Y-105637440D01*
X115150000Y-105637440D01*
X115397765Y-105588157D01*
X115607809Y-105447809D01*
X115748157Y-105237765D01*
X115797440Y-104990000D01*
X115797440Y-103290000D01*
X115748157Y-103042235D01*
X115607809Y-102832191D01*
X115397765Y-102691843D01*
X115352381Y-102682816D01*
X115370625Y-102670625D01*
X115698839Y-102179418D01*
X115814092Y-101600000D01*
X115698839Y-101020582D01*
X115370625Y-100529375D01*
X115072239Y-100330000D01*
X115370625Y-100130625D01*
X115698839Y-99639418D01*
X115814092Y-99060000D01*
X115698839Y-98480582D01*
X115370625Y-97989375D01*
X115072239Y-97790000D01*
X115370625Y-97590625D01*
X115698839Y-97099418D01*
X115814092Y-96520000D01*
X115698839Y-95940582D01*
X115370625Y-95449375D01*
X115072239Y-95250000D01*
X115370625Y-95050625D01*
X115698839Y-94559418D01*
X115814092Y-93980000D01*
X115698839Y-93400582D01*
X115370625Y-92909375D01*
X115072239Y-92710000D01*
X115370625Y-92510625D01*
X115698839Y-92019418D01*
X115814092Y-91440000D01*
X115698839Y-90860582D01*
X115370625Y-90369375D01*
X115072239Y-90170000D01*
X115370625Y-89970625D01*
X115698839Y-89479418D01*
X115814092Y-88900000D01*
X115698839Y-88320582D01*
X115370625Y-87829375D01*
X115072239Y-87630000D01*
X115370625Y-87430625D01*
X115698839Y-86939418D01*
X115814092Y-86360000D01*
X115698839Y-85780582D01*
X115370625Y-85289375D01*
X115072239Y-85090000D01*
X115370625Y-84890625D01*
X115698839Y-84399418D01*
X115814092Y-83820000D01*
X115698839Y-83240582D01*
X115370625Y-82749375D01*
X115072239Y-82550000D01*
X115370625Y-82350625D01*
X115698839Y-81859418D01*
X115814092Y-81280000D01*
X115698839Y-80700582D01*
X115370625Y-80209375D01*
X115072239Y-80010000D01*
X115370625Y-79810625D01*
X115698839Y-79319418D01*
X115814092Y-78740000D01*
X115698839Y-78160582D01*
X115370625Y-77669375D01*
X115072239Y-77470000D01*
X115370625Y-77270625D01*
X115698839Y-76779418D01*
X115814092Y-76200000D01*
X115698839Y-75620582D01*
X115370625Y-75129375D01*
X114879418Y-74801161D01*
X114446256Y-74715000D01*
X114153744Y-74715000D01*
X113720582Y-74801161D01*
X113229375Y-75129375D01*
X112901161Y-75620582D01*
X112785908Y-76200000D01*
X103097440Y-76200000D01*
X103097440Y-75350000D01*
X103072316Y-75223690D01*
X106465000Y-75223690D01*
X106465000Y-75914250D01*
X106623750Y-76073000D01*
X107823000Y-76073000D01*
X107823000Y-74873750D01*
X108077000Y-74873750D01*
X108077000Y-76073000D01*
X109276250Y-76073000D01*
X109435000Y-75914250D01*
X109435000Y-75223690D01*
X109338327Y-74990301D01*
X109159698Y-74811673D01*
X108926309Y-74715000D01*
X108235750Y-74715000D01*
X108077000Y-74873750D01*
X107823000Y-74873750D01*
X107664250Y-74715000D01*
X106973691Y-74715000D01*
X106740302Y-74811673D01*
X106561673Y-74990301D01*
X106465000Y-75223690D01*
X103072316Y-75223690D01*
X103048157Y-75102235D01*
X102907809Y-74892191D01*
X102697765Y-74751843D01*
X102450000Y-74702560D01*
X100750000Y-74702560D01*
X100502235Y-74751843D01*
X100292191Y-74892191D01*
X100151843Y-75102235D01*
X100102560Y-75350000D01*
X100102560Y-77050000D01*
X100151843Y-77297765D01*
X100292191Y-77507809D01*
X100502235Y-77648157D01*
X100547619Y-77657184D01*
X100529375Y-77669375D01*
X100201161Y-78160582D01*
X100085908Y-78740000D01*
X99795000Y-78740000D01*
X99795000Y-74395000D01*
X116105000Y-74395000D01*
X116105001Y-105945000D01*
X116105001Y-105945000D01*
G37*
X116105001Y-105945000D02*
X99795000Y-105945000D01*
X99795000Y-78740000D01*
X100085908Y-78740000D01*
X100201161Y-79319418D01*
X100529375Y-79810625D01*
X100827761Y-80010000D01*
X100529375Y-80209375D01*
X100201161Y-80700582D01*
X100085908Y-81280000D01*
X100201161Y-81859418D01*
X100529375Y-82350625D01*
X100827761Y-82550000D01*
X100529375Y-82749375D01*
X100201161Y-83240582D01*
X100085908Y-83820000D01*
X100201161Y-84399418D01*
X100529375Y-84890625D01*
X100827761Y-85090000D01*
X100529375Y-85289375D01*
X100201161Y-85780582D01*
X100085908Y-86360000D01*
X100201161Y-86939418D01*
X100529375Y-87430625D01*
X100827761Y-87630000D01*
X100529375Y-87829375D01*
X100201161Y-88320582D01*
X100085908Y-88900000D01*
X100201161Y-89479418D01*
X100529375Y-89970625D01*
X100827761Y-90170000D01*
X100529375Y-90369375D01*
X100201161Y-90860582D01*
X100085908Y-91440000D01*
X100201161Y-92019418D01*
X100529375Y-92510625D01*
X100827761Y-92710000D01*
X100529375Y-92909375D01*
X100201161Y-93400582D01*
X100085908Y-93980000D01*
X100201161Y-94559418D01*
X100529375Y-95050625D01*
X100827761Y-95250000D01*
X100529375Y-95449375D01*
X100201161Y-95940582D01*
X100085908Y-96520000D01*
X100201161Y-97099418D01*
X100529375Y-97590625D01*
X100827761Y-97790000D01*
X100529375Y-97989375D01*
X100201161Y-98480582D01*
X100085908Y-99060000D01*
X100201161Y-99639418D01*
X100529375Y-100130625D01*
X100827761Y-100330000D01*
X100529375Y-100529375D01*
X100201161Y-101020582D01*
X100085908Y-101600000D01*
X100201161Y-102179418D01*
X100529375Y-102670625D01*
X100827761Y-102870000D01*
X100529375Y-103069375D01*
X100201161Y-103560582D01*
X100085908Y-104140000D01*
X100201161Y-104719418D01*
X100529375Y-105210625D01*
X101020582Y-105538839D01*
X101453744Y-105625000D01*
X101746256Y-105625000D01*
X102179418Y-105538839D01*
X102670625Y-105210625D01*
X102998839Y-104719418D01*
X103057252Y-104425750D01*
X106465000Y-104425750D01*
X106465000Y-105116310D01*
X106561673Y-105349699D01*
X106740302Y-105528327D01*
X106973691Y-105625000D01*
X107664250Y-105625000D01*
X107823000Y-105466250D01*
X107823000Y-104267000D01*
X108077000Y-104267000D01*
X108077000Y-105466250D01*
X108235750Y-105625000D01*
X108926309Y-105625000D01*
X109159698Y-105528327D01*
X109338327Y-105349699D01*
X109435000Y-105116310D01*
X109435000Y-104425750D01*
X109276250Y-104267000D01*
X108077000Y-104267000D01*
X107823000Y-104267000D01*
X106623750Y-104267000D01*
X106465000Y-104425750D01*
X103057252Y-104425750D01*
X103114092Y-104140000D01*
X102998839Y-103560582D01*
X102733645Y-103163690D01*
X106465000Y-103163690D01*
X106465000Y-103854250D01*
X106623750Y-104013000D01*
X107823000Y-104013000D01*
X107823000Y-102813750D01*
X108077000Y-102813750D01*
X108077000Y-104013000D01*
X109276250Y-104013000D01*
X109435000Y-103854250D01*
X109435000Y-103163690D01*
X109338327Y-102930301D01*
X109159698Y-102751673D01*
X108926309Y-102655000D01*
X108235750Y-102655000D01*
X108077000Y-102813750D01*
X107823000Y-102813750D01*
X107664250Y-102655000D01*
X106973691Y-102655000D01*
X106740302Y-102751673D01*
X106561673Y-102930301D01*
X106465000Y-103163690D01*
X102733645Y-103163690D01*
X102670625Y-103069375D01*
X102372239Y-102870000D01*
X102670625Y-102670625D01*
X102998839Y-102179418D01*
X103114092Y-101600000D01*
X102998839Y-101020582D01*
X102670625Y-100529375D01*
X102372239Y-100330000D01*
X102670625Y-100130625D01*
X102998839Y-99639418D01*
X103114092Y-99060000D01*
X102998839Y-98480582D01*
X102670625Y-97989375D01*
X102372239Y-97790000D01*
X102670625Y-97590625D01*
X102998839Y-97099418D01*
X103114092Y-96520000D01*
X102998839Y-95940582D01*
X102670625Y-95449375D01*
X102372239Y-95250000D01*
X102670625Y-95050625D01*
X102998839Y-94559418D01*
X103114092Y-93980000D01*
X102998839Y-93400582D01*
X102670625Y-92909375D01*
X102372239Y-92710000D01*
X102670625Y-92510625D01*
X102998839Y-92019418D01*
X103114092Y-91440000D01*
X102998839Y-90860582D01*
X102670625Y-90369375D01*
X102372239Y-90170000D01*
X102561273Y-90043691D01*
X105830075Y-90043691D01*
X105830076Y-90296310D01*
X105926749Y-90529699D01*
X106100501Y-90703451D01*
X106121989Y-90743505D01*
X106224068Y-90827018D01*
X106556469Y-91159419D01*
X106607326Y-91159419D01*
X106687675Y-91309190D01*
X106789748Y-91392698D01*
X106848329Y-91451279D01*
X106854189Y-91445419D01*
X106960174Y-91532127D01*
X106960581Y-91532296D01*
X106960581Y-91563531D01*
X107231872Y-91834822D01*
X107253360Y-91874876D01*
X107355439Y-91958389D01*
X107590301Y-92193251D01*
X107823690Y-92289924D01*
X108076309Y-92289925D01*
X108309698Y-92193252D01*
X108483451Y-92019499D01*
X108523505Y-91998011D01*
X108607018Y-91895932D01*
X108939419Y-91563531D01*
X108939419Y-91512674D01*
X109089190Y-91432325D01*
X109172698Y-91330252D01*
X109231279Y-91271671D01*
X109225419Y-91265811D01*
X109312127Y-91159826D01*
X109312296Y-91159419D01*
X109343531Y-91159419D01*
X109614822Y-90888128D01*
X109654876Y-90866640D01*
X109738389Y-90764561D01*
X109973252Y-90529698D01*
X110069925Y-90296309D01*
X110069924Y-90043690D01*
X109973251Y-89810301D01*
X109799499Y-89636549D01*
X109778011Y-89596495D01*
X109675932Y-89512982D01*
X109343531Y-89180581D01*
X109292674Y-89180581D01*
X109212325Y-89030810D01*
X109110252Y-88947302D01*
X109051671Y-88888721D01*
X109045811Y-88894581D01*
X108939826Y-88807873D01*
X108939419Y-88807704D01*
X108939419Y-88776469D01*
X108668128Y-88505178D01*
X108646640Y-88465124D01*
X108544561Y-88381611D01*
X108309699Y-88146749D01*
X108076310Y-88050076D01*
X107823691Y-88050075D01*
X107590302Y-88146748D01*
X107416549Y-88320501D01*
X107376495Y-88341989D01*
X107292982Y-88444068D01*
X106960581Y-88776469D01*
X106960581Y-88827326D01*
X106810810Y-88907675D01*
X106727302Y-89009748D01*
X106668721Y-89068329D01*
X106674581Y-89074189D01*
X106587873Y-89180174D01*
X106587704Y-89180581D01*
X106556469Y-89180581D01*
X106285178Y-89451872D01*
X106245124Y-89473360D01*
X106161611Y-89575439D01*
X105926748Y-89810302D01*
X105830075Y-90043691D01*
X102561273Y-90043691D01*
X102670625Y-89970625D01*
X102998839Y-89479418D01*
X103114092Y-88900000D01*
X102998839Y-88320582D01*
X102670625Y-87829375D01*
X102372239Y-87630000D01*
X102670625Y-87430625D01*
X102998839Y-86939418D01*
X103114092Y-86360000D01*
X102998839Y-85780582D01*
X102670625Y-85289375D01*
X102372239Y-85090000D01*
X102670625Y-84890625D01*
X102998839Y-84399418D01*
X103114092Y-83820000D01*
X102998839Y-83240582D01*
X102670625Y-82749375D01*
X102372239Y-82550000D01*
X102670625Y-82350625D01*
X102998839Y-81859418D01*
X103114092Y-81280000D01*
X102998839Y-80700582D01*
X102670625Y-80209375D01*
X102372239Y-80010000D01*
X102670625Y-79810625D01*
X102998839Y-79319418D01*
X103114092Y-78740000D01*
X102998839Y-78160582D01*
X102670625Y-77669375D01*
X102652381Y-77657184D01*
X102697765Y-77648157D01*
X102907809Y-77507809D01*
X103048157Y-77297765D01*
X103097440Y-77050000D01*
X103097440Y-76485750D01*
X106465000Y-76485750D01*
X106465000Y-77176310D01*
X106561673Y-77409699D01*
X106740302Y-77588327D01*
X106973691Y-77685000D01*
X107664250Y-77685000D01*
X107823000Y-77526250D01*
X107823000Y-76327000D01*
X108077000Y-76327000D01*
X108077000Y-77526250D01*
X108235750Y-77685000D01*
X108926309Y-77685000D01*
X109159698Y-77588327D01*
X109338327Y-77409699D01*
X109435000Y-77176310D01*
X109435000Y-76485750D01*
X109276250Y-76327000D01*
X108077000Y-76327000D01*
X107823000Y-76327000D01*
X106623750Y-76327000D01*
X106465000Y-76485750D01*
X103097440Y-76485750D01*
X103097440Y-76200000D01*
X112785908Y-76200000D01*
X112901161Y-76779418D01*
X113229375Y-77270625D01*
X113527761Y-77470000D01*
X113229375Y-77669375D01*
X112901161Y-78160582D01*
X112785908Y-78740000D01*
X112901161Y-79319418D01*
X113229375Y-79810625D01*
X113527761Y-80010000D01*
X113229375Y-80209375D01*
X112901161Y-80700582D01*
X112785908Y-81280000D01*
X112901161Y-81859418D01*
X113229375Y-82350625D01*
X113527761Y-82550000D01*
X113229375Y-82749375D01*
X112901161Y-83240582D01*
X112785908Y-83820000D01*
X112901161Y-84399418D01*
X113229375Y-84890625D01*
X113527761Y-85090000D01*
X113229375Y-85289375D01*
X112901161Y-85780582D01*
X112785908Y-86360000D01*
X112901161Y-86939418D01*
X113229375Y-87430625D01*
X113527761Y-87630000D01*
X113229375Y-87829375D01*
X112901161Y-88320582D01*
X112785908Y-88900000D01*
X112901161Y-89479418D01*
X113229375Y-89970625D01*
X113527761Y-90170000D01*
X113229375Y-90369375D01*
X112901161Y-90860582D01*
X112785908Y-91440000D01*
X112901161Y-92019418D01*
X113229375Y-92510625D01*
X113527761Y-92710000D01*
X113229375Y-92909375D01*
X112901161Y-93400582D01*
X112785908Y-93980000D01*
X112901161Y-94559418D01*
X113229375Y-95050625D01*
X113527761Y-95250000D01*
X113229375Y-95449375D01*
X112901161Y-95940582D01*
X112785908Y-96520000D01*
X112901161Y-97099418D01*
X113229375Y-97590625D01*
X113527761Y-97790000D01*
X113229375Y-97989375D01*
X112901161Y-98480582D01*
X112785908Y-99060000D01*
X112901161Y-99639418D01*
X113229375Y-100130625D01*
X113527761Y-100330000D01*
X113229375Y-100529375D01*
X112901161Y-101020582D01*
X112785908Y-101600000D01*
X112901161Y-102179418D01*
X113229375Y-102670625D01*
X113247619Y-102682816D01*
X113202235Y-102691843D01*
X112992191Y-102832191D01*
X112851843Y-103042235D01*
X112802560Y-103290000D01*
X112802560Y-104990000D01*
X112851843Y-105237765D01*
X112992191Y-105447809D01*
X113202235Y-105588157D01*
X113450000Y-105637440D01*
X115150000Y-105637440D01*
X115397765Y-105588157D01*
X115607809Y-105447809D01*
X115748157Y-105237765D01*
X115797440Y-104990000D01*
X115797440Y-103290000D01*
X115748157Y-103042235D01*
X115607809Y-102832191D01*
X115397765Y-102691843D01*
X115352381Y-102682816D01*
X115370625Y-102670625D01*
X115698839Y-102179418D01*
X115814092Y-101600000D01*
X115698839Y-101020582D01*
X115370625Y-100529375D01*
X115072239Y-100330000D01*
X115370625Y-100130625D01*
X115698839Y-99639418D01*
X115814092Y-99060000D01*
X115698839Y-98480582D01*
X115370625Y-97989375D01*
X115072239Y-97790000D01*
X115370625Y-97590625D01*
X115698839Y-97099418D01*
X115814092Y-96520000D01*
X115698839Y-95940582D01*
X115370625Y-95449375D01*
X115072239Y-95250000D01*
X115370625Y-95050625D01*
X115698839Y-94559418D01*
X115814092Y-93980000D01*
X115698839Y-93400582D01*
X115370625Y-92909375D01*
X115072239Y-92710000D01*
X115370625Y-92510625D01*
X115698839Y-92019418D01*
X115814092Y-91440000D01*
X115698839Y-90860582D01*
X115370625Y-90369375D01*
X115072239Y-90170000D01*
X115370625Y-89970625D01*
X115698839Y-89479418D01*
X115814092Y-88900000D01*
X115698839Y-88320582D01*
X115370625Y-87829375D01*
X115072239Y-87630000D01*
X115370625Y-87430625D01*
X115698839Y-86939418D01*
X115814092Y-86360000D01*
X115698839Y-85780582D01*
X115370625Y-85289375D01*
X115072239Y-85090000D01*
X115370625Y-84890625D01*
X115698839Y-84399418D01*
X115814092Y-83820000D01*
X115698839Y-83240582D01*
X115370625Y-82749375D01*
X115072239Y-82550000D01*
X115370625Y-82350625D01*
X115698839Y-81859418D01*
X115814092Y-81280000D01*
X115698839Y-80700582D01*
X115370625Y-80209375D01*
X115072239Y-80010000D01*
X115370625Y-79810625D01*
X115698839Y-79319418D01*
X115814092Y-78740000D01*
X115698839Y-78160582D01*
X115370625Y-77669375D01*
X115072239Y-77470000D01*
X115370625Y-77270625D01*
X115698839Y-76779418D01*
X115814092Y-76200000D01*
X115698839Y-75620582D01*
X115370625Y-75129375D01*
X114879418Y-74801161D01*
X114446256Y-74715000D01*
X114153744Y-74715000D01*
X113720582Y-74801161D01*
X113229375Y-75129375D01*
X112901161Y-75620582D01*
X112785908Y-76200000D01*
X103097440Y-76200000D01*
X103097440Y-75350000D01*
X103072316Y-75223690D01*
X106465000Y-75223690D01*
X106465000Y-75914250D01*
X106623750Y-76073000D01*
X107823000Y-76073000D01*
X107823000Y-74873750D01*
X108077000Y-74873750D01*
X108077000Y-76073000D01*
X109276250Y-76073000D01*
X109435000Y-75914250D01*
X109435000Y-75223690D01*
X109338327Y-74990301D01*
X109159698Y-74811673D01*
X108926309Y-74715000D01*
X108235750Y-74715000D01*
X108077000Y-74873750D01*
X107823000Y-74873750D01*
X107664250Y-74715000D01*
X106973691Y-74715000D01*
X106740302Y-74811673D01*
X106561673Y-74990301D01*
X106465000Y-75223690D01*
X103072316Y-75223690D01*
X103048157Y-75102235D01*
X102907809Y-74892191D01*
X102697765Y-74751843D01*
X102450000Y-74702560D01*
X100750000Y-74702560D01*
X100502235Y-74751843D01*
X100292191Y-74892191D01*
X100151843Y-75102235D01*
X100102560Y-75350000D01*
X100102560Y-77050000D01*
X100151843Y-77297765D01*
X100292191Y-77507809D01*
X100502235Y-77648157D01*
X100547619Y-77657184D01*
X100529375Y-77669375D01*
X100201161Y-78160582D01*
X100085908Y-78740000D01*
X99795000Y-78740000D01*
X99795000Y-74395000D01*
X116105000Y-74395000D01*
X116105001Y-105945000D01*
G04 #@! TD*
M02*
