G04 #@! TF.GenerationSoftware,KiCad,Pcbnew,(5.0.0-3-g5ebb6b6)*
G04 #@! TF.CreationDate,2019-01-26T00:17:38+00:00*
G04 #@! TF.ProjectId,QFN24_DIP,51464E32345F4449502E6B696361645F,rev?*
G04 #@! TF.SameCoordinates,Original*
G04 #@! TF.FileFunction,Paste,Top*
G04 #@! TF.FilePolarity,Positive*
%FSLAX46Y46*%
G04 Gerber Fmt 4.6, Leading zero omitted, Abs format (unit mm)*
G04 Created by KiCad (PCBNEW (5.0.0-3-g5ebb6b6)) date Saturday, 26 January 2019 at 00:17:38*
%MOMM*%
%LPD*%
G01*
G04 APERTURE LIST*
%ADD10C,0.100000*%
%ADD11C,0.910000*%
%ADD12C,0.250000*%
G04 APERTURE END LIST*
D10*
G04 #@! TO.C,U1*
G36*
X107972299Y-88879399D02*
X107994383Y-88882675D01*
X108016040Y-88888100D01*
X108037060Y-88895621D01*
X108057243Y-88905167D01*
X108076392Y-88916645D01*
X108094324Y-88929944D01*
X108110867Y-88944937D01*
X108432601Y-89266671D01*
X108447594Y-89283214D01*
X108460893Y-89301146D01*
X108472371Y-89320295D01*
X108481917Y-89340478D01*
X108489438Y-89361498D01*
X108494863Y-89383155D01*
X108498139Y-89405239D01*
X108499234Y-89427538D01*
X108498139Y-89449837D01*
X108494863Y-89471921D01*
X108489438Y-89493578D01*
X108481917Y-89514598D01*
X108472371Y-89534781D01*
X108460893Y-89553930D01*
X108447594Y-89571862D01*
X108432601Y-89588405D01*
X108110867Y-89910139D01*
X108094324Y-89925132D01*
X108076392Y-89938431D01*
X108057243Y-89949909D01*
X108037060Y-89959455D01*
X108016040Y-89966976D01*
X107994383Y-89972401D01*
X107972299Y-89975677D01*
X107950000Y-89976772D01*
X107927701Y-89975677D01*
X107905617Y-89972401D01*
X107883960Y-89966976D01*
X107862940Y-89959455D01*
X107842757Y-89949909D01*
X107823608Y-89938431D01*
X107805676Y-89925132D01*
X107789133Y-89910139D01*
X107467399Y-89588405D01*
X107452406Y-89571862D01*
X107439107Y-89553930D01*
X107427629Y-89534781D01*
X107418083Y-89514598D01*
X107410562Y-89493578D01*
X107405137Y-89471921D01*
X107401861Y-89449837D01*
X107400766Y-89427538D01*
X107401861Y-89405239D01*
X107405137Y-89383155D01*
X107410562Y-89361498D01*
X107418083Y-89340478D01*
X107427629Y-89320295D01*
X107439107Y-89301146D01*
X107452406Y-89283214D01*
X107467399Y-89266671D01*
X107789133Y-88944937D01*
X107805676Y-88929944D01*
X107823608Y-88916645D01*
X107842757Y-88905167D01*
X107862940Y-88895621D01*
X107883960Y-88888100D01*
X107905617Y-88882675D01*
X107927701Y-88879399D01*
X107950000Y-88878304D01*
X107972299Y-88879399D01*
X107972299Y-88879399D01*
G37*
D11*
X107950000Y-89427538D03*
D10*
G36*
X107229837Y-89621861D02*
X107251921Y-89625137D01*
X107273578Y-89630562D01*
X107294598Y-89638083D01*
X107314781Y-89647629D01*
X107333930Y-89659107D01*
X107351862Y-89672406D01*
X107368405Y-89687399D01*
X107690139Y-90009133D01*
X107705132Y-90025676D01*
X107718431Y-90043608D01*
X107729909Y-90062757D01*
X107739455Y-90082940D01*
X107746976Y-90103960D01*
X107752401Y-90125617D01*
X107755677Y-90147701D01*
X107756772Y-90170000D01*
X107755677Y-90192299D01*
X107752401Y-90214383D01*
X107746976Y-90236040D01*
X107739455Y-90257060D01*
X107729909Y-90277243D01*
X107718431Y-90296392D01*
X107705132Y-90314324D01*
X107690139Y-90330867D01*
X107368405Y-90652601D01*
X107351862Y-90667594D01*
X107333930Y-90680893D01*
X107314781Y-90692371D01*
X107294598Y-90701917D01*
X107273578Y-90709438D01*
X107251921Y-90714863D01*
X107229837Y-90718139D01*
X107207538Y-90719234D01*
X107185239Y-90718139D01*
X107163155Y-90714863D01*
X107141498Y-90709438D01*
X107120478Y-90701917D01*
X107100295Y-90692371D01*
X107081146Y-90680893D01*
X107063214Y-90667594D01*
X107046671Y-90652601D01*
X106724937Y-90330867D01*
X106709944Y-90314324D01*
X106696645Y-90296392D01*
X106685167Y-90277243D01*
X106675621Y-90257060D01*
X106668100Y-90236040D01*
X106662675Y-90214383D01*
X106659399Y-90192299D01*
X106658304Y-90170000D01*
X106659399Y-90147701D01*
X106662675Y-90125617D01*
X106668100Y-90103960D01*
X106675621Y-90082940D01*
X106685167Y-90062757D01*
X106696645Y-90043608D01*
X106709944Y-90025676D01*
X106724937Y-90009133D01*
X107046671Y-89687399D01*
X107063214Y-89672406D01*
X107081146Y-89659107D01*
X107100295Y-89647629D01*
X107120478Y-89638083D01*
X107141498Y-89630562D01*
X107163155Y-89625137D01*
X107185239Y-89621861D01*
X107207538Y-89620766D01*
X107229837Y-89621861D01*
X107229837Y-89621861D01*
G37*
D11*
X107207538Y-90170000D03*
D10*
G36*
X108714761Y-89621861D02*
X108736845Y-89625137D01*
X108758502Y-89630562D01*
X108779522Y-89638083D01*
X108799705Y-89647629D01*
X108818854Y-89659107D01*
X108836786Y-89672406D01*
X108853329Y-89687399D01*
X109175063Y-90009133D01*
X109190056Y-90025676D01*
X109203355Y-90043608D01*
X109214833Y-90062757D01*
X109224379Y-90082940D01*
X109231900Y-90103960D01*
X109237325Y-90125617D01*
X109240601Y-90147701D01*
X109241696Y-90170000D01*
X109240601Y-90192299D01*
X109237325Y-90214383D01*
X109231900Y-90236040D01*
X109224379Y-90257060D01*
X109214833Y-90277243D01*
X109203355Y-90296392D01*
X109190056Y-90314324D01*
X109175063Y-90330867D01*
X108853329Y-90652601D01*
X108836786Y-90667594D01*
X108818854Y-90680893D01*
X108799705Y-90692371D01*
X108779522Y-90701917D01*
X108758502Y-90709438D01*
X108736845Y-90714863D01*
X108714761Y-90718139D01*
X108692462Y-90719234D01*
X108670163Y-90718139D01*
X108648079Y-90714863D01*
X108626422Y-90709438D01*
X108605402Y-90701917D01*
X108585219Y-90692371D01*
X108566070Y-90680893D01*
X108548138Y-90667594D01*
X108531595Y-90652601D01*
X108209861Y-90330867D01*
X108194868Y-90314324D01*
X108181569Y-90296392D01*
X108170091Y-90277243D01*
X108160545Y-90257060D01*
X108153024Y-90236040D01*
X108147599Y-90214383D01*
X108144323Y-90192299D01*
X108143228Y-90170000D01*
X108144323Y-90147701D01*
X108147599Y-90125617D01*
X108153024Y-90103960D01*
X108160545Y-90082940D01*
X108170091Y-90062757D01*
X108181569Y-90043608D01*
X108194868Y-90025676D01*
X108209861Y-90009133D01*
X108531595Y-89687399D01*
X108548138Y-89672406D01*
X108566070Y-89659107D01*
X108585219Y-89647629D01*
X108605402Y-89638083D01*
X108626422Y-89630562D01*
X108648079Y-89625137D01*
X108670163Y-89621861D01*
X108692462Y-89620766D01*
X108714761Y-89621861D01*
X108714761Y-89621861D01*
G37*
D11*
X108692462Y-90170000D03*
D10*
G36*
X107972299Y-90364323D02*
X107994383Y-90367599D01*
X108016040Y-90373024D01*
X108037060Y-90380545D01*
X108057243Y-90390091D01*
X108076392Y-90401569D01*
X108094324Y-90414868D01*
X108110867Y-90429861D01*
X108432601Y-90751595D01*
X108447594Y-90768138D01*
X108460893Y-90786070D01*
X108472371Y-90805219D01*
X108481917Y-90825402D01*
X108489438Y-90846422D01*
X108494863Y-90868079D01*
X108498139Y-90890163D01*
X108499234Y-90912462D01*
X108498139Y-90934761D01*
X108494863Y-90956845D01*
X108489438Y-90978502D01*
X108481917Y-90999522D01*
X108472371Y-91019705D01*
X108460893Y-91038854D01*
X108447594Y-91056786D01*
X108432601Y-91073329D01*
X108110867Y-91395063D01*
X108094324Y-91410056D01*
X108076392Y-91423355D01*
X108057243Y-91434833D01*
X108037060Y-91444379D01*
X108016040Y-91451900D01*
X107994383Y-91457325D01*
X107972299Y-91460601D01*
X107950000Y-91461696D01*
X107927701Y-91460601D01*
X107905617Y-91457325D01*
X107883960Y-91451900D01*
X107862940Y-91444379D01*
X107842757Y-91434833D01*
X107823608Y-91423355D01*
X107805676Y-91410056D01*
X107789133Y-91395063D01*
X107467399Y-91073329D01*
X107452406Y-91056786D01*
X107439107Y-91038854D01*
X107427629Y-91019705D01*
X107418083Y-90999522D01*
X107410562Y-90978502D01*
X107405137Y-90956845D01*
X107401861Y-90934761D01*
X107400766Y-90912462D01*
X107401861Y-90890163D01*
X107405137Y-90868079D01*
X107410562Y-90846422D01*
X107418083Y-90825402D01*
X107427629Y-90805219D01*
X107439107Y-90786070D01*
X107452406Y-90768138D01*
X107467399Y-90751595D01*
X107789133Y-90429861D01*
X107805676Y-90414868D01*
X107823608Y-90401569D01*
X107842757Y-90390091D01*
X107862940Y-90380545D01*
X107883960Y-90373024D01*
X107905617Y-90367599D01*
X107927701Y-90364323D01*
X107950000Y-90363228D01*
X107972299Y-90364323D01*
X107972299Y-90364323D01*
G37*
D11*
X107950000Y-90912462D03*
D10*
G36*
X107249019Y-87544539D02*
X107255086Y-87545439D01*
X107261036Y-87546929D01*
X107266811Y-87548996D01*
X107272355Y-87551618D01*
X107277616Y-87554771D01*
X107282543Y-87558425D01*
X107287087Y-87562544D01*
X107746707Y-88022164D01*
X107750826Y-88026708D01*
X107754480Y-88031635D01*
X107757633Y-88036896D01*
X107760255Y-88042440D01*
X107762322Y-88048215D01*
X107763812Y-88054165D01*
X107764712Y-88060232D01*
X107765013Y-88066358D01*
X107764712Y-88072484D01*
X107763812Y-88078551D01*
X107762322Y-88084501D01*
X107760255Y-88090276D01*
X107757633Y-88095820D01*
X107754480Y-88101081D01*
X107750826Y-88106008D01*
X107746707Y-88110552D01*
X107658319Y-88198940D01*
X107653775Y-88203059D01*
X107648848Y-88206713D01*
X107643587Y-88209866D01*
X107638043Y-88212488D01*
X107632268Y-88214555D01*
X107626318Y-88216045D01*
X107620251Y-88216945D01*
X107614125Y-88217246D01*
X107607999Y-88216945D01*
X107601932Y-88216045D01*
X107595982Y-88214555D01*
X107590207Y-88212488D01*
X107584663Y-88209866D01*
X107579402Y-88206713D01*
X107574475Y-88203059D01*
X107569931Y-88198940D01*
X107110311Y-87739320D01*
X107106192Y-87734776D01*
X107102538Y-87729849D01*
X107099385Y-87724588D01*
X107096763Y-87719044D01*
X107094696Y-87713269D01*
X107093206Y-87707319D01*
X107092306Y-87701252D01*
X107092005Y-87695126D01*
X107092306Y-87689000D01*
X107093206Y-87682933D01*
X107094696Y-87676983D01*
X107096763Y-87671208D01*
X107099385Y-87665664D01*
X107102538Y-87660403D01*
X107106192Y-87655476D01*
X107110311Y-87650932D01*
X107198699Y-87562544D01*
X107203243Y-87558425D01*
X107208170Y-87554771D01*
X107213431Y-87551618D01*
X107218975Y-87548996D01*
X107224750Y-87546929D01*
X107230700Y-87545439D01*
X107236767Y-87544539D01*
X107242893Y-87544238D01*
X107249019Y-87544539D01*
X107249019Y-87544539D01*
G37*
D12*
X107428509Y-87880742D03*
D10*
G36*
X106895465Y-87898092D02*
X106901532Y-87898992D01*
X106907482Y-87900482D01*
X106913257Y-87902549D01*
X106918801Y-87905171D01*
X106924062Y-87908324D01*
X106928989Y-87911978D01*
X106933533Y-87916097D01*
X107393153Y-88375717D01*
X107397272Y-88380261D01*
X107400926Y-88385188D01*
X107404079Y-88390449D01*
X107406701Y-88395993D01*
X107408768Y-88401768D01*
X107410258Y-88407718D01*
X107411158Y-88413785D01*
X107411459Y-88419911D01*
X107411158Y-88426037D01*
X107410258Y-88432104D01*
X107408768Y-88438054D01*
X107406701Y-88443829D01*
X107404079Y-88449373D01*
X107400926Y-88454634D01*
X107397272Y-88459561D01*
X107393153Y-88464105D01*
X107304765Y-88552493D01*
X107300221Y-88556612D01*
X107295294Y-88560266D01*
X107290033Y-88563419D01*
X107284489Y-88566041D01*
X107278714Y-88568108D01*
X107272764Y-88569598D01*
X107266697Y-88570498D01*
X107260571Y-88570799D01*
X107254445Y-88570498D01*
X107248378Y-88569598D01*
X107242428Y-88568108D01*
X107236653Y-88566041D01*
X107231109Y-88563419D01*
X107225848Y-88560266D01*
X107220921Y-88556612D01*
X107216377Y-88552493D01*
X106756757Y-88092873D01*
X106752638Y-88088329D01*
X106748984Y-88083402D01*
X106745831Y-88078141D01*
X106743209Y-88072597D01*
X106741142Y-88066822D01*
X106739652Y-88060872D01*
X106738752Y-88054805D01*
X106738451Y-88048679D01*
X106738752Y-88042553D01*
X106739652Y-88036486D01*
X106741142Y-88030536D01*
X106743209Y-88024761D01*
X106745831Y-88019217D01*
X106748984Y-88013956D01*
X106752638Y-88009029D01*
X106756757Y-88004485D01*
X106845145Y-87916097D01*
X106849689Y-87911978D01*
X106854616Y-87908324D01*
X106859877Y-87905171D01*
X106865421Y-87902549D01*
X106871196Y-87900482D01*
X106877146Y-87898992D01*
X106883213Y-87898092D01*
X106889339Y-87897791D01*
X106895465Y-87898092D01*
X106895465Y-87898092D01*
G37*
D12*
X107074955Y-88234295D03*
D10*
G36*
X106541912Y-88251646D02*
X106547979Y-88252546D01*
X106553929Y-88254036D01*
X106559704Y-88256103D01*
X106565248Y-88258725D01*
X106570509Y-88261878D01*
X106575436Y-88265532D01*
X106579980Y-88269651D01*
X107039600Y-88729271D01*
X107043719Y-88733815D01*
X107047373Y-88738742D01*
X107050526Y-88744003D01*
X107053148Y-88749547D01*
X107055215Y-88755322D01*
X107056705Y-88761272D01*
X107057605Y-88767339D01*
X107057906Y-88773465D01*
X107057605Y-88779591D01*
X107056705Y-88785658D01*
X107055215Y-88791608D01*
X107053148Y-88797383D01*
X107050526Y-88802927D01*
X107047373Y-88808188D01*
X107043719Y-88813115D01*
X107039600Y-88817659D01*
X106951212Y-88906047D01*
X106946668Y-88910166D01*
X106941741Y-88913820D01*
X106936480Y-88916973D01*
X106930936Y-88919595D01*
X106925161Y-88921662D01*
X106919211Y-88923152D01*
X106913144Y-88924052D01*
X106907018Y-88924353D01*
X106900892Y-88924052D01*
X106894825Y-88923152D01*
X106888875Y-88921662D01*
X106883100Y-88919595D01*
X106877556Y-88916973D01*
X106872295Y-88913820D01*
X106867368Y-88910166D01*
X106862824Y-88906047D01*
X106403204Y-88446427D01*
X106399085Y-88441883D01*
X106395431Y-88436956D01*
X106392278Y-88431695D01*
X106389656Y-88426151D01*
X106387589Y-88420376D01*
X106386099Y-88414426D01*
X106385199Y-88408359D01*
X106384898Y-88402233D01*
X106385199Y-88396107D01*
X106386099Y-88390040D01*
X106387589Y-88384090D01*
X106389656Y-88378315D01*
X106392278Y-88372771D01*
X106395431Y-88367510D01*
X106399085Y-88362583D01*
X106403204Y-88358039D01*
X106491592Y-88269651D01*
X106496136Y-88265532D01*
X106501063Y-88261878D01*
X106506324Y-88258725D01*
X106511868Y-88256103D01*
X106517643Y-88254036D01*
X106523593Y-88252546D01*
X106529660Y-88251646D01*
X106535786Y-88251345D01*
X106541912Y-88251646D01*
X106541912Y-88251646D01*
G37*
D12*
X106721402Y-88587849D03*
D10*
G36*
X106188359Y-88605199D02*
X106194426Y-88606099D01*
X106200376Y-88607589D01*
X106206151Y-88609656D01*
X106211695Y-88612278D01*
X106216956Y-88615431D01*
X106221883Y-88619085D01*
X106226427Y-88623204D01*
X106686047Y-89082824D01*
X106690166Y-89087368D01*
X106693820Y-89092295D01*
X106696973Y-89097556D01*
X106699595Y-89103100D01*
X106701662Y-89108875D01*
X106703152Y-89114825D01*
X106704052Y-89120892D01*
X106704353Y-89127018D01*
X106704052Y-89133144D01*
X106703152Y-89139211D01*
X106701662Y-89145161D01*
X106699595Y-89150936D01*
X106696973Y-89156480D01*
X106693820Y-89161741D01*
X106690166Y-89166668D01*
X106686047Y-89171212D01*
X106597659Y-89259600D01*
X106593115Y-89263719D01*
X106588188Y-89267373D01*
X106582927Y-89270526D01*
X106577383Y-89273148D01*
X106571608Y-89275215D01*
X106565658Y-89276705D01*
X106559591Y-89277605D01*
X106553465Y-89277906D01*
X106547339Y-89277605D01*
X106541272Y-89276705D01*
X106535322Y-89275215D01*
X106529547Y-89273148D01*
X106524003Y-89270526D01*
X106518742Y-89267373D01*
X106513815Y-89263719D01*
X106509271Y-89259600D01*
X106049651Y-88799980D01*
X106045532Y-88795436D01*
X106041878Y-88790509D01*
X106038725Y-88785248D01*
X106036103Y-88779704D01*
X106034036Y-88773929D01*
X106032546Y-88767979D01*
X106031646Y-88761912D01*
X106031345Y-88755786D01*
X106031646Y-88749660D01*
X106032546Y-88743593D01*
X106034036Y-88737643D01*
X106036103Y-88731868D01*
X106038725Y-88726324D01*
X106041878Y-88721063D01*
X106045532Y-88716136D01*
X106049651Y-88711592D01*
X106138039Y-88623204D01*
X106142583Y-88619085D01*
X106147510Y-88615431D01*
X106152771Y-88612278D01*
X106158315Y-88609656D01*
X106164090Y-88607589D01*
X106170040Y-88606099D01*
X106176107Y-88605199D01*
X106182233Y-88604898D01*
X106188359Y-88605199D01*
X106188359Y-88605199D01*
G37*
D12*
X106367849Y-88941402D03*
D10*
G36*
X105834805Y-88958752D02*
X105840872Y-88959652D01*
X105846822Y-88961142D01*
X105852597Y-88963209D01*
X105858141Y-88965831D01*
X105863402Y-88968984D01*
X105868329Y-88972638D01*
X105872873Y-88976757D01*
X106332493Y-89436377D01*
X106336612Y-89440921D01*
X106340266Y-89445848D01*
X106343419Y-89451109D01*
X106346041Y-89456653D01*
X106348108Y-89462428D01*
X106349598Y-89468378D01*
X106350498Y-89474445D01*
X106350799Y-89480571D01*
X106350498Y-89486697D01*
X106349598Y-89492764D01*
X106348108Y-89498714D01*
X106346041Y-89504489D01*
X106343419Y-89510033D01*
X106340266Y-89515294D01*
X106336612Y-89520221D01*
X106332493Y-89524765D01*
X106244105Y-89613153D01*
X106239561Y-89617272D01*
X106234634Y-89620926D01*
X106229373Y-89624079D01*
X106223829Y-89626701D01*
X106218054Y-89628768D01*
X106212104Y-89630258D01*
X106206037Y-89631158D01*
X106199911Y-89631459D01*
X106193785Y-89631158D01*
X106187718Y-89630258D01*
X106181768Y-89628768D01*
X106175993Y-89626701D01*
X106170449Y-89624079D01*
X106165188Y-89620926D01*
X106160261Y-89617272D01*
X106155717Y-89613153D01*
X105696097Y-89153533D01*
X105691978Y-89148989D01*
X105688324Y-89144062D01*
X105685171Y-89138801D01*
X105682549Y-89133257D01*
X105680482Y-89127482D01*
X105678992Y-89121532D01*
X105678092Y-89115465D01*
X105677791Y-89109339D01*
X105678092Y-89103213D01*
X105678992Y-89097146D01*
X105680482Y-89091196D01*
X105682549Y-89085421D01*
X105685171Y-89079877D01*
X105688324Y-89074616D01*
X105691978Y-89069689D01*
X105696097Y-89065145D01*
X105784485Y-88976757D01*
X105789029Y-88972638D01*
X105793956Y-88968984D01*
X105799217Y-88965831D01*
X105804761Y-88963209D01*
X105810536Y-88961142D01*
X105816486Y-88959652D01*
X105822553Y-88958752D01*
X105828679Y-88958451D01*
X105834805Y-88958752D01*
X105834805Y-88958752D01*
G37*
D12*
X106014295Y-89294955D03*
D10*
G36*
X105481252Y-89312306D02*
X105487319Y-89313206D01*
X105493269Y-89314696D01*
X105499044Y-89316763D01*
X105504588Y-89319385D01*
X105509849Y-89322538D01*
X105514776Y-89326192D01*
X105519320Y-89330311D01*
X105978940Y-89789931D01*
X105983059Y-89794475D01*
X105986713Y-89799402D01*
X105989866Y-89804663D01*
X105992488Y-89810207D01*
X105994555Y-89815982D01*
X105996045Y-89821932D01*
X105996945Y-89827999D01*
X105997246Y-89834125D01*
X105996945Y-89840251D01*
X105996045Y-89846318D01*
X105994555Y-89852268D01*
X105992488Y-89858043D01*
X105989866Y-89863587D01*
X105986713Y-89868848D01*
X105983059Y-89873775D01*
X105978940Y-89878319D01*
X105890552Y-89966707D01*
X105886008Y-89970826D01*
X105881081Y-89974480D01*
X105875820Y-89977633D01*
X105870276Y-89980255D01*
X105864501Y-89982322D01*
X105858551Y-89983812D01*
X105852484Y-89984712D01*
X105846358Y-89985013D01*
X105840232Y-89984712D01*
X105834165Y-89983812D01*
X105828215Y-89982322D01*
X105822440Y-89980255D01*
X105816896Y-89977633D01*
X105811635Y-89974480D01*
X105806708Y-89970826D01*
X105802164Y-89966707D01*
X105342544Y-89507087D01*
X105338425Y-89502543D01*
X105334771Y-89497616D01*
X105331618Y-89492355D01*
X105328996Y-89486811D01*
X105326929Y-89481036D01*
X105325439Y-89475086D01*
X105324539Y-89469019D01*
X105324238Y-89462893D01*
X105324539Y-89456767D01*
X105325439Y-89450700D01*
X105326929Y-89444750D01*
X105328996Y-89438975D01*
X105331618Y-89433431D01*
X105334771Y-89428170D01*
X105338425Y-89423243D01*
X105342544Y-89418699D01*
X105430932Y-89330311D01*
X105435476Y-89326192D01*
X105440403Y-89322538D01*
X105445664Y-89319385D01*
X105451208Y-89316763D01*
X105456983Y-89314696D01*
X105462933Y-89313206D01*
X105469000Y-89312306D01*
X105475126Y-89312005D01*
X105481252Y-89312306D01*
X105481252Y-89312306D01*
G37*
D12*
X105660742Y-89648509D03*
D10*
G36*
X105852484Y-90355288D02*
X105858551Y-90356188D01*
X105864501Y-90357678D01*
X105870276Y-90359745D01*
X105875820Y-90362367D01*
X105881081Y-90365520D01*
X105886008Y-90369174D01*
X105890552Y-90373293D01*
X105978940Y-90461681D01*
X105983059Y-90466225D01*
X105986713Y-90471152D01*
X105989866Y-90476413D01*
X105992488Y-90481957D01*
X105994555Y-90487732D01*
X105996045Y-90493682D01*
X105996945Y-90499749D01*
X105997246Y-90505875D01*
X105996945Y-90512001D01*
X105996045Y-90518068D01*
X105994555Y-90524018D01*
X105992488Y-90529793D01*
X105989866Y-90535337D01*
X105986713Y-90540598D01*
X105983059Y-90545525D01*
X105978940Y-90550069D01*
X105519320Y-91009689D01*
X105514776Y-91013808D01*
X105509849Y-91017462D01*
X105504588Y-91020615D01*
X105499044Y-91023237D01*
X105493269Y-91025304D01*
X105487319Y-91026794D01*
X105481252Y-91027694D01*
X105475126Y-91027995D01*
X105469000Y-91027694D01*
X105462933Y-91026794D01*
X105456983Y-91025304D01*
X105451208Y-91023237D01*
X105445664Y-91020615D01*
X105440403Y-91017462D01*
X105435476Y-91013808D01*
X105430932Y-91009689D01*
X105342544Y-90921301D01*
X105338425Y-90916757D01*
X105334771Y-90911830D01*
X105331618Y-90906569D01*
X105328996Y-90901025D01*
X105326929Y-90895250D01*
X105325439Y-90889300D01*
X105324539Y-90883233D01*
X105324238Y-90877107D01*
X105324539Y-90870981D01*
X105325439Y-90864914D01*
X105326929Y-90858964D01*
X105328996Y-90853189D01*
X105331618Y-90847645D01*
X105334771Y-90842384D01*
X105338425Y-90837457D01*
X105342544Y-90832913D01*
X105802164Y-90373293D01*
X105806708Y-90369174D01*
X105811635Y-90365520D01*
X105816896Y-90362367D01*
X105822440Y-90359745D01*
X105828215Y-90357678D01*
X105834165Y-90356188D01*
X105840232Y-90355288D01*
X105846358Y-90354987D01*
X105852484Y-90355288D01*
X105852484Y-90355288D01*
G37*
D12*
X105660742Y-90691491D03*
D10*
G36*
X106206037Y-90708842D02*
X106212104Y-90709742D01*
X106218054Y-90711232D01*
X106223829Y-90713299D01*
X106229373Y-90715921D01*
X106234634Y-90719074D01*
X106239561Y-90722728D01*
X106244105Y-90726847D01*
X106332493Y-90815235D01*
X106336612Y-90819779D01*
X106340266Y-90824706D01*
X106343419Y-90829967D01*
X106346041Y-90835511D01*
X106348108Y-90841286D01*
X106349598Y-90847236D01*
X106350498Y-90853303D01*
X106350799Y-90859429D01*
X106350498Y-90865555D01*
X106349598Y-90871622D01*
X106348108Y-90877572D01*
X106346041Y-90883347D01*
X106343419Y-90888891D01*
X106340266Y-90894152D01*
X106336612Y-90899079D01*
X106332493Y-90903623D01*
X105872873Y-91363243D01*
X105868329Y-91367362D01*
X105863402Y-91371016D01*
X105858141Y-91374169D01*
X105852597Y-91376791D01*
X105846822Y-91378858D01*
X105840872Y-91380348D01*
X105834805Y-91381248D01*
X105828679Y-91381549D01*
X105822553Y-91381248D01*
X105816486Y-91380348D01*
X105810536Y-91378858D01*
X105804761Y-91376791D01*
X105799217Y-91374169D01*
X105793956Y-91371016D01*
X105789029Y-91367362D01*
X105784485Y-91363243D01*
X105696097Y-91274855D01*
X105691978Y-91270311D01*
X105688324Y-91265384D01*
X105685171Y-91260123D01*
X105682549Y-91254579D01*
X105680482Y-91248804D01*
X105678992Y-91242854D01*
X105678092Y-91236787D01*
X105677791Y-91230661D01*
X105678092Y-91224535D01*
X105678992Y-91218468D01*
X105680482Y-91212518D01*
X105682549Y-91206743D01*
X105685171Y-91201199D01*
X105688324Y-91195938D01*
X105691978Y-91191011D01*
X105696097Y-91186467D01*
X106155717Y-90726847D01*
X106160261Y-90722728D01*
X106165188Y-90719074D01*
X106170449Y-90715921D01*
X106175993Y-90713299D01*
X106181768Y-90711232D01*
X106187718Y-90709742D01*
X106193785Y-90708842D01*
X106199911Y-90708541D01*
X106206037Y-90708842D01*
X106206037Y-90708842D01*
G37*
D12*
X106014295Y-91045045D03*
D10*
G36*
X106559591Y-91062395D02*
X106565658Y-91063295D01*
X106571608Y-91064785D01*
X106577383Y-91066852D01*
X106582927Y-91069474D01*
X106588188Y-91072627D01*
X106593115Y-91076281D01*
X106597659Y-91080400D01*
X106686047Y-91168788D01*
X106690166Y-91173332D01*
X106693820Y-91178259D01*
X106696973Y-91183520D01*
X106699595Y-91189064D01*
X106701662Y-91194839D01*
X106703152Y-91200789D01*
X106704052Y-91206856D01*
X106704353Y-91212982D01*
X106704052Y-91219108D01*
X106703152Y-91225175D01*
X106701662Y-91231125D01*
X106699595Y-91236900D01*
X106696973Y-91242444D01*
X106693820Y-91247705D01*
X106690166Y-91252632D01*
X106686047Y-91257176D01*
X106226427Y-91716796D01*
X106221883Y-91720915D01*
X106216956Y-91724569D01*
X106211695Y-91727722D01*
X106206151Y-91730344D01*
X106200376Y-91732411D01*
X106194426Y-91733901D01*
X106188359Y-91734801D01*
X106182233Y-91735102D01*
X106176107Y-91734801D01*
X106170040Y-91733901D01*
X106164090Y-91732411D01*
X106158315Y-91730344D01*
X106152771Y-91727722D01*
X106147510Y-91724569D01*
X106142583Y-91720915D01*
X106138039Y-91716796D01*
X106049651Y-91628408D01*
X106045532Y-91623864D01*
X106041878Y-91618937D01*
X106038725Y-91613676D01*
X106036103Y-91608132D01*
X106034036Y-91602357D01*
X106032546Y-91596407D01*
X106031646Y-91590340D01*
X106031345Y-91584214D01*
X106031646Y-91578088D01*
X106032546Y-91572021D01*
X106034036Y-91566071D01*
X106036103Y-91560296D01*
X106038725Y-91554752D01*
X106041878Y-91549491D01*
X106045532Y-91544564D01*
X106049651Y-91540020D01*
X106509271Y-91080400D01*
X106513815Y-91076281D01*
X106518742Y-91072627D01*
X106524003Y-91069474D01*
X106529547Y-91066852D01*
X106535322Y-91064785D01*
X106541272Y-91063295D01*
X106547339Y-91062395D01*
X106553465Y-91062094D01*
X106559591Y-91062395D01*
X106559591Y-91062395D01*
G37*
D12*
X106367849Y-91398598D03*
D10*
G36*
X106913144Y-91415948D02*
X106919211Y-91416848D01*
X106925161Y-91418338D01*
X106930936Y-91420405D01*
X106936480Y-91423027D01*
X106941741Y-91426180D01*
X106946668Y-91429834D01*
X106951212Y-91433953D01*
X107039600Y-91522341D01*
X107043719Y-91526885D01*
X107047373Y-91531812D01*
X107050526Y-91537073D01*
X107053148Y-91542617D01*
X107055215Y-91548392D01*
X107056705Y-91554342D01*
X107057605Y-91560409D01*
X107057906Y-91566535D01*
X107057605Y-91572661D01*
X107056705Y-91578728D01*
X107055215Y-91584678D01*
X107053148Y-91590453D01*
X107050526Y-91595997D01*
X107047373Y-91601258D01*
X107043719Y-91606185D01*
X107039600Y-91610729D01*
X106579980Y-92070349D01*
X106575436Y-92074468D01*
X106570509Y-92078122D01*
X106565248Y-92081275D01*
X106559704Y-92083897D01*
X106553929Y-92085964D01*
X106547979Y-92087454D01*
X106541912Y-92088354D01*
X106535786Y-92088655D01*
X106529660Y-92088354D01*
X106523593Y-92087454D01*
X106517643Y-92085964D01*
X106511868Y-92083897D01*
X106506324Y-92081275D01*
X106501063Y-92078122D01*
X106496136Y-92074468D01*
X106491592Y-92070349D01*
X106403204Y-91981961D01*
X106399085Y-91977417D01*
X106395431Y-91972490D01*
X106392278Y-91967229D01*
X106389656Y-91961685D01*
X106387589Y-91955910D01*
X106386099Y-91949960D01*
X106385199Y-91943893D01*
X106384898Y-91937767D01*
X106385199Y-91931641D01*
X106386099Y-91925574D01*
X106387589Y-91919624D01*
X106389656Y-91913849D01*
X106392278Y-91908305D01*
X106395431Y-91903044D01*
X106399085Y-91898117D01*
X106403204Y-91893573D01*
X106862824Y-91433953D01*
X106867368Y-91429834D01*
X106872295Y-91426180D01*
X106877556Y-91423027D01*
X106883100Y-91420405D01*
X106888875Y-91418338D01*
X106894825Y-91416848D01*
X106900892Y-91415948D01*
X106907018Y-91415647D01*
X106913144Y-91415948D01*
X106913144Y-91415948D01*
G37*
D12*
X106721402Y-91752151D03*
D10*
G36*
X107266697Y-91769502D02*
X107272764Y-91770402D01*
X107278714Y-91771892D01*
X107284489Y-91773959D01*
X107290033Y-91776581D01*
X107295294Y-91779734D01*
X107300221Y-91783388D01*
X107304765Y-91787507D01*
X107393153Y-91875895D01*
X107397272Y-91880439D01*
X107400926Y-91885366D01*
X107404079Y-91890627D01*
X107406701Y-91896171D01*
X107408768Y-91901946D01*
X107410258Y-91907896D01*
X107411158Y-91913963D01*
X107411459Y-91920089D01*
X107411158Y-91926215D01*
X107410258Y-91932282D01*
X107408768Y-91938232D01*
X107406701Y-91944007D01*
X107404079Y-91949551D01*
X107400926Y-91954812D01*
X107397272Y-91959739D01*
X107393153Y-91964283D01*
X106933533Y-92423903D01*
X106928989Y-92428022D01*
X106924062Y-92431676D01*
X106918801Y-92434829D01*
X106913257Y-92437451D01*
X106907482Y-92439518D01*
X106901532Y-92441008D01*
X106895465Y-92441908D01*
X106889339Y-92442209D01*
X106883213Y-92441908D01*
X106877146Y-92441008D01*
X106871196Y-92439518D01*
X106865421Y-92437451D01*
X106859877Y-92434829D01*
X106854616Y-92431676D01*
X106849689Y-92428022D01*
X106845145Y-92423903D01*
X106756757Y-92335515D01*
X106752638Y-92330971D01*
X106748984Y-92326044D01*
X106745831Y-92320783D01*
X106743209Y-92315239D01*
X106741142Y-92309464D01*
X106739652Y-92303514D01*
X106738752Y-92297447D01*
X106738451Y-92291321D01*
X106738752Y-92285195D01*
X106739652Y-92279128D01*
X106741142Y-92273178D01*
X106743209Y-92267403D01*
X106745831Y-92261859D01*
X106748984Y-92256598D01*
X106752638Y-92251671D01*
X106756757Y-92247127D01*
X107216377Y-91787507D01*
X107220921Y-91783388D01*
X107225848Y-91779734D01*
X107231109Y-91776581D01*
X107236653Y-91773959D01*
X107242428Y-91771892D01*
X107248378Y-91770402D01*
X107254445Y-91769502D01*
X107260571Y-91769201D01*
X107266697Y-91769502D01*
X107266697Y-91769502D01*
G37*
D12*
X107074955Y-92105705D03*
D10*
G36*
X107620251Y-92123055D02*
X107626318Y-92123955D01*
X107632268Y-92125445D01*
X107638043Y-92127512D01*
X107643587Y-92130134D01*
X107648848Y-92133287D01*
X107653775Y-92136941D01*
X107658319Y-92141060D01*
X107746707Y-92229448D01*
X107750826Y-92233992D01*
X107754480Y-92238919D01*
X107757633Y-92244180D01*
X107760255Y-92249724D01*
X107762322Y-92255499D01*
X107763812Y-92261449D01*
X107764712Y-92267516D01*
X107765013Y-92273642D01*
X107764712Y-92279768D01*
X107763812Y-92285835D01*
X107762322Y-92291785D01*
X107760255Y-92297560D01*
X107757633Y-92303104D01*
X107754480Y-92308365D01*
X107750826Y-92313292D01*
X107746707Y-92317836D01*
X107287087Y-92777456D01*
X107282543Y-92781575D01*
X107277616Y-92785229D01*
X107272355Y-92788382D01*
X107266811Y-92791004D01*
X107261036Y-92793071D01*
X107255086Y-92794561D01*
X107249019Y-92795461D01*
X107242893Y-92795762D01*
X107236767Y-92795461D01*
X107230700Y-92794561D01*
X107224750Y-92793071D01*
X107218975Y-92791004D01*
X107213431Y-92788382D01*
X107208170Y-92785229D01*
X107203243Y-92781575D01*
X107198699Y-92777456D01*
X107110311Y-92689068D01*
X107106192Y-92684524D01*
X107102538Y-92679597D01*
X107099385Y-92674336D01*
X107096763Y-92668792D01*
X107094696Y-92663017D01*
X107093206Y-92657067D01*
X107092306Y-92651000D01*
X107092005Y-92644874D01*
X107092306Y-92638748D01*
X107093206Y-92632681D01*
X107094696Y-92626731D01*
X107096763Y-92620956D01*
X107099385Y-92615412D01*
X107102538Y-92610151D01*
X107106192Y-92605224D01*
X107110311Y-92600680D01*
X107569931Y-92141060D01*
X107574475Y-92136941D01*
X107579402Y-92133287D01*
X107584663Y-92130134D01*
X107590207Y-92127512D01*
X107595982Y-92125445D01*
X107601932Y-92123955D01*
X107607999Y-92123055D01*
X107614125Y-92122754D01*
X107620251Y-92123055D01*
X107620251Y-92123055D01*
G37*
D12*
X107428509Y-92459258D03*
D10*
G36*
X108292001Y-92123055D02*
X108298068Y-92123955D01*
X108304018Y-92125445D01*
X108309793Y-92127512D01*
X108315337Y-92130134D01*
X108320598Y-92133287D01*
X108325525Y-92136941D01*
X108330069Y-92141060D01*
X108789689Y-92600680D01*
X108793808Y-92605224D01*
X108797462Y-92610151D01*
X108800615Y-92615412D01*
X108803237Y-92620956D01*
X108805304Y-92626731D01*
X108806794Y-92632681D01*
X108807694Y-92638748D01*
X108807995Y-92644874D01*
X108807694Y-92651000D01*
X108806794Y-92657067D01*
X108805304Y-92663017D01*
X108803237Y-92668792D01*
X108800615Y-92674336D01*
X108797462Y-92679597D01*
X108793808Y-92684524D01*
X108789689Y-92689068D01*
X108701301Y-92777456D01*
X108696757Y-92781575D01*
X108691830Y-92785229D01*
X108686569Y-92788382D01*
X108681025Y-92791004D01*
X108675250Y-92793071D01*
X108669300Y-92794561D01*
X108663233Y-92795461D01*
X108657107Y-92795762D01*
X108650981Y-92795461D01*
X108644914Y-92794561D01*
X108638964Y-92793071D01*
X108633189Y-92791004D01*
X108627645Y-92788382D01*
X108622384Y-92785229D01*
X108617457Y-92781575D01*
X108612913Y-92777456D01*
X108153293Y-92317836D01*
X108149174Y-92313292D01*
X108145520Y-92308365D01*
X108142367Y-92303104D01*
X108139745Y-92297560D01*
X108137678Y-92291785D01*
X108136188Y-92285835D01*
X108135288Y-92279768D01*
X108134987Y-92273642D01*
X108135288Y-92267516D01*
X108136188Y-92261449D01*
X108137678Y-92255499D01*
X108139745Y-92249724D01*
X108142367Y-92244180D01*
X108145520Y-92238919D01*
X108149174Y-92233992D01*
X108153293Y-92229448D01*
X108241681Y-92141060D01*
X108246225Y-92136941D01*
X108251152Y-92133287D01*
X108256413Y-92130134D01*
X108261957Y-92127512D01*
X108267732Y-92125445D01*
X108273682Y-92123955D01*
X108279749Y-92123055D01*
X108285875Y-92122754D01*
X108292001Y-92123055D01*
X108292001Y-92123055D01*
G37*
D12*
X108471491Y-92459258D03*
D10*
G36*
X108645555Y-91769502D02*
X108651622Y-91770402D01*
X108657572Y-91771892D01*
X108663347Y-91773959D01*
X108668891Y-91776581D01*
X108674152Y-91779734D01*
X108679079Y-91783388D01*
X108683623Y-91787507D01*
X109143243Y-92247127D01*
X109147362Y-92251671D01*
X109151016Y-92256598D01*
X109154169Y-92261859D01*
X109156791Y-92267403D01*
X109158858Y-92273178D01*
X109160348Y-92279128D01*
X109161248Y-92285195D01*
X109161549Y-92291321D01*
X109161248Y-92297447D01*
X109160348Y-92303514D01*
X109158858Y-92309464D01*
X109156791Y-92315239D01*
X109154169Y-92320783D01*
X109151016Y-92326044D01*
X109147362Y-92330971D01*
X109143243Y-92335515D01*
X109054855Y-92423903D01*
X109050311Y-92428022D01*
X109045384Y-92431676D01*
X109040123Y-92434829D01*
X109034579Y-92437451D01*
X109028804Y-92439518D01*
X109022854Y-92441008D01*
X109016787Y-92441908D01*
X109010661Y-92442209D01*
X109004535Y-92441908D01*
X108998468Y-92441008D01*
X108992518Y-92439518D01*
X108986743Y-92437451D01*
X108981199Y-92434829D01*
X108975938Y-92431676D01*
X108971011Y-92428022D01*
X108966467Y-92423903D01*
X108506847Y-91964283D01*
X108502728Y-91959739D01*
X108499074Y-91954812D01*
X108495921Y-91949551D01*
X108493299Y-91944007D01*
X108491232Y-91938232D01*
X108489742Y-91932282D01*
X108488842Y-91926215D01*
X108488541Y-91920089D01*
X108488842Y-91913963D01*
X108489742Y-91907896D01*
X108491232Y-91901946D01*
X108493299Y-91896171D01*
X108495921Y-91890627D01*
X108499074Y-91885366D01*
X108502728Y-91880439D01*
X108506847Y-91875895D01*
X108595235Y-91787507D01*
X108599779Y-91783388D01*
X108604706Y-91779734D01*
X108609967Y-91776581D01*
X108615511Y-91773959D01*
X108621286Y-91771892D01*
X108627236Y-91770402D01*
X108633303Y-91769502D01*
X108639429Y-91769201D01*
X108645555Y-91769502D01*
X108645555Y-91769502D01*
G37*
D12*
X108825045Y-92105705D03*
D10*
G36*
X108999108Y-91415948D02*
X109005175Y-91416848D01*
X109011125Y-91418338D01*
X109016900Y-91420405D01*
X109022444Y-91423027D01*
X109027705Y-91426180D01*
X109032632Y-91429834D01*
X109037176Y-91433953D01*
X109496796Y-91893573D01*
X109500915Y-91898117D01*
X109504569Y-91903044D01*
X109507722Y-91908305D01*
X109510344Y-91913849D01*
X109512411Y-91919624D01*
X109513901Y-91925574D01*
X109514801Y-91931641D01*
X109515102Y-91937767D01*
X109514801Y-91943893D01*
X109513901Y-91949960D01*
X109512411Y-91955910D01*
X109510344Y-91961685D01*
X109507722Y-91967229D01*
X109504569Y-91972490D01*
X109500915Y-91977417D01*
X109496796Y-91981961D01*
X109408408Y-92070349D01*
X109403864Y-92074468D01*
X109398937Y-92078122D01*
X109393676Y-92081275D01*
X109388132Y-92083897D01*
X109382357Y-92085964D01*
X109376407Y-92087454D01*
X109370340Y-92088354D01*
X109364214Y-92088655D01*
X109358088Y-92088354D01*
X109352021Y-92087454D01*
X109346071Y-92085964D01*
X109340296Y-92083897D01*
X109334752Y-92081275D01*
X109329491Y-92078122D01*
X109324564Y-92074468D01*
X109320020Y-92070349D01*
X108860400Y-91610729D01*
X108856281Y-91606185D01*
X108852627Y-91601258D01*
X108849474Y-91595997D01*
X108846852Y-91590453D01*
X108844785Y-91584678D01*
X108843295Y-91578728D01*
X108842395Y-91572661D01*
X108842094Y-91566535D01*
X108842395Y-91560409D01*
X108843295Y-91554342D01*
X108844785Y-91548392D01*
X108846852Y-91542617D01*
X108849474Y-91537073D01*
X108852627Y-91531812D01*
X108856281Y-91526885D01*
X108860400Y-91522341D01*
X108948788Y-91433953D01*
X108953332Y-91429834D01*
X108958259Y-91426180D01*
X108963520Y-91423027D01*
X108969064Y-91420405D01*
X108974839Y-91418338D01*
X108980789Y-91416848D01*
X108986856Y-91415948D01*
X108992982Y-91415647D01*
X108999108Y-91415948D01*
X108999108Y-91415948D01*
G37*
D12*
X109178598Y-91752151D03*
D10*
G36*
X109352661Y-91062395D02*
X109358728Y-91063295D01*
X109364678Y-91064785D01*
X109370453Y-91066852D01*
X109375997Y-91069474D01*
X109381258Y-91072627D01*
X109386185Y-91076281D01*
X109390729Y-91080400D01*
X109850349Y-91540020D01*
X109854468Y-91544564D01*
X109858122Y-91549491D01*
X109861275Y-91554752D01*
X109863897Y-91560296D01*
X109865964Y-91566071D01*
X109867454Y-91572021D01*
X109868354Y-91578088D01*
X109868655Y-91584214D01*
X109868354Y-91590340D01*
X109867454Y-91596407D01*
X109865964Y-91602357D01*
X109863897Y-91608132D01*
X109861275Y-91613676D01*
X109858122Y-91618937D01*
X109854468Y-91623864D01*
X109850349Y-91628408D01*
X109761961Y-91716796D01*
X109757417Y-91720915D01*
X109752490Y-91724569D01*
X109747229Y-91727722D01*
X109741685Y-91730344D01*
X109735910Y-91732411D01*
X109729960Y-91733901D01*
X109723893Y-91734801D01*
X109717767Y-91735102D01*
X109711641Y-91734801D01*
X109705574Y-91733901D01*
X109699624Y-91732411D01*
X109693849Y-91730344D01*
X109688305Y-91727722D01*
X109683044Y-91724569D01*
X109678117Y-91720915D01*
X109673573Y-91716796D01*
X109213953Y-91257176D01*
X109209834Y-91252632D01*
X109206180Y-91247705D01*
X109203027Y-91242444D01*
X109200405Y-91236900D01*
X109198338Y-91231125D01*
X109196848Y-91225175D01*
X109195948Y-91219108D01*
X109195647Y-91212982D01*
X109195948Y-91206856D01*
X109196848Y-91200789D01*
X109198338Y-91194839D01*
X109200405Y-91189064D01*
X109203027Y-91183520D01*
X109206180Y-91178259D01*
X109209834Y-91173332D01*
X109213953Y-91168788D01*
X109302341Y-91080400D01*
X109306885Y-91076281D01*
X109311812Y-91072627D01*
X109317073Y-91069474D01*
X109322617Y-91066852D01*
X109328392Y-91064785D01*
X109334342Y-91063295D01*
X109340409Y-91062395D01*
X109346535Y-91062094D01*
X109352661Y-91062395D01*
X109352661Y-91062395D01*
G37*
D12*
X109532151Y-91398598D03*
D10*
G36*
X109706215Y-90708842D02*
X109712282Y-90709742D01*
X109718232Y-90711232D01*
X109724007Y-90713299D01*
X109729551Y-90715921D01*
X109734812Y-90719074D01*
X109739739Y-90722728D01*
X109744283Y-90726847D01*
X110203903Y-91186467D01*
X110208022Y-91191011D01*
X110211676Y-91195938D01*
X110214829Y-91201199D01*
X110217451Y-91206743D01*
X110219518Y-91212518D01*
X110221008Y-91218468D01*
X110221908Y-91224535D01*
X110222209Y-91230661D01*
X110221908Y-91236787D01*
X110221008Y-91242854D01*
X110219518Y-91248804D01*
X110217451Y-91254579D01*
X110214829Y-91260123D01*
X110211676Y-91265384D01*
X110208022Y-91270311D01*
X110203903Y-91274855D01*
X110115515Y-91363243D01*
X110110971Y-91367362D01*
X110106044Y-91371016D01*
X110100783Y-91374169D01*
X110095239Y-91376791D01*
X110089464Y-91378858D01*
X110083514Y-91380348D01*
X110077447Y-91381248D01*
X110071321Y-91381549D01*
X110065195Y-91381248D01*
X110059128Y-91380348D01*
X110053178Y-91378858D01*
X110047403Y-91376791D01*
X110041859Y-91374169D01*
X110036598Y-91371016D01*
X110031671Y-91367362D01*
X110027127Y-91363243D01*
X109567507Y-90903623D01*
X109563388Y-90899079D01*
X109559734Y-90894152D01*
X109556581Y-90888891D01*
X109553959Y-90883347D01*
X109551892Y-90877572D01*
X109550402Y-90871622D01*
X109549502Y-90865555D01*
X109549201Y-90859429D01*
X109549502Y-90853303D01*
X109550402Y-90847236D01*
X109551892Y-90841286D01*
X109553959Y-90835511D01*
X109556581Y-90829967D01*
X109559734Y-90824706D01*
X109563388Y-90819779D01*
X109567507Y-90815235D01*
X109655895Y-90726847D01*
X109660439Y-90722728D01*
X109665366Y-90719074D01*
X109670627Y-90715921D01*
X109676171Y-90713299D01*
X109681946Y-90711232D01*
X109687896Y-90709742D01*
X109693963Y-90708842D01*
X109700089Y-90708541D01*
X109706215Y-90708842D01*
X109706215Y-90708842D01*
G37*
D12*
X109885705Y-91045045D03*
D10*
G36*
X110059768Y-90355288D02*
X110065835Y-90356188D01*
X110071785Y-90357678D01*
X110077560Y-90359745D01*
X110083104Y-90362367D01*
X110088365Y-90365520D01*
X110093292Y-90369174D01*
X110097836Y-90373293D01*
X110557456Y-90832913D01*
X110561575Y-90837457D01*
X110565229Y-90842384D01*
X110568382Y-90847645D01*
X110571004Y-90853189D01*
X110573071Y-90858964D01*
X110574561Y-90864914D01*
X110575461Y-90870981D01*
X110575762Y-90877107D01*
X110575461Y-90883233D01*
X110574561Y-90889300D01*
X110573071Y-90895250D01*
X110571004Y-90901025D01*
X110568382Y-90906569D01*
X110565229Y-90911830D01*
X110561575Y-90916757D01*
X110557456Y-90921301D01*
X110469068Y-91009689D01*
X110464524Y-91013808D01*
X110459597Y-91017462D01*
X110454336Y-91020615D01*
X110448792Y-91023237D01*
X110443017Y-91025304D01*
X110437067Y-91026794D01*
X110431000Y-91027694D01*
X110424874Y-91027995D01*
X110418748Y-91027694D01*
X110412681Y-91026794D01*
X110406731Y-91025304D01*
X110400956Y-91023237D01*
X110395412Y-91020615D01*
X110390151Y-91017462D01*
X110385224Y-91013808D01*
X110380680Y-91009689D01*
X109921060Y-90550069D01*
X109916941Y-90545525D01*
X109913287Y-90540598D01*
X109910134Y-90535337D01*
X109907512Y-90529793D01*
X109905445Y-90524018D01*
X109903955Y-90518068D01*
X109903055Y-90512001D01*
X109902754Y-90505875D01*
X109903055Y-90499749D01*
X109903955Y-90493682D01*
X109905445Y-90487732D01*
X109907512Y-90481957D01*
X109910134Y-90476413D01*
X109913287Y-90471152D01*
X109916941Y-90466225D01*
X109921060Y-90461681D01*
X110009448Y-90373293D01*
X110013992Y-90369174D01*
X110018919Y-90365520D01*
X110024180Y-90362367D01*
X110029724Y-90359745D01*
X110035499Y-90357678D01*
X110041449Y-90356188D01*
X110047516Y-90355288D01*
X110053642Y-90354987D01*
X110059768Y-90355288D01*
X110059768Y-90355288D01*
G37*
D12*
X110239258Y-90691491D03*
D10*
G36*
X110431000Y-89312306D02*
X110437067Y-89313206D01*
X110443017Y-89314696D01*
X110448792Y-89316763D01*
X110454336Y-89319385D01*
X110459597Y-89322538D01*
X110464524Y-89326192D01*
X110469068Y-89330311D01*
X110557456Y-89418699D01*
X110561575Y-89423243D01*
X110565229Y-89428170D01*
X110568382Y-89433431D01*
X110571004Y-89438975D01*
X110573071Y-89444750D01*
X110574561Y-89450700D01*
X110575461Y-89456767D01*
X110575762Y-89462893D01*
X110575461Y-89469019D01*
X110574561Y-89475086D01*
X110573071Y-89481036D01*
X110571004Y-89486811D01*
X110568382Y-89492355D01*
X110565229Y-89497616D01*
X110561575Y-89502543D01*
X110557456Y-89507087D01*
X110097836Y-89966707D01*
X110093292Y-89970826D01*
X110088365Y-89974480D01*
X110083104Y-89977633D01*
X110077560Y-89980255D01*
X110071785Y-89982322D01*
X110065835Y-89983812D01*
X110059768Y-89984712D01*
X110053642Y-89985013D01*
X110047516Y-89984712D01*
X110041449Y-89983812D01*
X110035499Y-89982322D01*
X110029724Y-89980255D01*
X110024180Y-89977633D01*
X110018919Y-89974480D01*
X110013992Y-89970826D01*
X110009448Y-89966707D01*
X109921060Y-89878319D01*
X109916941Y-89873775D01*
X109913287Y-89868848D01*
X109910134Y-89863587D01*
X109907512Y-89858043D01*
X109905445Y-89852268D01*
X109903955Y-89846318D01*
X109903055Y-89840251D01*
X109902754Y-89834125D01*
X109903055Y-89827999D01*
X109903955Y-89821932D01*
X109905445Y-89815982D01*
X109907512Y-89810207D01*
X109910134Y-89804663D01*
X109913287Y-89799402D01*
X109916941Y-89794475D01*
X109921060Y-89789931D01*
X110380680Y-89330311D01*
X110385224Y-89326192D01*
X110390151Y-89322538D01*
X110395412Y-89319385D01*
X110400956Y-89316763D01*
X110406731Y-89314696D01*
X110412681Y-89313206D01*
X110418748Y-89312306D01*
X110424874Y-89312005D01*
X110431000Y-89312306D01*
X110431000Y-89312306D01*
G37*
D12*
X110239258Y-89648509D03*
D10*
G36*
X110077447Y-88958752D02*
X110083514Y-88959652D01*
X110089464Y-88961142D01*
X110095239Y-88963209D01*
X110100783Y-88965831D01*
X110106044Y-88968984D01*
X110110971Y-88972638D01*
X110115515Y-88976757D01*
X110203903Y-89065145D01*
X110208022Y-89069689D01*
X110211676Y-89074616D01*
X110214829Y-89079877D01*
X110217451Y-89085421D01*
X110219518Y-89091196D01*
X110221008Y-89097146D01*
X110221908Y-89103213D01*
X110222209Y-89109339D01*
X110221908Y-89115465D01*
X110221008Y-89121532D01*
X110219518Y-89127482D01*
X110217451Y-89133257D01*
X110214829Y-89138801D01*
X110211676Y-89144062D01*
X110208022Y-89148989D01*
X110203903Y-89153533D01*
X109744283Y-89613153D01*
X109739739Y-89617272D01*
X109734812Y-89620926D01*
X109729551Y-89624079D01*
X109724007Y-89626701D01*
X109718232Y-89628768D01*
X109712282Y-89630258D01*
X109706215Y-89631158D01*
X109700089Y-89631459D01*
X109693963Y-89631158D01*
X109687896Y-89630258D01*
X109681946Y-89628768D01*
X109676171Y-89626701D01*
X109670627Y-89624079D01*
X109665366Y-89620926D01*
X109660439Y-89617272D01*
X109655895Y-89613153D01*
X109567507Y-89524765D01*
X109563388Y-89520221D01*
X109559734Y-89515294D01*
X109556581Y-89510033D01*
X109553959Y-89504489D01*
X109551892Y-89498714D01*
X109550402Y-89492764D01*
X109549502Y-89486697D01*
X109549201Y-89480571D01*
X109549502Y-89474445D01*
X109550402Y-89468378D01*
X109551892Y-89462428D01*
X109553959Y-89456653D01*
X109556581Y-89451109D01*
X109559734Y-89445848D01*
X109563388Y-89440921D01*
X109567507Y-89436377D01*
X110027127Y-88976757D01*
X110031671Y-88972638D01*
X110036598Y-88968984D01*
X110041859Y-88965831D01*
X110047403Y-88963209D01*
X110053178Y-88961142D01*
X110059128Y-88959652D01*
X110065195Y-88958752D01*
X110071321Y-88958451D01*
X110077447Y-88958752D01*
X110077447Y-88958752D01*
G37*
D12*
X109885705Y-89294955D03*
D10*
G36*
X109723893Y-88605199D02*
X109729960Y-88606099D01*
X109735910Y-88607589D01*
X109741685Y-88609656D01*
X109747229Y-88612278D01*
X109752490Y-88615431D01*
X109757417Y-88619085D01*
X109761961Y-88623204D01*
X109850349Y-88711592D01*
X109854468Y-88716136D01*
X109858122Y-88721063D01*
X109861275Y-88726324D01*
X109863897Y-88731868D01*
X109865964Y-88737643D01*
X109867454Y-88743593D01*
X109868354Y-88749660D01*
X109868655Y-88755786D01*
X109868354Y-88761912D01*
X109867454Y-88767979D01*
X109865964Y-88773929D01*
X109863897Y-88779704D01*
X109861275Y-88785248D01*
X109858122Y-88790509D01*
X109854468Y-88795436D01*
X109850349Y-88799980D01*
X109390729Y-89259600D01*
X109386185Y-89263719D01*
X109381258Y-89267373D01*
X109375997Y-89270526D01*
X109370453Y-89273148D01*
X109364678Y-89275215D01*
X109358728Y-89276705D01*
X109352661Y-89277605D01*
X109346535Y-89277906D01*
X109340409Y-89277605D01*
X109334342Y-89276705D01*
X109328392Y-89275215D01*
X109322617Y-89273148D01*
X109317073Y-89270526D01*
X109311812Y-89267373D01*
X109306885Y-89263719D01*
X109302341Y-89259600D01*
X109213953Y-89171212D01*
X109209834Y-89166668D01*
X109206180Y-89161741D01*
X109203027Y-89156480D01*
X109200405Y-89150936D01*
X109198338Y-89145161D01*
X109196848Y-89139211D01*
X109195948Y-89133144D01*
X109195647Y-89127018D01*
X109195948Y-89120892D01*
X109196848Y-89114825D01*
X109198338Y-89108875D01*
X109200405Y-89103100D01*
X109203027Y-89097556D01*
X109206180Y-89092295D01*
X109209834Y-89087368D01*
X109213953Y-89082824D01*
X109673573Y-88623204D01*
X109678117Y-88619085D01*
X109683044Y-88615431D01*
X109688305Y-88612278D01*
X109693849Y-88609656D01*
X109699624Y-88607589D01*
X109705574Y-88606099D01*
X109711641Y-88605199D01*
X109717767Y-88604898D01*
X109723893Y-88605199D01*
X109723893Y-88605199D01*
G37*
D12*
X109532151Y-88941402D03*
D10*
G36*
X109370340Y-88251646D02*
X109376407Y-88252546D01*
X109382357Y-88254036D01*
X109388132Y-88256103D01*
X109393676Y-88258725D01*
X109398937Y-88261878D01*
X109403864Y-88265532D01*
X109408408Y-88269651D01*
X109496796Y-88358039D01*
X109500915Y-88362583D01*
X109504569Y-88367510D01*
X109507722Y-88372771D01*
X109510344Y-88378315D01*
X109512411Y-88384090D01*
X109513901Y-88390040D01*
X109514801Y-88396107D01*
X109515102Y-88402233D01*
X109514801Y-88408359D01*
X109513901Y-88414426D01*
X109512411Y-88420376D01*
X109510344Y-88426151D01*
X109507722Y-88431695D01*
X109504569Y-88436956D01*
X109500915Y-88441883D01*
X109496796Y-88446427D01*
X109037176Y-88906047D01*
X109032632Y-88910166D01*
X109027705Y-88913820D01*
X109022444Y-88916973D01*
X109016900Y-88919595D01*
X109011125Y-88921662D01*
X109005175Y-88923152D01*
X108999108Y-88924052D01*
X108992982Y-88924353D01*
X108986856Y-88924052D01*
X108980789Y-88923152D01*
X108974839Y-88921662D01*
X108969064Y-88919595D01*
X108963520Y-88916973D01*
X108958259Y-88913820D01*
X108953332Y-88910166D01*
X108948788Y-88906047D01*
X108860400Y-88817659D01*
X108856281Y-88813115D01*
X108852627Y-88808188D01*
X108849474Y-88802927D01*
X108846852Y-88797383D01*
X108844785Y-88791608D01*
X108843295Y-88785658D01*
X108842395Y-88779591D01*
X108842094Y-88773465D01*
X108842395Y-88767339D01*
X108843295Y-88761272D01*
X108844785Y-88755322D01*
X108846852Y-88749547D01*
X108849474Y-88744003D01*
X108852627Y-88738742D01*
X108856281Y-88733815D01*
X108860400Y-88729271D01*
X109320020Y-88269651D01*
X109324564Y-88265532D01*
X109329491Y-88261878D01*
X109334752Y-88258725D01*
X109340296Y-88256103D01*
X109346071Y-88254036D01*
X109352021Y-88252546D01*
X109358088Y-88251646D01*
X109364214Y-88251345D01*
X109370340Y-88251646D01*
X109370340Y-88251646D01*
G37*
D12*
X109178598Y-88587849D03*
D10*
G36*
X109016787Y-87898092D02*
X109022854Y-87898992D01*
X109028804Y-87900482D01*
X109034579Y-87902549D01*
X109040123Y-87905171D01*
X109045384Y-87908324D01*
X109050311Y-87911978D01*
X109054855Y-87916097D01*
X109143243Y-88004485D01*
X109147362Y-88009029D01*
X109151016Y-88013956D01*
X109154169Y-88019217D01*
X109156791Y-88024761D01*
X109158858Y-88030536D01*
X109160348Y-88036486D01*
X109161248Y-88042553D01*
X109161549Y-88048679D01*
X109161248Y-88054805D01*
X109160348Y-88060872D01*
X109158858Y-88066822D01*
X109156791Y-88072597D01*
X109154169Y-88078141D01*
X109151016Y-88083402D01*
X109147362Y-88088329D01*
X109143243Y-88092873D01*
X108683623Y-88552493D01*
X108679079Y-88556612D01*
X108674152Y-88560266D01*
X108668891Y-88563419D01*
X108663347Y-88566041D01*
X108657572Y-88568108D01*
X108651622Y-88569598D01*
X108645555Y-88570498D01*
X108639429Y-88570799D01*
X108633303Y-88570498D01*
X108627236Y-88569598D01*
X108621286Y-88568108D01*
X108615511Y-88566041D01*
X108609967Y-88563419D01*
X108604706Y-88560266D01*
X108599779Y-88556612D01*
X108595235Y-88552493D01*
X108506847Y-88464105D01*
X108502728Y-88459561D01*
X108499074Y-88454634D01*
X108495921Y-88449373D01*
X108493299Y-88443829D01*
X108491232Y-88438054D01*
X108489742Y-88432104D01*
X108488842Y-88426037D01*
X108488541Y-88419911D01*
X108488842Y-88413785D01*
X108489742Y-88407718D01*
X108491232Y-88401768D01*
X108493299Y-88395993D01*
X108495921Y-88390449D01*
X108499074Y-88385188D01*
X108502728Y-88380261D01*
X108506847Y-88375717D01*
X108966467Y-87916097D01*
X108971011Y-87911978D01*
X108975938Y-87908324D01*
X108981199Y-87905171D01*
X108986743Y-87902549D01*
X108992518Y-87900482D01*
X108998468Y-87898992D01*
X109004535Y-87898092D01*
X109010661Y-87897791D01*
X109016787Y-87898092D01*
X109016787Y-87898092D01*
G37*
D12*
X108825045Y-88234295D03*
D10*
G36*
X108663233Y-87544539D02*
X108669300Y-87545439D01*
X108675250Y-87546929D01*
X108681025Y-87548996D01*
X108686569Y-87551618D01*
X108691830Y-87554771D01*
X108696757Y-87558425D01*
X108701301Y-87562544D01*
X108789689Y-87650932D01*
X108793808Y-87655476D01*
X108797462Y-87660403D01*
X108800615Y-87665664D01*
X108803237Y-87671208D01*
X108805304Y-87676983D01*
X108806794Y-87682933D01*
X108807694Y-87689000D01*
X108807995Y-87695126D01*
X108807694Y-87701252D01*
X108806794Y-87707319D01*
X108805304Y-87713269D01*
X108803237Y-87719044D01*
X108800615Y-87724588D01*
X108797462Y-87729849D01*
X108793808Y-87734776D01*
X108789689Y-87739320D01*
X108330069Y-88198940D01*
X108325525Y-88203059D01*
X108320598Y-88206713D01*
X108315337Y-88209866D01*
X108309793Y-88212488D01*
X108304018Y-88214555D01*
X108298068Y-88216045D01*
X108292001Y-88216945D01*
X108285875Y-88217246D01*
X108279749Y-88216945D01*
X108273682Y-88216045D01*
X108267732Y-88214555D01*
X108261957Y-88212488D01*
X108256413Y-88209866D01*
X108251152Y-88206713D01*
X108246225Y-88203059D01*
X108241681Y-88198940D01*
X108153293Y-88110552D01*
X108149174Y-88106008D01*
X108145520Y-88101081D01*
X108142367Y-88095820D01*
X108139745Y-88090276D01*
X108137678Y-88084501D01*
X108136188Y-88078551D01*
X108135288Y-88072484D01*
X108134987Y-88066358D01*
X108135288Y-88060232D01*
X108136188Y-88054165D01*
X108137678Y-88048215D01*
X108139745Y-88042440D01*
X108142367Y-88036896D01*
X108145520Y-88031635D01*
X108149174Y-88026708D01*
X108153293Y-88022164D01*
X108612913Y-87562544D01*
X108617457Y-87558425D01*
X108622384Y-87554771D01*
X108627645Y-87551618D01*
X108633189Y-87548996D01*
X108638964Y-87546929D01*
X108644914Y-87545439D01*
X108650981Y-87544539D01*
X108657107Y-87544238D01*
X108663233Y-87544539D01*
X108663233Y-87544539D01*
G37*
D12*
X108471491Y-87880742D03*
G04 #@! TD*
M02*
