G04 #@! TF.GenerationSoftware,KiCad,Pcbnew,(5.0.0-3-g5ebb6b6)*
G04 #@! TF.CreationDate,2019-03-06T19:57:38+00:00*
G04 #@! TF.ProjectId,QFN16,51464E31362E6B696361645F70636200,rev?*
G04 #@! TF.SameCoordinates,Original*
G04 #@! TF.FileFunction,Soldermask,Top*
G04 #@! TF.FilePolarity,Negative*
%FSLAX46Y46*%
G04 Gerber Fmt 4.6, Leading zero omitted, Abs format (unit mm)*
G04 Created by KiCad (PCBNEW (5.0.0-3-g5ebb6b6)) date Wednesday, 06 March 2019 at 19:57:38*
%MOMM*%
%LPD*%
G01*
G04 APERTURE LIST*
%ADD10R,2.000000X2.000000*%
%ADD11O,2.000000X2.000000*%
%ADD12R,2.100000X2.100000*%
%ADD13C,0.100000*%
%ADD14C,3.100000*%
%ADD15C,0.700000*%
G04 APERTURE END LIST*
D10*
G04 #@! TO.C,J_DIP16*
X134620000Y-55880000D03*
D11*
X142240000Y-73660000D03*
X134620000Y-58420000D03*
X142240000Y-71120000D03*
X134620000Y-60960000D03*
X142240000Y-68580000D03*
X134620000Y-63500000D03*
X142240000Y-66040000D03*
X134620000Y-66040000D03*
X142240000Y-63500000D03*
X134620000Y-68580000D03*
X142240000Y-60960000D03*
X134620000Y-71120000D03*
X142240000Y-58420000D03*
X134620000Y-73660000D03*
X142240000Y-55880000D03*
G04 #@! TD*
D12*
G04 #@! TO.C,J_EP1*
X138430000Y-55880000D03*
G04 #@! TD*
G04 #@! TO.C,J_EP2*
X138430000Y-73660000D03*
G04 #@! TD*
D13*
G04 #@! TO.C,J_QFN16*
G36*
X138458135Y-62698246D02*
X138485998Y-62702379D01*
X138513323Y-62709224D01*
X138539845Y-62718713D01*
X138565309Y-62730757D01*
X138589470Y-62745239D01*
X138612095Y-62762019D01*
X138632967Y-62780935D01*
X140419065Y-64567033D01*
X140437981Y-64587905D01*
X140454761Y-64610530D01*
X140469243Y-64634691D01*
X140481287Y-64660155D01*
X140490776Y-64686677D01*
X140497621Y-64714002D01*
X140501754Y-64741865D01*
X140503136Y-64770000D01*
X140501754Y-64798135D01*
X140497621Y-64825998D01*
X140490776Y-64853323D01*
X140481287Y-64879845D01*
X140469243Y-64905309D01*
X140454761Y-64929470D01*
X140437981Y-64952095D01*
X140419065Y-64972967D01*
X138632967Y-66759065D01*
X138612095Y-66777981D01*
X138589470Y-66794761D01*
X138565309Y-66809243D01*
X138539845Y-66821287D01*
X138513323Y-66830776D01*
X138485998Y-66837621D01*
X138458135Y-66841754D01*
X138430000Y-66843136D01*
X138401865Y-66841754D01*
X138374002Y-66837621D01*
X138346677Y-66830776D01*
X138320155Y-66821287D01*
X138294691Y-66809243D01*
X138270530Y-66794761D01*
X138247905Y-66777981D01*
X138227033Y-66759065D01*
X136440935Y-64972967D01*
X136422019Y-64952095D01*
X136405239Y-64929470D01*
X136390757Y-64905309D01*
X136378713Y-64879845D01*
X136369224Y-64853323D01*
X136362379Y-64825998D01*
X136358246Y-64798135D01*
X136356864Y-64770000D01*
X136358246Y-64741865D01*
X136362379Y-64714002D01*
X136369224Y-64686677D01*
X136378713Y-64660155D01*
X136390757Y-64634691D01*
X136405239Y-64610530D01*
X136422019Y-64587905D01*
X136440935Y-64567033D01*
X138227033Y-62780935D01*
X138247905Y-62762019D01*
X138270530Y-62745239D01*
X138294691Y-62730757D01*
X138320155Y-62718713D01*
X138346677Y-62709224D01*
X138374002Y-62702379D01*
X138401865Y-62698246D01*
X138430000Y-62696864D01*
X138458135Y-62698246D01*
X138458135Y-62698246D01*
G37*
D14*
X138430000Y-64770000D03*
D13*
G36*
X137563269Y-62085614D02*
X137580257Y-62088134D01*
X137596916Y-62092306D01*
X137613086Y-62098092D01*
X137628610Y-62105435D01*
X137643341Y-62114264D01*
X137657135Y-62124494D01*
X137669860Y-62136027D01*
X138288579Y-62754746D01*
X138300112Y-62767471D01*
X138310342Y-62781265D01*
X138319171Y-62795996D01*
X138326514Y-62811520D01*
X138332300Y-62827690D01*
X138336472Y-62844349D01*
X138338992Y-62861337D01*
X138339835Y-62878490D01*
X138338992Y-62895643D01*
X138336472Y-62912631D01*
X138332300Y-62929290D01*
X138326514Y-62945460D01*
X138319171Y-62960984D01*
X138310342Y-62975715D01*
X138300112Y-62989509D01*
X138288579Y-63002234D01*
X138041092Y-63249721D01*
X138028367Y-63261254D01*
X138014573Y-63271484D01*
X137999842Y-63280313D01*
X137984318Y-63287656D01*
X137968148Y-63293442D01*
X137951489Y-63297614D01*
X137934501Y-63300134D01*
X137917348Y-63300977D01*
X137900195Y-63300134D01*
X137883207Y-63297614D01*
X137866548Y-63293442D01*
X137850378Y-63287656D01*
X137834854Y-63280313D01*
X137820123Y-63271484D01*
X137806329Y-63261254D01*
X137793604Y-63249721D01*
X137174885Y-62631002D01*
X137163352Y-62618277D01*
X137153122Y-62604483D01*
X137144293Y-62589752D01*
X137136950Y-62574228D01*
X137131164Y-62558058D01*
X137126992Y-62541399D01*
X137124472Y-62524411D01*
X137123629Y-62507258D01*
X137124472Y-62490105D01*
X137126992Y-62473117D01*
X137131164Y-62456458D01*
X137136950Y-62440288D01*
X137144293Y-62424764D01*
X137153122Y-62410033D01*
X137163352Y-62396239D01*
X137174885Y-62383514D01*
X137422372Y-62136027D01*
X137435097Y-62124494D01*
X137448891Y-62114264D01*
X137463622Y-62105435D01*
X137479146Y-62098092D01*
X137495316Y-62092306D01*
X137511975Y-62088134D01*
X137528963Y-62085614D01*
X137546116Y-62084771D01*
X137563269Y-62085614D01*
X137563269Y-62085614D01*
G37*
D15*
X137731732Y-62692874D03*
D13*
G36*
X137103650Y-62545233D02*
X137120638Y-62547753D01*
X137137297Y-62551925D01*
X137153467Y-62557711D01*
X137168991Y-62565054D01*
X137183722Y-62573883D01*
X137197516Y-62584113D01*
X137210241Y-62595646D01*
X137828960Y-63214365D01*
X137840493Y-63227090D01*
X137850723Y-63240884D01*
X137859552Y-63255615D01*
X137866895Y-63271139D01*
X137872681Y-63287309D01*
X137876853Y-63303968D01*
X137879373Y-63320956D01*
X137880216Y-63338109D01*
X137879373Y-63355262D01*
X137876853Y-63372250D01*
X137872681Y-63388909D01*
X137866895Y-63405079D01*
X137859552Y-63420603D01*
X137850723Y-63435334D01*
X137840493Y-63449128D01*
X137828960Y-63461853D01*
X137581473Y-63709340D01*
X137568748Y-63720873D01*
X137554954Y-63731103D01*
X137540223Y-63739932D01*
X137524699Y-63747275D01*
X137508529Y-63753061D01*
X137491870Y-63757233D01*
X137474882Y-63759753D01*
X137457729Y-63760596D01*
X137440576Y-63759753D01*
X137423588Y-63757233D01*
X137406929Y-63753061D01*
X137390759Y-63747275D01*
X137375235Y-63739932D01*
X137360504Y-63731103D01*
X137346710Y-63720873D01*
X137333985Y-63709340D01*
X136715266Y-63090621D01*
X136703733Y-63077896D01*
X136693503Y-63064102D01*
X136684674Y-63049371D01*
X136677331Y-63033847D01*
X136671545Y-63017677D01*
X136667373Y-63001018D01*
X136664853Y-62984030D01*
X136664010Y-62966877D01*
X136664853Y-62949724D01*
X136667373Y-62932736D01*
X136671545Y-62916077D01*
X136677331Y-62899907D01*
X136684674Y-62884383D01*
X136693503Y-62869652D01*
X136703733Y-62855858D01*
X136715266Y-62843133D01*
X136962753Y-62595646D01*
X136975478Y-62584113D01*
X136989272Y-62573883D01*
X137004003Y-62565054D01*
X137019527Y-62557711D01*
X137035697Y-62551925D01*
X137052356Y-62547753D01*
X137069344Y-62545233D01*
X137086497Y-62544390D01*
X137103650Y-62545233D01*
X137103650Y-62545233D01*
G37*
D15*
X137272113Y-63152493D03*
D13*
G36*
X136644030Y-63004853D02*
X136661018Y-63007373D01*
X136677677Y-63011545D01*
X136693847Y-63017331D01*
X136709371Y-63024674D01*
X136724102Y-63033503D01*
X136737896Y-63043733D01*
X136750621Y-63055266D01*
X137369340Y-63673985D01*
X137380873Y-63686710D01*
X137391103Y-63700504D01*
X137399932Y-63715235D01*
X137407275Y-63730759D01*
X137413061Y-63746929D01*
X137417233Y-63763588D01*
X137419753Y-63780576D01*
X137420596Y-63797729D01*
X137419753Y-63814882D01*
X137417233Y-63831870D01*
X137413061Y-63848529D01*
X137407275Y-63864699D01*
X137399932Y-63880223D01*
X137391103Y-63894954D01*
X137380873Y-63908748D01*
X137369340Y-63921473D01*
X137121853Y-64168960D01*
X137109128Y-64180493D01*
X137095334Y-64190723D01*
X137080603Y-64199552D01*
X137065079Y-64206895D01*
X137048909Y-64212681D01*
X137032250Y-64216853D01*
X137015262Y-64219373D01*
X136998109Y-64220216D01*
X136980956Y-64219373D01*
X136963968Y-64216853D01*
X136947309Y-64212681D01*
X136931139Y-64206895D01*
X136915615Y-64199552D01*
X136900884Y-64190723D01*
X136887090Y-64180493D01*
X136874365Y-64168960D01*
X136255646Y-63550241D01*
X136244113Y-63537516D01*
X136233883Y-63523722D01*
X136225054Y-63508991D01*
X136217711Y-63493467D01*
X136211925Y-63477297D01*
X136207753Y-63460638D01*
X136205233Y-63443650D01*
X136204390Y-63426497D01*
X136205233Y-63409344D01*
X136207753Y-63392356D01*
X136211925Y-63375697D01*
X136217711Y-63359527D01*
X136225054Y-63344003D01*
X136233883Y-63329272D01*
X136244113Y-63315478D01*
X136255646Y-63302753D01*
X136503133Y-63055266D01*
X136515858Y-63043733D01*
X136529652Y-63033503D01*
X136544383Y-63024674D01*
X136559907Y-63017331D01*
X136576077Y-63011545D01*
X136592736Y-63007373D01*
X136609724Y-63004853D01*
X136626877Y-63004010D01*
X136644030Y-63004853D01*
X136644030Y-63004853D01*
G37*
D15*
X136812493Y-63612113D03*
D13*
G36*
X136184411Y-63464472D02*
X136201399Y-63466992D01*
X136218058Y-63471164D01*
X136234228Y-63476950D01*
X136249752Y-63484293D01*
X136264483Y-63493122D01*
X136278277Y-63503352D01*
X136291002Y-63514885D01*
X136909721Y-64133604D01*
X136921254Y-64146329D01*
X136931484Y-64160123D01*
X136940313Y-64174854D01*
X136947656Y-64190378D01*
X136953442Y-64206548D01*
X136957614Y-64223207D01*
X136960134Y-64240195D01*
X136960977Y-64257348D01*
X136960134Y-64274501D01*
X136957614Y-64291489D01*
X136953442Y-64308148D01*
X136947656Y-64324318D01*
X136940313Y-64339842D01*
X136931484Y-64354573D01*
X136921254Y-64368367D01*
X136909721Y-64381092D01*
X136662234Y-64628579D01*
X136649509Y-64640112D01*
X136635715Y-64650342D01*
X136620984Y-64659171D01*
X136605460Y-64666514D01*
X136589290Y-64672300D01*
X136572631Y-64676472D01*
X136555643Y-64678992D01*
X136538490Y-64679835D01*
X136521337Y-64678992D01*
X136504349Y-64676472D01*
X136487690Y-64672300D01*
X136471520Y-64666514D01*
X136455996Y-64659171D01*
X136441265Y-64650342D01*
X136427471Y-64640112D01*
X136414746Y-64628579D01*
X135796027Y-64009860D01*
X135784494Y-63997135D01*
X135774264Y-63983341D01*
X135765435Y-63968610D01*
X135758092Y-63953086D01*
X135752306Y-63936916D01*
X135748134Y-63920257D01*
X135745614Y-63903269D01*
X135744771Y-63886116D01*
X135745614Y-63868963D01*
X135748134Y-63851975D01*
X135752306Y-63835316D01*
X135758092Y-63819146D01*
X135765435Y-63803622D01*
X135774264Y-63788891D01*
X135784494Y-63775097D01*
X135796027Y-63762372D01*
X136043514Y-63514885D01*
X136056239Y-63503352D01*
X136070033Y-63493122D01*
X136084764Y-63484293D01*
X136100288Y-63476950D01*
X136116458Y-63471164D01*
X136133117Y-63466992D01*
X136150105Y-63464472D01*
X136167258Y-63463629D01*
X136184411Y-63464472D01*
X136184411Y-63464472D01*
G37*
D15*
X136352874Y-64071732D03*
D13*
G36*
X136555643Y-64861008D02*
X136572631Y-64863528D01*
X136589290Y-64867700D01*
X136605460Y-64873486D01*
X136620984Y-64880829D01*
X136635715Y-64889658D01*
X136649509Y-64899888D01*
X136662234Y-64911421D01*
X136909721Y-65158908D01*
X136921254Y-65171633D01*
X136931484Y-65185427D01*
X136940313Y-65200158D01*
X136947656Y-65215682D01*
X136953442Y-65231852D01*
X136957614Y-65248511D01*
X136960134Y-65265499D01*
X136960977Y-65282652D01*
X136960134Y-65299805D01*
X136957614Y-65316793D01*
X136953442Y-65333452D01*
X136947656Y-65349622D01*
X136940313Y-65365146D01*
X136931484Y-65379877D01*
X136921254Y-65393671D01*
X136909721Y-65406396D01*
X136291002Y-66025115D01*
X136278277Y-66036648D01*
X136264483Y-66046878D01*
X136249752Y-66055707D01*
X136234228Y-66063050D01*
X136218058Y-66068836D01*
X136201399Y-66073008D01*
X136184411Y-66075528D01*
X136167258Y-66076371D01*
X136150105Y-66075528D01*
X136133117Y-66073008D01*
X136116458Y-66068836D01*
X136100288Y-66063050D01*
X136084764Y-66055707D01*
X136070033Y-66046878D01*
X136056239Y-66036648D01*
X136043514Y-66025115D01*
X135796027Y-65777628D01*
X135784494Y-65764903D01*
X135774264Y-65751109D01*
X135765435Y-65736378D01*
X135758092Y-65720854D01*
X135752306Y-65704684D01*
X135748134Y-65688025D01*
X135745614Y-65671037D01*
X135744771Y-65653884D01*
X135745614Y-65636731D01*
X135748134Y-65619743D01*
X135752306Y-65603084D01*
X135758092Y-65586914D01*
X135765435Y-65571390D01*
X135774264Y-65556659D01*
X135784494Y-65542865D01*
X135796027Y-65530140D01*
X136414746Y-64911421D01*
X136427471Y-64899888D01*
X136441265Y-64889658D01*
X136455996Y-64880829D01*
X136471520Y-64873486D01*
X136487690Y-64867700D01*
X136504349Y-64863528D01*
X136521337Y-64861008D01*
X136538490Y-64860165D01*
X136555643Y-64861008D01*
X136555643Y-64861008D01*
G37*
D15*
X136352874Y-65468268D03*
D13*
G36*
X137015262Y-65320627D02*
X137032250Y-65323147D01*
X137048909Y-65327319D01*
X137065079Y-65333105D01*
X137080603Y-65340448D01*
X137095334Y-65349277D01*
X137109128Y-65359507D01*
X137121853Y-65371040D01*
X137369340Y-65618527D01*
X137380873Y-65631252D01*
X137391103Y-65645046D01*
X137399932Y-65659777D01*
X137407275Y-65675301D01*
X137413061Y-65691471D01*
X137417233Y-65708130D01*
X137419753Y-65725118D01*
X137420596Y-65742271D01*
X137419753Y-65759424D01*
X137417233Y-65776412D01*
X137413061Y-65793071D01*
X137407275Y-65809241D01*
X137399932Y-65824765D01*
X137391103Y-65839496D01*
X137380873Y-65853290D01*
X137369340Y-65866015D01*
X136750621Y-66484734D01*
X136737896Y-66496267D01*
X136724102Y-66506497D01*
X136709371Y-66515326D01*
X136693847Y-66522669D01*
X136677677Y-66528455D01*
X136661018Y-66532627D01*
X136644030Y-66535147D01*
X136626877Y-66535990D01*
X136609724Y-66535147D01*
X136592736Y-66532627D01*
X136576077Y-66528455D01*
X136559907Y-66522669D01*
X136544383Y-66515326D01*
X136529652Y-66506497D01*
X136515858Y-66496267D01*
X136503133Y-66484734D01*
X136255646Y-66237247D01*
X136244113Y-66224522D01*
X136233883Y-66210728D01*
X136225054Y-66195997D01*
X136217711Y-66180473D01*
X136211925Y-66164303D01*
X136207753Y-66147644D01*
X136205233Y-66130656D01*
X136204390Y-66113503D01*
X136205233Y-66096350D01*
X136207753Y-66079362D01*
X136211925Y-66062703D01*
X136217711Y-66046533D01*
X136225054Y-66031009D01*
X136233883Y-66016278D01*
X136244113Y-66002484D01*
X136255646Y-65989759D01*
X136874365Y-65371040D01*
X136887090Y-65359507D01*
X136900884Y-65349277D01*
X136915615Y-65340448D01*
X136931139Y-65333105D01*
X136947309Y-65327319D01*
X136963968Y-65323147D01*
X136980956Y-65320627D01*
X136998109Y-65319784D01*
X137015262Y-65320627D01*
X137015262Y-65320627D01*
G37*
D15*
X136812493Y-65927887D03*
D13*
G36*
X137474882Y-65780247D02*
X137491870Y-65782767D01*
X137508529Y-65786939D01*
X137524699Y-65792725D01*
X137540223Y-65800068D01*
X137554954Y-65808897D01*
X137568748Y-65819127D01*
X137581473Y-65830660D01*
X137828960Y-66078147D01*
X137840493Y-66090872D01*
X137850723Y-66104666D01*
X137859552Y-66119397D01*
X137866895Y-66134921D01*
X137872681Y-66151091D01*
X137876853Y-66167750D01*
X137879373Y-66184738D01*
X137880216Y-66201891D01*
X137879373Y-66219044D01*
X137876853Y-66236032D01*
X137872681Y-66252691D01*
X137866895Y-66268861D01*
X137859552Y-66284385D01*
X137850723Y-66299116D01*
X137840493Y-66312910D01*
X137828960Y-66325635D01*
X137210241Y-66944354D01*
X137197516Y-66955887D01*
X137183722Y-66966117D01*
X137168991Y-66974946D01*
X137153467Y-66982289D01*
X137137297Y-66988075D01*
X137120638Y-66992247D01*
X137103650Y-66994767D01*
X137086497Y-66995610D01*
X137069344Y-66994767D01*
X137052356Y-66992247D01*
X137035697Y-66988075D01*
X137019527Y-66982289D01*
X137004003Y-66974946D01*
X136989272Y-66966117D01*
X136975478Y-66955887D01*
X136962753Y-66944354D01*
X136715266Y-66696867D01*
X136703733Y-66684142D01*
X136693503Y-66670348D01*
X136684674Y-66655617D01*
X136677331Y-66640093D01*
X136671545Y-66623923D01*
X136667373Y-66607264D01*
X136664853Y-66590276D01*
X136664010Y-66573123D01*
X136664853Y-66555970D01*
X136667373Y-66538982D01*
X136671545Y-66522323D01*
X136677331Y-66506153D01*
X136684674Y-66490629D01*
X136693503Y-66475898D01*
X136703733Y-66462104D01*
X136715266Y-66449379D01*
X137333985Y-65830660D01*
X137346710Y-65819127D01*
X137360504Y-65808897D01*
X137375235Y-65800068D01*
X137390759Y-65792725D01*
X137406929Y-65786939D01*
X137423588Y-65782767D01*
X137440576Y-65780247D01*
X137457729Y-65779404D01*
X137474882Y-65780247D01*
X137474882Y-65780247D01*
G37*
D15*
X137272113Y-66387507D03*
D13*
G36*
X137934501Y-66239866D02*
X137951489Y-66242386D01*
X137968148Y-66246558D01*
X137984318Y-66252344D01*
X137999842Y-66259687D01*
X138014573Y-66268516D01*
X138028367Y-66278746D01*
X138041092Y-66290279D01*
X138288579Y-66537766D01*
X138300112Y-66550491D01*
X138310342Y-66564285D01*
X138319171Y-66579016D01*
X138326514Y-66594540D01*
X138332300Y-66610710D01*
X138336472Y-66627369D01*
X138338992Y-66644357D01*
X138339835Y-66661510D01*
X138338992Y-66678663D01*
X138336472Y-66695651D01*
X138332300Y-66712310D01*
X138326514Y-66728480D01*
X138319171Y-66744004D01*
X138310342Y-66758735D01*
X138300112Y-66772529D01*
X138288579Y-66785254D01*
X137669860Y-67403973D01*
X137657135Y-67415506D01*
X137643341Y-67425736D01*
X137628610Y-67434565D01*
X137613086Y-67441908D01*
X137596916Y-67447694D01*
X137580257Y-67451866D01*
X137563269Y-67454386D01*
X137546116Y-67455229D01*
X137528963Y-67454386D01*
X137511975Y-67451866D01*
X137495316Y-67447694D01*
X137479146Y-67441908D01*
X137463622Y-67434565D01*
X137448891Y-67425736D01*
X137435097Y-67415506D01*
X137422372Y-67403973D01*
X137174885Y-67156486D01*
X137163352Y-67143761D01*
X137153122Y-67129967D01*
X137144293Y-67115236D01*
X137136950Y-67099712D01*
X137131164Y-67083542D01*
X137126992Y-67066883D01*
X137124472Y-67049895D01*
X137123629Y-67032742D01*
X137124472Y-67015589D01*
X137126992Y-66998601D01*
X137131164Y-66981942D01*
X137136950Y-66965772D01*
X137144293Y-66950248D01*
X137153122Y-66935517D01*
X137163352Y-66921723D01*
X137174885Y-66908998D01*
X137793604Y-66290279D01*
X137806329Y-66278746D01*
X137820123Y-66268516D01*
X137834854Y-66259687D01*
X137850378Y-66252344D01*
X137866548Y-66246558D01*
X137883207Y-66242386D01*
X137900195Y-66239866D01*
X137917348Y-66239023D01*
X137934501Y-66239866D01*
X137934501Y-66239866D01*
G37*
D15*
X137731732Y-66847126D03*
D13*
G36*
X138959805Y-66239866D02*
X138976793Y-66242386D01*
X138993452Y-66246558D01*
X139009622Y-66252344D01*
X139025146Y-66259687D01*
X139039877Y-66268516D01*
X139053671Y-66278746D01*
X139066396Y-66290279D01*
X139685115Y-66908998D01*
X139696648Y-66921723D01*
X139706878Y-66935517D01*
X139715707Y-66950248D01*
X139723050Y-66965772D01*
X139728836Y-66981942D01*
X139733008Y-66998601D01*
X139735528Y-67015589D01*
X139736371Y-67032742D01*
X139735528Y-67049895D01*
X139733008Y-67066883D01*
X139728836Y-67083542D01*
X139723050Y-67099712D01*
X139715707Y-67115236D01*
X139706878Y-67129967D01*
X139696648Y-67143761D01*
X139685115Y-67156486D01*
X139437628Y-67403973D01*
X139424903Y-67415506D01*
X139411109Y-67425736D01*
X139396378Y-67434565D01*
X139380854Y-67441908D01*
X139364684Y-67447694D01*
X139348025Y-67451866D01*
X139331037Y-67454386D01*
X139313884Y-67455229D01*
X139296731Y-67454386D01*
X139279743Y-67451866D01*
X139263084Y-67447694D01*
X139246914Y-67441908D01*
X139231390Y-67434565D01*
X139216659Y-67425736D01*
X139202865Y-67415506D01*
X139190140Y-67403973D01*
X138571421Y-66785254D01*
X138559888Y-66772529D01*
X138549658Y-66758735D01*
X138540829Y-66744004D01*
X138533486Y-66728480D01*
X138527700Y-66712310D01*
X138523528Y-66695651D01*
X138521008Y-66678663D01*
X138520165Y-66661510D01*
X138521008Y-66644357D01*
X138523528Y-66627369D01*
X138527700Y-66610710D01*
X138533486Y-66594540D01*
X138540829Y-66579016D01*
X138549658Y-66564285D01*
X138559888Y-66550491D01*
X138571421Y-66537766D01*
X138818908Y-66290279D01*
X138831633Y-66278746D01*
X138845427Y-66268516D01*
X138860158Y-66259687D01*
X138875682Y-66252344D01*
X138891852Y-66246558D01*
X138908511Y-66242386D01*
X138925499Y-66239866D01*
X138942652Y-66239023D01*
X138959805Y-66239866D01*
X138959805Y-66239866D01*
G37*
D15*
X139128268Y-66847126D03*
D13*
G36*
X139419424Y-65780247D02*
X139436412Y-65782767D01*
X139453071Y-65786939D01*
X139469241Y-65792725D01*
X139484765Y-65800068D01*
X139499496Y-65808897D01*
X139513290Y-65819127D01*
X139526015Y-65830660D01*
X140144734Y-66449379D01*
X140156267Y-66462104D01*
X140166497Y-66475898D01*
X140175326Y-66490629D01*
X140182669Y-66506153D01*
X140188455Y-66522323D01*
X140192627Y-66538982D01*
X140195147Y-66555970D01*
X140195990Y-66573123D01*
X140195147Y-66590276D01*
X140192627Y-66607264D01*
X140188455Y-66623923D01*
X140182669Y-66640093D01*
X140175326Y-66655617D01*
X140166497Y-66670348D01*
X140156267Y-66684142D01*
X140144734Y-66696867D01*
X139897247Y-66944354D01*
X139884522Y-66955887D01*
X139870728Y-66966117D01*
X139855997Y-66974946D01*
X139840473Y-66982289D01*
X139824303Y-66988075D01*
X139807644Y-66992247D01*
X139790656Y-66994767D01*
X139773503Y-66995610D01*
X139756350Y-66994767D01*
X139739362Y-66992247D01*
X139722703Y-66988075D01*
X139706533Y-66982289D01*
X139691009Y-66974946D01*
X139676278Y-66966117D01*
X139662484Y-66955887D01*
X139649759Y-66944354D01*
X139031040Y-66325635D01*
X139019507Y-66312910D01*
X139009277Y-66299116D01*
X139000448Y-66284385D01*
X138993105Y-66268861D01*
X138987319Y-66252691D01*
X138983147Y-66236032D01*
X138980627Y-66219044D01*
X138979784Y-66201891D01*
X138980627Y-66184738D01*
X138983147Y-66167750D01*
X138987319Y-66151091D01*
X138993105Y-66134921D01*
X139000448Y-66119397D01*
X139009277Y-66104666D01*
X139019507Y-66090872D01*
X139031040Y-66078147D01*
X139278527Y-65830660D01*
X139291252Y-65819127D01*
X139305046Y-65808897D01*
X139319777Y-65800068D01*
X139335301Y-65792725D01*
X139351471Y-65786939D01*
X139368130Y-65782767D01*
X139385118Y-65780247D01*
X139402271Y-65779404D01*
X139419424Y-65780247D01*
X139419424Y-65780247D01*
G37*
D15*
X139587887Y-66387507D03*
D13*
G36*
X139879044Y-65320627D02*
X139896032Y-65323147D01*
X139912691Y-65327319D01*
X139928861Y-65333105D01*
X139944385Y-65340448D01*
X139959116Y-65349277D01*
X139972910Y-65359507D01*
X139985635Y-65371040D01*
X140604354Y-65989759D01*
X140615887Y-66002484D01*
X140626117Y-66016278D01*
X140634946Y-66031009D01*
X140642289Y-66046533D01*
X140648075Y-66062703D01*
X140652247Y-66079362D01*
X140654767Y-66096350D01*
X140655610Y-66113503D01*
X140654767Y-66130656D01*
X140652247Y-66147644D01*
X140648075Y-66164303D01*
X140642289Y-66180473D01*
X140634946Y-66195997D01*
X140626117Y-66210728D01*
X140615887Y-66224522D01*
X140604354Y-66237247D01*
X140356867Y-66484734D01*
X140344142Y-66496267D01*
X140330348Y-66506497D01*
X140315617Y-66515326D01*
X140300093Y-66522669D01*
X140283923Y-66528455D01*
X140267264Y-66532627D01*
X140250276Y-66535147D01*
X140233123Y-66535990D01*
X140215970Y-66535147D01*
X140198982Y-66532627D01*
X140182323Y-66528455D01*
X140166153Y-66522669D01*
X140150629Y-66515326D01*
X140135898Y-66506497D01*
X140122104Y-66496267D01*
X140109379Y-66484734D01*
X139490660Y-65866015D01*
X139479127Y-65853290D01*
X139468897Y-65839496D01*
X139460068Y-65824765D01*
X139452725Y-65809241D01*
X139446939Y-65793071D01*
X139442767Y-65776412D01*
X139440247Y-65759424D01*
X139439404Y-65742271D01*
X139440247Y-65725118D01*
X139442767Y-65708130D01*
X139446939Y-65691471D01*
X139452725Y-65675301D01*
X139460068Y-65659777D01*
X139468897Y-65645046D01*
X139479127Y-65631252D01*
X139490660Y-65618527D01*
X139738147Y-65371040D01*
X139750872Y-65359507D01*
X139764666Y-65349277D01*
X139779397Y-65340448D01*
X139794921Y-65333105D01*
X139811091Y-65327319D01*
X139827750Y-65323147D01*
X139844738Y-65320627D01*
X139861891Y-65319784D01*
X139879044Y-65320627D01*
X139879044Y-65320627D01*
G37*
D15*
X140047507Y-65927887D03*
D13*
G36*
X140338663Y-64861008D02*
X140355651Y-64863528D01*
X140372310Y-64867700D01*
X140388480Y-64873486D01*
X140404004Y-64880829D01*
X140418735Y-64889658D01*
X140432529Y-64899888D01*
X140445254Y-64911421D01*
X141063973Y-65530140D01*
X141075506Y-65542865D01*
X141085736Y-65556659D01*
X141094565Y-65571390D01*
X141101908Y-65586914D01*
X141107694Y-65603084D01*
X141111866Y-65619743D01*
X141114386Y-65636731D01*
X141115229Y-65653884D01*
X141114386Y-65671037D01*
X141111866Y-65688025D01*
X141107694Y-65704684D01*
X141101908Y-65720854D01*
X141094565Y-65736378D01*
X141085736Y-65751109D01*
X141075506Y-65764903D01*
X141063973Y-65777628D01*
X140816486Y-66025115D01*
X140803761Y-66036648D01*
X140789967Y-66046878D01*
X140775236Y-66055707D01*
X140759712Y-66063050D01*
X140743542Y-66068836D01*
X140726883Y-66073008D01*
X140709895Y-66075528D01*
X140692742Y-66076371D01*
X140675589Y-66075528D01*
X140658601Y-66073008D01*
X140641942Y-66068836D01*
X140625772Y-66063050D01*
X140610248Y-66055707D01*
X140595517Y-66046878D01*
X140581723Y-66036648D01*
X140568998Y-66025115D01*
X139950279Y-65406396D01*
X139938746Y-65393671D01*
X139928516Y-65379877D01*
X139919687Y-65365146D01*
X139912344Y-65349622D01*
X139906558Y-65333452D01*
X139902386Y-65316793D01*
X139899866Y-65299805D01*
X139899023Y-65282652D01*
X139899866Y-65265499D01*
X139902386Y-65248511D01*
X139906558Y-65231852D01*
X139912344Y-65215682D01*
X139919687Y-65200158D01*
X139928516Y-65185427D01*
X139938746Y-65171633D01*
X139950279Y-65158908D01*
X140197766Y-64911421D01*
X140210491Y-64899888D01*
X140224285Y-64889658D01*
X140239016Y-64880829D01*
X140254540Y-64873486D01*
X140270710Y-64867700D01*
X140287369Y-64863528D01*
X140304357Y-64861008D01*
X140321510Y-64860165D01*
X140338663Y-64861008D01*
X140338663Y-64861008D01*
G37*
D15*
X140507126Y-65468268D03*
D13*
G36*
X140709895Y-63464472D02*
X140726883Y-63466992D01*
X140743542Y-63471164D01*
X140759712Y-63476950D01*
X140775236Y-63484293D01*
X140789967Y-63493122D01*
X140803761Y-63503352D01*
X140816486Y-63514885D01*
X141063973Y-63762372D01*
X141075506Y-63775097D01*
X141085736Y-63788891D01*
X141094565Y-63803622D01*
X141101908Y-63819146D01*
X141107694Y-63835316D01*
X141111866Y-63851975D01*
X141114386Y-63868963D01*
X141115229Y-63886116D01*
X141114386Y-63903269D01*
X141111866Y-63920257D01*
X141107694Y-63936916D01*
X141101908Y-63953086D01*
X141094565Y-63968610D01*
X141085736Y-63983341D01*
X141075506Y-63997135D01*
X141063973Y-64009860D01*
X140445254Y-64628579D01*
X140432529Y-64640112D01*
X140418735Y-64650342D01*
X140404004Y-64659171D01*
X140388480Y-64666514D01*
X140372310Y-64672300D01*
X140355651Y-64676472D01*
X140338663Y-64678992D01*
X140321510Y-64679835D01*
X140304357Y-64678992D01*
X140287369Y-64676472D01*
X140270710Y-64672300D01*
X140254540Y-64666514D01*
X140239016Y-64659171D01*
X140224285Y-64650342D01*
X140210491Y-64640112D01*
X140197766Y-64628579D01*
X139950279Y-64381092D01*
X139938746Y-64368367D01*
X139928516Y-64354573D01*
X139919687Y-64339842D01*
X139912344Y-64324318D01*
X139906558Y-64308148D01*
X139902386Y-64291489D01*
X139899866Y-64274501D01*
X139899023Y-64257348D01*
X139899866Y-64240195D01*
X139902386Y-64223207D01*
X139906558Y-64206548D01*
X139912344Y-64190378D01*
X139919687Y-64174854D01*
X139928516Y-64160123D01*
X139938746Y-64146329D01*
X139950279Y-64133604D01*
X140568998Y-63514885D01*
X140581723Y-63503352D01*
X140595517Y-63493122D01*
X140610248Y-63484293D01*
X140625772Y-63476950D01*
X140641942Y-63471164D01*
X140658601Y-63466992D01*
X140675589Y-63464472D01*
X140692742Y-63463629D01*
X140709895Y-63464472D01*
X140709895Y-63464472D01*
G37*
D15*
X140507126Y-64071732D03*
D13*
G36*
X140250276Y-63004853D02*
X140267264Y-63007373D01*
X140283923Y-63011545D01*
X140300093Y-63017331D01*
X140315617Y-63024674D01*
X140330348Y-63033503D01*
X140344142Y-63043733D01*
X140356867Y-63055266D01*
X140604354Y-63302753D01*
X140615887Y-63315478D01*
X140626117Y-63329272D01*
X140634946Y-63344003D01*
X140642289Y-63359527D01*
X140648075Y-63375697D01*
X140652247Y-63392356D01*
X140654767Y-63409344D01*
X140655610Y-63426497D01*
X140654767Y-63443650D01*
X140652247Y-63460638D01*
X140648075Y-63477297D01*
X140642289Y-63493467D01*
X140634946Y-63508991D01*
X140626117Y-63523722D01*
X140615887Y-63537516D01*
X140604354Y-63550241D01*
X139985635Y-64168960D01*
X139972910Y-64180493D01*
X139959116Y-64190723D01*
X139944385Y-64199552D01*
X139928861Y-64206895D01*
X139912691Y-64212681D01*
X139896032Y-64216853D01*
X139879044Y-64219373D01*
X139861891Y-64220216D01*
X139844738Y-64219373D01*
X139827750Y-64216853D01*
X139811091Y-64212681D01*
X139794921Y-64206895D01*
X139779397Y-64199552D01*
X139764666Y-64190723D01*
X139750872Y-64180493D01*
X139738147Y-64168960D01*
X139490660Y-63921473D01*
X139479127Y-63908748D01*
X139468897Y-63894954D01*
X139460068Y-63880223D01*
X139452725Y-63864699D01*
X139446939Y-63848529D01*
X139442767Y-63831870D01*
X139440247Y-63814882D01*
X139439404Y-63797729D01*
X139440247Y-63780576D01*
X139442767Y-63763588D01*
X139446939Y-63746929D01*
X139452725Y-63730759D01*
X139460068Y-63715235D01*
X139468897Y-63700504D01*
X139479127Y-63686710D01*
X139490660Y-63673985D01*
X140109379Y-63055266D01*
X140122104Y-63043733D01*
X140135898Y-63033503D01*
X140150629Y-63024674D01*
X140166153Y-63017331D01*
X140182323Y-63011545D01*
X140198982Y-63007373D01*
X140215970Y-63004853D01*
X140233123Y-63004010D01*
X140250276Y-63004853D01*
X140250276Y-63004853D01*
G37*
D15*
X140047507Y-63612113D03*
D13*
G36*
X139790656Y-62545233D02*
X139807644Y-62547753D01*
X139824303Y-62551925D01*
X139840473Y-62557711D01*
X139855997Y-62565054D01*
X139870728Y-62573883D01*
X139884522Y-62584113D01*
X139897247Y-62595646D01*
X140144734Y-62843133D01*
X140156267Y-62855858D01*
X140166497Y-62869652D01*
X140175326Y-62884383D01*
X140182669Y-62899907D01*
X140188455Y-62916077D01*
X140192627Y-62932736D01*
X140195147Y-62949724D01*
X140195990Y-62966877D01*
X140195147Y-62984030D01*
X140192627Y-63001018D01*
X140188455Y-63017677D01*
X140182669Y-63033847D01*
X140175326Y-63049371D01*
X140166497Y-63064102D01*
X140156267Y-63077896D01*
X140144734Y-63090621D01*
X139526015Y-63709340D01*
X139513290Y-63720873D01*
X139499496Y-63731103D01*
X139484765Y-63739932D01*
X139469241Y-63747275D01*
X139453071Y-63753061D01*
X139436412Y-63757233D01*
X139419424Y-63759753D01*
X139402271Y-63760596D01*
X139385118Y-63759753D01*
X139368130Y-63757233D01*
X139351471Y-63753061D01*
X139335301Y-63747275D01*
X139319777Y-63739932D01*
X139305046Y-63731103D01*
X139291252Y-63720873D01*
X139278527Y-63709340D01*
X139031040Y-63461853D01*
X139019507Y-63449128D01*
X139009277Y-63435334D01*
X139000448Y-63420603D01*
X138993105Y-63405079D01*
X138987319Y-63388909D01*
X138983147Y-63372250D01*
X138980627Y-63355262D01*
X138979784Y-63338109D01*
X138980627Y-63320956D01*
X138983147Y-63303968D01*
X138987319Y-63287309D01*
X138993105Y-63271139D01*
X139000448Y-63255615D01*
X139009277Y-63240884D01*
X139019507Y-63227090D01*
X139031040Y-63214365D01*
X139649759Y-62595646D01*
X139662484Y-62584113D01*
X139676278Y-62573883D01*
X139691009Y-62565054D01*
X139706533Y-62557711D01*
X139722703Y-62551925D01*
X139739362Y-62547753D01*
X139756350Y-62545233D01*
X139773503Y-62544390D01*
X139790656Y-62545233D01*
X139790656Y-62545233D01*
G37*
D15*
X139587887Y-63152493D03*
D13*
G36*
X139331037Y-62085614D02*
X139348025Y-62088134D01*
X139364684Y-62092306D01*
X139380854Y-62098092D01*
X139396378Y-62105435D01*
X139411109Y-62114264D01*
X139424903Y-62124494D01*
X139437628Y-62136027D01*
X139685115Y-62383514D01*
X139696648Y-62396239D01*
X139706878Y-62410033D01*
X139715707Y-62424764D01*
X139723050Y-62440288D01*
X139728836Y-62456458D01*
X139733008Y-62473117D01*
X139735528Y-62490105D01*
X139736371Y-62507258D01*
X139735528Y-62524411D01*
X139733008Y-62541399D01*
X139728836Y-62558058D01*
X139723050Y-62574228D01*
X139715707Y-62589752D01*
X139706878Y-62604483D01*
X139696648Y-62618277D01*
X139685115Y-62631002D01*
X139066396Y-63249721D01*
X139053671Y-63261254D01*
X139039877Y-63271484D01*
X139025146Y-63280313D01*
X139009622Y-63287656D01*
X138993452Y-63293442D01*
X138976793Y-63297614D01*
X138959805Y-63300134D01*
X138942652Y-63300977D01*
X138925499Y-63300134D01*
X138908511Y-63297614D01*
X138891852Y-63293442D01*
X138875682Y-63287656D01*
X138860158Y-63280313D01*
X138845427Y-63271484D01*
X138831633Y-63261254D01*
X138818908Y-63249721D01*
X138571421Y-63002234D01*
X138559888Y-62989509D01*
X138549658Y-62975715D01*
X138540829Y-62960984D01*
X138533486Y-62945460D01*
X138527700Y-62929290D01*
X138523528Y-62912631D01*
X138521008Y-62895643D01*
X138520165Y-62878490D01*
X138521008Y-62861337D01*
X138523528Y-62844349D01*
X138527700Y-62827690D01*
X138533486Y-62811520D01*
X138540829Y-62795996D01*
X138549658Y-62781265D01*
X138559888Y-62767471D01*
X138571421Y-62754746D01*
X139190140Y-62136027D01*
X139202865Y-62124494D01*
X139216659Y-62114264D01*
X139231390Y-62105435D01*
X139246914Y-62098092D01*
X139263084Y-62092306D01*
X139279743Y-62088134D01*
X139296731Y-62085614D01*
X139313884Y-62084771D01*
X139331037Y-62085614D01*
X139331037Y-62085614D01*
G37*
D15*
X139128268Y-62692874D03*
G04 #@! TD*
M02*
