G04 #@! TF.GenerationSoftware,KiCad,Pcbnew,(5.0.0-3-g5ebb6b6)*
G04 #@! TF.CreationDate,2019-03-06T19:57:38+00:00*
G04 #@! TF.ProjectId,QFN16,51464E31362E6B696361645F70636200,rev?*
G04 #@! TF.SameCoordinates,Original*
G04 #@! TF.FileFunction,Copper,L2,Bot,Signal*
G04 #@! TF.FilePolarity,Positive*
%FSLAX46Y46*%
G04 Gerber Fmt 4.6, Leading zero omitted, Abs format (unit mm)*
G04 Created by KiCad (PCBNEW (5.0.0-3-g5ebb6b6)) date Wednesday, 06 March 2019 at 19:57:38*
%MOMM*%
%LPD*%
G01*
G04 APERTURE LIST*
G04 #@! TA.AperFunction,ComponentPad*
%ADD10R,1.600000X1.600000*%
G04 #@! TD*
G04 #@! TA.AperFunction,ComponentPad*
%ADD11O,1.600000X1.600000*%
G04 #@! TD*
G04 #@! TA.AperFunction,ComponentPad*
%ADD12R,1.700000X1.700000*%
G04 #@! TD*
G04 #@! TA.AperFunction,ViaPad*
%ADD13C,0.500000*%
G04 #@! TD*
G04 #@! TA.AperFunction,Conductor*
%ADD14C,0.100000*%
G04 #@! TD*
G04 #@! TA.AperFunction,Conductor*
%ADD15C,2.700000*%
G04 #@! TD*
G04 APERTURE END LIST*
D10*
G04 #@! TO.P,J_DIP16,1*
G04 #@! TO.N,Net-(J_DIP16-Pad1)*
X134620000Y-55880000D03*
D11*
G04 #@! TO.P,J_DIP16,9*
G04 #@! TO.N,Net-(J_DIP16-Pad9)*
X142240000Y-73660000D03*
G04 #@! TO.P,J_DIP16,2*
G04 #@! TO.N,Net-(J_DIP16-Pad2)*
X134620000Y-58420000D03*
G04 #@! TO.P,J_DIP16,10*
G04 #@! TO.N,Net-(J_DIP16-Pad10)*
X142240000Y-71120000D03*
G04 #@! TO.P,J_DIP16,3*
G04 #@! TO.N,Net-(J_DIP16-Pad3)*
X134620000Y-60960000D03*
G04 #@! TO.P,J_DIP16,11*
G04 #@! TO.N,Net-(J_DIP16-Pad11)*
X142240000Y-68580000D03*
G04 #@! TO.P,J_DIP16,4*
G04 #@! TO.N,Net-(J_DIP16-Pad4)*
X134620000Y-63500000D03*
G04 #@! TO.P,J_DIP16,12*
G04 #@! TO.N,Net-(J_DIP16-Pad12)*
X142240000Y-66040000D03*
G04 #@! TO.P,J_DIP16,5*
G04 #@! TO.N,Net-(J_DIP16-Pad5)*
X134620000Y-66040000D03*
G04 #@! TO.P,J_DIP16,13*
G04 #@! TO.N,Net-(J_DIP16-Pad13)*
X142240000Y-63500000D03*
G04 #@! TO.P,J_DIP16,6*
G04 #@! TO.N,Net-(J_DIP16-Pad6)*
X134620000Y-68580000D03*
G04 #@! TO.P,J_DIP16,14*
G04 #@! TO.N,Net-(J_DIP16-Pad14)*
X142240000Y-60960000D03*
G04 #@! TO.P,J_DIP16,7*
G04 #@! TO.N,Net-(J_DIP16-Pad7)*
X134620000Y-71120000D03*
G04 #@! TO.P,J_DIP16,15*
G04 #@! TO.N,Net-(J_DIP16-Pad15)*
X142240000Y-58420000D03*
G04 #@! TO.P,J_DIP16,8*
G04 #@! TO.N,Net-(J_DIP16-Pad8)*
X134620000Y-73660000D03*
G04 #@! TO.P,J_DIP16,16*
G04 #@! TO.N,Net-(J_DIP16-Pad16)*
X142240000Y-55880000D03*
G04 #@! TD*
D12*
G04 #@! TO.P,J_EP1,1*
G04 #@! TO.N,Net-(J_EP1-Pad1)*
X138430000Y-55880000D03*
G04 #@! TD*
G04 #@! TO.P,J_EP2,1*
G04 #@! TO.N,Net-(J_EP1-Pad1)*
X138430000Y-73660000D03*
G04 #@! TD*
D13*
G04 #@! TO.N,Net-(J_EP1-Pad1)*
G04 #@! TO.C,J_QFN16*
X138430000Y-63214365D03*
X139207817Y-63992183D03*
X139985635Y-64770000D03*
X137652183Y-63992183D03*
X138430000Y-64770000D03*
X139207817Y-65547817D03*
X136874365Y-64770000D03*
X137652183Y-65547817D03*
X138430000Y-66325635D03*
D14*
G36*
X138454504Y-62965569D02*
X138478773Y-62969169D01*
X138502571Y-62975130D01*
X138525671Y-62983395D01*
X138547850Y-62993885D01*
X138568893Y-63006498D01*
X138588599Y-63021113D01*
X138606777Y-63037589D01*
X140162411Y-64593223D01*
X140178887Y-64611401D01*
X140193502Y-64631107D01*
X140206115Y-64652150D01*
X140216605Y-64674329D01*
X140224870Y-64697429D01*
X140230831Y-64721227D01*
X140234431Y-64745496D01*
X140235635Y-64770000D01*
X140234431Y-64794504D01*
X140230831Y-64818773D01*
X140224870Y-64842571D01*
X140216605Y-64865671D01*
X140206115Y-64887850D01*
X140193502Y-64908893D01*
X140178887Y-64928599D01*
X140162411Y-64946777D01*
X138606777Y-66502411D01*
X138588599Y-66518887D01*
X138568893Y-66533502D01*
X138547850Y-66546115D01*
X138525671Y-66556605D01*
X138502571Y-66564870D01*
X138478773Y-66570831D01*
X138454504Y-66574431D01*
X138430000Y-66575635D01*
X138405496Y-66574431D01*
X138381227Y-66570831D01*
X138357429Y-66564870D01*
X138334329Y-66556605D01*
X138312150Y-66546115D01*
X138291107Y-66533502D01*
X138271401Y-66518887D01*
X138253223Y-66502411D01*
X136697589Y-64946777D01*
X136681113Y-64928599D01*
X136666498Y-64908893D01*
X136653885Y-64887850D01*
X136643395Y-64865671D01*
X136635130Y-64842571D01*
X136629169Y-64818773D01*
X136625569Y-64794504D01*
X136624365Y-64770000D01*
X136625569Y-64745496D01*
X136629169Y-64721227D01*
X136635130Y-64697429D01*
X136643395Y-64674329D01*
X136653885Y-64652150D01*
X136666498Y-64631107D01*
X136681113Y-64611401D01*
X136697589Y-64593223D01*
X138253223Y-63037589D01*
X138271401Y-63021113D01*
X138291107Y-63006498D01*
X138312150Y-62993885D01*
X138334329Y-62983395D01*
X138357429Y-62975130D01*
X138381227Y-62969169D01*
X138405496Y-62965569D01*
X138430000Y-62964365D01*
X138454504Y-62965569D01*
X138454504Y-62965569D01*
G37*
D15*
X138430000Y-64770000D03*
G04 #@! TD*
M02*
