G04 #@! TF.GenerationSoftware,KiCad,Pcbnew,(5.0.0-3-g5ebb6b6)*
G04 #@! TF.CreationDate,2019-03-06T19:57:38+00:00*
G04 #@! TF.ProjectId,QFN16,51464E31362E6B696361645F70636200,rev?*
G04 #@! TF.SameCoordinates,Original*
G04 #@! TF.FileFunction,Paste,Top*
G04 #@! TF.FilePolarity,Positive*
%FSLAX46Y46*%
G04 Gerber Fmt 4.6, Leading zero omitted, Abs format (unit mm)*
G04 Created by KiCad (PCBNEW (5.0.0-3-g5ebb6b6)) date Wednesday, 06 March 2019 at 19:57:38*
%MOMM*%
%LPD*%
G01*
G04 APERTURE LIST*
%ADD10C,0.100000*%
%ADD11C,1.170000*%
%ADD12C,0.300000*%
G04 APERTURE END LIST*
D10*
G04 #@! TO.C,J_QFN16*
G36*
X138454504Y-63092848D02*
X138478772Y-63096448D01*
X138502571Y-63102409D01*
X138525670Y-63110674D01*
X138547849Y-63121164D01*
X138568892Y-63133776D01*
X138588598Y-63148391D01*
X138606776Y-63164867D01*
X139080539Y-63638630D01*
X139097015Y-63656808D01*
X139111630Y-63676514D01*
X139124242Y-63697557D01*
X139134732Y-63719736D01*
X139142997Y-63742835D01*
X139148958Y-63766634D01*
X139152558Y-63790902D01*
X139153762Y-63815406D01*
X139152558Y-63839910D01*
X139148958Y-63864178D01*
X139142997Y-63887977D01*
X139134732Y-63911076D01*
X139124242Y-63933255D01*
X139111630Y-63954298D01*
X139097015Y-63974004D01*
X139080539Y-63992182D01*
X138606776Y-64465945D01*
X138588598Y-64482421D01*
X138568892Y-64497036D01*
X138547849Y-64509648D01*
X138525670Y-64520138D01*
X138502571Y-64528403D01*
X138478772Y-64534364D01*
X138454504Y-64537964D01*
X138430000Y-64539168D01*
X138405496Y-64537964D01*
X138381228Y-64534364D01*
X138357429Y-64528403D01*
X138334330Y-64520138D01*
X138312151Y-64509648D01*
X138291108Y-64497036D01*
X138271402Y-64482421D01*
X138253224Y-64465945D01*
X137779461Y-63992182D01*
X137762985Y-63974004D01*
X137748370Y-63954298D01*
X137735758Y-63933255D01*
X137725268Y-63911076D01*
X137717003Y-63887977D01*
X137711042Y-63864178D01*
X137707442Y-63839910D01*
X137706238Y-63815406D01*
X137707442Y-63790902D01*
X137711042Y-63766634D01*
X137717003Y-63742835D01*
X137725268Y-63719736D01*
X137735758Y-63697557D01*
X137748370Y-63676514D01*
X137762985Y-63656808D01*
X137779461Y-63638630D01*
X138253224Y-63164867D01*
X138271402Y-63148391D01*
X138291108Y-63133776D01*
X138312151Y-63121164D01*
X138334330Y-63110674D01*
X138357429Y-63102409D01*
X138381228Y-63096448D01*
X138405496Y-63092848D01*
X138430000Y-63091644D01*
X138454504Y-63092848D01*
X138454504Y-63092848D01*
G37*
D11*
X138430000Y-63815406D03*
D10*
G36*
X137499910Y-64047442D02*
X137524178Y-64051042D01*
X137547977Y-64057003D01*
X137571076Y-64065268D01*
X137593255Y-64075758D01*
X137614298Y-64088370D01*
X137634004Y-64102985D01*
X137652182Y-64119461D01*
X138125945Y-64593224D01*
X138142421Y-64611402D01*
X138157036Y-64631108D01*
X138169648Y-64652151D01*
X138180138Y-64674330D01*
X138188403Y-64697429D01*
X138194364Y-64721228D01*
X138197964Y-64745496D01*
X138199168Y-64770000D01*
X138197964Y-64794504D01*
X138194364Y-64818772D01*
X138188403Y-64842571D01*
X138180138Y-64865670D01*
X138169648Y-64887849D01*
X138157036Y-64908892D01*
X138142421Y-64928598D01*
X138125945Y-64946776D01*
X137652182Y-65420539D01*
X137634004Y-65437015D01*
X137614298Y-65451630D01*
X137593255Y-65464242D01*
X137571076Y-65474732D01*
X137547977Y-65482997D01*
X137524178Y-65488958D01*
X137499910Y-65492558D01*
X137475406Y-65493762D01*
X137450902Y-65492558D01*
X137426634Y-65488958D01*
X137402835Y-65482997D01*
X137379736Y-65474732D01*
X137357557Y-65464242D01*
X137336514Y-65451630D01*
X137316808Y-65437015D01*
X137298630Y-65420539D01*
X136824867Y-64946776D01*
X136808391Y-64928598D01*
X136793776Y-64908892D01*
X136781164Y-64887849D01*
X136770674Y-64865670D01*
X136762409Y-64842571D01*
X136756448Y-64818772D01*
X136752848Y-64794504D01*
X136751644Y-64770000D01*
X136752848Y-64745496D01*
X136756448Y-64721228D01*
X136762409Y-64697429D01*
X136770674Y-64674330D01*
X136781164Y-64652151D01*
X136793776Y-64631108D01*
X136808391Y-64611402D01*
X136824867Y-64593224D01*
X137298630Y-64119461D01*
X137316808Y-64102985D01*
X137336514Y-64088370D01*
X137357557Y-64075758D01*
X137379736Y-64065268D01*
X137402835Y-64057003D01*
X137426634Y-64051042D01*
X137450902Y-64047442D01*
X137475406Y-64046238D01*
X137499910Y-64047442D01*
X137499910Y-64047442D01*
G37*
D11*
X137475406Y-64770000D03*
D10*
G36*
X139409098Y-64047442D02*
X139433366Y-64051042D01*
X139457165Y-64057003D01*
X139480264Y-64065268D01*
X139502443Y-64075758D01*
X139523486Y-64088370D01*
X139543192Y-64102985D01*
X139561370Y-64119461D01*
X140035133Y-64593224D01*
X140051609Y-64611402D01*
X140066224Y-64631108D01*
X140078836Y-64652151D01*
X140089326Y-64674330D01*
X140097591Y-64697429D01*
X140103552Y-64721228D01*
X140107152Y-64745496D01*
X140108356Y-64770000D01*
X140107152Y-64794504D01*
X140103552Y-64818772D01*
X140097591Y-64842571D01*
X140089326Y-64865670D01*
X140078836Y-64887849D01*
X140066224Y-64908892D01*
X140051609Y-64928598D01*
X140035133Y-64946776D01*
X139561370Y-65420539D01*
X139543192Y-65437015D01*
X139523486Y-65451630D01*
X139502443Y-65464242D01*
X139480264Y-65474732D01*
X139457165Y-65482997D01*
X139433366Y-65488958D01*
X139409098Y-65492558D01*
X139384594Y-65493762D01*
X139360090Y-65492558D01*
X139335822Y-65488958D01*
X139312023Y-65482997D01*
X139288924Y-65474732D01*
X139266745Y-65464242D01*
X139245702Y-65451630D01*
X139225996Y-65437015D01*
X139207818Y-65420539D01*
X138734055Y-64946776D01*
X138717579Y-64928598D01*
X138702964Y-64908892D01*
X138690352Y-64887849D01*
X138679862Y-64865670D01*
X138671597Y-64842571D01*
X138665636Y-64818772D01*
X138662036Y-64794504D01*
X138660832Y-64770000D01*
X138662036Y-64745496D01*
X138665636Y-64721228D01*
X138671597Y-64697429D01*
X138679862Y-64674330D01*
X138690352Y-64652151D01*
X138702964Y-64631108D01*
X138717579Y-64611402D01*
X138734055Y-64593224D01*
X139207818Y-64119461D01*
X139225996Y-64102985D01*
X139245702Y-64088370D01*
X139266745Y-64075758D01*
X139288924Y-64065268D01*
X139312023Y-64057003D01*
X139335822Y-64051042D01*
X139360090Y-64047442D01*
X139384594Y-64046238D01*
X139409098Y-64047442D01*
X139409098Y-64047442D01*
G37*
D11*
X139384594Y-64770000D03*
D10*
G36*
X138454504Y-65002036D02*
X138478772Y-65005636D01*
X138502571Y-65011597D01*
X138525670Y-65019862D01*
X138547849Y-65030352D01*
X138568892Y-65042964D01*
X138588598Y-65057579D01*
X138606776Y-65074055D01*
X139080539Y-65547818D01*
X139097015Y-65565996D01*
X139111630Y-65585702D01*
X139124242Y-65606745D01*
X139134732Y-65628924D01*
X139142997Y-65652023D01*
X139148958Y-65675822D01*
X139152558Y-65700090D01*
X139153762Y-65724594D01*
X139152558Y-65749098D01*
X139148958Y-65773366D01*
X139142997Y-65797165D01*
X139134732Y-65820264D01*
X139124242Y-65842443D01*
X139111630Y-65863486D01*
X139097015Y-65883192D01*
X139080539Y-65901370D01*
X138606776Y-66375133D01*
X138588598Y-66391609D01*
X138568892Y-66406224D01*
X138547849Y-66418836D01*
X138525670Y-66429326D01*
X138502571Y-66437591D01*
X138478772Y-66443552D01*
X138454504Y-66447152D01*
X138430000Y-66448356D01*
X138405496Y-66447152D01*
X138381228Y-66443552D01*
X138357429Y-66437591D01*
X138334330Y-66429326D01*
X138312151Y-66418836D01*
X138291108Y-66406224D01*
X138271402Y-66391609D01*
X138253224Y-66375133D01*
X137779461Y-65901370D01*
X137762985Y-65883192D01*
X137748370Y-65863486D01*
X137735758Y-65842443D01*
X137725268Y-65820264D01*
X137717003Y-65797165D01*
X137711042Y-65773366D01*
X137707442Y-65749098D01*
X137706238Y-65724594D01*
X137707442Y-65700090D01*
X137711042Y-65675822D01*
X137717003Y-65652023D01*
X137725268Y-65628924D01*
X137735758Y-65606745D01*
X137748370Y-65585702D01*
X137762985Y-65565996D01*
X137779461Y-65547818D01*
X138253224Y-65074055D01*
X138271402Y-65057579D01*
X138291108Y-65042964D01*
X138312151Y-65030352D01*
X138334330Y-65019862D01*
X138357429Y-65011597D01*
X138381228Y-65005636D01*
X138405496Y-65002036D01*
X138430000Y-65000832D01*
X138454504Y-65002036D01*
X138454504Y-65002036D01*
G37*
D11*
X138430000Y-65724594D03*
D10*
G36*
X137553467Y-62326553D02*
X137560748Y-62327633D01*
X137567887Y-62329421D01*
X137574817Y-62331901D01*
X137581471Y-62335048D01*
X137587784Y-62338832D01*
X137593695Y-62343216D01*
X137599149Y-62348159D01*
X138076447Y-62825457D01*
X138081390Y-62830911D01*
X138085774Y-62836822D01*
X138089558Y-62843135D01*
X138092705Y-62849789D01*
X138095185Y-62856719D01*
X138096973Y-62863858D01*
X138098053Y-62871139D01*
X138098414Y-62878490D01*
X138098053Y-62885841D01*
X138096973Y-62893122D01*
X138095185Y-62900261D01*
X138092705Y-62907191D01*
X138089558Y-62913845D01*
X138085774Y-62920158D01*
X138081390Y-62926069D01*
X138076447Y-62931523D01*
X137970381Y-63037589D01*
X137964927Y-63042532D01*
X137959016Y-63046916D01*
X137952703Y-63050700D01*
X137946049Y-63053847D01*
X137939119Y-63056327D01*
X137931980Y-63058115D01*
X137924699Y-63059195D01*
X137917348Y-63059556D01*
X137909997Y-63059195D01*
X137902716Y-63058115D01*
X137895577Y-63056327D01*
X137888647Y-63053847D01*
X137881993Y-63050700D01*
X137875680Y-63046916D01*
X137869769Y-63042532D01*
X137864315Y-63037589D01*
X137387017Y-62560291D01*
X137382074Y-62554837D01*
X137377690Y-62548926D01*
X137373906Y-62542613D01*
X137370759Y-62535959D01*
X137368279Y-62529029D01*
X137366491Y-62521890D01*
X137365411Y-62514609D01*
X137365050Y-62507258D01*
X137365411Y-62499907D01*
X137366491Y-62492626D01*
X137368279Y-62485487D01*
X137370759Y-62478557D01*
X137373906Y-62471903D01*
X137377690Y-62465590D01*
X137382074Y-62459679D01*
X137387017Y-62454225D01*
X137493083Y-62348159D01*
X137498537Y-62343216D01*
X137504448Y-62338832D01*
X137510761Y-62335048D01*
X137517415Y-62331901D01*
X137524345Y-62329421D01*
X137531484Y-62327633D01*
X137538765Y-62326553D01*
X137546116Y-62326192D01*
X137553467Y-62326553D01*
X137553467Y-62326553D01*
G37*
D12*
X137731732Y-62692874D03*
D10*
G36*
X137093848Y-62786172D02*
X137101129Y-62787252D01*
X137108268Y-62789040D01*
X137115198Y-62791520D01*
X137121852Y-62794667D01*
X137128165Y-62798451D01*
X137134076Y-62802835D01*
X137139530Y-62807778D01*
X137616828Y-63285076D01*
X137621771Y-63290530D01*
X137626155Y-63296441D01*
X137629939Y-63302754D01*
X137633086Y-63309408D01*
X137635566Y-63316338D01*
X137637354Y-63323477D01*
X137638434Y-63330758D01*
X137638795Y-63338109D01*
X137638434Y-63345460D01*
X137637354Y-63352741D01*
X137635566Y-63359880D01*
X137633086Y-63366810D01*
X137629939Y-63373464D01*
X137626155Y-63379777D01*
X137621771Y-63385688D01*
X137616828Y-63391142D01*
X137510762Y-63497208D01*
X137505308Y-63502151D01*
X137499397Y-63506535D01*
X137493084Y-63510319D01*
X137486430Y-63513466D01*
X137479500Y-63515946D01*
X137472361Y-63517734D01*
X137465080Y-63518814D01*
X137457729Y-63519175D01*
X137450378Y-63518814D01*
X137443097Y-63517734D01*
X137435958Y-63515946D01*
X137429028Y-63513466D01*
X137422374Y-63510319D01*
X137416061Y-63506535D01*
X137410150Y-63502151D01*
X137404696Y-63497208D01*
X136927398Y-63019910D01*
X136922455Y-63014456D01*
X136918071Y-63008545D01*
X136914287Y-63002232D01*
X136911140Y-62995578D01*
X136908660Y-62988648D01*
X136906872Y-62981509D01*
X136905792Y-62974228D01*
X136905431Y-62966877D01*
X136905792Y-62959526D01*
X136906872Y-62952245D01*
X136908660Y-62945106D01*
X136911140Y-62938176D01*
X136914287Y-62931522D01*
X136918071Y-62925209D01*
X136922455Y-62919298D01*
X136927398Y-62913844D01*
X137033464Y-62807778D01*
X137038918Y-62802835D01*
X137044829Y-62798451D01*
X137051142Y-62794667D01*
X137057796Y-62791520D01*
X137064726Y-62789040D01*
X137071865Y-62787252D01*
X137079146Y-62786172D01*
X137086497Y-62785811D01*
X137093848Y-62786172D01*
X137093848Y-62786172D01*
G37*
D12*
X137272113Y-63152493D03*
D10*
G36*
X136634228Y-63245792D02*
X136641509Y-63246872D01*
X136648648Y-63248660D01*
X136655578Y-63251140D01*
X136662232Y-63254287D01*
X136668545Y-63258071D01*
X136674456Y-63262455D01*
X136679910Y-63267398D01*
X137157208Y-63744696D01*
X137162151Y-63750150D01*
X137166535Y-63756061D01*
X137170319Y-63762374D01*
X137173466Y-63769028D01*
X137175946Y-63775958D01*
X137177734Y-63783097D01*
X137178814Y-63790378D01*
X137179175Y-63797729D01*
X137178814Y-63805080D01*
X137177734Y-63812361D01*
X137175946Y-63819500D01*
X137173466Y-63826430D01*
X137170319Y-63833084D01*
X137166535Y-63839397D01*
X137162151Y-63845308D01*
X137157208Y-63850762D01*
X137051142Y-63956828D01*
X137045688Y-63961771D01*
X137039777Y-63966155D01*
X137033464Y-63969939D01*
X137026810Y-63973086D01*
X137019880Y-63975566D01*
X137012741Y-63977354D01*
X137005460Y-63978434D01*
X136998109Y-63978795D01*
X136990758Y-63978434D01*
X136983477Y-63977354D01*
X136976338Y-63975566D01*
X136969408Y-63973086D01*
X136962754Y-63969939D01*
X136956441Y-63966155D01*
X136950530Y-63961771D01*
X136945076Y-63956828D01*
X136467778Y-63479530D01*
X136462835Y-63474076D01*
X136458451Y-63468165D01*
X136454667Y-63461852D01*
X136451520Y-63455198D01*
X136449040Y-63448268D01*
X136447252Y-63441129D01*
X136446172Y-63433848D01*
X136445811Y-63426497D01*
X136446172Y-63419146D01*
X136447252Y-63411865D01*
X136449040Y-63404726D01*
X136451520Y-63397796D01*
X136454667Y-63391142D01*
X136458451Y-63384829D01*
X136462835Y-63378918D01*
X136467778Y-63373464D01*
X136573844Y-63267398D01*
X136579298Y-63262455D01*
X136585209Y-63258071D01*
X136591522Y-63254287D01*
X136598176Y-63251140D01*
X136605106Y-63248660D01*
X136612245Y-63246872D01*
X136619526Y-63245792D01*
X136626877Y-63245431D01*
X136634228Y-63245792D01*
X136634228Y-63245792D01*
G37*
D12*
X136812493Y-63612113D03*
D10*
G36*
X136174609Y-63705411D02*
X136181890Y-63706491D01*
X136189029Y-63708279D01*
X136195959Y-63710759D01*
X136202613Y-63713906D01*
X136208926Y-63717690D01*
X136214837Y-63722074D01*
X136220291Y-63727017D01*
X136697589Y-64204315D01*
X136702532Y-64209769D01*
X136706916Y-64215680D01*
X136710700Y-64221993D01*
X136713847Y-64228647D01*
X136716327Y-64235577D01*
X136718115Y-64242716D01*
X136719195Y-64249997D01*
X136719556Y-64257348D01*
X136719195Y-64264699D01*
X136718115Y-64271980D01*
X136716327Y-64279119D01*
X136713847Y-64286049D01*
X136710700Y-64292703D01*
X136706916Y-64299016D01*
X136702532Y-64304927D01*
X136697589Y-64310381D01*
X136591523Y-64416447D01*
X136586069Y-64421390D01*
X136580158Y-64425774D01*
X136573845Y-64429558D01*
X136567191Y-64432705D01*
X136560261Y-64435185D01*
X136553122Y-64436973D01*
X136545841Y-64438053D01*
X136538490Y-64438414D01*
X136531139Y-64438053D01*
X136523858Y-64436973D01*
X136516719Y-64435185D01*
X136509789Y-64432705D01*
X136503135Y-64429558D01*
X136496822Y-64425774D01*
X136490911Y-64421390D01*
X136485457Y-64416447D01*
X136008159Y-63939149D01*
X136003216Y-63933695D01*
X135998832Y-63927784D01*
X135995048Y-63921471D01*
X135991901Y-63914817D01*
X135989421Y-63907887D01*
X135987633Y-63900748D01*
X135986553Y-63893467D01*
X135986192Y-63886116D01*
X135986553Y-63878765D01*
X135987633Y-63871484D01*
X135989421Y-63864345D01*
X135991901Y-63857415D01*
X135995048Y-63850761D01*
X135998832Y-63844448D01*
X136003216Y-63838537D01*
X136008159Y-63833083D01*
X136114225Y-63727017D01*
X136119679Y-63722074D01*
X136125590Y-63717690D01*
X136131903Y-63713906D01*
X136138557Y-63710759D01*
X136145487Y-63708279D01*
X136152626Y-63706491D01*
X136159907Y-63705411D01*
X136167258Y-63705050D01*
X136174609Y-63705411D01*
X136174609Y-63705411D01*
G37*
D12*
X136352874Y-64071732D03*
D10*
G36*
X136545841Y-65101947D02*
X136553122Y-65103027D01*
X136560261Y-65104815D01*
X136567191Y-65107295D01*
X136573845Y-65110442D01*
X136580158Y-65114226D01*
X136586069Y-65118610D01*
X136591523Y-65123553D01*
X136697589Y-65229619D01*
X136702532Y-65235073D01*
X136706916Y-65240984D01*
X136710700Y-65247297D01*
X136713847Y-65253951D01*
X136716327Y-65260881D01*
X136718115Y-65268020D01*
X136719195Y-65275301D01*
X136719556Y-65282652D01*
X136719195Y-65290003D01*
X136718115Y-65297284D01*
X136716327Y-65304423D01*
X136713847Y-65311353D01*
X136710700Y-65318007D01*
X136706916Y-65324320D01*
X136702532Y-65330231D01*
X136697589Y-65335685D01*
X136220291Y-65812983D01*
X136214837Y-65817926D01*
X136208926Y-65822310D01*
X136202613Y-65826094D01*
X136195959Y-65829241D01*
X136189029Y-65831721D01*
X136181890Y-65833509D01*
X136174609Y-65834589D01*
X136167258Y-65834950D01*
X136159907Y-65834589D01*
X136152626Y-65833509D01*
X136145487Y-65831721D01*
X136138557Y-65829241D01*
X136131903Y-65826094D01*
X136125590Y-65822310D01*
X136119679Y-65817926D01*
X136114225Y-65812983D01*
X136008159Y-65706917D01*
X136003216Y-65701463D01*
X135998832Y-65695552D01*
X135995048Y-65689239D01*
X135991901Y-65682585D01*
X135989421Y-65675655D01*
X135987633Y-65668516D01*
X135986553Y-65661235D01*
X135986192Y-65653884D01*
X135986553Y-65646533D01*
X135987633Y-65639252D01*
X135989421Y-65632113D01*
X135991901Y-65625183D01*
X135995048Y-65618529D01*
X135998832Y-65612216D01*
X136003216Y-65606305D01*
X136008159Y-65600851D01*
X136485457Y-65123553D01*
X136490911Y-65118610D01*
X136496822Y-65114226D01*
X136503135Y-65110442D01*
X136509789Y-65107295D01*
X136516719Y-65104815D01*
X136523858Y-65103027D01*
X136531139Y-65101947D01*
X136538490Y-65101586D01*
X136545841Y-65101947D01*
X136545841Y-65101947D01*
G37*
D12*
X136352874Y-65468268D03*
D10*
G36*
X137005460Y-65561566D02*
X137012741Y-65562646D01*
X137019880Y-65564434D01*
X137026810Y-65566914D01*
X137033464Y-65570061D01*
X137039777Y-65573845D01*
X137045688Y-65578229D01*
X137051142Y-65583172D01*
X137157208Y-65689238D01*
X137162151Y-65694692D01*
X137166535Y-65700603D01*
X137170319Y-65706916D01*
X137173466Y-65713570D01*
X137175946Y-65720500D01*
X137177734Y-65727639D01*
X137178814Y-65734920D01*
X137179175Y-65742271D01*
X137178814Y-65749622D01*
X137177734Y-65756903D01*
X137175946Y-65764042D01*
X137173466Y-65770972D01*
X137170319Y-65777626D01*
X137166535Y-65783939D01*
X137162151Y-65789850D01*
X137157208Y-65795304D01*
X136679910Y-66272602D01*
X136674456Y-66277545D01*
X136668545Y-66281929D01*
X136662232Y-66285713D01*
X136655578Y-66288860D01*
X136648648Y-66291340D01*
X136641509Y-66293128D01*
X136634228Y-66294208D01*
X136626877Y-66294569D01*
X136619526Y-66294208D01*
X136612245Y-66293128D01*
X136605106Y-66291340D01*
X136598176Y-66288860D01*
X136591522Y-66285713D01*
X136585209Y-66281929D01*
X136579298Y-66277545D01*
X136573844Y-66272602D01*
X136467778Y-66166536D01*
X136462835Y-66161082D01*
X136458451Y-66155171D01*
X136454667Y-66148858D01*
X136451520Y-66142204D01*
X136449040Y-66135274D01*
X136447252Y-66128135D01*
X136446172Y-66120854D01*
X136445811Y-66113503D01*
X136446172Y-66106152D01*
X136447252Y-66098871D01*
X136449040Y-66091732D01*
X136451520Y-66084802D01*
X136454667Y-66078148D01*
X136458451Y-66071835D01*
X136462835Y-66065924D01*
X136467778Y-66060470D01*
X136945076Y-65583172D01*
X136950530Y-65578229D01*
X136956441Y-65573845D01*
X136962754Y-65570061D01*
X136969408Y-65566914D01*
X136976338Y-65564434D01*
X136983477Y-65562646D01*
X136990758Y-65561566D01*
X136998109Y-65561205D01*
X137005460Y-65561566D01*
X137005460Y-65561566D01*
G37*
D12*
X136812493Y-65927887D03*
D10*
G36*
X137465080Y-66021186D02*
X137472361Y-66022266D01*
X137479500Y-66024054D01*
X137486430Y-66026534D01*
X137493084Y-66029681D01*
X137499397Y-66033465D01*
X137505308Y-66037849D01*
X137510762Y-66042792D01*
X137616828Y-66148858D01*
X137621771Y-66154312D01*
X137626155Y-66160223D01*
X137629939Y-66166536D01*
X137633086Y-66173190D01*
X137635566Y-66180120D01*
X137637354Y-66187259D01*
X137638434Y-66194540D01*
X137638795Y-66201891D01*
X137638434Y-66209242D01*
X137637354Y-66216523D01*
X137635566Y-66223662D01*
X137633086Y-66230592D01*
X137629939Y-66237246D01*
X137626155Y-66243559D01*
X137621771Y-66249470D01*
X137616828Y-66254924D01*
X137139530Y-66732222D01*
X137134076Y-66737165D01*
X137128165Y-66741549D01*
X137121852Y-66745333D01*
X137115198Y-66748480D01*
X137108268Y-66750960D01*
X137101129Y-66752748D01*
X137093848Y-66753828D01*
X137086497Y-66754189D01*
X137079146Y-66753828D01*
X137071865Y-66752748D01*
X137064726Y-66750960D01*
X137057796Y-66748480D01*
X137051142Y-66745333D01*
X137044829Y-66741549D01*
X137038918Y-66737165D01*
X137033464Y-66732222D01*
X136927398Y-66626156D01*
X136922455Y-66620702D01*
X136918071Y-66614791D01*
X136914287Y-66608478D01*
X136911140Y-66601824D01*
X136908660Y-66594894D01*
X136906872Y-66587755D01*
X136905792Y-66580474D01*
X136905431Y-66573123D01*
X136905792Y-66565772D01*
X136906872Y-66558491D01*
X136908660Y-66551352D01*
X136911140Y-66544422D01*
X136914287Y-66537768D01*
X136918071Y-66531455D01*
X136922455Y-66525544D01*
X136927398Y-66520090D01*
X137404696Y-66042792D01*
X137410150Y-66037849D01*
X137416061Y-66033465D01*
X137422374Y-66029681D01*
X137429028Y-66026534D01*
X137435958Y-66024054D01*
X137443097Y-66022266D01*
X137450378Y-66021186D01*
X137457729Y-66020825D01*
X137465080Y-66021186D01*
X137465080Y-66021186D01*
G37*
D12*
X137272113Y-66387507D03*
D10*
G36*
X137924699Y-66480805D02*
X137931980Y-66481885D01*
X137939119Y-66483673D01*
X137946049Y-66486153D01*
X137952703Y-66489300D01*
X137959016Y-66493084D01*
X137964927Y-66497468D01*
X137970381Y-66502411D01*
X138076447Y-66608477D01*
X138081390Y-66613931D01*
X138085774Y-66619842D01*
X138089558Y-66626155D01*
X138092705Y-66632809D01*
X138095185Y-66639739D01*
X138096973Y-66646878D01*
X138098053Y-66654159D01*
X138098414Y-66661510D01*
X138098053Y-66668861D01*
X138096973Y-66676142D01*
X138095185Y-66683281D01*
X138092705Y-66690211D01*
X138089558Y-66696865D01*
X138085774Y-66703178D01*
X138081390Y-66709089D01*
X138076447Y-66714543D01*
X137599149Y-67191841D01*
X137593695Y-67196784D01*
X137587784Y-67201168D01*
X137581471Y-67204952D01*
X137574817Y-67208099D01*
X137567887Y-67210579D01*
X137560748Y-67212367D01*
X137553467Y-67213447D01*
X137546116Y-67213808D01*
X137538765Y-67213447D01*
X137531484Y-67212367D01*
X137524345Y-67210579D01*
X137517415Y-67208099D01*
X137510761Y-67204952D01*
X137504448Y-67201168D01*
X137498537Y-67196784D01*
X137493083Y-67191841D01*
X137387017Y-67085775D01*
X137382074Y-67080321D01*
X137377690Y-67074410D01*
X137373906Y-67068097D01*
X137370759Y-67061443D01*
X137368279Y-67054513D01*
X137366491Y-67047374D01*
X137365411Y-67040093D01*
X137365050Y-67032742D01*
X137365411Y-67025391D01*
X137366491Y-67018110D01*
X137368279Y-67010971D01*
X137370759Y-67004041D01*
X137373906Y-66997387D01*
X137377690Y-66991074D01*
X137382074Y-66985163D01*
X137387017Y-66979709D01*
X137864315Y-66502411D01*
X137869769Y-66497468D01*
X137875680Y-66493084D01*
X137881993Y-66489300D01*
X137888647Y-66486153D01*
X137895577Y-66483673D01*
X137902716Y-66481885D01*
X137909997Y-66480805D01*
X137917348Y-66480444D01*
X137924699Y-66480805D01*
X137924699Y-66480805D01*
G37*
D12*
X137731732Y-66847126D03*
D10*
G36*
X138950003Y-66480805D02*
X138957284Y-66481885D01*
X138964423Y-66483673D01*
X138971353Y-66486153D01*
X138978007Y-66489300D01*
X138984320Y-66493084D01*
X138990231Y-66497468D01*
X138995685Y-66502411D01*
X139472983Y-66979709D01*
X139477926Y-66985163D01*
X139482310Y-66991074D01*
X139486094Y-66997387D01*
X139489241Y-67004041D01*
X139491721Y-67010971D01*
X139493509Y-67018110D01*
X139494589Y-67025391D01*
X139494950Y-67032742D01*
X139494589Y-67040093D01*
X139493509Y-67047374D01*
X139491721Y-67054513D01*
X139489241Y-67061443D01*
X139486094Y-67068097D01*
X139482310Y-67074410D01*
X139477926Y-67080321D01*
X139472983Y-67085775D01*
X139366917Y-67191841D01*
X139361463Y-67196784D01*
X139355552Y-67201168D01*
X139349239Y-67204952D01*
X139342585Y-67208099D01*
X139335655Y-67210579D01*
X139328516Y-67212367D01*
X139321235Y-67213447D01*
X139313884Y-67213808D01*
X139306533Y-67213447D01*
X139299252Y-67212367D01*
X139292113Y-67210579D01*
X139285183Y-67208099D01*
X139278529Y-67204952D01*
X139272216Y-67201168D01*
X139266305Y-67196784D01*
X139260851Y-67191841D01*
X138783553Y-66714543D01*
X138778610Y-66709089D01*
X138774226Y-66703178D01*
X138770442Y-66696865D01*
X138767295Y-66690211D01*
X138764815Y-66683281D01*
X138763027Y-66676142D01*
X138761947Y-66668861D01*
X138761586Y-66661510D01*
X138761947Y-66654159D01*
X138763027Y-66646878D01*
X138764815Y-66639739D01*
X138767295Y-66632809D01*
X138770442Y-66626155D01*
X138774226Y-66619842D01*
X138778610Y-66613931D01*
X138783553Y-66608477D01*
X138889619Y-66502411D01*
X138895073Y-66497468D01*
X138900984Y-66493084D01*
X138907297Y-66489300D01*
X138913951Y-66486153D01*
X138920881Y-66483673D01*
X138928020Y-66481885D01*
X138935301Y-66480805D01*
X138942652Y-66480444D01*
X138950003Y-66480805D01*
X138950003Y-66480805D01*
G37*
D12*
X139128268Y-66847126D03*
D10*
G36*
X139409622Y-66021186D02*
X139416903Y-66022266D01*
X139424042Y-66024054D01*
X139430972Y-66026534D01*
X139437626Y-66029681D01*
X139443939Y-66033465D01*
X139449850Y-66037849D01*
X139455304Y-66042792D01*
X139932602Y-66520090D01*
X139937545Y-66525544D01*
X139941929Y-66531455D01*
X139945713Y-66537768D01*
X139948860Y-66544422D01*
X139951340Y-66551352D01*
X139953128Y-66558491D01*
X139954208Y-66565772D01*
X139954569Y-66573123D01*
X139954208Y-66580474D01*
X139953128Y-66587755D01*
X139951340Y-66594894D01*
X139948860Y-66601824D01*
X139945713Y-66608478D01*
X139941929Y-66614791D01*
X139937545Y-66620702D01*
X139932602Y-66626156D01*
X139826536Y-66732222D01*
X139821082Y-66737165D01*
X139815171Y-66741549D01*
X139808858Y-66745333D01*
X139802204Y-66748480D01*
X139795274Y-66750960D01*
X139788135Y-66752748D01*
X139780854Y-66753828D01*
X139773503Y-66754189D01*
X139766152Y-66753828D01*
X139758871Y-66752748D01*
X139751732Y-66750960D01*
X139744802Y-66748480D01*
X139738148Y-66745333D01*
X139731835Y-66741549D01*
X139725924Y-66737165D01*
X139720470Y-66732222D01*
X139243172Y-66254924D01*
X139238229Y-66249470D01*
X139233845Y-66243559D01*
X139230061Y-66237246D01*
X139226914Y-66230592D01*
X139224434Y-66223662D01*
X139222646Y-66216523D01*
X139221566Y-66209242D01*
X139221205Y-66201891D01*
X139221566Y-66194540D01*
X139222646Y-66187259D01*
X139224434Y-66180120D01*
X139226914Y-66173190D01*
X139230061Y-66166536D01*
X139233845Y-66160223D01*
X139238229Y-66154312D01*
X139243172Y-66148858D01*
X139349238Y-66042792D01*
X139354692Y-66037849D01*
X139360603Y-66033465D01*
X139366916Y-66029681D01*
X139373570Y-66026534D01*
X139380500Y-66024054D01*
X139387639Y-66022266D01*
X139394920Y-66021186D01*
X139402271Y-66020825D01*
X139409622Y-66021186D01*
X139409622Y-66021186D01*
G37*
D12*
X139587887Y-66387507D03*
D10*
G36*
X139869242Y-65561566D02*
X139876523Y-65562646D01*
X139883662Y-65564434D01*
X139890592Y-65566914D01*
X139897246Y-65570061D01*
X139903559Y-65573845D01*
X139909470Y-65578229D01*
X139914924Y-65583172D01*
X140392222Y-66060470D01*
X140397165Y-66065924D01*
X140401549Y-66071835D01*
X140405333Y-66078148D01*
X140408480Y-66084802D01*
X140410960Y-66091732D01*
X140412748Y-66098871D01*
X140413828Y-66106152D01*
X140414189Y-66113503D01*
X140413828Y-66120854D01*
X140412748Y-66128135D01*
X140410960Y-66135274D01*
X140408480Y-66142204D01*
X140405333Y-66148858D01*
X140401549Y-66155171D01*
X140397165Y-66161082D01*
X140392222Y-66166536D01*
X140286156Y-66272602D01*
X140280702Y-66277545D01*
X140274791Y-66281929D01*
X140268478Y-66285713D01*
X140261824Y-66288860D01*
X140254894Y-66291340D01*
X140247755Y-66293128D01*
X140240474Y-66294208D01*
X140233123Y-66294569D01*
X140225772Y-66294208D01*
X140218491Y-66293128D01*
X140211352Y-66291340D01*
X140204422Y-66288860D01*
X140197768Y-66285713D01*
X140191455Y-66281929D01*
X140185544Y-66277545D01*
X140180090Y-66272602D01*
X139702792Y-65795304D01*
X139697849Y-65789850D01*
X139693465Y-65783939D01*
X139689681Y-65777626D01*
X139686534Y-65770972D01*
X139684054Y-65764042D01*
X139682266Y-65756903D01*
X139681186Y-65749622D01*
X139680825Y-65742271D01*
X139681186Y-65734920D01*
X139682266Y-65727639D01*
X139684054Y-65720500D01*
X139686534Y-65713570D01*
X139689681Y-65706916D01*
X139693465Y-65700603D01*
X139697849Y-65694692D01*
X139702792Y-65689238D01*
X139808858Y-65583172D01*
X139814312Y-65578229D01*
X139820223Y-65573845D01*
X139826536Y-65570061D01*
X139833190Y-65566914D01*
X139840120Y-65564434D01*
X139847259Y-65562646D01*
X139854540Y-65561566D01*
X139861891Y-65561205D01*
X139869242Y-65561566D01*
X139869242Y-65561566D01*
G37*
D12*
X140047507Y-65927887D03*
D10*
G36*
X140328861Y-65101947D02*
X140336142Y-65103027D01*
X140343281Y-65104815D01*
X140350211Y-65107295D01*
X140356865Y-65110442D01*
X140363178Y-65114226D01*
X140369089Y-65118610D01*
X140374543Y-65123553D01*
X140851841Y-65600851D01*
X140856784Y-65606305D01*
X140861168Y-65612216D01*
X140864952Y-65618529D01*
X140868099Y-65625183D01*
X140870579Y-65632113D01*
X140872367Y-65639252D01*
X140873447Y-65646533D01*
X140873808Y-65653884D01*
X140873447Y-65661235D01*
X140872367Y-65668516D01*
X140870579Y-65675655D01*
X140868099Y-65682585D01*
X140864952Y-65689239D01*
X140861168Y-65695552D01*
X140856784Y-65701463D01*
X140851841Y-65706917D01*
X140745775Y-65812983D01*
X140740321Y-65817926D01*
X140734410Y-65822310D01*
X140728097Y-65826094D01*
X140721443Y-65829241D01*
X140714513Y-65831721D01*
X140707374Y-65833509D01*
X140700093Y-65834589D01*
X140692742Y-65834950D01*
X140685391Y-65834589D01*
X140678110Y-65833509D01*
X140670971Y-65831721D01*
X140664041Y-65829241D01*
X140657387Y-65826094D01*
X140651074Y-65822310D01*
X140645163Y-65817926D01*
X140639709Y-65812983D01*
X140162411Y-65335685D01*
X140157468Y-65330231D01*
X140153084Y-65324320D01*
X140149300Y-65318007D01*
X140146153Y-65311353D01*
X140143673Y-65304423D01*
X140141885Y-65297284D01*
X140140805Y-65290003D01*
X140140444Y-65282652D01*
X140140805Y-65275301D01*
X140141885Y-65268020D01*
X140143673Y-65260881D01*
X140146153Y-65253951D01*
X140149300Y-65247297D01*
X140153084Y-65240984D01*
X140157468Y-65235073D01*
X140162411Y-65229619D01*
X140268477Y-65123553D01*
X140273931Y-65118610D01*
X140279842Y-65114226D01*
X140286155Y-65110442D01*
X140292809Y-65107295D01*
X140299739Y-65104815D01*
X140306878Y-65103027D01*
X140314159Y-65101947D01*
X140321510Y-65101586D01*
X140328861Y-65101947D01*
X140328861Y-65101947D01*
G37*
D12*
X140507126Y-65468268D03*
D10*
G36*
X140700093Y-63705411D02*
X140707374Y-63706491D01*
X140714513Y-63708279D01*
X140721443Y-63710759D01*
X140728097Y-63713906D01*
X140734410Y-63717690D01*
X140740321Y-63722074D01*
X140745775Y-63727017D01*
X140851841Y-63833083D01*
X140856784Y-63838537D01*
X140861168Y-63844448D01*
X140864952Y-63850761D01*
X140868099Y-63857415D01*
X140870579Y-63864345D01*
X140872367Y-63871484D01*
X140873447Y-63878765D01*
X140873808Y-63886116D01*
X140873447Y-63893467D01*
X140872367Y-63900748D01*
X140870579Y-63907887D01*
X140868099Y-63914817D01*
X140864952Y-63921471D01*
X140861168Y-63927784D01*
X140856784Y-63933695D01*
X140851841Y-63939149D01*
X140374543Y-64416447D01*
X140369089Y-64421390D01*
X140363178Y-64425774D01*
X140356865Y-64429558D01*
X140350211Y-64432705D01*
X140343281Y-64435185D01*
X140336142Y-64436973D01*
X140328861Y-64438053D01*
X140321510Y-64438414D01*
X140314159Y-64438053D01*
X140306878Y-64436973D01*
X140299739Y-64435185D01*
X140292809Y-64432705D01*
X140286155Y-64429558D01*
X140279842Y-64425774D01*
X140273931Y-64421390D01*
X140268477Y-64416447D01*
X140162411Y-64310381D01*
X140157468Y-64304927D01*
X140153084Y-64299016D01*
X140149300Y-64292703D01*
X140146153Y-64286049D01*
X140143673Y-64279119D01*
X140141885Y-64271980D01*
X140140805Y-64264699D01*
X140140444Y-64257348D01*
X140140805Y-64249997D01*
X140141885Y-64242716D01*
X140143673Y-64235577D01*
X140146153Y-64228647D01*
X140149300Y-64221993D01*
X140153084Y-64215680D01*
X140157468Y-64209769D01*
X140162411Y-64204315D01*
X140639709Y-63727017D01*
X140645163Y-63722074D01*
X140651074Y-63717690D01*
X140657387Y-63713906D01*
X140664041Y-63710759D01*
X140670971Y-63708279D01*
X140678110Y-63706491D01*
X140685391Y-63705411D01*
X140692742Y-63705050D01*
X140700093Y-63705411D01*
X140700093Y-63705411D01*
G37*
D12*
X140507126Y-64071732D03*
D10*
G36*
X140240474Y-63245792D02*
X140247755Y-63246872D01*
X140254894Y-63248660D01*
X140261824Y-63251140D01*
X140268478Y-63254287D01*
X140274791Y-63258071D01*
X140280702Y-63262455D01*
X140286156Y-63267398D01*
X140392222Y-63373464D01*
X140397165Y-63378918D01*
X140401549Y-63384829D01*
X140405333Y-63391142D01*
X140408480Y-63397796D01*
X140410960Y-63404726D01*
X140412748Y-63411865D01*
X140413828Y-63419146D01*
X140414189Y-63426497D01*
X140413828Y-63433848D01*
X140412748Y-63441129D01*
X140410960Y-63448268D01*
X140408480Y-63455198D01*
X140405333Y-63461852D01*
X140401549Y-63468165D01*
X140397165Y-63474076D01*
X140392222Y-63479530D01*
X139914924Y-63956828D01*
X139909470Y-63961771D01*
X139903559Y-63966155D01*
X139897246Y-63969939D01*
X139890592Y-63973086D01*
X139883662Y-63975566D01*
X139876523Y-63977354D01*
X139869242Y-63978434D01*
X139861891Y-63978795D01*
X139854540Y-63978434D01*
X139847259Y-63977354D01*
X139840120Y-63975566D01*
X139833190Y-63973086D01*
X139826536Y-63969939D01*
X139820223Y-63966155D01*
X139814312Y-63961771D01*
X139808858Y-63956828D01*
X139702792Y-63850762D01*
X139697849Y-63845308D01*
X139693465Y-63839397D01*
X139689681Y-63833084D01*
X139686534Y-63826430D01*
X139684054Y-63819500D01*
X139682266Y-63812361D01*
X139681186Y-63805080D01*
X139680825Y-63797729D01*
X139681186Y-63790378D01*
X139682266Y-63783097D01*
X139684054Y-63775958D01*
X139686534Y-63769028D01*
X139689681Y-63762374D01*
X139693465Y-63756061D01*
X139697849Y-63750150D01*
X139702792Y-63744696D01*
X140180090Y-63267398D01*
X140185544Y-63262455D01*
X140191455Y-63258071D01*
X140197768Y-63254287D01*
X140204422Y-63251140D01*
X140211352Y-63248660D01*
X140218491Y-63246872D01*
X140225772Y-63245792D01*
X140233123Y-63245431D01*
X140240474Y-63245792D01*
X140240474Y-63245792D01*
G37*
D12*
X140047507Y-63612113D03*
D10*
G36*
X139780854Y-62786172D02*
X139788135Y-62787252D01*
X139795274Y-62789040D01*
X139802204Y-62791520D01*
X139808858Y-62794667D01*
X139815171Y-62798451D01*
X139821082Y-62802835D01*
X139826536Y-62807778D01*
X139932602Y-62913844D01*
X139937545Y-62919298D01*
X139941929Y-62925209D01*
X139945713Y-62931522D01*
X139948860Y-62938176D01*
X139951340Y-62945106D01*
X139953128Y-62952245D01*
X139954208Y-62959526D01*
X139954569Y-62966877D01*
X139954208Y-62974228D01*
X139953128Y-62981509D01*
X139951340Y-62988648D01*
X139948860Y-62995578D01*
X139945713Y-63002232D01*
X139941929Y-63008545D01*
X139937545Y-63014456D01*
X139932602Y-63019910D01*
X139455304Y-63497208D01*
X139449850Y-63502151D01*
X139443939Y-63506535D01*
X139437626Y-63510319D01*
X139430972Y-63513466D01*
X139424042Y-63515946D01*
X139416903Y-63517734D01*
X139409622Y-63518814D01*
X139402271Y-63519175D01*
X139394920Y-63518814D01*
X139387639Y-63517734D01*
X139380500Y-63515946D01*
X139373570Y-63513466D01*
X139366916Y-63510319D01*
X139360603Y-63506535D01*
X139354692Y-63502151D01*
X139349238Y-63497208D01*
X139243172Y-63391142D01*
X139238229Y-63385688D01*
X139233845Y-63379777D01*
X139230061Y-63373464D01*
X139226914Y-63366810D01*
X139224434Y-63359880D01*
X139222646Y-63352741D01*
X139221566Y-63345460D01*
X139221205Y-63338109D01*
X139221566Y-63330758D01*
X139222646Y-63323477D01*
X139224434Y-63316338D01*
X139226914Y-63309408D01*
X139230061Y-63302754D01*
X139233845Y-63296441D01*
X139238229Y-63290530D01*
X139243172Y-63285076D01*
X139720470Y-62807778D01*
X139725924Y-62802835D01*
X139731835Y-62798451D01*
X139738148Y-62794667D01*
X139744802Y-62791520D01*
X139751732Y-62789040D01*
X139758871Y-62787252D01*
X139766152Y-62786172D01*
X139773503Y-62785811D01*
X139780854Y-62786172D01*
X139780854Y-62786172D01*
G37*
D12*
X139587887Y-63152493D03*
D10*
G36*
X139321235Y-62326553D02*
X139328516Y-62327633D01*
X139335655Y-62329421D01*
X139342585Y-62331901D01*
X139349239Y-62335048D01*
X139355552Y-62338832D01*
X139361463Y-62343216D01*
X139366917Y-62348159D01*
X139472983Y-62454225D01*
X139477926Y-62459679D01*
X139482310Y-62465590D01*
X139486094Y-62471903D01*
X139489241Y-62478557D01*
X139491721Y-62485487D01*
X139493509Y-62492626D01*
X139494589Y-62499907D01*
X139494950Y-62507258D01*
X139494589Y-62514609D01*
X139493509Y-62521890D01*
X139491721Y-62529029D01*
X139489241Y-62535959D01*
X139486094Y-62542613D01*
X139482310Y-62548926D01*
X139477926Y-62554837D01*
X139472983Y-62560291D01*
X138995685Y-63037589D01*
X138990231Y-63042532D01*
X138984320Y-63046916D01*
X138978007Y-63050700D01*
X138971353Y-63053847D01*
X138964423Y-63056327D01*
X138957284Y-63058115D01*
X138950003Y-63059195D01*
X138942652Y-63059556D01*
X138935301Y-63059195D01*
X138928020Y-63058115D01*
X138920881Y-63056327D01*
X138913951Y-63053847D01*
X138907297Y-63050700D01*
X138900984Y-63046916D01*
X138895073Y-63042532D01*
X138889619Y-63037589D01*
X138783553Y-62931523D01*
X138778610Y-62926069D01*
X138774226Y-62920158D01*
X138770442Y-62913845D01*
X138767295Y-62907191D01*
X138764815Y-62900261D01*
X138763027Y-62893122D01*
X138761947Y-62885841D01*
X138761586Y-62878490D01*
X138761947Y-62871139D01*
X138763027Y-62863858D01*
X138764815Y-62856719D01*
X138767295Y-62849789D01*
X138770442Y-62843135D01*
X138774226Y-62836822D01*
X138778610Y-62830911D01*
X138783553Y-62825457D01*
X139260851Y-62348159D01*
X139266305Y-62343216D01*
X139272216Y-62338832D01*
X139278529Y-62335048D01*
X139285183Y-62331901D01*
X139292113Y-62329421D01*
X139299252Y-62327633D01*
X139306533Y-62326553D01*
X139313884Y-62326192D01*
X139321235Y-62326553D01*
X139321235Y-62326553D01*
G37*
D12*
X139128268Y-62692874D03*
G04 #@! TD*
M02*
