G04 #@! TF.GenerationSoftware,KiCad,Pcbnew,(5.0.0-3-g5ebb6b6)*
G04 #@! TF.CreationDate,2018-09-23T00:30:24+01:00*
G04 #@! TF.ProjectId,BreadboardAdaptor44PinPLCC,4272656164626F61726441646170746F,rev?*
G04 #@! TF.SameCoordinates,Original*
G04 #@! TF.FileFunction,Copper,L1,Top,Signal*
G04 #@! TF.FilePolarity,Positive*
%FSLAX46Y46*%
G04 Gerber Fmt 4.6, Leading zero omitted, Abs format (unit mm)*
G04 Created by KiCad (PCBNEW (5.0.0-3-g5ebb6b6)) date Sunday, 23 September 2018 at 00:30:24*
%MOMM*%
%LPD*%
G01*
G04 APERTURE LIST*
G04 #@! TA.AperFunction,ComponentPad*
%ADD10R,1.700000X1.700000*%
G04 #@! TD*
G04 #@! TA.AperFunction,ComponentPad*
%ADD11O,1.700000X1.700000*%
G04 #@! TD*
G04 #@! TA.AperFunction,ComponentPad*
%ADD12R,1.422400X1.422400*%
G04 #@! TD*
G04 #@! TA.AperFunction,ComponentPad*
%ADD13C,1.422400*%
G04 #@! TD*
G04 #@! TA.AperFunction,Conductor*
%ADD14C,0.250000*%
G04 #@! TD*
G04 APERTURE END LIST*
D10*
G04 #@! TO.P,J_1_22_PDIP1,1*
G04 #@! TO.N,Net-(J_1_22_PDIP1-Pad1)*
X158750000Y-77470000D03*
D11*
G04 #@! TO.P,J_1_22_PDIP1,2*
G04 #@! TO.N,Net-(J_1_22_PDIP1-Pad2)*
X158750000Y-80010000D03*
G04 #@! TO.P,J_1_22_PDIP1,3*
G04 #@! TO.N,Net-(J_1_22_PDIP1-Pad3)*
X158750000Y-82550000D03*
G04 #@! TO.P,J_1_22_PDIP1,4*
G04 #@! TO.N,Net-(J_1_22_PDIP1-Pad4)*
X158750000Y-85090000D03*
G04 #@! TO.P,J_1_22_PDIP1,5*
G04 #@! TO.N,Net-(J_1_22_PDIP1-Pad5)*
X158750000Y-87630000D03*
G04 #@! TO.P,J_1_22_PDIP1,6*
G04 #@! TO.N,Net-(J_1_22_PDIP1-Pad6)*
X158750000Y-90170000D03*
G04 #@! TO.P,J_1_22_PDIP1,7*
G04 #@! TO.N,Net-(J_1_22_PDIP1-Pad7)*
X158750000Y-92710000D03*
G04 #@! TO.P,J_1_22_PDIP1,8*
G04 #@! TO.N,Net-(J_1_22_PDIP1-Pad8)*
X158750000Y-95250000D03*
G04 #@! TO.P,J_1_22_PDIP1,9*
G04 #@! TO.N,Net-(J_1_22_PDIP1-Pad9)*
X158750000Y-97790000D03*
G04 #@! TO.P,J_1_22_PDIP1,10*
G04 #@! TO.N,Net-(J_1_22_PDIP1-Pad10)*
X158750000Y-100330000D03*
G04 #@! TO.P,J_1_22_PDIP1,11*
G04 #@! TO.N,Net-(J_1_22_PDIP1-Pad11)*
X158750000Y-102870000D03*
G04 #@! TO.P,J_1_22_PDIP1,12*
G04 #@! TO.N,Net-(J_1_22_PDIP1-Pad12)*
X158750000Y-105410000D03*
G04 #@! TO.P,J_1_22_PDIP1,13*
G04 #@! TO.N,Net-(J_1_22_PDIP1-Pad13)*
X158750000Y-107950000D03*
G04 #@! TO.P,J_1_22_PDIP1,14*
G04 #@! TO.N,Net-(J_1_22_PDIP1-Pad14)*
X158750000Y-110490000D03*
G04 #@! TO.P,J_1_22_PDIP1,15*
G04 #@! TO.N,Net-(J_1_22_PDIP1-Pad15)*
X158750000Y-113030000D03*
G04 #@! TO.P,J_1_22_PDIP1,16*
G04 #@! TO.N,Net-(J_1_22_PDIP1-Pad16)*
X158750000Y-115570000D03*
G04 #@! TO.P,J_1_22_PDIP1,17*
G04 #@! TO.N,Net-(J_1_22_PDIP1-Pad17)*
X158750000Y-118110000D03*
G04 #@! TO.P,J_1_22_PDIP1,18*
G04 #@! TO.N,Net-(J_1_22_PDIP1-Pad18)*
X158750000Y-120650000D03*
G04 #@! TO.P,J_1_22_PDIP1,19*
G04 #@! TO.N,Net-(J_1_22_PDIP1-Pad19)*
X158750000Y-123190000D03*
G04 #@! TO.P,J_1_22_PDIP1,20*
G04 #@! TO.N,Net-(J_1_22_PDIP1-Pad20)*
X158750000Y-125730000D03*
G04 #@! TD*
G04 #@! TO.P,J_23_44_PDIP2,20*
G04 #@! TO.N,Net-(J_23_44_PDIP2-Pad20)*
X186690000Y-77470000D03*
G04 #@! TO.P,J_23_44_PDIP2,19*
G04 #@! TO.N,Net-(J_23_44_PDIP2-Pad19)*
X186690000Y-80010000D03*
G04 #@! TO.P,J_23_44_PDIP2,18*
G04 #@! TO.N,Net-(J_23_44_PDIP2-Pad18)*
X186690000Y-82550000D03*
G04 #@! TO.P,J_23_44_PDIP2,17*
G04 #@! TO.N,Net-(J_23_44_PDIP2-Pad17)*
X186690000Y-85090000D03*
G04 #@! TO.P,J_23_44_PDIP2,16*
G04 #@! TO.N,Net-(J_23_44_PDIP2-Pad16)*
X186690000Y-87630000D03*
G04 #@! TO.P,J_23_44_PDIP2,15*
G04 #@! TO.N,Net-(J_23_44_PDIP2-Pad15)*
X186690000Y-90170000D03*
G04 #@! TO.P,J_23_44_PDIP2,14*
G04 #@! TO.N,Net-(J_23_44_PDIP2-Pad14)*
X186690000Y-92710000D03*
G04 #@! TO.P,J_23_44_PDIP2,13*
G04 #@! TO.N,Net-(J_23_44_PDIP2-Pad13)*
X186690000Y-95250000D03*
G04 #@! TO.P,J_23_44_PDIP2,12*
G04 #@! TO.N,Net-(J_23_44_PDIP2-Pad12)*
X186690000Y-97790000D03*
G04 #@! TO.P,J_23_44_PDIP2,11*
G04 #@! TO.N,Net-(J_23_44_PDIP2-Pad11)*
X186690000Y-100330000D03*
G04 #@! TO.P,J_23_44_PDIP2,10*
G04 #@! TO.N,Net-(J_23_44_PDIP2-Pad10)*
X186690000Y-102870000D03*
G04 #@! TO.P,J_23_44_PDIP2,9*
G04 #@! TO.N,Net-(J_23_44_PDIP2-Pad9)*
X186690000Y-105410000D03*
G04 #@! TO.P,J_23_44_PDIP2,8*
G04 #@! TO.N,Net-(J_23_44_PDIP2-Pad8)*
X186690000Y-107950000D03*
G04 #@! TO.P,J_23_44_PDIP2,7*
G04 #@! TO.N,Net-(J_23_44_PDIP2-Pad7)*
X186690000Y-110490000D03*
G04 #@! TO.P,J_23_44_PDIP2,6*
G04 #@! TO.N,Net-(J_23_44_PDIP2-Pad6)*
X186690000Y-113030000D03*
G04 #@! TO.P,J_23_44_PDIP2,5*
G04 #@! TO.N,Net-(J_23_44_PDIP2-Pad5)*
X186690000Y-115570000D03*
G04 #@! TO.P,J_23_44_PDIP2,4*
G04 #@! TO.N,Net-(J_23_44_PDIP2-Pad4)*
X186690000Y-118110000D03*
G04 #@! TO.P,J_23_44_PDIP2,3*
G04 #@! TO.N,Net-(J_23_44_PDIP2-Pad3)*
X186690000Y-120650000D03*
G04 #@! TO.P,J_23_44_PDIP2,2*
G04 #@! TO.N,Net-(J_23_44_PDIP2-Pad2)*
X186690000Y-123190000D03*
D10*
G04 #@! TO.P,J_23_44_PDIP2,1*
G04 #@! TO.N,Net-(J_23_44_PDIP2-Pad1)*
X186690000Y-125730000D03*
G04 #@! TD*
D12*
G04 #@! TO.P,U_PLCC1,1*
G04 #@! TO.N,Net-(J_1_22_PDIP1-Pad1)*
X173990000Y-97790000D03*
D13*
G04 #@! TO.P,U_PLCC1,3*
G04 #@! TO.N,Net-(J_1_22_PDIP1-Pad3)*
X171450000Y-97790000D03*
G04 #@! TO.P,U_PLCC1,5*
G04 #@! TO.N,N/C*
X168910000Y-97790000D03*
G04 #@! TO.P,U_PLCC1,43*
G04 #@! TO.N,Net-(J_23_44_PDIP2-Pad19)*
X176530000Y-97790000D03*
G04 #@! TO.P,U_PLCC1,41*
G04 #@! TO.N,Net-(J_23_44_PDIP2-Pad17)*
X179070000Y-97790000D03*
G04 #@! TO.P,U_PLCC1,2*
G04 #@! TO.N,Net-(J_1_22_PDIP1-Pad2)*
X171450000Y-95250000D03*
G04 #@! TO.P,U_PLCC1,4*
G04 #@! TO.N,Net-(J_1_22_PDIP1-Pad4)*
X168910000Y-95250000D03*
G04 #@! TO.P,U_PLCC1,6*
G04 #@! TO.N,N/C*
X166370000Y-95250000D03*
G04 #@! TO.P,U_PLCC1,44*
G04 #@! TO.N,Net-(J_23_44_PDIP2-Pad20)*
X173990000Y-95250000D03*
G04 #@! TO.P,U_PLCC1,42*
G04 #@! TO.N,Net-(J_23_44_PDIP2-Pad18)*
X176530000Y-95250000D03*
G04 #@! TO.P,U_PLCC1,8*
G04 #@! TO.N,Net-(J_1_22_PDIP1-Pad6)*
X166370000Y-97790000D03*
G04 #@! TO.P,U_PLCC1,10*
G04 #@! TO.N,Net-(J_1_22_PDIP1-Pad8)*
X166370000Y-100330000D03*
G04 #@! TO.P,U_PLCC1,12*
G04 #@! TO.N,Net-(J_1_22_PDIP1-Pad10)*
X166370000Y-102870000D03*
G04 #@! TO.P,U_PLCC1,14*
G04 #@! TO.N,Net-(J_1_22_PDIP1-Pad12)*
X166370000Y-105410000D03*
G04 #@! TO.P,U_PLCC1,16*
G04 #@! TO.N,Net-(J_1_22_PDIP1-Pad14)*
X166370000Y-107950000D03*
G04 #@! TO.P,U_PLCC1,7*
G04 #@! TO.N,Net-(J_1_22_PDIP1-Pad5)*
X163830000Y-97790000D03*
G04 #@! TO.P,U_PLCC1,9*
G04 #@! TO.N,Net-(J_1_22_PDIP1-Pad7)*
X163830000Y-100330000D03*
G04 #@! TO.P,U_PLCC1,11*
G04 #@! TO.N,Net-(J_1_22_PDIP1-Pad9)*
X163830000Y-102870000D03*
G04 #@! TO.P,U_PLCC1,13*
G04 #@! TO.N,Net-(J_1_22_PDIP1-Pad11)*
X163830000Y-105410000D03*
G04 #@! TO.P,U_PLCC1,15*
G04 #@! TO.N,Net-(J_1_22_PDIP1-Pad13)*
X163830000Y-107950000D03*
G04 #@! TO.P,U_PLCC1,17*
G04 #@! TO.N,Net-(J_1_22_PDIP1-Pad15)*
X163830000Y-110490000D03*
G04 #@! TO.P,U_PLCC1,19*
G04 #@! TO.N,Net-(J_1_22_PDIP1-Pad17)*
X166370000Y-110490000D03*
G04 #@! TO.P,U_PLCC1,21*
G04 #@! TO.N,Net-(J_1_22_PDIP1-Pad19)*
X168910000Y-110490000D03*
G04 #@! TO.P,U_PLCC1,23*
G04 #@! TO.N,Net-(J_23_44_PDIP2-Pad1)*
X171450000Y-110490000D03*
G04 #@! TO.P,U_PLCC1,25*
G04 #@! TO.N,Net-(J_23_44_PDIP2-Pad3)*
X173990000Y-110490000D03*
G04 #@! TO.P,U_PLCC1,27*
G04 #@! TO.N,Net-(J_23_44_PDIP2-Pad5)*
X176530000Y-110490000D03*
G04 #@! TO.P,U_PLCC1,29*
G04 #@! TO.N,Net-(J_23_44_PDIP2-Pad7)*
X181610000Y-110490000D03*
G04 #@! TO.P,U_PLCC1,18*
G04 #@! TO.N,Net-(J_1_22_PDIP1-Pad16)*
X166370000Y-113030000D03*
G04 #@! TO.P,U_PLCC1,20*
G04 #@! TO.N,Net-(J_1_22_PDIP1-Pad18)*
X168910000Y-113030000D03*
G04 #@! TO.P,U_PLCC1,22*
G04 #@! TO.N,Net-(J_1_22_PDIP1-Pad20)*
X171450000Y-113030000D03*
G04 #@! TO.P,U_PLCC1,24*
G04 #@! TO.N,Net-(J_23_44_PDIP2-Pad2)*
X173990000Y-113030000D03*
G04 #@! TO.P,U_PLCC1,26*
G04 #@! TO.N,Net-(J_23_44_PDIP2-Pad4)*
X176530000Y-113030000D03*
G04 #@! TO.P,U_PLCC1,28*
G04 #@! TO.N,Net-(J_23_44_PDIP2-Pad6)*
X179070000Y-113030000D03*
G04 #@! TO.P,U_PLCC1,30*
G04 #@! TO.N,Net-(J_23_44_PDIP2-Pad8)*
X179070000Y-110490000D03*
G04 #@! TO.P,U_PLCC1,32*
G04 #@! TO.N,Net-(J_23_44_PDIP2-Pad10)*
X179070000Y-107950000D03*
G04 #@! TO.P,U_PLCC1,34*
G04 #@! TO.N,Net-(J_23_44_PDIP2-Pad12)*
X179070000Y-105410000D03*
G04 #@! TO.P,U_PLCC1,36*
G04 #@! TO.N,Net-(J_23_44_PDIP2-Pad14)*
X179070000Y-102870000D03*
G04 #@! TO.P,U_PLCC1,38*
G04 #@! TO.N,Net-(J_23_44_PDIP2-Pad16)*
X179070000Y-100330000D03*
G04 #@! TO.P,U_PLCC1,40*
G04 #@! TO.N,N/C*
X179070000Y-95250000D03*
G04 #@! TO.P,U_PLCC1,31*
G04 #@! TO.N,Net-(J_23_44_PDIP2-Pad9)*
X181610000Y-107950000D03*
G04 #@! TO.P,U_PLCC1,33*
G04 #@! TO.N,Net-(J_23_44_PDIP2-Pad11)*
X181610000Y-105410000D03*
G04 #@! TO.P,U_PLCC1,35*
G04 #@! TO.N,Net-(J_23_44_PDIP2-Pad13)*
X181610000Y-102870000D03*
G04 #@! TO.P,U_PLCC1,37*
G04 #@! TO.N,Net-(J_23_44_PDIP2-Pad15)*
X181610000Y-100330000D03*
G04 #@! TO.P,U_PLCC1,39*
G04 #@! TO.N,N/C*
X181610000Y-97790000D03*
G04 #@! TD*
D14*
G04 #@! TO.N,Net-(J_1_22_PDIP1-Pad2)*
X171450000Y-95250000D02*
X171450000Y-90170000D01*
X161290000Y-80010000D02*
X158750000Y-80010000D01*
X171450000Y-90170000D02*
X161290000Y-80010000D01*
G04 #@! TO.N,Net-(J_1_22_PDIP1-Pad4)*
X168910000Y-95250000D02*
X168910000Y-92710000D01*
X161290000Y-85090000D02*
X158750000Y-85090000D01*
X168910000Y-92710000D02*
X161290000Y-85090000D01*
G04 #@! TO.N,Net-(J_1_22_PDIP1-Pad5)*
X161290000Y-87630000D02*
X158750000Y-87630000D01*
X163830000Y-90170000D02*
X161290000Y-87630000D01*
X163830000Y-97790000D02*
X163830000Y-90170000D01*
G04 #@! TO.N,Net-(J_1_22_PDIP1-Pad7)*
X158750000Y-92710000D02*
X160020000Y-92710000D01*
X160020000Y-92710000D02*
X161290000Y-93980000D01*
X161290000Y-97790000D02*
X163830000Y-100330000D01*
X161290000Y-93980000D02*
X161290000Y-97790000D01*
G04 #@! TO.N,Net-(J_1_22_PDIP1-Pad9)*
X158750000Y-97790000D02*
X160020000Y-97790000D01*
X160020000Y-97790000D02*
X161290000Y-99060000D01*
X161290000Y-99060000D02*
X161290000Y-101600000D01*
X161290000Y-101600000D02*
X162560000Y-102870000D01*
X162560000Y-102870000D02*
X163830000Y-102870000D01*
G04 #@! TO.N,Net-(J_1_22_PDIP1-Pad11)*
X158750000Y-102870000D02*
X160020000Y-102870000D01*
X162560000Y-105410000D02*
X163830000Y-105410000D01*
X160020000Y-102870000D02*
X162560000Y-105410000D01*
G04 #@! TO.N,Net-(J_1_22_PDIP1-Pad13)*
X158750000Y-107950000D02*
X163830000Y-107950000D01*
G04 #@! TO.N,Net-(J_1_22_PDIP1-Pad15)*
X158750000Y-113030000D02*
X162560000Y-113030000D01*
X162560000Y-113030000D02*
X163830000Y-111760000D01*
X163830000Y-111760000D02*
X163830000Y-110490000D01*
G04 #@! TO.N,Net-(J_1_22_PDIP1-Pad16)*
X158750000Y-115570000D02*
X165100000Y-115570000D01*
X165100000Y-115570000D02*
X166370000Y-114300000D01*
X166370000Y-114300000D02*
X166370000Y-113030000D01*
G04 #@! TO.N,Net-(J_1_22_PDIP1-Pad18)*
X158750000Y-120650000D02*
X163830000Y-120650000D01*
X168910000Y-115570000D02*
X168910000Y-113030000D01*
X163830000Y-120650000D02*
X168910000Y-115570000D01*
G04 #@! TO.N,Net-(J_1_22_PDIP1-Pad20)*
X158750000Y-125730000D02*
X166370000Y-125730000D01*
X171450000Y-120650000D02*
X171450000Y-113030000D01*
X166370000Y-125730000D02*
X171450000Y-120650000D01*
G04 #@! TO.N,Net-(J_23_44_PDIP2-Pad20)*
X173990000Y-95250000D02*
X173990000Y-83820000D01*
X180340000Y-77470000D02*
X186690000Y-77470000D01*
X173990000Y-83820000D02*
X180340000Y-77470000D01*
G04 #@! TO.N,Net-(J_23_44_PDIP2-Pad18)*
X176530000Y-95250000D02*
X176530000Y-88900000D01*
X182880000Y-82550000D02*
X186690000Y-82550000D01*
X176530000Y-88900000D02*
X182880000Y-82550000D01*
G04 #@! TO.N,Net-(J_23_44_PDIP2-Pad15)*
X185420000Y-90170000D02*
X186690000Y-90170000D01*
X183515000Y-98425000D02*
X183515000Y-92075000D01*
X183515000Y-92075000D02*
X185420000Y-90170000D01*
X181610000Y-100330000D02*
X183515000Y-98425000D01*
G04 #@! TO.N,Net-(J_23_44_PDIP2-Pad13)*
X184785000Y-95250000D02*
X186690000Y-95250000D01*
X184785000Y-99695000D02*
X184785000Y-95250000D01*
X181610000Y-102870000D02*
X184785000Y-99695000D01*
G04 #@! TO.N,Net-(J_23_44_PDIP2-Pad11)*
X181610000Y-105410000D02*
X186690000Y-100330000D01*
G04 #@! TO.N,Net-(J_23_44_PDIP2-Pad9)*
X181610000Y-107950000D02*
X182880000Y-107950000D01*
X185420000Y-105410000D02*
X186690000Y-105410000D01*
X182880000Y-107950000D02*
X185420000Y-105410000D01*
G04 #@! TO.N,Net-(J_23_44_PDIP2-Pad7)*
X181610000Y-110490000D02*
X186690000Y-110490000D01*
G04 #@! TO.N,Net-(J_23_44_PDIP2-Pad6)*
X179070000Y-113030000D02*
X186690000Y-113030000D01*
G04 #@! TO.N,Net-(J_23_44_PDIP2-Pad4)*
X180604212Y-118110000D02*
X186690000Y-118110000D01*
X176530000Y-114035788D02*
X180604212Y-118110000D01*
X176530000Y-113030000D02*
X176530000Y-114035788D01*
G04 #@! TO.N,Net-(J_23_44_PDIP2-Pad2)*
X185487919Y-123190000D02*
X186690000Y-123190000D01*
X183144212Y-123190000D02*
X185487919Y-123190000D01*
X173990000Y-114035788D02*
X183144212Y-123190000D01*
X173990000Y-113030000D02*
X173990000Y-114035788D01*
G04 #@! TD*
M02*
