G04 #@! TF.GenerationSoftware,KiCad,Pcbnew,(5.0.0-3-g5ebb6b6)*
G04 #@! TF.CreationDate,2018-09-23T00:30:24+01:00*
G04 #@! TF.ProjectId,BreadboardAdaptor44PinPLCC,4272656164626F61726441646170746F,rev?*
G04 #@! TF.SameCoordinates,Original*
G04 #@! TF.FileFunction,Legend,Top*
G04 #@! TF.FilePolarity,Positive*
%FSLAX46Y46*%
G04 Gerber Fmt 4.6, Leading zero omitted, Abs format (unit mm)*
G04 Created by KiCad (PCBNEW (5.0.0-3-g5ebb6b6)) date Sunday, 23 September 2018 at 00:30:24*
%MOMM*%
%LPD*%
G01*
G04 APERTURE LIST*
%ADD10C,0.120000*%
%ADD11C,0.150000*%
G04 APERTURE END LIST*
D10*
G04 #@! TO.C,J_1_22_PDIP1*
X157420000Y-127060000D02*
X160080000Y-127060000D01*
X157420000Y-78740000D02*
X157420000Y-127060000D01*
X160080000Y-78740000D02*
X160080000Y-127060000D01*
X157420000Y-78740000D02*
X160080000Y-78740000D01*
X157420000Y-77470000D02*
X157420000Y-76140000D01*
X157420000Y-76140000D02*
X158750000Y-76140000D01*
G04 #@! TO.C,J_23_44_PDIP2*
X188020000Y-127060000D02*
X186690000Y-127060000D01*
X188020000Y-125730000D02*
X188020000Y-127060000D01*
X188020000Y-124460000D02*
X185360000Y-124460000D01*
X185360000Y-124460000D02*
X185360000Y-76140000D01*
X188020000Y-124460000D02*
X188020000Y-76140000D01*
X188020000Y-76140000D02*
X185360000Y-76140000D01*
G04 #@! TO.C,U_PLCC1*
X171720000Y-92290000D02*
X161870000Y-92290000D01*
X161870000Y-92290000D02*
X160870000Y-93290000D01*
X160870000Y-93290000D02*
X160870000Y-115990000D01*
X160870000Y-115990000D02*
X184570000Y-115990000D01*
X184570000Y-115990000D02*
X184570000Y-92290000D01*
X184570000Y-92290000D02*
X173720000Y-92290000D01*
G04 #@! TO.C,J_1_22_PDIP1*
D11*
X154107142Y-74592380D02*
X154107142Y-75306666D01*
X154059523Y-75449523D01*
X153964285Y-75544761D01*
X153821428Y-75592380D01*
X153726190Y-75592380D01*
X154345238Y-75687619D02*
X155107142Y-75687619D01*
X155869047Y-75592380D02*
X155297619Y-75592380D01*
X155583333Y-75592380D02*
X155583333Y-74592380D01*
X155488095Y-74735238D01*
X155392857Y-74830476D01*
X155297619Y-74878095D01*
X156059523Y-75687619D02*
X156821428Y-75687619D01*
X157011904Y-74687619D02*
X157059523Y-74640000D01*
X157154761Y-74592380D01*
X157392857Y-74592380D01*
X157488095Y-74640000D01*
X157535714Y-74687619D01*
X157583333Y-74782857D01*
X157583333Y-74878095D01*
X157535714Y-75020952D01*
X156964285Y-75592380D01*
X157583333Y-75592380D01*
X157964285Y-74687619D02*
X158011904Y-74640000D01*
X158107142Y-74592380D01*
X158345238Y-74592380D01*
X158440476Y-74640000D01*
X158488095Y-74687619D01*
X158535714Y-74782857D01*
X158535714Y-74878095D01*
X158488095Y-75020952D01*
X157916666Y-75592380D01*
X158535714Y-75592380D01*
X158726190Y-75687619D02*
X159488095Y-75687619D01*
X159726190Y-75592380D02*
X159726190Y-74592380D01*
X160107142Y-74592380D01*
X160202380Y-74640000D01*
X160250000Y-74687619D01*
X160297619Y-74782857D01*
X160297619Y-74925714D01*
X160250000Y-75020952D01*
X160202380Y-75068571D01*
X160107142Y-75116190D01*
X159726190Y-75116190D01*
X160726190Y-75592380D02*
X160726190Y-74592380D01*
X160964285Y-74592380D01*
X161107142Y-74640000D01*
X161202380Y-74735238D01*
X161250000Y-74830476D01*
X161297619Y-75020952D01*
X161297619Y-75163809D01*
X161250000Y-75354285D01*
X161202380Y-75449523D01*
X161107142Y-75544761D01*
X160964285Y-75592380D01*
X160726190Y-75592380D01*
X161726190Y-75592380D02*
X161726190Y-74592380D01*
X162202380Y-75592380D02*
X162202380Y-74592380D01*
X162583333Y-74592380D01*
X162678571Y-74640000D01*
X162726190Y-74687619D01*
X162773809Y-74782857D01*
X162773809Y-74925714D01*
X162726190Y-75020952D01*
X162678571Y-75068571D01*
X162583333Y-75116190D01*
X162202380Y-75116190D01*
X163726190Y-75592380D02*
X163154761Y-75592380D01*
X163440476Y-75592380D02*
X163440476Y-74592380D01*
X163345238Y-74735238D01*
X163250000Y-74830476D01*
X163154761Y-74878095D01*
G04 #@! TO.C,J_23_44_PDIP2*
X181570952Y-127512380D02*
X181570952Y-128226666D01*
X181523333Y-128369523D01*
X181428095Y-128464761D01*
X181285238Y-128512380D01*
X181190000Y-128512380D01*
X181809047Y-128607619D02*
X182570952Y-128607619D01*
X182761428Y-127607619D02*
X182809047Y-127560000D01*
X182904285Y-127512380D01*
X183142380Y-127512380D01*
X183237619Y-127560000D01*
X183285238Y-127607619D01*
X183332857Y-127702857D01*
X183332857Y-127798095D01*
X183285238Y-127940952D01*
X182713809Y-128512380D01*
X183332857Y-128512380D01*
X183666190Y-127512380D02*
X184285238Y-127512380D01*
X183951904Y-127893333D01*
X184094761Y-127893333D01*
X184190000Y-127940952D01*
X184237619Y-127988571D01*
X184285238Y-128083809D01*
X184285238Y-128321904D01*
X184237619Y-128417142D01*
X184190000Y-128464761D01*
X184094761Y-128512380D01*
X183809047Y-128512380D01*
X183713809Y-128464761D01*
X183666190Y-128417142D01*
X184475714Y-128607619D02*
X185237619Y-128607619D01*
X185904285Y-127845714D02*
X185904285Y-128512380D01*
X185666190Y-127464761D02*
X185428095Y-128179047D01*
X186047142Y-128179047D01*
X186856666Y-127845714D02*
X186856666Y-128512380D01*
X186618571Y-127464761D02*
X186380476Y-128179047D01*
X186999523Y-128179047D01*
X187142380Y-128607619D02*
X187904285Y-128607619D01*
X188142380Y-128512380D02*
X188142380Y-127512380D01*
X188523333Y-127512380D01*
X188618571Y-127560000D01*
X188666190Y-127607619D01*
X188713809Y-127702857D01*
X188713809Y-127845714D01*
X188666190Y-127940952D01*
X188618571Y-127988571D01*
X188523333Y-128036190D01*
X188142380Y-128036190D01*
X189142380Y-128512380D02*
X189142380Y-127512380D01*
X189380476Y-127512380D01*
X189523333Y-127560000D01*
X189618571Y-127655238D01*
X189666190Y-127750476D01*
X189713809Y-127940952D01*
X189713809Y-128083809D01*
X189666190Y-128274285D01*
X189618571Y-128369523D01*
X189523333Y-128464761D01*
X189380476Y-128512380D01*
X189142380Y-128512380D01*
X190142380Y-128512380D02*
X190142380Y-127512380D01*
X190618571Y-128512380D02*
X190618571Y-127512380D01*
X190999523Y-127512380D01*
X191094761Y-127560000D01*
X191142380Y-127607619D01*
X191190000Y-127702857D01*
X191190000Y-127845714D01*
X191142380Y-127940952D01*
X191094761Y-127988571D01*
X190999523Y-128036190D01*
X190618571Y-128036190D01*
X191570952Y-127607619D02*
X191618571Y-127560000D01*
X191713809Y-127512380D01*
X191951904Y-127512380D01*
X192047142Y-127560000D01*
X192094761Y-127607619D01*
X192142380Y-127702857D01*
X192142380Y-127798095D01*
X192094761Y-127940952D01*
X191523333Y-128512380D01*
X192142380Y-128512380D01*
G04 #@! TO.C,U_PLCC1*
X169672380Y-90842380D02*
X169672380Y-91651904D01*
X169720000Y-91747142D01*
X169767619Y-91794761D01*
X169862857Y-91842380D01*
X170053333Y-91842380D01*
X170148571Y-91794761D01*
X170196190Y-91747142D01*
X170243809Y-91651904D01*
X170243809Y-90842380D01*
X170481904Y-91937619D02*
X171243809Y-91937619D01*
X171481904Y-91842380D02*
X171481904Y-90842380D01*
X171862857Y-90842380D01*
X171958095Y-90890000D01*
X172005714Y-90937619D01*
X172053333Y-91032857D01*
X172053333Y-91175714D01*
X172005714Y-91270952D01*
X171958095Y-91318571D01*
X171862857Y-91366190D01*
X171481904Y-91366190D01*
X172958095Y-91842380D02*
X172481904Y-91842380D01*
X172481904Y-90842380D01*
X173862857Y-91747142D02*
X173815238Y-91794761D01*
X173672380Y-91842380D01*
X173577142Y-91842380D01*
X173434285Y-91794761D01*
X173339047Y-91699523D01*
X173291428Y-91604285D01*
X173243809Y-91413809D01*
X173243809Y-91270952D01*
X173291428Y-91080476D01*
X173339047Y-90985238D01*
X173434285Y-90890000D01*
X173577142Y-90842380D01*
X173672380Y-90842380D01*
X173815238Y-90890000D01*
X173862857Y-90937619D01*
X174862857Y-91747142D02*
X174815238Y-91794761D01*
X174672380Y-91842380D01*
X174577142Y-91842380D01*
X174434285Y-91794761D01*
X174339047Y-91699523D01*
X174291428Y-91604285D01*
X174243809Y-91413809D01*
X174243809Y-91270952D01*
X174291428Y-91080476D01*
X174339047Y-90985238D01*
X174434285Y-90890000D01*
X174577142Y-90842380D01*
X174672380Y-90842380D01*
X174815238Y-90890000D01*
X174862857Y-90937619D01*
X175815238Y-91842380D02*
X175243809Y-91842380D01*
X175529523Y-91842380D02*
X175529523Y-90842380D01*
X175434285Y-90985238D01*
X175339047Y-91080476D01*
X175243809Y-91128095D01*
G04 #@! TD*
M02*
