M48
;DRILL file {KiCad (5.0.0-3-g5ebb6b6)} date Tuesday, 23 April 2019 at 02:19:12
;FORMAT={-:-/ absolute / metric / decimal}
FMAT,2
METRIC,TZ
T1C0.300
T2C0.400
T3C0.900
T4C1.000
T5C1.500
T6C2.100
T7C2.200
%
G90
G05
M71
T1
X78.537Y-120.447
X78.537Y-128.93
X78.537Y-128.93
X80.416Y-122.58
X80.416Y-130.988
X81.43Y-142.898
X85.09Y-144.145
X86.233Y-130.81
X86.233Y-133.985
X89.789Y-130.81
X89.789Y-133.985
X91.59Y-134.77
X92.583Y-138.112
X96.114Y-100.66
X97.155Y-117.475
X98.527Y-102.667
X99.06Y-121.285
X99.06Y-135.255
X99.949Y-103.581
X100.025Y-97.612
X100.965Y-99.708
X101.549Y-132.766
X102.26Y-105.308
X103.06Y-97.612
X104.29Y-108.735
X104.965Y-105.296
X105.969Y-105.308
X106.68Y-109.855
X106.68Y-111.125
X108.1Y-145.265
X109.093Y-145.288
X110.236Y-149.098
X110.354Y-137.024
X114.173Y-146.685
X115.443Y-144.399
X120.8Y-145.265
X121.77Y-141.755
X125.73Y-101.6
X101.044Y-101.663
X102.044Y-101.663
X103.044Y-101.663
T2
X84.455Y-141.605
X88.265Y-110.49
X91.44Y-110.49
X93.345Y-142.875
X114.935Y-110.49
X118.11Y-110.49
X118.745Y-141.605
X118.745Y-144.145
X120.65Y-108.585
X126.365Y-108.585
T3
X108.03Y-122.555
X110.53Y-117.555
X113.03Y-122.555
X90.25Y-122.555
X92.75Y-117.555
X95.25Y-122.555
T4
X114.38Y-95.25
X114.38Y-97.75
X116.88Y-95.25
X116.88Y-97.75
X119.38Y-95.25
X119.38Y-97.75
X125.73Y-125.73
X125.73Y-128.27
X100.609Y-90.373
X100.609Y-92.913
X103.149Y-90.373
X103.149Y-92.913
X100.609Y-86.792
X103.149Y-86.792
X129.54Y-87.63
X129.54Y-90.17
X129.54Y-92.71
X129.54Y-95.25
X129.54Y-97.79
X129.54Y-100.33
X129.54Y-102.87
X129.54Y-105.41
X129.54Y-107.95
X129.54Y-110.49
X129.54Y-113.03
X129.54Y-115.57
X129.54Y-118.11
X129.54Y-120.65
X129.54Y-123.19
X129.54Y-128.27
X129.54Y-130.81
X129.54Y-133.35
X129.54Y-135.89
X129.54Y-138.43
X129.54Y-140.97
X129.54Y-143.51
X129.54Y-146.05
X129.54Y-148.59
X129.54Y-151.13
X129.54Y-153.67
X129.54Y-156.21
X129.54Y-158.75
X129.54Y-161.29
X129.54Y-163.83
X129.54Y-166.37
X129.54Y-168.91
X129.54Y-171.45
X129.54Y-173.99
X132.08Y-87.63
X132.08Y-90.17
X132.08Y-92.71
X132.08Y-95.25
X132.08Y-97.79
X132.08Y-100.33
X132.08Y-102.87
X132.08Y-105.41
X132.08Y-107.95
X132.08Y-110.49
X132.08Y-113.03
X132.08Y-115.57
X132.08Y-118.11
X132.08Y-120.65
X132.08Y-123.19
X132.08Y-125.73
X132.08Y-128.27
X132.08Y-130.81
X132.08Y-133.35
X132.08Y-135.89
X132.08Y-138.43
X132.08Y-140.97
X132.08Y-143.51
X132.08Y-146.05
X132.08Y-148.59
X132.08Y-151.13
X132.08Y-153.67
X132.08Y-156.21
X132.08Y-158.75
X132.08Y-161.29
X132.08Y-163.83
X132.08Y-166.37
X132.08Y-168.91
X132.08Y-171.45
X132.08Y-173.99
X71.12Y-87.63
X71.12Y-90.17
X71.12Y-92.71
X71.12Y-95.25
X71.12Y-97.79
X71.12Y-100.33
X71.12Y-102.87
X71.12Y-105.41
X71.12Y-107.95
X71.12Y-110.49
X71.12Y-113.03
X71.12Y-115.57
X71.12Y-118.11
X71.12Y-120.65
X71.12Y-123.19
X71.12Y-125.73
X71.12Y-128.27
X71.12Y-130.81
X71.12Y-133.35
X71.12Y-135.89
X71.12Y-138.43
X71.12Y-140.97
X71.12Y-143.51
X71.12Y-146.05
X71.12Y-148.59
X71.12Y-151.13
X71.12Y-153.67
X71.12Y-156.21
X71.12Y-158.75
X71.12Y-161.29
X71.12Y-163.83
X71.12Y-166.37
X71.12Y-168.91
X71.12Y-171.45
X71.12Y-173.99
X73.66Y-87.63
X73.66Y-90.17
X73.66Y-92.71
X73.66Y-95.25
X73.66Y-97.79
X73.66Y-100.33
X73.66Y-102.87
X73.66Y-105.41
X73.66Y-107.95
X73.66Y-110.49
X73.66Y-113.03
X73.66Y-115.57
X73.66Y-118.11
X73.66Y-120.65
X73.66Y-123.19
X73.66Y-125.73
X73.66Y-128.27
X73.66Y-130.81
X73.66Y-133.35
X73.66Y-135.89
X73.66Y-138.43
X73.66Y-140.97
X73.66Y-143.51
X73.66Y-146.05
X73.66Y-148.59
X73.66Y-151.13
X73.66Y-153.67
X73.66Y-156.21
X73.66Y-158.75
X73.66Y-161.29
X73.66Y-163.83
X73.66Y-166.37
X73.66Y-168.91
X73.66Y-171.45
X73.66Y-173.99
X83.9Y-95.25
X83.9Y-97.75
X86.4Y-95.25
X86.4Y-97.75
X88.9Y-95.25
X88.9Y-97.75
T5
X105.69Y-162.56
X105.69Y-168.91
X105.69Y-175.26
X121.92Y-162.56
X121.92Y-168.91
X121.92Y-175.26
X80.29Y-162.56
X80.29Y-168.91
X80.29Y-175.26
X96.52Y-162.56
X96.52Y-168.91
X96.52Y-175.26
T6
X81.65Y-101.05
X91.15Y-101.05
X112.13Y-101.05
X121.63Y-101.05
T7
X81.661Y-87.884
X91.186Y-87.884
X112.13Y-87.884
X121.666Y-87.884
T0
M30
