G04 #@! TF.GenerationSoftware,KiCad,Pcbnew,(5.0.0-3-g5ebb6b6)*
G04 #@! TF.CreationDate,2019-04-23T02:19:09+01:00*
G04 #@! TF.ProjectId,Nucleo144AudioBreakout,4E75636C656F313434417564696F4272,RevA*
G04 #@! TF.SameCoordinates,Original*
G04 #@! TF.FileFunction,Copper,L1,Top,Signal*
G04 #@! TF.FilePolarity,Positive*
%FSLAX46Y46*%
G04 Gerber Fmt 4.6, Leading zero omitted, Abs format (unit mm)*
G04 Created by KiCad (PCBNEW (5.0.0-3-g5ebb6b6)) date Tuesday, 23 April 2019 at 02:19:09*
%MOMM*%
%LPD*%
G01*
G04 APERTURE LIST*
G04 #@! TA.AperFunction,ComponentPad*
%ADD10C,3.800000*%
G04 #@! TD*
G04 #@! TA.AperFunction,SMDPad,CuDef*
%ADD11R,1.550000X0.600000*%
G04 #@! TD*
G04 #@! TA.AperFunction,Conductor*
%ADD12C,0.100000*%
G04 #@! TD*
G04 #@! TA.AperFunction,SMDPad,CuDef*
%ADD13C,1.150000*%
G04 #@! TD*
G04 #@! TA.AperFunction,ComponentPad*
%ADD14C,3.000000*%
G04 #@! TD*
G04 #@! TA.AperFunction,ComponentPad*
%ADD15R,3.000000X3.000000*%
G04 #@! TD*
G04 #@! TA.AperFunction,ComponentPad*
%ADD16O,1.700000X1.700000*%
G04 #@! TD*
G04 #@! TA.AperFunction,ComponentPad*
%ADD17R,1.700000X1.700000*%
G04 #@! TD*
G04 #@! TA.AperFunction,ComponentPad*
%ADD18C,1.620000*%
G04 #@! TD*
G04 #@! TA.AperFunction,SMDPad,CuDef*
%ADD19R,1.500000X0.600000*%
G04 #@! TD*
G04 #@! TA.AperFunction,SMDPad,CuDef*
%ADD20C,0.590000*%
G04 #@! TD*
G04 #@! TA.AperFunction,ComponentPad*
%ADD21C,4.200000*%
G04 #@! TD*
G04 #@! TA.AperFunction,ComponentPad*
%ADD22C,1.800000*%
G04 #@! TD*
G04 #@! TA.AperFunction,SMDPad,CuDef*
%ADD23R,0.250000X0.500000*%
G04 #@! TD*
G04 #@! TA.AperFunction,ViaPad*
%ADD24C,0.600000*%
G04 #@! TD*
G04 #@! TA.AperFunction,SMDPad,CuDef*
%ADD25R,2.650000X1.000000*%
G04 #@! TD*
G04 #@! TA.AperFunction,ViaPad*
%ADD26C,0.800000*%
G04 #@! TD*
G04 #@! TA.AperFunction,Conductor*
%ADD27C,0.750000*%
G04 #@! TD*
G04 #@! TA.AperFunction,Conductor*
%ADD28C,1.000000*%
G04 #@! TD*
G04 #@! TA.AperFunction,Conductor*
%ADD29C,0.250000*%
G04 #@! TD*
G04 #@! TA.AperFunction,Conductor*
%ADD30C,0.500000*%
G04 #@! TD*
G04 APERTURE END LIST*
D10*
G04 #@! TO.P,REF\002A\002A,1*
G04 #@! TO.N,N/C*
X121666000Y-87884000D03*
G04 #@! TD*
G04 #@! TO.P,REF\002A\002A,1*
G04 #@! TO.N,N/C*
X112130000Y-87884000D03*
G04 #@! TD*
G04 #@! TO.P,REF\002A\002A,1*
G04 #@! TO.N,N/C*
X91186000Y-87884000D03*
G04 #@! TD*
G04 #@! TO.P,REF\002A\002A,1*
G04 #@! TO.N,N/C*
X81661000Y-87884000D03*
G04 #@! TD*
D11*
G04 #@! TO.P,U1,8*
G04 #@! TO.N,+5V*
X104427000Y-113030000D03*
G04 #@! TO.P,U1,7*
G04 #@! TO.N,/FLAT_LINE_ADJUST_IN*
X104427000Y-114300000D03*
G04 #@! TO.P,U1,6*
G04 #@! TO.N,Net-(R16-Pad2)*
X104427000Y-115570000D03*
G04 #@! TO.P,U1,5*
G04 #@! TO.N,Net-(RV4-Pad2)*
X104427000Y-116840000D03*
G04 #@! TO.P,U1,4*
G04 #@! TO.N,-5V*
X99027000Y-116840000D03*
G04 #@! TO.P,U1,3*
G04 #@! TO.N,Net-(RV3-Pad2)*
X99027000Y-115570000D03*
G04 #@! TO.P,U1,2*
G04 #@! TO.N,Net-(R15-Pad2)*
X99027000Y-114300000D03*
G04 #@! TO.P,U1,1*
G04 #@! TO.N,/FLAT_LINE_ADJUST_OUT*
X99027000Y-113030000D03*
G04 #@! TD*
D12*
G04 #@! TO.N,/PA1_ADC1_IN2*
G04 #@! TO.C,R4*
G36*
X94962505Y-143816204D02*
X94986773Y-143819804D01*
X95010572Y-143825765D01*
X95033671Y-143834030D01*
X95055850Y-143844520D01*
X95076893Y-143857132D01*
X95096599Y-143871747D01*
X95114777Y-143888223D01*
X95131253Y-143906401D01*
X95145868Y-143926107D01*
X95158480Y-143947150D01*
X95168970Y-143969329D01*
X95177235Y-143992428D01*
X95183196Y-144016227D01*
X95186796Y-144040495D01*
X95188000Y-144064999D01*
X95188000Y-144715001D01*
X95186796Y-144739505D01*
X95183196Y-144763773D01*
X95177235Y-144787572D01*
X95168970Y-144810671D01*
X95158480Y-144832850D01*
X95145868Y-144853893D01*
X95131253Y-144873599D01*
X95114777Y-144891777D01*
X95096599Y-144908253D01*
X95076893Y-144922868D01*
X95055850Y-144935480D01*
X95033671Y-144945970D01*
X95010572Y-144954235D01*
X94986773Y-144960196D01*
X94962505Y-144963796D01*
X94938001Y-144965000D01*
X94037999Y-144965000D01*
X94013495Y-144963796D01*
X93989227Y-144960196D01*
X93965428Y-144954235D01*
X93942329Y-144945970D01*
X93920150Y-144935480D01*
X93899107Y-144922868D01*
X93879401Y-144908253D01*
X93861223Y-144891777D01*
X93844747Y-144873599D01*
X93830132Y-144853893D01*
X93817520Y-144832850D01*
X93807030Y-144810671D01*
X93798765Y-144787572D01*
X93792804Y-144763773D01*
X93789204Y-144739505D01*
X93788000Y-144715001D01*
X93788000Y-144064999D01*
X93789204Y-144040495D01*
X93792804Y-144016227D01*
X93798765Y-143992428D01*
X93807030Y-143969329D01*
X93817520Y-143947150D01*
X93830132Y-143926107D01*
X93844747Y-143906401D01*
X93861223Y-143888223D01*
X93879401Y-143871747D01*
X93899107Y-143857132D01*
X93920150Y-143844520D01*
X93942329Y-143834030D01*
X93965428Y-143825765D01*
X93989227Y-143819804D01*
X94013495Y-143816204D01*
X94037999Y-143815000D01*
X94938001Y-143815000D01*
X94962505Y-143816204D01*
X94962505Y-143816204D01*
G37*
D13*
G04 #@! TD*
G04 #@! TO.P,R4,1*
G04 #@! TO.N,/PA1_ADC1_IN2*
X94488000Y-144390000D03*
D12*
G04 #@! TO.N,Net-(R2-Pad1)*
G04 #@! TO.C,R4*
G36*
X94962505Y-145866204D02*
X94986773Y-145869804D01*
X95010572Y-145875765D01*
X95033671Y-145884030D01*
X95055850Y-145894520D01*
X95076893Y-145907132D01*
X95096599Y-145921747D01*
X95114777Y-145938223D01*
X95131253Y-145956401D01*
X95145868Y-145976107D01*
X95158480Y-145997150D01*
X95168970Y-146019329D01*
X95177235Y-146042428D01*
X95183196Y-146066227D01*
X95186796Y-146090495D01*
X95188000Y-146114999D01*
X95188000Y-146765001D01*
X95186796Y-146789505D01*
X95183196Y-146813773D01*
X95177235Y-146837572D01*
X95168970Y-146860671D01*
X95158480Y-146882850D01*
X95145868Y-146903893D01*
X95131253Y-146923599D01*
X95114777Y-146941777D01*
X95096599Y-146958253D01*
X95076893Y-146972868D01*
X95055850Y-146985480D01*
X95033671Y-146995970D01*
X95010572Y-147004235D01*
X94986773Y-147010196D01*
X94962505Y-147013796D01*
X94938001Y-147015000D01*
X94037999Y-147015000D01*
X94013495Y-147013796D01*
X93989227Y-147010196D01*
X93965428Y-147004235D01*
X93942329Y-146995970D01*
X93920150Y-146985480D01*
X93899107Y-146972868D01*
X93879401Y-146958253D01*
X93861223Y-146941777D01*
X93844747Y-146923599D01*
X93830132Y-146903893D01*
X93817520Y-146882850D01*
X93807030Y-146860671D01*
X93798765Y-146837572D01*
X93792804Y-146813773D01*
X93789204Y-146789505D01*
X93788000Y-146765001D01*
X93788000Y-146114999D01*
X93789204Y-146090495D01*
X93792804Y-146066227D01*
X93798765Y-146042428D01*
X93807030Y-146019329D01*
X93817520Y-145997150D01*
X93830132Y-145976107D01*
X93844747Y-145956401D01*
X93861223Y-145938223D01*
X93879401Y-145921747D01*
X93899107Y-145907132D01*
X93920150Y-145894520D01*
X93942329Y-145884030D01*
X93965428Y-145875765D01*
X93989227Y-145869804D01*
X94013495Y-145866204D01*
X94037999Y-145865000D01*
X94938001Y-145865000D01*
X94962505Y-145866204D01*
X94962505Y-145866204D01*
G37*
D13*
G04 #@! TD*
G04 #@! TO.P,R4,2*
G04 #@! TO.N,Net-(R2-Pad1)*
X94488000Y-146440000D03*
D11*
G04 #@! TO.P,U2,8*
G04 #@! TO.N,+5V*
X91600000Y-139065000D03*
G04 #@! TO.P,U2,7*
G04 #@! TO.N,/PA1_ADC1_IN2*
X91600000Y-140335000D03*
G04 #@! TO.P,U2,6*
G04 #@! TO.N,Net-(R2-Pad1)*
X91600000Y-141605000D03*
G04 #@! TO.P,U2,5*
G04 #@! TO.N,GNDS*
X91600000Y-142875000D03*
G04 #@! TO.P,U2,4*
G04 #@! TO.N,-5V*
X86200000Y-142875000D03*
G04 #@! TO.P,U2,3*
G04 #@! TO.N,GNDS*
X86200000Y-141605000D03*
G04 #@! TO.P,U2,2*
G04 #@! TO.N,Net-(R1-Pad1)*
X86200000Y-140335000D03*
G04 #@! TO.P,U2,1*
G04 #@! TO.N,/PA0_ADC1_IN1*
X86200000Y-139065000D03*
G04 #@! TD*
D14*
G04 #@! TO.P,JIN1,6*
G04 #@! TO.N,GNDS*
X80290000Y-168910000D03*
G04 #@! TO.P,JIN1,5*
X80290000Y-162560000D03*
G04 #@! TO.P,JIN1,4*
X80290000Y-175260000D03*
G04 #@! TO.P,JIN1,3*
G04 #@! TO.N,Net-(JIN1-Pad3)*
X96520000Y-168910000D03*
G04 #@! TO.P,JIN1,2*
G04 #@! TO.N,Net-(JIN1-Pad2)*
X96520000Y-162560000D03*
D15*
G04 #@! TO.P,JIN1,1*
G04 #@! TO.N,GNDS*
X96520000Y-175260000D03*
G04 #@! TD*
D12*
G04 #@! TO.N,Net-(R10-Pad2)*
G04 #@! TO.C,R10*
G36*
X122659505Y-135826204D02*
X122683773Y-135829804D01*
X122707572Y-135835765D01*
X122730671Y-135844030D01*
X122752850Y-135854520D01*
X122773893Y-135867132D01*
X122793599Y-135881747D01*
X122811777Y-135898223D01*
X122828253Y-135916401D01*
X122842868Y-135936107D01*
X122855480Y-135957150D01*
X122865970Y-135979329D01*
X122874235Y-136002428D01*
X122880196Y-136026227D01*
X122883796Y-136050495D01*
X122885000Y-136074999D01*
X122885000Y-136975001D01*
X122883796Y-136999505D01*
X122880196Y-137023773D01*
X122874235Y-137047572D01*
X122865970Y-137070671D01*
X122855480Y-137092850D01*
X122842868Y-137113893D01*
X122828253Y-137133599D01*
X122811777Y-137151777D01*
X122793599Y-137168253D01*
X122773893Y-137182868D01*
X122752850Y-137195480D01*
X122730671Y-137205970D01*
X122707572Y-137214235D01*
X122683773Y-137220196D01*
X122659505Y-137223796D01*
X122635001Y-137225000D01*
X121984999Y-137225000D01*
X121960495Y-137223796D01*
X121936227Y-137220196D01*
X121912428Y-137214235D01*
X121889329Y-137205970D01*
X121867150Y-137195480D01*
X121846107Y-137182868D01*
X121826401Y-137168253D01*
X121808223Y-137151777D01*
X121791747Y-137133599D01*
X121777132Y-137113893D01*
X121764520Y-137092850D01*
X121754030Y-137070671D01*
X121745765Y-137047572D01*
X121739804Y-137023773D01*
X121736204Y-136999505D01*
X121735000Y-136975001D01*
X121735000Y-136074999D01*
X121736204Y-136050495D01*
X121739804Y-136026227D01*
X121745765Y-136002428D01*
X121754030Y-135979329D01*
X121764520Y-135957150D01*
X121777132Y-135936107D01*
X121791747Y-135916401D01*
X121808223Y-135898223D01*
X121826401Y-135881747D01*
X121846107Y-135867132D01*
X121867150Y-135854520D01*
X121889329Y-135844030D01*
X121912428Y-135835765D01*
X121936227Y-135829804D01*
X121960495Y-135826204D01*
X121984999Y-135825000D01*
X122635001Y-135825000D01*
X122659505Y-135826204D01*
X122659505Y-135826204D01*
G37*
D13*
G04 #@! TD*
G04 #@! TO.P,R10,2*
G04 #@! TO.N,Net-(R10-Pad2)*
X122310000Y-136525000D03*
D12*
G04 #@! TO.N,Net-(JOUT1-Pad3)*
G04 #@! TO.C,R10*
G36*
X120609505Y-135826204D02*
X120633773Y-135829804D01*
X120657572Y-135835765D01*
X120680671Y-135844030D01*
X120702850Y-135854520D01*
X120723893Y-135867132D01*
X120743599Y-135881747D01*
X120761777Y-135898223D01*
X120778253Y-135916401D01*
X120792868Y-135936107D01*
X120805480Y-135957150D01*
X120815970Y-135979329D01*
X120824235Y-136002428D01*
X120830196Y-136026227D01*
X120833796Y-136050495D01*
X120835000Y-136074999D01*
X120835000Y-136975001D01*
X120833796Y-136999505D01*
X120830196Y-137023773D01*
X120824235Y-137047572D01*
X120815970Y-137070671D01*
X120805480Y-137092850D01*
X120792868Y-137113893D01*
X120778253Y-137133599D01*
X120761777Y-137151777D01*
X120743599Y-137168253D01*
X120723893Y-137182868D01*
X120702850Y-137195480D01*
X120680671Y-137205970D01*
X120657572Y-137214235D01*
X120633773Y-137220196D01*
X120609505Y-137223796D01*
X120585001Y-137225000D01*
X119934999Y-137225000D01*
X119910495Y-137223796D01*
X119886227Y-137220196D01*
X119862428Y-137214235D01*
X119839329Y-137205970D01*
X119817150Y-137195480D01*
X119796107Y-137182868D01*
X119776401Y-137168253D01*
X119758223Y-137151777D01*
X119741747Y-137133599D01*
X119727132Y-137113893D01*
X119714520Y-137092850D01*
X119704030Y-137070671D01*
X119695765Y-137047572D01*
X119689804Y-137023773D01*
X119686204Y-136999505D01*
X119685000Y-136975001D01*
X119685000Y-136074999D01*
X119686204Y-136050495D01*
X119689804Y-136026227D01*
X119695765Y-136002428D01*
X119704030Y-135979329D01*
X119714520Y-135957150D01*
X119727132Y-135936107D01*
X119741747Y-135916401D01*
X119758223Y-135898223D01*
X119776401Y-135881747D01*
X119796107Y-135867132D01*
X119817150Y-135854520D01*
X119839329Y-135844030D01*
X119862428Y-135835765D01*
X119886227Y-135829804D01*
X119910495Y-135826204D01*
X119934999Y-135825000D01*
X120585001Y-135825000D01*
X120609505Y-135826204D01*
X120609505Y-135826204D01*
G37*
D13*
G04 #@! TD*
G04 #@! TO.P,R10,1*
G04 #@! TO.N,Net-(JOUT1-Pad3)*
X120260000Y-136525000D03*
D16*
G04 #@! TO.P,CN11,70*
G04 #@! TO.N,N/C*
X73660000Y-173990000D03*
G04 #@! TO.P,CN11,69*
X71120000Y-173990000D03*
G04 #@! TO.P,CN11,68*
X73660000Y-171450000D03*
G04 #@! TO.P,CN11,67*
X71120000Y-171450000D03*
G04 #@! TO.P,CN11,66*
X73660000Y-168910000D03*
G04 #@! TO.P,CN11,65*
X71120000Y-168910000D03*
G04 #@! TO.P,CN11,64*
X73660000Y-166370000D03*
G04 #@! TO.P,CN11,63*
X71120000Y-166370000D03*
G04 #@! TO.P,CN11,62*
X73660000Y-163830000D03*
G04 #@! TO.P,CN11,61*
X71120000Y-163830000D03*
G04 #@! TO.P,CN11,60*
G04 #@! TO.N,GNDS*
X73660000Y-161290000D03*
G04 #@! TO.P,CN11,59*
G04 #@! TO.N,N/C*
X71120000Y-161290000D03*
G04 #@! TO.P,CN11,58*
X73660000Y-158750000D03*
G04 #@! TO.P,CN11,57*
X71120000Y-158750000D03*
G04 #@! TO.P,CN11,56*
X73660000Y-156210000D03*
G04 #@! TO.P,CN11,55*
X71120000Y-156210000D03*
G04 #@! TO.P,CN11,54*
X73660000Y-153670000D03*
G04 #@! TO.P,CN11,53*
X71120000Y-153670000D03*
G04 #@! TO.P,CN11,52*
X73660000Y-151130000D03*
G04 #@! TO.P,CN11,51*
X71120000Y-151130000D03*
G04 #@! TO.P,CN11,50*
X73660000Y-148590000D03*
G04 #@! TO.P,CN11,49*
X71120000Y-148590000D03*
G04 #@! TO.P,CN11,48*
X73660000Y-146050000D03*
G04 #@! TO.P,CN11,47*
X71120000Y-146050000D03*
G04 #@! TO.P,CN11,46*
X73660000Y-143510000D03*
G04 #@! TO.P,CN11,45*
X71120000Y-143510000D03*
G04 #@! TO.P,CN11,44*
X73660000Y-140970000D03*
G04 #@! TO.P,CN11,43*
X71120000Y-140970000D03*
G04 #@! TO.P,CN11,42*
X73660000Y-138430000D03*
G04 #@! TO.P,CN11,41*
X71120000Y-138430000D03*
G04 #@! TO.P,CN11,40*
X73660000Y-135890000D03*
G04 #@! TO.P,CN11,39*
X71120000Y-135890000D03*
G04 #@! TO.P,CN11,38*
X73660000Y-133350000D03*
G04 #@! TO.P,CN11,37*
X71120000Y-133350000D03*
G04 #@! TO.P,CN11,36*
X73660000Y-130810000D03*
G04 #@! TO.P,CN11,35*
X71120000Y-130810000D03*
G04 #@! TO.P,CN11,34*
X73660000Y-128270000D03*
G04 #@! TO.P,CN11,33*
X71120000Y-128270000D03*
G04 #@! TO.P,CN11,32*
G04 #@! TO.N,/PA4_DAC_OUT1*
X73660000Y-125730000D03*
G04 #@! TO.P,CN11,31*
G04 #@! TO.N,N/C*
X71120000Y-125730000D03*
G04 #@! TO.P,CN11,30*
G04 #@! TO.N,/PA1_ADC1_IN2*
X73660000Y-123190000D03*
G04 #@! TO.P,CN11,29*
G04 #@! TO.N,N/C*
X71120000Y-123190000D03*
G04 #@! TO.P,CN11,28*
G04 #@! TO.N,/PA0_ADC1_IN1*
X73660000Y-120650000D03*
G04 #@! TO.P,CN11,27*
G04 #@! TO.N,N/C*
X71120000Y-120650000D03*
G04 #@! TO.P,CN11,26*
X73660000Y-118110000D03*
G04 #@! TO.P,CN11,25*
X71120000Y-118110000D03*
G04 #@! TO.P,CN11,24*
X73660000Y-115570000D03*
G04 #@! TO.P,CN11,23*
X71120000Y-115570000D03*
G04 #@! TO.P,CN11,22*
G04 #@! TO.N,GNDS*
X73660000Y-113030000D03*
G04 #@! TO.P,CN11,21*
G04 #@! TO.N,N/C*
X71120000Y-113030000D03*
G04 #@! TO.P,CN11,20*
G04 #@! TO.N,GNDS*
X73660000Y-110490000D03*
G04 #@! TO.P,CN11,19*
G04 #@! TO.N,N/C*
X71120000Y-110490000D03*
G04 #@! TO.P,CN11,18*
G04 #@! TO.N,VDD*
X73660000Y-107950000D03*
G04 #@! TO.P,CN11,17*
G04 #@! TO.N,N/C*
X71120000Y-107950000D03*
G04 #@! TO.P,CN11,16*
X73660000Y-105410000D03*
G04 #@! TO.P,CN11,15*
X71120000Y-105410000D03*
G04 #@! TO.P,CN11,14*
X73660000Y-102870000D03*
G04 #@! TO.P,CN11,13*
X71120000Y-102870000D03*
G04 #@! TO.P,CN11,12*
X73660000Y-100330000D03*
G04 #@! TO.P,CN11,11*
X71120000Y-100330000D03*
G04 #@! TO.P,CN11,10*
X73660000Y-97790000D03*
G04 #@! TO.P,CN11,9*
X71120000Y-97790000D03*
G04 #@! TO.P,CN11,8*
X73660000Y-95250000D03*
G04 #@! TO.P,CN11,7*
X71120000Y-95250000D03*
G04 #@! TO.P,CN11,6*
X73660000Y-92710000D03*
G04 #@! TO.P,CN11,5*
X71120000Y-92710000D03*
G04 #@! TO.P,CN11,4*
X73660000Y-90170000D03*
G04 #@! TO.P,CN11,3*
X71120000Y-90170000D03*
G04 #@! TO.P,CN11,2*
X73660000Y-87630000D03*
D17*
G04 #@! TO.P,CN11,1*
X71120000Y-87630000D03*
G04 #@! TD*
G04 #@! TO.P,CN12,1*
G04 #@! TO.N,N/C*
X129540000Y-87630000D03*
D16*
G04 #@! TO.P,CN12,2*
X132080000Y-87630000D03*
G04 #@! TO.P,CN12,3*
X129540000Y-90170000D03*
G04 #@! TO.P,CN12,4*
X132080000Y-90170000D03*
G04 #@! TO.P,CN12,5*
X129540000Y-92710000D03*
G04 #@! TO.P,CN12,6*
X132080000Y-92710000D03*
G04 #@! TO.P,CN12,7*
X129540000Y-95250000D03*
G04 #@! TO.P,CN12,8*
X132080000Y-95250000D03*
G04 #@! TO.P,CN12,9*
G04 #@! TO.N,GNDS*
X129540000Y-97790000D03*
G04 #@! TO.P,CN12,10*
G04 #@! TO.N,N/C*
X132080000Y-97790000D03*
G04 #@! TO.P,CN12,11*
G04 #@! TO.N,/PA5_DAC_OUT2*
X129540000Y-100330000D03*
G04 #@! TO.P,CN12,12*
G04 #@! TO.N,N/C*
X132080000Y-100330000D03*
G04 #@! TO.P,CN12,13*
X129540000Y-102870000D03*
G04 #@! TO.P,CN12,14*
X132080000Y-102870000D03*
G04 #@! TO.P,CN12,15*
X129540000Y-105410000D03*
G04 #@! TO.P,CN12,16*
X132080000Y-105410000D03*
G04 #@! TO.P,CN12,17*
X129540000Y-107950000D03*
G04 #@! TO.P,CN12,18*
X132080000Y-107950000D03*
G04 #@! TO.P,CN12,19*
X129540000Y-110490000D03*
G04 #@! TO.P,CN12,20*
X132080000Y-110490000D03*
G04 #@! TO.P,CN12,21*
X129540000Y-113030000D03*
G04 #@! TO.P,CN12,22*
X132080000Y-113030000D03*
G04 #@! TO.P,CN12,23*
X129540000Y-115570000D03*
G04 #@! TO.P,CN12,24*
X132080000Y-115570000D03*
G04 #@! TO.P,CN12,25*
X129540000Y-118110000D03*
G04 #@! TO.P,CN12,26*
X132080000Y-118110000D03*
G04 #@! TO.P,CN12,27*
X129540000Y-120650000D03*
G04 #@! TO.P,CN12,28*
X132080000Y-120650000D03*
G04 #@! TO.P,CN12,29*
X129540000Y-123190000D03*
G04 #@! TO.P,CN12,30*
X132080000Y-123190000D03*
G04 #@! TO.P,CN12,32*
G04 #@! TO.N,Net-(CN12-Pad32)*
X132080000Y-125730000D03*
G04 #@! TO.P,CN12,33*
G04 #@! TO.N,N/C*
X129540000Y-128270000D03*
G04 #@! TO.P,CN12,34*
X132080000Y-128270000D03*
G04 #@! TO.P,CN12,35*
X129540000Y-130810000D03*
G04 #@! TO.P,CN12,36*
X132080000Y-130810000D03*
G04 #@! TO.P,CN12,37*
X129540000Y-133350000D03*
G04 #@! TO.P,CN12,38*
X132080000Y-133350000D03*
G04 #@! TO.P,CN12,39*
G04 #@! TO.N,GNDS*
X129540000Y-135890000D03*
G04 #@! TO.P,CN12,40*
G04 #@! TO.N,N/C*
X132080000Y-135890000D03*
G04 #@! TO.P,CN12,41*
X129540000Y-138430000D03*
G04 #@! TO.P,CN12,42*
X132080000Y-138430000D03*
G04 #@! TO.P,CN12,43*
X129540000Y-140970000D03*
G04 #@! TO.P,CN12,44*
X132080000Y-140970000D03*
G04 #@! TO.P,CN12,45*
X129540000Y-143510000D03*
G04 #@! TO.P,CN12,46*
X132080000Y-143510000D03*
G04 #@! TO.P,CN12,47*
X129540000Y-146050000D03*
G04 #@! TO.P,CN12,48*
X132080000Y-146050000D03*
G04 #@! TO.P,CN12,49*
X129540000Y-148590000D03*
G04 #@! TO.P,CN12,50*
X132080000Y-148590000D03*
G04 #@! TO.P,CN12,51*
X129540000Y-151130000D03*
G04 #@! TO.P,CN12,52*
X132080000Y-151130000D03*
G04 #@! TO.P,CN12,53*
X129540000Y-153670000D03*
G04 #@! TO.P,CN12,54*
X132080000Y-153670000D03*
G04 #@! TO.P,CN12,55*
X129540000Y-156210000D03*
G04 #@! TO.P,CN12,56*
X132080000Y-156210000D03*
G04 #@! TO.P,CN12,57*
X129540000Y-158750000D03*
G04 #@! TO.P,CN12,58*
X132080000Y-158750000D03*
G04 #@! TO.P,CN12,59*
X129540000Y-161290000D03*
G04 #@! TO.P,CN12,60*
X132080000Y-161290000D03*
G04 #@! TO.P,CN12,61*
X129540000Y-163830000D03*
G04 #@! TO.P,CN12,62*
X132080000Y-163830000D03*
G04 #@! TO.P,CN12,63*
G04 #@! TO.N,GNDS*
X129540000Y-166370000D03*
G04 #@! TO.P,CN12,64*
G04 #@! TO.N,N/C*
X132080000Y-166370000D03*
G04 #@! TO.P,CN12,65*
X129540000Y-168910000D03*
G04 #@! TO.P,CN12,66*
X132080000Y-168910000D03*
G04 #@! TO.P,CN12,67*
X129540000Y-171450000D03*
G04 #@! TO.P,CN12,68*
X132080000Y-171450000D03*
G04 #@! TO.P,CN12,69*
X129540000Y-173990000D03*
G04 #@! TO.P,CN12,70*
X132080000Y-173990000D03*
G04 #@! TD*
D15*
G04 #@! TO.P,JOUT1,1*
G04 #@! TO.N,GNDS*
X121920000Y-175260000D03*
D14*
G04 #@! TO.P,JOUT1,2*
G04 #@! TO.N,Net-(JOUT1-Pad2)*
X121920000Y-162560000D03*
G04 #@! TO.P,JOUT1,3*
G04 #@! TO.N,Net-(JOUT1-Pad3)*
X121920000Y-168910000D03*
G04 #@! TO.P,JOUT1,4*
G04 #@! TO.N,GNDS*
X105690000Y-175260000D03*
G04 #@! TO.P,JOUT1,5*
X105690000Y-162560000D03*
G04 #@! TO.P,JOUT1,6*
X105690000Y-168910000D03*
G04 #@! TD*
D18*
G04 #@! TO.P,RV3,3*
G04 #@! TO.N,Net-(R12-Pad1)*
X90250000Y-122555000D03*
G04 #@! TO.P,RV3,2*
G04 #@! TO.N,Net-(RV3-Pad2)*
X92750000Y-117555000D03*
G04 #@! TO.P,RV3,1*
G04 #@! TO.N,Net-(R11-Pad2)*
X95250000Y-122555000D03*
G04 #@! TD*
G04 #@! TO.P,RV4,3*
G04 #@! TO.N,Net-(R14-Pad1)*
X108030000Y-122555000D03*
G04 #@! TO.P,RV4,2*
G04 #@! TO.N,Net-(RV4-Pad2)*
X110530000Y-117555000D03*
G04 #@! TO.P,RV4,1*
G04 #@! TO.N,Net-(R13-Pad2)*
X113030000Y-122555000D03*
G04 #@! TD*
D12*
G04 #@! TO.N,/FLAT_LINE_ADJUST_IN*
G04 #@! TO.C,R1*
G36*
X88739505Y-145866204D02*
X88763773Y-145869804D01*
X88787572Y-145875765D01*
X88810671Y-145884030D01*
X88832850Y-145894520D01*
X88853893Y-145907132D01*
X88873599Y-145921747D01*
X88891777Y-145938223D01*
X88908253Y-145956401D01*
X88922868Y-145976107D01*
X88935480Y-145997150D01*
X88945970Y-146019329D01*
X88954235Y-146042428D01*
X88960196Y-146066227D01*
X88963796Y-146090495D01*
X88965000Y-146114999D01*
X88965000Y-146765001D01*
X88963796Y-146789505D01*
X88960196Y-146813773D01*
X88954235Y-146837572D01*
X88945970Y-146860671D01*
X88935480Y-146882850D01*
X88922868Y-146903893D01*
X88908253Y-146923599D01*
X88891777Y-146941777D01*
X88873599Y-146958253D01*
X88853893Y-146972868D01*
X88832850Y-146985480D01*
X88810671Y-146995970D01*
X88787572Y-147004235D01*
X88763773Y-147010196D01*
X88739505Y-147013796D01*
X88715001Y-147015000D01*
X87814999Y-147015000D01*
X87790495Y-147013796D01*
X87766227Y-147010196D01*
X87742428Y-147004235D01*
X87719329Y-146995970D01*
X87697150Y-146985480D01*
X87676107Y-146972868D01*
X87656401Y-146958253D01*
X87638223Y-146941777D01*
X87621747Y-146923599D01*
X87607132Y-146903893D01*
X87594520Y-146882850D01*
X87584030Y-146860671D01*
X87575765Y-146837572D01*
X87569804Y-146813773D01*
X87566204Y-146789505D01*
X87565000Y-146765001D01*
X87565000Y-146114999D01*
X87566204Y-146090495D01*
X87569804Y-146066227D01*
X87575765Y-146042428D01*
X87584030Y-146019329D01*
X87594520Y-145997150D01*
X87607132Y-145976107D01*
X87621747Y-145956401D01*
X87638223Y-145938223D01*
X87656401Y-145921747D01*
X87676107Y-145907132D01*
X87697150Y-145894520D01*
X87719329Y-145884030D01*
X87742428Y-145875765D01*
X87766227Y-145869804D01*
X87790495Y-145866204D01*
X87814999Y-145865000D01*
X88715001Y-145865000D01*
X88739505Y-145866204D01*
X88739505Y-145866204D01*
G37*
D13*
G04 #@! TD*
G04 #@! TO.P,R1,2*
G04 #@! TO.N,/FLAT_LINE_ADJUST_IN*
X88265000Y-146440000D03*
D12*
G04 #@! TO.N,Net-(R1-Pad1)*
G04 #@! TO.C,R1*
G36*
X88739505Y-143816204D02*
X88763773Y-143819804D01*
X88787572Y-143825765D01*
X88810671Y-143834030D01*
X88832850Y-143844520D01*
X88853893Y-143857132D01*
X88873599Y-143871747D01*
X88891777Y-143888223D01*
X88908253Y-143906401D01*
X88922868Y-143926107D01*
X88935480Y-143947150D01*
X88945970Y-143969329D01*
X88954235Y-143992428D01*
X88960196Y-144016227D01*
X88963796Y-144040495D01*
X88965000Y-144064999D01*
X88965000Y-144715001D01*
X88963796Y-144739505D01*
X88960196Y-144763773D01*
X88954235Y-144787572D01*
X88945970Y-144810671D01*
X88935480Y-144832850D01*
X88922868Y-144853893D01*
X88908253Y-144873599D01*
X88891777Y-144891777D01*
X88873599Y-144908253D01*
X88853893Y-144922868D01*
X88832850Y-144935480D01*
X88810671Y-144945970D01*
X88787572Y-144954235D01*
X88763773Y-144960196D01*
X88739505Y-144963796D01*
X88715001Y-144965000D01*
X87814999Y-144965000D01*
X87790495Y-144963796D01*
X87766227Y-144960196D01*
X87742428Y-144954235D01*
X87719329Y-144945970D01*
X87697150Y-144935480D01*
X87676107Y-144922868D01*
X87656401Y-144908253D01*
X87638223Y-144891777D01*
X87621747Y-144873599D01*
X87607132Y-144853893D01*
X87594520Y-144832850D01*
X87584030Y-144810671D01*
X87575765Y-144787572D01*
X87569804Y-144763773D01*
X87566204Y-144739505D01*
X87565000Y-144715001D01*
X87565000Y-144064999D01*
X87566204Y-144040495D01*
X87569804Y-144016227D01*
X87575765Y-143992428D01*
X87584030Y-143969329D01*
X87594520Y-143947150D01*
X87607132Y-143926107D01*
X87621747Y-143906401D01*
X87638223Y-143888223D01*
X87656401Y-143871747D01*
X87676107Y-143857132D01*
X87697150Y-143844520D01*
X87719329Y-143834030D01*
X87742428Y-143825765D01*
X87766227Y-143819804D01*
X87790495Y-143816204D01*
X87814999Y-143815000D01*
X88715001Y-143815000D01*
X88739505Y-143816204D01*
X88739505Y-143816204D01*
G37*
D13*
G04 #@! TD*
G04 #@! TO.P,R1,1*
G04 #@! TO.N,Net-(R1-Pad1)*
X88265000Y-144390000D03*
D12*
G04 #@! TO.N,Net-(R2-Pad1)*
G04 #@! TO.C,R2*
G36*
X91914505Y-143816204D02*
X91938773Y-143819804D01*
X91962572Y-143825765D01*
X91985671Y-143834030D01*
X92007850Y-143844520D01*
X92028893Y-143857132D01*
X92048599Y-143871747D01*
X92066777Y-143888223D01*
X92083253Y-143906401D01*
X92097868Y-143926107D01*
X92110480Y-143947150D01*
X92120970Y-143969329D01*
X92129235Y-143992428D01*
X92135196Y-144016227D01*
X92138796Y-144040495D01*
X92140000Y-144064999D01*
X92140000Y-144715001D01*
X92138796Y-144739505D01*
X92135196Y-144763773D01*
X92129235Y-144787572D01*
X92120970Y-144810671D01*
X92110480Y-144832850D01*
X92097868Y-144853893D01*
X92083253Y-144873599D01*
X92066777Y-144891777D01*
X92048599Y-144908253D01*
X92028893Y-144922868D01*
X92007850Y-144935480D01*
X91985671Y-144945970D01*
X91962572Y-144954235D01*
X91938773Y-144960196D01*
X91914505Y-144963796D01*
X91890001Y-144965000D01*
X90989999Y-144965000D01*
X90965495Y-144963796D01*
X90941227Y-144960196D01*
X90917428Y-144954235D01*
X90894329Y-144945970D01*
X90872150Y-144935480D01*
X90851107Y-144922868D01*
X90831401Y-144908253D01*
X90813223Y-144891777D01*
X90796747Y-144873599D01*
X90782132Y-144853893D01*
X90769520Y-144832850D01*
X90759030Y-144810671D01*
X90750765Y-144787572D01*
X90744804Y-144763773D01*
X90741204Y-144739505D01*
X90740000Y-144715001D01*
X90740000Y-144064999D01*
X90741204Y-144040495D01*
X90744804Y-144016227D01*
X90750765Y-143992428D01*
X90759030Y-143969329D01*
X90769520Y-143947150D01*
X90782132Y-143926107D01*
X90796747Y-143906401D01*
X90813223Y-143888223D01*
X90831401Y-143871747D01*
X90851107Y-143857132D01*
X90872150Y-143844520D01*
X90894329Y-143834030D01*
X90917428Y-143825765D01*
X90941227Y-143819804D01*
X90965495Y-143816204D01*
X90989999Y-143815000D01*
X91890001Y-143815000D01*
X91914505Y-143816204D01*
X91914505Y-143816204D01*
G37*
D13*
G04 #@! TD*
G04 #@! TO.P,R2,1*
G04 #@! TO.N,Net-(R2-Pad1)*
X91440000Y-144390000D03*
D12*
G04 #@! TO.N,/FLAT_LINE_ADJUST_IN*
G04 #@! TO.C,R2*
G36*
X91914505Y-145866204D02*
X91938773Y-145869804D01*
X91962572Y-145875765D01*
X91985671Y-145884030D01*
X92007850Y-145894520D01*
X92028893Y-145907132D01*
X92048599Y-145921747D01*
X92066777Y-145938223D01*
X92083253Y-145956401D01*
X92097868Y-145976107D01*
X92110480Y-145997150D01*
X92120970Y-146019329D01*
X92129235Y-146042428D01*
X92135196Y-146066227D01*
X92138796Y-146090495D01*
X92140000Y-146114999D01*
X92140000Y-146765001D01*
X92138796Y-146789505D01*
X92135196Y-146813773D01*
X92129235Y-146837572D01*
X92120970Y-146860671D01*
X92110480Y-146882850D01*
X92097868Y-146903893D01*
X92083253Y-146923599D01*
X92066777Y-146941777D01*
X92048599Y-146958253D01*
X92028893Y-146972868D01*
X92007850Y-146985480D01*
X91985671Y-146995970D01*
X91962572Y-147004235D01*
X91938773Y-147010196D01*
X91914505Y-147013796D01*
X91890001Y-147015000D01*
X90989999Y-147015000D01*
X90965495Y-147013796D01*
X90941227Y-147010196D01*
X90917428Y-147004235D01*
X90894329Y-146995970D01*
X90872150Y-146985480D01*
X90851107Y-146972868D01*
X90831401Y-146958253D01*
X90813223Y-146941777D01*
X90796747Y-146923599D01*
X90782132Y-146903893D01*
X90769520Y-146882850D01*
X90759030Y-146860671D01*
X90750765Y-146837572D01*
X90744804Y-146813773D01*
X90741204Y-146789505D01*
X90740000Y-146765001D01*
X90740000Y-146114999D01*
X90741204Y-146090495D01*
X90744804Y-146066227D01*
X90750765Y-146042428D01*
X90759030Y-146019329D01*
X90769520Y-145997150D01*
X90782132Y-145976107D01*
X90796747Y-145956401D01*
X90813223Y-145938223D01*
X90831401Y-145921747D01*
X90851107Y-145907132D01*
X90872150Y-145894520D01*
X90894329Y-145884030D01*
X90917428Y-145875765D01*
X90941227Y-145869804D01*
X90965495Y-145866204D01*
X90989999Y-145865000D01*
X91890001Y-145865000D01*
X91914505Y-145866204D01*
X91914505Y-145866204D01*
G37*
D13*
G04 #@! TD*
G04 #@! TO.P,R2,2*
G04 #@! TO.N,/FLAT_LINE_ADJUST_IN*
X91440000Y-146440000D03*
D12*
G04 #@! TO.N,/PA0_ADC1_IN1*
G04 #@! TO.C,R3*
G36*
X81119505Y-138491204D02*
X81143773Y-138494804D01*
X81167572Y-138500765D01*
X81190671Y-138509030D01*
X81212850Y-138519520D01*
X81233893Y-138532132D01*
X81253599Y-138546747D01*
X81271777Y-138563223D01*
X81288253Y-138581401D01*
X81302868Y-138601107D01*
X81315480Y-138622150D01*
X81325970Y-138644329D01*
X81334235Y-138667428D01*
X81340196Y-138691227D01*
X81343796Y-138715495D01*
X81345000Y-138739999D01*
X81345000Y-139390001D01*
X81343796Y-139414505D01*
X81340196Y-139438773D01*
X81334235Y-139462572D01*
X81325970Y-139485671D01*
X81315480Y-139507850D01*
X81302868Y-139528893D01*
X81288253Y-139548599D01*
X81271777Y-139566777D01*
X81253599Y-139583253D01*
X81233893Y-139597868D01*
X81212850Y-139610480D01*
X81190671Y-139620970D01*
X81167572Y-139629235D01*
X81143773Y-139635196D01*
X81119505Y-139638796D01*
X81095001Y-139640000D01*
X80194999Y-139640000D01*
X80170495Y-139638796D01*
X80146227Y-139635196D01*
X80122428Y-139629235D01*
X80099329Y-139620970D01*
X80077150Y-139610480D01*
X80056107Y-139597868D01*
X80036401Y-139583253D01*
X80018223Y-139566777D01*
X80001747Y-139548599D01*
X79987132Y-139528893D01*
X79974520Y-139507850D01*
X79964030Y-139485671D01*
X79955765Y-139462572D01*
X79949804Y-139438773D01*
X79946204Y-139414505D01*
X79945000Y-139390001D01*
X79945000Y-138739999D01*
X79946204Y-138715495D01*
X79949804Y-138691227D01*
X79955765Y-138667428D01*
X79964030Y-138644329D01*
X79974520Y-138622150D01*
X79987132Y-138601107D01*
X80001747Y-138581401D01*
X80018223Y-138563223D01*
X80036401Y-138546747D01*
X80056107Y-138532132D01*
X80077150Y-138519520D01*
X80099329Y-138509030D01*
X80122428Y-138500765D01*
X80146227Y-138494804D01*
X80170495Y-138491204D01*
X80194999Y-138490000D01*
X81095001Y-138490000D01*
X81119505Y-138491204D01*
X81119505Y-138491204D01*
G37*
D13*
G04 #@! TD*
G04 #@! TO.P,R3,1*
G04 #@! TO.N,/PA0_ADC1_IN1*
X80645000Y-139065000D03*
D12*
G04 #@! TO.N,Net-(R1-Pad1)*
G04 #@! TO.C,R3*
G36*
X81119505Y-140541204D02*
X81143773Y-140544804D01*
X81167572Y-140550765D01*
X81190671Y-140559030D01*
X81212850Y-140569520D01*
X81233893Y-140582132D01*
X81253599Y-140596747D01*
X81271777Y-140613223D01*
X81288253Y-140631401D01*
X81302868Y-140651107D01*
X81315480Y-140672150D01*
X81325970Y-140694329D01*
X81334235Y-140717428D01*
X81340196Y-140741227D01*
X81343796Y-140765495D01*
X81345000Y-140789999D01*
X81345000Y-141440001D01*
X81343796Y-141464505D01*
X81340196Y-141488773D01*
X81334235Y-141512572D01*
X81325970Y-141535671D01*
X81315480Y-141557850D01*
X81302868Y-141578893D01*
X81288253Y-141598599D01*
X81271777Y-141616777D01*
X81253599Y-141633253D01*
X81233893Y-141647868D01*
X81212850Y-141660480D01*
X81190671Y-141670970D01*
X81167572Y-141679235D01*
X81143773Y-141685196D01*
X81119505Y-141688796D01*
X81095001Y-141690000D01*
X80194999Y-141690000D01*
X80170495Y-141688796D01*
X80146227Y-141685196D01*
X80122428Y-141679235D01*
X80099329Y-141670970D01*
X80077150Y-141660480D01*
X80056107Y-141647868D01*
X80036401Y-141633253D01*
X80018223Y-141616777D01*
X80001747Y-141598599D01*
X79987132Y-141578893D01*
X79974520Y-141557850D01*
X79964030Y-141535671D01*
X79955765Y-141512572D01*
X79949804Y-141488773D01*
X79946204Y-141464505D01*
X79945000Y-141440001D01*
X79945000Y-140789999D01*
X79946204Y-140765495D01*
X79949804Y-140741227D01*
X79955765Y-140717428D01*
X79964030Y-140694329D01*
X79974520Y-140672150D01*
X79987132Y-140651107D01*
X80001747Y-140631401D01*
X80018223Y-140613223D01*
X80036401Y-140596747D01*
X80056107Y-140582132D01*
X80077150Y-140569520D01*
X80099329Y-140559030D01*
X80122428Y-140550765D01*
X80146227Y-140544804D01*
X80170495Y-140541204D01*
X80194999Y-140540000D01*
X81095001Y-140540000D01*
X81119505Y-140541204D01*
X81119505Y-140541204D01*
G37*
D13*
G04 #@! TD*
G04 #@! TO.P,R3,2*
G04 #@! TO.N,Net-(R1-Pad1)*
X80645000Y-141115000D03*
D12*
G04 #@! TO.N,Net-(R17-Pad2)*
G04 #@! TO.C,R7*
G36*
X122775505Y-146356204D02*
X122799773Y-146359804D01*
X122823572Y-146365765D01*
X122846671Y-146374030D01*
X122868850Y-146384520D01*
X122889893Y-146397132D01*
X122909599Y-146411747D01*
X122927777Y-146428223D01*
X122944253Y-146446401D01*
X122958868Y-146466107D01*
X122971480Y-146487150D01*
X122981970Y-146509329D01*
X122990235Y-146532428D01*
X122996196Y-146556227D01*
X122999796Y-146580495D01*
X123001000Y-146604999D01*
X123001000Y-147255001D01*
X122999796Y-147279505D01*
X122996196Y-147303773D01*
X122990235Y-147327572D01*
X122981970Y-147350671D01*
X122971480Y-147372850D01*
X122958868Y-147393893D01*
X122944253Y-147413599D01*
X122927777Y-147431777D01*
X122909599Y-147448253D01*
X122889893Y-147462868D01*
X122868850Y-147475480D01*
X122846671Y-147485970D01*
X122823572Y-147494235D01*
X122799773Y-147500196D01*
X122775505Y-147503796D01*
X122751001Y-147505000D01*
X121850999Y-147505000D01*
X121826495Y-147503796D01*
X121802227Y-147500196D01*
X121778428Y-147494235D01*
X121755329Y-147485970D01*
X121733150Y-147475480D01*
X121712107Y-147462868D01*
X121692401Y-147448253D01*
X121674223Y-147431777D01*
X121657747Y-147413599D01*
X121643132Y-147393893D01*
X121630520Y-147372850D01*
X121620030Y-147350671D01*
X121611765Y-147327572D01*
X121605804Y-147303773D01*
X121602204Y-147279505D01*
X121601000Y-147255001D01*
X121601000Y-146604999D01*
X121602204Y-146580495D01*
X121605804Y-146556227D01*
X121611765Y-146532428D01*
X121620030Y-146509329D01*
X121630520Y-146487150D01*
X121643132Y-146466107D01*
X121657747Y-146446401D01*
X121674223Y-146428223D01*
X121692401Y-146411747D01*
X121712107Y-146397132D01*
X121733150Y-146384520D01*
X121755329Y-146374030D01*
X121778428Y-146365765D01*
X121802227Y-146359804D01*
X121826495Y-146356204D01*
X121850999Y-146355000D01*
X122751001Y-146355000D01*
X122775505Y-146356204D01*
X122775505Y-146356204D01*
G37*
D13*
G04 #@! TD*
G04 #@! TO.P,R7,1*
G04 #@! TO.N,Net-(R17-Pad2)*
X122301000Y-146930000D03*
D12*
G04 #@! TO.N,/FLAT_LINE_ADJUST_OUT*
G04 #@! TO.C,R7*
G36*
X122775505Y-148406204D02*
X122799773Y-148409804D01*
X122823572Y-148415765D01*
X122846671Y-148424030D01*
X122868850Y-148434520D01*
X122889893Y-148447132D01*
X122909599Y-148461747D01*
X122927777Y-148478223D01*
X122944253Y-148496401D01*
X122958868Y-148516107D01*
X122971480Y-148537150D01*
X122981970Y-148559329D01*
X122990235Y-148582428D01*
X122996196Y-148606227D01*
X122999796Y-148630495D01*
X123001000Y-148654999D01*
X123001000Y-149305001D01*
X122999796Y-149329505D01*
X122996196Y-149353773D01*
X122990235Y-149377572D01*
X122981970Y-149400671D01*
X122971480Y-149422850D01*
X122958868Y-149443893D01*
X122944253Y-149463599D01*
X122927777Y-149481777D01*
X122909599Y-149498253D01*
X122889893Y-149512868D01*
X122868850Y-149525480D01*
X122846671Y-149535970D01*
X122823572Y-149544235D01*
X122799773Y-149550196D01*
X122775505Y-149553796D01*
X122751001Y-149555000D01*
X121850999Y-149555000D01*
X121826495Y-149553796D01*
X121802227Y-149550196D01*
X121778428Y-149544235D01*
X121755329Y-149535970D01*
X121733150Y-149525480D01*
X121712107Y-149512868D01*
X121692401Y-149498253D01*
X121674223Y-149481777D01*
X121657747Y-149463599D01*
X121643132Y-149443893D01*
X121630520Y-149422850D01*
X121620030Y-149400671D01*
X121611765Y-149377572D01*
X121605804Y-149353773D01*
X121602204Y-149329505D01*
X121601000Y-149305001D01*
X121601000Y-148654999D01*
X121602204Y-148630495D01*
X121605804Y-148606227D01*
X121611765Y-148582428D01*
X121620030Y-148559329D01*
X121630520Y-148537150D01*
X121643132Y-148516107D01*
X121657747Y-148496401D01*
X121674223Y-148478223D01*
X121692401Y-148461747D01*
X121712107Y-148447132D01*
X121733150Y-148434520D01*
X121755329Y-148424030D01*
X121778428Y-148415765D01*
X121802227Y-148409804D01*
X121826495Y-148406204D01*
X121850999Y-148405000D01*
X122751001Y-148405000D01*
X122775505Y-148406204D01*
X122775505Y-148406204D01*
G37*
D13*
G04 #@! TD*
G04 #@! TO.P,R7,2*
G04 #@! TO.N,/FLAT_LINE_ADJUST_OUT*
X122301000Y-148980000D03*
D12*
G04 #@! TO.N,/FLAT_LINE_ADJUST_OUT*
G04 #@! TO.C,R8*
G36*
X122659505Y-132270204D02*
X122683773Y-132273804D01*
X122707572Y-132279765D01*
X122730671Y-132288030D01*
X122752850Y-132298520D01*
X122773893Y-132311132D01*
X122793599Y-132325747D01*
X122811777Y-132342223D01*
X122828253Y-132360401D01*
X122842868Y-132380107D01*
X122855480Y-132401150D01*
X122865970Y-132423329D01*
X122874235Y-132446428D01*
X122880196Y-132470227D01*
X122883796Y-132494495D01*
X122885000Y-132518999D01*
X122885000Y-133419001D01*
X122883796Y-133443505D01*
X122880196Y-133467773D01*
X122874235Y-133491572D01*
X122865970Y-133514671D01*
X122855480Y-133536850D01*
X122842868Y-133557893D01*
X122828253Y-133577599D01*
X122811777Y-133595777D01*
X122793599Y-133612253D01*
X122773893Y-133626868D01*
X122752850Y-133639480D01*
X122730671Y-133649970D01*
X122707572Y-133658235D01*
X122683773Y-133664196D01*
X122659505Y-133667796D01*
X122635001Y-133669000D01*
X121984999Y-133669000D01*
X121960495Y-133667796D01*
X121936227Y-133664196D01*
X121912428Y-133658235D01*
X121889329Y-133649970D01*
X121867150Y-133639480D01*
X121846107Y-133626868D01*
X121826401Y-133612253D01*
X121808223Y-133595777D01*
X121791747Y-133577599D01*
X121777132Y-133557893D01*
X121764520Y-133536850D01*
X121754030Y-133514671D01*
X121745765Y-133491572D01*
X121739804Y-133467773D01*
X121736204Y-133443505D01*
X121735000Y-133419001D01*
X121735000Y-132518999D01*
X121736204Y-132494495D01*
X121739804Y-132470227D01*
X121745765Y-132446428D01*
X121754030Y-132423329D01*
X121764520Y-132401150D01*
X121777132Y-132380107D01*
X121791747Y-132360401D01*
X121808223Y-132342223D01*
X121826401Y-132325747D01*
X121846107Y-132311132D01*
X121867150Y-132298520D01*
X121889329Y-132288030D01*
X121912428Y-132279765D01*
X121936227Y-132273804D01*
X121960495Y-132270204D01*
X121984999Y-132269000D01*
X122635001Y-132269000D01*
X122659505Y-132270204D01*
X122659505Y-132270204D01*
G37*
D13*
G04 #@! TD*
G04 #@! TO.P,R8,2*
G04 #@! TO.N,/FLAT_LINE_ADJUST_OUT*
X122310000Y-132969000D03*
D12*
G04 #@! TO.N,Net-(R10-Pad2)*
G04 #@! TO.C,R8*
G36*
X120609505Y-132270204D02*
X120633773Y-132273804D01*
X120657572Y-132279765D01*
X120680671Y-132288030D01*
X120702850Y-132298520D01*
X120723893Y-132311132D01*
X120743599Y-132325747D01*
X120761777Y-132342223D01*
X120778253Y-132360401D01*
X120792868Y-132380107D01*
X120805480Y-132401150D01*
X120815970Y-132423329D01*
X120824235Y-132446428D01*
X120830196Y-132470227D01*
X120833796Y-132494495D01*
X120835000Y-132518999D01*
X120835000Y-133419001D01*
X120833796Y-133443505D01*
X120830196Y-133467773D01*
X120824235Y-133491572D01*
X120815970Y-133514671D01*
X120805480Y-133536850D01*
X120792868Y-133557893D01*
X120778253Y-133577599D01*
X120761777Y-133595777D01*
X120743599Y-133612253D01*
X120723893Y-133626868D01*
X120702850Y-133639480D01*
X120680671Y-133649970D01*
X120657572Y-133658235D01*
X120633773Y-133664196D01*
X120609505Y-133667796D01*
X120585001Y-133669000D01*
X119934999Y-133669000D01*
X119910495Y-133667796D01*
X119886227Y-133664196D01*
X119862428Y-133658235D01*
X119839329Y-133649970D01*
X119817150Y-133639480D01*
X119796107Y-133626868D01*
X119776401Y-133612253D01*
X119758223Y-133595777D01*
X119741747Y-133577599D01*
X119727132Y-133557893D01*
X119714520Y-133536850D01*
X119704030Y-133514671D01*
X119695765Y-133491572D01*
X119689804Y-133467773D01*
X119686204Y-133443505D01*
X119685000Y-133419001D01*
X119685000Y-132518999D01*
X119686204Y-132494495D01*
X119689804Y-132470227D01*
X119695765Y-132446428D01*
X119704030Y-132423329D01*
X119714520Y-132401150D01*
X119727132Y-132380107D01*
X119741747Y-132360401D01*
X119758223Y-132342223D01*
X119776401Y-132325747D01*
X119796107Y-132311132D01*
X119817150Y-132298520D01*
X119839329Y-132288030D01*
X119862428Y-132279765D01*
X119886227Y-132273804D01*
X119910495Y-132270204D01*
X119934999Y-132269000D01*
X120585001Y-132269000D01*
X120609505Y-132270204D01*
X120609505Y-132270204D01*
G37*
D13*
G04 #@! TD*
G04 #@! TO.P,R8,1*
G04 #@! TO.N,Net-(R10-Pad2)*
X120260000Y-132969000D03*
D12*
G04 #@! TO.N,Net-(R17-Pad2)*
G04 #@! TO.C,R9*
G36*
X120743505Y-146356204D02*
X120767773Y-146359804D01*
X120791572Y-146365765D01*
X120814671Y-146374030D01*
X120836850Y-146384520D01*
X120857893Y-146397132D01*
X120877599Y-146411747D01*
X120895777Y-146428223D01*
X120912253Y-146446401D01*
X120926868Y-146466107D01*
X120939480Y-146487150D01*
X120949970Y-146509329D01*
X120958235Y-146532428D01*
X120964196Y-146556227D01*
X120967796Y-146580495D01*
X120969000Y-146604999D01*
X120969000Y-147255001D01*
X120967796Y-147279505D01*
X120964196Y-147303773D01*
X120958235Y-147327572D01*
X120949970Y-147350671D01*
X120939480Y-147372850D01*
X120926868Y-147393893D01*
X120912253Y-147413599D01*
X120895777Y-147431777D01*
X120877599Y-147448253D01*
X120857893Y-147462868D01*
X120836850Y-147475480D01*
X120814671Y-147485970D01*
X120791572Y-147494235D01*
X120767773Y-147500196D01*
X120743505Y-147503796D01*
X120719001Y-147505000D01*
X119818999Y-147505000D01*
X119794495Y-147503796D01*
X119770227Y-147500196D01*
X119746428Y-147494235D01*
X119723329Y-147485970D01*
X119701150Y-147475480D01*
X119680107Y-147462868D01*
X119660401Y-147448253D01*
X119642223Y-147431777D01*
X119625747Y-147413599D01*
X119611132Y-147393893D01*
X119598520Y-147372850D01*
X119588030Y-147350671D01*
X119579765Y-147327572D01*
X119573804Y-147303773D01*
X119570204Y-147279505D01*
X119569000Y-147255001D01*
X119569000Y-146604999D01*
X119570204Y-146580495D01*
X119573804Y-146556227D01*
X119579765Y-146532428D01*
X119588030Y-146509329D01*
X119598520Y-146487150D01*
X119611132Y-146466107D01*
X119625747Y-146446401D01*
X119642223Y-146428223D01*
X119660401Y-146411747D01*
X119680107Y-146397132D01*
X119701150Y-146384520D01*
X119723329Y-146374030D01*
X119746428Y-146365765D01*
X119770227Y-146359804D01*
X119794495Y-146356204D01*
X119818999Y-146355000D01*
X120719001Y-146355000D01*
X120743505Y-146356204D01*
X120743505Y-146356204D01*
G37*
D13*
G04 #@! TD*
G04 #@! TO.P,R9,2*
G04 #@! TO.N,Net-(R17-Pad2)*
X120269000Y-146930000D03*
D12*
G04 #@! TO.N,Net-(JOUT1-Pad2)*
G04 #@! TO.C,R9*
G36*
X120743505Y-148406204D02*
X120767773Y-148409804D01*
X120791572Y-148415765D01*
X120814671Y-148424030D01*
X120836850Y-148434520D01*
X120857893Y-148447132D01*
X120877599Y-148461747D01*
X120895777Y-148478223D01*
X120912253Y-148496401D01*
X120926868Y-148516107D01*
X120939480Y-148537150D01*
X120949970Y-148559329D01*
X120958235Y-148582428D01*
X120964196Y-148606227D01*
X120967796Y-148630495D01*
X120969000Y-148654999D01*
X120969000Y-149305001D01*
X120967796Y-149329505D01*
X120964196Y-149353773D01*
X120958235Y-149377572D01*
X120949970Y-149400671D01*
X120939480Y-149422850D01*
X120926868Y-149443893D01*
X120912253Y-149463599D01*
X120895777Y-149481777D01*
X120877599Y-149498253D01*
X120857893Y-149512868D01*
X120836850Y-149525480D01*
X120814671Y-149535970D01*
X120791572Y-149544235D01*
X120767773Y-149550196D01*
X120743505Y-149553796D01*
X120719001Y-149555000D01*
X119818999Y-149555000D01*
X119794495Y-149553796D01*
X119770227Y-149550196D01*
X119746428Y-149544235D01*
X119723329Y-149535970D01*
X119701150Y-149525480D01*
X119680107Y-149512868D01*
X119660401Y-149498253D01*
X119642223Y-149481777D01*
X119625747Y-149463599D01*
X119611132Y-149443893D01*
X119598520Y-149422850D01*
X119588030Y-149400671D01*
X119579765Y-149377572D01*
X119573804Y-149353773D01*
X119570204Y-149329505D01*
X119569000Y-149305001D01*
X119569000Y-148654999D01*
X119570204Y-148630495D01*
X119573804Y-148606227D01*
X119579765Y-148582428D01*
X119588030Y-148559329D01*
X119598520Y-148537150D01*
X119611132Y-148516107D01*
X119625747Y-148496401D01*
X119642223Y-148478223D01*
X119660401Y-148461747D01*
X119680107Y-148447132D01*
X119701150Y-148434520D01*
X119723329Y-148424030D01*
X119746428Y-148415765D01*
X119770227Y-148409804D01*
X119794495Y-148406204D01*
X119818999Y-148405000D01*
X120719001Y-148405000D01*
X120743505Y-148406204D01*
X120743505Y-148406204D01*
G37*
D13*
G04 #@! TD*
G04 #@! TO.P,R9,1*
G04 #@! TO.N,Net-(JOUT1-Pad2)*
X120269000Y-148980000D03*
D12*
G04 #@! TO.N,+5V*
G04 #@! TO.C,R11*
G36*
X91914505Y-111431204D02*
X91938773Y-111434804D01*
X91962572Y-111440765D01*
X91985671Y-111449030D01*
X92007850Y-111459520D01*
X92028893Y-111472132D01*
X92048599Y-111486747D01*
X92066777Y-111503223D01*
X92083253Y-111521401D01*
X92097868Y-111541107D01*
X92110480Y-111562150D01*
X92120970Y-111584329D01*
X92129235Y-111607428D01*
X92135196Y-111631227D01*
X92138796Y-111655495D01*
X92140000Y-111679999D01*
X92140000Y-112330001D01*
X92138796Y-112354505D01*
X92135196Y-112378773D01*
X92129235Y-112402572D01*
X92120970Y-112425671D01*
X92110480Y-112447850D01*
X92097868Y-112468893D01*
X92083253Y-112488599D01*
X92066777Y-112506777D01*
X92048599Y-112523253D01*
X92028893Y-112537868D01*
X92007850Y-112550480D01*
X91985671Y-112560970D01*
X91962572Y-112569235D01*
X91938773Y-112575196D01*
X91914505Y-112578796D01*
X91890001Y-112580000D01*
X90989999Y-112580000D01*
X90965495Y-112578796D01*
X90941227Y-112575196D01*
X90917428Y-112569235D01*
X90894329Y-112560970D01*
X90872150Y-112550480D01*
X90851107Y-112537868D01*
X90831401Y-112523253D01*
X90813223Y-112506777D01*
X90796747Y-112488599D01*
X90782132Y-112468893D01*
X90769520Y-112447850D01*
X90759030Y-112425671D01*
X90750765Y-112402572D01*
X90744804Y-112378773D01*
X90741204Y-112354505D01*
X90740000Y-112330001D01*
X90740000Y-111679999D01*
X90741204Y-111655495D01*
X90744804Y-111631227D01*
X90750765Y-111607428D01*
X90759030Y-111584329D01*
X90769520Y-111562150D01*
X90782132Y-111541107D01*
X90796747Y-111521401D01*
X90813223Y-111503223D01*
X90831401Y-111486747D01*
X90851107Y-111472132D01*
X90872150Y-111459520D01*
X90894329Y-111449030D01*
X90917428Y-111440765D01*
X90941227Y-111434804D01*
X90965495Y-111431204D01*
X90989999Y-111430000D01*
X91890001Y-111430000D01*
X91914505Y-111431204D01*
X91914505Y-111431204D01*
G37*
D13*
G04 #@! TD*
G04 #@! TO.P,R11,1*
G04 #@! TO.N,+5V*
X91440000Y-112005000D03*
D12*
G04 #@! TO.N,Net-(R11-Pad2)*
G04 #@! TO.C,R11*
G36*
X91914505Y-113481204D02*
X91938773Y-113484804D01*
X91962572Y-113490765D01*
X91985671Y-113499030D01*
X92007850Y-113509520D01*
X92028893Y-113522132D01*
X92048599Y-113536747D01*
X92066777Y-113553223D01*
X92083253Y-113571401D01*
X92097868Y-113591107D01*
X92110480Y-113612150D01*
X92120970Y-113634329D01*
X92129235Y-113657428D01*
X92135196Y-113681227D01*
X92138796Y-113705495D01*
X92140000Y-113729999D01*
X92140000Y-114380001D01*
X92138796Y-114404505D01*
X92135196Y-114428773D01*
X92129235Y-114452572D01*
X92120970Y-114475671D01*
X92110480Y-114497850D01*
X92097868Y-114518893D01*
X92083253Y-114538599D01*
X92066777Y-114556777D01*
X92048599Y-114573253D01*
X92028893Y-114587868D01*
X92007850Y-114600480D01*
X91985671Y-114610970D01*
X91962572Y-114619235D01*
X91938773Y-114625196D01*
X91914505Y-114628796D01*
X91890001Y-114630000D01*
X90989999Y-114630000D01*
X90965495Y-114628796D01*
X90941227Y-114625196D01*
X90917428Y-114619235D01*
X90894329Y-114610970D01*
X90872150Y-114600480D01*
X90851107Y-114587868D01*
X90831401Y-114573253D01*
X90813223Y-114556777D01*
X90796747Y-114538599D01*
X90782132Y-114518893D01*
X90769520Y-114497850D01*
X90759030Y-114475671D01*
X90750765Y-114452572D01*
X90744804Y-114428773D01*
X90741204Y-114404505D01*
X90740000Y-114380001D01*
X90740000Y-113729999D01*
X90741204Y-113705495D01*
X90744804Y-113681227D01*
X90750765Y-113657428D01*
X90759030Y-113634329D01*
X90769520Y-113612150D01*
X90782132Y-113591107D01*
X90796747Y-113571401D01*
X90813223Y-113553223D01*
X90831401Y-113536747D01*
X90851107Y-113522132D01*
X90872150Y-113509520D01*
X90894329Y-113499030D01*
X90917428Y-113490765D01*
X90941227Y-113484804D01*
X90965495Y-113481204D01*
X90989999Y-113480000D01*
X91890001Y-113480000D01*
X91914505Y-113481204D01*
X91914505Y-113481204D01*
G37*
D13*
G04 #@! TD*
G04 #@! TO.P,R11,2*
G04 #@! TO.N,Net-(R11-Pad2)*
X91440000Y-114055000D03*
D12*
G04 #@! TO.N,Net-(R12-Pad1)*
G04 #@! TO.C,R12*
G36*
X88739505Y-113481204D02*
X88763773Y-113484804D01*
X88787572Y-113490765D01*
X88810671Y-113499030D01*
X88832850Y-113509520D01*
X88853893Y-113522132D01*
X88873599Y-113536747D01*
X88891777Y-113553223D01*
X88908253Y-113571401D01*
X88922868Y-113591107D01*
X88935480Y-113612150D01*
X88945970Y-113634329D01*
X88954235Y-113657428D01*
X88960196Y-113681227D01*
X88963796Y-113705495D01*
X88965000Y-113729999D01*
X88965000Y-114380001D01*
X88963796Y-114404505D01*
X88960196Y-114428773D01*
X88954235Y-114452572D01*
X88945970Y-114475671D01*
X88935480Y-114497850D01*
X88922868Y-114518893D01*
X88908253Y-114538599D01*
X88891777Y-114556777D01*
X88873599Y-114573253D01*
X88853893Y-114587868D01*
X88832850Y-114600480D01*
X88810671Y-114610970D01*
X88787572Y-114619235D01*
X88763773Y-114625196D01*
X88739505Y-114628796D01*
X88715001Y-114630000D01*
X87814999Y-114630000D01*
X87790495Y-114628796D01*
X87766227Y-114625196D01*
X87742428Y-114619235D01*
X87719329Y-114610970D01*
X87697150Y-114600480D01*
X87676107Y-114587868D01*
X87656401Y-114573253D01*
X87638223Y-114556777D01*
X87621747Y-114538599D01*
X87607132Y-114518893D01*
X87594520Y-114497850D01*
X87584030Y-114475671D01*
X87575765Y-114452572D01*
X87569804Y-114428773D01*
X87566204Y-114404505D01*
X87565000Y-114380001D01*
X87565000Y-113729999D01*
X87566204Y-113705495D01*
X87569804Y-113681227D01*
X87575765Y-113657428D01*
X87584030Y-113634329D01*
X87594520Y-113612150D01*
X87607132Y-113591107D01*
X87621747Y-113571401D01*
X87638223Y-113553223D01*
X87656401Y-113536747D01*
X87676107Y-113522132D01*
X87697150Y-113509520D01*
X87719329Y-113499030D01*
X87742428Y-113490765D01*
X87766227Y-113484804D01*
X87790495Y-113481204D01*
X87814999Y-113480000D01*
X88715001Y-113480000D01*
X88739505Y-113481204D01*
X88739505Y-113481204D01*
G37*
D13*
G04 #@! TD*
G04 #@! TO.P,R12,1*
G04 #@! TO.N,Net-(R12-Pad1)*
X88265000Y-114055000D03*
D12*
G04 #@! TO.N,-5V*
G04 #@! TO.C,R12*
G36*
X88739505Y-111431204D02*
X88763773Y-111434804D01*
X88787572Y-111440765D01*
X88810671Y-111449030D01*
X88832850Y-111459520D01*
X88853893Y-111472132D01*
X88873599Y-111486747D01*
X88891777Y-111503223D01*
X88908253Y-111521401D01*
X88922868Y-111541107D01*
X88935480Y-111562150D01*
X88945970Y-111584329D01*
X88954235Y-111607428D01*
X88960196Y-111631227D01*
X88963796Y-111655495D01*
X88965000Y-111679999D01*
X88965000Y-112330001D01*
X88963796Y-112354505D01*
X88960196Y-112378773D01*
X88954235Y-112402572D01*
X88945970Y-112425671D01*
X88935480Y-112447850D01*
X88922868Y-112468893D01*
X88908253Y-112488599D01*
X88891777Y-112506777D01*
X88873599Y-112523253D01*
X88853893Y-112537868D01*
X88832850Y-112550480D01*
X88810671Y-112560970D01*
X88787572Y-112569235D01*
X88763773Y-112575196D01*
X88739505Y-112578796D01*
X88715001Y-112580000D01*
X87814999Y-112580000D01*
X87790495Y-112578796D01*
X87766227Y-112575196D01*
X87742428Y-112569235D01*
X87719329Y-112560970D01*
X87697150Y-112550480D01*
X87676107Y-112537868D01*
X87656401Y-112523253D01*
X87638223Y-112506777D01*
X87621747Y-112488599D01*
X87607132Y-112468893D01*
X87594520Y-112447850D01*
X87584030Y-112425671D01*
X87575765Y-112402572D01*
X87569804Y-112378773D01*
X87566204Y-112354505D01*
X87565000Y-112330001D01*
X87565000Y-111679999D01*
X87566204Y-111655495D01*
X87569804Y-111631227D01*
X87575765Y-111607428D01*
X87584030Y-111584329D01*
X87594520Y-111562150D01*
X87607132Y-111541107D01*
X87621747Y-111521401D01*
X87638223Y-111503223D01*
X87656401Y-111486747D01*
X87676107Y-111472132D01*
X87697150Y-111459520D01*
X87719329Y-111449030D01*
X87742428Y-111440765D01*
X87766227Y-111434804D01*
X87790495Y-111431204D01*
X87814999Y-111430000D01*
X88715001Y-111430000D01*
X88739505Y-111431204D01*
X88739505Y-111431204D01*
G37*
D13*
G04 #@! TD*
G04 #@! TO.P,R12,2*
G04 #@! TO.N,-5V*
X88265000Y-112005000D03*
D12*
G04 #@! TO.N,Net-(R13-Pad2)*
G04 #@! TO.C,R13*
G36*
X118584505Y-113481204D02*
X118608773Y-113484804D01*
X118632572Y-113490765D01*
X118655671Y-113499030D01*
X118677850Y-113509520D01*
X118698893Y-113522132D01*
X118718599Y-113536747D01*
X118736777Y-113553223D01*
X118753253Y-113571401D01*
X118767868Y-113591107D01*
X118780480Y-113612150D01*
X118790970Y-113634329D01*
X118799235Y-113657428D01*
X118805196Y-113681227D01*
X118808796Y-113705495D01*
X118810000Y-113729999D01*
X118810000Y-114380001D01*
X118808796Y-114404505D01*
X118805196Y-114428773D01*
X118799235Y-114452572D01*
X118790970Y-114475671D01*
X118780480Y-114497850D01*
X118767868Y-114518893D01*
X118753253Y-114538599D01*
X118736777Y-114556777D01*
X118718599Y-114573253D01*
X118698893Y-114587868D01*
X118677850Y-114600480D01*
X118655671Y-114610970D01*
X118632572Y-114619235D01*
X118608773Y-114625196D01*
X118584505Y-114628796D01*
X118560001Y-114630000D01*
X117659999Y-114630000D01*
X117635495Y-114628796D01*
X117611227Y-114625196D01*
X117587428Y-114619235D01*
X117564329Y-114610970D01*
X117542150Y-114600480D01*
X117521107Y-114587868D01*
X117501401Y-114573253D01*
X117483223Y-114556777D01*
X117466747Y-114538599D01*
X117452132Y-114518893D01*
X117439520Y-114497850D01*
X117429030Y-114475671D01*
X117420765Y-114452572D01*
X117414804Y-114428773D01*
X117411204Y-114404505D01*
X117410000Y-114380001D01*
X117410000Y-113729999D01*
X117411204Y-113705495D01*
X117414804Y-113681227D01*
X117420765Y-113657428D01*
X117429030Y-113634329D01*
X117439520Y-113612150D01*
X117452132Y-113591107D01*
X117466747Y-113571401D01*
X117483223Y-113553223D01*
X117501401Y-113536747D01*
X117521107Y-113522132D01*
X117542150Y-113509520D01*
X117564329Y-113499030D01*
X117587428Y-113490765D01*
X117611227Y-113484804D01*
X117635495Y-113481204D01*
X117659999Y-113480000D01*
X118560001Y-113480000D01*
X118584505Y-113481204D01*
X118584505Y-113481204D01*
G37*
D13*
G04 #@! TD*
G04 #@! TO.P,R13,2*
G04 #@! TO.N,Net-(R13-Pad2)*
X118110000Y-114055000D03*
D12*
G04 #@! TO.N,+5V*
G04 #@! TO.C,R13*
G36*
X118584505Y-111431204D02*
X118608773Y-111434804D01*
X118632572Y-111440765D01*
X118655671Y-111449030D01*
X118677850Y-111459520D01*
X118698893Y-111472132D01*
X118718599Y-111486747D01*
X118736777Y-111503223D01*
X118753253Y-111521401D01*
X118767868Y-111541107D01*
X118780480Y-111562150D01*
X118790970Y-111584329D01*
X118799235Y-111607428D01*
X118805196Y-111631227D01*
X118808796Y-111655495D01*
X118810000Y-111679999D01*
X118810000Y-112330001D01*
X118808796Y-112354505D01*
X118805196Y-112378773D01*
X118799235Y-112402572D01*
X118790970Y-112425671D01*
X118780480Y-112447850D01*
X118767868Y-112468893D01*
X118753253Y-112488599D01*
X118736777Y-112506777D01*
X118718599Y-112523253D01*
X118698893Y-112537868D01*
X118677850Y-112550480D01*
X118655671Y-112560970D01*
X118632572Y-112569235D01*
X118608773Y-112575196D01*
X118584505Y-112578796D01*
X118560001Y-112580000D01*
X117659999Y-112580000D01*
X117635495Y-112578796D01*
X117611227Y-112575196D01*
X117587428Y-112569235D01*
X117564329Y-112560970D01*
X117542150Y-112550480D01*
X117521107Y-112537868D01*
X117501401Y-112523253D01*
X117483223Y-112506777D01*
X117466747Y-112488599D01*
X117452132Y-112468893D01*
X117439520Y-112447850D01*
X117429030Y-112425671D01*
X117420765Y-112402572D01*
X117414804Y-112378773D01*
X117411204Y-112354505D01*
X117410000Y-112330001D01*
X117410000Y-111679999D01*
X117411204Y-111655495D01*
X117414804Y-111631227D01*
X117420765Y-111607428D01*
X117429030Y-111584329D01*
X117439520Y-111562150D01*
X117452132Y-111541107D01*
X117466747Y-111521401D01*
X117483223Y-111503223D01*
X117501401Y-111486747D01*
X117521107Y-111472132D01*
X117542150Y-111459520D01*
X117564329Y-111449030D01*
X117587428Y-111440765D01*
X117611227Y-111434804D01*
X117635495Y-111431204D01*
X117659999Y-111430000D01*
X118560001Y-111430000D01*
X118584505Y-111431204D01*
X118584505Y-111431204D01*
G37*
D13*
G04 #@! TD*
G04 #@! TO.P,R13,1*
G04 #@! TO.N,+5V*
X118110000Y-112005000D03*
D12*
G04 #@! TO.N,Net-(R14-Pad1)*
G04 #@! TO.C,R14*
G36*
X115409505Y-113481204D02*
X115433773Y-113484804D01*
X115457572Y-113490765D01*
X115480671Y-113499030D01*
X115502850Y-113509520D01*
X115523893Y-113522132D01*
X115543599Y-113536747D01*
X115561777Y-113553223D01*
X115578253Y-113571401D01*
X115592868Y-113591107D01*
X115605480Y-113612150D01*
X115615970Y-113634329D01*
X115624235Y-113657428D01*
X115630196Y-113681227D01*
X115633796Y-113705495D01*
X115635000Y-113729999D01*
X115635000Y-114380001D01*
X115633796Y-114404505D01*
X115630196Y-114428773D01*
X115624235Y-114452572D01*
X115615970Y-114475671D01*
X115605480Y-114497850D01*
X115592868Y-114518893D01*
X115578253Y-114538599D01*
X115561777Y-114556777D01*
X115543599Y-114573253D01*
X115523893Y-114587868D01*
X115502850Y-114600480D01*
X115480671Y-114610970D01*
X115457572Y-114619235D01*
X115433773Y-114625196D01*
X115409505Y-114628796D01*
X115385001Y-114630000D01*
X114484999Y-114630000D01*
X114460495Y-114628796D01*
X114436227Y-114625196D01*
X114412428Y-114619235D01*
X114389329Y-114610970D01*
X114367150Y-114600480D01*
X114346107Y-114587868D01*
X114326401Y-114573253D01*
X114308223Y-114556777D01*
X114291747Y-114538599D01*
X114277132Y-114518893D01*
X114264520Y-114497850D01*
X114254030Y-114475671D01*
X114245765Y-114452572D01*
X114239804Y-114428773D01*
X114236204Y-114404505D01*
X114235000Y-114380001D01*
X114235000Y-113729999D01*
X114236204Y-113705495D01*
X114239804Y-113681227D01*
X114245765Y-113657428D01*
X114254030Y-113634329D01*
X114264520Y-113612150D01*
X114277132Y-113591107D01*
X114291747Y-113571401D01*
X114308223Y-113553223D01*
X114326401Y-113536747D01*
X114346107Y-113522132D01*
X114367150Y-113509520D01*
X114389329Y-113499030D01*
X114412428Y-113490765D01*
X114436227Y-113484804D01*
X114460495Y-113481204D01*
X114484999Y-113480000D01*
X115385001Y-113480000D01*
X115409505Y-113481204D01*
X115409505Y-113481204D01*
G37*
D13*
G04 #@! TD*
G04 #@! TO.P,R14,1*
G04 #@! TO.N,Net-(R14-Pad1)*
X114935000Y-114055000D03*
D12*
G04 #@! TO.N,-5V*
G04 #@! TO.C,R14*
G36*
X115409505Y-111431204D02*
X115433773Y-111434804D01*
X115457572Y-111440765D01*
X115480671Y-111449030D01*
X115502850Y-111459520D01*
X115523893Y-111472132D01*
X115543599Y-111486747D01*
X115561777Y-111503223D01*
X115578253Y-111521401D01*
X115592868Y-111541107D01*
X115605480Y-111562150D01*
X115615970Y-111584329D01*
X115624235Y-111607428D01*
X115630196Y-111631227D01*
X115633796Y-111655495D01*
X115635000Y-111679999D01*
X115635000Y-112330001D01*
X115633796Y-112354505D01*
X115630196Y-112378773D01*
X115624235Y-112402572D01*
X115615970Y-112425671D01*
X115605480Y-112447850D01*
X115592868Y-112468893D01*
X115578253Y-112488599D01*
X115561777Y-112506777D01*
X115543599Y-112523253D01*
X115523893Y-112537868D01*
X115502850Y-112550480D01*
X115480671Y-112560970D01*
X115457572Y-112569235D01*
X115433773Y-112575196D01*
X115409505Y-112578796D01*
X115385001Y-112580000D01*
X114484999Y-112580000D01*
X114460495Y-112578796D01*
X114436227Y-112575196D01*
X114412428Y-112569235D01*
X114389329Y-112560970D01*
X114367150Y-112550480D01*
X114346107Y-112537868D01*
X114326401Y-112523253D01*
X114308223Y-112506777D01*
X114291747Y-112488599D01*
X114277132Y-112468893D01*
X114264520Y-112447850D01*
X114254030Y-112425671D01*
X114245765Y-112402572D01*
X114239804Y-112378773D01*
X114236204Y-112354505D01*
X114235000Y-112330001D01*
X114235000Y-111679999D01*
X114236204Y-111655495D01*
X114239804Y-111631227D01*
X114245765Y-111607428D01*
X114254030Y-111584329D01*
X114264520Y-111562150D01*
X114277132Y-111541107D01*
X114291747Y-111521401D01*
X114308223Y-111503223D01*
X114326401Y-111486747D01*
X114346107Y-111472132D01*
X114367150Y-111459520D01*
X114389329Y-111449030D01*
X114412428Y-111440765D01*
X114436227Y-111434804D01*
X114460495Y-111431204D01*
X114484999Y-111430000D01*
X115385001Y-111430000D01*
X115409505Y-111431204D01*
X115409505Y-111431204D01*
G37*
D13*
G04 #@! TD*
G04 #@! TO.P,R14,2*
G04 #@! TO.N,-5V*
X114935000Y-112005000D03*
D12*
G04 #@! TO.N,Net-(R15-Pad2)*
G04 #@! TO.C,R15*
G36*
X95089505Y-113481204D02*
X95113773Y-113484804D01*
X95137572Y-113490765D01*
X95160671Y-113499030D01*
X95182850Y-113509520D01*
X95203893Y-113522132D01*
X95223599Y-113536747D01*
X95241777Y-113553223D01*
X95258253Y-113571401D01*
X95272868Y-113591107D01*
X95285480Y-113612150D01*
X95295970Y-113634329D01*
X95304235Y-113657428D01*
X95310196Y-113681227D01*
X95313796Y-113705495D01*
X95315000Y-113729999D01*
X95315000Y-114380001D01*
X95313796Y-114404505D01*
X95310196Y-114428773D01*
X95304235Y-114452572D01*
X95295970Y-114475671D01*
X95285480Y-114497850D01*
X95272868Y-114518893D01*
X95258253Y-114538599D01*
X95241777Y-114556777D01*
X95223599Y-114573253D01*
X95203893Y-114587868D01*
X95182850Y-114600480D01*
X95160671Y-114610970D01*
X95137572Y-114619235D01*
X95113773Y-114625196D01*
X95089505Y-114628796D01*
X95065001Y-114630000D01*
X94164999Y-114630000D01*
X94140495Y-114628796D01*
X94116227Y-114625196D01*
X94092428Y-114619235D01*
X94069329Y-114610970D01*
X94047150Y-114600480D01*
X94026107Y-114587868D01*
X94006401Y-114573253D01*
X93988223Y-114556777D01*
X93971747Y-114538599D01*
X93957132Y-114518893D01*
X93944520Y-114497850D01*
X93934030Y-114475671D01*
X93925765Y-114452572D01*
X93919804Y-114428773D01*
X93916204Y-114404505D01*
X93915000Y-114380001D01*
X93915000Y-113729999D01*
X93916204Y-113705495D01*
X93919804Y-113681227D01*
X93925765Y-113657428D01*
X93934030Y-113634329D01*
X93944520Y-113612150D01*
X93957132Y-113591107D01*
X93971747Y-113571401D01*
X93988223Y-113553223D01*
X94006401Y-113536747D01*
X94026107Y-113522132D01*
X94047150Y-113509520D01*
X94069329Y-113499030D01*
X94092428Y-113490765D01*
X94116227Y-113484804D01*
X94140495Y-113481204D01*
X94164999Y-113480000D01*
X95065001Y-113480000D01*
X95089505Y-113481204D01*
X95089505Y-113481204D01*
G37*
D13*
G04 #@! TD*
G04 #@! TO.P,R15,2*
G04 #@! TO.N,Net-(R15-Pad2)*
X94615000Y-114055000D03*
D12*
G04 #@! TO.N,/FLAT_LINE_ADJUST_OUT*
G04 #@! TO.C,R15*
G36*
X95089505Y-111431204D02*
X95113773Y-111434804D01*
X95137572Y-111440765D01*
X95160671Y-111449030D01*
X95182850Y-111459520D01*
X95203893Y-111472132D01*
X95223599Y-111486747D01*
X95241777Y-111503223D01*
X95258253Y-111521401D01*
X95272868Y-111541107D01*
X95285480Y-111562150D01*
X95295970Y-111584329D01*
X95304235Y-111607428D01*
X95310196Y-111631227D01*
X95313796Y-111655495D01*
X95315000Y-111679999D01*
X95315000Y-112330001D01*
X95313796Y-112354505D01*
X95310196Y-112378773D01*
X95304235Y-112402572D01*
X95295970Y-112425671D01*
X95285480Y-112447850D01*
X95272868Y-112468893D01*
X95258253Y-112488599D01*
X95241777Y-112506777D01*
X95223599Y-112523253D01*
X95203893Y-112537868D01*
X95182850Y-112550480D01*
X95160671Y-112560970D01*
X95137572Y-112569235D01*
X95113773Y-112575196D01*
X95089505Y-112578796D01*
X95065001Y-112580000D01*
X94164999Y-112580000D01*
X94140495Y-112578796D01*
X94116227Y-112575196D01*
X94092428Y-112569235D01*
X94069329Y-112560970D01*
X94047150Y-112550480D01*
X94026107Y-112537868D01*
X94006401Y-112523253D01*
X93988223Y-112506777D01*
X93971747Y-112488599D01*
X93957132Y-112468893D01*
X93944520Y-112447850D01*
X93934030Y-112425671D01*
X93925765Y-112402572D01*
X93919804Y-112378773D01*
X93916204Y-112354505D01*
X93915000Y-112330001D01*
X93915000Y-111679999D01*
X93916204Y-111655495D01*
X93919804Y-111631227D01*
X93925765Y-111607428D01*
X93934030Y-111584329D01*
X93944520Y-111562150D01*
X93957132Y-111541107D01*
X93971747Y-111521401D01*
X93988223Y-111503223D01*
X94006401Y-111486747D01*
X94026107Y-111472132D01*
X94047150Y-111459520D01*
X94069329Y-111449030D01*
X94092428Y-111440765D01*
X94116227Y-111434804D01*
X94140495Y-111431204D01*
X94164999Y-111430000D01*
X95065001Y-111430000D01*
X95089505Y-111431204D01*
X95089505Y-111431204D01*
G37*
D13*
G04 #@! TD*
G04 #@! TO.P,R15,1*
G04 #@! TO.N,/FLAT_LINE_ADJUST_OUT*
X94615000Y-112005000D03*
D12*
G04 #@! TO.N,Net-(R16-Pad2)*
G04 #@! TO.C,R16*
G36*
X112234505Y-113481204D02*
X112258773Y-113484804D01*
X112282572Y-113490765D01*
X112305671Y-113499030D01*
X112327850Y-113509520D01*
X112348893Y-113522132D01*
X112368599Y-113536747D01*
X112386777Y-113553223D01*
X112403253Y-113571401D01*
X112417868Y-113591107D01*
X112430480Y-113612150D01*
X112440970Y-113634329D01*
X112449235Y-113657428D01*
X112455196Y-113681227D01*
X112458796Y-113705495D01*
X112460000Y-113729999D01*
X112460000Y-114380001D01*
X112458796Y-114404505D01*
X112455196Y-114428773D01*
X112449235Y-114452572D01*
X112440970Y-114475671D01*
X112430480Y-114497850D01*
X112417868Y-114518893D01*
X112403253Y-114538599D01*
X112386777Y-114556777D01*
X112368599Y-114573253D01*
X112348893Y-114587868D01*
X112327850Y-114600480D01*
X112305671Y-114610970D01*
X112282572Y-114619235D01*
X112258773Y-114625196D01*
X112234505Y-114628796D01*
X112210001Y-114630000D01*
X111309999Y-114630000D01*
X111285495Y-114628796D01*
X111261227Y-114625196D01*
X111237428Y-114619235D01*
X111214329Y-114610970D01*
X111192150Y-114600480D01*
X111171107Y-114587868D01*
X111151401Y-114573253D01*
X111133223Y-114556777D01*
X111116747Y-114538599D01*
X111102132Y-114518893D01*
X111089520Y-114497850D01*
X111079030Y-114475671D01*
X111070765Y-114452572D01*
X111064804Y-114428773D01*
X111061204Y-114404505D01*
X111060000Y-114380001D01*
X111060000Y-113729999D01*
X111061204Y-113705495D01*
X111064804Y-113681227D01*
X111070765Y-113657428D01*
X111079030Y-113634329D01*
X111089520Y-113612150D01*
X111102132Y-113591107D01*
X111116747Y-113571401D01*
X111133223Y-113553223D01*
X111151401Y-113536747D01*
X111171107Y-113522132D01*
X111192150Y-113509520D01*
X111214329Y-113499030D01*
X111237428Y-113490765D01*
X111261227Y-113484804D01*
X111285495Y-113481204D01*
X111309999Y-113480000D01*
X112210001Y-113480000D01*
X112234505Y-113481204D01*
X112234505Y-113481204D01*
G37*
D13*
G04 #@! TD*
G04 #@! TO.P,R16,2*
G04 #@! TO.N,Net-(R16-Pad2)*
X111760000Y-114055000D03*
D12*
G04 #@! TO.N,/FLAT_LINE_ADJUST_IN*
G04 #@! TO.C,R16*
G36*
X112234505Y-111431204D02*
X112258773Y-111434804D01*
X112282572Y-111440765D01*
X112305671Y-111449030D01*
X112327850Y-111459520D01*
X112348893Y-111472132D01*
X112368599Y-111486747D01*
X112386777Y-111503223D01*
X112403253Y-111521401D01*
X112417868Y-111541107D01*
X112430480Y-111562150D01*
X112440970Y-111584329D01*
X112449235Y-111607428D01*
X112455196Y-111631227D01*
X112458796Y-111655495D01*
X112460000Y-111679999D01*
X112460000Y-112330001D01*
X112458796Y-112354505D01*
X112455196Y-112378773D01*
X112449235Y-112402572D01*
X112440970Y-112425671D01*
X112430480Y-112447850D01*
X112417868Y-112468893D01*
X112403253Y-112488599D01*
X112386777Y-112506777D01*
X112368599Y-112523253D01*
X112348893Y-112537868D01*
X112327850Y-112550480D01*
X112305671Y-112560970D01*
X112282572Y-112569235D01*
X112258773Y-112575196D01*
X112234505Y-112578796D01*
X112210001Y-112580000D01*
X111309999Y-112580000D01*
X111285495Y-112578796D01*
X111261227Y-112575196D01*
X111237428Y-112569235D01*
X111214329Y-112560970D01*
X111192150Y-112550480D01*
X111171107Y-112537868D01*
X111151401Y-112523253D01*
X111133223Y-112506777D01*
X111116747Y-112488599D01*
X111102132Y-112468893D01*
X111089520Y-112447850D01*
X111079030Y-112425671D01*
X111070765Y-112402572D01*
X111064804Y-112378773D01*
X111061204Y-112354505D01*
X111060000Y-112330001D01*
X111060000Y-111679999D01*
X111061204Y-111655495D01*
X111064804Y-111631227D01*
X111070765Y-111607428D01*
X111079030Y-111584329D01*
X111089520Y-111562150D01*
X111102132Y-111541107D01*
X111116747Y-111521401D01*
X111133223Y-111503223D01*
X111151401Y-111486747D01*
X111171107Y-111472132D01*
X111192150Y-111459520D01*
X111214329Y-111449030D01*
X111237428Y-111440765D01*
X111261227Y-111434804D01*
X111285495Y-111431204D01*
X111309999Y-111430000D01*
X112210001Y-111430000D01*
X112234505Y-111431204D01*
X112234505Y-111431204D01*
G37*
D13*
G04 #@! TD*
G04 #@! TO.P,R16,1*
G04 #@! TO.N,/FLAT_LINE_ADJUST_IN*
X111760000Y-112005000D03*
D12*
G04 #@! TO.N,Net-(R17-Pad2)*
G04 #@! TO.C,R17*
G36*
X109313505Y-136450204D02*
X109337773Y-136453804D01*
X109361572Y-136459765D01*
X109384671Y-136468030D01*
X109406850Y-136478520D01*
X109427893Y-136491132D01*
X109447599Y-136505747D01*
X109465777Y-136522223D01*
X109482253Y-136540401D01*
X109496868Y-136560107D01*
X109509480Y-136581150D01*
X109519970Y-136603329D01*
X109528235Y-136626428D01*
X109534196Y-136650227D01*
X109537796Y-136674495D01*
X109539000Y-136698999D01*
X109539000Y-137349001D01*
X109537796Y-137373505D01*
X109534196Y-137397773D01*
X109528235Y-137421572D01*
X109519970Y-137444671D01*
X109509480Y-137466850D01*
X109496868Y-137487893D01*
X109482253Y-137507599D01*
X109465777Y-137525777D01*
X109447599Y-137542253D01*
X109427893Y-137556868D01*
X109406850Y-137569480D01*
X109384671Y-137579970D01*
X109361572Y-137588235D01*
X109337773Y-137594196D01*
X109313505Y-137597796D01*
X109289001Y-137599000D01*
X108388999Y-137599000D01*
X108364495Y-137597796D01*
X108340227Y-137594196D01*
X108316428Y-137588235D01*
X108293329Y-137579970D01*
X108271150Y-137569480D01*
X108250107Y-137556868D01*
X108230401Y-137542253D01*
X108212223Y-137525777D01*
X108195747Y-137507599D01*
X108181132Y-137487893D01*
X108168520Y-137466850D01*
X108158030Y-137444671D01*
X108149765Y-137421572D01*
X108143804Y-137397773D01*
X108140204Y-137373505D01*
X108139000Y-137349001D01*
X108139000Y-136698999D01*
X108140204Y-136674495D01*
X108143804Y-136650227D01*
X108149765Y-136626428D01*
X108158030Y-136603329D01*
X108168520Y-136581150D01*
X108181132Y-136560107D01*
X108195747Y-136540401D01*
X108212223Y-136522223D01*
X108230401Y-136505747D01*
X108250107Y-136491132D01*
X108271150Y-136478520D01*
X108293329Y-136468030D01*
X108316428Y-136459765D01*
X108340227Y-136453804D01*
X108364495Y-136450204D01*
X108388999Y-136449000D01*
X109289001Y-136449000D01*
X109313505Y-136450204D01*
X109313505Y-136450204D01*
G37*
D13*
G04 #@! TD*
G04 #@! TO.P,R17,2*
G04 #@! TO.N,Net-(R17-Pad2)*
X108839000Y-137024000D03*
D12*
G04 #@! TO.N,Net-(R17-Pad1)*
G04 #@! TO.C,R17*
G36*
X109313505Y-138500204D02*
X109337773Y-138503804D01*
X109361572Y-138509765D01*
X109384671Y-138518030D01*
X109406850Y-138528520D01*
X109427893Y-138541132D01*
X109447599Y-138555747D01*
X109465777Y-138572223D01*
X109482253Y-138590401D01*
X109496868Y-138610107D01*
X109509480Y-138631150D01*
X109519970Y-138653329D01*
X109528235Y-138676428D01*
X109534196Y-138700227D01*
X109537796Y-138724495D01*
X109539000Y-138748999D01*
X109539000Y-139399001D01*
X109537796Y-139423505D01*
X109534196Y-139447773D01*
X109528235Y-139471572D01*
X109519970Y-139494671D01*
X109509480Y-139516850D01*
X109496868Y-139537893D01*
X109482253Y-139557599D01*
X109465777Y-139575777D01*
X109447599Y-139592253D01*
X109427893Y-139606868D01*
X109406850Y-139619480D01*
X109384671Y-139629970D01*
X109361572Y-139638235D01*
X109337773Y-139644196D01*
X109313505Y-139647796D01*
X109289001Y-139649000D01*
X108388999Y-139649000D01*
X108364495Y-139647796D01*
X108340227Y-139644196D01*
X108316428Y-139638235D01*
X108293329Y-139629970D01*
X108271150Y-139619480D01*
X108250107Y-139606868D01*
X108230401Y-139592253D01*
X108212223Y-139575777D01*
X108195747Y-139557599D01*
X108181132Y-139537893D01*
X108168520Y-139516850D01*
X108158030Y-139494671D01*
X108149765Y-139471572D01*
X108143804Y-139447773D01*
X108140204Y-139423505D01*
X108139000Y-139399001D01*
X108139000Y-138748999D01*
X108140204Y-138724495D01*
X108143804Y-138700227D01*
X108149765Y-138676428D01*
X108158030Y-138653329D01*
X108168520Y-138631150D01*
X108181132Y-138610107D01*
X108195747Y-138590401D01*
X108212223Y-138572223D01*
X108230401Y-138555747D01*
X108250107Y-138541132D01*
X108271150Y-138528520D01*
X108293329Y-138518030D01*
X108316428Y-138509765D01*
X108340227Y-138503804D01*
X108364495Y-138500204D01*
X108388999Y-138499000D01*
X109289001Y-138499000D01*
X109313505Y-138500204D01*
X109313505Y-138500204D01*
G37*
D13*
G04 #@! TD*
G04 #@! TO.P,R17,1*
G04 #@! TO.N,Net-(R17-Pad1)*
X108839000Y-139074000D03*
D12*
G04 #@! TO.N,Net-(R18-Pad1)*
G04 #@! TO.C,R18*
G36*
X107147505Y-148399204D02*
X107171773Y-148402804D01*
X107195572Y-148408765D01*
X107218671Y-148417030D01*
X107240850Y-148427520D01*
X107261893Y-148440132D01*
X107281599Y-148454747D01*
X107299777Y-148471223D01*
X107316253Y-148489401D01*
X107330868Y-148509107D01*
X107343480Y-148530150D01*
X107353970Y-148552329D01*
X107362235Y-148575428D01*
X107368196Y-148599227D01*
X107371796Y-148623495D01*
X107373000Y-148647999D01*
X107373000Y-149548001D01*
X107371796Y-149572505D01*
X107368196Y-149596773D01*
X107362235Y-149620572D01*
X107353970Y-149643671D01*
X107343480Y-149665850D01*
X107330868Y-149686893D01*
X107316253Y-149706599D01*
X107299777Y-149724777D01*
X107281599Y-149741253D01*
X107261893Y-149755868D01*
X107240850Y-149768480D01*
X107218671Y-149778970D01*
X107195572Y-149787235D01*
X107171773Y-149793196D01*
X107147505Y-149796796D01*
X107123001Y-149798000D01*
X106472999Y-149798000D01*
X106448495Y-149796796D01*
X106424227Y-149793196D01*
X106400428Y-149787235D01*
X106377329Y-149778970D01*
X106355150Y-149768480D01*
X106334107Y-149755868D01*
X106314401Y-149741253D01*
X106296223Y-149724777D01*
X106279747Y-149706599D01*
X106265132Y-149686893D01*
X106252520Y-149665850D01*
X106242030Y-149643671D01*
X106233765Y-149620572D01*
X106227804Y-149596773D01*
X106224204Y-149572505D01*
X106223000Y-149548001D01*
X106223000Y-148647999D01*
X106224204Y-148623495D01*
X106227804Y-148599227D01*
X106233765Y-148575428D01*
X106242030Y-148552329D01*
X106252520Y-148530150D01*
X106265132Y-148509107D01*
X106279747Y-148489401D01*
X106296223Y-148471223D01*
X106314401Y-148454747D01*
X106334107Y-148440132D01*
X106355150Y-148427520D01*
X106377329Y-148417030D01*
X106400428Y-148408765D01*
X106424227Y-148402804D01*
X106448495Y-148399204D01*
X106472999Y-148398000D01*
X107123001Y-148398000D01*
X107147505Y-148399204D01*
X107147505Y-148399204D01*
G37*
D13*
G04 #@! TD*
G04 #@! TO.P,R18,1*
G04 #@! TO.N,Net-(R18-Pad1)*
X106798000Y-149098000D03*
D12*
G04 #@! TO.N,Net-(R10-Pad2)*
G04 #@! TO.C,R18*
G36*
X109197505Y-148399204D02*
X109221773Y-148402804D01*
X109245572Y-148408765D01*
X109268671Y-148417030D01*
X109290850Y-148427520D01*
X109311893Y-148440132D01*
X109331599Y-148454747D01*
X109349777Y-148471223D01*
X109366253Y-148489401D01*
X109380868Y-148509107D01*
X109393480Y-148530150D01*
X109403970Y-148552329D01*
X109412235Y-148575428D01*
X109418196Y-148599227D01*
X109421796Y-148623495D01*
X109423000Y-148647999D01*
X109423000Y-149548001D01*
X109421796Y-149572505D01*
X109418196Y-149596773D01*
X109412235Y-149620572D01*
X109403970Y-149643671D01*
X109393480Y-149665850D01*
X109380868Y-149686893D01*
X109366253Y-149706599D01*
X109349777Y-149724777D01*
X109331599Y-149741253D01*
X109311893Y-149755868D01*
X109290850Y-149768480D01*
X109268671Y-149778970D01*
X109245572Y-149787235D01*
X109221773Y-149793196D01*
X109197505Y-149796796D01*
X109173001Y-149798000D01*
X108522999Y-149798000D01*
X108498495Y-149796796D01*
X108474227Y-149793196D01*
X108450428Y-149787235D01*
X108427329Y-149778970D01*
X108405150Y-149768480D01*
X108384107Y-149755868D01*
X108364401Y-149741253D01*
X108346223Y-149724777D01*
X108329747Y-149706599D01*
X108315132Y-149686893D01*
X108302520Y-149665850D01*
X108292030Y-149643671D01*
X108283765Y-149620572D01*
X108277804Y-149596773D01*
X108274204Y-149572505D01*
X108273000Y-149548001D01*
X108273000Y-148647999D01*
X108274204Y-148623495D01*
X108277804Y-148599227D01*
X108283765Y-148575428D01*
X108292030Y-148552329D01*
X108302520Y-148530150D01*
X108315132Y-148509107D01*
X108329747Y-148489401D01*
X108346223Y-148471223D01*
X108364401Y-148454747D01*
X108384107Y-148440132D01*
X108405150Y-148427520D01*
X108427329Y-148417030D01*
X108450428Y-148408765D01*
X108474227Y-148402804D01*
X108498495Y-148399204D01*
X108522999Y-148398000D01*
X109173001Y-148398000D01*
X109197505Y-148399204D01*
X109197505Y-148399204D01*
G37*
D13*
G04 #@! TD*
G04 #@! TO.P,R18,2*
G04 #@! TO.N,Net-(R10-Pad2)*
X108848000Y-149098000D03*
D19*
G04 #@! TO.P,U4,1*
G04 #@! TO.N,Net-(R17-Pad1)*
X111600000Y-139065000D03*
G04 #@! TO.P,U4,2*
X111600000Y-140335000D03*
G04 #@! TO.P,U4,3*
G04 #@! TO.N,Net-(RV2-Pad2)*
X111600000Y-141605000D03*
G04 #@! TO.P,U4,4*
G04 #@! TO.N,+5V*
X111600000Y-142875000D03*
G04 #@! TO.P,U4,5*
G04 #@! TO.N,Net-(RV2-Pad5)*
X111600000Y-144145000D03*
G04 #@! TO.P,U4,6*
G04 #@! TO.N,Net-(R18-Pad1)*
X111600000Y-145415000D03*
G04 #@! TO.P,U4,7*
X111600000Y-146685000D03*
G04 #@! TO.P,U4,8*
G04 #@! TO.N,Net-(JOUT1-Pad2)*
X117000000Y-146685000D03*
G04 #@! TO.P,U4,9*
G04 #@! TO.N,Net-(R17-Pad2)*
X117000000Y-145415000D03*
G04 #@! TO.P,U4,10*
G04 #@! TO.N,GNDS*
X117000000Y-144145000D03*
G04 #@! TO.P,U4,11*
G04 #@! TO.N,-5V*
X117000000Y-142875000D03*
G04 #@! TO.P,U4,12*
G04 #@! TO.N,GNDS*
X117000000Y-141605000D03*
G04 #@! TO.P,U4,13*
G04 #@! TO.N,Net-(R10-Pad2)*
X117000000Y-140335000D03*
G04 #@! TO.P,U4,14*
G04 #@! TO.N,Net-(JOUT1-Pad3)*
X117000000Y-139065000D03*
G04 #@! TD*
D12*
G04 #@! TO.N,GNDS*
G04 #@! TO.C,C1*
G36*
X92721958Y-135570710D02*
X92736276Y-135572834D01*
X92750317Y-135576351D01*
X92763946Y-135581228D01*
X92777031Y-135587417D01*
X92789447Y-135594858D01*
X92801073Y-135603481D01*
X92811798Y-135613202D01*
X92821519Y-135623927D01*
X92830142Y-135635553D01*
X92837583Y-135647969D01*
X92843772Y-135661054D01*
X92848649Y-135674683D01*
X92852166Y-135688724D01*
X92854290Y-135703042D01*
X92855000Y-135717500D01*
X92855000Y-136062500D01*
X92854290Y-136076958D01*
X92852166Y-136091276D01*
X92848649Y-136105317D01*
X92843772Y-136118946D01*
X92837583Y-136132031D01*
X92830142Y-136144447D01*
X92821519Y-136156073D01*
X92811798Y-136166798D01*
X92801073Y-136176519D01*
X92789447Y-136185142D01*
X92777031Y-136192583D01*
X92763946Y-136198772D01*
X92750317Y-136203649D01*
X92736276Y-136207166D01*
X92721958Y-136209290D01*
X92707500Y-136210000D01*
X92412500Y-136210000D01*
X92398042Y-136209290D01*
X92383724Y-136207166D01*
X92369683Y-136203649D01*
X92356054Y-136198772D01*
X92342969Y-136192583D01*
X92330553Y-136185142D01*
X92318927Y-136176519D01*
X92308202Y-136166798D01*
X92298481Y-136156073D01*
X92289858Y-136144447D01*
X92282417Y-136132031D01*
X92276228Y-136118946D01*
X92271351Y-136105317D01*
X92267834Y-136091276D01*
X92265710Y-136076958D01*
X92265000Y-136062500D01*
X92265000Y-135717500D01*
X92265710Y-135703042D01*
X92267834Y-135688724D01*
X92271351Y-135674683D01*
X92276228Y-135661054D01*
X92282417Y-135647969D01*
X92289858Y-135635553D01*
X92298481Y-135623927D01*
X92308202Y-135613202D01*
X92318927Y-135603481D01*
X92330553Y-135594858D01*
X92342969Y-135587417D01*
X92356054Y-135581228D01*
X92369683Y-135576351D01*
X92383724Y-135572834D01*
X92398042Y-135570710D01*
X92412500Y-135570000D01*
X92707500Y-135570000D01*
X92721958Y-135570710D01*
X92721958Y-135570710D01*
G37*
D20*
G04 #@! TD*
G04 #@! TO.P,C1,2*
G04 #@! TO.N,GNDS*
X92560000Y-135890000D03*
D12*
G04 #@! TO.N,+5V*
G04 #@! TO.C,C1*
G36*
X91751958Y-135570710D02*
X91766276Y-135572834D01*
X91780317Y-135576351D01*
X91793946Y-135581228D01*
X91807031Y-135587417D01*
X91819447Y-135594858D01*
X91831073Y-135603481D01*
X91841798Y-135613202D01*
X91851519Y-135623927D01*
X91860142Y-135635553D01*
X91867583Y-135647969D01*
X91873772Y-135661054D01*
X91878649Y-135674683D01*
X91882166Y-135688724D01*
X91884290Y-135703042D01*
X91885000Y-135717500D01*
X91885000Y-136062500D01*
X91884290Y-136076958D01*
X91882166Y-136091276D01*
X91878649Y-136105317D01*
X91873772Y-136118946D01*
X91867583Y-136132031D01*
X91860142Y-136144447D01*
X91851519Y-136156073D01*
X91841798Y-136166798D01*
X91831073Y-136176519D01*
X91819447Y-136185142D01*
X91807031Y-136192583D01*
X91793946Y-136198772D01*
X91780317Y-136203649D01*
X91766276Y-136207166D01*
X91751958Y-136209290D01*
X91737500Y-136210000D01*
X91442500Y-136210000D01*
X91428042Y-136209290D01*
X91413724Y-136207166D01*
X91399683Y-136203649D01*
X91386054Y-136198772D01*
X91372969Y-136192583D01*
X91360553Y-136185142D01*
X91348927Y-136176519D01*
X91338202Y-136166798D01*
X91328481Y-136156073D01*
X91319858Y-136144447D01*
X91312417Y-136132031D01*
X91306228Y-136118946D01*
X91301351Y-136105317D01*
X91297834Y-136091276D01*
X91295710Y-136076958D01*
X91295000Y-136062500D01*
X91295000Y-135717500D01*
X91295710Y-135703042D01*
X91297834Y-135688724D01*
X91301351Y-135674683D01*
X91306228Y-135661054D01*
X91312417Y-135647969D01*
X91319858Y-135635553D01*
X91328481Y-135623927D01*
X91338202Y-135613202D01*
X91348927Y-135603481D01*
X91360553Y-135594858D01*
X91372969Y-135587417D01*
X91386054Y-135581228D01*
X91399683Y-135576351D01*
X91413724Y-135572834D01*
X91428042Y-135570710D01*
X91442500Y-135570000D01*
X91737500Y-135570000D01*
X91751958Y-135570710D01*
X91751958Y-135570710D01*
G37*
D20*
G04 #@! TD*
G04 #@! TO.P,C1,1*
G04 #@! TO.N,+5V*
X91590000Y-135890000D03*
D12*
G04 #@! TO.N,-5V*
G04 #@! TO.C,C2*
G36*
X84006958Y-142603710D02*
X84021276Y-142605834D01*
X84035317Y-142609351D01*
X84048946Y-142614228D01*
X84062031Y-142620417D01*
X84074447Y-142627858D01*
X84086073Y-142636481D01*
X84096798Y-142646202D01*
X84106519Y-142656927D01*
X84115142Y-142668553D01*
X84122583Y-142680969D01*
X84128772Y-142694054D01*
X84133649Y-142707683D01*
X84137166Y-142721724D01*
X84139290Y-142736042D01*
X84140000Y-142750500D01*
X84140000Y-143045500D01*
X84139290Y-143059958D01*
X84137166Y-143074276D01*
X84133649Y-143088317D01*
X84128772Y-143101946D01*
X84122583Y-143115031D01*
X84115142Y-143127447D01*
X84106519Y-143139073D01*
X84096798Y-143149798D01*
X84086073Y-143159519D01*
X84074447Y-143168142D01*
X84062031Y-143175583D01*
X84048946Y-143181772D01*
X84035317Y-143186649D01*
X84021276Y-143190166D01*
X84006958Y-143192290D01*
X83992500Y-143193000D01*
X83647500Y-143193000D01*
X83633042Y-143192290D01*
X83618724Y-143190166D01*
X83604683Y-143186649D01*
X83591054Y-143181772D01*
X83577969Y-143175583D01*
X83565553Y-143168142D01*
X83553927Y-143159519D01*
X83543202Y-143149798D01*
X83533481Y-143139073D01*
X83524858Y-143127447D01*
X83517417Y-143115031D01*
X83511228Y-143101946D01*
X83506351Y-143088317D01*
X83502834Y-143074276D01*
X83500710Y-143059958D01*
X83500000Y-143045500D01*
X83500000Y-142750500D01*
X83500710Y-142736042D01*
X83502834Y-142721724D01*
X83506351Y-142707683D01*
X83511228Y-142694054D01*
X83517417Y-142680969D01*
X83524858Y-142668553D01*
X83533481Y-142656927D01*
X83543202Y-142646202D01*
X83553927Y-142636481D01*
X83565553Y-142627858D01*
X83577969Y-142620417D01*
X83591054Y-142614228D01*
X83604683Y-142609351D01*
X83618724Y-142605834D01*
X83633042Y-142603710D01*
X83647500Y-142603000D01*
X83992500Y-142603000D01*
X84006958Y-142603710D01*
X84006958Y-142603710D01*
G37*
D20*
G04 #@! TD*
G04 #@! TO.P,C2,1*
G04 #@! TO.N,-5V*
X83820000Y-142898000D03*
D12*
G04 #@! TO.N,GNDS*
G04 #@! TO.C,C2*
G36*
X84006958Y-143573710D02*
X84021276Y-143575834D01*
X84035317Y-143579351D01*
X84048946Y-143584228D01*
X84062031Y-143590417D01*
X84074447Y-143597858D01*
X84086073Y-143606481D01*
X84096798Y-143616202D01*
X84106519Y-143626927D01*
X84115142Y-143638553D01*
X84122583Y-143650969D01*
X84128772Y-143664054D01*
X84133649Y-143677683D01*
X84137166Y-143691724D01*
X84139290Y-143706042D01*
X84140000Y-143720500D01*
X84140000Y-144015500D01*
X84139290Y-144029958D01*
X84137166Y-144044276D01*
X84133649Y-144058317D01*
X84128772Y-144071946D01*
X84122583Y-144085031D01*
X84115142Y-144097447D01*
X84106519Y-144109073D01*
X84096798Y-144119798D01*
X84086073Y-144129519D01*
X84074447Y-144138142D01*
X84062031Y-144145583D01*
X84048946Y-144151772D01*
X84035317Y-144156649D01*
X84021276Y-144160166D01*
X84006958Y-144162290D01*
X83992500Y-144163000D01*
X83647500Y-144163000D01*
X83633042Y-144162290D01*
X83618724Y-144160166D01*
X83604683Y-144156649D01*
X83591054Y-144151772D01*
X83577969Y-144145583D01*
X83565553Y-144138142D01*
X83553927Y-144129519D01*
X83543202Y-144119798D01*
X83533481Y-144109073D01*
X83524858Y-144097447D01*
X83517417Y-144085031D01*
X83511228Y-144071946D01*
X83506351Y-144058317D01*
X83502834Y-144044276D01*
X83500710Y-144029958D01*
X83500000Y-144015500D01*
X83500000Y-143720500D01*
X83500710Y-143706042D01*
X83502834Y-143691724D01*
X83506351Y-143677683D01*
X83511228Y-143664054D01*
X83517417Y-143650969D01*
X83524858Y-143638553D01*
X83533481Y-143626927D01*
X83543202Y-143616202D01*
X83553927Y-143606481D01*
X83565553Y-143597858D01*
X83577969Y-143590417D01*
X83591054Y-143584228D01*
X83604683Y-143579351D01*
X83618724Y-143575834D01*
X83633042Y-143573710D01*
X83647500Y-143573000D01*
X83992500Y-143573000D01*
X84006958Y-143573710D01*
X84006958Y-143573710D01*
G37*
D20*
G04 #@! TD*
G04 #@! TO.P,C2,2*
G04 #@! TO.N,GNDS*
X83820000Y-143868000D03*
D12*
G04 #@! TO.N,+5V*
G04 #@! TO.C,C3*
G36*
X91751958Y-136840710D02*
X91766276Y-136842834D01*
X91780317Y-136846351D01*
X91793946Y-136851228D01*
X91807031Y-136857417D01*
X91819447Y-136864858D01*
X91831073Y-136873481D01*
X91841798Y-136883202D01*
X91851519Y-136893927D01*
X91860142Y-136905553D01*
X91867583Y-136917969D01*
X91873772Y-136931054D01*
X91878649Y-136944683D01*
X91882166Y-136958724D01*
X91884290Y-136973042D01*
X91885000Y-136987500D01*
X91885000Y-137332500D01*
X91884290Y-137346958D01*
X91882166Y-137361276D01*
X91878649Y-137375317D01*
X91873772Y-137388946D01*
X91867583Y-137402031D01*
X91860142Y-137414447D01*
X91851519Y-137426073D01*
X91841798Y-137436798D01*
X91831073Y-137446519D01*
X91819447Y-137455142D01*
X91807031Y-137462583D01*
X91793946Y-137468772D01*
X91780317Y-137473649D01*
X91766276Y-137477166D01*
X91751958Y-137479290D01*
X91737500Y-137480000D01*
X91442500Y-137480000D01*
X91428042Y-137479290D01*
X91413724Y-137477166D01*
X91399683Y-137473649D01*
X91386054Y-137468772D01*
X91372969Y-137462583D01*
X91360553Y-137455142D01*
X91348927Y-137446519D01*
X91338202Y-137436798D01*
X91328481Y-137426073D01*
X91319858Y-137414447D01*
X91312417Y-137402031D01*
X91306228Y-137388946D01*
X91301351Y-137375317D01*
X91297834Y-137361276D01*
X91295710Y-137346958D01*
X91295000Y-137332500D01*
X91295000Y-136987500D01*
X91295710Y-136973042D01*
X91297834Y-136958724D01*
X91301351Y-136944683D01*
X91306228Y-136931054D01*
X91312417Y-136917969D01*
X91319858Y-136905553D01*
X91328481Y-136893927D01*
X91338202Y-136883202D01*
X91348927Y-136873481D01*
X91360553Y-136864858D01*
X91372969Y-136857417D01*
X91386054Y-136851228D01*
X91399683Y-136846351D01*
X91413724Y-136842834D01*
X91428042Y-136840710D01*
X91442500Y-136840000D01*
X91737500Y-136840000D01*
X91751958Y-136840710D01*
X91751958Y-136840710D01*
G37*
D20*
G04 #@! TD*
G04 #@! TO.P,C3,1*
G04 #@! TO.N,+5V*
X91590000Y-137160000D03*
D12*
G04 #@! TO.N,GNDS*
G04 #@! TO.C,C3*
G36*
X92721958Y-136840710D02*
X92736276Y-136842834D01*
X92750317Y-136846351D01*
X92763946Y-136851228D01*
X92777031Y-136857417D01*
X92789447Y-136864858D01*
X92801073Y-136873481D01*
X92811798Y-136883202D01*
X92821519Y-136893927D01*
X92830142Y-136905553D01*
X92837583Y-136917969D01*
X92843772Y-136931054D01*
X92848649Y-136944683D01*
X92852166Y-136958724D01*
X92854290Y-136973042D01*
X92855000Y-136987500D01*
X92855000Y-137332500D01*
X92854290Y-137346958D01*
X92852166Y-137361276D01*
X92848649Y-137375317D01*
X92843772Y-137388946D01*
X92837583Y-137402031D01*
X92830142Y-137414447D01*
X92821519Y-137426073D01*
X92811798Y-137436798D01*
X92801073Y-137446519D01*
X92789447Y-137455142D01*
X92777031Y-137462583D01*
X92763946Y-137468772D01*
X92750317Y-137473649D01*
X92736276Y-137477166D01*
X92721958Y-137479290D01*
X92707500Y-137480000D01*
X92412500Y-137480000D01*
X92398042Y-137479290D01*
X92383724Y-137477166D01*
X92369683Y-137473649D01*
X92356054Y-137468772D01*
X92342969Y-137462583D01*
X92330553Y-137455142D01*
X92318927Y-137446519D01*
X92308202Y-137436798D01*
X92298481Y-137426073D01*
X92289858Y-137414447D01*
X92282417Y-137402031D01*
X92276228Y-137388946D01*
X92271351Y-137375317D01*
X92267834Y-137361276D01*
X92265710Y-137346958D01*
X92265000Y-137332500D01*
X92265000Y-136987500D01*
X92265710Y-136973042D01*
X92267834Y-136958724D01*
X92271351Y-136944683D01*
X92276228Y-136931054D01*
X92282417Y-136917969D01*
X92289858Y-136905553D01*
X92298481Y-136893927D01*
X92308202Y-136883202D01*
X92318927Y-136873481D01*
X92330553Y-136864858D01*
X92342969Y-136857417D01*
X92356054Y-136851228D01*
X92369683Y-136846351D01*
X92383724Y-136842834D01*
X92398042Y-136840710D01*
X92412500Y-136840000D01*
X92707500Y-136840000D01*
X92721958Y-136840710D01*
X92721958Y-136840710D01*
G37*
D20*
G04 #@! TD*
G04 #@! TO.P,C3,2*
G04 #@! TO.N,GNDS*
X92560000Y-137160000D03*
D12*
G04 #@! TO.N,GNDS*
G04 #@! TO.C,C4*
G36*
X82736958Y-143573710D02*
X82751276Y-143575834D01*
X82765317Y-143579351D01*
X82778946Y-143584228D01*
X82792031Y-143590417D01*
X82804447Y-143597858D01*
X82816073Y-143606481D01*
X82826798Y-143616202D01*
X82836519Y-143626927D01*
X82845142Y-143638553D01*
X82852583Y-143650969D01*
X82858772Y-143664054D01*
X82863649Y-143677683D01*
X82867166Y-143691724D01*
X82869290Y-143706042D01*
X82870000Y-143720500D01*
X82870000Y-144015500D01*
X82869290Y-144029958D01*
X82867166Y-144044276D01*
X82863649Y-144058317D01*
X82858772Y-144071946D01*
X82852583Y-144085031D01*
X82845142Y-144097447D01*
X82836519Y-144109073D01*
X82826798Y-144119798D01*
X82816073Y-144129519D01*
X82804447Y-144138142D01*
X82792031Y-144145583D01*
X82778946Y-144151772D01*
X82765317Y-144156649D01*
X82751276Y-144160166D01*
X82736958Y-144162290D01*
X82722500Y-144163000D01*
X82377500Y-144163000D01*
X82363042Y-144162290D01*
X82348724Y-144160166D01*
X82334683Y-144156649D01*
X82321054Y-144151772D01*
X82307969Y-144145583D01*
X82295553Y-144138142D01*
X82283927Y-144129519D01*
X82273202Y-144119798D01*
X82263481Y-144109073D01*
X82254858Y-144097447D01*
X82247417Y-144085031D01*
X82241228Y-144071946D01*
X82236351Y-144058317D01*
X82232834Y-144044276D01*
X82230710Y-144029958D01*
X82230000Y-144015500D01*
X82230000Y-143720500D01*
X82230710Y-143706042D01*
X82232834Y-143691724D01*
X82236351Y-143677683D01*
X82241228Y-143664054D01*
X82247417Y-143650969D01*
X82254858Y-143638553D01*
X82263481Y-143626927D01*
X82273202Y-143616202D01*
X82283927Y-143606481D01*
X82295553Y-143597858D01*
X82307969Y-143590417D01*
X82321054Y-143584228D01*
X82334683Y-143579351D01*
X82348724Y-143575834D01*
X82363042Y-143573710D01*
X82377500Y-143573000D01*
X82722500Y-143573000D01*
X82736958Y-143573710D01*
X82736958Y-143573710D01*
G37*
D20*
G04 #@! TD*
G04 #@! TO.P,C4,2*
G04 #@! TO.N,GNDS*
X82550000Y-143868000D03*
D12*
G04 #@! TO.N,-5V*
G04 #@! TO.C,C4*
G36*
X82736958Y-142603710D02*
X82751276Y-142605834D01*
X82765317Y-142609351D01*
X82778946Y-142614228D01*
X82792031Y-142620417D01*
X82804447Y-142627858D01*
X82816073Y-142636481D01*
X82826798Y-142646202D01*
X82836519Y-142656927D01*
X82845142Y-142668553D01*
X82852583Y-142680969D01*
X82858772Y-142694054D01*
X82863649Y-142707683D01*
X82867166Y-142721724D01*
X82869290Y-142736042D01*
X82870000Y-142750500D01*
X82870000Y-143045500D01*
X82869290Y-143059958D01*
X82867166Y-143074276D01*
X82863649Y-143088317D01*
X82858772Y-143101946D01*
X82852583Y-143115031D01*
X82845142Y-143127447D01*
X82836519Y-143139073D01*
X82826798Y-143149798D01*
X82816073Y-143159519D01*
X82804447Y-143168142D01*
X82792031Y-143175583D01*
X82778946Y-143181772D01*
X82765317Y-143186649D01*
X82751276Y-143190166D01*
X82736958Y-143192290D01*
X82722500Y-143193000D01*
X82377500Y-143193000D01*
X82363042Y-143192290D01*
X82348724Y-143190166D01*
X82334683Y-143186649D01*
X82321054Y-143181772D01*
X82307969Y-143175583D01*
X82295553Y-143168142D01*
X82283927Y-143159519D01*
X82273202Y-143149798D01*
X82263481Y-143139073D01*
X82254858Y-143127447D01*
X82247417Y-143115031D01*
X82241228Y-143101946D01*
X82236351Y-143088317D01*
X82232834Y-143074276D01*
X82230710Y-143059958D01*
X82230000Y-143045500D01*
X82230000Y-142750500D01*
X82230710Y-142736042D01*
X82232834Y-142721724D01*
X82236351Y-142707683D01*
X82241228Y-142694054D01*
X82247417Y-142680969D01*
X82254858Y-142668553D01*
X82263481Y-142656927D01*
X82273202Y-142646202D01*
X82283927Y-142636481D01*
X82295553Y-142627858D01*
X82307969Y-142620417D01*
X82321054Y-142614228D01*
X82334683Y-142609351D01*
X82348724Y-142605834D01*
X82363042Y-142603710D01*
X82377500Y-142603000D01*
X82722500Y-142603000D01*
X82736958Y-142603710D01*
X82736958Y-142603710D01*
G37*
D20*
G04 #@! TD*
G04 #@! TO.P,C4,1*
G04 #@! TO.N,-5V*
X82550000Y-142898000D03*
D12*
G04 #@! TO.N,GNDS*
G04 #@! TO.C,C9*
G36*
X105421958Y-110805710D02*
X105436276Y-110807834D01*
X105450317Y-110811351D01*
X105463946Y-110816228D01*
X105477031Y-110822417D01*
X105489447Y-110829858D01*
X105501073Y-110838481D01*
X105511798Y-110848202D01*
X105521519Y-110858927D01*
X105530142Y-110870553D01*
X105537583Y-110882969D01*
X105543772Y-110896054D01*
X105548649Y-110909683D01*
X105552166Y-110923724D01*
X105554290Y-110938042D01*
X105555000Y-110952500D01*
X105555000Y-111297500D01*
X105554290Y-111311958D01*
X105552166Y-111326276D01*
X105548649Y-111340317D01*
X105543772Y-111353946D01*
X105537583Y-111367031D01*
X105530142Y-111379447D01*
X105521519Y-111391073D01*
X105511798Y-111401798D01*
X105501073Y-111411519D01*
X105489447Y-111420142D01*
X105477031Y-111427583D01*
X105463946Y-111433772D01*
X105450317Y-111438649D01*
X105436276Y-111442166D01*
X105421958Y-111444290D01*
X105407500Y-111445000D01*
X105112500Y-111445000D01*
X105098042Y-111444290D01*
X105083724Y-111442166D01*
X105069683Y-111438649D01*
X105056054Y-111433772D01*
X105042969Y-111427583D01*
X105030553Y-111420142D01*
X105018927Y-111411519D01*
X105008202Y-111401798D01*
X104998481Y-111391073D01*
X104989858Y-111379447D01*
X104982417Y-111367031D01*
X104976228Y-111353946D01*
X104971351Y-111340317D01*
X104967834Y-111326276D01*
X104965710Y-111311958D01*
X104965000Y-111297500D01*
X104965000Y-110952500D01*
X104965710Y-110938042D01*
X104967834Y-110923724D01*
X104971351Y-110909683D01*
X104976228Y-110896054D01*
X104982417Y-110882969D01*
X104989858Y-110870553D01*
X104998481Y-110858927D01*
X105008202Y-110848202D01*
X105018927Y-110838481D01*
X105030553Y-110829858D01*
X105042969Y-110822417D01*
X105056054Y-110816228D01*
X105069683Y-110811351D01*
X105083724Y-110807834D01*
X105098042Y-110805710D01*
X105112500Y-110805000D01*
X105407500Y-110805000D01*
X105421958Y-110805710D01*
X105421958Y-110805710D01*
G37*
D20*
G04 #@! TD*
G04 #@! TO.P,C9,2*
G04 #@! TO.N,GNDS*
X105260000Y-111125000D03*
D12*
G04 #@! TO.N,+5V*
G04 #@! TO.C,C9*
G36*
X104451958Y-110805710D02*
X104466276Y-110807834D01*
X104480317Y-110811351D01*
X104493946Y-110816228D01*
X104507031Y-110822417D01*
X104519447Y-110829858D01*
X104531073Y-110838481D01*
X104541798Y-110848202D01*
X104551519Y-110858927D01*
X104560142Y-110870553D01*
X104567583Y-110882969D01*
X104573772Y-110896054D01*
X104578649Y-110909683D01*
X104582166Y-110923724D01*
X104584290Y-110938042D01*
X104585000Y-110952500D01*
X104585000Y-111297500D01*
X104584290Y-111311958D01*
X104582166Y-111326276D01*
X104578649Y-111340317D01*
X104573772Y-111353946D01*
X104567583Y-111367031D01*
X104560142Y-111379447D01*
X104551519Y-111391073D01*
X104541798Y-111401798D01*
X104531073Y-111411519D01*
X104519447Y-111420142D01*
X104507031Y-111427583D01*
X104493946Y-111433772D01*
X104480317Y-111438649D01*
X104466276Y-111442166D01*
X104451958Y-111444290D01*
X104437500Y-111445000D01*
X104142500Y-111445000D01*
X104128042Y-111444290D01*
X104113724Y-111442166D01*
X104099683Y-111438649D01*
X104086054Y-111433772D01*
X104072969Y-111427583D01*
X104060553Y-111420142D01*
X104048927Y-111411519D01*
X104038202Y-111401798D01*
X104028481Y-111391073D01*
X104019858Y-111379447D01*
X104012417Y-111367031D01*
X104006228Y-111353946D01*
X104001351Y-111340317D01*
X103997834Y-111326276D01*
X103995710Y-111311958D01*
X103995000Y-111297500D01*
X103995000Y-110952500D01*
X103995710Y-110938042D01*
X103997834Y-110923724D01*
X104001351Y-110909683D01*
X104006228Y-110896054D01*
X104012417Y-110882969D01*
X104019858Y-110870553D01*
X104028481Y-110858927D01*
X104038202Y-110848202D01*
X104048927Y-110838481D01*
X104060553Y-110829858D01*
X104072969Y-110822417D01*
X104086054Y-110816228D01*
X104099683Y-110811351D01*
X104113724Y-110807834D01*
X104128042Y-110805710D01*
X104142500Y-110805000D01*
X104437500Y-110805000D01*
X104451958Y-110805710D01*
X104451958Y-110805710D01*
G37*
D20*
G04 #@! TD*
G04 #@! TO.P,C9,1*
G04 #@! TO.N,+5V*
X104290000Y-111125000D03*
D12*
G04 #@! TO.N,-5V*
G04 #@! TO.C,C10*
G36*
X99071958Y-118425710D02*
X99086276Y-118427834D01*
X99100317Y-118431351D01*
X99113946Y-118436228D01*
X99127031Y-118442417D01*
X99139447Y-118449858D01*
X99151073Y-118458481D01*
X99161798Y-118468202D01*
X99171519Y-118478927D01*
X99180142Y-118490553D01*
X99187583Y-118502969D01*
X99193772Y-118516054D01*
X99198649Y-118529683D01*
X99202166Y-118543724D01*
X99204290Y-118558042D01*
X99205000Y-118572500D01*
X99205000Y-118917500D01*
X99204290Y-118931958D01*
X99202166Y-118946276D01*
X99198649Y-118960317D01*
X99193772Y-118973946D01*
X99187583Y-118987031D01*
X99180142Y-118999447D01*
X99171519Y-119011073D01*
X99161798Y-119021798D01*
X99151073Y-119031519D01*
X99139447Y-119040142D01*
X99127031Y-119047583D01*
X99113946Y-119053772D01*
X99100317Y-119058649D01*
X99086276Y-119062166D01*
X99071958Y-119064290D01*
X99057500Y-119065000D01*
X98762500Y-119065000D01*
X98748042Y-119064290D01*
X98733724Y-119062166D01*
X98719683Y-119058649D01*
X98706054Y-119053772D01*
X98692969Y-119047583D01*
X98680553Y-119040142D01*
X98668927Y-119031519D01*
X98658202Y-119021798D01*
X98648481Y-119011073D01*
X98639858Y-118999447D01*
X98632417Y-118987031D01*
X98626228Y-118973946D01*
X98621351Y-118960317D01*
X98617834Y-118946276D01*
X98615710Y-118931958D01*
X98615000Y-118917500D01*
X98615000Y-118572500D01*
X98615710Y-118558042D01*
X98617834Y-118543724D01*
X98621351Y-118529683D01*
X98626228Y-118516054D01*
X98632417Y-118502969D01*
X98639858Y-118490553D01*
X98648481Y-118478927D01*
X98658202Y-118468202D01*
X98668927Y-118458481D01*
X98680553Y-118449858D01*
X98692969Y-118442417D01*
X98706054Y-118436228D01*
X98719683Y-118431351D01*
X98733724Y-118427834D01*
X98748042Y-118425710D01*
X98762500Y-118425000D01*
X99057500Y-118425000D01*
X99071958Y-118425710D01*
X99071958Y-118425710D01*
G37*
D20*
G04 #@! TD*
G04 #@! TO.P,C10,1*
G04 #@! TO.N,-5V*
X98910000Y-118745000D03*
D12*
G04 #@! TO.N,GNDS*
G04 #@! TO.C,C10*
G36*
X98101958Y-118425710D02*
X98116276Y-118427834D01*
X98130317Y-118431351D01*
X98143946Y-118436228D01*
X98157031Y-118442417D01*
X98169447Y-118449858D01*
X98181073Y-118458481D01*
X98191798Y-118468202D01*
X98201519Y-118478927D01*
X98210142Y-118490553D01*
X98217583Y-118502969D01*
X98223772Y-118516054D01*
X98228649Y-118529683D01*
X98232166Y-118543724D01*
X98234290Y-118558042D01*
X98235000Y-118572500D01*
X98235000Y-118917500D01*
X98234290Y-118931958D01*
X98232166Y-118946276D01*
X98228649Y-118960317D01*
X98223772Y-118973946D01*
X98217583Y-118987031D01*
X98210142Y-118999447D01*
X98201519Y-119011073D01*
X98191798Y-119021798D01*
X98181073Y-119031519D01*
X98169447Y-119040142D01*
X98157031Y-119047583D01*
X98143946Y-119053772D01*
X98130317Y-119058649D01*
X98116276Y-119062166D01*
X98101958Y-119064290D01*
X98087500Y-119065000D01*
X97792500Y-119065000D01*
X97778042Y-119064290D01*
X97763724Y-119062166D01*
X97749683Y-119058649D01*
X97736054Y-119053772D01*
X97722969Y-119047583D01*
X97710553Y-119040142D01*
X97698927Y-119031519D01*
X97688202Y-119021798D01*
X97678481Y-119011073D01*
X97669858Y-118999447D01*
X97662417Y-118987031D01*
X97656228Y-118973946D01*
X97651351Y-118960317D01*
X97647834Y-118946276D01*
X97645710Y-118931958D01*
X97645000Y-118917500D01*
X97645000Y-118572500D01*
X97645710Y-118558042D01*
X97647834Y-118543724D01*
X97651351Y-118529683D01*
X97656228Y-118516054D01*
X97662417Y-118502969D01*
X97669858Y-118490553D01*
X97678481Y-118478927D01*
X97688202Y-118468202D01*
X97698927Y-118458481D01*
X97710553Y-118449858D01*
X97722969Y-118442417D01*
X97736054Y-118436228D01*
X97749683Y-118431351D01*
X97763724Y-118427834D01*
X97778042Y-118425710D01*
X97792500Y-118425000D01*
X98087500Y-118425000D01*
X98101958Y-118425710D01*
X98101958Y-118425710D01*
G37*
D20*
G04 #@! TD*
G04 #@! TO.P,C10,2*
G04 #@! TO.N,GNDS*
X97940000Y-118745000D03*
D12*
G04 #@! TO.N,+5V*
G04 #@! TO.C,C11*
G36*
X104451958Y-109535710D02*
X104466276Y-109537834D01*
X104480317Y-109541351D01*
X104493946Y-109546228D01*
X104507031Y-109552417D01*
X104519447Y-109559858D01*
X104531073Y-109568481D01*
X104541798Y-109578202D01*
X104551519Y-109588927D01*
X104560142Y-109600553D01*
X104567583Y-109612969D01*
X104573772Y-109626054D01*
X104578649Y-109639683D01*
X104582166Y-109653724D01*
X104584290Y-109668042D01*
X104585000Y-109682500D01*
X104585000Y-110027500D01*
X104584290Y-110041958D01*
X104582166Y-110056276D01*
X104578649Y-110070317D01*
X104573772Y-110083946D01*
X104567583Y-110097031D01*
X104560142Y-110109447D01*
X104551519Y-110121073D01*
X104541798Y-110131798D01*
X104531073Y-110141519D01*
X104519447Y-110150142D01*
X104507031Y-110157583D01*
X104493946Y-110163772D01*
X104480317Y-110168649D01*
X104466276Y-110172166D01*
X104451958Y-110174290D01*
X104437500Y-110175000D01*
X104142500Y-110175000D01*
X104128042Y-110174290D01*
X104113724Y-110172166D01*
X104099683Y-110168649D01*
X104086054Y-110163772D01*
X104072969Y-110157583D01*
X104060553Y-110150142D01*
X104048927Y-110141519D01*
X104038202Y-110131798D01*
X104028481Y-110121073D01*
X104019858Y-110109447D01*
X104012417Y-110097031D01*
X104006228Y-110083946D01*
X104001351Y-110070317D01*
X103997834Y-110056276D01*
X103995710Y-110041958D01*
X103995000Y-110027500D01*
X103995000Y-109682500D01*
X103995710Y-109668042D01*
X103997834Y-109653724D01*
X104001351Y-109639683D01*
X104006228Y-109626054D01*
X104012417Y-109612969D01*
X104019858Y-109600553D01*
X104028481Y-109588927D01*
X104038202Y-109578202D01*
X104048927Y-109568481D01*
X104060553Y-109559858D01*
X104072969Y-109552417D01*
X104086054Y-109546228D01*
X104099683Y-109541351D01*
X104113724Y-109537834D01*
X104128042Y-109535710D01*
X104142500Y-109535000D01*
X104437500Y-109535000D01*
X104451958Y-109535710D01*
X104451958Y-109535710D01*
G37*
D20*
G04 #@! TD*
G04 #@! TO.P,C11,1*
G04 #@! TO.N,+5V*
X104290000Y-109855000D03*
D12*
G04 #@! TO.N,GNDS*
G04 #@! TO.C,C11*
G36*
X105421958Y-109535710D02*
X105436276Y-109537834D01*
X105450317Y-109541351D01*
X105463946Y-109546228D01*
X105477031Y-109552417D01*
X105489447Y-109559858D01*
X105501073Y-109568481D01*
X105511798Y-109578202D01*
X105521519Y-109588927D01*
X105530142Y-109600553D01*
X105537583Y-109612969D01*
X105543772Y-109626054D01*
X105548649Y-109639683D01*
X105552166Y-109653724D01*
X105554290Y-109668042D01*
X105555000Y-109682500D01*
X105555000Y-110027500D01*
X105554290Y-110041958D01*
X105552166Y-110056276D01*
X105548649Y-110070317D01*
X105543772Y-110083946D01*
X105537583Y-110097031D01*
X105530142Y-110109447D01*
X105521519Y-110121073D01*
X105511798Y-110131798D01*
X105501073Y-110141519D01*
X105489447Y-110150142D01*
X105477031Y-110157583D01*
X105463946Y-110163772D01*
X105450317Y-110168649D01*
X105436276Y-110172166D01*
X105421958Y-110174290D01*
X105407500Y-110175000D01*
X105112500Y-110175000D01*
X105098042Y-110174290D01*
X105083724Y-110172166D01*
X105069683Y-110168649D01*
X105056054Y-110163772D01*
X105042969Y-110157583D01*
X105030553Y-110150142D01*
X105018927Y-110141519D01*
X105008202Y-110131798D01*
X104998481Y-110121073D01*
X104989858Y-110109447D01*
X104982417Y-110097031D01*
X104976228Y-110083946D01*
X104971351Y-110070317D01*
X104967834Y-110056276D01*
X104965710Y-110041958D01*
X104965000Y-110027500D01*
X104965000Y-109682500D01*
X104965710Y-109668042D01*
X104967834Y-109653724D01*
X104971351Y-109639683D01*
X104976228Y-109626054D01*
X104982417Y-109612969D01*
X104989858Y-109600553D01*
X104998481Y-109588927D01*
X105008202Y-109578202D01*
X105018927Y-109568481D01*
X105030553Y-109559858D01*
X105042969Y-109552417D01*
X105056054Y-109546228D01*
X105069683Y-109541351D01*
X105083724Y-109537834D01*
X105098042Y-109535710D01*
X105112500Y-109535000D01*
X105407500Y-109535000D01*
X105421958Y-109535710D01*
X105421958Y-109535710D01*
G37*
D20*
G04 #@! TD*
G04 #@! TO.P,C11,2*
G04 #@! TO.N,GNDS*
X105260000Y-109855000D03*
D12*
G04 #@! TO.N,GNDS*
G04 #@! TO.C,C12*
G36*
X98101958Y-119695710D02*
X98116276Y-119697834D01*
X98130317Y-119701351D01*
X98143946Y-119706228D01*
X98157031Y-119712417D01*
X98169447Y-119719858D01*
X98181073Y-119728481D01*
X98191798Y-119738202D01*
X98201519Y-119748927D01*
X98210142Y-119760553D01*
X98217583Y-119772969D01*
X98223772Y-119786054D01*
X98228649Y-119799683D01*
X98232166Y-119813724D01*
X98234290Y-119828042D01*
X98235000Y-119842500D01*
X98235000Y-120187500D01*
X98234290Y-120201958D01*
X98232166Y-120216276D01*
X98228649Y-120230317D01*
X98223772Y-120243946D01*
X98217583Y-120257031D01*
X98210142Y-120269447D01*
X98201519Y-120281073D01*
X98191798Y-120291798D01*
X98181073Y-120301519D01*
X98169447Y-120310142D01*
X98157031Y-120317583D01*
X98143946Y-120323772D01*
X98130317Y-120328649D01*
X98116276Y-120332166D01*
X98101958Y-120334290D01*
X98087500Y-120335000D01*
X97792500Y-120335000D01*
X97778042Y-120334290D01*
X97763724Y-120332166D01*
X97749683Y-120328649D01*
X97736054Y-120323772D01*
X97722969Y-120317583D01*
X97710553Y-120310142D01*
X97698927Y-120301519D01*
X97688202Y-120291798D01*
X97678481Y-120281073D01*
X97669858Y-120269447D01*
X97662417Y-120257031D01*
X97656228Y-120243946D01*
X97651351Y-120230317D01*
X97647834Y-120216276D01*
X97645710Y-120201958D01*
X97645000Y-120187500D01*
X97645000Y-119842500D01*
X97645710Y-119828042D01*
X97647834Y-119813724D01*
X97651351Y-119799683D01*
X97656228Y-119786054D01*
X97662417Y-119772969D01*
X97669858Y-119760553D01*
X97678481Y-119748927D01*
X97688202Y-119738202D01*
X97698927Y-119728481D01*
X97710553Y-119719858D01*
X97722969Y-119712417D01*
X97736054Y-119706228D01*
X97749683Y-119701351D01*
X97763724Y-119697834D01*
X97778042Y-119695710D01*
X97792500Y-119695000D01*
X98087500Y-119695000D01*
X98101958Y-119695710D01*
X98101958Y-119695710D01*
G37*
D20*
G04 #@! TD*
G04 #@! TO.P,C12,2*
G04 #@! TO.N,GNDS*
X97940000Y-120015000D03*
D12*
G04 #@! TO.N,-5V*
G04 #@! TO.C,C12*
G36*
X99071958Y-119695710D02*
X99086276Y-119697834D01*
X99100317Y-119701351D01*
X99113946Y-119706228D01*
X99127031Y-119712417D01*
X99139447Y-119719858D01*
X99151073Y-119728481D01*
X99161798Y-119738202D01*
X99171519Y-119748927D01*
X99180142Y-119760553D01*
X99187583Y-119772969D01*
X99193772Y-119786054D01*
X99198649Y-119799683D01*
X99202166Y-119813724D01*
X99204290Y-119828042D01*
X99205000Y-119842500D01*
X99205000Y-120187500D01*
X99204290Y-120201958D01*
X99202166Y-120216276D01*
X99198649Y-120230317D01*
X99193772Y-120243946D01*
X99187583Y-120257031D01*
X99180142Y-120269447D01*
X99171519Y-120281073D01*
X99161798Y-120291798D01*
X99151073Y-120301519D01*
X99139447Y-120310142D01*
X99127031Y-120317583D01*
X99113946Y-120323772D01*
X99100317Y-120328649D01*
X99086276Y-120332166D01*
X99071958Y-120334290D01*
X99057500Y-120335000D01*
X98762500Y-120335000D01*
X98748042Y-120334290D01*
X98733724Y-120332166D01*
X98719683Y-120328649D01*
X98706054Y-120323772D01*
X98692969Y-120317583D01*
X98680553Y-120310142D01*
X98668927Y-120301519D01*
X98658202Y-120291798D01*
X98648481Y-120281073D01*
X98639858Y-120269447D01*
X98632417Y-120257031D01*
X98626228Y-120243946D01*
X98621351Y-120230317D01*
X98617834Y-120216276D01*
X98615710Y-120201958D01*
X98615000Y-120187500D01*
X98615000Y-119842500D01*
X98615710Y-119828042D01*
X98617834Y-119813724D01*
X98621351Y-119799683D01*
X98626228Y-119786054D01*
X98632417Y-119772969D01*
X98639858Y-119760553D01*
X98648481Y-119748927D01*
X98658202Y-119738202D01*
X98668927Y-119728481D01*
X98680553Y-119719858D01*
X98692969Y-119712417D01*
X98706054Y-119706228D01*
X98719683Y-119701351D01*
X98733724Y-119697834D01*
X98748042Y-119695710D01*
X98762500Y-119695000D01*
X99057500Y-119695000D01*
X99071958Y-119695710D01*
X99071958Y-119695710D01*
G37*
D20*
G04 #@! TD*
G04 #@! TO.P,C12,1*
G04 #@! TO.N,-5V*
X98910000Y-120015000D03*
D12*
G04 #@! TO.N,GNDS*
G04 #@! TO.C,C13*
G36*
X108261958Y-143825710D02*
X108276276Y-143827834D01*
X108290317Y-143831351D01*
X108303946Y-143836228D01*
X108317031Y-143842417D01*
X108329447Y-143849858D01*
X108341073Y-143858481D01*
X108351798Y-143868202D01*
X108361519Y-143878927D01*
X108370142Y-143890553D01*
X108377583Y-143902969D01*
X108383772Y-143916054D01*
X108388649Y-143929683D01*
X108392166Y-143943724D01*
X108394290Y-143958042D01*
X108395000Y-143972500D01*
X108395000Y-144317500D01*
X108394290Y-144331958D01*
X108392166Y-144346276D01*
X108388649Y-144360317D01*
X108383772Y-144373946D01*
X108377583Y-144387031D01*
X108370142Y-144399447D01*
X108361519Y-144411073D01*
X108351798Y-144421798D01*
X108341073Y-144431519D01*
X108329447Y-144440142D01*
X108317031Y-144447583D01*
X108303946Y-144453772D01*
X108290317Y-144458649D01*
X108276276Y-144462166D01*
X108261958Y-144464290D01*
X108247500Y-144465000D01*
X107952500Y-144465000D01*
X107938042Y-144464290D01*
X107923724Y-144462166D01*
X107909683Y-144458649D01*
X107896054Y-144453772D01*
X107882969Y-144447583D01*
X107870553Y-144440142D01*
X107858927Y-144431519D01*
X107848202Y-144421798D01*
X107838481Y-144411073D01*
X107829858Y-144399447D01*
X107822417Y-144387031D01*
X107816228Y-144373946D01*
X107811351Y-144360317D01*
X107807834Y-144346276D01*
X107805710Y-144331958D01*
X107805000Y-144317500D01*
X107805000Y-143972500D01*
X107805710Y-143958042D01*
X107807834Y-143943724D01*
X107811351Y-143929683D01*
X107816228Y-143916054D01*
X107822417Y-143902969D01*
X107829858Y-143890553D01*
X107838481Y-143878927D01*
X107848202Y-143868202D01*
X107858927Y-143858481D01*
X107870553Y-143849858D01*
X107882969Y-143842417D01*
X107896054Y-143836228D01*
X107909683Y-143831351D01*
X107923724Y-143827834D01*
X107938042Y-143825710D01*
X107952500Y-143825000D01*
X108247500Y-143825000D01*
X108261958Y-143825710D01*
X108261958Y-143825710D01*
G37*
D20*
G04 #@! TD*
G04 #@! TO.P,C13,2*
G04 #@! TO.N,GNDS*
X108100000Y-144145000D03*
D12*
G04 #@! TO.N,+5V*
G04 #@! TO.C,C13*
G36*
X109231958Y-143825710D02*
X109246276Y-143827834D01*
X109260317Y-143831351D01*
X109273946Y-143836228D01*
X109287031Y-143842417D01*
X109299447Y-143849858D01*
X109311073Y-143858481D01*
X109321798Y-143868202D01*
X109331519Y-143878927D01*
X109340142Y-143890553D01*
X109347583Y-143902969D01*
X109353772Y-143916054D01*
X109358649Y-143929683D01*
X109362166Y-143943724D01*
X109364290Y-143958042D01*
X109365000Y-143972500D01*
X109365000Y-144317500D01*
X109364290Y-144331958D01*
X109362166Y-144346276D01*
X109358649Y-144360317D01*
X109353772Y-144373946D01*
X109347583Y-144387031D01*
X109340142Y-144399447D01*
X109331519Y-144411073D01*
X109321798Y-144421798D01*
X109311073Y-144431519D01*
X109299447Y-144440142D01*
X109287031Y-144447583D01*
X109273946Y-144453772D01*
X109260317Y-144458649D01*
X109246276Y-144462166D01*
X109231958Y-144464290D01*
X109217500Y-144465000D01*
X108922500Y-144465000D01*
X108908042Y-144464290D01*
X108893724Y-144462166D01*
X108879683Y-144458649D01*
X108866054Y-144453772D01*
X108852969Y-144447583D01*
X108840553Y-144440142D01*
X108828927Y-144431519D01*
X108818202Y-144421798D01*
X108808481Y-144411073D01*
X108799858Y-144399447D01*
X108792417Y-144387031D01*
X108786228Y-144373946D01*
X108781351Y-144360317D01*
X108777834Y-144346276D01*
X108775710Y-144331958D01*
X108775000Y-144317500D01*
X108775000Y-143972500D01*
X108775710Y-143958042D01*
X108777834Y-143943724D01*
X108781351Y-143929683D01*
X108786228Y-143916054D01*
X108792417Y-143902969D01*
X108799858Y-143890553D01*
X108808481Y-143878927D01*
X108818202Y-143868202D01*
X108828927Y-143858481D01*
X108840553Y-143849858D01*
X108852969Y-143842417D01*
X108866054Y-143836228D01*
X108879683Y-143831351D01*
X108893724Y-143827834D01*
X108908042Y-143825710D01*
X108922500Y-143825000D01*
X109217500Y-143825000D01*
X109231958Y-143825710D01*
X109231958Y-143825710D01*
G37*
D20*
G04 #@! TD*
G04 #@! TO.P,C13,1*
G04 #@! TO.N,+5V*
X109070000Y-144145000D03*
D12*
G04 #@! TO.N,-5V*
G04 #@! TO.C,C14*
G36*
X120961958Y-143825710D02*
X120976276Y-143827834D01*
X120990317Y-143831351D01*
X121003946Y-143836228D01*
X121017031Y-143842417D01*
X121029447Y-143849858D01*
X121041073Y-143858481D01*
X121051798Y-143868202D01*
X121061519Y-143878927D01*
X121070142Y-143890553D01*
X121077583Y-143902969D01*
X121083772Y-143916054D01*
X121088649Y-143929683D01*
X121092166Y-143943724D01*
X121094290Y-143958042D01*
X121095000Y-143972500D01*
X121095000Y-144317500D01*
X121094290Y-144331958D01*
X121092166Y-144346276D01*
X121088649Y-144360317D01*
X121083772Y-144373946D01*
X121077583Y-144387031D01*
X121070142Y-144399447D01*
X121061519Y-144411073D01*
X121051798Y-144421798D01*
X121041073Y-144431519D01*
X121029447Y-144440142D01*
X121017031Y-144447583D01*
X121003946Y-144453772D01*
X120990317Y-144458649D01*
X120976276Y-144462166D01*
X120961958Y-144464290D01*
X120947500Y-144465000D01*
X120652500Y-144465000D01*
X120638042Y-144464290D01*
X120623724Y-144462166D01*
X120609683Y-144458649D01*
X120596054Y-144453772D01*
X120582969Y-144447583D01*
X120570553Y-144440142D01*
X120558927Y-144431519D01*
X120548202Y-144421798D01*
X120538481Y-144411073D01*
X120529858Y-144399447D01*
X120522417Y-144387031D01*
X120516228Y-144373946D01*
X120511351Y-144360317D01*
X120507834Y-144346276D01*
X120505710Y-144331958D01*
X120505000Y-144317500D01*
X120505000Y-143972500D01*
X120505710Y-143958042D01*
X120507834Y-143943724D01*
X120511351Y-143929683D01*
X120516228Y-143916054D01*
X120522417Y-143902969D01*
X120529858Y-143890553D01*
X120538481Y-143878927D01*
X120548202Y-143868202D01*
X120558927Y-143858481D01*
X120570553Y-143849858D01*
X120582969Y-143842417D01*
X120596054Y-143836228D01*
X120609683Y-143831351D01*
X120623724Y-143827834D01*
X120638042Y-143825710D01*
X120652500Y-143825000D01*
X120947500Y-143825000D01*
X120961958Y-143825710D01*
X120961958Y-143825710D01*
G37*
D20*
G04 #@! TD*
G04 #@! TO.P,C14,1*
G04 #@! TO.N,-5V*
X120800000Y-144145000D03*
D12*
G04 #@! TO.N,GNDS*
G04 #@! TO.C,C14*
G36*
X121931958Y-143825710D02*
X121946276Y-143827834D01*
X121960317Y-143831351D01*
X121973946Y-143836228D01*
X121987031Y-143842417D01*
X121999447Y-143849858D01*
X122011073Y-143858481D01*
X122021798Y-143868202D01*
X122031519Y-143878927D01*
X122040142Y-143890553D01*
X122047583Y-143902969D01*
X122053772Y-143916054D01*
X122058649Y-143929683D01*
X122062166Y-143943724D01*
X122064290Y-143958042D01*
X122065000Y-143972500D01*
X122065000Y-144317500D01*
X122064290Y-144331958D01*
X122062166Y-144346276D01*
X122058649Y-144360317D01*
X122053772Y-144373946D01*
X122047583Y-144387031D01*
X122040142Y-144399447D01*
X122031519Y-144411073D01*
X122021798Y-144421798D01*
X122011073Y-144431519D01*
X121999447Y-144440142D01*
X121987031Y-144447583D01*
X121973946Y-144453772D01*
X121960317Y-144458649D01*
X121946276Y-144462166D01*
X121931958Y-144464290D01*
X121917500Y-144465000D01*
X121622500Y-144465000D01*
X121608042Y-144464290D01*
X121593724Y-144462166D01*
X121579683Y-144458649D01*
X121566054Y-144453772D01*
X121552969Y-144447583D01*
X121540553Y-144440142D01*
X121528927Y-144431519D01*
X121518202Y-144421798D01*
X121508481Y-144411073D01*
X121499858Y-144399447D01*
X121492417Y-144387031D01*
X121486228Y-144373946D01*
X121481351Y-144360317D01*
X121477834Y-144346276D01*
X121475710Y-144331958D01*
X121475000Y-144317500D01*
X121475000Y-143972500D01*
X121475710Y-143958042D01*
X121477834Y-143943724D01*
X121481351Y-143929683D01*
X121486228Y-143916054D01*
X121492417Y-143902969D01*
X121499858Y-143890553D01*
X121508481Y-143878927D01*
X121518202Y-143868202D01*
X121528927Y-143858481D01*
X121540553Y-143849858D01*
X121552969Y-143842417D01*
X121566054Y-143836228D01*
X121579683Y-143831351D01*
X121593724Y-143827834D01*
X121608042Y-143825710D01*
X121622500Y-143825000D01*
X121917500Y-143825000D01*
X121931958Y-143825710D01*
X121931958Y-143825710D01*
G37*
D20*
G04 #@! TD*
G04 #@! TO.P,C14,2*
G04 #@! TO.N,GNDS*
X121770000Y-144145000D03*
D12*
G04 #@! TO.N,+5V*
G04 #@! TO.C,C15*
G36*
X109231958Y-142555710D02*
X109246276Y-142557834D01*
X109260317Y-142561351D01*
X109273946Y-142566228D01*
X109287031Y-142572417D01*
X109299447Y-142579858D01*
X109311073Y-142588481D01*
X109321798Y-142598202D01*
X109331519Y-142608927D01*
X109340142Y-142620553D01*
X109347583Y-142632969D01*
X109353772Y-142646054D01*
X109358649Y-142659683D01*
X109362166Y-142673724D01*
X109364290Y-142688042D01*
X109365000Y-142702500D01*
X109365000Y-143047500D01*
X109364290Y-143061958D01*
X109362166Y-143076276D01*
X109358649Y-143090317D01*
X109353772Y-143103946D01*
X109347583Y-143117031D01*
X109340142Y-143129447D01*
X109331519Y-143141073D01*
X109321798Y-143151798D01*
X109311073Y-143161519D01*
X109299447Y-143170142D01*
X109287031Y-143177583D01*
X109273946Y-143183772D01*
X109260317Y-143188649D01*
X109246276Y-143192166D01*
X109231958Y-143194290D01*
X109217500Y-143195000D01*
X108922500Y-143195000D01*
X108908042Y-143194290D01*
X108893724Y-143192166D01*
X108879683Y-143188649D01*
X108866054Y-143183772D01*
X108852969Y-143177583D01*
X108840553Y-143170142D01*
X108828927Y-143161519D01*
X108818202Y-143151798D01*
X108808481Y-143141073D01*
X108799858Y-143129447D01*
X108792417Y-143117031D01*
X108786228Y-143103946D01*
X108781351Y-143090317D01*
X108777834Y-143076276D01*
X108775710Y-143061958D01*
X108775000Y-143047500D01*
X108775000Y-142702500D01*
X108775710Y-142688042D01*
X108777834Y-142673724D01*
X108781351Y-142659683D01*
X108786228Y-142646054D01*
X108792417Y-142632969D01*
X108799858Y-142620553D01*
X108808481Y-142608927D01*
X108818202Y-142598202D01*
X108828927Y-142588481D01*
X108840553Y-142579858D01*
X108852969Y-142572417D01*
X108866054Y-142566228D01*
X108879683Y-142561351D01*
X108893724Y-142557834D01*
X108908042Y-142555710D01*
X108922500Y-142555000D01*
X109217500Y-142555000D01*
X109231958Y-142555710D01*
X109231958Y-142555710D01*
G37*
D20*
G04 #@! TD*
G04 #@! TO.P,C15,1*
G04 #@! TO.N,+5V*
X109070000Y-142875000D03*
D12*
G04 #@! TO.N,GNDS*
G04 #@! TO.C,C15*
G36*
X108261958Y-142555710D02*
X108276276Y-142557834D01*
X108290317Y-142561351D01*
X108303946Y-142566228D01*
X108317031Y-142572417D01*
X108329447Y-142579858D01*
X108341073Y-142588481D01*
X108351798Y-142598202D01*
X108361519Y-142608927D01*
X108370142Y-142620553D01*
X108377583Y-142632969D01*
X108383772Y-142646054D01*
X108388649Y-142659683D01*
X108392166Y-142673724D01*
X108394290Y-142688042D01*
X108395000Y-142702500D01*
X108395000Y-143047500D01*
X108394290Y-143061958D01*
X108392166Y-143076276D01*
X108388649Y-143090317D01*
X108383772Y-143103946D01*
X108377583Y-143117031D01*
X108370142Y-143129447D01*
X108361519Y-143141073D01*
X108351798Y-143151798D01*
X108341073Y-143161519D01*
X108329447Y-143170142D01*
X108317031Y-143177583D01*
X108303946Y-143183772D01*
X108290317Y-143188649D01*
X108276276Y-143192166D01*
X108261958Y-143194290D01*
X108247500Y-143195000D01*
X107952500Y-143195000D01*
X107938042Y-143194290D01*
X107923724Y-143192166D01*
X107909683Y-143188649D01*
X107896054Y-143183772D01*
X107882969Y-143177583D01*
X107870553Y-143170142D01*
X107858927Y-143161519D01*
X107848202Y-143151798D01*
X107838481Y-143141073D01*
X107829858Y-143129447D01*
X107822417Y-143117031D01*
X107816228Y-143103946D01*
X107811351Y-143090317D01*
X107807834Y-143076276D01*
X107805710Y-143061958D01*
X107805000Y-143047500D01*
X107805000Y-142702500D01*
X107805710Y-142688042D01*
X107807834Y-142673724D01*
X107811351Y-142659683D01*
X107816228Y-142646054D01*
X107822417Y-142632969D01*
X107829858Y-142620553D01*
X107838481Y-142608927D01*
X107848202Y-142598202D01*
X107858927Y-142588481D01*
X107870553Y-142579858D01*
X107882969Y-142572417D01*
X107896054Y-142566228D01*
X107909683Y-142561351D01*
X107923724Y-142557834D01*
X107938042Y-142555710D01*
X107952500Y-142555000D01*
X108247500Y-142555000D01*
X108261958Y-142555710D01*
X108261958Y-142555710D01*
G37*
D20*
G04 #@! TD*
G04 #@! TO.P,C15,2*
G04 #@! TO.N,GNDS*
X108100000Y-142875000D03*
D12*
G04 #@! TO.N,GNDS*
G04 #@! TO.C,C16*
G36*
X121931958Y-142555710D02*
X121946276Y-142557834D01*
X121960317Y-142561351D01*
X121973946Y-142566228D01*
X121987031Y-142572417D01*
X121999447Y-142579858D01*
X122011073Y-142588481D01*
X122021798Y-142598202D01*
X122031519Y-142608927D01*
X122040142Y-142620553D01*
X122047583Y-142632969D01*
X122053772Y-142646054D01*
X122058649Y-142659683D01*
X122062166Y-142673724D01*
X122064290Y-142688042D01*
X122065000Y-142702500D01*
X122065000Y-143047500D01*
X122064290Y-143061958D01*
X122062166Y-143076276D01*
X122058649Y-143090317D01*
X122053772Y-143103946D01*
X122047583Y-143117031D01*
X122040142Y-143129447D01*
X122031519Y-143141073D01*
X122021798Y-143151798D01*
X122011073Y-143161519D01*
X121999447Y-143170142D01*
X121987031Y-143177583D01*
X121973946Y-143183772D01*
X121960317Y-143188649D01*
X121946276Y-143192166D01*
X121931958Y-143194290D01*
X121917500Y-143195000D01*
X121622500Y-143195000D01*
X121608042Y-143194290D01*
X121593724Y-143192166D01*
X121579683Y-143188649D01*
X121566054Y-143183772D01*
X121552969Y-143177583D01*
X121540553Y-143170142D01*
X121528927Y-143161519D01*
X121518202Y-143151798D01*
X121508481Y-143141073D01*
X121499858Y-143129447D01*
X121492417Y-143117031D01*
X121486228Y-143103946D01*
X121481351Y-143090317D01*
X121477834Y-143076276D01*
X121475710Y-143061958D01*
X121475000Y-143047500D01*
X121475000Y-142702500D01*
X121475710Y-142688042D01*
X121477834Y-142673724D01*
X121481351Y-142659683D01*
X121486228Y-142646054D01*
X121492417Y-142632969D01*
X121499858Y-142620553D01*
X121508481Y-142608927D01*
X121518202Y-142598202D01*
X121528927Y-142588481D01*
X121540553Y-142579858D01*
X121552969Y-142572417D01*
X121566054Y-142566228D01*
X121579683Y-142561351D01*
X121593724Y-142557834D01*
X121608042Y-142555710D01*
X121622500Y-142555000D01*
X121917500Y-142555000D01*
X121931958Y-142555710D01*
X121931958Y-142555710D01*
G37*
D20*
G04 #@! TD*
G04 #@! TO.P,C16,2*
G04 #@! TO.N,GNDS*
X121770000Y-142875000D03*
D12*
G04 #@! TO.N,-5V*
G04 #@! TO.C,C16*
G36*
X120961958Y-142555710D02*
X120976276Y-142557834D01*
X120990317Y-142561351D01*
X121003946Y-142566228D01*
X121017031Y-142572417D01*
X121029447Y-142579858D01*
X121041073Y-142588481D01*
X121051798Y-142598202D01*
X121061519Y-142608927D01*
X121070142Y-142620553D01*
X121077583Y-142632969D01*
X121083772Y-142646054D01*
X121088649Y-142659683D01*
X121092166Y-142673724D01*
X121094290Y-142688042D01*
X121095000Y-142702500D01*
X121095000Y-143047500D01*
X121094290Y-143061958D01*
X121092166Y-143076276D01*
X121088649Y-143090317D01*
X121083772Y-143103946D01*
X121077583Y-143117031D01*
X121070142Y-143129447D01*
X121061519Y-143141073D01*
X121051798Y-143151798D01*
X121041073Y-143161519D01*
X121029447Y-143170142D01*
X121017031Y-143177583D01*
X121003946Y-143183772D01*
X120990317Y-143188649D01*
X120976276Y-143192166D01*
X120961958Y-143194290D01*
X120947500Y-143195000D01*
X120652500Y-143195000D01*
X120638042Y-143194290D01*
X120623724Y-143192166D01*
X120609683Y-143188649D01*
X120596054Y-143183772D01*
X120582969Y-143177583D01*
X120570553Y-143170142D01*
X120558927Y-143161519D01*
X120548202Y-143151798D01*
X120538481Y-143141073D01*
X120529858Y-143129447D01*
X120522417Y-143117031D01*
X120516228Y-143103946D01*
X120511351Y-143090317D01*
X120507834Y-143076276D01*
X120505710Y-143061958D01*
X120505000Y-143047500D01*
X120505000Y-142702500D01*
X120505710Y-142688042D01*
X120507834Y-142673724D01*
X120511351Y-142659683D01*
X120516228Y-142646054D01*
X120522417Y-142632969D01*
X120529858Y-142620553D01*
X120538481Y-142608927D01*
X120548202Y-142598202D01*
X120558927Y-142588481D01*
X120570553Y-142579858D01*
X120582969Y-142572417D01*
X120596054Y-142566228D01*
X120609683Y-142561351D01*
X120623724Y-142557834D01*
X120638042Y-142555710D01*
X120652500Y-142555000D01*
X120947500Y-142555000D01*
X120961958Y-142555710D01*
X120961958Y-142555710D01*
G37*
D20*
G04 #@! TD*
G04 #@! TO.P,C16,1*
G04 #@! TO.N,-5V*
X120800000Y-142875000D03*
D21*
G04 #@! TO.P,RV1,*
G04 #@! TO.N,*
X91150000Y-101050000D03*
X81650000Y-101050000D03*
D22*
G04 #@! TO.P,RV1,4*
G04 #@! TO.N,Net-(JIN1-Pad3)*
X88900000Y-97750000D03*
G04 #@! TO.P,RV1,5*
G04 #@! TO.N,Net-(R2-Pad1)*
X86400000Y-97750000D03*
G04 #@! TO.P,RV1,6*
G04 #@! TO.N,GNDS*
X83900000Y-97750000D03*
G04 #@! TO.P,RV1,1*
G04 #@! TO.N,Net-(JIN1-Pad2)*
X88900000Y-95250000D03*
G04 #@! TO.P,RV1,2*
G04 #@! TO.N,Net-(R1-Pad1)*
X86400000Y-95250000D03*
G04 #@! TO.P,RV1,3*
G04 #@! TO.N,GNDS*
X83900000Y-95250000D03*
G04 #@! TD*
G04 #@! TO.P,RV2,3*
G04 #@! TO.N,Net-(R5-Pad2)*
X114380000Y-95250000D03*
G04 #@! TO.P,RV2,2*
G04 #@! TO.N,Net-(RV2-Pad2)*
X116880000Y-95250000D03*
G04 #@! TO.P,RV2,1*
G04 #@! TO.N,/PA4_DAC_OUT1*
X119380000Y-95250000D03*
G04 #@! TO.P,RV2,6*
G04 #@! TO.N,Net-(R6-Pad2)*
X114380000Y-97750000D03*
G04 #@! TO.P,RV2,5*
G04 #@! TO.N,Net-(RV2-Pad5)*
X116880000Y-97750000D03*
G04 #@! TO.P,RV2,4*
G04 #@! TO.N,/PA5_DAC_OUT2*
X119380000Y-97750000D03*
D21*
G04 #@! TO.P,RV2,*
G04 #@! TO.N,*
X112130000Y-101050000D03*
X121630000Y-101050000D03*
G04 #@! TD*
D17*
G04 #@! TO.P,JAGND1,1*
G04 #@! TO.N,Net-(CN12-Pad32)*
X125730000Y-125730000D03*
D16*
G04 #@! TO.P,JAGND1,2*
G04 #@! TO.N,GNDS*
X125730000Y-128270000D03*
G04 #@! TD*
D12*
G04 #@! TO.N,/LM27762PSU/5V*
G04 #@! TO.C,C5*
G36*
X103247458Y-99326910D02*
X103261776Y-99329034D01*
X103275817Y-99332551D01*
X103289446Y-99337428D01*
X103302531Y-99343617D01*
X103314947Y-99351058D01*
X103326573Y-99359681D01*
X103337298Y-99369402D01*
X103347019Y-99380127D01*
X103355642Y-99391753D01*
X103363083Y-99404169D01*
X103369272Y-99417254D01*
X103374149Y-99430883D01*
X103377666Y-99444924D01*
X103379790Y-99459242D01*
X103380500Y-99473700D01*
X103380500Y-99768700D01*
X103379790Y-99783158D01*
X103377666Y-99797476D01*
X103374149Y-99811517D01*
X103369272Y-99825146D01*
X103363083Y-99838231D01*
X103355642Y-99850647D01*
X103347019Y-99862273D01*
X103337298Y-99872998D01*
X103326573Y-99882719D01*
X103314947Y-99891342D01*
X103302531Y-99898783D01*
X103289446Y-99904972D01*
X103275817Y-99909849D01*
X103261776Y-99913366D01*
X103247458Y-99915490D01*
X103233000Y-99916200D01*
X102888000Y-99916200D01*
X102873542Y-99915490D01*
X102859224Y-99913366D01*
X102845183Y-99909849D01*
X102831554Y-99904972D01*
X102818469Y-99898783D01*
X102806053Y-99891342D01*
X102794427Y-99882719D01*
X102783702Y-99872998D01*
X102773981Y-99862273D01*
X102765358Y-99850647D01*
X102757917Y-99838231D01*
X102751728Y-99825146D01*
X102746851Y-99811517D01*
X102743334Y-99797476D01*
X102741210Y-99783158D01*
X102740500Y-99768700D01*
X102740500Y-99473700D01*
X102741210Y-99459242D01*
X102743334Y-99444924D01*
X102746851Y-99430883D01*
X102751728Y-99417254D01*
X102757917Y-99404169D01*
X102765358Y-99391753D01*
X102773981Y-99380127D01*
X102783702Y-99369402D01*
X102794427Y-99359681D01*
X102806053Y-99351058D01*
X102818469Y-99343617D01*
X102831554Y-99337428D01*
X102845183Y-99332551D01*
X102859224Y-99329034D01*
X102873542Y-99326910D01*
X102888000Y-99326200D01*
X103233000Y-99326200D01*
X103247458Y-99326910D01*
X103247458Y-99326910D01*
G37*
D20*
G04 #@! TD*
G04 #@! TO.P,C5,1*
G04 #@! TO.N,/LM27762PSU/5V*
X103060500Y-99621200D03*
D12*
G04 #@! TO.N,GNDS*
G04 #@! TO.C,C5*
G36*
X103247458Y-98356910D02*
X103261776Y-98359034D01*
X103275817Y-98362551D01*
X103289446Y-98367428D01*
X103302531Y-98373617D01*
X103314947Y-98381058D01*
X103326573Y-98389681D01*
X103337298Y-98399402D01*
X103347019Y-98410127D01*
X103355642Y-98421753D01*
X103363083Y-98434169D01*
X103369272Y-98447254D01*
X103374149Y-98460883D01*
X103377666Y-98474924D01*
X103379790Y-98489242D01*
X103380500Y-98503700D01*
X103380500Y-98798700D01*
X103379790Y-98813158D01*
X103377666Y-98827476D01*
X103374149Y-98841517D01*
X103369272Y-98855146D01*
X103363083Y-98868231D01*
X103355642Y-98880647D01*
X103347019Y-98892273D01*
X103337298Y-98902998D01*
X103326573Y-98912719D01*
X103314947Y-98921342D01*
X103302531Y-98928783D01*
X103289446Y-98934972D01*
X103275817Y-98939849D01*
X103261776Y-98943366D01*
X103247458Y-98945490D01*
X103233000Y-98946200D01*
X102888000Y-98946200D01*
X102873542Y-98945490D01*
X102859224Y-98943366D01*
X102845183Y-98939849D01*
X102831554Y-98934972D01*
X102818469Y-98928783D01*
X102806053Y-98921342D01*
X102794427Y-98912719D01*
X102783702Y-98902998D01*
X102773981Y-98892273D01*
X102765358Y-98880647D01*
X102757917Y-98868231D01*
X102751728Y-98855146D01*
X102746851Y-98841517D01*
X102743334Y-98827476D01*
X102741210Y-98813158D01*
X102740500Y-98798700D01*
X102740500Y-98503700D01*
X102741210Y-98489242D01*
X102743334Y-98474924D01*
X102746851Y-98460883D01*
X102751728Y-98447254D01*
X102757917Y-98434169D01*
X102765358Y-98421753D01*
X102773981Y-98410127D01*
X102783702Y-98399402D01*
X102794427Y-98389681D01*
X102806053Y-98381058D01*
X102818469Y-98373617D01*
X102831554Y-98367428D01*
X102845183Y-98362551D01*
X102859224Y-98359034D01*
X102873542Y-98356910D01*
X102888000Y-98356200D01*
X103233000Y-98356200D01*
X103247458Y-98356910D01*
X103247458Y-98356910D01*
G37*
D20*
G04 #@! TD*
G04 #@! TO.P,C5,2*
G04 #@! TO.N,GNDS*
X103060500Y-98651200D03*
D12*
G04 #@! TO.N,Net-(C6-Pad1)*
G04 #@! TO.C,C6*
G36*
X101723458Y-97404410D02*
X101737776Y-97406534D01*
X101751817Y-97410051D01*
X101765446Y-97414928D01*
X101778531Y-97421117D01*
X101790947Y-97428558D01*
X101802573Y-97437181D01*
X101813298Y-97446902D01*
X101823019Y-97457627D01*
X101831642Y-97469253D01*
X101839083Y-97481669D01*
X101845272Y-97494754D01*
X101850149Y-97508383D01*
X101853666Y-97522424D01*
X101855790Y-97536742D01*
X101856500Y-97551200D01*
X101856500Y-97846200D01*
X101855790Y-97860658D01*
X101853666Y-97874976D01*
X101850149Y-97889017D01*
X101845272Y-97902646D01*
X101839083Y-97915731D01*
X101831642Y-97928147D01*
X101823019Y-97939773D01*
X101813298Y-97950498D01*
X101802573Y-97960219D01*
X101790947Y-97968842D01*
X101778531Y-97976283D01*
X101765446Y-97982472D01*
X101751817Y-97987349D01*
X101737776Y-97990866D01*
X101723458Y-97992990D01*
X101709000Y-97993700D01*
X101364000Y-97993700D01*
X101349542Y-97992990D01*
X101335224Y-97990866D01*
X101321183Y-97987349D01*
X101307554Y-97982472D01*
X101294469Y-97976283D01*
X101282053Y-97968842D01*
X101270427Y-97960219D01*
X101259702Y-97950498D01*
X101249981Y-97939773D01*
X101241358Y-97928147D01*
X101233917Y-97915731D01*
X101227728Y-97902646D01*
X101222851Y-97889017D01*
X101219334Y-97874976D01*
X101217210Y-97860658D01*
X101216500Y-97846200D01*
X101216500Y-97551200D01*
X101217210Y-97536742D01*
X101219334Y-97522424D01*
X101222851Y-97508383D01*
X101227728Y-97494754D01*
X101233917Y-97481669D01*
X101241358Y-97469253D01*
X101249981Y-97457627D01*
X101259702Y-97446902D01*
X101270427Y-97437181D01*
X101282053Y-97428558D01*
X101294469Y-97421117D01*
X101307554Y-97414928D01*
X101321183Y-97410051D01*
X101335224Y-97406534D01*
X101349542Y-97404410D01*
X101364000Y-97403700D01*
X101709000Y-97403700D01*
X101723458Y-97404410D01*
X101723458Y-97404410D01*
G37*
D20*
G04 #@! TD*
G04 #@! TO.P,C6,1*
G04 #@! TO.N,Net-(C6-Pad1)*
X101536500Y-97698700D03*
D12*
G04 #@! TO.N,Net-(C6-Pad2)*
G04 #@! TO.C,C6*
G36*
X101723458Y-98374410D02*
X101737776Y-98376534D01*
X101751817Y-98380051D01*
X101765446Y-98384928D01*
X101778531Y-98391117D01*
X101790947Y-98398558D01*
X101802573Y-98407181D01*
X101813298Y-98416902D01*
X101823019Y-98427627D01*
X101831642Y-98439253D01*
X101839083Y-98451669D01*
X101845272Y-98464754D01*
X101850149Y-98478383D01*
X101853666Y-98492424D01*
X101855790Y-98506742D01*
X101856500Y-98521200D01*
X101856500Y-98816200D01*
X101855790Y-98830658D01*
X101853666Y-98844976D01*
X101850149Y-98859017D01*
X101845272Y-98872646D01*
X101839083Y-98885731D01*
X101831642Y-98898147D01*
X101823019Y-98909773D01*
X101813298Y-98920498D01*
X101802573Y-98930219D01*
X101790947Y-98938842D01*
X101778531Y-98946283D01*
X101765446Y-98952472D01*
X101751817Y-98957349D01*
X101737776Y-98960866D01*
X101723458Y-98962990D01*
X101709000Y-98963700D01*
X101364000Y-98963700D01*
X101349542Y-98962990D01*
X101335224Y-98960866D01*
X101321183Y-98957349D01*
X101307554Y-98952472D01*
X101294469Y-98946283D01*
X101282053Y-98938842D01*
X101270427Y-98930219D01*
X101259702Y-98920498D01*
X101249981Y-98909773D01*
X101241358Y-98898147D01*
X101233917Y-98885731D01*
X101227728Y-98872646D01*
X101222851Y-98859017D01*
X101219334Y-98844976D01*
X101217210Y-98830658D01*
X101216500Y-98816200D01*
X101216500Y-98521200D01*
X101217210Y-98506742D01*
X101219334Y-98492424D01*
X101222851Y-98478383D01*
X101227728Y-98464754D01*
X101233917Y-98451669D01*
X101241358Y-98439253D01*
X101249981Y-98427627D01*
X101259702Y-98416902D01*
X101270427Y-98407181D01*
X101282053Y-98398558D01*
X101294469Y-98391117D01*
X101307554Y-98384928D01*
X101321183Y-98380051D01*
X101335224Y-98376534D01*
X101349542Y-98374410D01*
X101364000Y-98373700D01*
X101709000Y-98373700D01*
X101723458Y-98374410D01*
X101723458Y-98374410D01*
G37*
D20*
G04 #@! TD*
G04 #@! TO.P,C6,2*
G04 #@! TO.N,Net-(C6-Pad2)*
X101536500Y-98668700D03*
D12*
G04 #@! TO.N,Net-(C7-Pad2)*
G04 #@! TO.C,C7*
G36*
X103389958Y-103769910D02*
X103404276Y-103772034D01*
X103418317Y-103775551D01*
X103431946Y-103780428D01*
X103445031Y-103786617D01*
X103457447Y-103794058D01*
X103469073Y-103802681D01*
X103479798Y-103812402D01*
X103489519Y-103823127D01*
X103498142Y-103834753D01*
X103505583Y-103847169D01*
X103511772Y-103860254D01*
X103516649Y-103873883D01*
X103520166Y-103887924D01*
X103522290Y-103902242D01*
X103523000Y-103916700D01*
X103523000Y-104261700D01*
X103522290Y-104276158D01*
X103520166Y-104290476D01*
X103516649Y-104304517D01*
X103511772Y-104318146D01*
X103505583Y-104331231D01*
X103498142Y-104343647D01*
X103489519Y-104355273D01*
X103479798Y-104365998D01*
X103469073Y-104375719D01*
X103457447Y-104384342D01*
X103445031Y-104391783D01*
X103431946Y-104397972D01*
X103418317Y-104402849D01*
X103404276Y-104406366D01*
X103389958Y-104408490D01*
X103375500Y-104409200D01*
X103080500Y-104409200D01*
X103066042Y-104408490D01*
X103051724Y-104406366D01*
X103037683Y-104402849D01*
X103024054Y-104397972D01*
X103010969Y-104391783D01*
X102998553Y-104384342D01*
X102986927Y-104375719D01*
X102976202Y-104365998D01*
X102966481Y-104355273D01*
X102957858Y-104343647D01*
X102950417Y-104331231D01*
X102944228Y-104318146D01*
X102939351Y-104304517D01*
X102935834Y-104290476D01*
X102933710Y-104276158D01*
X102933000Y-104261700D01*
X102933000Y-103916700D01*
X102933710Y-103902242D01*
X102935834Y-103887924D01*
X102939351Y-103873883D01*
X102944228Y-103860254D01*
X102950417Y-103847169D01*
X102957858Y-103834753D01*
X102966481Y-103823127D01*
X102976202Y-103812402D01*
X102986927Y-103802681D01*
X102998553Y-103794058D01*
X103010969Y-103786617D01*
X103024054Y-103780428D01*
X103037683Y-103775551D01*
X103051724Y-103772034D01*
X103066042Y-103769910D01*
X103080500Y-103769200D01*
X103375500Y-103769200D01*
X103389958Y-103769910D01*
X103389958Y-103769910D01*
G37*
D20*
G04 #@! TD*
G04 #@! TO.P,C7,2*
G04 #@! TO.N,Net-(C7-Pad2)*
X103228000Y-104089200D03*
D12*
G04 #@! TO.N,GNDS*
G04 #@! TO.C,C7*
G36*
X102419958Y-103769910D02*
X102434276Y-103772034D01*
X102448317Y-103775551D01*
X102461946Y-103780428D01*
X102475031Y-103786617D01*
X102487447Y-103794058D01*
X102499073Y-103802681D01*
X102509798Y-103812402D01*
X102519519Y-103823127D01*
X102528142Y-103834753D01*
X102535583Y-103847169D01*
X102541772Y-103860254D01*
X102546649Y-103873883D01*
X102550166Y-103887924D01*
X102552290Y-103902242D01*
X102553000Y-103916700D01*
X102553000Y-104261700D01*
X102552290Y-104276158D01*
X102550166Y-104290476D01*
X102546649Y-104304517D01*
X102541772Y-104318146D01*
X102535583Y-104331231D01*
X102528142Y-104343647D01*
X102519519Y-104355273D01*
X102509798Y-104365998D01*
X102499073Y-104375719D01*
X102487447Y-104384342D01*
X102475031Y-104391783D01*
X102461946Y-104397972D01*
X102448317Y-104402849D01*
X102434276Y-104406366D01*
X102419958Y-104408490D01*
X102405500Y-104409200D01*
X102110500Y-104409200D01*
X102096042Y-104408490D01*
X102081724Y-104406366D01*
X102067683Y-104402849D01*
X102054054Y-104397972D01*
X102040969Y-104391783D01*
X102028553Y-104384342D01*
X102016927Y-104375719D01*
X102006202Y-104365998D01*
X101996481Y-104355273D01*
X101987858Y-104343647D01*
X101980417Y-104331231D01*
X101974228Y-104318146D01*
X101969351Y-104304517D01*
X101965834Y-104290476D01*
X101963710Y-104276158D01*
X101963000Y-104261700D01*
X101963000Y-103916700D01*
X101963710Y-103902242D01*
X101965834Y-103887924D01*
X101969351Y-103873883D01*
X101974228Y-103860254D01*
X101980417Y-103847169D01*
X101987858Y-103834753D01*
X101996481Y-103823127D01*
X102006202Y-103812402D01*
X102016927Y-103802681D01*
X102028553Y-103794058D01*
X102040969Y-103786617D01*
X102054054Y-103780428D01*
X102067683Y-103775551D01*
X102081724Y-103772034D01*
X102096042Y-103769910D01*
X102110500Y-103769200D01*
X102405500Y-103769200D01*
X102419958Y-103769910D01*
X102419958Y-103769910D01*
G37*
D20*
G04 #@! TD*
G04 #@! TO.P,C7,1*
G04 #@! TO.N,GNDS*
X102258000Y-104089200D03*
D12*
G04 #@! TO.N,GNDS*
G04 #@! TO.C,C8*
G36*
X106120458Y-103795310D02*
X106134776Y-103797434D01*
X106148817Y-103800951D01*
X106162446Y-103805828D01*
X106175531Y-103812017D01*
X106187947Y-103819458D01*
X106199573Y-103828081D01*
X106210298Y-103837802D01*
X106220019Y-103848527D01*
X106228642Y-103860153D01*
X106236083Y-103872569D01*
X106242272Y-103885654D01*
X106247149Y-103899283D01*
X106250666Y-103913324D01*
X106252790Y-103927642D01*
X106253500Y-103942100D01*
X106253500Y-104287100D01*
X106252790Y-104301558D01*
X106250666Y-104315876D01*
X106247149Y-104329917D01*
X106242272Y-104343546D01*
X106236083Y-104356631D01*
X106228642Y-104369047D01*
X106220019Y-104380673D01*
X106210298Y-104391398D01*
X106199573Y-104401119D01*
X106187947Y-104409742D01*
X106175531Y-104417183D01*
X106162446Y-104423372D01*
X106148817Y-104428249D01*
X106134776Y-104431766D01*
X106120458Y-104433890D01*
X106106000Y-104434600D01*
X105811000Y-104434600D01*
X105796542Y-104433890D01*
X105782224Y-104431766D01*
X105768183Y-104428249D01*
X105754554Y-104423372D01*
X105741469Y-104417183D01*
X105729053Y-104409742D01*
X105717427Y-104401119D01*
X105706702Y-104391398D01*
X105696981Y-104380673D01*
X105688358Y-104369047D01*
X105680917Y-104356631D01*
X105674728Y-104343546D01*
X105669851Y-104329917D01*
X105666334Y-104315876D01*
X105664210Y-104301558D01*
X105663500Y-104287100D01*
X105663500Y-103942100D01*
X105664210Y-103927642D01*
X105666334Y-103913324D01*
X105669851Y-103899283D01*
X105674728Y-103885654D01*
X105680917Y-103872569D01*
X105688358Y-103860153D01*
X105696981Y-103848527D01*
X105706702Y-103837802D01*
X105717427Y-103828081D01*
X105729053Y-103819458D01*
X105741469Y-103812017D01*
X105754554Y-103805828D01*
X105768183Y-103800951D01*
X105782224Y-103797434D01*
X105796542Y-103795310D01*
X105811000Y-103794600D01*
X106106000Y-103794600D01*
X106120458Y-103795310D01*
X106120458Y-103795310D01*
G37*
D20*
G04 #@! TD*
G04 #@! TO.P,C8,2*
G04 #@! TO.N,GNDS*
X105958500Y-104114600D03*
D12*
G04 #@! TO.N,-5V*
G04 #@! TO.C,C8*
G36*
X105150458Y-103795310D02*
X105164776Y-103797434D01*
X105178817Y-103800951D01*
X105192446Y-103805828D01*
X105205531Y-103812017D01*
X105217947Y-103819458D01*
X105229573Y-103828081D01*
X105240298Y-103837802D01*
X105250019Y-103848527D01*
X105258642Y-103860153D01*
X105266083Y-103872569D01*
X105272272Y-103885654D01*
X105277149Y-103899283D01*
X105280666Y-103913324D01*
X105282790Y-103927642D01*
X105283500Y-103942100D01*
X105283500Y-104287100D01*
X105282790Y-104301558D01*
X105280666Y-104315876D01*
X105277149Y-104329917D01*
X105272272Y-104343546D01*
X105266083Y-104356631D01*
X105258642Y-104369047D01*
X105250019Y-104380673D01*
X105240298Y-104391398D01*
X105229573Y-104401119D01*
X105217947Y-104409742D01*
X105205531Y-104417183D01*
X105192446Y-104423372D01*
X105178817Y-104428249D01*
X105164776Y-104431766D01*
X105150458Y-104433890D01*
X105136000Y-104434600D01*
X104841000Y-104434600D01*
X104826542Y-104433890D01*
X104812224Y-104431766D01*
X104798183Y-104428249D01*
X104784554Y-104423372D01*
X104771469Y-104417183D01*
X104759053Y-104409742D01*
X104747427Y-104401119D01*
X104736702Y-104391398D01*
X104726981Y-104380673D01*
X104718358Y-104369047D01*
X104710917Y-104356631D01*
X104704728Y-104343546D01*
X104699851Y-104329917D01*
X104696334Y-104315876D01*
X104694210Y-104301558D01*
X104693500Y-104287100D01*
X104693500Y-103942100D01*
X104694210Y-103927642D01*
X104696334Y-103913324D01*
X104699851Y-103899283D01*
X104704728Y-103885654D01*
X104710917Y-103872569D01*
X104718358Y-103860153D01*
X104726981Y-103848527D01*
X104736702Y-103837802D01*
X104747427Y-103828081D01*
X104759053Y-103819458D01*
X104771469Y-103812017D01*
X104784554Y-103805828D01*
X104798183Y-103800951D01*
X104812224Y-103797434D01*
X104826542Y-103795310D01*
X104841000Y-103794600D01*
X105136000Y-103794600D01*
X105150458Y-103795310D01*
X105150458Y-103795310D01*
G37*
D20*
G04 #@! TD*
G04 #@! TO.P,C8,1*
G04 #@! TO.N,-5V*
X104988500Y-104114600D03*
D12*
G04 #@! TO.N,+5V*
G04 #@! TO.C,C17*
G36*
X100199458Y-99390410D02*
X100213776Y-99392534D01*
X100227817Y-99396051D01*
X100241446Y-99400928D01*
X100254531Y-99407117D01*
X100266947Y-99414558D01*
X100278573Y-99423181D01*
X100289298Y-99432902D01*
X100299019Y-99443627D01*
X100307642Y-99455253D01*
X100315083Y-99467669D01*
X100321272Y-99480754D01*
X100326149Y-99494383D01*
X100329666Y-99508424D01*
X100331790Y-99522742D01*
X100332500Y-99537200D01*
X100332500Y-99832200D01*
X100331790Y-99846658D01*
X100329666Y-99860976D01*
X100326149Y-99875017D01*
X100321272Y-99888646D01*
X100315083Y-99901731D01*
X100307642Y-99914147D01*
X100299019Y-99925773D01*
X100289298Y-99936498D01*
X100278573Y-99946219D01*
X100266947Y-99954842D01*
X100254531Y-99962283D01*
X100241446Y-99968472D01*
X100227817Y-99973349D01*
X100213776Y-99976866D01*
X100199458Y-99978990D01*
X100185000Y-99979700D01*
X99840000Y-99979700D01*
X99825542Y-99978990D01*
X99811224Y-99976866D01*
X99797183Y-99973349D01*
X99783554Y-99968472D01*
X99770469Y-99962283D01*
X99758053Y-99954842D01*
X99746427Y-99946219D01*
X99735702Y-99936498D01*
X99725981Y-99925773D01*
X99717358Y-99914147D01*
X99709917Y-99901731D01*
X99703728Y-99888646D01*
X99698851Y-99875017D01*
X99695334Y-99860976D01*
X99693210Y-99846658D01*
X99692500Y-99832200D01*
X99692500Y-99537200D01*
X99693210Y-99522742D01*
X99695334Y-99508424D01*
X99698851Y-99494383D01*
X99703728Y-99480754D01*
X99709917Y-99467669D01*
X99717358Y-99455253D01*
X99725981Y-99443627D01*
X99735702Y-99432902D01*
X99746427Y-99423181D01*
X99758053Y-99414558D01*
X99770469Y-99407117D01*
X99783554Y-99400928D01*
X99797183Y-99396051D01*
X99811224Y-99392534D01*
X99825542Y-99390410D01*
X99840000Y-99389700D01*
X100185000Y-99389700D01*
X100199458Y-99390410D01*
X100199458Y-99390410D01*
G37*
D20*
G04 #@! TD*
G04 #@! TO.P,C17,1*
G04 #@! TO.N,+5V*
X100012500Y-99684700D03*
D12*
G04 #@! TO.N,GNDS*
G04 #@! TO.C,C17*
G36*
X100199458Y-98420410D02*
X100213776Y-98422534D01*
X100227817Y-98426051D01*
X100241446Y-98430928D01*
X100254531Y-98437117D01*
X100266947Y-98444558D01*
X100278573Y-98453181D01*
X100289298Y-98462902D01*
X100299019Y-98473627D01*
X100307642Y-98485253D01*
X100315083Y-98497669D01*
X100321272Y-98510754D01*
X100326149Y-98524383D01*
X100329666Y-98538424D01*
X100331790Y-98552742D01*
X100332500Y-98567200D01*
X100332500Y-98862200D01*
X100331790Y-98876658D01*
X100329666Y-98890976D01*
X100326149Y-98905017D01*
X100321272Y-98918646D01*
X100315083Y-98931731D01*
X100307642Y-98944147D01*
X100299019Y-98955773D01*
X100289298Y-98966498D01*
X100278573Y-98976219D01*
X100266947Y-98984842D01*
X100254531Y-98992283D01*
X100241446Y-98998472D01*
X100227817Y-99003349D01*
X100213776Y-99006866D01*
X100199458Y-99008990D01*
X100185000Y-99009700D01*
X99840000Y-99009700D01*
X99825542Y-99008990D01*
X99811224Y-99006866D01*
X99797183Y-99003349D01*
X99783554Y-98998472D01*
X99770469Y-98992283D01*
X99758053Y-98984842D01*
X99746427Y-98976219D01*
X99735702Y-98966498D01*
X99725981Y-98955773D01*
X99717358Y-98944147D01*
X99709917Y-98931731D01*
X99703728Y-98918646D01*
X99698851Y-98905017D01*
X99695334Y-98890976D01*
X99693210Y-98876658D01*
X99692500Y-98862200D01*
X99692500Y-98567200D01*
X99693210Y-98552742D01*
X99695334Y-98538424D01*
X99698851Y-98524383D01*
X99703728Y-98510754D01*
X99709917Y-98497669D01*
X99717358Y-98485253D01*
X99725981Y-98473627D01*
X99735702Y-98462902D01*
X99746427Y-98453181D01*
X99758053Y-98444558D01*
X99770469Y-98437117D01*
X99783554Y-98430928D01*
X99797183Y-98426051D01*
X99811224Y-98422534D01*
X99825542Y-98420410D01*
X99840000Y-98419700D01*
X100185000Y-98419700D01*
X100199458Y-98420410D01*
X100199458Y-98420410D01*
G37*
D20*
G04 #@! TD*
G04 #@! TO.P,C17,2*
G04 #@! TO.N,GNDS*
X100012500Y-98714700D03*
D17*
G04 #@! TO.P,J1,1*
G04 #@! TO.N,/LM27762PSU/VDDEXT*
X100609400Y-86791800D03*
D16*
G04 #@! TO.P,J1,2*
G04 #@! TO.N,GNDS*
X103149400Y-86791800D03*
G04 #@! TD*
D23*
G04 #@! TO.P,U3,1*
G04 #@! TO.N,Net-(R19-Pad1)*
X100794500Y-102613500D03*
G04 #@! TO.P,U3,2*
G04 #@! TO.N,Net-(R20-Pad1)*
X101294500Y-102613500D03*
G04 #@! TO.P,U3,3*
G04 #@! TO.N,/LM27762PSU/5V*
X101794500Y-102613500D03*
G04 #@! TO.P,U3,4*
G04 #@! TO.N,GNDS*
X102294500Y-102613500D03*
G04 #@! TO.P,U3,5*
G04 #@! TO.N,Net-(C7-Pad2)*
X102794500Y-102613500D03*
G04 #@! TO.P,U3,6*
G04 #@! TO.N,-5V*
X103294500Y-102613500D03*
G04 #@! TO.P,U3,7*
G04 #@! TO.N,Net-(R21-Pad2)*
X103294500Y-100713500D03*
G04 #@! TO.P,U3,8*
G04 #@! TO.N,/LM27762PSU/5V*
X102794500Y-100713500D03*
G04 #@! TO.P,U3,9*
G04 #@! TO.N,Net-(C6-Pad1)*
X102294500Y-100713500D03*
G04 #@! TO.P,U3,10*
G04 #@! TO.N,Net-(C6-Pad2)*
X101794500Y-100713500D03*
G04 #@! TO.P,U3,11*
G04 #@! TO.N,+5V*
X101294500Y-100713500D03*
G04 #@! TO.P,U3,12*
G04 #@! TO.N,/LM27762PSU/5V*
X100794500Y-100713500D03*
D24*
G04 #@! TD*
G04 #@! TO.N,GNDS*
G04 #@! TO.C,U3*
X102044500Y-101663500D03*
G04 #@! TO.N,GNDS*
G04 #@! TO.C,U3*
X101044500Y-101663500D03*
X103044500Y-101663500D03*
D25*
G04 #@! TD*
G04 #@! TO.P,U3,13*
G04 #@! TO.N,GNDS*
X102044500Y-101663500D03*
D12*
G04 #@! TO.N,Net-(R19-Pad1)*
G04 #@! TO.C,R19*
G36*
X99183458Y-104071910D02*
X99197776Y-104074034D01*
X99211817Y-104077551D01*
X99225446Y-104082428D01*
X99238531Y-104088617D01*
X99250947Y-104096058D01*
X99262573Y-104104681D01*
X99273298Y-104114402D01*
X99283019Y-104125127D01*
X99291642Y-104136753D01*
X99299083Y-104149169D01*
X99305272Y-104162254D01*
X99310149Y-104175883D01*
X99313666Y-104189924D01*
X99315790Y-104204242D01*
X99316500Y-104218700D01*
X99316500Y-104513700D01*
X99315790Y-104528158D01*
X99313666Y-104542476D01*
X99310149Y-104556517D01*
X99305272Y-104570146D01*
X99299083Y-104583231D01*
X99291642Y-104595647D01*
X99283019Y-104607273D01*
X99273298Y-104617998D01*
X99262573Y-104627719D01*
X99250947Y-104636342D01*
X99238531Y-104643783D01*
X99225446Y-104649972D01*
X99211817Y-104654849D01*
X99197776Y-104658366D01*
X99183458Y-104660490D01*
X99169000Y-104661200D01*
X98824000Y-104661200D01*
X98809542Y-104660490D01*
X98795224Y-104658366D01*
X98781183Y-104654849D01*
X98767554Y-104649972D01*
X98754469Y-104643783D01*
X98742053Y-104636342D01*
X98730427Y-104627719D01*
X98719702Y-104617998D01*
X98709981Y-104607273D01*
X98701358Y-104595647D01*
X98693917Y-104583231D01*
X98687728Y-104570146D01*
X98682851Y-104556517D01*
X98679334Y-104542476D01*
X98677210Y-104528158D01*
X98676500Y-104513700D01*
X98676500Y-104218700D01*
X98677210Y-104204242D01*
X98679334Y-104189924D01*
X98682851Y-104175883D01*
X98687728Y-104162254D01*
X98693917Y-104149169D01*
X98701358Y-104136753D01*
X98709981Y-104125127D01*
X98719702Y-104114402D01*
X98730427Y-104104681D01*
X98742053Y-104096058D01*
X98754469Y-104088617D01*
X98767554Y-104082428D01*
X98781183Y-104077551D01*
X98795224Y-104074034D01*
X98809542Y-104071910D01*
X98824000Y-104071200D01*
X99169000Y-104071200D01*
X99183458Y-104071910D01*
X99183458Y-104071910D01*
G37*
D20*
G04 #@! TD*
G04 #@! TO.P,R19,1*
G04 #@! TO.N,Net-(R19-Pad1)*
X98996500Y-104366200D03*
D12*
G04 #@! TO.N,/LM27762PSU/5V*
G04 #@! TO.C,R19*
G36*
X99183458Y-105041910D02*
X99197776Y-105044034D01*
X99211817Y-105047551D01*
X99225446Y-105052428D01*
X99238531Y-105058617D01*
X99250947Y-105066058D01*
X99262573Y-105074681D01*
X99273298Y-105084402D01*
X99283019Y-105095127D01*
X99291642Y-105106753D01*
X99299083Y-105119169D01*
X99305272Y-105132254D01*
X99310149Y-105145883D01*
X99313666Y-105159924D01*
X99315790Y-105174242D01*
X99316500Y-105188700D01*
X99316500Y-105483700D01*
X99315790Y-105498158D01*
X99313666Y-105512476D01*
X99310149Y-105526517D01*
X99305272Y-105540146D01*
X99299083Y-105553231D01*
X99291642Y-105565647D01*
X99283019Y-105577273D01*
X99273298Y-105587998D01*
X99262573Y-105597719D01*
X99250947Y-105606342D01*
X99238531Y-105613783D01*
X99225446Y-105619972D01*
X99211817Y-105624849D01*
X99197776Y-105628366D01*
X99183458Y-105630490D01*
X99169000Y-105631200D01*
X98824000Y-105631200D01*
X98809542Y-105630490D01*
X98795224Y-105628366D01*
X98781183Y-105624849D01*
X98767554Y-105619972D01*
X98754469Y-105613783D01*
X98742053Y-105606342D01*
X98730427Y-105597719D01*
X98719702Y-105587998D01*
X98709981Y-105577273D01*
X98701358Y-105565647D01*
X98693917Y-105553231D01*
X98687728Y-105540146D01*
X98682851Y-105526517D01*
X98679334Y-105512476D01*
X98677210Y-105498158D01*
X98676500Y-105483700D01*
X98676500Y-105188700D01*
X98677210Y-105174242D01*
X98679334Y-105159924D01*
X98682851Y-105145883D01*
X98687728Y-105132254D01*
X98693917Y-105119169D01*
X98701358Y-105106753D01*
X98709981Y-105095127D01*
X98719702Y-105084402D01*
X98730427Y-105074681D01*
X98742053Y-105066058D01*
X98754469Y-105058617D01*
X98767554Y-105052428D01*
X98781183Y-105047551D01*
X98795224Y-105044034D01*
X98809542Y-105041910D01*
X98824000Y-105041200D01*
X99169000Y-105041200D01*
X99183458Y-105041910D01*
X99183458Y-105041910D01*
G37*
D20*
G04 #@! TD*
G04 #@! TO.P,R19,2*
G04 #@! TO.N,/LM27762PSU/5V*
X98996500Y-105336200D03*
D12*
G04 #@! TO.N,Net-(R20-Pad1)*
G04 #@! TO.C,R20*
G36*
X96300558Y-102349510D02*
X96314876Y-102351634D01*
X96328917Y-102355151D01*
X96342546Y-102360028D01*
X96355631Y-102366217D01*
X96368047Y-102373658D01*
X96379673Y-102382281D01*
X96390398Y-102392002D01*
X96400119Y-102402727D01*
X96408742Y-102414353D01*
X96416183Y-102426769D01*
X96422372Y-102439854D01*
X96427249Y-102453483D01*
X96430766Y-102467524D01*
X96432890Y-102481842D01*
X96433600Y-102496300D01*
X96433600Y-102791300D01*
X96432890Y-102805758D01*
X96430766Y-102820076D01*
X96427249Y-102834117D01*
X96422372Y-102847746D01*
X96416183Y-102860831D01*
X96408742Y-102873247D01*
X96400119Y-102884873D01*
X96390398Y-102895598D01*
X96379673Y-102905319D01*
X96368047Y-102913942D01*
X96355631Y-102921383D01*
X96342546Y-102927572D01*
X96328917Y-102932449D01*
X96314876Y-102935966D01*
X96300558Y-102938090D01*
X96286100Y-102938800D01*
X95941100Y-102938800D01*
X95926642Y-102938090D01*
X95912324Y-102935966D01*
X95898283Y-102932449D01*
X95884654Y-102927572D01*
X95871569Y-102921383D01*
X95859153Y-102913942D01*
X95847527Y-102905319D01*
X95836802Y-102895598D01*
X95827081Y-102884873D01*
X95818458Y-102873247D01*
X95811017Y-102860831D01*
X95804828Y-102847746D01*
X95799951Y-102834117D01*
X95796434Y-102820076D01*
X95794310Y-102805758D01*
X95793600Y-102791300D01*
X95793600Y-102496300D01*
X95794310Y-102481842D01*
X95796434Y-102467524D01*
X95799951Y-102453483D01*
X95804828Y-102439854D01*
X95811017Y-102426769D01*
X95818458Y-102414353D01*
X95827081Y-102402727D01*
X95836802Y-102392002D01*
X95847527Y-102382281D01*
X95859153Y-102373658D01*
X95871569Y-102366217D01*
X95884654Y-102360028D01*
X95898283Y-102355151D01*
X95912324Y-102351634D01*
X95926642Y-102349510D01*
X95941100Y-102348800D01*
X96286100Y-102348800D01*
X96300558Y-102349510D01*
X96300558Y-102349510D01*
G37*
D20*
G04 #@! TD*
G04 #@! TO.P,R20,1*
G04 #@! TO.N,Net-(R20-Pad1)*
X96113600Y-102643800D03*
D12*
G04 #@! TO.N,+5V*
G04 #@! TO.C,R20*
G36*
X96300558Y-101379510D02*
X96314876Y-101381634D01*
X96328917Y-101385151D01*
X96342546Y-101390028D01*
X96355631Y-101396217D01*
X96368047Y-101403658D01*
X96379673Y-101412281D01*
X96390398Y-101422002D01*
X96400119Y-101432727D01*
X96408742Y-101444353D01*
X96416183Y-101456769D01*
X96422372Y-101469854D01*
X96427249Y-101483483D01*
X96430766Y-101497524D01*
X96432890Y-101511842D01*
X96433600Y-101526300D01*
X96433600Y-101821300D01*
X96432890Y-101835758D01*
X96430766Y-101850076D01*
X96427249Y-101864117D01*
X96422372Y-101877746D01*
X96416183Y-101890831D01*
X96408742Y-101903247D01*
X96400119Y-101914873D01*
X96390398Y-101925598D01*
X96379673Y-101935319D01*
X96368047Y-101943942D01*
X96355631Y-101951383D01*
X96342546Y-101957572D01*
X96328917Y-101962449D01*
X96314876Y-101965966D01*
X96300558Y-101968090D01*
X96286100Y-101968800D01*
X95941100Y-101968800D01*
X95926642Y-101968090D01*
X95912324Y-101965966D01*
X95898283Y-101962449D01*
X95884654Y-101957572D01*
X95871569Y-101951383D01*
X95859153Y-101943942D01*
X95847527Y-101935319D01*
X95836802Y-101925598D01*
X95827081Y-101914873D01*
X95818458Y-101903247D01*
X95811017Y-101890831D01*
X95804828Y-101877746D01*
X95799951Y-101864117D01*
X95796434Y-101850076D01*
X95794310Y-101835758D01*
X95793600Y-101821300D01*
X95793600Y-101526300D01*
X95794310Y-101511842D01*
X95796434Y-101497524D01*
X95799951Y-101483483D01*
X95804828Y-101469854D01*
X95811017Y-101456769D01*
X95818458Y-101444353D01*
X95827081Y-101432727D01*
X95836802Y-101422002D01*
X95847527Y-101412281D01*
X95859153Y-101403658D01*
X95871569Y-101396217D01*
X95884654Y-101390028D01*
X95898283Y-101385151D01*
X95912324Y-101381634D01*
X95926642Y-101379510D01*
X95941100Y-101378800D01*
X96286100Y-101378800D01*
X96300558Y-101379510D01*
X96300558Y-101379510D01*
G37*
D20*
G04 #@! TD*
G04 #@! TO.P,R20,2*
G04 #@! TO.N,+5V*
X96113600Y-101673800D03*
D12*
G04 #@! TO.N,Net-(R21-Pad2)*
G04 #@! TO.C,R21*
G36*
X106120458Y-102271310D02*
X106134776Y-102273434D01*
X106148817Y-102276951D01*
X106162446Y-102281828D01*
X106175531Y-102288017D01*
X106187947Y-102295458D01*
X106199573Y-102304081D01*
X106210298Y-102313802D01*
X106220019Y-102324527D01*
X106228642Y-102336153D01*
X106236083Y-102348569D01*
X106242272Y-102361654D01*
X106247149Y-102375283D01*
X106250666Y-102389324D01*
X106252790Y-102403642D01*
X106253500Y-102418100D01*
X106253500Y-102763100D01*
X106252790Y-102777558D01*
X106250666Y-102791876D01*
X106247149Y-102805917D01*
X106242272Y-102819546D01*
X106236083Y-102832631D01*
X106228642Y-102845047D01*
X106220019Y-102856673D01*
X106210298Y-102867398D01*
X106199573Y-102877119D01*
X106187947Y-102885742D01*
X106175531Y-102893183D01*
X106162446Y-102899372D01*
X106148817Y-102904249D01*
X106134776Y-102907766D01*
X106120458Y-102909890D01*
X106106000Y-102910600D01*
X105811000Y-102910600D01*
X105796542Y-102909890D01*
X105782224Y-102907766D01*
X105768183Y-102904249D01*
X105754554Y-102899372D01*
X105741469Y-102893183D01*
X105729053Y-102885742D01*
X105717427Y-102877119D01*
X105706702Y-102867398D01*
X105696981Y-102856673D01*
X105688358Y-102845047D01*
X105680917Y-102832631D01*
X105674728Y-102819546D01*
X105669851Y-102805917D01*
X105666334Y-102791876D01*
X105664210Y-102777558D01*
X105663500Y-102763100D01*
X105663500Y-102418100D01*
X105664210Y-102403642D01*
X105666334Y-102389324D01*
X105669851Y-102375283D01*
X105674728Y-102361654D01*
X105680917Y-102348569D01*
X105688358Y-102336153D01*
X105696981Y-102324527D01*
X105706702Y-102313802D01*
X105717427Y-102304081D01*
X105729053Y-102295458D01*
X105741469Y-102288017D01*
X105754554Y-102281828D01*
X105768183Y-102276951D01*
X105782224Y-102273434D01*
X105796542Y-102271310D01*
X105811000Y-102270600D01*
X106106000Y-102270600D01*
X106120458Y-102271310D01*
X106120458Y-102271310D01*
G37*
D20*
G04 #@! TD*
G04 #@! TO.P,R21,2*
G04 #@! TO.N,Net-(R21-Pad2)*
X105958500Y-102590600D03*
D12*
G04 #@! TO.N,-5V*
G04 #@! TO.C,R21*
G36*
X105150458Y-102271310D02*
X105164776Y-102273434D01*
X105178817Y-102276951D01*
X105192446Y-102281828D01*
X105205531Y-102288017D01*
X105217947Y-102295458D01*
X105229573Y-102304081D01*
X105240298Y-102313802D01*
X105250019Y-102324527D01*
X105258642Y-102336153D01*
X105266083Y-102348569D01*
X105272272Y-102361654D01*
X105277149Y-102375283D01*
X105280666Y-102389324D01*
X105282790Y-102403642D01*
X105283500Y-102418100D01*
X105283500Y-102763100D01*
X105282790Y-102777558D01*
X105280666Y-102791876D01*
X105277149Y-102805917D01*
X105272272Y-102819546D01*
X105266083Y-102832631D01*
X105258642Y-102845047D01*
X105250019Y-102856673D01*
X105240298Y-102867398D01*
X105229573Y-102877119D01*
X105217947Y-102885742D01*
X105205531Y-102893183D01*
X105192446Y-102899372D01*
X105178817Y-102904249D01*
X105164776Y-102907766D01*
X105150458Y-102909890D01*
X105136000Y-102910600D01*
X104841000Y-102910600D01*
X104826542Y-102909890D01*
X104812224Y-102907766D01*
X104798183Y-102904249D01*
X104784554Y-102899372D01*
X104771469Y-102893183D01*
X104759053Y-102885742D01*
X104747427Y-102877119D01*
X104736702Y-102867398D01*
X104726981Y-102856673D01*
X104718358Y-102845047D01*
X104710917Y-102832631D01*
X104704728Y-102819546D01*
X104699851Y-102805917D01*
X104696334Y-102791876D01*
X104694210Y-102777558D01*
X104693500Y-102763100D01*
X104693500Y-102418100D01*
X104694210Y-102403642D01*
X104696334Y-102389324D01*
X104699851Y-102375283D01*
X104704728Y-102361654D01*
X104710917Y-102348569D01*
X104718358Y-102336153D01*
X104726981Y-102324527D01*
X104736702Y-102313802D01*
X104747427Y-102304081D01*
X104759053Y-102295458D01*
X104771469Y-102288017D01*
X104784554Y-102281828D01*
X104798183Y-102276951D01*
X104812224Y-102273434D01*
X104826542Y-102271310D01*
X104841000Y-102270600D01*
X105136000Y-102270600D01*
X105150458Y-102271310D01*
X105150458Y-102271310D01*
G37*
D20*
G04 #@! TD*
G04 #@! TO.P,R21,1*
G04 #@! TO.N,-5V*
X104988500Y-102590600D03*
D12*
G04 #@! TO.N,GNDS*
G04 #@! TO.C,R22*
G36*
X97595958Y-101379510D02*
X97610276Y-101381634D01*
X97624317Y-101385151D01*
X97637946Y-101390028D01*
X97651031Y-101396217D01*
X97663447Y-101403658D01*
X97675073Y-101412281D01*
X97685798Y-101422002D01*
X97695519Y-101432727D01*
X97704142Y-101444353D01*
X97711583Y-101456769D01*
X97717772Y-101469854D01*
X97722649Y-101483483D01*
X97726166Y-101497524D01*
X97728290Y-101511842D01*
X97729000Y-101526300D01*
X97729000Y-101821300D01*
X97728290Y-101835758D01*
X97726166Y-101850076D01*
X97722649Y-101864117D01*
X97717772Y-101877746D01*
X97711583Y-101890831D01*
X97704142Y-101903247D01*
X97695519Y-101914873D01*
X97685798Y-101925598D01*
X97675073Y-101935319D01*
X97663447Y-101943942D01*
X97651031Y-101951383D01*
X97637946Y-101957572D01*
X97624317Y-101962449D01*
X97610276Y-101965966D01*
X97595958Y-101968090D01*
X97581500Y-101968800D01*
X97236500Y-101968800D01*
X97222042Y-101968090D01*
X97207724Y-101965966D01*
X97193683Y-101962449D01*
X97180054Y-101957572D01*
X97166969Y-101951383D01*
X97154553Y-101943942D01*
X97142927Y-101935319D01*
X97132202Y-101925598D01*
X97122481Y-101914873D01*
X97113858Y-101903247D01*
X97106417Y-101890831D01*
X97100228Y-101877746D01*
X97095351Y-101864117D01*
X97091834Y-101850076D01*
X97089710Y-101835758D01*
X97089000Y-101821300D01*
X97089000Y-101526300D01*
X97089710Y-101511842D01*
X97091834Y-101497524D01*
X97095351Y-101483483D01*
X97100228Y-101469854D01*
X97106417Y-101456769D01*
X97113858Y-101444353D01*
X97122481Y-101432727D01*
X97132202Y-101422002D01*
X97142927Y-101412281D01*
X97154553Y-101403658D01*
X97166969Y-101396217D01*
X97180054Y-101390028D01*
X97193683Y-101385151D01*
X97207724Y-101381634D01*
X97222042Y-101379510D01*
X97236500Y-101378800D01*
X97581500Y-101378800D01*
X97595958Y-101379510D01*
X97595958Y-101379510D01*
G37*
D20*
G04 #@! TD*
G04 #@! TO.P,R22,1*
G04 #@! TO.N,GNDS*
X97409000Y-101673800D03*
D12*
G04 #@! TO.N,Net-(R20-Pad1)*
G04 #@! TO.C,R22*
G36*
X97595958Y-102349510D02*
X97610276Y-102351634D01*
X97624317Y-102355151D01*
X97637946Y-102360028D01*
X97651031Y-102366217D01*
X97663447Y-102373658D01*
X97675073Y-102382281D01*
X97685798Y-102392002D01*
X97695519Y-102402727D01*
X97704142Y-102414353D01*
X97711583Y-102426769D01*
X97717772Y-102439854D01*
X97722649Y-102453483D01*
X97726166Y-102467524D01*
X97728290Y-102481842D01*
X97729000Y-102496300D01*
X97729000Y-102791300D01*
X97728290Y-102805758D01*
X97726166Y-102820076D01*
X97722649Y-102834117D01*
X97717772Y-102847746D01*
X97711583Y-102860831D01*
X97704142Y-102873247D01*
X97695519Y-102884873D01*
X97685798Y-102895598D01*
X97675073Y-102905319D01*
X97663447Y-102913942D01*
X97651031Y-102921383D01*
X97637946Y-102927572D01*
X97624317Y-102932449D01*
X97610276Y-102935966D01*
X97595958Y-102938090D01*
X97581500Y-102938800D01*
X97236500Y-102938800D01*
X97222042Y-102938090D01*
X97207724Y-102935966D01*
X97193683Y-102932449D01*
X97180054Y-102927572D01*
X97166969Y-102921383D01*
X97154553Y-102913942D01*
X97142927Y-102905319D01*
X97132202Y-102895598D01*
X97122481Y-102884873D01*
X97113858Y-102873247D01*
X97106417Y-102860831D01*
X97100228Y-102847746D01*
X97095351Y-102834117D01*
X97091834Y-102820076D01*
X97089710Y-102805758D01*
X97089000Y-102791300D01*
X97089000Y-102496300D01*
X97089710Y-102481842D01*
X97091834Y-102467524D01*
X97095351Y-102453483D01*
X97100228Y-102439854D01*
X97106417Y-102426769D01*
X97113858Y-102414353D01*
X97122481Y-102402727D01*
X97132202Y-102392002D01*
X97142927Y-102382281D01*
X97154553Y-102373658D01*
X97166969Y-102366217D01*
X97180054Y-102360028D01*
X97193683Y-102355151D01*
X97207724Y-102351634D01*
X97222042Y-102349510D01*
X97236500Y-102348800D01*
X97581500Y-102348800D01*
X97595958Y-102349510D01*
X97595958Y-102349510D01*
G37*
D20*
G04 #@! TD*
G04 #@! TO.P,R22,2*
G04 #@! TO.N,Net-(R20-Pad1)*
X97409000Y-102643800D03*
D12*
G04 #@! TO.N,GNDS*
G04 #@! TO.C,R23*
G36*
X105150458Y-100379010D02*
X105164776Y-100381134D01*
X105178817Y-100384651D01*
X105192446Y-100389528D01*
X105205531Y-100395717D01*
X105217947Y-100403158D01*
X105229573Y-100411781D01*
X105240298Y-100421502D01*
X105250019Y-100432227D01*
X105258642Y-100443853D01*
X105266083Y-100456269D01*
X105272272Y-100469354D01*
X105277149Y-100482983D01*
X105280666Y-100497024D01*
X105282790Y-100511342D01*
X105283500Y-100525800D01*
X105283500Y-100870800D01*
X105282790Y-100885258D01*
X105280666Y-100899576D01*
X105277149Y-100913617D01*
X105272272Y-100927246D01*
X105266083Y-100940331D01*
X105258642Y-100952747D01*
X105250019Y-100964373D01*
X105240298Y-100975098D01*
X105229573Y-100984819D01*
X105217947Y-100993442D01*
X105205531Y-101000883D01*
X105192446Y-101007072D01*
X105178817Y-101011949D01*
X105164776Y-101015466D01*
X105150458Y-101017590D01*
X105136000Y-101018300D01*
X104841000Y-101018300D01*
X104826542Y-101017590D01*
X104812224Y-101015466D01*
X104798183Y-101011949D01*
X104784554Y-101007072D01*
X104771469Y-101000883D01*
X104759053Y-100993442D01*
X104747427Y-100984819D01*
X104736702Y-100975098D01*
X104726981Y-100964373D01*
X104718358Y-100952747D01*
X104710917Y-100940331D01*
X104704728Y-100927246D01*
X104699851Y-100913617D01*
X104696334Y-100899576D01*
X104694210Y-100885258D01*
X104693500Y-100870800D01*
X104693500Y-100525800D01*
X104694210Y-100511342D01*
X104696334Y-100497024D01*
X104699851Y-100482983D01*
X104704728Y-100469354D01*
X104710917Y-100456269D01*
X104718358Y-100443853D01*
X104726981Y-100432227D01*
X104736702Y-100421502D01*
X104747427Y-100411781D01*
X104759053Y-100403158D01*
X104771469Y-100395717D01*
X104784554Y-100389528D01*
X104798183Y-100384651D01*
X104812224Y-100381134D01*
X104826542Y-100379010D01*
X104841000Y-100378300D01*
X105136000Y-100378300D01*
X105150458Y-100379010D01*
X105150458Y-100379010D01*
G37*
D20*
G04 #@! TD*
G04 #@! TO.P,R23,2*
G04 #@! TO.N,GNDS*
X104988500Y-100698300D03*
D12*
G04 #@! TO.N,Net-(R21-Pad2)*
G04 #@! TO.C,R23*
G36*
X106120458Y-100379010D02*
X106134776Y-100381134D01*
X106148817Y-100384651D01*
X106162446Y-100389528D01*
X106175531Y-100395717D01*
X106187947Y-100403158D01*
X106199573Y-100411781D01*
X106210298Y-100421502D01*
X106220019Y-100432227D01*
X106228642Y-100443853D01*
X106236083Y-100456269D01*
X106242272Y-100469354D01*
X106247149Y-100482983D01*
X106250666Y-100497024D01*
X106252790Y-100511342D01*
X106253500Y-100525800D01*
X106253500Y-100870800D01*
X106252790Y-100885258D01*
X106250666Y-100899576D01*
X106247149Y-100913617D01*
X106242272Y-100927246D01*
X106236083Y-100940331D01*
X106228642Y-100952747D01*
X106220019Y-100964373D01*
X106210298Y-100975098D01*
X106199573Y-100984819D01*
X106187947Y-100993442D01*
X106175531Y-101000883D01*
X106162446Y-101007072D01*
X106148817Y-101011949D01*
X106134776Y-101015466D01*
X106120458Y-101017590D01*
X106106000Y-101018300D01*
X105811000Y-101018300D01*
X105796542Y-101017590D01*
X105782224Y-101015466D01*
X105768183Y-101011949D01*
X105754554Y-101007072D01*
X105741469Y-101000883D01*
X105729053Y-100993442D01*
X105717427Y-100984819D01*
X105706702Y-100975098D01*
X105696981Y-100964373D01*
X105688358Y-100952747D01*
X105680917Y-100940331D01*
X105674728Y-100927246D01*
X105669851Y-100913617D01*
X105666334Y-100899576D01*
X105664210Y-100885258D01*
X105663500Y-100870800D01*
X105663500Y-100525800D01*
X105664210Y-100511342D01*
X105666334Y-100497024D01*
X105669851Y-100482983D01*
X105674728Y-100469354D01*
X105680917Y-100456269D01*
X105688358Y-100443853D01*
X105696981Y-100432227D01*
X105706702Y-100421502D01*
X105717427Y-100411781D01*
X105729053Y-100403158D01*
X105741469Y-100395717D01*
X105754554Y-100389528D01*
X105768183Y-100384651D01*
X105782224Y-100381134D01*
X105796542Y-100379010D01*
X105811000Y-100378300D01*
X106106000Y-100378300D01*
X106120458Y-100379010D01*
X106120458Y-100379010D01*
G37*
D20*
G04 #@! TD*
G04 #@! TO.P,R23,1*
G04 #@! TO.N,Net-(R21-Pad2)*
X105958500Y-100698300D03*
D17*
G04 #@! TO.P,J2,1*
G04 #@! TO.N,VDD*
X100609400Y-92913200D03*
D16*
G04 #@! TO.P,J2,2*
G04 #@! TO.N,/LM27762PSU/VDDEXT*
X100609400Y-90373200D03*
G04 #@! TO.P,J2,3*
G04 #@! TO.N,/LM27762PSU/5V*
X103149400Y-92913200D03*
G04 #@! TO.P,J2,4*
X103149400Y-90373200D03*
G04 #@! TD*
D24*
G04 #@! TO.N,+5V*
X104290000Y-108735000D03*
X91590000Y-134770000D03*
D26*
X118110000Y-110490000D03*
X91440000Y-110490000D03*
D24*
X100965000Y-99707700D03*
X109093000Y-145288000D03*
X96113600Y-100660200D03*
G04 #@! TO.N,-5V*
X81430000Y-142898000D03*
X120800000Y-145265000D03*
X99060000Y-121285000D03*
D26*
X114935000Y-110490000D03*
X88265000Y-110490000D03*
D24*
X104965500Y-105295700D03*
G04 #@! TO.N,/PA4_DAC_OUT1*
X125730000Y-101600000D03*
G04 #@! TO.N,/PA0_ADC1_IN1*
X86233000Y-130810000D03*
X86233000Y-133984999D03*
G04 #@! TO.N,Net-(JIN1-Pad2)*
X78536800Y-120446800D03*
X78536800Y-128930400D03*
X78536800Y-128930400D03*
G04 #@! TO.N,Net-(R1-Pad1)*
X80416400Y-122580400D03*
X80416402Y-130987800D03*
G04 #@! TO.N,/FLAT_LINE_ADJUST_IN*
X99060000Y-135255000D03*
X101549200Y-132765800D03*
G04 #@! TO.N,Net-(R2-Pad1)*
X89789000Y-133985000D03*
X89789000Y-130810000D03*
G04 #@! TO.N,Net-(R17-Pad2)*
X110354000Y-137024000D03*
X114173000Y-146685006D03*
D26*
G04 #@! TO.N,/FLAT_LINE_ADJUST_OUT*
X120650000Y-108585000D03*
X126365000Y-108585000D03*
D24*
G04 #@! TO.N,Net-(R10-Pad2)*
X115443000Y-144399000D03*
X110236000Y-149098000D03*
D26*
G04 #@! TO.N,GNDS*
X84455000Y-141604992D03*
X118745000Y-141605000D03*
X118745000Y-144145000D03*
X93345000Y-142875000D03*
D24*
X106680000Y-109855000D03*
X106680000Y-111125000D03*
X97155000Y-117475000D03*
X108100000Y-145265000D03*
X121770000Y-141755000D03*
X103060500Y-97612200D03*
X92583002Y-138112500D03*
X85090000Y-144145000D03*
X100025200Y-97612200D03*
X105968800Y-105308400D03*
X102260400Y-105308400D03*
G04 #@! TO.N,Net-(R20-Pad1)*
X99948994Y-103581200D03*
X98526600Y-102666798D03*
G04 #@! TD*
D27*
G04 #@! TO.N,+5V*
X104290000Y-112893000D02*
X104427000Y-113030000D01*
X104290000Y-109855000D02*
X104290000Y-112893000D01*
X104290000Y-109855000D02*
X104290000Y-108735000D01*
X91590000Y-135890000D02*
X91590000Y-134770000D01*
X111600000Y-142875000D02*
X109070000Y-142875000D01*
X109070000Y-142875000D02*
X109070000Y-144145000D01*
D28*
X118110000Y-112005000D02*
X118110000Y-110490000D01*
X91440000Y-112005000D02*
X91440000Y-110490000D01*
D27*
X91567000Y-135913000D02*
X91590000Y-135890000D01*
X91567000Y-139032000D02*
X91567000Y-135913000D01*
X91600000Y-139065000D02*
X91567000Y-139032000D01*
X109070000Y-144145000D02*
X109070000Y-145265000D01*
X109070000Y-145265000D02*
X109093000Y-145288000D01*
D29*
X101294500Y-100037200D02*
X100965000Y-99707700D01*
X101294500Y-100713500D02*
X101294500Y-100037200D01*
D27*
X100035500Y-99707700D02*
X100012500Y-99684700D01*
X100965000Y-99707700D02*
X100035500Y-99707700D01*
D30*
X96113600Y-100711000D02*
X96088200Y-100685600D01*
X96113600Y-101559500D02*
X96113600Y-100711000D01*
D27*
G04 #@! TO.N,-5V*
X98933000Y-116840000D02*
X98933000Y-119898000D01*
X86200000Y-142875000D02*
X83970000Y-142875000D01*
X82550000Y-142898000D02*
X83820000Y-142898000D01*
X82550000Y-142898000D02*
X81430000Y-142898000D01*
X117000000Y-142875000D02*
X120800000Y-142875000D01*
X120800000Y-142875000D02*
X120800000Y-144145000D01*
X120800000Y-144145000D02*
X120800000Y-145265000D01*
X98910000Y-120015000D02*
X98910000Y-121135000D01*
X98910000Y-121135000D02*
X99060000Y-121285000D01*
D28*
X114935000Y-112005000D02*
X114935000Y-110490000D01*
X88265000Y-112005000D02*
X88265000Y-110490000D01*
D29*
X104813200Y-102613500D02*
X104988500Y-102438200D01*
X103294500Y-102613500D02*
X104813200Y-102613500D01*
D30*
X104988500Y-104114600D02*
X104988500Y-102438200D01*
D29*
X104988500Y-105272700D02*
X104965500Y-105295700D01*
D30*
X104988500Y-104114600D02*
X104988500Y-105272700D01*
G04 #@! TO.N,/PA4_DAC_OUT1*
X124612400Y-172440600D02*
X127299999Y-169753001D01*
X73660000Y-125730000D02*
X76200000Y-128270000D01*
X78663800Y-172440600D02*
X124612400Y-172440600D01*
X127299999Y-169753001D02*
X127299999Y-103169999D01*
X76200000Y-128270000D02*
X76200000Y-169976800D01*
X127299999Y-103169999D02*
X126029999Y-101899999D01*
X126029999Y-101899999D02*
X125730000Y-101600000D01*
X76200000Y-169976800D02*
X78663800Y-172440600D01*
G04 #@! TO.N,/PA1_ADC1_IN2*
X94488000Y-144526000D02*
X94488000Y-140208000D01*
X76200000Y-123190000D02*
X73660000Y-123190000D01*
X85217000Y-132207000D02*
X76200000Y-123190000D01*
X95948500Y-134048500D02*
X94107000Y-132207000D01*
X94107000Y-132207000D02*
X85217000Y-132207000D01*
X95948500Y-138747500D02*
X95948500Y-134048500D01*
X94361000Y-140335000D02*
X95948500Y-138747500D01*
X91600000Y-140335000D02*
X94361000Y-140335000D01*
G04 #@! TO.N,/PA0_ADC1_IN1*
X80645000Y-139065000D02*
X86200000Y-139065000D01*
X73660000Y-120650000D02*
X76073000Y-120650000D01*
X76073000Y-120650000D02*
X85833001Y-130410001D01*
X85833001Y-130410001D02*
X86233000Y-130810000D01*
X86200000Y-139065000D02*
X86200000Y-134017999D01*
X86200000Y-134017999D02*
X86233000Y-133984999D01*
G04 #@! TO.N,/PA5_DAC_OUT2*
X119380000Y-97750000D02*
X124420000Y-97750000D01*
X127000000Y-100330000D02*
X129540000Y-100330000D01*
X124420000Y-97750000D02*
X127000000Y-100330000D01*
G04 #@! TO.N,Net-(JIN1-Pad3)*
X91186000Y-129540000D02*
X95885000Y-129540000D01*
X92075000Y-165735000D02*
X95250000Y-168910000D01*
X88900000Y-97750000D02*
X87630000Y-99020000D01*
X92075000Y-161747200D02*
X92075000Y-165735000D01*
X95250000Y-168910000D02*
X96520000Y-168910000D01*
X100965000Y-152857200D02*
X92075000Y-161747200D01*
X85064600Y-123418600D02*
X91186000Y-129540000D01*
X100965000Y-134620000D02*
X100965000Y-152857200D01*
X87630000Y-104140000D02*
X85064600Y-106705400D01*
X85064600Y-106705400D02*
X85064600Y-123418600D01*
X95885000Y-129540000D02*
X100965000Y-134620000D01*
X87630000Y-99020000D02*
X87630000Y-104140000D01*
G04 #@! TO.N,Net-(JIN1-Pad2)*
X77114400Y-106654600D02*
X78536800Y-108077000D01*
X77114400Y-97002600D02*
X77114400Y-106654600D01*
X81915000Y-92202000D02*
X77114400Y-97002600D01*
X78536800Y-108077000D02*
X78536800Y-120446800D01*
X87124792Y-92202000D02*
X81915000Y-92202000D01*
X88900000Y-93977208D02*
X87124792Y-92202000D01*
X88900000Y-95250000D02*
X88900000Y-93977208D01*
X100101400Y-169494200D02*
X100101400Y-166141400D01*
X98094800Y-171500800D02*
X100101400Y-169494200D01*
X87706200Y-171500800D02*
X98094800Y-171500800D01*
X85369400Y-161823400D02*
X85369400Y-169164000D01*
X100101400Y-166141400D02*
X96520000Y-162560000D01*
X77393800Y-153847800D02*
X85369400Y-161823400D01*
X85369400Y-169164000D02*
X87706200Y-171500800D01*
X77393800Y-132740400D02*
X77393800Y-153847800D01*
X78536800Y-131597400D02*
X77393800Y-132740400D01*
X78536800Y-128930400D02*
X78536800Y-131597400D01*
G04 #@! TO.N,Net-(JOUT1-Pad2)*
X117000000Y-146685000D02*
X117000000Y-148971000D01*
X119460000Y-148971000D02*
X117000000Y-148971000D01*
D28*
X119469000Y-148980000D02*
X119460000Y-148971000D01*
X120269000Y-148980000D02*
X119469000Y-148980000D01*
D30*
X117856000Y-162560000D02*
X121920000Y-162560000D01*
X117000000Y-161704000D02*
X117856000Y-162560000D01*
X117000000Y-148971000D02*
X117000000Y-161704000D01*
G04 #@! TO.N,Net-(JOUT1-Pad3)*
X118240000Y-136525000D02*
X117000000Y-137765000D01*
X117000000Y-137765000D02*
X117000000Y-139065000D01*
X120269000Y-136525000D02*
X118240000Y-136525000D01*
X114935000Y-168910000D02*
X117475000Y-168910000D01*
X117000000Y-139065000D02*
X115327996Y-139065000D01*
X115327996Y-139065000D02*
X114490011Y-139902985D01*
X114490011Y-139902985D02*
X114490011Y-144589989D01*
X113195998Y-145884002D02*
X113195998Y-167170998D01*
X114490011Y-144589989D02*
X113195998Y-145884002D01*
X113195998Y-167170998D02*
X114935000Y-168910000D01*
X117475000Y-168910000D02*
X121920000Y-168910000D01*
D28*
G04 #@! TO.N,Net-(R1-Pad1)*
X80663000Y-141097000D02*
X80645000Y-141115000D01*
D30*
X82804000Y-141097000D02*
X80663000Y-141097000D01*
X83566000Y-140335000D02*
X82804000Y-141097000D01*
X86200000Y-140335000D02*
X83566000Y-140335000D01*
X88265000Y-140344000D02*
X88265000Y-144399000D01*
X88256000Y-140335000D02*
X86200000Y-140335000D01*
X80416400Y-107061000D02*
X80416400Y-122580400D01*
X78257400Y-104902000D02*
X80416400Y-107061000D01*
X82804000Y-93218000D02*
X78257400Y-97764600D01*
X85640792Y-93218000D02*
X82804000Y-93218000D01*
X78257400Y-97764600D02*
X78257400Y-104902000D01*
X86400000Y-93977208D02*
X85640792Y-93218000D01*
X86400000Y-95250000D02*
X86400000Y-93977208D01*
X80416400Y-130987802D02*
X80416402Y-130987800D01*
X80416400Y-133299200D02*
X80416400Y-130987802D01*
X80104200Y-141115000D02*
X78841600Y-139852400D01*
X78841600Y-139852400D02*
X78841600Y-134874000D01*
X78841600Y-134874000D02*
X80416400Y-133299200D01*
X80645000Y-141115000D02*
X80104200Y-141115000D01*
G04 #@! TO.N,/FLAT_LINE_ADJUST_IN*
X88519000Y-146440000D02*
X91440000Y-146440000D01*
X104427000Y-114300000D02*
X107950000Y-114300000D01*
X110245000Y-112005000D02*
X111760000Y-112005000D01*
X107950000Y-114300000D02*
X110245000Y-112005000D01*
X91440000Y-146440000D02*
X91440000Y-147955000D01*
X91440000Y-147955000D02*
X92710000Y-149225000D01*
X92710000Y-149225000D02*
X96520000Y-149225000D01*
X96520000Y-149225000D02*
X99060000Y-146685000D01*
X99060000Y-146685000D02*
X99060000Y-135255000D01*
X101549200Y-115570000D02*
X101549200Y-132341536D01*
X101549200Y-132341536D02*
X101549200Y-132765800D01*
X102819200Y-114300000D02*
X101549200Y-115570000D01*
X104427000Y-114300000D02*
X102819200Y-114300000D01*
G04 #@! TO.N,Net-(R2-Pad1)*
X89789000Y-141605000D02*
X91600000Y-141605000D01*
X91821000Y-144399000D02*
X93862000Y-146440000D01*
D28*
X91449000Y-144399000D02*
X91821000Y-144399000D01*
X91440000Y-144390000D02*
X91449000Y-144399000D01*
D30*
X90640000Y-144390000D02*
X91440000Y-144390000D01*
X89789000Y-143539000D02*
X90640000Y-144390000D01*
X89789000Y-141605000D02*
X89789000Y-143539000D01*
X86400000Y-97750000D02*
X86400000Y-99022792D01*
X89789000Y-141605000D02*
X89789000Y-133985000D01*
X89389001Y-130410001D02*
X89789000Y-130810000D01*
X82626200Y-106603800D02*
X82626200Y-123647200D01*
X82626200Y-123647200D02*
X89389001Y-130410001D01*
X86360000Y-102870000D02*
X82626200Y-106603800D01*
X86360000Y-99062792D02*
X86360000Y-102870000D01*
G04 #@! TO.N,Net-(R17-Pad2)*
X120269000Y-146930000D02*
X122301000Y-146930000D01*
X119498000Y-146930000D02*
X120269000Y-146930000D01*
X117983000Y-145415000D02*
X119498000Y-146930000D01*
X117000000Y-145415000D02*
X117983000Y-145415000D01*
X115750000Y-145415000D02*
X115443000Y-145415000D01*
X117000000Y-145415000D02*
X115443000Y-145415000D01*
X108839000Y-137024000D02*
X110354000Y-137024000D01*
X114173000Y-146685000D02*
X114173000Y-146685006D01*
X115443000Y-145415000D02*
X114173000Y-146685000D01*
G04 #@! TO.N,/FLAT_LINE_ADJUST_OUT*
X124070000Y-148980000D02*
X122301000Y-148980000D01*
X125730000Y-147320000D02*
X124070000Y-148980000D01*
X125730000Y-135001000D02*
X125730000Y-147320000D01*
X123698000Y-132969000D02*
X125730000Y-135001000D01*
X122310000Y-132969000D02*
X123698000Y-132969000D01*
X99027000Y-110904000D02*
X99027000Y-113030000D01*
X94615000Y-111760000D02*
X95504000Y-110871000D01*
X95504000Y-110871000D02*
X99060000Y-110871000D01*
X99060000Y-110998000D02*
X99060000Y-109982000D01*
X126365000Y-121285000D02*
X126365000Y-108585000D01*
X122310000Y-132969000D02*
X122310000Y-125340000D01*
X122310000Y-125340000D02*
X126365000Y-121285000D01*
X109855000Y-108585000D02*
X120650000Y-108585000D01*
X101727000Y-107188000D02*
X108458000Y-107188000D01*
X108458000Y-107188000D02*
X109855000Y-108585000D01*
X99060000Y-109855000D02*
X101727000Y-107188000D01*
G04 #@! TO.N,Net-(R10-Pad2)*
X122310000Y-136525000D02*
X122310000Y-138548000D01*
X122310000Y-134756000D02*
X122310000Y-136525000D01*
X120269000Y-134747000D02*
X122301000Y-134747000D01*
X120260000Y-132969000D02*
X120260000Y-134738000D01*
X120523000Y-140335000D02*
X122310000Y-138548000D01*
X117000000Y-140335000D02*
X120523000Y-140335000D01*
X115443000Y-140335000D02*
X115443000Y-144399000D01*
X117000000Y-140335000D02*
X115443000Y-140335000D01*
X108712000Y-149098000D02*
X110236000Y-149098000D01*
D28*
G04 #@! TO.N,Net-(R11-Pad2)*
X93980000Y-122555000D02*
X95250000Y-122555000D01*
X90170000Y-118745000D02*
X93980000Y-122555000D01*
X90170000Y-116840000D02*
X90170000Y-118745000D01*
X91440000Y-115570000D02*
X90170000Y-116840000D01*
X91440000Y-114055000D02*
X91440000Y-115570000D01*
G04 #@! TO.N,Net-(R12-Pad1)*
X88265000Y-120570000D02*
X90250000Y-122555000D01*
X88265000Y-114055000D02*
X88265000Y-120570000D01*
G04 #@! TO.N,Net-(R13-Pad2)*
X118110000Y-117475000D02*
X118110000Y-114055000D01*
X113030000Y-122555000D02*
X118110000Y-117475000D01*
G04 #@! TO.N,Net-(R14-Pad1)*
X114935000Y-117475000D02*
X114935000Y-114055000D01*
X109935000Y-122475000D02*
X114935000Y-117475000D01*
X107950000Y-122475000D02*
X109935000Y-122475000D01*
X108030000Y-122555000D02*
X107950000Y-122475000D01*
G04 #@! TO.N,Net-(R15-Pad2)*
X99018000Y-114309000D02*
X99027000Y-114300000D01*
D30*
X94361000Y-114309000D02*
X99018000Y-114309000D01*
G04 #@! TO.N,Net-(R16-Pad2)*
X110245000Y-115570000D02*
X104427000Y-115570000D01*
X111760000Y-114055000D02*
X110245000Y-115570000D01*
D28*
G04 #@! TO.N,Net-(R17-Pad1)*
X111600000Y-140335000D02*
X111600000Y-139065000D01*
X111591000Y-139074000D02*
X111600000Y-139065000D01*
X108839000Y-139074000D02*
X111591000Y-139074000D01*
G04 #@! TO.N,Net-(R18-Pad1)*
X111600000Y-145415000D02*
X111600000Y-146685000D01*
D30*
X110744000Y-147574000D02*
X111600000Y-146718000D01*
X107442000Y-147574000D02*
X110744000Y-147574000D01*
X111600000Y-146718000D02*
X111600000Y-146685000D01*
X106798000Y-148218000D02*
X107442000Y-147574000D01*
X106798000Y-149098000D02*
X106798000Y-148218000D01*
G04 #@! TO.N,Net-(RV2-Pad5)*
X116880000Y-102275000D02*
X116880000Y-97750000D01*
X119380000Y-104775000D02*
X116880000Y-102275000D01*
X123190000Y-104775000D02*
X119380000Y-104775000D01*
X112395000Y-144145000D02*
X113665000Y-142875000D01*
X111600000Y-144145000D02*
X112395000Y-144145000D01*
X113665000Y-142875000D02*
X113665000Y-130810000D01*
X113665000Y-130810000D02*
X124460000Y-120015000D01*
X124460000Y-120015000D02*
X124460000Y-106045000D01*
X124460000Y-106045000D02*
X123190000Y-104775000D01*
G04 #@! TO.N,Net-(RV2-Pad2)*
X106045000Y-134620000D02*
X106045000Y-139700000D01*
X107950000Y-141605000D02*
X111600000Y-141605000D01*
X122555000Y-118110000D02*
X106045000Y-134620000D01*
X111125000Y-106680000D02*
X122555000Y-106680000D01*
X106045000Y-139700000D02*
X107950000Y-141605000D01*
X116880000Y-93385000D02*
X116713000Y-93218000D01*
X109093000Y-97688400D02*
X109093000Y-104648000D01*
X109093000Y-104648000D02*
X111125000Y-106680000D01*
X116713000Y-93218000D02*
X113563400Y-93218000D01*
X116880000Y-95250000D02*
X116880000Y-93385000D01*
X113563400Y-93218000D02*
X109093000Y-97688400D01*
X122555000Y-106680000D02*
X122555000Y-118110000D01*
D28*
G04 #@! TO.N,Net-(RV3-Pad2)*
X94735000Y-115570000D02*
X99027000Y-115570000D01*
X92750000Y-117555000D02*
X94735000Y-115570000D01*
G04 #@! TO.N,Net-(RV4-Pad2)*
X110410000Y-117555000D02*
X110490000Y-117475000D01*
X107776000Y-117555000D02*
X110410000Y-117555000D01*
X107061000Y-116840000D02*
X107776000Y-117555000D01*
X104427000Y-116840000D02*
X107061000Y-116840000D01*
G04 #@! TO.N,GNDS*
X86199992Y-141604992D02*
X84455000Y-141604992D01*
X86200000Y-141605000D02*
X86199992Y-141604992D01*
X117000000Y-141605000D02*
X118745000Y-141605000D01*
X117000000Y-144145000D02*
X118745000Y-144145000D01*
X91600000Y-142875000D02*
X93345000Y-142875000D01*
D27*
X105260000Y-111125000D02*
X106680000Y-111125000D01*
X105260000Y-109855000D02*
X106680000Y-109855000D01*
X97940000Y-120015000D02*
X97940000Y-118260000D01*
X97940000Y-118260000D02*
X97155000Y-117475000D01*
X92560000Y-135890000D02*
X92560000Y-137160000D01*
X108100000Y-144145000D02*
X108100000Y-143025000D01*
X108100000Y-143025000D02*
X108100000Y-142875000D01*
X108100000Y-144145000D02*
X108100000Y-145265000D01*
X121770000Y-142875000D02*
X121770000Y-144145000D01*
X121770000Y-142875000D02*
X121770000Y-141755000D01*
D29*
X102298500Y-102617500D02*
X102294500Y-102613500D01*
D27*
X92560000Y-138089498D02*
X92583002Y-138112500D01*
X92560000Y-137160000D02*
X92560000Y-138089498D01*
X84940000Y-143995000D02*
X85090000Y-144145000D01*
X84836000Y-143891000D02*
X85090000Y-144145000D01*
X82550000Y-143891000D02*
X84836000Y-143891000D01*
D29*
X102294500Y-104052700D02*
X102258000Y-104089200D01*
X102294500Y-102613500D02*
X102294500Y-104052700D01*
D27*
X103060500Y-97612200D02*
X103060500Y-98651200D01*
X100012500Y-98714700D02*
X100012500Y-97624900D01*
X100012500Y-97624900D02*
X100025200Y-97612200D01*
D30*
X105958500Y-104114600D02*
X105958500Y-105298100D01*
D29*
X105958500Y-105298100D02*
X105968800Y-105308400D01*
D30*
X102258000Y-104089200D02*
X102258000Y-105306000D01*
D29*
X102258000Y-105306000D02*
X102260400Y-105308400D01*
D30*
X102034200Y-101673800D02*
X102044500Y-101663500D01*
D27*
X97409000Y-101673800D02*
X102034200Y-101673800D01*
D30*
X103022400Y-101676200D02*
X103073200Y-101625400D01*
D27*
X104010600Y-101676200D02*
X103022400Y-101676200D01*
X104988500Y-100698300D02*
X104010600Y-101676200D01*
D30*
G04 #@! TO.N,/LM27762PSU/5V*
X98933000Y-100723700D02*
X98869500Y-100660200D01*
X100622100Y-100723700D02*
X98933000Y-100723700D01*
D29*
X102794500Y-99887200D02*
X103060500Y-99621200D01*
X102794500Y-100713500D02*
X102794500Y-99887200D01*
D27*
X98933000Y-99580700D02*
X97663000Y-98310700D01*
X98933000Y-100596700D02*
X98933000Y-99580700D01*
X98996500Y-105336200D02*
X97000200Y-105336200D01*
X104648000Y-97358200D02*
X103709499Y-96419699D01*
X104648000Y-98745038D02*
X104648000Y-97358200D01*
X103771838Y-99621200D02*
X104648000Y-98745038D01*
X103060500Y-99621200D02*
X103771838Y-99621200D01*
D29*
X99418900Y-105333800D02*
X99695000Y-105333800D01*
X99416500Y-105336200D02*
X99418900Y-105333800D01*
X99695000Y-105333800D02*
X101794500Y-103234300D01*
X98996500Y-105336200D02*
X99416500Y-105336200D01*
X101794500Y-103234300D02*
X101794500Y-102613500D01*
D28*
X103124000Y-90373200D02*
X103124000Y-92913200D01*
D27*
X103709499Y-96419699D02*
X103124000Y-96419699D01*
X95986600Y-105308400D02*
X96977200Y-105308400D01*
X95046800Y-104368600D02*
X95986600Y-105308400D01*
X95046800Y-99161600D02*
X95046800Y-104368600D01*
X95871904Y-98336496D02*
X95046800Y-99161600D01*
X97649904Y-98336496D02*
X95871904Y-98336496D01*
X103124000Y-96419699D02*
X98017301Y-96419699D01*
X97650300Y-98336100D02*
X97649904Y-98336496D01*
X97650300Y-96786700D02*
X97650300Y-98336100D01*
X98017301Y-96419699D02*
X97650300Y-96786700D01*
X103124000Y-92913200D02*
X103124000Y-96316800D01*
D29*
G04 #@! TO.N,Net-(C6-Pad1)*
X102294500Y-98036700D02*
X101956500Y-97698700D01*
X101956500Y-97698700D02*
X101536500Y-97698700D01*
X102294500Y-100713500D02*
X102294500Y-98036700D01*
G04 #@! TO.N,Net-(C6-Pad2)*
X101794500Y-98926700D02*
X101536500Y-98668700D01*
X101794500Y-100713500D02*
X101794500Y-98926700D01*
G04 #@! TO.N,Net-(C7-Pad2)*
X103228000Y-103669200D02*
X103228000Y-104089200D01*
X103228000Y-103547000D02*
X103228000Y-103669200D01*
X102794500Y-103113500D02*
X103228000Y-103547000D01*
X102794500Y-102613500D02*
X102794500Y-103113500D01*
D28*
G04 #@! TO.N,VDD*
X95173800Y-90932000D02*
X97256600Y-93014800D01*
X81026000Y-90932000D02*
X95173800Y-90932000D01*
X75819000Y-106993081D02*
X75819000Y-96139000D01*
X97256600Y-93014800D02*
X100634800Y-93014800D01*
X73660000Y-107950000D02*
X74862081Y-107950000D01*
X75819000Y-96139000D02*
X81026000Y-90932000D01*
X74862081Y-107950000D02*
X75819000Y-106993081D01*
G04 #@! TO.N,/LM27762PSU/VDDEXT*
X100584000Y-86817200D02*
X100609400Y-86791800D01*
X100584000Y-90373200D02*
X100584000Y-86817200D01*
D29*
G04 #@! TO.N,Net-(R19-Pad1)*
X99784302Y-102613500D02*
X100419500Y-102613500D01*
X100419500Y-102613500D02*
X100794500Y-102613500D01*
X98996500Y-104366200D02*
X98996500Y-103401302D01*
X98996500Y-103401302D02*
X99784302Y-102613500D01*
G04 #@! TO.N,Net-(R20-Pad1)*
X100811190Y-103581200D02*
X100373258Y-103581200D01*
X101294500Y-102613500D02*
X101294500Y-103097890D01*
X101294500Y-103097890D02*
X100811190Y-103581200D01*
X100373258Y-103581200D02*
X99948994Y-103581200D01*
D30*
X97421700Y-102666800D02*
X96139000Y-102666800D01*
X97421700Y-102577900D02*
X97510598Y-102666798D01*
X97510598Y-102666798D02*
X98102336Y-102666798D01*
X98102336Y-102666798D02*
X98526600Y-102666798D01*
G04 #@! TO.N,Net-(R21-Pad2)*
X105958500Y-100698300D02*
X105958500Y-102298500D01*
D29*
X103669500Y-100713500D02*
X104548300Y-99834700D01*
X103294500Y-100713500D02*
X103669500Y-100713500D01*
X105958500Y-100278300D02*
X105958500Y-100698300D01*
X105514900Y-99834700D02*
X105958500Y-100278300D01*
X104548300Y-99834700D02*
X105514900Y-99834700D01*
G04 #@! TD*
M02*
