G04 #@! TF.GenerationSoftware,KiCad,Pcbnew,(5.0.0-3-g5ebb6b6)*
G04 #@! TF.CreationDate,2019-03-02T11:42:57+00:00*
G04 #@! TF.ProjectId,WsonBagelBoard,57736F6E426167656C426F6172642E6B,rev?*
G04 #@! TF.SameCoordinates,Original*
G04 #@! TF.FileFunction,Legend,Bot*
G04 #@! TF.FilePolarity,Positive*
%FSLAX46Y46*%
G04 Gerber Fmt 4.6, Leading zero omitted, Abs format (unit mm)*
G04 Created by KiCad (PCBNEW (5.0.0-3-g5ebb6b6)) date Saturday, 02 March 2019 at 11:42:57*
%MOMM*%
%LPD*%
G01*
G04 APERTURE LIST*
%ADD10C,0.125000*%
%ADD11C,0.120000*%
G04 APERTURE END LIST*
D10*
X106484514Y-61437671D02*
X106508323Y-61461480D01*
X106579752Y-61485290D01*
X106627371Y-61485290D01*
X106698800Y-61461480D01*
X106746419Y-61413861D01*
X106770228Y-61366242D01*
X106794038Y-61271004D01*
X106794038Y-61199576D01*
X106770228Y-61104338D01*
X106746419Y-61056719D01*
X106698800Y-61009100D01*
X106627371Y-60985290D01*
X106579752Y-60985290D01*
X106508323Y-61009100D01*
X106484514Y-61032909D01*
X106270228Y-61437671D02*
X106246419Y-61461480D01*
X106270228Y-61485290D01*
X106294038Y-61461480D01*
X106270228Y-61437671D01*
X106270228Y-61485290D01*
X106055942Y-61461480D02*
X105984514Y-61485290D01*
X105865466Y-61485290D01*
X105817847Y-61461480D01*
X105794038Y-61437671D01*
X105770228Y-61390052D01*
X105770228Y-61342433D01*
X105794038Y-61294814D01*
X105817847Y-61271004D01*
X105865466Y-61247195D01*
X105960704Y-61223385D01*
X106008323Y-61199576D01*
X106032133Y-61175766D01*
X106055942Y-61128147D01*
X106055942Y-61080528D01*
X106032133Y-61032909D01*
X106008323Y-61009100D01*
X105960704Y-60985290D01*
X105841657Y-60985290D01*
X105770228Y-61009100D01*
X105341657Y-61151957D02*
X105341657Y-61485290D01*
X105555942Y-61151957D02*
X105555942Y-61413861D01*
X105532133Y-61461480D01*
X105484514Y-61485290D01*
X105413085Y-61485290D01*
X105365466Y-61461480D01*
X105341657Y-61437671D01*
X105174990Y-61151957D02*
X104984514Y-61151957D01*
X105103561Y-60985290D02*
X105103561Y-61413861D01*
X105079752Y-61461480D01*
X105032133Y-61485290D01*
X104984514Y-61485290D01*
X104889276Y-61151957D02*
X104698800Y-61151957D01*
X104817847Y-60985290D02*
X104817847Y-61413861D01*
X104794038Y-61461480D01*
X104746419Y-61485290D01*
X104698800Y-61485290D01*
X104460704Y-61485290D02*
X104508323Y-61461480D01*
X104532133Y-61437671D01*
X104555942Y-61390052D01*
X104555942Y-61247195D01*
X104532133Y-61199576D01*
X104508323Y-61175766D01*
X104460704Y-61151957D01*
X104389276Y-61151957D01*
X104341657Y-61175766D01*
X104317847Y-61199576D01*
X104294038Y-61247195D01*
X104294038Y-61390052D01*
X104317847Y-61437671D01*
X104341657Y-61461480D01*
X104389276Y-61485290D01*
X104460704Y-61485290D01*
X104079752Y-61151957D02*
X104079752Y-61485290D01*
X104079752Y-61199576D02*
X104055942Y-61175766D01*
X104008323Y-61151957D01*
X103936895Y-61151957D01*
X103889276Y-61175766D01*
X103865466Y-61223385D01*
X103865466Y-61485290D01*
X102841657Y-61104338D02*
X102889276Y-61080528D01*
X102984514Y-61080528D01*
X103032133Y-61104338D01*
X103079752Y-61151957D01*
X103103561Y-61199576D01*
X103103561Y-61294814D01*
X103079752Y-61342433D01*
X103032133Y-61390052D01*
X102984514Y-61413861D01*
X102889276Y-61413861D01*
X102841657Y-61390052D01*
X102936895Y-60913861D02*
X103055942Y-60937671D01*
X103174990Y-61009100D01*
X103246419Y-61128147D01*
X103270228Y-61247195D01*
X103246419Y-61366242D01*
X103174990Y-61485290D01*
X103055942Y-61556719D01*
X102936895Y-61580528D01*
X102817847Y-61556719D01*
X102698800Y-61485290D01*
X102627371Y-61366242D01*
X102603561Y-61247195D01*
X102627371Y-61128147D01*
X102698800Y-61009100D01*
X102817847Y-60937671D01*
X102936895Y-60913861D01*
X106305942Y-62360290D02*
X106472609Y-62122195D01*
X106591657Y-62360290D02*
X106591657Y-61860290D01*
X106401180Y-61860290D01*
X106353561Y-61884100D01*
X106329752Y-61907909D01*
X106305942Y-61955528D01*
X106305942Y-62026957D01*
X106329752Y-62074576D01*
X106353561Y-62098385D01*
X106401180Y-62122195D01*
X106591657Y-62122195D01*
X105901180Y-62336480D02*
X105948800Y-62360290D01*
X106044038Y-62360290D01*
X106091657Y-62336480D01*
X106115466Y-62288861D01*
X106115466Y-62098385D01*
X106091657Y-62050766D01*
X106044038Y-62026957D01*
X105948800Y-62026957D01*
X105901180Y-62050766D01*
X105877371Y-62098385D01*
X105877371Y-62146004D01*
X106115466Y-62193623D01*
X105710704Y-62026957D02*
X105591657Y-62360290D01*
X105472609Y-62026957D01*
X105305942Y-62217433D02*
X105067847Y-62217433D01*
X105353561Y-62360290D02*
X105186895Y-61860290D01*
X105020228Y-62360290D01*
X104496419Y-61907909D02*
X104472609Y-61884100D01*
X104424990Y-61860290D01*
X104305942Y-61860290D01*
X104258323Y-61884100D01*
X104234514Y-61907909D01*
X104210704Y-61955528D01*
X104210704Y-62003147D01*
X104234514Y-62074576D01*
X104520228Y-62360290D01*
X104210704Y-62360290D01*
X103901180Y-61860290D02*
X103853561Y-61860290D01*
X103805942Y-61884100D01*
X103782133Y-61907909D01*
X103758323Y-61955528D01*
X103734514Y-62050766D01*
X103734514Y-62169814D01*
X103758323Y-62265052D01*
X103782133Y-62312671D01*
X103805942Y-62336480D01*
X103853561Y-62360290D01*
X103901180Y-62360290D01*
X103948800Y-62336480D01*
X103972609Y-62312671D01*
X103996419Y-62265052D01*
X104020228Y-62169814D01*
X104020228Y-62050766D01*
X103996419Y-61955528D01*
X103972609Y-61907909D01*
X103948800Y-61884100D01*
X103901180Y-61860290D01*
X103258323Y-62360290D02*
X103544038Y-62360290D01*
X103401180Y-62360290D02*
X103401180Y-61860290D01*
X103448800Y-61931719D01*
X103496419Y-61979338D01*
X103544038Y-62003147D01*
X103020228Y-62360290D02*
X102924990Y-62360290D01*
X102877371Y-62336480D01*
X102853561Y-62312671D01*
X102805942Y-62241242D01*
X102782133Y-62146004D01*
X102782133Y-61955528D01*
X102805942Y-61907909D01*
X102829752Y-61884100D01*
X102877371Y-61860290D01*
X102972609Y-61860290D01*
X103020228Y-61884100D01*
X103044038Y-61907909D01*
X103067847Y-61955528D01*
X103067847Y-62074576D01*
X103044038Y-62122195D01*
X103020228Y-62146004D01*
X102972609Y-62169814D01*
X102877371Y-62169814D01*
X102829752Y-62146004D01*
X102805942Y-62122195D01*
X102782133Y-62074576D01*
D11*
G04 #@! TO.C,J_MNT1*
X123250000Y-52010000D02*
X123250000Y-54670000D01*
X105410000Y-52010000D02*
X123250000Y-52010000D01*
X105410000Y-54670000D02*
X123250000Y-54670000D01*
X105410000Y-52010000D02*
X105410000Y-54670000D01*
X104140000Y-52010000D02*
X102810000Y-52010000D01*
X102810000Y-52010000D02*
X102810000Y-53340000D01*
G04 #@! TO.C,J_MNT2*
X102810000Y-69790000D02*
X102810000Y-71120000D01*
X104140000Y-69790000D02*
X102810000Y-69790000D01*
X105410000Y-69790000D02*
X105410000Y-72450000D01*
X105410000Y-72450000D02*
X123250000Y-72450000D01*
X105410000Y-69790000D02*
X123250000Y-69790000D01*
X123250000Y-69790000D02*
X123250000Y-72450000D01*
G04 #@! TD*
M02*
