M48
;DRILL file {KiCad (5.0.0-3-g5ebb6b6)} date Saturday, 02 March 2019 at 11:42:59
;FORMAT={-:-/ absolute / metric / decimal}
FMAT,2
METRIC,TZ
T1C0.300
T2C0.400
T3C1.000
%
G90
G05
M71
T1
X114.506Y-65.468
X115.506Y-65.468
X116.506Y-65.468
T2
X102.235Y-56.388
X102.235Y-57.531
X102.235Y-58.674
X103.441Y-56.388
X104.648Y-56.388
X105.855Y-56.388
X107.061Y-56.388
X107.061Y-57.531
X107.061Y-58.674
X111.442Y-67.27
X111.455Y-65.684
X111.76Y-60.325
X113.471Y-64.453
X116.586Y-57.658
X116.891Y-69.444
X117.526Y-62.916
X119.444Y-58.229
T3
X109.22Y-53.34
X114.3Y-53.34
X116.84Y-53.34
X119.38Y-53.34
X121.92Y-53.34
X99.695Y-59.69
X99.695Y-62.23
X104.14Y-71.12
X106.68Y-71.12
X109.22Y-71.12
X111.76Y-71.12
X114.3Y-71.12
X116.84Y-71.12
X119.38Y-71.12
X121.92Y-71.12
X124.46Y-59.055
X124.46Y-61.595
X124.46Y-64.135
X104.14Y-53.34
X106.68Y-53.34
X111.76Y-53.34
T0
M30
