<?xml version="1.0" standalone="no"?>
 <!DOCTYPE svg PUBLIC "-//W3C//DTD SVG 1.1//EN" 
 "http://www.w3.org/Graphics/SVG/1.1/DTD/svg11.dtd"> 
<svg xmlns="http://www.w3.org/2000/svg" version="1.1" 
    width="20cm" height="15.0012cm" viewBox="0 0 78740 59060 ">
<title>SVG Picture created as ATTINY_ICSP_ADAPTOR.svg date 2018/12/02 13:38:00 </title>
  <desc>Picture generated by Eeschema-SVG </desc>
<g style="fill:#000000; fill-opacity:1;stroke:#000000; stroke-opacity:1;
stroke-linecap:round; stroke-linejoin:round; "
 transform="translate(0 0) scale(1 1)">
</g>
<g style="fill:#000000; fill-opacity:0.0; 
stroke:#000000; stroke-width:-10; stroke-opacity:1; 
stroke-linecap:round; stroke-linejoin:round;">
</g>
<g style="fill:#840000; fill-opacity:0.0; 
stroke:#840000; stroke-width:-10; stroke-opacity:1; 
stroke-linecap:round; stroke-linejoin:round;">
</g>
<g style="fill:#840000; fill-opacity:0.0; 
stroke:#840000; stroke-width:100; stroke-opacity:1; 
stroke-linecap:round; stroke-linejoin:round;">
</g>
<g style="fill:#840000; fill-opacity:0.0; 
stroke:#840000; stroke-width:60; stroke-opacity:1; 
stroke-linecap:round; stroke-linejoin:round;">
<rect x="31500" y="41740" width="42520" height="12600" rx="0" />
</g>
<g style="fill:#840000; fill-opacity:0.0; 
stroke:#840000; stroke-width:100; stroke-opacity:1; 
stroke-linecap:round; stroke-linejoin:round;">
</g>
<g style="fill:#840000; fill-opacity:0.0; 
stroke:#840000; stroke-width:60; stroke-opacity:1; 
stroke-linecap:round; stroke-linejoin:round;">
<rect x="3940" y="3940" width="70860" height="51180" rx="0" />
</g>
<g style="fill:#840000; fill-opacity:0.0; 
stroke:#840000; stroke-width:100; stroke-opacity:1; 
stroke-linecap:round; stroke-linejoin:round;">
</g>
<g style="fill:#840000; fill-opacity:0.0; 
stroke:#840000; stroke-width:60; stroke-opacity:1; 
stroke-linecap:round; stroke-linejoin:round;">
<rect x="4720" y="4720" width="69300" height="49620" rx="0" />
</g>
<g style="fill:#840000; fill-opacity:0.0; 
stroke:#840000; stroke-width:100; stroke-opacity:1; 
stroke-linecap:round; stroke-linejoin:round;">
</g>
<g style="fill:#840000; fill-opacity:0.0; 
stroke:#840000; stroke-width:60; stroke-opacity:1; 
stroke-linecap:round; stroke-linejoin:round;">
<path d="M23620 4720
L23620 3940
" />
</g>
<g style="fill:#840000; fill-opacity:0.0; 
stroke:#840000; stroke-width:100; stroke-opacity:1; 
stroke-linecap:round; stroke-linejoin:round;">
</g>
<g style="fill:#840000; fill-opacity:0.0; 
stroke:#840000; stroke-width:60; stroke-opacity:1; 
stroke-linecap:round; stroke-linejoin:round;">
<path d="M43310 4720
L43310 3940
" />
</g>
<g style="fill:#840000; fill-opacity:0.0; 
stroke:#840000; stroke-width:100; stroke-opacity:1; 
stroke-linecap:round; stroke-linejoin:round;">
</g>
<g style="fill:#840000; fill-opacity:0.0; 
stroke:#840000; stroke-width:60; stroke-opacity:1; 
stroke-linecap:round; stroke-linejoin:round;">
<path d="M62990 4720
L62990 3940
" />
</g>
<g style="fill:#840000; fill-opacity:0.0; 
stroke:#840000; stroke-width:100; stroke-opacity:1; 
stroke-linecap:round; stroke-linejoin:round;">
</g>
<g style="fill:#840000; fill-opacity:0.0; 
stroke:#840000; stroke-width:60; stroke-opacity:1; 
stroke-linecap:round; stroke-linejoin:round;">
<path d="M14190 4560
L13900 4560
" />
<path d="M14050 4560
L14050 4050
L14000 4120
L13950 4170
L13900 4190
" />
</g>
<g style="fill:#840000; fill-opacity:0.0; 
stroke:#840000; stroke-width:100; stroke-opacity:1; 
stroke-linecap:round; stroke-linejoin:round;">
</g>
<g style="fill:#840000; fill-opacity:0.0; 
stroke:#840000; stroke-width:60; stroke-opacity:1; 
stroke-linecap:round; stroke-linejoin:round;">
<path d="M33580 4090
L33610 4070
L33660 4050
L33780 4050
L33830 4070
L33850 4090
L33870 4140
L33870 4190
L33850 4260
L33560 4560
L33870 4560
" />
</g>
<g style="fill:#840000; fill-opacity:0.0; 
stroke:#840000; stroke-width:100; stroke-opacity:1; 
stroke-linecap:round; stroke-linejoin:round;">
</g>
<g style="fill:#840000; fill-opacity:0.0; 
stroke:#840000; stroke-width:60; stroke-opacity:1; 
stroke-linecap:round; stroke-linejoin:round;">
<path d="M53250 4050
L53560 4050
L53390 4240
L53470 4240
L53520 4260
L53540 4290
L53560 4340
L53560 4460
L53540 4510
L53520 4530
L53470 4560
L53320 4560
L53270 4530
L53250 4510
" />
</g>
<g style="fill:#840000; fill-opacity:0.0; 
stroke:#840000; stroke-width:100; stroke-opacity:1; 
stroke-linecap:round; stroke-linejoin:round;">
</g>
<g style="fill:#840000; fill-opacity:0.0; 
stroke:#840000; stroke-width:60; stroke-opacity:1; 
stroke-linecap:round; stroke-linejoin:round;">
<path d="M73200 4220
L73200 4560
" />
<path d="M73070 4020
L72950 4390
L73270 4390
" />
</g>
<g style="fill:#840000; fill-opacity:0.0; 
stroke:#840000; stroke-width:100; stroke-opacity:1; 
stroke-linecap:round; stroke-linejoin:round;">
</g>
<g style="fill:#840000; fill-opacity:0.0; 
stroke:#840000; stroke-width:60; stroke-opacity:1; 
stroke-linecap:round; stroke-linejoin:round;">
<path d="M23620 54340
L23620 55120
" />
</g>
<g style="fill:#840000; fill-opacity:0.0; 
stroke:#840000; stroke-width:100; stroke-opacity:1; 
stroke-linecap:round; stroke-linejoin:round;">
</g>
<g style="fill:#840000; fill-opacity:0.0; 
stroke:#840000; stroke-width:60; stroke-opacity:1; 
stroke-linecap:round; stroke-linejoin:round;">
<path d="M43310 54340
L43310 55120
" />
</g>
<g style="fill:#840000; fill-opacity:0.0; 
stroke:#840000; stroke-width:100; stroke-opacity:1; 
stroke-linecap:round; stroke-linejoin:round;">
</g>
<g style="fill:#840000; fill-opacity:0.0; 
stroke:#840000; stroke-width:60; stroke-opacity:1; 
stroke-linecap:round; stroke-linejoin:round;">
<path d="M62990 54340
L62990 55120
" />
</g>
<g style="fill:#840000; fill-opacity:0.0; 
stroke:#840000; stroke-width:100; stroke-opacity:1; 
stroke-linecap:round; stroke-linejoin:round;">
</g>
<g style="fill:#840000; fill-opacity:0.0; 
stroke:#840000; stroke-width:60; stroke-opacity:1; 
stroke-linecap:round; stroke-linejoin:round;">
<path d="M14190 54960
L13900 54960
" />
<path d="M14050 54960
L14050 54450
L14000 54520
L13950 54570
L13900 54590
" />
</g>
<g style="fill:#840000; fill-opacity:0.0; 
stroke:#840000; stroke-width:100; stroke-opacity:1; 
stroke-linecap:round; stroke-linejoin:round;">
</g>
<g style="fill:#840000; fill-opacity:0.0; 
stroke:#840000; stroke-width:60; stroke-opacity:1; 
stroke-linecap:round; stroke-linejoin:round;">
<path d="M33580 54490
L33610 54470
L33660 54450
L33780 54450
L33830 54470
L33850 54490
L33870 54540
L33870 54590
L33850 54660
L33560 54960
L33870 54960
" />
</g>
<g style="fill:#840000; fill-opacity:0.0; 
stroke:#840000; stroke-width:100; stroke-opacity:1; 
stroke-linecap:round; stroke-linejoin:round;">
</g>
<g style="fill:#840000; fill-opacity:0.0; 
stroke:#840000; stroke-width:60; stroke-opacity:1; 
stroke-linecap:round; stroke-linejoin:round;">
<path d="M53250 54450
L53560 54450
L53390 54640
L53470 54640
L53520 54660
L53540 54690
L53560 54740
L53560 54860
L53540 54910
L53520 54930
L53470 54960
L53320 54960
L53270 54930
L53250 54910
" />
</g>
<g style="fill:#840000; fill-opacity:0.0; 
stroke:#840000; stroke-width:100; stroke-opacity:1; 
stroke-linecap:round; stroke-linejoin:round;">
</g>
<g style="fill:#840000; fill-opacity:0.0; 
stroke:#840000; stroke-width:60; stroke-opacity:1; 
stroke-linecap:round; stroke-linejoin:round;">
<path d="M73200 54620
L73200 54960
" />
<path d="M73070 54420
L72950 54790
L73270 54790
" />
</g>
<g style="fill:#840000; fill-opacity:0.0; 
stroke:#840000; stroke-width:100; stroke-opacity:1; 
stroke-linecap:round; stroke-linejoin:round;">
</g>
<g style="fill:#840000; fill-opacity:0.0; 
stroke:#840000; stroke-width:60; stroke-opacity:1; 
stroke-linecap:round; stroke-linejoin:round;">
<path d="M3940 23620
L4720 23620
" />
</g>
<g style="fill:#840000; fill-opacity:0.0; 
stroke:#840000; stroke-width:100; stroke-opacity:1; 
stroke-linecap:round; stroke-linejoin:round;">
</g>
<g style="fill:#840000; fill-opacity:0.0; 
stroke:#840000; stroke-width:60; stroke-opacity:1; 
stroke-linecap:round; stroke-linejoin:round;">
<path d="M3940 43310
L4720 43310
" />
</g>
<g style="fill:#840000; fill-opacity:0.0; 
stroke:#840000; stroke-width:100; stroke-opacity:1; 
stroke-linecap:round; stroke-linejoin:round;">
</g>
<g style="fill:#840000; fill-opacity:0.0; 
stroke:#840000; stroke-width:60; stroke-opacity:1; 
stroke-linecap:round; stroke-linejoin:round;">
<path d="M4200 13860
L4450 13860
" />
<path d="M4160 14010
L4330 13500
L4500 14010
" />
</g>
<g style="fill:#840000; fill-opacity:0.0; 
stroke:#840000; stroke-width:100; stroke-opacity:1; 
stroke-linecap:round; stroke-linejoin:round;">
</g>
<g style="fill:#840000; fill-opacity:0.0; 
stroke:#840000; stroke-width:60; stroke-opacity:1; 
stroke-linecap:round; stroke-linejoin:round;">
<path d="M4360 33420
L4430 33440
L4460 33470
L4480 33520
L4480 33590
L4460 33640
L4430 33660
L4390 33690
L4190 33690
L4190 33180
L4360 33180
L4410 33200
L4430 33220
L4460 33270
L4460 33320
L4430 33370
L4410 33390
L4360 33420
L4190 33420
" />
</g>
<g style="fill:#840000; fill-opacity:0.0; 
stroke:#840000; stroke-width:100; stroke-opacity:1; 
stroke-linecap:round; stroke-linejoin:round;">
</g>
<g style="fill:#840000; fill-opacity:0.0; 
stroke:#840000; stroke-width:60; stroke-opacity:1; 
stroke-linecap:round; stroke-linejoin:round;">
<path d="M4480 53330
L4460 53350
L4390 53380
L4340 53380
L4260 53350
L4220 53300
L4190 53250
L4170 53160
L4170 53080
L4190 52990
L4220 52940
L4260 52890
L4340 52870
L4390 52870
L4460 52890
L4480 52910
" />
</g>
<g style="fill:#840000; fill-opacity:0.0; 
stroke:#840000; stroke-width:100; stroke-opacity:1; 
stroke-linecap:round; stroke-linejoin:round;">
</g>
<g style="fill:#840000; fill-opacity:0.0; 
stroke:#840000; stroke-width:60; stroke-opacity:1; 
stroke-linecap:round; stroke-linejoin:round;">
<path d="M74800 23620
L74020 23620
" />
</g>
<g style="fill:#840000; fill-opacity:0.0; 
stroke:#840000; stroke-width:100; stroke-opacity:1; 
stroke-linecap:round; stroke-linejoin:round;">
</g>
<g style="fill:#840000; fill-opacity:0.0; 
stroke:#840000; stroke-width:60; stroke-opacity:1; 
stroke-linecap:round; stroke-linejoin:round;">
<path d="M74800 43310
L74020 43310
" />
</g>
<g style="fill:#840000; fill-opacity:0.0; 
stroke:#840000; stroke-width:100; stroke-opacity:1; 
stroke-linecap:round; stroke-linejoin:round;">
</g>
<g style="fill:#840000; fill-opacity:0.0; 
stroke:#840000; stroke-width:60; stroke-opacity:1; 
stroke-linecap:round; stroke-linejoin:round;">
<path d="M74280 13860
L74530 13860
" />
<path d="M74240 14010
L74410 13500
L74580 14010
" />
</g>
<g style="fill:#840000; fill-opacity:0.0; 
stroke:#840000; stroke-width:100; stroke-opacity:1; 
stroke-linecap:round; stroke-linejoin:round;">
</g>
<g style="fill:#840000; fill-opacity:0.0; 
stroke:#840000; stroke-width:60; stroke-opacity:1; 
stroke-linecap:round; stroke-linejoin:round;">
<path d="M74440 33420
L74510 33440
L74540 33470
L74560 33520
L74560 33590
L74540 33640
L74510 33660
L74470 33690
L74270 33690
L74270 33180
L74440 33180
L74490 33200
L74510 33220
L74540 33270
L74540 33320
L74510 33370
L74490 33390
L74440 33420
L74270 33420
" />
</g>
<g style="fill:#840000; fill-opacity:0.0; 
stroke:#840000; stroke-width:100; stroke-opacity:1; 
stroke-linecap:round; stroke-linejoin:round;">
</g>
<g style="fill:#840000; fill-opacity:0.0; 
stroke:#840000; stroke-width:60; stroke-opacity:1; 
stroke-linecap:round; stroke-linejoin:round;">
<path d="M74560 53330
L74540 53350
L74470 53380
L74420 53380
L74340 53350
L74300 53300
L74270 53250
L74250 53160
L74250 53080
L74270 52990
L74300 52940
L74340 52890
L74420 52870
L74470 52870
L74540 52890
L74560 52910
" />
</g>
<g style="fill:#840000; fill-opacity:0.0; 
stroke:#840000; stroke-width:100; stroke-opacity:1; 
stroke-linecap:round; stroke-linejoin:round;">
</g>
<g style="fill:#840000; fill-opacity:0.0; 
stroke:#840000; stroke-width:60; stroke-opacity:1; 
stroke-linecap:round; stroke-linejoin:round;">
<path d="M40720 52670
L40720 52080
L40860 52080
L40940 52110
L41000 52170
L41020 52220
L41050 52330
L41050 52420
L41020 52530
L41000 52590
L40940 52640
L40860 52670
L40720 52670
" />
<path d="M41560 52670
L41560 52360
L41530 52310
L41470 52280
L41360 52280
L41310 52310
" />
<path d="M41560 52640
L41500 52670
L41360 52670
L41310 52640
L41280 52590
L41280 52530
L41310 52480
L41360 52450
L41500 52450
L41560 52420
" />
<path d="M41760 52280
L41980 52280
" />
<path d="M41840 52080
L41840 52590
L41870 52640
L41920 52670
L41980 52670
" />
<path d="M42400 52640
L42350 52670
L42230 52670
L42180 52640
L42150 52590
L42150 52360
L42180 52310
L42230 52280
L42350 52280
L42400 52310
L42430 52360
L42430 52420
L42150 52480
" />
<path d="M42680 52620
L42710 52640
L42680 52670
L42650 52640
L42680 52620
L42680 52670
" />
<path d="M42680 52310
L42710 52330
L42680 52360
L42650 52330
L42680 52310
L42680 52360
" />
</g>
<g style="fill:#840000; fill-opacity:0.0; 
stroke:#840000; stroke-width:100; stroke-opacity:1; 
stroke-linecap:round; stroke-linejoin:round;">
</g>
<g style="fill:#840000; fill-opacity:0.0; 
stroke:#840000; stroke-width:60; stroke-opacity:1; 
stroke-linecap:round; stroke-linejoin:round;">
<path d="M31500 52960
L74020 52960
" />
</g>
<g style="fill:#840000; fill-opacity:0.0; 
stroke:#840000; stroke-width:100; stroke-opacity:1; 
stroke-linecap:round; stroke-linejoin:round;">
</g>
<g style="fill:#840000; fill-opacity:0.0; 
stroke:#840000; stroke-width:60; stroke-opacity:1; 
stroke-linecap:round; stroke-linejoin:round;">
<path d="M32060 53770
L32060 53180
" />
<path d="M32390 53770
L32140 53430
" />
<path d="M32390 53180
L32060 53520
" />
<path d="M32650 53770
L32650 53380
" />
<path d="M32650 53180
L32620 53210
L32650 53240
L32670 53210
L32650 53180
L32650 53240
" />
<path d="M33260 53720
L33240 53740
L33150 53770
L33100 53770
L33010 53740
L32950 53690
L32930 53630
L32900 53520
L32900 53430
L32930 53320
L32950 53270
L33010 53210
L33100 53180
L33150 53180
L33240 53210
L33260 53240
" />
<path d="M33770 53770
L33770 53460
L33740 53410
L33690 53380
L33570 53380
L33520 53410
" />
<path d="M33770 53740
L33710 53770
L33570 53770
L33520 53740
L33490 53690
L33490 53630
L33520 53580
L33570 53550
L33710 53550
L33770 53520
" />
<path d="M34300 53770
L34300 53180
" />
<path d="M34300 53740
L34250 53770
L34130 53770
L34080 53740
L34050 53720
L34020 53660
L34020 53490
L34050 53430
L34080 53410
L34130 53380
L34250 53380
L34300 53410
" />
<path d="M35030 53460
L35230 53460
" />
<path d="M35310 53770
L35030 53770
L35030 53180
L35310 53180
" />
<path d="M35570 53720
L35600 53740
L35570 53770
L35540 53740
L35570 53720
L35570 53770
" />
<path d="M35850 53770
L35850 53180
L35990 53180
L36070 53210
L36130 53270
L36160 53320
L36190 53430
L36190 53520
L36160 53630
L36130 53690
L36070 53740
L35990 53770
L35850 53770
" />
<path d="M36440 53720
L36470 53740
L36440 53770
L36410 53740
L36440 53720
L36440 53770
" />
<path d="M36690 53600
L36970 53600
" />
<path d="M36640 53770
L36830 53180
L37030 53770
" />
<path d="M37230 53720
L37250 53740
L37230 53770
L37200 53740
L37230 53720
L37230 53770
" />
<path d="M38410 53770
L38410 53180
" />
<path d="M38460 53550
L38630 53770
" />
<path d="M38630 53380
L38410 53600
" />
<path d="M38880 53770
L38880 53380
" />
<path d="M38880 53180
L38850 53210
L38880 53240
L38910 53210
L38880 53180
L38880 53240
" />
<path d="M39420 53740
L39360 53770
L39250 53770
L39190 53740
L39160 53720
L39140 53660
L39140 53490
L39160 53430
L39190 53410
L39250 53380
L39360 53380
L39420 53410
" />
<path d="M39920 53770
L39920 53460
L39890 53410
L39840 53380
L39730 53380
L39670 53410
" />
<path d="M39920 53740
L39870 53770
L39730 53770
L39670 53740
L39640 53690
L39640 53630
L39670 53580
L39730 53550
L39870 53550
L39920 53520
" />
<path d="M40460 53770
L40460 53180
" />
<path d="M40460 53740
L40400 53770
L40290 53770
L40230 53740
L40200 53720
L40180 53660
L40180 53490
L40200 53430
L40230 53410
L40290 53380
L40400 53380
L40460 53410
" />
<path d="M41360 54000
L41330 53970
L41270 53880
L41240 53830
L41210 53740
L41190 53600
L41190 53490
L41210 53350
L41240 53270
L41270 53210
L41330 53130
L41360 53100
" />
<path d="M41860 53180
L41580 53180
L41550 53460
L41580 53430
L41640 53410
L41780 53410
L41830 53430
L41860 53460
L41890 53520
L41890 53660
L41860 53720
L41830 53740
L41780 53770
L41640 53770
L41580 53740
L41550 53720
" />
<path d="M42140 53720
L42170 53740
L42140 53770
L42110 53740
L42140 53720
L42140 53770
" />
<path d="M42540 53180
L42590 53180
L42650 53210
L42680 53240
L42700 53290
L42730 53410
L42730 53550
L42700 53660
L42680 53720
L42650 53740
L42590 53770
L42540 53770
L42480 53740
L42450 53720
L42420 53660
L42390 53550
L42390 53410
L42420 53290
L42450 53240
L42480 53210
L42540 53180
" />
<path d="M42980 53720
L43010 53740
L42980 53770
L42960 53740
L42980 53720
L42980 53770
" />
<path d="M43380 53180
L43430 53180
L43490 53210
L43520 53240
L43550 53290
L43570 53410
L43570 53550
L43550 53660
L43520 53720
L43490 53740
L43430 53770
L43380 53770
L43320 53740
L43290 53720
L43270 53660
L43240 53550
L43240 53410
L43270 53290
L43290 53240
L43320 53210
L43380 53180
" />
<path d="M43830 53550
L44280 53550
" />
<path d="M44500 53180
L44870 53180
L44670 53410
L44750 53410
L44810 53430
L44840 53460
L44870 53520
L44870 53660
L44840 53720
L44810 53740
L44750 53770
L44590 53770
L44530 53740
L44500 53720
" />
<path d="M45120 53550
L45570 53550
" />
<path d="M46100 53380
L46100 53860
L46080 53910
L46050 53940
L45990 53970
L45910 53970
L45850 53940
" />
<path d="M46100 53740
L46050 53770
L45930 53770
L45880 53740
L45850 53720
L45820 53660
L45820 53490
L45850 53430
L45880 53410
L45930 53380
L46050 53380
L46100 53410
" />
<path d="M46670 53180
L46380 53180
L46360 53460
L46380 53430
L46440 53410
L46580 53410
L46640 53430
L46670 53460
L46690 53520
L46690 53660
L46670 53720
L46640 53740
L46580 53770
L46440 53770
L46380 53740
L46360 53720
" />
<path d="M47170 53740
L47110 53770
L47000 53770
L46950 53740
L46920 53690
L46920 53460
L46950 53410
L47000 53380
L47110 53380
L47170 53410
L47200 53460
L47200 53520
L46920 53580
" />
<path d="M47450 53770
L47450 53180
" />
<path d="M47450 53410
L47510 53380
L47620 53380
L47680 53410
L47700 53430
L47730 53490
L47730 53660
L47700 53720
L47680 53740
L47620 53770
L47510 53770
L47450 53740
" />
<path d="M47990 53770
L47990 53180
" />
<path d="M47990 53410
L48040 53380
L48150 53380
L48210 53410
L48240 53430
L48270 53490
L48270 53660
L48240 53720
L48210 53740
L48150 53770
L48040 53770
L47990 53740
" />
<path d="M48770 53180
L48660 53180
L48600 53210
L48580 53240
L48520 53320
L48490 53430
L48490 53660
L48520 53720
L48550 53740
L48600 53770
L48720 53770
L48770 53740
L48800 53720
L48830 53660
L48830 53520
L48800 53460
L48770 53430
L48720 53410
L48600 53410
L48550 53430
L48520 53460
L48490 53520
" />
<path d="M49080 53770
L49080 53180
" />
<path d="M49080 53410
L49140 53380
L49250 53380
L49310 53410
L49330 53430
L49360 53490
L49360 53660
L49330 53720
L49310 53740
L49250 53770
L49140 53770
L49080 53740
" />
<path d="M49870 53180
L49760 53180
L49700 53210
L49670 53240
L49610 53320
L49590 53430
L49590 53660
L49610 53720
L49640 53740
L49700 53770
L49810 53770
L49870 53740
L49900 53720
L49920 53660
L49920 53520
L49900 53460
L49870 53430
L49810 53410
L49700 53410
L49640 53430
L49610 53460
L49590 53520
" />
<path d="M50120 54000
L50150 53970
L50200 53880
L50230 53830
L50260 53740
L50290 53600
L50290 53490
L50260 53350
L50230 53270
L50200 53210
L50150 53130
L50120 53100
" />
</g>
<g style="fill:#840000; fill-opacity:0.0; 
stroke:#840000; stroke-width:100; stroke-opacity:1; 
stroke-linecap:round; stroke-linejoin:round;">
</g>
<g style="fill:#840000; fill-opacity:0.0; 
stroke:#840000; stroke-width:60; stroke-opacity:1; 
stroke-linecap:round; stroke-linejoin:round;">
<path d="M31500 51780
L74020 51780
" />
</g>
<g style="fill:#840000; fill-opacity:0.0; 
stroke:#840000; stroke-width:100; stroke-opacity:1; 
stroke-linecap:round; stroke-linejoin:round;">
</g>
<g style="fill:#840000; fill-opacity:0.0; 
stroke:#840000; stroke-width:120; stroke-opacity:1; 
stroke-linecap:round; stroke-linejoin:round;">
<path d="M65900 52670
L65700 52390
" />
<path d="M65560 52670
L65560 52080
L65790 52080
L65840 52110
L65870 52140
L65900 52190
L65900 52280
L65870 52330
L65840 52360
L65790 52390
L65560 52390
" />
<path d="M66380 52640
L66320 52670
L66210 52670
L66150 52640
L66130 52590
L66130 52360
L66150 52310
L66210 52280
L66320 52280
L66380 52310
L66410 52360
L66410 52420
L66130 52480
" />
<path d="M66600 52280
L66740 52670
L66880 52280
" />
<path d="M67110 52620
L67140 52640
L67110 52670
L67080 52640
L67110 52620
L67110 52670
" />
<path d="M67110 52310
L67140 52330
L67110 52360
L67080 52330
L67110 52310
L67110 52360
" />
</g>
<g style="fill:#840000; fill-opacity:0.0; 
stroke:#840000; stroke-width:100; stroke-opacity:1; 
stroke-linecap:round; stroke-linejoin:round;">
</g>
<g style="fill:#840000; fill-opacity:0.0; 
stroke:#840000; stroke-width:60; stroke-opacity:1; 
stroke-linecap:round; stroke-linejoin:round;">
<path d="M32030 52640
L32110 52670
L32250 52670
L32310 52640
L32340 52620
L32360 52560
L32360 52500
L32340 52450
L32310 52420
L32250 52390
L32140 52360
L32080 52330
L32060 52310
L32030 52250
L32030 52190
L32060 52140
L32080 52110
L32140 52080
L32280 52080
L32360 52110
" />
<path d="M32620 52670
L32620 52280
" />
<path d="M32620 52080
L32590 52110
L32620 52140
L32650 52110
L32620 52080
L32620 52140
" />
<path d="M32840 52280
L33150 52280
L32840 52670
L33150 52670
" />
<path d="M33600 52640
L33540 52670
L33430 52670
L33380 52640
L33350 52590
L33350 52360
L33380 52310
L33430 52280
L33540 52280
L33600 52310
L33630 52360
L33630 52420
L33350 52480
" />
<path d="M33880 52620
L33910 52640
L33880 52670
L33850 52640
L33880 52620
L33880 52670
" />
<path d="M33880 52310
L33910 52330
L33880 52360
L33850 52330
L33880 52310
L33880 52360
" />
<path d="M34610 52080
L34610 52560
L34640 52620
L34670 52640
L34720 52670
L34840 52670
L34890 52640
L34920 52620
L34950 52560
L34950 52080
" />
<path d="M35200 52640
L35260 52670
L35370 52670
L35430 52640
L35460 52590
L35460 52560
L35430 52500
L35370 52480
L35290 52480
L35230 52450
L35200 52390
L35200 52360
L35230 52310
L35290 52280
L35370 52280
L35430 52310
" />
<path d="M35930 52640
L35880 52670
L35760 52670
L35710 52640
L35680 52590
L35680 52360
L35710 52310
L35760 52280
L35880 52280
L35930 52310
L35960 52360
L35960 52420
L35680 52480
" />
<path d="M36210 52670
L36210 52280
" />
<path d="M36210 52390
L36240 52330
L36270 52310
L36330 52280
L36380 52280
" />
</g>
<g style="fill:#840000; fill-opacity:0.0; 
stroke:#840000; stroke-width:100; stroke-opacity:1; 
stroke-linecap:round; stroke-linejoin:round;">
</g>
<g style="fill:#840000; fill-opacity:0.0; 
stroke:#840000; stroke-width:60; stroke-opacity:1; 
stroke-linecap:round; stroke-linejoin:round;">
<path d="M65520 53770
L65520 53180
" />
<path d="M66050 53770
L66050 53180
" />
<path d="M66050 53740
L65990 53770
L65880 53770
L65820 53740
L65800 53720
L65770 53660
L65770 53490
L65800 53430
L65820 53410
L65880 53380
L65990 53380
L66050 53410
" />
<path d="M66330 53720
L66360 53740
L66330 53770
L66300 53740
L66330 53720
L66330 53770
" />
<path d="M66330 53410
L66360 53430
L66330 53460
L66300 53430
L66330 53410
L66330 53460
" />
<path d="M67370 53770
L67030 53770
" />
<path d="M67200 53770
L67200 53180
L67150 53270
L67090 53320
L67030 53350
" />
<path d="M68040 53150
L67540 53910
" />
<path d="M68550 53770
L68210 53770
" />
<path d="M68380 53770
L68380 53180
L68330 53270
L68270 53320
L68210 53350
" />
</g>
<g style="fill:#840000; fill-opacity:0.0; 
stroke:#840000; stroke-width:100; stroke-opacity:1; 
stroke-linecap:round; stroke-linejoin:round;">
</g>
<g style="fill:#840000; fill-opacity:0.0; 
stroke:#840000; stroke-width:60; stroke-opacity:1; 
stroke-linecap:round; stroke-linejoin:round;">
<path d="M31500 50200
L74020 50200
" />
</g>
<g style="fill:#840000; fill-opacity:0.0; 
stroke:#840000; stroke-width:100; stroke-opacity:1; 
stroke-linecap:round; stroke-linejoin:round;">
</g>
<g style="fill:#840000; fill-opacity:0.0; 
stroke:#840000; stroke-width:160; stroke-opacity:1; 
stroke-linecap:round; stroke-linejoin:round;">
<path d="M32170 50470
L32620 50470
" />
<path d="M32290 51260
L32390 50470
" />
<path d="M32780 51260
L32850 50740
" />
<path d="M32880 50470
L32840 50510
L32870 50550
L32920 50510
L32880 50470
L32870 50550
" />
<path d="M33110 50740
L33410 50740
" />
<path d="M33260 50470
L33170 51150
L33200 51220
L33270 51260
L33350 51260
" />
<path d="M33720 51260
L33650 51220
L33630 51150
L33710 50470
" />
<path d="M34330 51220
L34250 51260
L34100 51260
L34030 51220
L34000 51150
L34040 50850
L34090 50770
L34170 50740
L34320 50740
L34390 50770
L34420 50850
L34410 50920
L34020 51000
" />
<path d="M34710 51190
L34740 51220
L34700 51260
L34670 51220
L34710 51190
L34700 51260
" />
<path d="M34760 50770
L34800 50810
L34750 50850
L34720 50810
L34760 50770
L34750 50850
" />
</g>
<g style="fill:#840000; fill-opacity:0.0; 
stroke:#840000; stroke-width:100; stroke-opacity:1; 
stroke-linecap:round; stroke-linejoin:round;">
</g>
<g style="fill:#840000; fill-opacity:0.0; 
stroke:#840000; stroke-width:60; stroke-opacity:1; 
stroke-linecap:round; stroke-linejoin:round;">
<path d="M32250 49440
L32060 49440
" />
<path d="M32060 49750
L32060 49160
L32340 49160
" />
<path d="M32560 49750
L32560 49360
" />
<path d="M32560 49160
L32530 49190
L32560 49220
L32590 49190
L32560 49160
L32560 49220
" />
<path d="M32930 49750
L32870 49720
L32840 49670
L32840 49160
" />
<path d="M33380 49720
L33320 49750
L33210 49750
L33150 49720
L33120 49670
L33120 49440
L33150 49390
L33210 49360
L33320 49360
L33380 49390
L33400 49440
L33400 49500
L33120 49560
" />
<path d="M33660 49700
L33690 49720
L33660 49750
L33630 49720
L33660 49700
L33660 49750
" />
<path d="M33660 49390
L33690 49410
L33660 49440
L33630 49410
L33660 49390
L33660 49440
" />
<path d="M34360 49580
L34640 49580
" />
<path d="M34300 49750
L34500 49160
L34700 49750
" />
<path d="M34810 49160
L35150 49160
" />
<path d="M34980 49750
L34980 49160
" />
<path d="M35260 49160
L35600 49160
" />
<path d="M35430 49750
L35430 49160
" />
<path d="M35790 49750
L35790 49160
" />
<path d="M36070 49750
L36070 49160
L36410 49750
L36410 49160
" />
<path d="M36800 49470
L36800 49750
" />
<path d="M36610 49160
L36800 49470
L37000 49160
" />
<path d="M37060 49810
L37510 49810
" />
<path d="M37650 49750
L37650 49160
" />
<path d="M38260 49700
L38240 49720
L38150 49750
L38100 49750
L38010 49720
L37960 49670
L37930 49610
L37900 49500
L37900 49410
L37930 49300
L37960 49250
L38010 49190
L38100 49160
L38150 49160
L38240 49190
L38260 49220
" />
<path d="M38490 49720
L38570 49750
L38710 49750
L38770 49720
L38800 49700
L38830 49640
L38830 49580
L38800 49530
L38770 49500
L38710 49470
L38600 49440
L38550 49410
L38520 49390
L38490 49330
L38490 49270
L38520 49220
L38550 49190
L38600 49160
L38740 49160
L38830 49190
" />
<path d="M39080 49750
L39080 49160
L39300 49160
L39360 49190
L39390 49220
L39420 49270
L39420 49360
L39390 49410
L39360 49440
L39300 49470
L39080 49470
" />
<path d="M39530 49810
L39980 49810
" />
<path d="M40090 49580
L40370 49580
" />
<path d="M40030 49750
L40230 49160
L40430 49750
" />
<path d="M40620 49750
L40620 49160
L40770 49160
L40850 49190
L40910 49250
L40930 49300
L40960 49410
L40960 49500
L40930 49610
L40910 49670
L40850 49720
L40770 49750
L40620 49750
" />
<path d="M41190 49580
L41470 49580
" />
<path d="M41130 49750
L41330 49160
L41520 49750
" />
<path d="M41720 49750
L41720 49160
L41950 49160
L42000 49190
L42030 49220
L42060 49270
L42060 49360
L42030 49410
L42000 49440
L41950 49470
L41720 49470
" />
<path d="M42230 49160
L42560 49160
" />
<path d="M42390 49750
L42390 49160
" />
<path d="M42870 49160
L42980 49160
L43040 49190
L43100 49250
L43130 49360
L43130 49560
L43100 49670
L43040 49720
L42980 49750
L42870 49750
L42820 49720
L42760 49670
L42730 49560
L42730 49360
L42760 49250
L42820 49190
L42870 49160
" />
<path d="M43720 49750
L43520 49470
" />
<path d="M43380 49750
L43380 49160
L43600 49160
L43660 49190
L43690 49220
L43720 49270
L43720 49360
L43690 49410
L43660 49440
L43600 49470
L43380 49470
" />
<path d="M43970 49700
L44000 49720
L43970 49750
L43940 49720
L43970 49700
L43970 49750
" />
<path d="M44220 49720
L44280 49750
L44390 49750
L44450 49720
L44470 49670
L44470 49640
L44450 49580
L44390 49560
L44310 49560
L44250 49530
L44220 49470
L44220 49440
L44250 49390
L44310 49360
L44390 49360
L44450 49390
" />
<path d="M44980 49720
L44920 49750
L44810 49750
L44750 49720
L44730 49700
L44700 49640
L44700 49470
L44730 49410
L44750 49390
L44810 49360
L44920 49360
L44980 49390
" />
<path d="M45230 49750
L45230 49160
" />
<path d="M45490 49750
L45490 49440
L45460 49390
L45400 49360
L45320 49360
L45260 49390
L45230 49410
" />
</g>
<g style="fill:#840000; fill-opacity:0.0; 
stroke:#840000; stroke-width:100; stroke-opacity:1; 
stroke-linecap:round; stroke-linejoin:round;">
</g>
<g style="fill:#840000; fill-opacity:0.0; 
stroke:#840000; stroke-width:60; stroke-opacity:1; 
stroke-linecap:round; stroke-linejoin:round;">
<path d="M31500 47840
L74020 47840
" />
</g>
<g style="fill:#840000; fill-opacity:0.0; 
stroke:#840000; stroke-width:100; stroke-opacity:1; 
stroke-linecap:round; stroke-linejoin:round;">
</g>
<g style="fill:#840000; fill-opacity:0.0; 
stroke:#840000; stroke-width:60; stroke-opacity:1; 
stroke-linecap:round; stroke-linejoin:round;">
<path d="M32030 48660
L32110 48690
L32250 48690
L32310 48660
L32340 48640
L32360 48580
L32360 48520
L32340 48470
L32310 48440
L32250 48410
L32140 48380
L32080 48350
L32060 48330
L32030 48270
L32030 48210
L32060 48160
L32080 48130
L32140 48100
L32280 48100
L32360 48130
" />
<path d="M32620 48690
L32620 48100
" />
<path d="M32870 48690
L32870 48380
L32840 48330
L32790 48300
L32700 48300
L32650 48330
L32620 48350
" />
<path d="M33380 48660
L33320 48690
L33210 48690
L33150 48660
L33120 48610
L33120 48380
L33150 48330
L33210 48300
L33320 48300
L33380 48330
L33400 48380
L33400 48440
L33120 48500
" />
<path d="M33880 48660
L33830 48690
L33710 48690
L33660 48660
L33630 48610
L33630 48380
L33660 48330
L33710 48300
L33830 48300
L33880 48330
L33910 48380
L33910 48440
L33630 48500
" />
<path d="M34080 48300
L34300 48300
" />
<path d="M34160 48100
L34160 48610
L34190 48660
L34250 48690
L34300 48690
" />
<path d="M34500 48640
L34530 48660
L34500 48690
L34470 48660
L34500 48640
L34500 48690
" />
<path d="M34500 48330
L34530 48350
L34500 48380
L34470 48350
L34500 48330
L34500 48380
" />
<path d="M35650 48070
L35150 48830
" />
</g>
<g style="fill:#840000; fill-opacity:0.0; 
stroke:#840000; stroke-width:100; stroke-opacity:1; 
stroke-linecap:round; stroke-linejoin:round;">
</g>
<g style="fill:#840000; fill-opacity:0.0; 
stroke:#840000; stroke-width:60; stroke-opacity:1; 
stroke-linecap:round; stroke-linejoin:round;">
<path d="M39370 51780
L39370 52960
" />
</g>
<g style="fill:#840000; fill-opacity:0.0; 
stroke:#840000; stroke-width:100; stroke-opacity:1; 
stroke-linecap:round; stroke-linejoin:round;">
</g>
<g style="fill:#840000; fill-opacity:0.0; 
stroke:#840000; stroke-width:60; stroke-opacity:1; 
stroke-linecap:round; stroke-linejoin:round;">
<path d="M64570 51780
L64570 54340
" />
</g>
<g style="fill:#840000; fill-opacity:0.0; 
stroke:#840000; stroke-width:0; stroke-opacity:1; 
stroke-linecap:round; stroke-linejoin:round;">
</g>
<g style="fill:#FFFFC2; fill-opacity:0.0; 
stroke:#FFFFC2; stroke-width:0; stroke-opacity:1; 
stroke-linecap:round; stroke-linejoin:round;">
</g>
<g style="fill:#FFFFC2; fill-opacity:0.6; 
stroke:#FFFFC2; stroke-width:0; stroke-opacity:1; 
stroke-linecap:round; stroke-linejoin:round;">
<rect x="23250" y="20250" width="10000" height="10000" rx="0" />
</g>
<g style="fill:#840000; fill-opacity:0.6; 
stroke:#840000; stroke-width:0; stroke-opacity:1; 
stroke-linecap:round; stroke-linejoin:round;">
</g>
<g style="fill:#840000; fill-opacity:0.0; 
stroke:#840000; stroke-width:100; stroke-opacity:1; 
stroke-linecap:round; stroke-linejoin:round;">
<rect x="23250" y="20250" width="10000" height="10000" rx="0" />
</g>
<g style="fill:#840000; fill-opacity:0.0; 
stroke:#840000; stroke-width:60; stroke-opacity:1; 
stroke-linecap:round; stroke-linejoin:round;">
<path d="M33250 27250
L34250 27250
" />
</g>
<g style="fill:#008484; fill-opacity:0.0; 
stroke:#008484; stroke-width:60; stroke-opacity:1; 
stroke-linecap:round; stroke-linejoin:round;">
<path d="M28750 26830
L29250 26830
" />
<path d="M29160 27470
L28990 27230
" />
<path d="M28870 27470
L28870 26970
L29060 26970
L29110 27000
L29130 27020
L29160 27070
L29160 27140
L29130 27190
L29110 27210
L29060 27230
L28870 27230
" />
<path d="M29250 26830
L29710 26830
" />
<path d="M29370 27210
L29540 27210
" />
<path d="M29610 27470
L29370 27470
L29370 26970
L29610 26970
" />
<path d="M29710 26830
L30180 26830
" />
<path d="M29800 27450
L29870 27470
L29990 27470
L30040 27450
L30060 27420
L30090 27380
L30090 27330
L30060 27280
L30040 27260
L29990 27230
L29900 27210
L29850 27190
L29820 27160
L29800 27110
L29800 27070
L29820 27020
L29850 27000
L29900 26970
L30020 26970
L30090 27000
" />
<path d="M30180 26830
L30630 26830
" />
<path d="M30300 27210
L30470 27210
" />
<path d="M30540 27470
L30300 27470
L30300 26970
L30540 26970
" />
<path d="M30630 26830
L31020 26830
" />
<path d="M30680 26970
L30970 26970
" />
<path d="M30820 27470
L30820 26970
" />
<path d="M31490 26950
L31060 27590
" />
<path d="M31660 27470
L31660 26970
L31850 26970
L31900 27000
L31920 27020
L31940 27070
L31940 27140
L31920 27190
L31900 27210
L31850 27230
L31660 27230
" />
<path d="M32320 27210
L32400 27230
L32420 27260
L32440 27300
L32440 27380
L32420 27420
L32400 27450
L32350 27470
L32160 27470
L32160 26970
L32320 26970
L32370 27000
L32400 27020
L32420 27070
L32420 27110
L32400 27160
L32370 27190
L32320 27210
L32160 27210
" />
<path d="M32900 26970
L32660 26970
L32630 27210
L32660 27190
L32710 27160
L32820 27160
L32870 27190
L32900 27210
L32920 27260
L32920 27380
L32900 27420
L32870 27450
L32820 27470
L32710 27470
L32660 27450
L32630 27420
" />
</g>
<g style="fill:#840000; fill-opacity:0.0; 
stroke:#840000; stroke-width:60; stroke-opacity:1; 
stroke-linecap:round; stroke-linejoin:round;">
<path d="M33890 27120
L33600 27120
" />
<path d="M33750 27120
L33750 26620
L33700 26690
L33650 26740
L33600 26760
" />
<path d="M33250 25250
L34250 25250
" />
</g>
<g style="fill:#008484; fill-opacity:0.0; 
stroke:#008484; stroke-width:60; stroke-opacity:1; 
stroke-linecap:round; stroke-linejoin:round;">
<path d="M28920 24970
L29250 25470
" />
<path d="M29250 24970
L28920 25470
" />
<path d="M29370 24970
L29660 24970
" />
<path d="M29520 25470
L29520 24970
" />
<path d="M29800 25330
L30040 25330
" />
<path d="M29750 25470
L29920 24970
L30090 25470
" />
<path d="M30490 25470
L30250 25470
L30250 24970
" />
<path d="M30920 25470
L30630 25470
" />
<path d="M30780 25470
L30780 24970
L30730 25040
L30680 25090
L30630 25110
" />
<path d="M31490 24950
L31060 25590
" />
<path d="M31660 25470
L31660 24970
L31850 24970
L31900 25000
L31920 25020
L31940 25070
L31940 25140
L31920 25190
L31900 25210
L31850 25230
L31660 25230
" />
<path d="M32320 25210
L32400 25230
L32420 25260
L32440 25300
L32440 25380
L32420 25420
L32400 25450
L32350 25470
L32160 25470
L32160 24970
L32320 24970
L32370 25000
L32400 25020
L32420 25070
L32420 25110
L32400 25160
L32370 25190
L32320 25210
L32160 25210
" />
<path d="M32610 24970
L32920 24970
L32750 25160
L32820 25160
L32870 25190
L32900 25210
L32920 25260
L32920 25380
L32900 25420
L32870 25450
L32820 25470
L32680 25470
L32630 25450
L32610 25420
" />
</g>
<g style="fill:#840000; fill-opacity:0.0; 
stroke:#840000; stroke-width:60; stroke-opacity:1; 
stroke-linecap:round; stroke-linejoin:round;">
<path d="M33600 24670
L33630 24650
L33670 24620
L33790 24620
L33840 24650
L33860 24670
L33890 24720
L33890 24760
L33860 24840
L33580 25120
L33890 25120
" />
<path d="M33250 26250
L34250 26250
" />
</g>
<g style="fill:#008484; fill-opacity:0.0; 
stroke:#008484; stroke-width:60; stroke-opacity:1; 
stroke-linecap:round; stroke-linejoin:round;">
<path d="M28920 25970
L29250 26470
" />
<path d="M29250 25970
L28920 26470
" />
<path d="M29370 25970
L29660 25970
" />
<path d="M29520 26470
L29520 25970
" />
<path d="M29800 26330
L30040 26330
" />
<path d="M29750 26470
L29920 25970
L30090 26470
" />
<path d="M30490 26470
L30250 26470
L30250 25970
" />
<path d="M30630 26020
L30660 26000
L30710 25970
L30820 25970
L30870 26000
L30900 26020
L30920 26070
L30920 26110
L30900 26190
L30610 26470
L30920 26470
" />
<path d="M31490 25950
L31060 26590
" />
<path d="M31660 26470
L31660 25970
L31850 25970
L31900 26000
L31920 26020
L31940 26070
L31940 26140
L31920 26190
L31900 26210
L31850 26230
L31660 26230
" />
<path d="M32320 26210
L32400 26230
L32420 26260
L32440 26300
L32440 26380
L32420 26420
L32400 26450
L32350 26470
L32160 26470
L32160 25970
L32320 25970
L32370 26000
L32400 26020
L32420 26070
L32420 26110
L32400 26160
L32370 26190
L32320 26210
L32160 26210
" />
<path d="M32870 26140
L32870 26470
" />
<path d="M32750 25950
L32630 26300
L32940 26300
" />
</g>
<g style="fill:#840000; fill-opacity:0.0; 
stroke:#840000; stroke-width:60; stroke-opacity:1; 
stroke-linecap:round; stroke-linejoin:round;">
<path d="M33580 25620
L33890 25620
L33720 25810
L33790 25810
L33840 25840
L33860 25860
L33890 25910
L33890 26030
L33860 26070
L33840 26100
L33790 26120
L33650 26120
L33600 26100
L33580 26070
" />
<path d="M28250 30250
L28250 31250
" />
</g>
<g style="fill:#008484; fill-opacity:0.0; 
stroke:#008484; stroke-width:60; stroke-opacity:1; 
stroke-linecap:round; stroke-linejoin:round;">
<path d="M28000 29630
L27970 29680
L27970 29750
L28000 29820
L28040 29870
L28090 29900
L28190 29920
L28260 29920
L28350 29900
L28400 29870
L28450 29820
L28470 29750
L28470 29710
L28450 29630
L28420 29610
L28260 29610
L28260 29710
" />
<path d="M28470 29400
L27970 29400
L28470 29110
L27970 29110
" />
<path d="M28470 28870
L27970 28870
L27970 28750
L28000 28680
L28040 28630
L28090 28610
L28190 28590
L28260 28590
L28350 28610
L28400 28630
L28450 28680
L28470 28750
L28470 28870
" />
</g>
<g style="fill:#840000; fill-opacity:0.0; 
stroke:#840000; stroke-width:60; stroke-opacity:1; 
stroke-linecap:round; stroke-linejoin:round;">
<path d="M27790 30650
L28120 30650
" />
<path d="M27600 30770
L27950 30890
L27950 30580
" />
<path d="M33250 22250
L34250 22250
" />
</g>
<g style="fill:#008484; fill-opacity:0.0; 
stroke:#008484; stroke-width:60; stroke-opacity:1; 
stroke-linecap:round; stroke-linejoin:round;">
<path d="M29300 22330
L29540 22330
" />
<path d="M29250 22470
L29420 21970
L29590 22470
" />
<path d="M30040 22470
L29870 22230
" />
<path d="M29750 22470
L29750 21970
L29940 21970
L29990 22000
L30020 22020
L30040 22070
L30040 22140
L30020 22190
L29990 22210
L29940 22230
L29750 22230
" />
<path d="M30250 22210
L30420 22210
" />
<path d="M30490 22470
L30250 22470
L30250 21970
L30490 21970
" />
<path d="M30870 22210
L30710 22210
" />
<path d="M30710 22470
L30710 21970
L30940 21970
" />
<path d="M31490 21950
L31060 22590
" />
<path d="M31660 22470
L31660 21970
L31850 21970
L31900 22000
L31920 22020
L31940 22070
L31940 22140
L31920 22190
L31900 22210
L31850 22230
L31660 22230
" />
<path d="M32320 22210
L32400 22230
L32420 22260
L32440 22300
L32440 22380
L32420 22420
L32400 22450
L32350 22470
L32160 22470
L32160 21970
L32320 21970
L32370 22000
L32400 22020
L32420 22070
L32420 22110
L32400 22160
L32370 22190
L32320 22210
L32160 22210
" />
<path d="M32750 21970
L32800 21970
L32850 22000
L32870 22020
L32900 22070
L32920 22160
L32920 22280
L32900 22380
L32870 22420
L32850 22450
L32800 22470
L32750 22470
L32710 22450
L32680 22420
L32660 22380
L32630 22280
L32630 22160
L32660 22070
L32680 22020
L32710 22000
L32750 21970
" />
</g>
<g style="fill:#840000; fill-opacity:0.0; 
stroke:#840000; stroke-width:60; stroke-opacity:1; 
stroke-linecap:round; stroke-linejoin:round;">
<path d="M33860 21620
L33630 21620
L33600 21860
L33630 21840
L33670 21810
L33790 21810
L33840 21840
L33860 21860
L33890 21910
L33890 22030
L33860 22070
L33840 22100
L33790 22120
L33670 22120
L33630 22100
L33600 22070
" />
<path d="M33250 23250
L34250 23250
" />
</g>
<g style="fill:#008484; fill-opacity:0.0; 
stroke:#008484; stroke-width:60; stroke-opacity:1; 
stroke-linecap:round; stroke-linejoin:round;">
<path d="M31660 23470
L31660 22970
L31850 22970
L31900 23000
L31920 23020
L31940 23070
L31940 23140
L31920 23190
L31900 23210
L31850 23230
L31660 23230
" />
<path d="M32320 23210
L32400 23230
L32420 23260
L32440 23300
L32440 23380
L32420 23420
L32400 23450
L32350 23470
L32160 23470
L32160 22970
L32320 22970
L32370 23000
L32400 23020
L32420 23070
L32420 23110
L32400 23160
L32370 23190
L32320 23210
L32160 23210
" />
<path d="M32920 23470
L32630 23470
" />
<path d="M32780 23470
L32780 22970
L32730 23040
L32680 23090
L32630 23110
" />
</g>
<g style="fill:#840000; fill-opacity:0.0; 
stroke:#840000; stroke-width:60; stroke-opacity:1; 
stroke-linecap:round; stroke-linejoin:round;">
<path d="M33840 22620
L33750 22620
L33700 22650
L33670 22670
L33630 22740
L33600 22840
L33600 23030
L33630 23070
L33650 23100
L33700 23120
L33790 23120
L33840 23100
L33860 23070
L33890 23030
L33890 22910
L33860 22860
L33840 22840
L33790 22810
L33700 22810
L33650 22840
L33630 22860
L33600 22910
" />
<path d="M33250 24250
L34250 24250
" />
</g>
<g style="fill:#008484; fill-opacity:0.0; 
stroke:#008484; stroke-width:60; stroke-opacity:1; 
stroke-linecap:round; stroke-linejoin:round;">
<path d="M31660 24470
L31660 23970
L31850 23970
L31900 24000
L31920 24020
L31940 24070
L31940 24140
L31920 24190
L31900 24210
L31850 24230
L31660 24230
" />
<path d="M32320 24210
L32400 24230
L32420 24260
L32440 24300
L32440 24380
L32420 24420
L32400 24450
L32350 24470
L32160 24470
L32160 23970
L32320 23970
L32370 24000
L32400 24020
L32420 24070
L32420 24110
L32400 24160
L32370 24190
L32320 24210
L32160 24210
" />
<path d="M32630 24020
L32660 24000
L32710 23970
L32820 23970
L32870 24000
L32900 24020
L32920 24070
L32920 24110
L32900 24190
L32610 24470
L32920 24470
" />
</g>
<g style="fill:#840000; fill-opacity:0.0; 
stroke:#840000; stroke-width:60; stroke-opacity:1; 
stroke-linecap:round; stroke-linejoin:round;">
<path d="M33580 23620
L33910 23620
L33700 24120
" />
<path d="M28250 20250
L28250 19250
" />
</g>
<g style="fill:#008484; fill-opacity:0.0; 
stroke:#008484; stroke-width:60; stroke-opacity:1; 
stroke-linecap:round; stroke-linejoin:round;">
<path d="M27970 21860
L28470 21690
L27970 21520
" />
<path d="M28420 21070
L28450 21090
L28470 21170
L28470 21210
L28450 21280
L28400 21330
L28350 21360
L28260 21380
L28190 21380
L28090 21360
L28040 21330
L28000 21280
L27970 21210
L27970 21170
L28000 21090
L28020 21070
" />
<path d="M28420 20570
L28450 20590
L28470 20670
L28470 20710
L28450 20780
L28400 20830
L28350 20860
L28260 20880
L28190 20880
L28090 20860
L28040 20830
L28000 20780
L27970 20710
L27970 20670
L28000 20590
L28020 20570
" />
</g>
<g style="fill:#840000; fill-opacity:0.0; 
stroke:#840000; stroke-width:60; stroke-opacity:1; 
stroke-linecap:round; stroke-linejoin:round;">
<path d="M27840 19790
L27810 19840
L27790 19860
L27740 19890
L27720 19890
L27670 19860
L27650 19840
L27620 19790
L27620 19700
L27650 19650
L27670 19630
L27720 19600
L27740 19600
L27790 19630
L27810 19650
L27840 19700
L27840 19790
L27860 19840
L27880 19860
L27930 19890
L28030 19890
L28070 19860
L28100 19840
L28120 19790
L28120 19700
L28100 19650
L28070 19630
L28030 19600
L27930 19600
L27880 19630
L27860 19650
L27840 19700
" />
</g>
<g style="fill:#008484; fill-opacity:0.0; 
stroke:#008484; stroke-width:60; stroke-opacity:1; 
stroke-linecap:round; stroke-linejoin:round;">
<path d="M20060 24530
L20060 24940
L20080 24980
L20100 25010
L20150 25030
L20250 25030
L20290 25010
L20320 24980
L20340 24940
L20340 24530
" />
<path d="M20460 25080
L20840 25080
" />
<path d="M20960 25030
L20960 24530
L21130 24890
L21290 24530
L21290 25030
" />
<path d="M21820 24980
L21790 25010
L21720 25030
L21680 25030
L21600 25010
L21560 24960
L21530 24910
L21510 24820
L21510 24750
L21530 24650
L21560 24600
L21600 24560
L21680 24530
L21720 24530
L21790 24560
L21820 24580
" />
<path d="M22030 24530
L22030 24940
L22060 24980
L22080 25010
L22130 25030
L22220 25030
L22270 25010
L22290 24980
L22320 24940
L22320 24530
" />
<path d="M22820 25030
L22530 25030
" />
<path d="M22680 25030
L22680 24530
L22630 24600
L22580 24650
L22530 24670
" />
<path d="M17290 25800
L17530 25800
" />
<path d="M17250 25940
L17410 25440
L17580 25940
" />
<path d="M17670 25440
L17960 25440
" />
<path d="M17820 25940
L17820 25440
" />
<path d="M18060 25610
L18250 25610
" />
<path d="M18130 25440
L18130 25870
L18150 25920
L18200 25940
L18250 25940
" />
<path d="M18410 25940
L18410 25610
" />
<path d="M18410 25440
L18390 25470
L18410 25490
L18440 25470
L18410 25440
L18410 25490
" />
<path d="M18650 25610
L18650 25940
" />
<path d="M18650 25660
L18670 25630
L18720 25610
L18790 25610
L18840 25630
L18860 25680
L18860 25940
" />
<path d="M19060 25610
L19170 25940
" />
<path d="M19290 25610
L19170 25940
L19130 26060
L19100 26080
L19060 26110
" />
<path d="M19560 25660
L19510 25630
L19480 25610
L19460 25560
L19460 25540
L19480 25490
L19510 25470
L19560 25440
L19650 25440
L19700 25470
L19720 25490
L19750 25540
L19750 25560
L19720 25610
L19700 25630
L19650 25660
L19560 25660
L19510 25680
L19480 25700
L19460 25750
L19460 25850
L19480 25890
L19510 25920
L19560 25940
L19650 25940
L19700 25920
L19720 25890
L19750 25850
L19750 25750
L19720 25700
L19700 25680
L19650 25660
" />
<path d="M20200 25440
L19960 25440
L19940 25680
L19960 25660
L20010 25630
L20130 25630
L20170 25660
L20200 25680
L20220 25730
L20220 25850
L20200 25890
L20170 25920
L20130 25940
L20010 25940
L19960 25920
L19940 25890
" />
<path d="M20440 25750
L20820 25750
" />
<path d="M21030 25490
L21060 25470
L21100 25440
L21220 25440
L21270 25470
L21290 25490
L21320 25540
L21320 25580
L21290 25660
L21010 25940
L21320 25940
" />
<path d="M21630 25440
L21670 25440
L21720 25470
L21750 25490
L21770 25540
L21790 25630
L21790 25750
L21770 25850
L21750 25890
L21720 25920
L21670 25940
L21630 25940
L21580 25920
L21560 25890
L21530 25850
L21510 25750
L21510 25630
L21530 25540
L21560 25490
L21580 25470
L21630 25440
" />
<path d="M22010 25940
L22010 25440
L22200 25440
L22250 25470
L22270 25490
L22290 25540
L22290 25610
L22270 25660
L22250 25680
L22200 25700
L22010 25700
" />
<path d="M22510 25440
L22510 25850
L22530 25890
L22560 25920
L22600 25940
L22700 25940
L22750 25920
L22770 25890
L22790 25850
L22790 25440
" />
</g>
<g style="fill:#008484; fill-opacity:0.0; 
stroke:#008484; stroke-width:0; stroke-opacity:1; 
stroke-linecap:round; stroke-linejoin:round;">
</g>
<g style="fill:#840000; fill-opacity:0.0; 
stroke:#840000; stroke-width:0; stroke-opacity:1; 
stroke-linecap:round; stroke-linejoin:round;">
</g>
<g style="fill:#FFFFC2; fill-opacity:0.0; 
stroke:#FFFFC2; stroke-width:0; stroke-opacity:1; 
stroke-linecap:round; stroke-linejoin:round;">
</g>
<g style="fill:#FFFFC2; fill-opacity:0.6; 
stroke:#FFFFC2; stroke-width:0; stroke-opacity:1; 
stroke-linecap:round; stroke-linejoin:round;">
<rect x="41750" y="15750" width="1000" height="4000" rx="0" />
</g>
<g style="fill:#840000; fill-opacity:0.6; 
stroke:#840000; stroke-width:0; stroke-opacity:1; 
stroke-linecap:round; stroke-linejoin:round;">
</g>
<g style="fill:#840000; fill-opacity:0.0; 
stroke:#840000; stroke-width:100; stroke-opacity:1; 
stroke-linecap:round; stroke-linejoin:round;">
<rect x="41750" y="15750" width="1000" height="4000" rx="0" />
</g>
<g style="fill:#840000; fill-opacity:0.0; 
stroke:#840000; stroke-width:60; stroke-opacity:1; 
stroke-linecap:round; stroke-linejoin:round;">
<rect x="41750" y="19200" width="500" height="100" rx="0" />
<rect x="41750" y="18200" width="500" height="100" rx="0" />
<rect x="41750" y="17200" width="500" height="100" rx="0" />
<rect x="41750" y="16200" width="500" height="100" rx="0" />
<path d="M41750 16250
L40250 16250
" />
<path d="M41140 16120
L40850 16120
" />
<path d="M41000 16120
L41000 15620
L40950 15690
L40900 15740
L40850 15760
" />
<path d="M41750 17250
L40250 17250
" />
<path d="M40850 16670
L40880 16650
L40920 16620
L41040 16620
L41090 16650
L41110 16670
L41140 16720
L41140 16760
L41110 16840
L40830 17120
L41140 17120
" />
<path d="M41750 18250
L40250 18250
" />
<path d="M40830 17620
L41140 17620
L40970 17810
L41040 17810
L41090 17840
L41110 17860
L41140 17910
L41140 18030
L41110 18070
L41090 18100
L41040 18120
L40900 18120
L40850 18100
L40830 18070
" />
<path d="M41750 19250
L40250 19250
" />
<path d="M41090 18790
L41090 19120
" />
<path d="M40970 18600
L40850 18950
L41160 18950
" />
</g>
<g style="fill:#008484; fill-opacity:0.0; 
stroke:#008484; stroke-width:60; stroke-opacity:1; 
stroke-linecap:round; stroke-linejoin:round;">
<path d="M43330 17530
L43330 17890
L43310 17960
L43260 18010
L43190 18030
L43140 18030
" />
<path d="M43450 18080
L43830 18080
" />
<path d="M43950 18030
L43950 17530
L44140 17530
L44190 17560
L44210 17580
L44240 17630
L44240 17700
L44210 17750
L44190 17770
L44140 17790
L43950 17790
" />
<path d="M44450 18030
L44450 17530
" />
<path d="M44690 18030
L44690 17530
L44970 18030
L44970 17530
" />
<path d="M45190 18010
L45260 18030
L45380 18030
L45430 18010
L45450 17980
L45470 17940
L45470 17890
L45450 17840
L45430 17820
L45380 17790
L45280 17770
L45240 17750
L45210 17720
L45190 17670
L45190 17630
L45210 17580
L45240 17560
L45280 17530
L45400 17530
L45470 17560
" />
<path d="M45570 18080
L45950 18080
" />
<path d="M46310 17530
L46070 17530
L46050 17770
L46070 17750
L46120 17720
L46240 17720
L46280 17750
L46310 17770
L46330 17820
L46330 17940
L46310 17980
L46280 18010
L46240 18030
L46120 18030
L46070 18010
L46050 17980
" />
<path d="M46550 17840
L46930 17840
" />
<path d="M47240 17750
L47190 17720
L47160 17700
L47140 17650
L47140 17630
L47160 17580
L47190 17560
L47240 17530
L47330 17530
L47380 17560
L47400 17580
L47430 17630
L47430 17650
L47400 17700
L47380 17720
L47330 17750
L47240 17750
L47190 17770
L47160 17790
L47140 17840
L47140 17940
L47160 17980
L47190 18010
L47240 18030
L47330 18030
L47380 18010
L47400 17980
L47430 17940
L47430 17840
L47400 17790
L47380 17770
L47330 17750
" />
</g>
<g style="fill:#008484; fill-opacity:0.0; 
stroke:#008484; stroke-width:0; stroke-opacity:1; 
stroke-linecap:round; stroke-linejoin:round;">
</g>
<g style="fill:#840000; fill-opacity:0.0; 
stroke:#840000; stroke-width:0; stroke-opacity:1; 
stroke-linecap:round; stroke-linejoin:round;">
</g>
<g style="fill:#FFFFC2; fill-opacity:0.0; 
stroke:#FFFFC2; stroke-width:0; stroke-opacity:1; 
stroke-linecap:round; stroke-linejoin:round;">
</g>
<g style="fill:#FFFFC2; fill-opacity:0.6; 
stroke:#FFFFC2; stroke-width:0; stroke-opacity:1; 
stroke-linecap:round; stroke-linejoin:round;">
<rect x="41250" y="28750" width="1000" height="4000" rx="0" />
</g>
<g style="fill:#840000; fill-opacity:0.6; 
stroke:#840000; stroke-width:0; stroke-opacity:1; 
stroke-linecap:round; stroke-linejoin:round;">
</g>
<g style="fill:#840000; fill-opacity:0.0; 
stroke:#840000; stroke-width:100; stroke-opacity:1; 
stroke-linecap:round; stroke-linejoin:round;">
<rect x="41250" y="28750" width="1000" height="4000" rx="0" />
</g>
<g style="fill:#840000; fill-opacity:0.0; 
stroke:#840000; stroke-width:60; stroke-opacity:1; 
stroke-linecap:round; stroke-linejoin:round;">
<rect x="41250" y="32200" width="500" height="100" rx="0" />
<rect x="41250" y="31200" width="500" height="100" rx="0" />
<rect x="41250" y="30200" width="500" height="100" rx="0" />
<rect x="41250" y="29200" width="500" height="100" rx="0" />
<path d="M41250 29250
L39750 29250
" />
<path d="M40640 29120
L40350 29120
" />
<path d="M40500 29120
L40500 28620
L40450 28690
L40400 28740
L40350 28760
" />
<path d="M41250 30250
L39750 30250
" />
<path d="M40350 29670
L40380 29650
L40420 29620
L40540 29620
L40590 29650
L40610 29670
L40640 29720
L40640 29760
L40610 29840
L40330 30120
L40640 30120
" />
<path d="M41250 31250
L39750 31250
" />
<path d="M40330 30620
L40640 30620
L40470 30810
L40540 30810
L40590 30840
L40610 30860
L40640 30910
L40640 31030
L40610 31070
L40590 31100
L40540 31120
L40400 31120
L40350 31100
L40330 31070
" />
<path d="M41250 32250
L39750 32250
" />
<path d="M40590 31790
L40590 32120
" />
<path d="M40470 31600
L40350 31950
L40660 31950
" />
</g>
<g style="fill:#008484; fill-opacity:0.0; 
stroke:#008484; stroke-width:60; stroke-opacity:1; 
stroke-linecap:round; stroke-linejoin:round;">
<path d="M42830 30530
L42830 30890
L42810 30960
L42760 31010
L42690 31030
L42640 31030
" />
<path d="M42950 31080
L43330 31080
" />
<path d="M43450 31030
L43450 30530
L43640 30530
L43690 30560
L43710 30580
L43740 30630
L43740 30700
L43710 30750
L43690 30770
L43640 30790
L43450 30790
" />
<path d="M43950 31030
L43950 30530
" />
<path d="M44190 31030
L44190 30530
L44470 31030
L44470 30530
" />
<path d="M44690 31010
L44760 31030
L44880 31030
L44930 31010
L44950 30980
L44970 30940
L44970 30890
L44950 30840
L44930 30820
L44880 30790
L44780 30770
L44740 30750
L44710 30720
L44690 30670
L44690 30630
L44710 30580
L44740 30560
L44780 30530
L44900 30530
L44970 30560
" />
<path d="M45070 31080
L45450 31080
" />
<path d="M45830 31030
L45550 31030
" />
<path d="M45690 31030
L45690 30530
L45640 30600
L45590 30650
L45550 30670
" />
<path d="M46050 30840
L46430 30840
" />
<path d="M46880 30700
L46880 31030
" />
<path d="M46760 30510
L46640 30860
L46950 30860
" />
</g>
<g style="fill:#008484; fill-opacity:0.0; 
stroke:#008484; stroke-width:0; stroke-opacity:1; 
stroke-linecap:round; stroke-linejoin:round;">
</g>
<g style="fill:#840000; fill-opacity:0.0; 
stroke:#840000; stroke-width:0; stroke-opacity:1; 
stroke-linecap:round; stroke-linejoin:round;">
</g>
<g style="fill:#FFFFC2; fill-opacity:0.0; 
stroke:#FFFFC2; stroke-width:0; stroke-opacity:1; 
stroke-linecap:round; stroke-linejoin:round;">
</g>
<g style="fill:#FFFFC2; fill-opacity:0.6; 
stroke:#FFFFC2; stroke-width:0; stroke-opacity:1; 
stroke-linecap:round; stroke-linejoin:round;">
<rect x="48750" y="22750" width="5000" height="6000" rx="0" />
</g>
<g style="fill:#840000; fill-opacity:0.6; 
stroke:#840000; stroke-width:0; stroke-opacity:1; 
stroke-linecap:round; stroke-linejoin:round;">
</g>
<g style="fill:#840000; fill-opacity:0.0; 
stroke:#840000; stroke-width:100; stroke-opacity:1; 
stroke-linecap:round; stroke-linejoin:round;">
<rect x="48750" y="22750" width="5000" height="6000" rx="0" />
</g>
<g style="fill:#840000; fill-opacity:0.0; 
stroke:#840000; stroke-width:60; stroke-opacity:1; 
stroke-linecap:round; stroke-linejoin:round;">
<rect x="52200" y="28450" width="100" height="300" rx="0" />
<rect x="52200" y="22750" width="100" height="300" rx="0" />
<rect x="48750" y="27200" width="300" height="100" rx="0" />
<rect x="48750" y="26200" width="300" height="100" rx="0" />
<rect x="48750" y="25200" width="300" height="100" rx="0" />
<rect x="48750" y="24200" width="300" height="100" rx="0" />
<path d="M48750 24250
L47250 24250
" />
</g>
<g style="fill:#008484; fill-opacity:0.0; 
stroke:#008484; stroke-width:60; stroke-opacity:1; 
stroke-linecap:round; stroke-linejoin:round;">
<path d="M49290 24470
L49290 23970
L49460 24330
L49630 23970
L49630 24470
" />
<path d="M49870 24470
L49870 23970
" />
<path d="M50080 24450
L50150 24470
L50270 24470
L50320 24450
L50340 24420
L50370 24380
L50370 24330
L50340 24280
L50320 24260
L50270 24230
L50180 24210
L50130 24190
L50100 24160
L50080 24110
L50080 24070
L50100 24020
L50130 24000
L50180 23970
L50290 23970
L50370 24000
" />
<path d="M50680 23970
L50770 23970
L50820 24000
L50870 24040
L50890 24140
L50890 24300
L50870 24400
L50820 24450
L50770 24470
L50680 24470
L50630 24450
L50580 24400
L50560 24300
L50560 24140
L50580 24040
L50630 24000
L50680 23970
" />
</g>
<g style="fill:#840000; fill-opacity:0.0; 
stroke:#840000; stroke-width:60; stroke-opacity:1; 
stroke-linecap:round; stroke-linejoin:round;">
<path d="M48140 24120
L47850 24120
" />
<path d="M48000 24120
L48000 23620
L47950 23690
L47900 23740
L47850 23760
" />
<path d="M52250 22750
L52250 21250
" />
</g>
<g style="fill:#008484; fill-opacity:0.0; 
stroke:#008484; stroke-width:60; stroke-opacity:1; 
stroke-linecap:round; stroke-linejoin:round;">
<path d="M51970 24560
L52470 24390
L51970 24220
" />
<path d="M52420 23770
L52450 23790
L52470 23870
L52470 23910
L52450 23980
L52400 24030
L52350 24060
L52260 24080
L52190 24080
L52090 24060
L52040 24030
L52000 23980
L51970 23910
L51970 23870
L52000 23790
L52020 23770
" />
<path d="M52420 23270
L52450 23290
L52470 23370
L52470 23410
L52450 23480
L52400 23530
L52350 23560
L52260 23580
L52190 23580
L52090 23560
L52040 23530
L52000 23480
L51970 23410
L51970 23370
L52000 23290
L52020 23270
" />
</g>
<g style="fill:#840000; fill-opacity:0.0; 
stroke:#840000; stroke-width:60; stroke-opacity:1; 
stroke-linecap:round; stroke-linejoin:round;">
<path d="M51670 22140
L51650 22110
L51620 22070
L51620 21950
L51650 21900
L51670 21880
L51720 21850
L51760 21850
L51840 21880
L52120 22160
L52120 21850
" />
<path d="M48750 26250
L47250 26250
" />
</g>
<g style="fill:#008484; fill-opacity:0.0; 
stroke:#008484; stroke-width:60; stroke-opacity:1; 
stroke-linecap:round; stroke-linejoin:round;">
<path d="M49270 26450
L49340 26470
L49460 26470
L49510 26450
L49530 26420
L49560 26380
L49560 26330
L49530 26280
L49510 26260
L49460 26230
L49370 26210
L49320 26190
L49290 26160
L49270 26110
L49270 26070
L49290 26020
L49320 26000
L49370 25970
L49480 25970
L49560 26000
" />
<path d="M50060 26420
L50030 26450
L49960 26470
L49910 26470
L49840 26450
L49790 26400
L49770 26350
L49750 26260
L49750 26190
L49770 26090
L49790 26040
L49840 26000
L49910 25970
L49960 25970
L50030 26000
L50060 26020
" />
<path d="M50270 26470
L50270 25970
" />
<path d="M50560 26470
L50340 26190
" />
<path d="M50560 25970
L50270 26260
" />
</g>
<g style="fill:#840000; fill-opacity:0.0; 
stroke:#840000; stroke-width:60; stroke-opacity:1; 
stroke-linecap:round; stroke-linejoin:round;">
<path d="M47830 25620
L48140 25620
L47970 25810
L48040 25810
L48090 25840
L48110 25860
L48140 25910
L48140 26030
L48110 26070
L48090 26100
L48040 26120
L47900 26120
L47850 26100
L47830 26070
" />
<path d="M48750 25250
L47250 25250
" />
</g>
<g style="fill:#008484; fill-opacity:0.0; 
stroke:#008484; stroke-width:60; stroke-opacity:1; 
stroke-linecap:round; stroke-linejoin:round;">
<path d="M49290 25470
L49290 24970
L49460 25330
L49630 24970
L49630 25470
" />
<path d="M49960 24970
L50060 24970
L50100 25000
L50150 25040
L50180 25140
L50180 25300
L50150 25400
L50100 25450
L50060 25470
L49960 25470
L49910 25450
L49870 25400
L49840 25300
L49840 25140
L49870 25040
L49910 25000
L49960 24970
" />
<path d="M50370 25450
L50440 25470
L50560 25470
L50600 25450
L50630 25420
L50650 25380
L50650 25330
L50630 25280
L50600 25260
L50560 25230
L50460 25210
L50410 25190
L50390 25160
L50370 25110
L50370 25070
L50390 25020
L50410 25000
L50460 24970
L50580 24970
L50650 25000
" />
<path d="M50870 25470
L50870 24970
" />
</g>
<g style="fill:#840000; fill-opacity:0.0; 
stroke:#840000; stroke-width:60; stroke-opacity:1; 
stroke-linecap:round; stroke-linejoin:round;">
<path d="M48090 24790
L48090 25120
" />
<path d="M47970 24600
L47850 24950
L48160 24950
" />
<path d="M48750 27250
L47250 27250
" />
</g>
<g style="fill:#008484; fill-opacity:0.0; 
stroke:#008484; stroke-width:60; stroke-opacity:1; 
stroke-linecap:round; stroke-linejoin:round;">
<path d="M49180 26830
L49680 26830
" />
<path d="M49580 27470
L49410 27230
" />
<path d="M49290 27470
L49290 26970
L49480 26970
L49530 27000
L49560 27020
L49580 27070
L49580 27140
L49560 27190
L49530 27210
L49480 27230
L49290 27230
" />
<path d="M49680 26830
L50150 26830
" />
<path d="M49770 27450
L49840 27470
L49960 27470
L50010 27450
L50030 27420
L50060 27380
L50060 27330
L50030 27280
L50010 27260
L49960 27230
L49870 27210
L49820 27190
L49790 27160
L49770 27110
L49770 27070
L49790 27020
L49820 27000
L49870 26970
L49980 26970
L50060 27000
" />
<path d="M50150 26830
L50530 26830
" />
<path d="M50200 26970
L50480 26970
" />
<path d="M50340 27470
L50340 26970
" />
</g>
<g style="fill:#840000; fill-opacity:0.0; 
stroke:#840000; stroke-width:60; stroke-opacity:1; 
stroke-linecap:round; stroke-linejoin:round;">
<path d="M48110 26620
L47880 26620
L47850 26860
L47880 26840
L47920 26810
L48040 26810
L48090 26840
L48110 26860
L48140 26910
L48140 27030
L48110 27070
L48090 27100
L48040 27120
L47920 27120
L47880 27100
L47850 27070
" />
<path d="M52250 28750
L52250 30250
" />
</g>
<g style="fill:#008484; fill-opacity:0.0; 
stroke:#008484; stroke-width:60; stroke-opacity:1; 
stroke-linecap:round; stroke-linejoin:round;">
<path d="M52000 27930
L51970 27980
L51970 28050
L52000 28120
L52040 28170
L52090 28200
L52190 28220
L52260 28220
L52350 28200
L52400 28170
L52450 28120
L52470 28050
L52470 28010
L52450 27930
L52420 27910
L52260 27910
L52260 28010
" />
<path d="M52470 27700
L51970 27700
L52470 27410
L51970 27410
" />
<path d="M52470 27170
L51970 27170
L51970 27050
L52000 26980
L52040 26930
L52090 26910
L52190 26890
L52260 26890
L52350 26910
L52400 26930
L52450 26980
L52470 27050
L52470 27170
" />
</g>
<g style="fill:#840000; fill-opacity:0.0; 
stroke:#840000; stroke-width:60; stroke-opacity:1; 
stroke-linecap:round; stroke-linejoin:round;">
<path d="M51620 29400
L51620 29500
L51650 29540
L51670 29570
L51740 29610
L51840 29640
L52030 29640
L52070 29610
L52100 29590
L52120 29540
L52120 29450
L52100 29400
L52070 29380
L52030 29350
L51910 29350
L51860 29380
L51840 29400
L51810 29450
L51810 29540
L51840 29590
L51860 29610
L51910 29640
" />
</g>
<g style="fill:#008484; fill-opacity:0.0; 
stroke:#008484; stroke-width:60; stroke-opacity:1; 
stroke-linecap:round; stroke-linejoin:round;">
<path d="M54330 25030
L54330 25390
L54310 25460
L54260 25510
L54190 25530
L54140 25530
" />
<path d="M54450 25580
L54830 25580
" />
<path d="M54950 25530
L54950 25030
" />
<path d="M55470 25480
L55450 25510
L55380 25530
L55330 25530
L55260 25510
L55210 25460
L55190 25410
L55160 25320
L55160 25250
L55190 25150
L55210 25100
L55260 25060
L55330 25030
L55380 25030
L55450 25060
L55470 25080
" />
<path d="M55660 25510
L55740 25530
L55850 25530
L55900 25510
L55930 25480
L55950 25440
L55950 25390
L55930 25340
L55900 25320
L55850 25290
L55760 25270
L55710 25250
L55690 25220
L55660 25170
L55660 25130
L55690 25080
L55710 25060
L55760 25030
L55880 25030
L55950 25060
" />
<path d="M56160 25530
L56160 25030
L56350 25030
L56400 25060
L56430 25080
L56450 25130
L56450 25200
L56430 25250
L56400 25270
L56350 25290
L56160 25290
" />
<path d="M56930 25530
L56640 25530
" />
<path d="M56780 25530
L56780 25030
L56740 25100
L56690 25150
L56640 25170
" />
<path d="M54170 26300
L54410 26300
" />
<path d="M54120 26440
L54290 25940
L54450 26440
" />
<path d="M54550 25940
L54720 26440
L54880 25940
" />
<path d="M55330 26440
L55170 26200
" />
<path d="M55050 26440
L55050 25940
L55240 25940
L55290 25970
L55310 25990
L55330 26040
L55330 26110
L55310 26160
L55290 26180
L55240 26200
L55050 26200
" />
<path d="M55550 26250
L55930 26250
" />
<path d="M56170 26440
L56170 25940
" />
<path d="M56380 26420
L56450 26440
L56570 26440
L56620 26420
L56640 26390
L56670 26350
L56670 26300
L56640 26250
L56620 26230
L56570 26200
L56480 26180
L56430 26160
L56410 26130
L56380 26080
L56380 26040
L56410 25990
L56430 25970
L56480 25940
L56600 25940
L56670 25970
" />
<path d="M56880 26440
L56880 25940
L57070 25940
L57120 25970
L57140 25990
L57170 26040
L57170 26110
L57140 26160
L57120 26180
L57070 26200
L56880 26200
" />
<path d="M57380 26250
L57760 26250
" />
<path d="M58220 25940
L58120 25940
L58070 25970
L58050 25990
L58000 26060
L57980 26160
L57980 26350
L58000 26390
L58020 26420
L58070 26440
L58170 26440
L58220 26420
L58240 26390
L58260 26350
L58260 26230
L58240 26180
L58220 26160
L58170 26130
L58070 26130
L58020 26160
L58000 26180
L57980 26230
" />
</g>
<g style="fill:#008400; fill-opacity:0.0; 
stroke:#008400; stroke-width:60; stroke-opacity:1; 
stroke-linecap:round; stroke-linejoin:round;">
<path d="M34250 27250
L36250 27250
" />
<path d="M36250 27250
L36250 29250
" />
<path d="M36250 29250
L39750 29250
" />
<path d="M34250 25250
L37250 25250
" />
<path d="M37250 25250
L37250 30250
" />
<path d="M37250 30250
L39750 30250
" />
<path d="M34250 26250
L35250 26250
" />
<path d="M35250 26250
L35250 31250
" />
<path d="M35250 31250
L39750 31250
" />
<path d="M28250 31250
L28250 32250
" />
<path d="M28250 32250
L39750 32250
" />
<path d="M28250 19250
L28250 16250
" />
<path d="M28250 16250
L40250 16250
" />
<path d="M34250 24250
L36750 24250
" />
<path d="M36750 24250
L36750 17250
" />
<path d="M36750 17250
L40250 17250
" />
<path d="M34250 23250
L37750 23250
" />
<path d="M37750 23250
L37750 18250
" />
<path d="M37750 18250
L40250 18250
" />
<path d="M34250 22250
L38750 22250
" />
<path d="M38750 22250
L38750 19250
" />
<path d="M38750 19250
L40250 19250
" />
<path d="M47250 27250
L36250 27250
" />
</g>
<g style="fill:#008400; fill-opacity:0.0; 
stroke:#008400; stroke-width:0; stroke-opacity:1; 
stroke-linecap:round; stroke-linejoin:round;">
</g>
<g style="fill:#008400; fill-opacity:1.0; 
stroke:#008400; stroke-width:100; stroke-opacity:1; 
stroke-linecap:round; stroke-linejoin:round;">
<circle cx="36250" cy="27250" r="200" /> 
</g>
<g style="fill:#008400; fill-opacity:1.0; 
stroke:#008400; stroke-width:60; stroke-opacity:1; 
stroke-linecap:round; stroke-linejoin:round;">
</g>
<g style="fill:#008400; fill-opacity:0.0; 
stroke:#008400; stroke-width:60; stroke-opacity:1; 
stroke-linecap:round; stroke-linejoin:round;">
<path d="M47250 26250
L42250 26250
" />
<path d="M42250 26250
L42250 24250
" />
<path d="M42250 24250
L36750 24250
" />
</g>
<g style="fill:#008400; fill-opacity:0.0; 
stroke:#008400; stroke-width:0; stroke-opacity:1; 
stroke-linecap:round; stroke-linejoin:round;">
</g>
<g style="fill:#008400; fill-opacity:1.0; 
stroke:#008400; stroke-width:100; stroke-opacity:1; 
stroke-linecap:round; stroke-linejoin:round;">
<circle cx="36750" cy="24250" r="200" /> 
</g>
<g style="fill:#008400; fill-opacity:1.0; 
stroke:#008400; stroke-width:60; stroke-opacity:1; 
stroke-linecap:round; stroke-linejoin:round;">
</g>
<g style="fill:#008400; fill-opacity:0.0; 
stroke:#008400; stroke-width:60; stroke-opacity:1; 
stroke-linecap:round; stroke-linejoin:round;">
<path d="M47250 25250
L44250 25250
" />
<path d="M44250 25250
L44250 22250
" />
<path d="M44250 22250
L38750 22250
" />
</g>
<g style="fill:#008400; fill-opacity:0.0; 
stroke:#008400; stroke-width:0; stroke-opacity:1; 
stroke-linecap:round; stroke-linejoin:round;">
</g>
<g style="fill:#008400; fill-opacity:1.0; 
stroke:#008400; stroke-width:100; stroke-opacity:1; 
stroke-linecap:round; stroke-linejoin:round;">
<circle cx="38750" cy="22250" r="200" /> 
</g>
<g style="fill:#008400; fill-opacity:1.0; 
stroke:#008400; stroke-width:60; stroke-opacity:1; 
stroke-linecap:round; stroke-linejoin:round;">
</g>
<g style="fill:#008400; fill-opacity:0.0; 
stroke:#008400; stroke-width:60; stroke-opacity:1; 
stroke-linecap:round; stroke-linejoin:round;">
<path d="M47250 24250
L46250 24250
" />
<path d="M46250 24250
L46250 23250
" />
<path d="M46250 23250
L37750 23250
" />
</g>
<g style="fill:#008400; fill-opacity:0.0; 
stroke:#008400; stroke-width:0; stroke-opacity:1; 
stroke-linecap:round; stroke-linejoin:round;">
</g>
<g style="fill:#008400; fill-opacity:1.0; 
stroke:#008400; stroke-width:100; stroke-opacity:1; 
stroke-linecap:round; stroke-linejoin:round;">
<circle cx="37750" cy="23250" r="200" /> 
</g>
<g style="fill:#008400; fill-opacity:1.0; 
stroke:#008400; stroke-width:60; stroke-opacity:1; 
stroke-linecap:round; stroke-linejoin:round;">
</g>
<g style="fill:#008400; fill-opacity:0.0; 
stroke:#008400; stroke-width:60; stroke-opacity:1; 
stroke-linecap:round; stroke-linejoin:round;">
<path d="M52250 21250
L52250 14750
" />
<path d="M52250 14750
L28250 14750
" />
<path d="M28250 14750
L28250 16250
" />
</g>
<g style="fill:#008400; fill-opacity:0.0; 
stroke:#008400; stroke-width:0; stroke-opacity:1; 
stroke-linecap:round; stroke-linejoin:round;">
</g>
<g style="fill:#008400; fill-opacity:1.0; 
stroke:#008400; stroke-width:100; stroke-opacity:1; 
stroke-linecap:round; stroke-linejoin:round;">
<circle cx="28250" cy="16250" r="200" /> 
</g>
<g style="fill:#008400; fill-opacity:1.0; 
stroke:#008400; stroke-width:60; stroke-opacity:1; 
stroke-linecap:round; stroke-linejoin:round;">
</g>
<g style="fill:#008400; fill-opacity:0.0; 
stroke:#008400; stroke-width:60; stroke-opacity:1; 
stroke-linecap:round; stroke-linejoin:round;">
<path d="M28250 32250
L28250 33750
" />
<path d="M28250 33750
L52250 33750
" />
<path d="M52250 33750
L52250 30250
" />
</g>
<g style="fill:#008400; fill-opacity:0.0; 
stroke:#008400; stroke-width:0; stroke-opacity:1; 
stroke-linecap:round; stroke-linejoin:round;">
</g>
<g style="fill:#008400; fill-opacity:1.0; 
stroke:#008400; stroke-width:100; stroke-opacity:1; 
stroke-linecap:round; stroke-linejoin:round;">
<circle cx="28250" cy="32250" r="200" /> 
</g> 
</svg>
