G04 #@! TF.FileFunction,Copper,L2,Bot,Signal*
%FSLAX46Y46*%
G04 Gerber Fmt 4.6, Leading zero omitted, Abs format (unit mm)*
G04 Created by KiCad (PCBNEW 4.0.7) date Saturday, 05 May 2018 'PMt' 13:54:56*
%MOMM*%
%LPD*%
G01*
G04 APERTURE LIST*
%ADD10C,0.100000*%
%ADD11R,1.700000X1.700000*%
%ADD12O,1.700000X1.700000*%
%ADD13C,0.600000*%
%ADD14C,0.750000*%
%ADD15C,1.000000*%
%ADD16C,0.254000*%
G04 APERTURE END LIST*
D10*
D11*
X78740000Y-53340000D03*
D12*
X78740000Y-55880000D03*
X78740000Y-58420000D03*
X78740000Y-60960000D03*
X78740000Y-63500000D03*
D11*
X101600000Y-53340000D03*
D12*
X101600000Y-55880000D03*
X101600000Y-58420000D03*
X101600000Y-60960000D03*
X101600000Y-63500000D03*
D13*
X92075000Y-60198000D03*
X92075000Y-56642000D03*
X92075000Y-53340000D03*
X94996000Y-60960000D03*
X89535000Y-62992000D03*
X89535000Y-56642000D03*
X82232500Y-64008000D03*
X82232500Y-56388000D03*
D14*
X92075000Y-56642000D02*
X92075000Y-60198000D01*
D15*
X92075000Y-53340000D02*
X101600000Y-53340000D01*
D16*
G36*
X103430000Y-65330000D02*
X76910000Y-65330000D01*
X76910000Y-55880000D01*
X77225907Y-55880000D01*
X77338946Y-56448285D01*
X77660853Y-56930054D01*
X77990026Y-57150000D01*
X77660853Y-57369946D01*
X77338946Y-57851715D01*
X77225907Y-58420000D01*
X77338946Y-58988285D01*
X77660853Y-59470054D01*
X77990026Y-59690000D01*
X77660853Y-59909946D01*
X77338946Y-60391715D01*
X77225907Y-60960000D01*
X77338946Y-61528285D01*
X77660853Y-62010054D01*
X78142622Y-62331961D01*
X78710907Y-62445000D01*
X78769093Y-62445000D01*
X79337378Y-62331961D01*
X79819147Y-62010054D01*
X80141054Y-61528285D01*
X80254093Y-60960000D01*
X80141054Y-60391715D01*
X79819147Y-59909946D01*
X79489974Y-59690000D01*
X79819147Y-59470054D01*
X80141054Y-58988285D01*
X80254093Y-58420000D01*
X80141054Y-57851715D01*
X79819147Y-57369946D01*
X79489974Y-57150000D01*
X79819147Y-56930054D01*
X80011618Y-56642000D01*
X91065000Y-56642000D01*
X91065000Y-60198000D01*
X91141882Y-60584510D01*
X91360822Y-60912178D01*
X91688490Y-61131118D01*
X92075000Y-61208000D01*
X92461510Y-61131118D01*
X92789178Y-60912178D01*
X93008118Y-60584510D01*
X93085000Y-60198000D01*
X93085000Y-56642000D01*
X93008118Y-56255490D01*
X92789178Y-55927822D01*
X92461510Y-55708882D01*
X92075000Y-55632000D01*
X91688490Y-55708882D01*
X91360822Y-55927822D01*
X91141882Y-56255490D01*
X91065000Y-56642000D01*
X80011618Y-56642000D01*
X80141054Y-56448285D01*
X80254093Y-55880000D01*
X80141054Y-55311715D01*
X79819147Y-54829946D01*
X79777548Y-54802150D01*
X79825317Y-54793162D01*
X80041441Y-54654090D01*
X80186431Y-54441890D01*
X80237440Y-54190000D01*
X80237440Y-53340000D01*
X90940000Y-53340000D01*
X91026397Y-53774346D01*
X91272434Y-54142566D01*
X91640654Y-54388603D01*
X92075000Y-54475000D01*
X100178808Y-54475000D01*
X100285910Y-54641441D01*
X100498110Y-54786431D01*
X100565541Y-54800086D01*
X100520853Y-54829946D01*
X100198946Y-55311715D01*
X100085907Y-55880000D01*
X100198946Y-56448285D01*
X100520853Y-56930054D01*
X100850026Y-57150000D01*
X100520853Y-57369946D01*
X100198946Y-57851715D01*
X100085907Y-58420000D01*
X100198946Y-58988285D01*
X100520853Y-59470054D01*
X100850026Y-59690000D01*
X100520853Y-59909946D01*
X100198946Y-60391715D01*
X100085907Y-60960000D01*
X100198946Y-61528285D01*
X100520853Y-62010054D01*
X101002622Y-62331961D01*
X101570907Y-62445000D01*
X101629093Y-62445000D01*
X102197378Y-62331961D01*
X102679147Y-62010054D01*
X103001054Y-61528285D01*
X103114093Y-60960000D01*
X103001054Y-60391715D01*
X102679147Y-59909946D01*
X102349974Y-59690000D01*
X102679147Y-59470054D01*
X103001054Y-58988285D01*
X103114093Y-58420000D01*
X103001054Y-57851715D01*
X102679147Y-57369946D01*
X102349974Y-57150000D01*
X102679147Y-56930054D01*
X103001054Y-56448285D01*
X103114093Y-55880000D01*
X103001054Y-55311715D01*
X102679147Y-54829946D01*
X102637548Y-54802150D01*
X102685317Y-54793162D01*
X102901441Y-54654090D01*
X103046431Y-54441890D01*
X103097440Y-54190000D01*
X103097440Y-52490000D01*
X103053162Y-52254683D01*
X102914090Y-52038559D01*
X102701890Y-51893569D01*
X102450000Y-51842560D01*
X100750000Y-51842560D01*
X100514683Y-51886838D01*
X100298559Y-52025910D01*
X100176192Y-52205000D01*
X92075000Y-52205000D01*
X91640654Y-52291397D01*
X91272434Y-52537434D01*
X91026397Y-52905654D01*
X90940000Y-53340000D01*
X80237440Y-53340000D01*
X80237440Y-52490000D01*
X80193162Y-52254683D01*
X80054090Y-52038559D01*
X79841890Y-51893569D01*
X79590000Y-51842560D01*
X77890000Y-51842560D01*
X77654683Y-51886838D01*
X77438559Y-52025910D01*
X77293569Y-52238110D01*
X77242560Y-52490000D01*
X77242560Y-54190000D01*
X77286838Y-54425317D01*
X77425910Y-54641441D01*
X77638110Y-54786431D01*
X77705541Y-54800086D01*
X77660853Y-54829946D01*
X77338946Y-55311715D01*
X77225907Y-55880000D01*
X76910000Y-55880000D01*
X76910000Y-51510000D01*
X103430000Y-51510000D01*
X103430000Y-65330000D01*
X103430000Y-65330000D01*
G37*
X103430000Y-65330000D02*
X76910000Y-65330000D01*
X76910000Y-55880000D01*
X77225907Y-55880000D01*
X77338946Y-56448285D01*
X77660853Y-56930054D01*
X77990026Y-57150000D01*
X77660853Y-57369946D01*
X77338946Y-57851715D01*
X77225907Y-58420000D01*
X77338946Y-58988285D01*
X77660853Y-59470054D01*
X77990026Y-59690000D01*
X77660853Y-59909946D01*
X77338946Y-60391715D01*
X77225907Y-60960000D01*
X77338946Y-61528285D01*
X77660853Y-62010054D01*
X78142622Y-62331961D01*
X78710907Y-62445000D01*
X78769093Y-62445000D01*
X79337378Y-62331961D01*
X79819147Y-62010054D01*
X80141054Y-61528285D01*
X80254093Y-60960000D01*
X80141054Y-60391715D01*
X79819147Y-59909946D01*
X79489974Y-59690000D01*
X79819147Y-59470054D01*
X80141054Y-58988285D01*
X80254093Y-58420000D01*
X80141054Y-57851715D01*
X79819147Y-57369946D01*
X79489974Y-57150000D01*
X79819147Y-56930054D01*
X80011618Y-56642000D01*
X91065000Y-56642000D01*
X91065000Y-60198000D01*
X91141882Y-60584510D01*
X91360822Y-60912178D01*
X91688490Y-61131118D01*
X92075000Y-61208000D01*
X92461510Y-61131118D01*
X92789178Y-60912178D01*
X93008118Y-60584510D01*
X93085000Y-60198000D01*
X93085000Y-56642000D01*
X93008118Y-56255490D01*
X92789178Y-55927822D01*
X92461510Y-55708882D01*
X92075000Y-55632000D01*
X91688490Y-55708882D01*
X91360822Y-55927822D01*
X91141882Y-56255490D01*
X91065000Y-56642000D01*
X80011618Y-56642000D01*
X80141054Y-56448285D01*
X80254093Y-55880000D01*
X80141054Y-55311715D01*
X79819147Y-54829946D01*
X79777548Y-54802150D01*
X79825317Y-54793162D01*
X80041441Y-54654090D01*
X80186431Y-54441890D01*
X80237440Y-54190000D01*
X80237440Y-53340000D01*
X90940000Y-53340000D01*
X91026397Y-53774346D01*
X91272434Y-54142566D01*
X91640654Y-54388603D01*
X92075000Y-54475000D01*
X100178808Y-54475000D01*
X100285910Y-54641441D01*
X100498110Y-54786431D01*
X100565541Y-54800086D01*
X100520853Y-54829946D01*
X100198946Y-55311715D01*
X100085907Y-55880000D01*
X100198946Y-56448285D01*
X100520853Y-56930054D01*
X100850026Y-57150000D01*
X100520853Y-57369946D01*
X100198946Y-57851715D01*
X100085907Y-58420000D01*
X100198946Y-58988285D01*
X100520853Y-59470054D01*
X100850026Y-59690000D01*
X100520853Y-59909946D01*
X100198946Y-60391715D01*
X100085907Y-60960000D01*
X100198946Y-61528285D01*
X100520853Y-62010054D01*
X101002622Y-62331961D01*
X101570907Y-62445000D01*
X101629093Y-62445000D01*
X102197378Y-62331961D01*
X102679147Y-62010054D01*
X103001054Y-61528285D01*
X103114093Y-60960000D01*
X103001054Y-60391715D01*
X102679147Y-59909946D01*
X102349974Y-59690000D01*
X102679147Y-59470054D01*
X103001054Y-58988285D01*
X103114093Y-58420000D01*
X103001054Y-57851715D01*
X102679147Y-57369946D01*
X102349974Y-57150000D01*
X102679147Y-56930054D01*
X103001054Y-56448285D01*
X103114093Y-55880000D01*
X103001054Y-55311715D01*
X102679147Y-54829946D01*
X102637548Y-54802150D01*
X102685317Y-54793162D01*
X102901441Y-54654090D01*
X103046431Y-54441890D01*
X103097440Y-54190000D01*
X103097440Y-52490000D01*
X103053162Y-52254683D01*
X102914090Y-52038559D01*
X102701890Y-51893569D01*
X102450000Y-51842560D01*
X100750000Y-51842560D01*
X100514683Y-51886838D01*
X100298559Y-52025910D01*
X100176192Y-52205000D01*
X92075000Y-52205000D01*
X91640654Y-52291397D01*
X91272434Y-52537434D01*
X91026397Y-52905654D01*
X90940000Y-53340000D01*
X80237440Y-53340000D01*
X80237440Y-52490000D01*
X80193162Y-52254683D01*
X80054090Y-52038559D01*
X79841890Y-51893569D01*
X79590000Y-51842560D01*
X77890000Y-51842560D01*
X77654683Y-51886838D01*
X77438559Y-52025910D01*
X77293569Y-52238110D01*
X77242560Y-52490000D01*
X77242560Y-54190000D01*
X77286838Y-54425317D01*
X77425910Y-54641441D01*
X77638110Y-54786431D01*
X77705541Y-54800086D01*
X77660853Y-54829946D01*
X77338946Y-55311715D01*
X77225907Y-55880000D01*
X76910000Y-55880000D01*
X76910000Y-51510000D01*
X103430000Y-51510000D01*
X103430000Y-65330000D01*
M02*
