G04 #@! TF.FileFunction,Copper,L1,Top,Signal*
%FSLAX46Y46*%
G04 Gerber Fmt 4.6, Leading zero omitted, Abs format (unit mm)*
G04 Created by KiCad (PCBNEW 4.0.7) date Saturday, 05 May 2018 'PMt' 13:54:56*
%MOMM*%
%LPD*%
G01*
G04 APERTURE LIST*
%ADD10C,0.100000*%
%ADD11R,1.600000X2.600000*%
%ADD12R,0.508000X1.143000*%
%ADD13R,1.700000X1.700000*%
%ADD14O,1.700000X1.700000*%
%ADD15C,0.600000*%
%ADD16C,1.000000*%
%ADD17C,0.750000*%
%ADD18C,0.500000*%
G04 APERTURE END LIST*
D10*
D11*
X83820000Y-60430000D03*
X83820000Y-64030000D03*
X83820000Y-52810000D03*
X83820000Y-56410000D03*
X96520000Y-52810000D03*
X96520000Y-56410000D03*
X96520000Y-60430000D03*
X96520000Y-64030000D03*
D12*
X92075000Y-61595000D03*
X90805000Y-61595000D03*
X89535000Y-61595000D03*
X88265000Y-61595000D03*
X88265000Y-55245000D03*
X89535000Y-55245000D03*
X90805000Y-55245000D03*
X92075000Y-55245000D03*
D13*
X78740000Y-53340000D03*
D14*
X78740000Y-55880000D03*
X78740000Y-58420000D03*
X78740000Y-60960000D03*
X78740000Y-63500000D03*
D13*
X101600000Y-53340000D03*
D14*
X101600000Y-55880000D03*
X101600000Y-58420000D03*
X101600000Y-60960000D03*
X101600000Y-63500000D03*
D15*
X92075000Y-60198000D03*
X92075000Y-56642000D03*
X92075000Y-53340000D03*
X94996000Y-60960000D03*
X89535000Y-62992000D03*
X89535000Y-56642000D03*
X82232500Y-64008000D03*
X82232500Y-56388000D03*
D16*
X80772000Y-53340000D02*
X80772000Y-59436000D01*
X81766000Y-60430000D02*
X83820000Y-60430000D01*
X80772000Y-59436000D02*
X81766000Y-60430000D01*
X78740000Y-53340000D02*
X80772000Y-53340000D01*
X80772000Y-53340000D02*
X83290000Y-53340000D01*
X83290000Y-53340000D02*
X83820000Y-52810000D01*
X83798000Y-60452000D02*
X83820000Y-60430000D01*
D17*
X92075000Y-55245000D02*
X92075000Y-56642000D01*
X92075000Y-60198000D02*
X92075000Y-61595000D01*
X92075000Y-55245000D02*
X92075000Y-53340000D01*
D16*
X83820000Y-60430000D02*
X85830000Y-60430000D01*
X86995000Y-53340000D02*
X92075000Y-53340000D01*
X86360000Y-53975000D02*
X86995000Y-53340000D01*
X86360000Y-59900000D02*
X86360000Y-53975000D01*
X85830000Y-60430000D02*
X86360000Y-59900000D01*
D18*
X96520000Y-60430000D02*
X95526000Y-60430000D01*
X95526000Y-60430000D02*
X94996000Y-60960000D01*
X89535000Y-61595000D02*
X89535000Y-62992000D01*
X89535000Y-55245000D02*
X89535000Y-56642000D01*
X83820000Y-64030000D02*
X83334000Y-64030000D01*
X83334000Y-64030000D02*
X82232500Y-64008000D01*
X83820000Y-56410000D02*
X83334000Y-56410000D01*
X83334000Y-56410000D02*
X82232500Y-56388000D01*
D17*
X90805000Y-55245000D02*
X90805000Y-57150000D01*
X94510000Y-52810000D02*
X96520000Y-52810000D01*
X93345000Y-53975000D02*
X94510000Y-52810000D01*
X93345000Y-57150000D02*
X93345000Y-53975000D01*
X92710000Y-57785000D02*
X93345000Y-57150000D01*
X91440000Y-57785000D02*
X92710000Y-57785000D01*
X90805000Y-57150000D02*
X91440000Y-57785000D01*
X88265000Y-55245000D02*
X88265000Y-57785000D01*
X93980000Y-59055000D02*
X96520000Y-56515000D01*
X89535000Y-59055000D02*
X93980000Y-59055000D01*
X88265000Y-57785000D02*
X89535000Y-59055000D01*
X96520000Y-56515000D02*
X96520000Y-56410000D01*
D16*
X96520000Y-64030000D02*
X98530000Y-64030000D01*
X100330000Y-58420000D02*
X101600000Y-58420000D01*
X99187000Y-59563000D02*
X100330000Y-58420000D01*
X99187000Y-63373000D02*
X99187000Y-59563000D01*
X98530000Y-64030000D02*
X99187000Y-63373000D01*
D17*
X96288000Y-64262000D02*
X93091000Y-64262000D01*
X88265000Y-63500000D02*
X89027000Y-64262000D01*
X89027000Y-64262000D02*
X93091000Y-64262000D01*
X88265000Y-63500000D02*
X88265000Y-61595000D01*
X96288000Y-64262000D02*
X96520000Y-64030000D01*
X96625000Y-64135000D02*
X96520000Y-64030000D01*
M02*
