G04 #@! TF.FileFunction,Legend,Bot*
%FSLAX46Y46*%
G04 Gerber Fmt 4.6, Leading zero omitted, Abs format (unit mm)*
G04 Created by KiCad (PCBNEW 4.0.7) date Saturday, 05 May 2018 'PMt' 13:54:56*
%MOMM*%
%LPD*%
G01*
G04 APERTURE LIST*
%ADD10C,0.100000*%
%ADD11C,0.200000*%
%ADD12C,0.250000*%
G04 APERTURE END LIST*
D10*
D11*
X81153000Y-62801500D02*
X81153000Y-64198500D01*
X99028250Y-64166750D02*
X99028250Y-62769750D01*
X99536250Y-63912750D02*
X99536250Y-63023750D01*
X100044250Y-63658750D02*
X100044250Y-63277750D01*
X98927000Y-63468250D02*
X98269750Y-63468250D01*
X99421950Y-57677050D02*
X99421950Y-59201050D01*
X100177600Y-53327300D02*
X98653600Y-53327300D01*
X99421950Y-52533550D02*
X99421950Y-54057550D01*
X80956150Y-52584350D02*
X80956150Y-54108350D01*
X81288500Y-63500000D02*
X81927000Y-63500000D01*
X80137000Y-63309500D02*
X80137000Y-63690500D01*
X80645000Y-63055500D02*
X80645000Y-63944500D01*
X81711800Y-53327300D02*
X80187800Y-53327300D01*
X92519500Y-58483500D02*
X91630500Y-59372500D01*
X92519500Y-58483500D02*
X91630500Y-57594500D01*
X86920500Y-58483500D02*
X91920500Y-58483500D01*
D12*
X94509881Y-51967619D02*
X93509881Y-51967619D01*
X94224167Y-52300953D01*
X93509881Y-52634286D01*
X94509881Y-52634286D01*
X94509881Y-53539048D02*
X93986071Y-53539048D01*
X93890833Y-53491429D01*
X93843214Y-53396191D01*
X93843214Y-53205714D01*
X93890833Y-53110476D01*
X94462262Y-53539048D02*
X94509881Y-53443810D01*
X94509881Y-53205714D01*
X94462262Y-53110476D01*
X94367024Y-53062857D01*
X94271786Y-53062857D01*
X94176548Y-53110476D01*
X94128929Y-53205714D01*
X94128929Y-53443810D01*
X94081310Y-53539048D01*
X94509881Y-53920000D02*
X93843214Y-54443810D01*
X93843214Y-53920000D02*
X94509881Y-54443810D01*
X94509881Y-55586667D02*
X93843214Y-55586667D01*
X93509881Y-55586667D02*
X93557500Y-55539048D01*
X93605119Y-55586667D01*
X93557500Y-55634286D01*
X93509881Y-55586667D01*
X93605119Y-55586667D01*
X93843214Y-56062857D02*
X94509881Y-56062857D01*
X93938452Y-56062857D02*
X93890833Y-56110476D01*
X93843214Y-56205714D01*
X93843214Y-56348572D01*
X93890833Y-56443810D01*
X93986071Y-56491429D01*
X94509881Y-56491429D01*
X93843214Y-56967619D02*
X94843214Y-56967619D01*
X93890833Y-56967619D02*
X93843214Y-57062857D01*
X93843214Y-57253334D01*
X93890833Y-57348572D01*
X93938452Y-57396191D01*
X94033690Y-57443810D01*
X94319405Y-57443810D01*
X94414643Y-57396191D01*
X94462262Y-57348572D01*
X94509881Y-57253334D01*
X94509881Y-57062857D01*
X94462262Y-56967619D01*
X93843214Y-58300953D02*
X94509881Y-58300953D01*
X93843214Y-57872381D02*
X94367024Y-57872381D01*
X94462262Y-57920000D01*
X94509881Y-58015238D01*
X94509881Y-58158096D01*
X94462262Y-58253334D01*
X94414643Y-58300953D01*
X93843214Y-58634286D02*
X93843214Y-59015238D01*
X93509881Y-58777143D02*
X94367024Y-58777143D01*
X94462262Y-58824762D01*
X94509881Y-58920000D01*
X94509881Y-59015238D01*
X94414643Y-59348572D02*
X94462262Y-59396191D01*
X94509881Y-59348572D01*
X94462262Y-59300953D01*
X94414643Y-59348572D01*
X94509881Y-59348572D01*
X93890833Y-59348572D02*
X93938452Y-59396191D01*
X93986071Y-59348572D01*
X93938452Y-59300953D01*
X93890833Y-59348572D01*
X93986071Y-59348572D01*
X94509881Y-61110477D02*
X94509881Y-60539048D01*
X94509881Y-60824762D02*
X93509881Y-60824762D01*
X93652738Y-60729524D01*
X93747976Y-60634286D01*
X93795595Y-60539048D01*
X93509881Y-61443810D02*
X93509881Y-62062858D01*
X93890833Y-61729524D01*
X93890833Y-61872382D01*
X93938452Y-61967620D01*
X93986071Y-62015239D01*
X94081310Y-62062858D01*
X94319405Y-62062858D01*
X94414643Y-62015239D01*
X94462262Y-61967620D01*
X94509881Y-61872382D01*
X94509881Y-61586667D01*
X94462262Y-61491429D01*
X94414643Y-61443810D01*
X93509881Y-62348572D02*
X94509881Y-62681905D01*
X93509881Y-63015239D01*
X94509881Y-63348572D02*
X93509881Y-63348572D01*
X93509881Y-63586667D01*
X93557500Y-63729525D01*
X93652738Y-63824763D01*
X93747976Y-63872382D01*
X93938452Y-63920001D01*
X94081310Y-63920001D01*
X94271786Y-63872382D01*
X94367024Y-63824763D01*
X94462262Y-63729525D01*
X94509881Y-63586667D01*
X94509881Y-63348572D01*
X94414643Y-64920001D02*
X94462262Y-64872382D01*
X94509881Y-64729525D01*
X94509881Y-64634287D01*
X94462262Y-64491429D01*
X94367024Y-64396191D01*
X94271786Y-64348572D01*
X94081310Y-64300953D01*
X93938452Y-64300953D01*
X93747976Y-64348572D01*
X93652738Y-64396191D01*
X93557500Y-64491429D01*
X93509881Y-64634287D01*
X93509881Y-64729525D01*
X93557500Y-64872382D01*
X93605119Y-64920001D01*
X96259881Y-51800952D02*
X95259881Y-51800952D01*
X95974167Y-52134286D01*
X95259881Y-52467619D01*
X96259881Y-52467619D01*
X96259881Y-53372381D02*
X95736071Y-53372381D01*
X95640833Y-53324762D01*
X95593214Y-53229524D01*
X95593214Y-53039047D01*
X95640833Y-52943809D01*
X96212262Y-53372381D02*
X96259881Y-53277143D01*
X96259881Y-53039047D01*
X96212262Y-52943809D01*
X96117024Y-52896190D01*
X96021786Y-52896190D01*
X95926548Y-52943809D01*
X95878929Y-53039047D01*
X95878929Y-53277143D01*
X95831310Y-53372381D01*
X96259881Y-53753333D02*
X95593214Y-54277143D01*
X95593214Y-53753333D02*
X96259881Y-54277143D01*
X96259881Y-55562857D02*
X96212262Y-55467619D01*
X96164643Y-55420000D01*
X96069405Y-55372381D01*
X95783690Y-55372381D01*
X95688452Y-55420000D01*
X95640833Y-55467619D01*
X95593214Y-55562857D01*
X95593214Y-55705715D01*
X95640833Y-55800953D01*
X95688452Y-55848572D01*
X95783690Y-55896191D01*
X96069405Y-55896191D01*
X96164643Y-55848572D01*
X96212262Y-55800953D01*
X96259881Y-55705715D01*
X96259881Y-55562857D01*
X95593214Y-56753334D02*
X96259881Y-56753334D01*
X95593214Y-56324762D02*
X96117024Y-56324762D01*
X96212262Y-56372381D01*
X96259881Y-56467619D01*
X96259881Y-56610477D01*
X96212262Y-56705715D01*
X96164643Y-56753334D01*
X95593214Y-57086667D02*
X95593214Y-57467619D01*
X95259881Y-57229524D02*
X96117024Y-57229524D01*
X96212262Y-57277143D01*
X96259881Y-57372381D01*
X96259881Y-57467619D01*
X95593214Y-57800953D02*
X96593214Y-57800953D01*
X95640833Y-57800953D02*
X95593214Y-57896191D01*
X95593214Y-58086668D01*
X95640833Y-58181906D01*
X95688452Y-58229525D01*
X95783690Y-58277144D01*
X96069405Y-58277144D01*
X96164643Y-58229525D01*
X96212262Y-58181906D01*
X96259881Y-58086668D01*
X96259881Y-57896191D01*
X96212262Y-57800953D01*
X95593214Y-59134287D02*
X96259881Y-59134287D01*
X95593214Y-58705715D02*
X96117024Y-58705715D01*
X96212262Y-58753334D01*
X96259881Y-58848572D01*
X96259881Y-58991430D01*
X96212262Y-59086668D01*
X96164643Y-59134287D01*
X95593214Y-59467620D02*
X95593214Y-59848572D01*
X95259881Y-59610477D02*
X96117024Y-59610477D01*
X96212262Y-59658096D01*
X96259881Y-59753334D01*
X96259881Y-59848572D01*
X96164643Y-60181906D02*
X96212262Y-60229525D01*
X96259881Y-60181906D01*
X96212262Y-60134287D01*
X96164643Y-60181906D01*
X96259881Y-60181906D01*
X95640833Y-60181906D02*
X95688452Y-60229525D01*
X95736071Y-60181906D01*
X95688452Y-60134287D01*
X95640833Y-60181906D01*
X95736071Y-60181906D01*
X95355119Y-61372382D02*
X95307500Y-61420001D01*
X95259881Y-61515239D01*
X95259881Y-61753335D01*
X95307500Y-61848573D01*
X95355119Y-61896192D01*
X95450357Y-61943811D01*
X95545595Y-61943811D01*
X95688452Y-61896192D01*
X96259881Y-61324763D01*
X96259881Y-61943811D01*
X95259881Y-62562858D02*
X95259881Y-62658097D01*
X95307500Y-62753335D01*
X95355119Y-62800954D01*
X95450357Y-62848573D01*
X95640833Y-62896192D01*
X95878929Y-62896192D01*
X96069405Y-62848573D01*
X96164643Y-62800954D01*
X96212262Y-62753335D01*
X96259881Y-62658097D01*
X96259881Y-62562858D01*
X96212262Y-62467620D01*
X96164643Y-62420001D01*
X96069405Y-62372382D01*
X95878929Y-62324763D01*
X95640833Y-62324763D01*
X95450357Y-62372382D01*
X95355119Y-62420001D01*
X95307500Y-62467620D01*
X95259881Y-62562858D01*
X96259881Y-63324763D02*
X95593214Y-63324763D01*
X95688452Y-63324763D02*
X95640833Y-63372382D01*
X95593214Y-63467620D01*
X95593214Y-63610478D01*
X95640833Y-63705716D01*
X95736071Y-63753335D01*
X96259881Y-63753335D01*
X95736071Y-63753335D02*
X95640833Y-63800954D01*
X95593214Y-63896192D01*
X95593214Y-64039049D01*
X95640833Y-64134287D01*
X95736071Y-64181906D01*
X96259881Y-64181906D01*
X95974167Y-64610477D02*
X95974167Y-65086668D01*
X96259881Y-64515239D02*
X95259881Y-64848572D01*
X96259881Y-65181906D01*
X84111762Y-52658095D02*
X84159381Y-52800952D01*
X84159381Y-53039048D01*
X84111762Y-53134286D01*
X84064143Y-53181905D01*
X83968905Y-53229524D01*
X83873667Y-53229524D01*
X83778429Y-53181905D01*
X83730810Y-53134286D01*
X83683190Y-53039048D01*
X83635571Y-52848571D01*
X83587952Y-52753333D01*
X83540333Y-52705714D01*
X83445095Y-52658095D01*
X83349857Y-52658095D01*
X83254619Y-52705714D01*
X83207000Y-52753333D01*
X83159381Y-52848571D01*
X83159381Y-53086667D01*
X83207000Y-53229524D01*
X84159381Y-53658095D02*
X83159381Y-53658095D01*
X84159381Y-54134285D02*
X83159381Y-54134285D01*
X84159381Y-54705714D01*
X83159381Y-54705714D01*
X83207000Y-55705714D02*
X83159381Y-55610476D01*
X83159381Y-55467619D01*
X83207000Y-55324761D01*
X83302238Y-55229523D01*
X83397476Y-55181904D01*
X83587952Y-55134285D01*
X83730810Y-55134285D01*
X83921286Y-55181904D01*
X84016524Y-55229523D01*
X84111762Y-55324761D01*
X84159381Y-55467619D01*
X84159381Y-55562857D01*
X84111762Y-55705714D01*
X84064143Y-55753333D01*
X83730810Y-55753333D01*
X83730810Y-55562857D01*
X84159381Y-56658095D02*
X84159381Y-56181904D01*
X83159381Y-56181904D01*
X83635571Y-56991428D02*
X83635571Y-57324762D01*
X84159381Y-57467619D02*
X84159381Y-56991428D01*
X83159381Y-56991428D01*
X83159381Y-57467619D01*
X83492714Y-58515238D02*
X83492714Y-58896190D01*
X83159381Y-58658095D02*
X84016524Y-58658095D01*
X84111762Y-58705714D01*
X84159381Y-58800952D01*
X84159381Y-58896190D01*
X84159381Y-59372381D02*
X84111762Y-59277143D01*
X84064143Y-59229524D01*
X83968905Y-59181905D01*
X83683190Y-59181905D01*
X83587952Y-59229524D01*
X83540333Y-59277143D01*
X83492714Y-59372381D01*
X83492714Y-59515239D01*
X83540333Y-59610477D01*
X83587952Y-59658096D01*
X83683190Y-59705715D01*
X83968905Y-59705715D01*
X84064143Y-59658096D01*
X84111762Y-59610477D01*
X84159381Y-59515239D01*
X84159381Y-59372381D01*
X84159381Y-60896191D02*
X83159381Y-60896191D01*
X83159381Y-61134286D01*
X83207000Y-61277144D01*
X83302238Y-61372382D01*
X83397476Y-61420001D01*
X83587952Y-61467620D01*
X83730810Y-61467620D01*
X83921286Y-61420001D01*
X84016524Y-61372382D01*
X84111762Y-61277144D01*
X84159381Y-61134286D01*
X84159381Y-60896191D01*
X83159381Y-61896191D02*
X83968905Y-61896191D01*
X84064143Y-61943810D01*
X84111762Y-61991429D01*
X84159381Y-62086667D01*
X84159381Y-62277144D01*
X84111762Y-62372382D01*
X84064143Y-62420001D01*
X83968905Y-62467620D01*
X83159381Y-62467620D01*
X83873667Y-62896191D02*
X83873667Y-63372382D01*
X84159381Y-62800953D02*
X83159381Y-63134286D01*
X84159381Y-63467620D01*
X84159381Y-64277144D02*
X84159381Y-63800953D01*
X83159381Y-63800953D01*
X85909381Y-53729523D02*
X84909381Y-53729523D01*
X84909381Y-53967618D01*
X84957000Y-54110476D01*
X85052238Y-54205714D01*
X85147476Y-54253333D01*
X85337952Y-54300952D01*
X85480810Y-54300952D01*
X85671286Y-54253333D01*
X85766524Y-54205714D01*
X85861762Y-54110476D01*
X85909381Y-53967618D01*
X85909381Y-53729523D01*
X85814143Y-55300952D02*
X85861762Y-55253333D01*
X85909381Y-55110476D01*
X85909381Y-55015238D01*
X85861762Y-54872380D01*
X85766524Y-54777142D01*
X85671286Y-54729523D01*
X85480810Y-54681904D01*
X85337952Y-54681904D01*
X85147476Y-54729523D01*
X85052238Y-54777142D01*
X84957000Y-54872380D01*
X84909381Y-55015238D01*
X84909381Y-55110476D01*
X84957000Y-55253333D01*
X85004619Y-55300952D01*
X85814143Y-57062857D02*
X85861762Y-57015238D01*
X85909381Y-56872381D01*
X85909381Y-56777143D01*
X85861762Y-56634285D01*
X85766524Y-56539047D01*
X85671286Y-56491428D01*
X85480810Y-56443809D01*
X85337952Y-56443809D01*
X85147476Y-56491428D01*
X85052238Y-56539047D01*
X84957000Y-56634285D01*
X84909381Y-56777143D01*
X84909381Y-56872381D01*
X84957000Y-57015238D01*
X85004619Y-57062857D01*
X85909381Y-57634285D02*
X85861762Y-57539047D01*
X85814143Y-57491428D01*
X85718905Y-57443809D01*
X85433190Y-57443809D01*
X85337952Y-57491428D01*
X85290333Y-57539047D01*
X85242714Y-57634285D01*
X85242714Y-57777143D01*
X85290333Y-57872381D01*
X85337952Y-57920000D01*
X85433190Y-57967619D01*
X85718905Y-57967619D01*
X85814143Y-57920000D01*
X85861762Y-57872381D01*
X85909381Y-57777143D01*
X85909381Y-57634285D01*
X85242714Y-58396190D02*
X85909381Y-58396190D01*
X85337952Y-58396190D02*
X85290333Y-58443809D01*
X85242714Y-58539047D01*
X85242714Y-58681905D01*
X85290333Y-58777143D01*
X85385571Y-58824762D01*
X85909381Y-58824762D01*
X85242714Y-59205714D02*
X85909381Y-59443809D01*
X85242714Y-59681905D01*
X85861762Y-60443810D02*
X85909381Y-60348572D01*
X85909381Y-60158095D01*
X85861762Y-60062857D01*
X85766524Y-60015238D01*
X85385571Y-60015238D01*
X85290333Y-60062857D01*
X85242714Y-60158095D01*
X85242714Y-60348572D01*
X85290333Y-60443810D01*
X85385571Y-60491429D01*
X85480810Y-60491429D01*
X85576048Y-60015238D01*
X85909381Y-60920000D02*
X85242714Y-60920000D01*
X85433190Y-60920000D02*
X85337952Y-60967619D01*
X85290333Y-61015238D01*
X85242714Y-61110476D01*
X85242714Y-61205715D01*
X85242714Y-61396191D02*
X85242714Y-61777143D01*
X84909381Y-61539048D02*
X85766524Y-61539048D01*
X85861762Y-61586667D01*
X85909381Y-61681905D01*
X85909381Y-61777143D01*
X85861762Y-62491430D02*
X85909381Y-62396192D01*
X85909381Y-62205715D01*
X85861762Y-62110477D01*
X85766524Y-62062858D01*
X85385571Y-62062858D01*
X85290333Y-62110477D01*
X85242714Y-62205715D01*
X85242714Y-62396192D01*
X85290333Y-62491430D01*
X85385571Y-62539049D01*
X85480810Y-62539049D01*
X85576048Y-62062858D01*
X85909381Y-62967620D02*
X85242714Y-62967620D01*
X85433190Y-62967620D02*
X85337952Y-63015239D01*
X85290333Y-63062858D01*
X85242714Y-63158096D01*
X85242714Y-63253335D01*
M02*
