G04 #@! TF.GenerationSoftware,KiCad,Pcbnew,(5.0.0-3-g5ebb6b6)*
G04 #@! TF.CreationDate,2018-12-29T11:49:17+00:00*
G04 #@! TF.ProjectId,BinaryBagelBoard,42696E617279426167656C426F617264,rev?*
G04 #@! TF.SameCoordinates,Original*
G04 #@! TF.FileFunction,Legend,Bot*
G04 #@! TF.FilePolarity,Positive*
%FSLAX46Y46*%
G04 Gerber Fmt 4.6, Leading zero omitted, Abs format (unit mm)*
G04 Created by KiCad (PCBNEW (5.0.0-3-g5ebb6b6)) date Saturday, 29 December 2018 at 11:49:17*
%MOMM*%
%LPD*%
G01*
G04 APERTURE LIST*
%ADD10C,0.125000*%
%ADD11C,0.200000*%
%ADD12C,0.120000*%
%ADD13C,0.050000*%
G04 APERTURE END LIST*
D10*
X96111190Y-69655952D02*
X95873095Y-69489285D01*
X96111190Y-69370238D02*
X95611190Y-69370238D01*
X95611190Y-69560714D01*
X95635000Y-69608333D01*
X95658809Y-69632142D01*
X95706428Y-69655952D01*
X95777857Y-69655952D01*
X95825476Y-69632142D01*
X95849285Y-69608333D01*
X95873095Y-69560714D01*
X95873095Y-69370238D01*
X96087380Y-70060714D02*
X96111190Y-70013095D01*
X96111190Y-69917857D01*
X96087380Y-69870238D01*
X96039761Y-69846428D01*
X95849285Y-69846428D01*
X95801666Y-69870238D01*
X95777857Y-69917857D01*
X95777857Y-70013095D01*
X95801666Y-70060714D01*
X95849285Y-70084523D01*
X95896904Y-70084523D01*
X95944523Y-69846428D01*
X95777857Y-70251190D02*
X96111190Y-70370238D01*
X95777857Y-70489285D01*
X95968333Y-70655952D02*
X95968333Y-70894047D01*
X96111190Y-70608333D02*
X95611190Y-70775000D01*
X96111190Y-70941666D01*
X96063571Y-71775000D02*
X96087380Y-71751190D01*
X96111190Y-71679761D01*
X96111190Y-71632142D01*
X96087380Y-71560714D01*
X96039761Y-71513095D01*
X95992142Y-71489285D01*
X95896904Y-71465476D01*
X95825476Y-71465476D01*
X95730238Y-71489285D01*
X95682619Y-71513095D01*
X95635000Y-71560714D01*
X95611190Y-71632142D01*
X95611190Y-71679761D01*
X95635000Y-71751190D01*
X95658809Y-71775000D01*
X96063571Y-71989285D02*
X96087380Y-72013095D01*
X96111190Y-71989285D01*
X96087380Y-71965476D01*
X96063571Y-71989285D01*
X96111190Y-71989285D01*
X96087380Y-72203571D02*
X96111190Y-72275000D01*
X96111190Y-72394047D01*
X96087380Y-72441666D01*
X96063571Y-72465476D01*
X96015952Y-72489285D01*
X95968333Y-72489285D01*
X95920714Y-72465476D01*
X95896904Y-72441666D01*
X95873095Y-72394047D01*
X95849285Y-72298809D01*
X95825476Y-72251190D01*
X95801666Y-72227380D01*
X95754047Y-72203571D01*
X95706428Y-72203571D01*
X95658809Y-72227380D01*
X95635000Y-72251190D01*
X95611190Y-72298809D01*
X95611190Y-72417857D01*
X95635000Y-72489285D01*
X95777857Y-72917857D02*
X96111190Y-72917857D01*
X95777857Y-72703571D02*
X96039761Y-72703571D01*
X96087380Y-72727380D01*
X96111190Y-72775000D01*
X96111190Y-72846428D01*
X96087380Y-72894047D01*
X96063571Y-72917857D01*
X95777857Y-73084523D02*
X95777857Y-73275000D01*
X95611190Y-73155952D02*
X96039761Y-73155952D01*
X96087380Y-73179761D01*
X96111190Y-73227380D01*
X96111190Y-73275000D01*
X95777857Y-73370238D02*
X95777857Y-73560714D01*
X95611190Y-73441666D02*
X96039761Y-73441666D01*
X96087380Y-73465476D01*
X96111190Y-73513095D01*
X96111190Y-73560714D01*
X96111190Y-73798809D02*
X96087380Y-73751190D01*
X96063571Y-73727380D01*
X96015952Y-73703571D01*
X95873095Y-73703571D01*
X95825476Y-73727380D01*
X95801666Y-73751190D01*
X95777857Y-73798809D01*
X95777857Y-73870238D01*
X95801666Y-73917857D01*
X95825476Y-73941666D01*
X95873095Y-73965476D01*
X96015952Y-73965476D01*
X96063571Y-73941666D01*
X96087380Y-73917857D01*
X96111190Y-73870238D01*
X96111190Y-73798809D01*
X95777857Y-74179761D02*
X96111190Y-74179761D01*
X95825476Y-74179761D02*
X95801666Y-74203571D01*
X95777857Y-74251190D01*
X95777857Y-74322619D01*
X95801666Y-74370238D01*
X95849285Y-74394047D01*
X96111190Y-74394047D01*
X95658809Y-74989285D02*
X95635000Y-75013095D01*
X95611190Y-75060714D01*
X95611190Y-75179761D01*
X95635000Y-75227380D01*
X95658809Y-75251190D01*
X95706428Y-75275000D01*
X95754047Y-75275000D01*
X95825476Y-75251190D01*
X96111190Y-74965476D01*
X96111190Y-75275000D01*
X95611190Y-75584523D02*
X95611190Y-75632142D01*
X95635000Y-75679761D01*
X95658809Y-75703571D01*
X95706428Y-75727380D01*
X95801666Y-75751190D01*
X95920714Y-75751190D01*
X96015952Y-75727380D01*
X96063571Y-75703571D01*
X96087380Y-75679761D01*
X96111190Y-75632142D01*
X96111190Y-75584523D01*
X96087380Y-75536904D01*
X96063571Y-75513095D01*
X96015952Y-75489285D01*
X95920714Y-75465476D01*
X95801666Y-75465476D01*
X95706428Y-75489285D01*
X95658809Y-75513095D01*
X95635000Y-75536904D01*
X95611190Y-75584523D01*
X96111190Y-76227380D02*
X96111190Y-75941666D01*
X96111190Y-76084523D02*
X95611190Y-76084523D01*
X95682619Y-76036904D01*
X95730238Y-75989285D01*
X95754047Y-75941666D01*
X96111190Y-76465476D02*
X96111190Y-76560714D01*
X96087380Y-76608333D01*
X96063571Y-76632142D01*
X95992142Y-76679761D01*
X95896904Y-76703571D01*
X95706428Y-76703571D01*
X95658809Y-76679761D01*
X95635000Y-76655952D01*
X95611190Y-76608333D01*
X95611190Y-76513095D01*
X95635000Y-76465476D01*
X95658809Y-76441666D01*
X95706428Y-76417857D01*
X95825476Y-76417857D01*
X95873095Y-76441666D01*
X95896904Y-76465476D01*
X95920714Y-76513095D01*
X95920714Y-76608333D01*
X95896904Y-76655952D01*
X95873095Y-76679761D01*
X95825476Y-76703571D01*
D11*
X95799285Y-48092857D02*
X95856428Y-48264285D01*
X95913571Y-48321428D01*
X96027857Y-48378571D01*
X96199285Y-48378571D01*
X96313571Y-48321428D01*
X96370714Y-48264285D01*
X96427857Y-48150000D01*
X96427857Y-47692857D01*
X95227857Y-47692857D01*
X95227857Y-48092857D01*
X95285000Y-48207142D01*
X95342142Y-48264285D01*
X95456428Y-48321428D01*
X95570714Y-48321428D01*
X95685000Y-48264285D01*
X95742142Y-48207142D01*
X95799285Y-48092857D01*
X95799285Y-47692857D01*
X96427857Y-48892857D02*
X95227857Y-48892857D01*
X96427857Y-49464285D02*
X95227857Y-49464285D01*
X96427857Y-50150000D01*
X95227857Y-50150000D01*
X96085000Y-50664285D02*
X96085000Y-51235714D01*
X96427857Y-50550000D02*
X95227857Y-50950000D01*
X96427857Y-51350000D01*
X96427857Y-52435714D02*
X95856428Y-52035714D01*
X96427857Y-51750000D02*
X95227857Y-51750000D01*
X95227857Y-52207142D01*
X95285000Y-52321428D01*
X95342142Y-52378571D01*
X95456428Y-52435714D01*
X95627857Y-52435714D01*
X95742142Y-52378571D01*
X95799285Y-52321428D01*
X95856428Y-52207142D01*
X95856428Y-51750000D01*
X95856428Y-53178571D02*
X96427857Y-53178571D01*
X95227857Y-52778571D02*
X95856428Y-53178571D01*
X95227857Y-53578571D01*
X95799285Y-55292857D02*
X95856428Y-55464285D01*
X95913571Y-55521428D01*
X96027857Y-55578571D01*
X96199285Y-55578571D01*
X96313571Y-55521428D01*
X96370714Y-55464285D01*
X96427857Y-55350000D01*
X96427857Y-54892857D01*
X95227857Y-54892857D01*
X95227857Y-55292857D01*
X95285000Y-55407142D01*
X95342142Y-55464285D01*
X95456428Y-55521428D01*
X95570714Y-55521428D01*
X95685000Y-55464285D01*
X95742142Y-55407142D01*
X95799285Y-55292857D01*
X95799285Y-54892857D01*
X96085000Y-56035714D02*
X96085000Y-56607142D01*
X96427857Y-55921428D02*
X95227857Y-56321428D01*
X96427857Y-56721428D01*
X95285000Y-57750000D02*
X95227857Y-57635714D01*
X95227857Y-57464285D01*
X95285000Y-57292857D01*
X95399285Y-57178571D01*
X95513571Y-57121428D01*
X95742142Y-57064285D01*
X95913571Y-57064285D01*
X96142142Y-57121428D01*
X96256428Y-57178571D01*
X96370714Y-57292857D01*
X96427857Y-57464285D01*
X96427857Y-57578571D01*
X96370714Y-57750000D01*
X96313571Y-57807142D01*
X95913571Y-57807142D01*
X95913571Y-57578571D01*
X95799285Y-58321428D02*
X95799285Y-58721428D01*
X96427857Y-58892857D02*
X96427857Y-58321428D01*
X95227857Y-58321428D01*
X95227857Y-58892857D01*
X96427857Y-59978571D02*
X96427857Y-59407142D01*
X95227857Y-59407142D01*
X95799285Y-61692857D02*
X95856428Y-61864285D01*
X95913571Y-61921428D01*
X96027857Y-61978571D01*
X96199285Y-61978571D01*
X96313571Y-61921428D01*
X96370714Y-61864285D01*
X96427857Y-61750000D01*
X96427857Y-61292857D01*
X95227857Y-61292857D01*
X95227857Y-61692857D01*
X95285000Y-61807142D01*
X95342142Y-61864285D01*
X95456428Y-61921428D01*
X95570714Y-61921428D01*
X95685000Y-61864285D01*
X95742142Y-61807142D01*
X95799285Y-61692857D01*
X95799285Y-61292857D01*
X95227857Y-62721428D02*
X95227857Y-62950000D01*
X95285000Y-63064285D01*
X95399285Y-63178571D01*
X95627857Y-63235714D01*
X96027857Y-63235714D01*
X96256428Y-63178571D01*
X96370714Y-63064285D01*
X96427857Y-62950000D01*
X96427857Y-62721428D01*
X96370714Y-62607142D01*
X96256428Y-62492857D01*
X96027857Y-62435714D01*
X95627857Y-62435714D01*
X95399285Y-62492857D01*
X95285000Y-62607142D01*
X95227857Y-62721428D01*
X96085000Y-63692857D02*
X96085000Y-64264285D01*
X96427857Y-63578571D02*
X95227857Y-63978571D01*
X96427857Y-64378571D01*
X96427857Y-65464285D02*
X95856428Y-65064285D01*
X96427857Y-64778571D02*
X95227857Y-64778571D01*
X95227857Y-65235714D01*
X95285000Y-65350000D01*
X95342142Y-65407142D01*
X95456428Y-65464285D01*
X95627857Y-65464285D01*
X95742142Y-65407142D01*
X95799285Y-65350000D01*
X95856428Y-65235714D01*
X95856428Y-64778571D01*
X96427857Y-65978571D02*
X95227857Y-65978571D01*
X95227857Y-66264285D01*
X95285000Y-66435714D01*
X95399285Y-66550000D01*
X95513571Y-66607142D01*
X95742142Y-66664285D01*
X95913571Y-66664285D01*
X96142142Y-66607142D01*
X96256428Y-66550000D01*
X96370714Y-66435714D01*
X96427857Y-66264285D01*
X96427857Y-65978571D01*
D12*
G04 #@! TO.C,C_NR1*
X123115000Y-58793748D02*
X123115000Y-59316252D01*
X124535000Y-58793748D02*
X124535000Y-59316252D01*
G04 #@! TO.C,C_NR2*
X123115000Y-63761252D02*
X123115000Y-63238748D01*
X124535000Y-63761252D02*
X124535000Y-63238748D01*
G04 #@! TO.C,C_PR1*
X114318148Y-61520000D02*
X114840652Y-61520000D01*
X114318148Y-62940000D02*
X114840652Y-62940000D01*
G04 #@! TO.C,C_PR2*
X120090000Y-70111252D02*
X120090000Y-69588748D01*
X118670000Y-70111252D02*
X118670000Y-69588748D01*
G04 #@! TO.C,J_MNT1*
X123250000Y-46930000D02*
X123250000Y-49590000D01*
X105410000Y-46930000D02*
X123250000Y-46930000D01*
X105410000Y-49590000D02*
X123250000Y-49590000D01*
X105410000Y-46930000D02*
X105410000Y-49590000D01*
X104140000Y-46930000D02*
X102810000Y-46930000D01*
X102810000Y-46930000D02*
X102810000Y-48260000D01*
G04 #@! TO.C,J_MNT2*
X102810000Y-74870000D02*
X102810000Y-76200000D01*
X104140000Y-74870000D02*
X102810000Y-74870000D01*
X105410000Y-74870000D02*
X105410000Y-77530000D01*
X105410000Y-77530000D02*
X123250000Y-77530000D01*
X105410000Y-74870000D02*
X123250000Y-74870000D01*
X123250000Y-74870000D02*
X123250000Y-77530000D01*
G04 #@! TO.C,C_NR1*
D13*
X122479571Y-57380285D02*
X122503380Y-57356476D01*
X122527190Y-57285047D01*
X122527190Y-57237428D01*
X122503380Y-57166000D01*
X122455761Y-57118380D01*
X122408142Y-57094571D01*
X122312904Y-57070761D01*
X122241476Y-57070761D01*
X122146238Y-57094571D01*
X122098619Y-57118380D01*
X122051000Y-57166000D01*
X122027190Y-57237428D01*
X122027190Y-57285047D01*
X122051000Y-57356476D01*
X122074809Y-57380285D01*
X122574809Y-57475523D02*
X122574809Y-57856476D01*
X122527190Y-57975523D02*
X122027190Y-57975523D01*
X122527190Y-58261238D01*
X122027190Y-58261238D01*
X122527190Y-58785047D02*
X122289095Y-58618380D01*
X122527190Y-58499333D02*
X122027190Y-58499333D01*
X122027190Y-58689809D01*
X122051000Y-58737428D01*
X122074809Y-58761238D01*
X122122428Y-58785047D01*
X122193857Y-58785047D01*
X122241476Y-58761238D01*
X122265285Y-58737428D01*
X122289095Y-58689809D01*
X122289095Y-58499333D01*
X122527190Y-59261238D02*
X122527190Y-58975523D01*
X122527190Y-59118380D02*
X122027190Y-59118380D01*
X122098619Y-59070761D01*
X122146238Y-59023142D01*
X122170047Y-58975523D01*
G04 #@! TO.C,C_NR2*
X122352571Y-62587285D02*
X122376380Y-62563476D01*
X122400190Y-62492047D01*
X122400190Y-62444428D01*
X122376380Y-62373000D01*
X122328761Y-62325380D01*
X122281142Y-62301571D01*
X122185904Y-62277761D01*
X122114476Y-62277761D01*
X122019238Y-62301571D01*
X121971619Y-62325380D01*
X121924000Y-62373000D01*
X121900190Y-62444428D01*
X121900190Y-62492047D01*
X121924000Y-62563476D01*
X121947809Y-62587285D01*
X122447809Y-62682523D02*
X122447809Y-63063476D01*
X122400190Y-63182523D02*
X121900190Y-63182523D01*
X122400190Y-63468238D01*
X121900190Y-63468238D01*
X122400190Y-63992047D02*
X122162095Y-63825380D01*
X122400190Y-63706333D02*
X121900190Y-63706333D01*
X121900190Y-63896809D01*
X121924000Y-63944428D01*
X121947809Y-63968238D01*
X121995428Y-63992047D01*
X122066857Y-63992047D01*
X122114476Y-63968238D01*
X122138285Y-63944428D01*
X122162095Y-63896809D01*
X122162095Y-63706333D01*
X121947809Y-64182523D02*
X121924000Y-64206333D01*
X121900190Y-64253952D01*
X121900190Y-64373000D01*
X121924000Y-64420619D01*
X121947809Y-64444428D01*
X121995428Y-64468238D01*
X122043047Y-64468238D01*
X122114476Y-64444428D01*
X122400190Y-64158714D01*
X122400190Y-64468238D01*
G04 #@! TO.C,C_PR1*
X110224071Y-61392690D02*
X110247880Y-61368880D01*
X110271690Y-61297452D01*
X110271690Y-61249833D01*
X110247880Y-61178404D01*
X110200261Y-61130785D01*
X110152642Y-61106976D01*
X110057404Y-61083166D01*
X109985976Y-61083166D01*
X109890738Y-61106976D01*
X109843119Y-61130785D01*
X109795500Y-61178404D01*
X109771690Y-61249833D01*
X109771690Y-61297452D01*
X109795500Y-61368880D01*
X109819309Y-61392690D01*
X110319309Y-61487928D02*
X110319309Y-61868880D01*
X110271690Y-61987928D02*
X109771690Y-61987928D01*
X109771690Y-62178404D01*
X109795500Y-62226023D01*
X109819309Y-62249833D01*
X109866928Y-62273642D01*
X109938357Y-62273642D01*
X109985976Y-62249833D01*
X110009785Y-62226023D01*
X110033595Y-62178404D01*
X110033595Y-61987928D01*
X110271690Y-62773642D02*
X110033595Y-62606976D01*
X110271690Y-62487928D02*
X109771690Y-62487928D01*
X109771690Y-62678404D01*
X109795500Y-62726023D01*
X109819309Y-62749833D01*
X109866928Y-62773642D01*
X109938357Y-62773642D01*
X109985976Y-62749833D01*
X110009785Y-62726023D01*
X110033595Y-62678404D01*
X110033595Y-62487928D01*
X110271690Y-63249833D02*
X110271690Y-62964119D01*
X110271690Y-63106976D02*
X109771690Y-63106976D01*
X109843119Y-63059357D01*
X109890738Y-63011738D01*
X109914547Y-62964119D01*
G04 #@! TO.C,C_PR2*
X121208571Y-69076190D02*
X121232380Y-69052380D01*
X121256190Y-68980952D01*
X121256190Y-68933333D01*
X121232380Y-68861904D01*
X121184761Y-68814285D01*
X121137142Y-68790476D01*
X121041904Y-68766666D01*
X120970476Y-68766666D01*
X120875238Y-68790476D01*
X120827619Y-68814285D01*
X120780000Y-68861904D01*
X120756190Y-68933333D01*
X120756190Y-68980952D01*
X120780000Y-69052380D01*
X120803809Y-69076190D01*
X121303809Y-69171428D02*
X121303809Y-69552380D01*
X121256190Y-69671428D02*
X120756190Y-69671428D01*
X120756190Y-69861904D01*
X120780000Y-69909523D01*
X120803809Y-69933333D01*
X120851428Y-69957142D01*
X120922857Y-69957142D01*
X120970476Y-69933333D01*
X120994285Y-69909523D01*
X121018095Y-69861904D01*
X121018095Y-69671428D01*
X121256190Y-70457142D02*
X121018095Y-70290476D01*
X121256190Y-70171428D02*
X120756190Y-70171428D01*
X120756190Y-70361904D01*
X120780000Y-70409523D01*
X120803809Y-70433333D01*
X120851428Y-70457142D01*
X120922857Y-70457142D01*
X120970476Y-70433333D01*
X120994285Y-70409523D01*
X121018095Y-70361904D01*
X121018095Y-70171428D01*
X120803809Y-70647619D02*
X120780000Y-70671428D01*
X120756190Y-70719047D01*
X120756190Y-70838095D01*
X120780000Y-70885714D01*
X120803809Y-70909523D01*
X120851428Y-70933333D01*
X120899047Y-70933333D01*
X120970476Y-70909523D01*
X121256190Y-70623809D01*
X121256190Y-70933333D01*
G04 #@! TO.C,J_MNT1*
X101536190Y-47164761D02*
X101893333Y-47164761D01*
X101964761Y-47140952D01*
X102012380Y-47093333D01*
X102036190Y-47021904D01*
X102036190Y-46974285D01*
X102083809Y-47283809D02*
X102083809Y-47664761D01*
X102036190Y-47783809D02*
X101536190Y-47783809D01*
X101893333Y-47950476D01*
X101536190Y-48117142D01*
X102036190Y-48117142D01*
X102036190Y-48355238D02*
X101536190Y-48355238D01*
X102036190Y-48640952D01*
X101536190Y-48640952D01*
X101536190Y-48807619D02*
X101536190Y-49093333D01*
X102036190Y-48950476D02*
X101536190Y-48950476D01*
X102036190Y-49521904D02*
X102036190Y-49236190D01*
X102036190Y-49379047D02*
X101536190Y-49379047D01*
X101607619Y-49331428D01*
X101655238Y-49283809D01*
X101679047Y-49236190D01*
G04 #@! TO.C,J_MNT2*
X101536190Y-75104761D02*
X101893333Y-75104761D01*
X101964761Y-75080952D01*
X102012380Y-75033333D01*
X102036190Y-74961904D01*
X102036190Y-74914285D01*
X102083809Y-75223809D02*
X102083809Y-75604761D01*
X102036190Y-75723809D02*
X101536190Y-75723809D01*
X101893333Y-75890476D01*
X101536190Y-76057142D01*
X102036190Y-76057142D01*
X102036190Y-76295238D02*
X101536190Y-76295238D01*
X102036190Y-76580952D01*
X101536190Y-76580952D01*
X101536190Y-76747619D02*
X101536190Y-77033333D01*
X102036190Y-76890476D02*
X101536190Y-76890476D01*
X101583809Y-77176190D02*
X101560000Y-77200000D01*
X101536190Y-77247619D01*
X101536190Y-77366666D01*
X101560000Y-77414285D01*
X101583809Y-77438095D01*
X101631428Y-77461904D01*
X101679047Y-77461904D01*
X101750476Y-77438095D01*
X102036190Y-77152380D01*
X102036190Y-77461904D01*
G04 #@! TD*
M02*
