M48
;DRILL file {KiCad (5.0.0-3-g5ebb6b6)} date Saturday, 29 December 2018 at 11:49:20
;FORMAT={-:-/ absolute / metric / decimal}
FMAT,2
METRIC,TZ
T1C0.400
T2C1.000
T3C1.520
%
G90
G05
M71
T1
X107.696Y-64.77
X107.696Y-66.548
X107.696Y-68.326
X107.696Y-70.104
X107.696Y-71.882
X107.696Y-73.533
X109.347Y-64.77
X109.347Y-66.548
X109.347Y-68.326
X109.347Y-70.104
X109.347Y-71.882
X109.347Y-73.533
X110.744Y-51.054
X110.744Y-53.086
X110.744Y-55.372
X110.744Y-57.404
X110.744Y-59.436
X110.998Y-71.882
X110.998Y-73.533
X111.125Y-64.77
X111.125Y-66.548
X111.125Y-68.326
X111.76Y-62.23
X112.268Y-51.054
X112.268Y-53.086
X112.268Y-55.372
X112.268Y-57.404
X112.268Y-59.436
X112.776Y-64.77
X112.776Y-66.548
X112.776Y-73.533
X113.792Y-51.054
X113.792Y-53.086
X113.792Y-55.372
X113.792Y-57.404
X113.792Y-59.436
X115.316Y-51.054
X115.316Y-57.404
X115.316Y-59.436
X116.84Y-51.054
X117.475Y-69.85
X119.38Y-73.025
X121.285Y-62.23
X122.301Y-55.88
X122.34Y-52.856
X122.428Y-60.071
X129.286Y-48.307
T2
X104.14Y-48.26
X106.68Y-48.26
X109.22Y-48.26
X111.76Y-48.26
X114.3Y-48.26
X116.84Y-48.26
X119.38Y-48.26
X121.92Y-48.26
X104.14Y-76.2
X106.68Y-76.2
X109.22Y-76.2
X111.76Y-76.2
X114.3Y-76.2
X116.84Y-76.2
X119.38Y-76.2
X121.92Y-76.2
T3
X127.Y-57.15
X127.Y-62.23
X127.Y-67.31
X99.06Y-66.04
X99.06Y-71.12
T2
X100.68Y-54.88G85X100.68Y-56.88
G05
X102.68Y-60.58G85X104.68Y-60.58
G05
X106.68Y-54.88G85X106.68Y-56.88
G05
T0
M30
