G04 #@! TF.GenerationSoftware,KiCad,Pcbnew,(5.0.0-3-g5ebb6b6)*
G04 #@! TF.CreationDate,2018-12-29T11:49:17+00:00*
G04 #@! TF.ProjectId,BinaryBagelBoard,42696E617279426167656C426F617264,rev?*
G04 #@! TF.SameCoordinates,Original*
G04 #@! TF.FileFunction,Legend,Top*
G04 #@! TF.FilePolarity,Positive*
%FSLAX46Y46*%
G04 Gerber Fmt 4.6, Leading zero omitted, Abs format (unit mm)*
G04 Created by KiCad (PCBNEW (5.0.0-3-g5ebb6b6)) date Saturday, 29 December 2018 at 11:49:17*
%MOMM*%
%LPD*%
G01*
G04 APERTURE LIST*
%ADD10C,0.200000*%
%ADD11C,0.300000*%
%ADD12C,0.150000*%
%ADD13C,0.120000*%
%ADD14C,0.050000*%
G04 APERTURE END LIST*
D10*
X98425000Y-48514000D02*
X100076000Y-48514000D01*
X96774000Y-48514000D02*
X97663000Y-48514000D01*
X99060000Y-48895000D02*
G75*
G02X99060000Y-48133000I-635000J381000D01*
G01*
D11*
X98552000Y-48514000D02*
G75*
G03X98552000Y-48514000I-127000J0D01*
G01*
D10*
X95885000Y-48514000D02*
X96393000Y-48514000D01*
X96774000Y-48514000D02*
G75*
G03X96774000Y-48514000I-635000J0D01*
G01*
X100457000Y-48514000D02*
X100965000Y-48514000D01*
X96139000Y-48768000D02*
X96139000Y-48260000D01*
X101346000Y-48514000D02*
G75*
G03X101346000Y-48514000I-635000J0D01*
G01*
D12*
G04 #@! TO.C,U_INV1*
X116805000Y-64305000D02*
X116855000Y-64305000D01*
X116805000Y-60155000D02*
X116950000Y-60155000D01*
X121955000Y-60155000D02*
X121810000Y-60155000D01*
X121955000Y-64305000D02*
X121810000Y-64305000D01*
X116805000Y-64305000D02*
X116805000Y-60155000D01*
X121955000Y-64305000D02*
X121955000Y-60155000D01*
X116855000Y-64305000D02*
X116855000Y-65705000D01*
D13*
G04 #@! TO.C,C_INV1*
X127990000Y-75920000D02*
X127990000Y-74720000D01*
X127990000Y-71400000D02*
X127990000Y-72600000D01*
X124534437Y-71400000D02*
X127990000Y-71400000D01*
X124534437Y-75920000D02*
X127990000Y-75920000D01*
X123470000Y-74855563D02*
X123470000Y-74720000D01*
X123470000Y-72464437D02*
X123470000Y-72600000D01*
X123470000Y-72464437D02*
X124534437Y-71400000D01*
X123470000Y-74855563D02*
X124534437Y-75920000D01*
X122730000Y-72100000D02*
X123230000Y-72100000D01*
X122980000Y-71850000D02*
X122980000Y-72350000D01*
G04 #@! TO.C,C_INV2*
X130258000Y-52356000D02*
X130258000Y-51856000D01*
X130508000Y-52106000D02*
X130008000Y-52106000D01*
X129768000Y-49350437D02*
X128703563Y-48286000D01*
X129768000Y-51741563D02*
X128703563Y-52806000D01*
X129768000Y-51741563D02*
X129768000Y-51606000D01*
X129768000Y-49350437D02*
X129768000Y-49486000D01*
X128703563Y-48286000D02*
X125248000Y-48286000D01*
X128703563Y-52806000D02*
X125248000Y-52806000D01*
X125248000Y-52806000D02*
X125248000Y-51606000D01*
X125248000Y-48286000D02*
X125248000Y-49486000D01*
G04 #@! TO.C,J_IN1*
X107780000Y-52130000D02*
X107780000Y-51080000D01*
X106730000Y-51080000D02*
X107780000Y-51080000D01*
X101680000Y-60480000D02*
X92880000Y-60480000D01*
X92880000Y-60480000D02*
X92880000Y-51280000D01*
X107580000Y-57780000D02*
X107580000Y-60480000D01*
X107580000Y-60480000D02*
X105680000Y-60480000D01*
X92880000Y-51280000D02*
X107580000Y-51280000D01*
X107580000Y-51280000D02*
X107580000Y-53880000D01*
G04 #@! TO.C,U_NR1*
X116330000Y-53156000D02*
X116330000Y-51956000D01*
X116330000Y-51956000D02*
X119030000Y-51956000D01*
X120330000Y-56756000D02*
X116330000Y-56756000D01*
X116330000Y-56756000D02*
X116330000Y-55556000D01*
G04 #@! TO.C,U_PR1*
X111885000Y-72250000D02*
X111885000Y-71050000D01*
X115885000Y-72250000D02*
X111885000Y-72250000D01*
X111885000Y-67450000D02*
X114585000Y-67450000D01*
X111885000Y-68650000D02*
X111885000Y-67450000D01*
G04 #@! TO.C,J_IN2*
X101600000Y-63500000D02*
X101600000Y-73660000D01*
X102870000Y-63500000D02*
X95250000Y-63500000D01*
X95250000Y-63500000D02*
X95250000Y-73660000D01*
X95250000Y-73660000D02*
X102870000Y-73660000D01*
X102870000Y-73660000D02*
X102870000Y-63500000D01*
G04 #@! TO.C,J_OUT1*
X130810000Y-69850000D02*
X123190000Y-69850000D01*
X130810000Y-54610000D02*
X123190000Y-54610000D01*
X129540000Y-69850000D02*
X129540000Y-54610000D01*
X123190000Y-69850000D02*
X123190000Y-54610000D01*
X130810000Y-69850000D02*
X130810000Y-54610000D01*
G04 #@! TO.C,DP1*
X100040000Y-77200000D02*
X100040000Y-75200000D01*
X100040000Y-75200000D02*
X96140000Y-75200000D01*
X100040000Y-77200000D02*
X96140000Y-77200000D01*
G04 #@! TO.C,U_INV1*
D14*
X115606190Y-63396666D02*
X116010952Y-63396666D01*
X116058571Y-63372857D01*
X116082380Y-63349047D01*
X116106190Y-63301428D01*
X116106190Y-63206190D01*
X116082380Y-63158571D01*
X116058571Y-63134761D01*
X116010952Y-63110952D01*
X115606190Y-63110952D01*
X116153809Y-62991904D02*
X116153809Y-62610952D01*
X116106190Y-62491904D02*
X115606190Y-62491904D01*
X116106190Y-62253809D02*
X115606190Y-62253809D01*
X116106190Y-61968095D01*
X115606190Y-61968095D01*
X115606190Y-61801428D02*
X116106190Y-61634761D01*
X115606190Y-61468095D01*
X116106190Y-61039523D02*
X116106190Y-61325238D01*
X116106190Y-61182380D02*
X115606190Y-61182380D01*
X115677619Y-61230000D01*
X115725238Y-61277619D01*
X115749047Y-61325238D01*
G04 #@! TO.C,C_INV1*
X124860952Y-76950071D02*
X124837142Y-76973880D01*
X124765714Y-76997690D01*
X124718095Y-76997690D01*
X124646666Y-76973880D01*
X124599047Y-76926261D01*
X124575238Y-76878642D01*
X124551428Y-76783404D01*
X124551428Y-76711976D01*
X124575238Y-76616738D01*
X124599047Y-76569119D01*
X124646666Y-76521500D01*
X124718095Y-76497690D01*
X124765714Y-76497690D01*
X124837142Y-76521500D01*
X124860952Y-76545309D01*
X124956190Y-77045309D02*
X125337142Y-77045309D01*
X125456190Y-76997690D02*
X125456190Y-76497690D01*
X125694285Y-76997690D02*
X125694285Y-76497690D01*
X125980000Y-76997690D01*
X125980000Y-76497690D01*
X126146666Y-76497690D02*
X126313333Y-76997690D01*
X126480000Y-76497690D01*
X126908571Y-76997690D02*
X126622857Y-76997690D01*
X126765714Y-76997690D02*
X126765714Y-76497690D01*
X126718095Y-76569119D01*
X126670476Y-76616738D01*
X126622857Y-76640547D01*
G04 #@! TO.C,C_INV2*
X125876952Y-47803571D02*
X125853142Y-47827380D01*
X125781714Y-47851190D01*
X125734095Y-47851190D01*
X125662666Y-47827380D01*
X125615047Y-47779761D01*
X125591238Y-47732142D01*
X125567428Y-47636904D01*
X125567428Y-47565476D01*
X125591238Y-47470238D01*
X125615047Y-47422619D01*
X125662666Y-47375000D01*
X125734095Y-47351190D01*
X125781714Y-47351190D01*
X125853142Y-47375000D01*
X125876952Y-47398809D01*
X125972190Y-47898809D02*
X126353142Y-47898809D01*
X126472190Y-47851190D02*
X126472190Y-47351190D01*
X126710285Y-47851190D02*
X126710285Y-47351190D01*
X126996000Y-47851190D01*
X126996000Y-47351190D01*
X127162666Y-47351190D02*
X127329333Y-47851190D01*
X127496000Y-47351190D01*
X127638857Y-47398809D02*
X127662666Y-47375000D01*
X127710285Y-47351190D01*
X127829333Y-47351190D01*
X127876952Y-47375000D01*
X127900761Y-47398809D01*
X127924571Y-47446428D01*
X127924571Y-47494047D01*
X127900761Y-47565476D01*
X127615047Y-47851190D01*
X127924571Y-47851190D01*
G04 #@! TO.C,J_IN1*
X95146904Y-50145190D02*
X95146904Y-50502333D01*
X95123095Y-50573761D01*
X95075476Y-50621380D01*
X95004047Y-50645190D01*
X94956428Y-50645190D01*
X95265952Y-50692809D02*
X95646904Y-50692809D01*
X95765952Y-50645190D02*
X95765952Y-50145190D01*
X96004047Y-50645190D02*
X96004047Y-50145190D01*
X96289761Y-50645190D01*
X96289761Y-50145190D01*
X96789761Y-50645190D02*
X96504047Y-50645190D01*
X96646904Y-50645190D02*
X96646904Y-50145190D01*
X96599285Y-50216619D01*
X96551666Y-50264238D01*
X96504047Y-50288047D01*
G04 #@! TO.C,U_NR1*
X119058666Y-50716690D02*
X119058666Y-51121452D01*
X119082476Y-51169071D01*
X119106285Y-51192880D01*
X119153904Y-51216690D01*
X119249142Y-51216690D01*
X119296761Y-51192880D01*
X119320571Y-51169071D01*
X119344380Y-51121452D01*
X119344380Y-50716690D01*
X119463428Y-51264309D02*
X119844380Y-51264309D01*
X119963428Y-51216690D02*
X119963428Y-50716690D01*
X120249142Y-51216690D01*
X120249142Y-50716690D01*
X120772952Y-51216690D02*
X120606285Y-50978595D01*
X120487238Y-51216690D02*
X120487238Y-50716690D01*
X120677714Y-50716690D01*
X120725333Y-50740500D01*
X120749142Y-50764309D01*
X120772952Y-50811928D01*
X120772952Y-50883357D01*
X120749142Y-50930976D01*
X120725333Y-50954785D01*
X120677714Y-50978595D01*
X120487238Y-50978595D01*
X121249142Y-51216690D02*
X120963428Y-51216690D01*
X121106285Y-51216690D02*
X121106285Y-50716690D01*
X121058666Y-50788119D01*
X121011047Y-50835738D01*
X120963428Y-50859547D01*
G04 #@! TO.C,U_PR1*
X114752571Y-73005190D02*
X114752571Y-73409952D01*
X114776380Y-73457571D01*
X114800190Y-73481380D01*
X114847809Y-73505190D01*
X114943047Y-73505190D01*
X114990666Y-73481380D01*
X115014476Y-73457571D01*
X115038285Y-73409952D01*
X115038285Y-73005190D01*
X115157333Y-73552809D02*
X115538285Y-73552809D01*
X115657333Y-73505190D02*
X115657333Y-73005190D01*
X115847809Y-73005190D01*
X115895428Y-73029000D01*
X115919238Y-73052809D01*
X115943047Y-73100428D01*
X115943047Y-73171857D01*
X115919238Y-73219476D01*
X115895428Y-73243285D01*
X115847809Y-73267095D01*
X115657333Y-73267095D01*
X116443047Y-73505190D02*
X116276380Y-73267095D01*
X116157333Y-73505190D02*
X116157333Y-73005190D01*
X116347809Y-73005190D01*
X116395428Y-73029000D01*
X116419238Y-73052809D01*
X116443047Y-73100428D01*
X116443047Y-73171857D01*
X116419238Y-73219476D01*
X116395428Y-73243285D01*
X116347809Y-73267095D01*
X116157333Y-73267095D01*
X116919238Y-73505190D02*
X116633523Y-73505190D01*
X116776380Y-73505190D02*
X116776380Y-73005190D01*
X116728761Y-73076619D01*
X116681142Y-73124238D01*
X116633523Y-73148047D01*
G04 #@! TO.C,J_IN2*
X95781904Y-74402190D02*
X95781904Y-74759333D01*
X95758095Y-74830761D01*
X95710476Y-74878380D01*
X95639047Y-74902190D01*
X95591428Y-74902190D01*
X95900952Y-74949809D02*
X96281904Y-74949809D01*
X96400952Y-74902190D02*
X96400952Y-74402190D01*
X96639047Y-74902190D02*
X96639047Y-74402190D01*
X96924761Y-74902190D01*
X96924761Y-74402190D01*
X97139047Y-74449809D02*
X97162857Y-74426000D01*
X97210476Y-74402190D01*
X97329523Y-74402190D01*
X97377142Y-74426000D01*
X97400952Y-74449809D01*
X97424761Y-74497428D01*
X97424761Y-74545047D01*
X97400952Y-74616476D01*
X97115238Y-74902190D01*
X97424761Y-74902190D01*
G04 #@! TO.C,J_OUT1*
X128913071Y-70973190D02*
X128913071Y-71330333D01*
X128889261Y-71401761D01*
X128841642Y-71449380D01*
X128770214Y-71473190D01*
X128722595Y-71473190D01*
X129032119Y-71520809D02*
X129413071Y-71520809D01*
X129627357Y-70973190D02*
X129722595Y-70973190D01*
X129770214Y-70997000D01*
X129817833Y-71044619D01*
X129841642Y-71139857D01*
X129841642Y-71306523D01*
X129817833Y-71401761D01*
X129770214Y-71449380D01*
X129722595Y-71473190D01*
X129627357Y-71473190D01*
X129579738Y-71449380D01*
X129532119Y-71401761D01*
X129508309Y-71306523D01*
X129508309Y-71139857D01*
X129532119Y-71044619D01*
X129579738Y-70997000D01*
X129627357Y-70973190D01*
X130055928Y-70973190D02*
X130055928Y-71377952D01*
X130079738Y-71425571D01*
X130103547Y-71449380D01*
X130151166Y-71473190D01*
X130246404Y-71473190D01*
X130294023Y-71449380D01*
X130317833Y-71425571D01*
X130341642Y-71377952D01*
X130341642Y-70973190D01*
X130508309Y-70973190D02*
X130794023Y-70973190D01*
X130651166Y-71473190D02*
X130651166Y-70973190D01*
X131222595Y-71473190D02*
X130936880Y-71473190D01*
X131079738Y-71473190D02*
X131079738Y-70973190D01*
X131032119Y-71044619D01*
X130984500Y-71092238D01*
X130936880Y-71116047D01*
G04 #@! TO.C,DP1*
X97170952Y-78331190D02*
X97170952Y-77831190D01*
X97290000Y-77831190D01*
X97361428Y-77855000D01*
X97409047Y-77902619D01*
X97432857Y-77950238D01*
X97456666Y-78045476D01*
X97456666Y-78116904D01*
X97432857Y-78212142D01*
X97409047Y-78259761D01*
X97361428Y-78307380D01*
X97290000Y-78331190D01*
X97170952Y-78331190D01*
X97670952Y-78331190D02*
X97670952Y-77831190D01*
X97861428Y-77831190D01*
X97909047Y-77855000D01*
X97932857Y-77878809D01*
X97956666Y-77926428D01*
X97956666Y-77997857D01*
X97932857Y-78045476D01*
X97909047Y-78069285D01*
X97861428Y-78093095D01*
X97670952Y-78093095D01*
X98432857Y-78331190D02*
X98147142Y-78331190D01*
X98290000Y-78331190D02*
X98290000Y-77831190D01*
X98242380Y-77902619D01*
X98194761Y-77950238D01*
X98147142Y-77974047D01*
G04 #@! TD*
M02*
