G04 #@! TF.GenerationSoftware,KiCad,Pcbnew,(5.0.0-3-g5ebb6b6)*
G04 #@! TF.CreationDate,2018-12-29T11:49:17+00:00*
G04 #@! TF.ProjectId,BinaryBagelBoard,42696E617279426167656C426F617264,rev?*
G04 #@! TF.SameCoordinates,Original*
G04 #@! TF.FileFunction,Copper,L1,Top,Signal*
G04 #@! TF.FilePolarity,Positive*
%FSLAX46Y46*%
G04 Gerber Fmt 4.6, Leading zero omitted, Abs format (unit mm)*
G04 Created by KiCad (PCBNEW (5.0.0-3-g5ebb6b6)) date Saturday, 29 December 2018 at 11:49:17*
%MOMM*%
%LPD*%
G01*
G04 APERTURE LIST*
G04 #@! TA.AperFunction,SMDPad,CuDef*
%ADD10R,0.600000X1.550000*%
G04 #@! TD*
G04 #@! TA.AperFunction,SMDPad,CuDef*
%ADD11R,2.600000X1.600000*%
G04 #@! TD*
G04 #@! TA.AperFunction,ComponentPad*
%ADD12R,3.500000X3.500000*%
G04 #@! TD*
G04 #@! TA.AperFunction,Conductor*
%ADD13C,0.100000*%
G04 #@! TD*
G04 #@! TA.AperFunction,ComponentPad*
%ADD14C,3.000000*%
G04 #@! TD*
G04 #@! TA.AperFunction,ComponentPad*
%ADD15C,3.500000*%
G04 #@! TD*
G04 #@! TA.AperFunction,SMDPad,CuDef*
%ADD16R,2.500000X1.000000*%
G04 #@! TD*
G04 #@! TA.AperFunction,SMDPad,CuDef*
%ADD17R,4.000000X2.000000*%
G04 #@! TD*
G04 #@! TA.AperFunction,SMDPad,CuDef*
%ADD18C,0.750000*%
G04 #@! TD*
G04 #@! TA.AperFunction,ComponentPad*
%ADD19R,1.700000X1.700000*%
G04 #@! TD*
G04 #@! TA.AperFunction,ComponentPad*
%ADD20O,1.700000X1.700000*%
G04 #@! TD*
G04 #@! TA.AperFunction,ComponentPad*
%ADD21R,3.000000X3.000000*%
G04 #@! TD*
G04 #@! TA.AperFunction,SMDPad,CuDef*
%ADD22R,0.900000X1.200000*%
G04 #@! TD*
G04 #@! TA.AperFunction,ViaPad*
%ADD23C,0.800000*%
G04 #@! TD*
G04 #@! TA.AperFunction,Conductor*
%ADD24C,1.000000*%
G04 #@! TD*
G04 #@! TA.AperFunction,Conductor*
%ADD25C,0.254000*%
G04 #@! TD*
G04 APERTURE END LIST*
D10*
G04 #@! TO.P,U_INV1,1*
G04 #@! TO.N,Net-(C_PR1-Pad1)*
X117475000Y-64930000D03*
G04 #@! TO.P,U_INV1,2*
G04 #@! TO.N,Net-(C_INV1-Pad1)*
X118745000Y-64930000D03*
G04 #@! TO.P,U_INV1,3*
G04 #@! TO.N,/GND*
X120015000Y-64930000D03*
G04 #@! TO.P,U_INV1,4*
G04 #@! TO.N,Net-(C_INV1-Pad2)*
X121285000Y-64930000D03*
G04 #@! TO.P,U_INV1,5*
G04 #@! TO.N,Net-(C_INV2-Pad2)*
X121285000Y-59530000D03*
G04 #@! TO.P,U_INV1,6*
G04 #@! TO.N,/GND*
X120015000Y-59530000D03*
G04 #@! TO.P,U_INV1,7*
G04 #@! TO.N,N/C*
X118745000Y-59530000D03*
G04 #@! TO.P,U_INV1,8*
G04 #@! TO.N,Net-(C_PR1-Pad1)*
X117475000Y-59530000D03*
G04 #@! TD*
D11*
G04 #@! TO.P,C_INV1,1*
G04 #@! TO.N,Net-(C_INV1-Pad1)*
X123930000Y-73660000D03*
G04 #@! TO.P,C_INV1,2*
G04 #@! TO.N,Net-(C_INV1-Pad2)*
X127530000Y-73660000D03*
G04 #@! TD*
G04 #@! TO.P,C_INV2,2*
G04 #@! TO.N,Net-(C_INV2-Pad2)*
X125708000Y-50546000D03*
G04 #@! TO.P,C_INV2,1*
G04 #@! TO.N,/GND*
X129308000Y-50546000D03*
G04 #@! TD*
D12*
G04 #@! TO.P,J_IN1,1*
G04 #@! TO.N,/GND*
X106680000Y-55880000D03*
D13*
G04 #@! TD*
G04 #@! TO.N,Net-(DP1-Pad2)*
G04 #@! TO.C,J_IN1*
G36*
X101503513Y-54133611D02*
X101576318Y-54144411D01*
X101647714Y-54162295D01*
X101717013Y-54187090D01*
X101783548Y-54218559D01*
X101846678Y-54256398D01*
X101905795Y-54300242D01*
X101960330Y-54349670D01*
X102009758Y-54404205D01*
X102053602Y-54463322D01*
X102091441Y-54526452D01*
X102122910Y-54592987D01*
X102147705Y-54662286D01*
X102165589Y-54733682D01*
X102176389Y-54806487D01*
X102180000Y-54880000D01*
X102180000Y-56880000D01*
X102176389Y-56953513D01*
X102165589Y-57026318D01*
X102147705Y-57097714D01*
X102122910Y-57167013D01*
X102091441Y-57233548D01*
X102053602Y-57296678D01*
X102009758Y-57355795D01*
X101960330Y-57410330D01*
X101905795Y-57459758D01*
X101846678Y-57503602D01*
X101783548Y-57541441D01*
X101717013Y-57572910D01*
X101647714Y-57597705D01*
X101576318Y-57615589D01*
X101503513Y-57626389D01*
X101430000Y-57630000D01*
X99930000Y-57630000D01*
X99856487Y-57626389D01*
X99783682Y-57615589D01*
X99712286Y-57597705D01*
X99642987Y-57572910D01*
X99576452Y-57541441D01*
X99513322Y-57503602D01*
X99454205Y-57459758D01*
X99399670Y-57410330D01*
X99350242Y-57355795D01*
X99306398Y-57296678D01*
X99268559Y-57233548D01*
X99237090Y-57167013D01*
X99212295Y-57097714D01*
X99194411Y-57026318D01*
X99183611Y-56953513D01*
X99180000Y-56880000D01*
X99180000Y-54880000D01*
X99183611Y-54806487D01*
X99194411Y-54733682D01*
X99212295Y-54662286D01*
X99237090Y-54592987D01*
X99268559Y-54526452D01*
X99306398Y-54463322D01*
X99350242Y-54404205D01*
X99399670Y-54349670D01*
X99454205Y-54300242D01*
X99513322Y-54256398D01*
X99576452Y-54218559D01*
X99642987Y-54187090D01*
X99712286Y-54162295D01*
X99783682Y-54144411D01*
X99856487Y-54133611D01*
X99930000Y-54130000D01*
X101430000Y-54130000D01*
X101503513Y-54133611D01*
X101503513Y-54133611D01*
G37*
D14*
G04 #@! TO.P,J_IN1,2*
G04 #@! TO.N,Net-(DP1-Pad2)*
X100680000Y-55880000D03*
D13*
G04 #@! TD*
G04 #@! TO.N,N/C*
G04 #@! TO.C,J_IN1*
G36*
X104640765Y-58834213D02*
X104725704Y-58846813D01*
X104808999Y-58867677D01*
X104889848Y-58896605D01*
X104967472Y-58933319D01*
X105041124Y-58977464D01*
X105110094Y-59028616D01*
X105173718Y-59086282D01*
X105231384Y-59149906D01*
X105282536Y-59218876D01*
X105326681Y-59292528D01*
X105363395Y-59370152D01*
X105392323Y-59451001D01*
X105413187Y-59534296D01*
X105425787Y-59619235D01*
X105430000Y-59705000D01*
X105430000Y-61455000D01*
X105425787Y-61540765D01*
X105413187Y-61625704D01*
X105392323Y-61708999D01*
X105363395Y-61789848D01*
X105326681Y-61867472D01*
X105282536Y-61941124D01*
X105231384Y-62010094D01*
X105173718Y-62073718D01*
X105110094Y-62131384D01*
X105041124Y-62182536D01*
X104967472Y-62226681D01*
X104889848Y-62263395D01*
X104808999Y-62292323D01*
X104725704Y-62313187D01*
X104640765Y-62325787D01*
X104555000Y-62330000D01*
X102805000Y-62330000D01*
X102719235Y-62325787D01*
X102634296Y-62313187D01*
X102551001Y-62292323D01*
X102470152Y-62263395D01*
X102392528Y-62226681D01*
X102318876Y-62182536D01*
X102249906Y-62131384D01*
X102186282Y-62073718D01*
X102128616Y-62010094D01*
X102077464Y-61941124D01*
X102033319Y-61867472D01*
X101996605Y-61789848D01*
X101967677Y-61708999D01*
X101946813Y-61625704D01*
X101934213Y-61540765D01*
X101930000Y-61455000D01*
X101930000Y-59705000D01*
X101934213Y-59619235D01*
X101946813Y-59534296D01*
X101967677Y-59451001D01*
X101996605Y-59370152D01*
X102033319Y-59292528D01*
X102077464Y-59218876D01*
X102128616Y-59149906D01*
X102186282Y-59086282D01*
X102249906Y-59028616D01*
X102318876Y-58977464D01*
X102392528Y-58933319D01*
X102470152Y-58896605D01*
X102551001Y-58867677D01*
X102634296Y-58846813D01*
X102719235Y-58834213D01*
X102805000Y-58830000D01*
X104555000Y-58830000D01*
X104640765Y-58834213D01*
X104640765Y-58834213D01*
G37*
D15*
G04 #@! TO.P,J_IN1,3*
G04 #@! TO.N,N/C*
X103680000Y-60580000D03*
G04 #@! TD*
D16*
G04 #@! TO.P,U_NR1,1*
G04 #@! TO.N,/GND*
X120090000Y-55856000D03*
G04 #@! TO.P,U_NR1,2*
G04 #@! TO.N,Net-(C_INV2-Pad2)*
X120090000Y-54356000D03*
G04 #@! TO.P,U_NR1,3*
G04 #@! TO.N,/-5V*
X120090000Y-52856000D03*
D17*
G04 #@! TO.P,U_NR1,2*
G04 #@! TO.N,Net-(C_INV2-Pad2)*
X116130000Y-54356000D03*
D18*
X118480000Y-54356000D03*
D13*
G04 #@! TD*
G04 #@! TO.N,Net-(C_INV2-Pad2)*
G04 #@! TO.C,U_NR1*
G36*
X118105000Y-53356000D02*
X118855000Y-53856000D01*
X118855000Y-54856000D01*
X118105000Y-55356000D01*
X118105000Y-53356000D01*
X118105000Y-53356000D01*
G37*
D18*
G04 #@! TO.P,U_PR1,2*
G04 #@! TO.N,/GND*
X114035000Y-69850000D03*
D13*
G04 #@! TD*
G04 #@! TO.N,/GND*
G04 #@! TO.C,U_PR1*
G36*
X113660000Y-68850000D02*
X114410000Y-69350000D01*
X114410000Y-70350000D01*
X113660000Y-70850000D01*
X113660000Y-68850000D01*
X113660000Y-68850000D01*
G37*
D17*
G04 #@! TO.P,U_PR1,2*
G04 #@! TO.N,/GND*
X111685000Y-69850000D03*
D16*
G04 #@! TO.P,U_PR1,3*
G04 #@! TO.N,Net-(C_PR1-Pad1)*
X115645000Y-68350000D03*
G04 #@! TO.P,U_PR1,2*
G04 #@! TO.N,/GND*
X115645000Y-69850000D03*
G04 #@! TO.P,U_PR1,1*
G04 #@! TO.N,/+5V*
X115645000Y-71350000D03*
G04 #@! TD*
D19*
G04 #@! TO.P,J_MNT1,1*
G04 #@! TO.N,N/C*
X104140000Y-48260000D03*
D20*
G04 #@! TO.P,J_MNT1,2*
X106680000Y-48260000D03*
G04 #@! TO.P,J_MNT1,3*
X109220000Y-48260000D03*
G04 #@! TO.P,J_MNT1,4*
X111760000Y-48260000D03*
G04 #@! TO.P,J_MNT1,5*
X114300000Y-48260000D03*
G04 #@! TO.P,J_MNT1,6*
X116840000Y-48260000D03*
G04 #@! TO.P,J_MNT1,7*
X119380000Y-48260000D03*
G04 #@! TO.P,J_MNT1,8*
X121920000Y-48260000D03*
G04 #@! TD*
G04 #@! TO.P,J_MNT2,8*
G04 #@! TO.N,N/C*
X121920000Y-76200000D03*
G04 #@! TO.P,J_MNT2,7*
X119380000Y-76200000D03*
G04 #@! TO.P,J_MNT2,6*
X116840000Y-76200000D03*
G04 #@! TO.P,J_MNT2,5*
X114300000Y-76200000D03*
G04 #@! TO.P,J_MNT2,4*
X111760000Y-76200000D03*
G04 #@! TO.P,J_MNT2,3*
X109220000Y-76200000D03*
G04 #@! TO.P,J_MNT2,2*
X106680000Y-76200000D03*
D19*
G04 #@! TO.P,J_MNT2,1*
X104140000Y-76200000D03*
G04 #@! TD*
D21*
G04 #@! TO.P,J_IN2,1*
G04 #@! TO.N,Net-(DP1-Pad2)*
X99060000Y-71120000D03*
D14*
G04 #@! TO.P,J_IN2,2*
G04 #@! TO.N,/GND*
X99060000Y-66040000D03*
G04 #@! TD*
D21*
G04 #@! TO.P,J_OUT1,1*
G04 #@! TO.N,/+5V*
X127000000Y-67310000D03*
D14*
G04 #@! TO.P,J_OUT1,2*
G04 #@! TO.N,/-5V*
X127000000Y-62230000D03*
G04 #@! TO.P,J_OUT1,3*
G04 #@! TO.N,/GND*
X127000000Y-57150000D03*
G04 #@! TD*
D22*
G04 #@! TO.P,DP1,1*
G04 #@! TO.N,Net-(C_PR1-Pad1)*
X99440000Y-76200000D03*
G04 #@! TO.P,DP1,2*
G04 #@! TO.N,Net-(DP1-Pad2)*
X96140000Y-76200000D03*
G04 #@! TD*
D23*
G04 #@! TO.N,Net-(C_INV2-Pad2)*
X113792000Y-57404000D03*
X113792000Y-59436000D03*
X116840000Y-51054000D03*
X112268000Y-55372000D03*
X112268000Y-53086000D03*
X113792000Y-53086000D03*
X113792000Y-55372000D03*
X122428000Y-60071000D03*
X115316000Y-51054000D03*
X113792000Y-51054000D03*
X112268000Y-51054000D03*
X110744000Y-51054000D03*
X110744000Y-53086000D03*
X110744000Y-55372000D03*
X110744000Y-57404000D03*
X110744000Y-59436000D03*
X112268000Y-59436000D03*
X115316000Y-59436000D03*
X112268000Y-57404000D03*
X115316000Y-57404000D03*
G04 #@! TO.N,/GND*
X109347000Y-68326000D03*
X109347000Y-70104000D03*
X109347000Y-71882000D03*
X109347000Y-73533000D03*
X110998000Y-73533000D03*
X110998000Y-71882000D03*
X111125000Y-66548000D03*
X111125000Y-68326000D03*
X121285000Y-62230000D03*
X129286000Y-48307400D03*
X117475000Y-69850000D03*
X122301000Y-55880000D03*
X112776000Y-64770000D03*
X109347000Y-64770000D03*
X107696000Y-64770000D03*
X107696000Y-66548000D03*
X111125000Y-64770000D03*
X112776000Y-66548000D03*
X112776000Y-73533000D03*
X109347000Y-66548000D03*
X107696000Y-73533000D03*
X107696000Y-68326000D03*
X107696000Y-70104000D03*
X107696000Y-71882000D03*
G04 #@! TO.N,/-5V*
X122340000Y-52856000D03*
G04 #@! TO.N,Net-(C_PR1-Pad1)*
X111760000Y-62230000D03*
G04 #@! TO.N,/+5V*
X119380000Y-73025000D03*
G04 #@! TD*
D24*
G04 #@! TO.N,Net-(C_INV1-Pad1)*
X121285000Y-66675000D02*
X118745000Y-66675000D01*
X118745000Y-64930000D02*
X118745000Y-66675000D01*
X121285000Y-66675000D02*
X121285000Y-73660000D01*
X121285000Y-73660000D02*
X123930000Y-73660000D01*
G04 #@! TO.N,Net-(C_INV1-Pad2)*
X121285000Y-64930000D02*
X121340000Y-64930000D01*
X123085000Y-66675000D02*
X123085000Y-70380000D01*
X121340000Y-64930000D02*
X123085000Y-66675000D01*
X123085000Y-70380000D02*
X123825000Y-71120000D01*
X123825000Y-71120000D02*
X127000000Y-71120000D01*
X127530000Y-71650000D02*
X127530000Y-73660000D01*
X127000000Y-71120000D02*
X127530000Y-71650000D01*
G04 #@! TO.N,Net-(C_INV2-Pad2)*
X120142000Y-54356000D02*
X116182000Y-54356000D01*
X121285000Y-59530000D02*
X121285000Y-59690000D01*
X121666000Y-60071000D02*
X122428000Y-60071000D01*
X121285000Y-59690000D02*
X121666000Y-60071000D01*
X125730000Y-54229000D02*
X125730000Y-50546000D01*
X120090000Y-54356000D02*
X125730000Y-54356000D01*
X123825000Y-56134000D02*
X123825000Y-54356000D01*
X123825000Y-58420000D02*
X123825000Y-56134000D01*
X121539000Y-58420000D02*
X123825000Y-58420000D01*
X121285000Y-58674000D02*
X121539000Y-58420000D01*
X121285000Y-59530000D02*
X121285000Y-58674000D01*
G04 #@! TO.N,/GND*
X120015000Y-64930000D02*
X120015000Y-62230000D01*
X120015000Y-62230000D02*
X120015000Y-59530000D01*
X111685000Y-69850000D02*
X115645000Y-69850000D01*
X120015000Y-62230000D02*
X121285000Y-62230000D01*
X129286000Y-48307400D02*
X129286000Y-50419000D01*
X115645000Y-69850000D02*
X117475000Y-69850000D01*
X120090000Y-55856000D02*
X122301000Y-55880000D01*
G04 #@! TO.N,/-5V*
X120090000Y-52856000D02*
X122340000Y-52856000D01*
G04 #@! TO.N,Net-(C_PR1-Pad1)*
X117473600Y-68350000D02*
X115645000Y-68350000D01*
X117475000Y-68351400D02*
X117473600Y-68350000D01*
X117475000Y-64930000D02*
X117475000Y-68351400D01*
X117475000Y-63500000D02*
X117475000Y-62966600D01*
X117475000Y-64930000D02*
X117475000Y-63500000D01*
X117475000Y-62230000D02*
X117475000Y-63220600D01*
X111760000Y-62230000D02*
X117475000Y-62230000D01*
X117475000Y-59530000D02*
X117475000Y-62230000D01*
X105410000Y-63500000D02*
X105410000Y-71120000D01*
X106680000Y-62230000D02*
X105410000Y-63500000D01*
X111760000Y-62230000D02*
X106680000Y-62230000D01*
X102870000Y-73660000D02*
X105410000Y-71120000D01*
X100330000Y-76200000D02*
X102870000Y-73660000D01*
X99440000Y-76200000D02*
X100330000Y-76200000D01*
G04 #@! TO.N,/+5V*
X115645000Y-72850000D02*
X115645000Y-71350000D01*
X115820000Y-73025000D02*
X115645000Y-72850000D01*
X119380000Y-73025000D02*
X115820000Y-73025000D01*
G04 #@! TO.N,Net-(DP1-Pad2)*
X99060000Y-71120000D02*
X95250000Y-71120000D01*
X96520000Y-55880000D02*
X100680000Y-55880000D01*
X95250000Y-57150000D02*
X96520000Y-55880000D01*
X95250000Y-71120000D02*
X95250000Y-57150000D01*
X95250000Y-75310000D02*
X95250000Y-71120000D01*
X96140000Y-76200000D02*
X95250000Y-75310000D01*
G04 #@! TD*
D25*
G04 #@! TO.N,/GND*
G36*
X113919000Y-67419416D02*
X113796843Y-67602235D01*
X113747560Y-67850000D01*
X113747560Y-68850000D01*
X113796843Y-69097765D01*
X113919000Y-69280584D01*
X113919000Y-70419416D01*
X113796843Y-70602235D01*
X113747560Y-70850000D01*
X113747560Y-71850000D01*
X113796843Y-72097765D01*
X113919000Y-72280584D01*
X113919000Y-74168000D01*
X106807000Y-74168000D01*
X106807000Y-64262000D01*
X113919000Y-64262000D01*
X113919000Y-67419416D01*
X113919000Y-67419416D01*
G37*
X113919000Y-67419416D02*
X113796843Y-67602235D01*
X113747560Y-67850000D01*
X113747560Y-68850000D01*
X113796843Y-69097765D01*
X113919000Y-69280584D01*
X113919000Y-70419416D01*
X113796843Y-70602235D01*
X113747560Y-70850000D01*
X113747560Y-71850000D01*
X113796843Y-72097765D01*
X113919000Y-72280584D01*
X113919000Y-74168000D01*
X106807000Y-74168000D01*
X106807000Y-64262000D01*
X113919000Y-64262000D01*
X113919000Y-67419416D01*
G04 #@! TO.N,Net-(C_INV2-Pad2)*
G36*
X117983000Y-57658000D02*
X116205000Y-57658000D01*
X116156399Y-57667667D01*
X116115197Y-57695197D01*
X116087667Y-57736399D01*
X116078000Y-57785000D01*
X116078000Y-60198000D01*
X109982000Y-60198000D01*
X109982000Y-50292000D01*
X117983000Y-50292000D01*
X117983000Y-57658000D01*
X117983000Y-57658000D01*
G37*
X117983000Y-57658000D02*
X116205000Y-57658000D01*
X116156399Y-57667667D01*
X116115197Y-57695197D01*
X116087667Y-57736399D01*
X116078000Y-57785000D01*
X116078000Y-60198000D01*
X109982000Y-60198000D01*
X109982000Y-50292000D01*
X117983000Y-50292000D01*
X117983000Y-57658000D01*
G04 #@! TD*
M02*
