G04 #@! TF.GenerationSoftware,KiCad,Pcbnew,(5.0.0-3-g5ebb6b6)*
G04 #@! TF.CreationDate,2018-12-29T11:49:17+00:00*
G04 #@! TF.ProjectId,BinaryBagelBoard,42696E617279426167656C426F617264,rev?*
G04 #@! TF.SameCoordinates,Original*
G04 #@! TF.FileFunction,Copper,L2,Bot,Signal*
G04 #@! TF.FilePolarity,Positive*
%FSLAX46Y46*%
G04 Gerber Fmt 4.6, Leading zero omitted, Abs format (unit mm)*
G04 Created by KiCad (PCBNEW (5.0.0-3-g5ebb6b6)) date Saturday, 29 December 2018 at 11:49:17*
%MOMM*%
%LPD*%
G01*
G04 APERTURE LIST*
G04 #@! TA.AperFunction,Conductor*
%ADD10C,0.100000*%
G04 #@! TD*
G04 #@! TA.AperFunction,SMDPad,CuDef*
%ADD11C,1.150000*%
G04 #@! TD*
G04 #@! TA.AperFunction,ComponentPad*
%ADD12R,3.500000X3.500000*%
G04 #@! TD*
G04 #@! TA.AperFunction,ComponentPad*
%ADD13C,3.000000*%
G04 #@! TD*
G04 #@! TA.AperFunction,ComponentPad*
%ADD14C,3.500000*%
G04 #@! TD*
G04 #@! TA.AperFunction,ComponentPad*
%ADD15R,1.700000X1.700000*%
G04 #@! TD*
G04 #@! TA.AperFunction,ComponentPad*
%ADD16O,1.700000X1.700000*%
G04 #@! TD*
G04 #@! TA.AperFunction,ComponentPad*
%ADD17R,3.000000X3.000000*%
G04 #@! TD*
G04 #@! TA.AperFunction,ViaPad*
%ADD18C,0.800000*%
G04 #@! TD*
G04 #@! TA.AperFunction,Conductor*
%ADD19C,1.000000*%
G04 #@! TD*
G04 #@! TA.AperFunction,Conductor*
%ADD20C,0.254000*%
G04 #@! TD*
G04 APERTURE END LIST*
D10*
G04 #@! TO.N,/GND*
G04 #@! TO.C,C_NR1*
G36*
X124299505Y-57456204D02*
X124323773Y-57459804D01*
X124347572Y-57465765D01*
X124370671Y-57474030D01*
X124392850Y-57484520D01*
X124413893Y-57497132D01*
X124433599Y-57511747D01*
X124451777Y-57528223D01*
X124468253Y-57546401D01*
X124482868Y-57566107D01*
X124495480Y-57587150D01*
X124505970Y-57609329D01*
X124514235Y-57632428D01*
X124520196Y-57656227D01*
X124523796Y-57680495D01*
X124525000Y-57704999D01*
X124525000Y-58355001D01*
X124523796Y-58379505D01*
X124520196Y-58403773D01*
X124514235Y-58427572D01*
X124505970Y-58450671D01*
X124495480Y-58472850D01*
X124482868Y-58493893D01*
X124468253Y-58513599D01*
X124451777Y-58531777D01*
X124433599Y-58548253D01*
X124413893Y-58562868D01*
X124392850Y-58575480D01*
X124370671Y-58585970D01*
X124347572Y-58594235D01*
X124323773Y-58600196D01*
X124299505Y-58603796D01*
X124275001Y-58605000D01*
X123374999Y-58605000D01*
X123350495Y-58603796D01*
X123326227Y-58600196D01*
X123302428Y-58594235D01*
X123279329Y-58585970D01*
X123257150Y-58575480D01*
X123236107Y-58562868D01*
X123216401Y-58548253D01*
X123198223Y-58531777D01*
X123181747Y-58513599D01*
X123167132Y-58493893D01*
X123154520Y-58472850D01*
X123144030Y-58450671D01*
X123135765Y-58427572D01*
X123129804Y-58403773D01*
X123126204Y-58379505D01*
X123125000Y-58355001D01*
X123125000Y-57704999D01*
X123126204Y-57680495D01*
X123129804Y-57656227D01*
X123135765Y-57632428D01*
X123144030Y-57609329D01*
X123154520Y-57587150D01*
X123167132Y-57566107D01*
X123181747Y-57546401D01*
X123198223Y-57528223D01*
X123216401Y-57511747D01*
X123236107Y-57497132D01*
X123257150Y-57484520D01*
X123279329Y-57474030D01*
X123302428Y-57465765D01*
X123326227Y-57459804D01*
X123350495Y-57456204D01*
X123374999Y-57455000D01*
X124275001Y-57455000D01*
X124299505Y-57456204D01*
X124299505Y-57456204D01*
G37*
D11*
G04 #@! TD*
G04 #@! TO.P,C_NR1,1*
G04 #@! TO.N,/GND*
X123825000Y-58030000D03*
D10*
G04 #@! TO.N,Net-(C_INV2-Pad2)*
G04 #@! TO.C,C_NR1*
G36*
X124299505Y-59506204D02*
X124323773Y-59509804D01*
X124347572Y-59515765D01*
X124370671Y-59524030D01*
X124392850Y-59534520D01*
X124413893Y-59547132D01*
X124433599Y-59561747D01*
X124451777Y-59578223D01*
X124468253Y-59596401D01*
X124482868Y-59616107D01*
X124495480Y-59637150D01*
X124505970Y-59659329D01*
X124514235Y-59682428D01*
X124520196Y-59706227D01*
X124523796Y-59730495D01*
X124525000Y-59754999D01*
X124525000Y-60405001D01*
X124523796Y-60429505D01*
X124520196Y-60453773D01*
X124514235Y-60477572D01*
X124505970Y-60500671D01*
X124495480Y-60522850D01*
X124482868Y-60543893D01*
X124468253Y-60563599D01*
X124451777Y-60581777D01*
X124433599Y-60598253D01*
X124413893Y-60612868D01*
X124392850Y-60625480D01*
X124370671Y-60635970D01*
X124347572Y-60644235D01*
X124323773Y-60650196D01*
X124299505Y-60653796D01*
X124275001Y-60655000D01*
X123374999Y-60655000D01*
X123350495Y-60653796D01*
X123326227Y-60650196D01*
X123302428Y-60644235D01*
X123279329Y-60635970D01*
X123257150Y-60625480D01*
X123236107Y-60612868D01*
X123216401Y-60598253D01*
X123198223Y-60581777D01*
X123181747Y-60563599D01*
X123167132Y-60543893D01*
X123154520Y-60522850D01*
X123144030Y-60500671D01*
X123135765Y-60477572D01*
X123129804Y-60453773D01*
X123126204Y-60429505D01*
X123125000Y-60405001D01*
X123125000Y-59754999D01*
X123126204Y-59730495D01*
X123129804Y-59706227D01*
X123135765Y-59682428D01*
X123144030Y-59659329D01*
X123154520Y-59637150D01*
X123167132Y-59616107D01*
X123181747Y-59596401D01*
X123198223Y-59578223D01*
X123216401Y-59561747D01*
X123236107Y-59547132D01*
X123257150Y-59534520D01*
X123279329Y-59524030D01*
X123302428Y-59515765D01*
X123326227Y-59509804D01*
X123350495Y-59506204D01*
X123374999Y-59505000D01*
X124275001Y-59505000D01*
X124299505Y-59506204D01*
X124299505Y-59506204D01*
G37*
D11*
G04 #@! TD*
G04 #@! TO.P,C_NR1,2*
G04 #@! TO.N,Net-(C_INV2-Pad2)*
X123825000Y-60080000D03*
D10*
G04 #@! TO.N,/-5V*
G04 #@! TO.C,C_NR2*
G36*
X124299505Y-61901204D02*
X124323773Y-61904804D01*
X124347572Y-61910765D01*
X124370671Y-61919030D01*
X124392850Y-61929520D01*
X124413893Y-61942132D01*
X124433599Y-61956747D01*
X124451777Y-61973223D01*
X124468253Y-61991401D01*
X124482868Y-62011107D01*
X124495480Y-62032150D01*
X124505970Y-62054329D01*
X124514235Y-62077428D01*
X124520196Y-62101227D01*
X124523796Y-62125495D01*
X124525000Y-62149999D01*
X124525000Y-62800001D01*
X124523796Y-62824505D01*
X124520196Y-62848773D01*
X124514235Y-62872572D01*
X124505970Y-62895671D01*
X124495480Y-62917850D01*
X124482868Y-62938893D01*
X124468253Y-62958599D01*
X124451777Y-62976777D01*
X124433599Y-62993253D01*
X124413893Y-63007868D01*
X124392850Y-63020480D01*
X124370671Y-63030970D01*
X124347572Y-63039235D01*
X124323773Y-63045196D01*
X124299505Y-63048796D01*
X124275001Y-63050000D01*
X123374999Y-63050000D01*
X123350495Y-63048796D01*
X123326227Y-63045196D01*
X123302428Y-63039235D01*
X123279329Y-63030970D01*
X123257150Y-63020480D01*
X123236107Y-63007868D01*
X123216401Y-62993253D01*
X123198223Y-62976777D01*
X123181747Y-62958599D01*
X123167132Y-62938893D01*
X123154520Y-62917850D01*
X123144030Y-62895671D01*
X123135765Y-62872572D01*
X123129804Y-62848773D01*
X123126204Y-62824505D01*
X123125000Y-62800001D01*
X123125000Y-62149999D01*
X123126204Y-62125495D01*
X123129804Y-62101227D01*
X123135765Y-62077428D01*
X123144030Y-62054329D01*
X123154520Y-62032150D01*
X123167132Y-62011107D01*
X123181747Y-61991401D01*
X123198223Y-61973223D01*
X123216401Y-61956747D01*
X123236107Y-61942132D01*
X123257150Y-61929520D01*
X123279329Y-61919030D01*
X123302428Y-61910765D01*
X123326227Y-61904804D01*
X123350495Y-61901204D01*
X123374999Y-61900000D01*
X124275001Y-61900000D01*
X124299505Y-61901204D01*
X124299505Y-61901204D01*
G37*
D11*
G04 #@! TD*
G04 #@! TO.P,C_NR2,2*
G04 #@! TO.N,/-5V*
X123825000Y-62475000D03*
D10*
G04 #@! TO.N,/GND*
G04 #@! TO.C,C_NR2*
G36*
X124299505Y-63951204D02*
X124323773Y-63954804D01*
X124347572Y-63960765D01*
X124370671Y-63969030D01*
X124392850Y-63979520D01*
X124413893Y-63992132D01*
X124433599Y-64006747D01*
X124451777Y-64023223D01*
X124468253Y-64041401D01*
X124482868Y-64061107D01*
X124495480Y-64082150D01*
X124505970Y-64104329D01*
X124514235Y-64127428D01*
X124520196Y-64151227D01*
X124523796Y-64175495D01*
X124525000Y-64199999D01*
X124525000Y-64850001D01*
X124523796Y-64874505D01*
X124520196Y-64898773D01*
X124514235Y-64922572D01*
X124505970Y-64945671D01*
X124495480Y-64967850D01*
X124482868Y-64988893D01*
X124468253Y-65008599D01*
X124451777Y-65026777D01*
X124433599Y-65043253D01*
X124413893Y-65057868D01*
X124392850Y-65070480D01*
X124370671Y-65080970D01*
X124347572Y-65089235D01*
X124323773Y-65095196D01*
X124299505Y-65098796D01*
X124275001Y-65100000D01*
X123374999Y-65100000D01*
X123350495Y-65098796D01*
X123326227Y-65095196D01*
X123302428Y-65089235D01*
X123279329Y-65080970D01*
X123257150Y-65070480D01*
X123236107Y-65057868D01*
X123216401Y-65043253D01*
X123198223Y-65026777D01*
X123181747Y-65008599D01*
X123167132Y-64988893D01*
X123154520Y-64967850D01*
X123144030Y-64945671D01*
X123135765Y-64922572D01*
X123129804Y-64898773D01*
X123126204Y-64874505D01*
X123125000Y-64850001D01*
X123125000Y-64199999D01*
X123126204Y-64175495D01*
X123129804Y-64151227D01*
X123135765Y-64127428D01*
X123144030Y-64104329D01*
X123154520Y-64082150D01*
X123167132Y-64061107D01*
X123181747Y-64041401D01*
X123198223Y-64023223D01*
X123216401Y-64006747D01*
X123236107Y-63992132D01*
X123257150Y-63979520D01*
X123279329Y-63969030D01*
X123302428Y-63960765D01*
X123326227Y-63954804D01*
X123350495Y-63951204D01*
X123374999Y-63950000D01*
X124275001Y-63950000D01*
X124299505Y-63951204D01*
X124299505Y-63951204D01*
G37*
D11*
G04 #@! TD*
G04 #@! TO.P,C_NR2,1*
G04 #@! TO.N,/GND*
X123825000Y-64525000D03*
D10*
G04 #@! TO.N,/GND*
G04 #@! TO.C,C_PR1*
G36*
X115953905Y-61531204D02*
X115978173Y-61534804D01*
X116001972Y-61540765D01*
X116025071Y-61549030D01*
X116047250Y-61559520D01*
X116068293Y-61572132D01*
X116087999Y-61586747D01*
X116106177Y-61603223D01*
X116122653Y-61621401D01*
X116137268Y-61641107D01*
X116149880Y-61662150D01*
X116160370Y-61684329D01*
X116168635Y-61707428D01*
X116174596Y-61731227D01*
X116178196Y-61755495D01*
X116179400Y-61779999D01*
X116179400Y-62680001D01*
X116178196Y-62704505D01*
X116174596Y-62728773D01*
X116168635Y-62752572D01*
X116160370Y-62775671D01*
X116149880Y-62797850D01*
X116137268Y-62818893D01*
X116122653Y-62838599D01*
X116106177Y-62856777D01*
X116087999Y-62873253D01*
X116068293Y-62887868D01*
X116047250Y-62900480D01*
X116025071Y-62910970D01*
X116001972Y-62919235D01*
X115978173Y-62925196D01*
X115953905Y-62928796D01*
X115929401Y-62930000D01*
X115279399Y-62930000D01*
X115254895Y-62928796D01*
X115230627Y-62925196D01*
X115206828Y-62919235D01*
X115183729Y-62910970D01*
X115161550Y-62900480D01*
X115140507Y-62887868D01*
X115120801Y-62873253D01*
X115102623Y-62856777D01*
X115086147Y-62838599D01*
X115071532Y-62818893D01*
X115058920Y-62797850D01*
X115048430Y-62775671D01*
X115040165Y-62752572D01*
X115034204Y-62728773D01*
X115030604Y-62704505D01*
X115029400Y-62680001D01*
X115029400Y-61779999D01*
X115030604Y-61755495D01*
X115034204Y-61731227D01*
X115040165Y-61707428D01*
X115048430Y-61684329D01*
X115058920Y-61662150D01*
X115071532Y-61641107D01*
X115086147Y-61621401D01*
X115102623Y-61603223D01*
X115120801Y-61586747D01*
X115140507Y-61572132D01*
X115161550Y-61559520D01*
X115183729Y-61549030D01*
X115206828Y-61540765D01*
X115230627Y-61534804D01*
X115254895Y-61531204D01*
X115279399Y-61530000D01*
X115929401Y-61530000D01*
X115953905Y-61531204D01*
X115953905Y-61531204D01*
G37*
D11*
G04 #@! TD*
G04 #@! TO.P,C_PR1,2*
G04 #@! TO.N,/GND*
X115604400Y-62230000D03*
D10*
G04 #@! TO.N,Net-(C_PR1-Pad1)*
G04 #@! TO.C,C_PR1*
G36*
X113903905Y-61531204D02*
X113928173Y-61534804D01*
X113951972Y-61540765D01*
X113975071Y-61549030D01*
X113997250Y-61559520D01*
X114018293Y-61572132D01*
X114037999Y-61586747D01*
X114056177Y-61603223D01*
X114072653Y-61621401D01*
X114087268Y-61641107D01*
X114099880Y-61662150D01*
X114110370Y-61684329D01*
X114118635Y-61707428D01*
X114124596Y-61731227D01*
X114128196Y-61755495D01*
X114129400Y-61779999D01*
X114129400Y-62680001D01*
X114128196Y-62704505D01*
X114124596Y-62728773D01*
X114118635Y-62752572D01*
X114110370Y-62775671D01*
X114099880Y-62797850D01*
X114087268Y-62818893D01*
X114072653Y-62838599D01*
X114056177Y-62856777D01*
X114037999Y-62873253D01*
X114018293Y-62887868D01*
X113997250Y-62900480D01*
X113975071Y-62910970D01*
X113951972Y-62919235D01*
X113928173Y-62925196D01*
X113903905Y-62928796D01*
X113879401Y-62930000D01*
X113229399Y-62930000D01*
X113204895Y-62928796D01*
X113180627Y-62925196D01*
X113156828Y-62919235D01*
X113133729Y-62910970D01*
X113111550Y-62900480D01*
X113090507Y-62887868D01*
X113070801Y-62873253D01*
X113052623Y-62856777D01*
X113036147Y-62838599D01*
X113021532Y-62818893D01*
X113008920Y-62797850D01*
X112998430Y-62775671D01*
X112990165Y-62752572D01*
X112984204Y-62728773D01*
X112980604Y-62704505D01*
X112979400Y-62680001D01*
X112979400Y-61779999D01*
X112980604Y-61755495D01*
X112984204Y-61731227D01*
X112990165Y-61707428D01*
X112998430Y-61684329D01*
X113008920Y-61662150D01*
X113021532Y-61641107D01*
X113036147Y-61621401D01*
X113052623Y-61603223D01*
X113070801Y-61586747D01*
X113090507Y-61572132D01*
X113111550Y-61559520D01*
X113133729Y-61549030D01*
X113156828Y-61540765D01*
X113180627Y-61534804D01*
X113204895Y-61531204D01*
X113229399Y-61530000D01*
X113879401Y-61530000D01*
X113903905Y-61531204D01*
X113903905Y-61531204D01*
G37*
D11*
G04 #@! TD*
G04 #@! TO.P,C_PR1,1*
G04 #@! TO.N,Net-(C_PR1-Pad1)*
X113554400Y-62230000D03*
D10*
G04 #@! TO.N,/+5V*
G04 #@! TO.C,C_PR2*
G36*
X119854505Y-70301204D02*
X119878773Y-70304804D01*
X119902572Y-70310765D01*
X119925671Y-70319030D01*
X119947850Y-70329520D01*
X119968893Y-70342132D01*
X119988599Y-70356747D01*
X120006777Y-70373223D01*
X120023253Y-70391401D01*
X120037868Y-70411107D01*
X120050480Y-70432150D01*
X120060970Y-70454329D01*
X120069235Y-70477428D01*
X120075196Y-70501227D01*
X120078796Y-70525495D01*
X120080000Y-70549999D01*
X120080000Y-71200001D01*
X120078796Y-71224505D01*
X120075196Y-71248773D01*
X120069235Y-71272572D01*
X120060970Y-71295671D01*
X120050480Y-71317850D01*
X120037868Y-71338893D01*
X120023253Y-71358599D01*
X120006777Y-71376777D01*
X119988599Y-71393253D01*
X119968893Y-71407868D01*
X119947850Y-71420480D01*
X119925671Y-71430970D01*
X119902572Y-71439235D01*
X119878773Y-71445196D01*
X119854505Y-71448796D01*
X119830001Y-71450000D01*
X118929999Y-71450000D01*
X118905495Y-71448796D01*
X118881227Y-71445196D01*
X118857428Y-71439235D01*
X118834329Y-71430970D01*
X118812150Y-71420480D01*
X118791107Y-71407868D01*
X118771401Y-71393253D01*
X118753223Y-71376777D01*
X118736747Y-71358599D01*
X118722132Y-71338893D01*
X118709520Y-71317850D01*
X118699030Y-71295671D01*
X118690765Y-71272572D01*
X118684804Y-71248773D01*
X118681204Y-71224505D01*
X118680000Y-71200001D01*
X118680000Y-70549999D01*
X118681204Y-70525495D01*
X118684804Y-70501227D01*
X118690765Y-70477428D01*
X118699030Y-70454329D01*
X118709520Y-70432150D01*
X118722132Y-70411107D01*
X118736747Y-70391401D01*
X118753223Y-70373223D01*
X118771401Y-70356747D01*
X118791107Y-70342132D01*
X118812150Y-70329520D01*
X118834329Y-70319030D01*
X118857428Y-70310765D01*
X118881227Y-70304804D01*
X118905495Y-70301204D01*
X118929999Y-70300000D01*
X119830001Y-70300000D01*
X119854505Y-70301204D01*
X119854505Y-70301204D01*
G37*
D11*
G04 #@! TD*
G04 #@! TO.P,C_PR2,1*
G04 #@! TO.N,/+5V*
X119380000Y-70875000D03*
D10*
G04 #@! TO.N,/GND*
G04 #@! TO.C,C_PR2*
G36*
X119854505Y-68251204D02*
X119878773Y-68254804D01*
X119902572Y-68260765D01*
X119925671Y-68269030D01*
X119947850Y-68279520D01*
X119968893Y-68292132D01*
X119988599Y-68306747D01*
X120006777Y-68323223D01*
X120023253Y-68341401D01*
X120037868Y-68361107D01*
X120050480Y-68382150D01*
X120060970Y-68404329D01*
X120069235Y-68427428D01*
X120075196Y-68451227D01*
X120078796Y-68475495D01*
X120080000Y-68499999D01*
X120080000Y-69150001D01*
X120078796Y-69174505D01*
X120075196Y-69198773D01*
X120069235Y-69222572D01*
X120060970Y-69245671D01*
X120050480Y-69267850D01*
X120037868Y-69288893D01*
X120023253Y-69308599D01*
X120006777Y-69326777D01*
X119988599Y-69343253D01*
X119968893Y-69357868D01*
X119947850Y-69370480D01*
X119925671Y-69380970D01*
X119902572Y-69389235D01*
X119878773Y-69395196D01*
X119854505Y-69398796D01*
X119830001Y-69400000D01*
X118929999Y-69400000D01*
X118905495Y-69398796D01*
X118881227Y-69395196D01*
X118857428Y-69389235D01*
X118834329Y-69380970D01*
X118812150Y-69370480D01*
X118791107Y-69357868D01*
X118771401Y-69343253D01*
X118753223Y-69326777D01*
X118736747Y-69308599D01*
X118722132Y-69288893D01*
X118709520Y-69267850D01*
X118699030Y-69245671D01*
X118690765Y-69222572D01*
X118684804Y-69198773D01*
X118681204Y-69174505D01*
X118680000Y-69150001D01*
X118680000Y-68499999D01*
X118681204Y-68475495D01*
X118684804Y-68451227D01*
X118690765Y-68427428D01*
X118699030Y-68404329D01*
X118709520Y-68382150D01*
X118722132Y-68361107D01*
X118736747Y-68341401D01*
X118753223Y-68323223D01*
X118771401Y-68306747D01*
X118791107Y-68292132D01*
X118812150Y-68279520D01*
X118834329Y-68269030D01*
X118857428Y-68260765D01*
X118881227Y-68254804D01*
X118905495Y-68251204D01*
X118929999Y-68250000D01*
X119830001Y-68250000D01*
X119854505Y-68251204D01*
X119854505Y-68251204D01*
G37*
D11*
G04 #@! TD*
G04 #@! TO.P,C_PR2,2*
G04 #@! TO.N,/GND*
X119380000Y-68825000D03*
D12*
G04 #@! TO.P,J_IN1,1*
G04 #@! TO.N,/GND*
X106680000Y-55880000D03*
D10*
G04 #@! TD*
G04 #@! TO.N,Net-(DP1-Pad2)*
G04 #@! TO.C,J_IN1*
G36*
X101503513Y-54133611D02*
X101576318Y-54144411D01*
X101647714Y-54162295D01*
X101717013Y-54187090D01*
X101783548Y-54218559D01*
X101846678Y-54256398D01*
X101905795Y-54300242D01*
X101960330Y-54349670D01*
X102009758Y-54404205D01*
X102053602Y-54463322D01*
X102091441Y-54526452D01*
X102122910Y-54592987D01*
X102147705Y-54662286D01*
X102165589Y-54733682D01*
X102176389Y-54806487D01*
X102180000Y-54880000D01*
X102180000Y-56880000D01*
X102176389Y-56953513D01*
X102165589Y-57026318D01*
X102147705Y-57097714D01*
X102122910Y-57167013D01*
X102091441Y-57233548D01*
X102053602Y-57296678D01*
X102009758Y-57355795D01*
X101960330Y-57410330D01*
X101905795Y-57459758D01*
X101846678Y-57503602D01*
X101783548Y-57541441D01*
X101717013Y-57572910D01*
X101647714Y-57597705D01*
X101576318Y-57615589D01*
X101503513Y-57626389D01*
X101430000Y-57630000D01*
X99930000Y-57630000D01*
X99856487Y-57626389D01*
X99783682Y-57615589D01*
X99712286Y-57597705D01*
X99642987Y-57572910D01*
X99576452Y-57541441D01*
X99513322Y-57503602D01*
X99454205Y-57459758D01*
X99399670Y-57410330D01*
X99350242Y-57355795D01*
X99306398Y-57296678D01*
X99268559Y-57233548D01*
X99237090Y-57167013D01*
X99212295Y-57097714D01*
X99194411Y-57026318D01*
X99183611Y-56953513D01*
X99180000Y-56880000D01*
X99180000Y-54880000D01*
X99183611Y-54806487D01*
X99194411Y-54733682D01*
X99212295Y-54662286D01*
X99237090Y-54592987D01*
X99268559Y-54526452D01*
X99306398Y-54463322D01*
X99350242Y-54404205D01*
X99399670Y-54349670D01*
X99454205Y-54300242D01*
X99513322Y-54256398D01*
X99576452Y-54218559D01*
X99642987Y-54187090D01*
X99712286Y-54162295D01*
X99783682Y-54144411D01*
X99856487Y-54133611D01*
X99930000Y-54130000D01*
X101430000Y-54130000D01*
X101503513Y-54133611D01*
X101503513Y-54133611D01*
G37*
D13*
G04 #@! TO.P,J_IN1,2*
G04 #@! TO.N,Net-(DP1-Pad2)*
X100680000Y-55880000D03*
D10*
G04 #@! TD*
G04 #@! TO.N,N/C*
G04 #@! TO.C,J_IN1*
G36*
X104640765Y-58834213D02*
X104725704Y-58846813D01*
X104808999Y-58867677D01*
X104889848Y-58896605D01*
X104967472Y-58933319D01*
X105041124Y-58977464D01*
X105110094Y-59028616D01*
X105173718Y-59086282D01*
X105231384Y-59149906D01*
X105282536Y-59218876D01*
X105326681Y-59292528D01*
X105363395Y-59370152D01*
X105392323Y-59451001D01*
X105413187Y-59534296D01*
X105425787Y-59619235D01*
X105430000Y-59705000D01*
X105430000Y-61455000D01*
X105425787Y-61540765D01*
X105413187Y-61625704D01*
X105392323Y-61708999D01*
X105363395Y-61789848D01*
X105326681Y-61867472D01*
X105282536Y-61941124D01*
X105231384Y-62010094D01*
X105173718Y-62073718D01*
X105110094Y-62131384D01*
X105041124Y-62182536D01*
X104967472Y-62226681D01*
X104889848Y-62263395D01*
X104808999Y-62292323D01*
X104725704Y-62313187D01*
X104640765Y-62325787D01*
X104555000Y-62330000D01*
X102805000Y-62330000D01*
X102719235Y-62325787D01*
X102634296Y-62313187D01*
X102551001Y-62292323D01*
X102470152Y-62263395D01*
X102392528Y-62226681D01*
X102318876Y-62182536D01*
X102249906Y-62131384D01*
X102186282Y-62073718D01*
X102128616Y-62010094D01*
X102077464Y-61941124D01*
X102033319Y-61867472D01*
X101996605Y-61789848D01*
X101967677Y-61708999D01*
X101946813Y-61625704D01*
X101934213Y-61540765D01*
X101930000Y-61455000D01*
X101930000Y-59705000D01*
X101934213Y-59619235D01*
X101946813Y-59534296D01*
X101967677Y-59451001D01*
X101996605Y-59370152D01*
X102033319Y-59292528D01*
X102077464Y-59218876D01*
X102128616Y-59149906D01*
X102186282Y-59086282D01*
X102249906Y-59028616D01*
X102318876Y-58977464D01*
X102392528Y-58933319D01*
X102470152Y-58896605D01*
X102551001Y-58867677D01*
X102634296Y-58846813D01*
X102719235Y-58834213D01*
X102805000Y-58830000D01*
X104555000Y-58830000D01*
X104640765Y-58834213D01*
X104640765Y-58834213D01*
G37*
D14*
G04 #@! TO.P,J_IN1,3*
G04 #@! TO.N,N/C*
X103680000Y-60580000D03*
G04 #@! TD*
D15*
G04 #@! TO.P,J_MNT1,1*
G04 #@! TO.N,N/C*
X104140000Y-48260000D03*
D16*
G04 #@! TO.P,J_MNT1,2*
X106680000Y-48260000D03*
G04 #@! TO.P,J_MNT1,3*
X109220000Y-48260000D03*
G04 #@! TO.P,J_MNT1,4*
X111760000Y-48260000D03*
G04 #@! TO.P,J_MNT1,5*
X114300000Y-48260000D03*
G04 #@! TO.P,J_MNT1,6*
X116840000Y-48260000D03*
G04 #@! TO.P,J_MNT1,7*
X119380000Y-48260000D03*
G04 #@! TO.P,J_MNT1,8*
X121920000Y-48260000D03*
G04 #@! TD*
G04 #@! TO.P,J_MNT2,8*
G04 #@! TO.N,N/C*
X121920000Y-76200000D03*
G04 #@! TO.P,J_MNT2,7*
X119380000Y-76200000D03*
G04 #@! TO.P,J_MNT2,6*
X116840000Y-76200000D03*
G04 #@! TO.P,J_MNT2,5*
X114300000Y-76200000D03*
G04 #@! TO.P,J_MNT2,4*
X111760000Y-76200000D03*
G04 #@! TO.P,J_MNT2,3*
X109220000Y-76200000D03*
G04 #@! TO.P,J_MNT2,2*
X106680000Y-76200000D03*
D15*
G04 #@! TO.P,J_MNT2,1*
X104140000Y-76200000D03*
G04 #@! TD*
D17*
G04 #@! TO.P,J_IN2,1*
G04 #@! TO.N,Net-(DP1-Pad2)*
X99060000Y-71120000D03*
D13*
G04 #@! TO.P,J_IN2,2*
G04 #@! TO.N,/GND*
X99060000Y-66040000D03*
G04 #@! TD*
D17*
G04 #@! TO.P,J_OUT1,1*
G04 #@! TO.N,/+5V*
X127000000Y-67310000D03*
D13*
G04 #@! TO.P,J_OUT1,2*
G04 #@! TO.N,/-5V*
X127000000Y-62230000D03*
G04 #@! TO.P,J_OUT1,3*
G04 #@! TO.N,/GND*
X127000000Y-57150000D03*
G04 #@! TD*
D18*
G04 #@! TO.N,Net-(C_INV2-Pad2)*
X113792000Y-57404000D03*
X113792000Y-59436000D03*
X116840000Y-51054000D03*
X112268000Y-55372000D03*
X112268000Y-53086000D03*
X113792000Y-53086000D03*
X113792000Y-55372000D03*
X122428000Y-60071000D03*
X115316000Y-51054000D03*
X113792000Y-51054000D03*
X112268000Y-51054000D03*
X110744000Y-51054000D03*
X110744000Y-53086000D03*
X110744000Y-55372000D03*
X110744000Y-57404000D03*
X110744000Y-59436000D03*
X112268000Y-59436000D03*
X115316000Y-59436000D03*
X112268000Y-57404000D03*
X115316000Y-57404000D03*
G04 #@! TO.N,/GND*
X109347000Y-68326000D03*
X109347000Y-70104000D03*
X109347000Y-71882000D03*
X109347000Y-73533000D03*
X110998000Y-73533000D03*
X110998000Y-71882000D03*
X111125000Y-66548000D03*
X111125000Y-68326000D03*
X121285000Y-62230000D03*
X129286000Y-48307400D03*
X117475000Y-69850000D03*
X122301000Y-55880000D03*
X112776000Y-64770000D03*
X109347000Y-64770000D03*
X107696000Y-64770000D03*
X107696000Y-66548000D03*
X111125000Y-64770000D03*
X112776000Y-66548000D03*
X112776000Y-73533000D03*
X109347000Y-66548000D03*
X107696000Y-73533000D03*
X107696000Y-68326000D03*
X107696000Y-70104000D03*
X107696000Y-71882000D03*
G04 #@! TO.N,/-5V*
X122340000Y-52856000D03*
G04 #@! TO.N,Net-(C_PR1-Pad1)*
X111760000Y-62230000D03*
G04 #@! TO.N,/+5V*
X119380000Y-73025000D03*
G04 #@! TD*
D19*
G04 #@! TO.N,Net-(C_INV2-Pad2)*
X123816000Y-60071000D02*
X123825000Y-60080000D01*
X122428000Y-60071000D02*
X123816000Y-60071000D01*
G04 #@! TO.N,/-5V*
X124070000Y-62230000D02*
X123825000Y-62475000D01*
X126755000Y-62475000D02*
X127000000Y-62230000D01*
X123825000Y-62475000D02*
X126755000Y-62475000D01*
X130175000Y-62230000D02*
X127000000Y-62230000D01*
X130175000Y-54610000D02*
X130175000Y-62230000D01*
X128397000Y-52832000D02*
X130175000Y-54610000D01*
X128373000Y-52856000D02*
X128397000Y-52832000D01*
X122340000Y-52856000D02*
X128373000Y-52856000D01*
G04 #@! TO.N,Net-(C_PR1-Pad1)*
X113554400Y-62230000D02*
X111760000Y-62230000D01*
G04 #@! TO.N,/+5V*
X119380000Y-73025000D02*
X119380000Y-70875000D01*
X127000000Y-69810000D02*
X127000000Y-67310000D01*
X125935000Y-70875000D02*
X127000000Y-69810000D01*
X119380000Y-70875000D02*
X125935000Y-70875000D01*
G04 #@! TD*
D20*
G04 #@! TO.N,/GND*
G36*
X109093000Y-46775000D02*
X109073744Y-46775000D01*
X108640582Y-46861161D01*
X108149375Y-47189375D01*
X107950000Y-47487761D01*
X107750625Y-47189375D01*
X107259418Y-46861161D01*
X106826256Y-46775000D01*
X106533744Y-46775000D01*
X106100582Y-46861161D01*
X105609375Y-47189375D01*
X105597184Y-47207619D01*
X105588157Y-47162235D01*
X105447809Y-46952191D01*
X105237765Y-46811843D01*
X104990000Y-46762560D01*
X103290000Y-46762560D01*
X103042235Y-46811843D01*
X102832191Y-46952191D01*
X102691843Y-47162235D01*
X102642560Y-47410000D01*
X102642560Y-49110000D01*
X102691843Y-49357765D01*
X102832191Y-49567809D01*
X103042235Y-49708157D01*
X103290000Y-49757440D01*
X104990000Y-49757440D01*
X105237765Y-49708157D01*
X105447809Y-49567809D01*
X105588157Y-49357765D01*
X105597184Y-49312381D01*
X105609375Y-49330625D01*
X106100582Y-49658839D01*
X106533744Y-49745000D01*
X106826256Y-49745000D01*
X107259418Y-49658839D01*
X107750625Y-49330625D01*
X107950000Y-49032239D01*
X108149375Y-49330625D01*
X108640582Y-49658839D01*
X109073744Y-49745000D01*
X109093000Y-49745000D01*
X109093000Y-63373000D01*
X106172000Y-63373000D01*
X106123399Y-63382667D01*
X106082197Y-63410197D01*
X106054667Y-63451399D01*
X106045000Y-63500000D01*
X106045000Y-74838300D01*
X105609375Y-75129375D01*
X105597184Y-75147619D01*
X105588157Y-75102235D01*
X105447809Y-74892191D01*
X105237765Y-74751843D01*
X104990000Y-74702560D01*
X103290000Y-74702560D01*
X103042235Y-74751843D01*
X102832191Y-74892191D01*
X102691843Y-75102235D01*
X102642560Y-75350000D01*
X102642560Y-77050000D01*
X102691843Y-77297765D01*
X102832191Y-77507809D01*
X103042235Y-77648157D01*
X103290000Y-77697440D01*
X104990000Y-77697440D01*
X105237765Y-77648157D01*
X105447809Y-77507809D01*
X105588157Y-77297765D01*
X105597184Y-77252381D01*
X105609375Y-77270625D01*
X106045000Y-77561700D01*
X106045000Y-78030000D01*
X94690000Y-78030000D01*
X94690000Y-69620000D01*
X96912560Y-69620000D01*
X96912560Y-72620000D01*
X96961843Y-72867765D01*
X97102191Y-73077809D01*
X97312235Y-73218157D01*
X97560000Y-73267440D01*
X100560000Y-73267440D01*
X100807765Y-73218157D01*
X101017809Y-73077809D01*
X101158157Y-72867765D01*
X101207440Y-72620000D01*
X101207440Y-69620000D01*
X101158157Y-69372235D01*
X101017809Y-69162191D01*
X100807765Y-69021843D01*
X100560000Y-68972560D01*
X97560000Y-68972560D01*
X97312235Y-69021843D01*
X97102191Y-69162191D01*
X96961843Y-69372235D01*
X96912560Y-69620000D01*
X94690000Y-69620000D01*
X94690000Y-67553970D01*
X97725635Y-67553970D01*
X97885418Y-67872739D01*
X98676187Y-68182723D01*
X99525387Y-68166497D01*
X100234582Y-67872739D01*
X100394365Y-67553970D01*
X99060000Y-66219605D01*
X97725635Y-67553970D01*
X94690000Y-67553970D01*
X94690000Y-65656187D01*
X96917277Y-65656187D01*
X96933503Y-66505387D01*
X97227261Y-67214582D01*
X97546030Y-67374365D01*
X98880395Y-66040000D01*
X99239605Y-66040000D01*
X100573970Y-67374365D01*
X100892739Y-67214582D01*
X101202723Y-66423813D01*
X101186497Y-65574613D01*
X100892739Y-64865418D01*
X100573970Y-64705635D01*
X99239605Y-66040000D01*
X98880395Y-66040000D01*
X97546030Y-64705635D01*
X97227261Y-64865418D01*
X96917277Y-65656187D01*
X94690000Y-65656187D01*
X94690000Y-64526030D01*
X97725635Y-64526030D01*
X99060000Y-65860395D01*
X100394365Y-64526030D01*
X100234582Y-64207261D01*
X99443813Y-63897277D01*
X98594613Y-63913503D01*
X97885418Y-64207261D01*
X97725635Y-64526030D01*
X94690000Y-64526030D01*
X94690000Y-59705000D01*
X101282560Y-59705000D01*
X101282560Y-61455000D01*
X101398449Y-62037613D01*
X101728472Y-62531528D01*
X102222387Y-62861551D01*
X102805000Y-62977440D01*
X104555000Y-62977440D01*
X105137613Y-62861551D01*
X105631528Y-62531528D01*
X105961551Y-62037613D01*
X106077440Y-61455000D01*
X106077440Y-59705000D01*
X105961551Y-59122387D01*
X105631528Y-58628472D01*
X105137613Y-58298449D01*
X104969454Y-58265000D01*
X106394250Y-58265000D01*
X106553000Y-58106250D01*
X106553000Y-56007000D01*
X106807000Y-56007000D01*
X106807000Y-58106250D01*
X106965750Y-58265000D01*
X108556309Y-58265000D01*
X108789698Y-58168327D01*
X108968327Y-57989699D01*
X109065000Y-57756310D01*
X109065000Y-56165750D01*
X108906250Y-56007000D01*
X106807000Y-56007000D01*
X106553000Y-56007000D01*
X104453750Y-56007000D01*
X104295000Y-56165750D01*
X104295000Y-57756310D01*
X104391673Y-57989699D01*
X104570302Y-58168327D01*
X104650546Y-58201565D01*
X104555000Y-58182560D01*
X102805000Y-58182560D01*
X102222387Y-58298449D01*
X101728472Y-58628472D01*
X101398449Y-59122387D01*
X101282560Y-59705000D01*
X94690000Y-59705000D01*
X94690000Y-54880000D01*
X98532560Y-54880000D01*
X98532560Y-56880000D01*
X98638934Y-57414777D01*
X98941861Y-57868139D01*
X99395223Y-58171066D01*
X99930000Y-58277440D01*
X101430000Y-58277440D01*
X101964777Y-58171066D01*
X102418139Y-57868139D01*
X102721066Y-57414777D01*
X102827440Y-56880000D01*
X102827440Y-54880000D01*
X102721066Y-54345223D01*
X102492861Y-54003690D01*
X104295000Y-54003690D01*
X104295000Y-55594250D01*
X104453750Y-55753000D01*
X106553000Y-55753000D01*
X106553000Y-53653750D01*
X106807000Y-53653750D01*
X106807000Y-55753000D01*
X108906250Y-55753000D01*
X109065000Y-55594250D01*
X109065000Y-54003690D01*
X108968327Y-53770301D01*
X108789698Y-53591673D01*
X108556309Y-53495000D01*
X106965750Y-53495000D01*
X106807000Y-53653750D01*
X106553000Y-53653750D01*
X106394250Y-53495000D01*
X104803691Y-53495000D01*
X104570302Y-53591673D01*
X104391673Y-53770301D01*
X104295000Y-54003690D01*
X102492861Y-54003690D01*
X102418139Y-53891861D01*
X101964777Y-53588934D01*
X101430000Y-53482560D01*
X99930000Y-53482560D01*
X99395223Y-53588934D01*
X98941861Y-53891861D01*
X98638934Y-54345223D01*
X98532560Y-54880000D01*
X94690000Y-54880000D01*
X94690000Y-46430000D01*
X109093000Y-46430000D01*
X109093000Y-46775000D01*
X109093000Y-46775000D01*
G37*
X109093000Y-46775000D02*
X109073744Y-46775000D01*
X108640582Y-46861161D01*
X108149375Y-47189375D01*
X107950000Y-47487761D01*
X107750625Y-47189375D01*
X107259418Y-46861161D01*
X106826256Y-46775000D01*
X106533744Y-46775000D01*
X106100582Y-46861161D01*
X105609375Y-47189375D01*
X105597184Y-47207619D01*
X105588157Y-47162235D01*
X105447809Y-46952191D01*
X105237765Y-46811843D01*
X104990000Y-46762560D01*
X103290000Y-46762560D01*
X103042235Y-46811843D01*
X102832191Y-46952191D01*
X102691843Y-47162235D01*
X102642560Y-47410000D01*
X102642560Y-49110000D01*
X102691843Y-49357765D01*
X102832191Y-49567809D01*
X103042235Y-49708157D01*
X103290000Y-49757440D01*
X104990000Y-49757440D01*
X105237765Y-49708157D01*
X105447809Y-49567809D01*
X105588157Y-49357765D01*
X105597184Y-49312381D01*
X105609375Y-49330625D01*
X106100582Y-49658839D01*
X106533744Y-49745000D01*
X106826256Y-49745000D01*
X107259418Y-49658839D01*
X107750625Y-49330625D01*
X107950000Y-49032239D01*
X108149375Y-49330625D01*
X108640582Y-49658839D01*
X109073744Y-49745000D01*
X109093000Y-49745000D01*
X109093000Y-63373000D01*
X106172000Y-63373000D01*
X106123399Y-63382667D01*
X106082197Y-63410197D01*
X106054667Y-63451399D01*
X106045000Y-63500000D01*
X106045000Y-74838300D01*
X105609375Y-75129375D01*
X105597184Y-75147619D01*
X105588157Y-75102235D01*
X105447809Y-74892191D01*
X105237765Y-74751843D01*
X104990000Y-74702560D01*
X103290000Y-74702560D01*
X103042235Y-74751843D01*
X102832191Y-74892191D01*
X102691843Y-75102235D01*
X102642560Y-75350000D01*
X102642560Y-77050000D01*
X102691843Y-77297765D01*
X102832191Y-77507809D01*
X103042235Y-77648157D01*
X103290000Y-77697440D01*
X104990000Y-77697440D01*
X105237765Y-77648157D01*
X105447809Y-77507809D01*
X105588157Y-77297765D01*
X105597184Y-77252381D01*
X105609375Y-77270625D01*
X106045000Y-77561700D01*
X106045000Y-78030000D01*
X94690000Y-78030000D01*
X94690000Y-69620000D01*
X96912560Y-69620000D01*
X96912560Y-72620000D01*
X96961843Y-72867765D01*
X97102191Y-73077809D01*
X97312235Y-73218157D01*
X97560000Y-73267440D01*
X100560000Y-73267440D01*
X100807765Y-73218157D01*
X101017809Y-73077809D01*
X101158157Y-72867765D01*
X101207440Y-72620000D01*
X101207440Y-69620000D01*
X101158157Y-69372235D01*
X101017809Y-69162191D01*
X100807765Y-69021843D01*
X100560000Y-68972560D01*
X97560000Y-68972560D01*
X97312235Y-69021843D01*
X97102191Y-69162191D01*
X96961843Y-69372235D01*
X96912560Y-69620000D01*
X94690000Y-69620000D01*
X94690000Y-67553970D01*
X97725635Y-67553970D01*
X97885418Y-67872739D01*
X98676187Y-68182723D01*
X99525387Y-68166497D01*
X100234582Y-67872739D01*
X100394365Y-67553970D01*
X99060000Y-66219605D01*
X97725635Y-67553970D01*
X94690000Y-67553970D01*
X94690000Y-65656187D01*
X96917277Y-65656187D01*
X96933503Y-66505387D01*
X97227261Y-67214582D01*
X97546030Y-67374365D01*
X98880395Y-66040000D01*
X99239605Y-66040000D01*
X100573970Y-67374365D01*
X100892739Y-67214582D01*
X101202723Y-66423813D01*
X101186497Y-65574613D01*
X100892739Y-64865418D01*
X100573970Y-64705635D01*
X99239605Y-66040000D01*
X98880395Y-66040000D01*
X97546030Y-64705635D01*
X97227261Y-64865418D01*
X96917277Y-65656187D01*
X94690000Y-65656187D01*
X94690000Y-64526030D01*
X97725635Y-64526030D01*
X99060000Y-65860395D01*
X100394365Y-64526030D01*
X100234582Y-64207261D01*
X99443813Y-63897277D01*
X98594613Y-63913503D01*
X97885418Y-64207261D01*
X97725635Y-64526030D01*
X94690000Y-64526030D01*
X94690000Y-59705000D01*
X101282560Y-59705000D01*
X101282560Y-61455000D01*
X101398449Y-62037613D01*
X101728472Y-62531528D01*
X102222387Y-62861551D01*
X102805000Y-62977440D01*
X104555000Y-62977440D01*
X105137613Y-62861551D01*
X105631528Y-62531528D01*
X105961551Y-62037613D01*
X106077440Y-61455000D01*
X106077440Y-59705000D01*
X105961551Y-59122387D01*
X105631528Y-58628472D01*
X105137613Y-58298449D01*
X104969454Y-58265000D01*
X106394250Y-58265000D01*
X106553000Y-58106250D01*
X106553000Y-56007000D01*
X106807000Y-56007000D01*
X106807000Y-58106250D01*
X106965750Y-58265000D01*
X108556309Y-58265000D01*
X108789698Y-58168327D01*
X108968327Y-57989699D01*
X109065000Y-57756310D01*
X109065000Y-56165750D01*
X108906250Y-56007000D01*
X106807000Y-56007000D01*
X106553000Y-56007000D01*
X104453750Y-56007000D01*
X104295000Y-56165750D01*
X104295000Y-57756310D01*
X104391673Y-57989699D01*
X104570302Y-58168327D01*
X104650546Y-58201565D01*
X104555000Y-58182560D01*
X102805000Y-58182560D01*
X102222387Y-58298449D01*
X101728472Y-58628472D01*
X101398449Y-59122387D01*
X101282560Y-59705000D01*
X94690000Y-59705000D01*
X94690000Y-54880000D01*
X98532560Y-54880000D01*
X98532560Y-56880000D01*
X98638934Y-57414777D01*
X98941861Y-57868139D01*
X99395223Y-58171066D01*
X99930000Y-58277440D01*
X101430000Y-58277440D01*
X101964777Y-58171066D01*
X102418139Y-57868139D01*
X102721066Y-57414777D01*
X102827440Y-56880000D01*
X102827440Y-54880000D01*
X102721066Y-54345223D01*
X102492861Y-54003690D01*
X104295000Y-54003690D01*
X104295000Y-55594250D01*
X104453750Y-55753000D01*
X106553000Y-55753000D01*
X106553000Y-53653750D01*
X106807000Y-53653750D01*
X106807000Y-55753000D01*
X108906250Y-55753000D01*
X109065000Y-55594250D01*
X109065000Y-54003690D01*
X108968327Y-53770301D01*
X108789698Y-53591673D01*
X108556309Y-53495000D01*
X106965750Y-53495000D01*
X106807000Y-53653750D01*
X106553000Y-53653750D01*
X106394250Y-53495000D01*
X104803691Y-53495000D01*
X104570302Y-53591673D01*
X104391673Y-53770301D01*
X104295000Y-54003690D01*
X102492861Y-54003690D01*
X102418139Y-53891861D01*
X101964777Y-53588934D01*
X101430000Y-53482560D01*
X99930000Y-53482560D01*
X99395223Y-53588934D01*
X98941861Y-53891861D01*
X98638934Y-54345223D01*
X98532560Y-54880000D01*
X94690000Y-54880000D01*
X94690000Y-46430000D01*
X109093000Y-46430000D01*
X109093000Y-46775000D01*
G36*
X131370000Y-78030000D02*
X106172000Y-78030000D01*
X106172000Y-77613045D01*
X106533744Y-77685000D01*
X106826256Y-77685000D01*
X107259418Y-77598839D01*
X107750625Y-77270625D01*
X107950000Y-76972239D01*
X108149375Y-77270625D01*
X108640582Y-77598839D01*
X109073744Y-77685000D01*
X109366256Y-77685000D01*
X109799418Y-77598839D01*
X110290625Y-77270625D01*
X110490000Y-76972239D01*
X110689375Y-77270625D01*
X111180582Y-77598839D01*
X111613744Y-77685000D01*
X111906256Y-77685000D01*
X112339418Y-77598839D01*
X112830625Y-77270625D01*
X113030000Y-76972239D01*
X113229375Y-77270625D01*
X113720582Y-77598839D01*
X114153744Y-77685000D01*
X114446256Y-77685000D01*
X114879418Y-77598839D01*
X115370625Y-77270625D01*
X115570000Y-76972239D01*
X115769375Y-77270625D01*
X116260582Y-77598839D01*
X116693744Y-77685000D01*
X116986256Y-77685000D01*
X117419418Y-77598839D01*
X117910625Y-77270625D01*
X118110000Y-76972239D01*
X118309375Y-77270625D01*
X118800582Y-77598839D01*
X119233744Y-77685000D01*
X119526256Y-77685000D01*
X119959418Y-77598839D01*
X120450625Y-77270625D01*
X120650000Y-76972239D01*
X120849375Y-77270625D01*
X121340582Y-77598839D01*
X121773744Y-77685000D01*
X122066256Y-77685000D01*
X122499418Y-77598839D01*
X122990625Y-77270625D01*
X123318839Y-76779418D01*
X123434092Y-76200000D01*
X123318839Y-75620582D01*
X122990625Y-75129375D01*
X122499418Y-74801161D01*
X122066256Y-74715000D01*
X121773744Y-74715000D01*
X121340582Y-74801161D01*
X120849375Y-75129375D01*
X120650000Y-75427761D01*
X120450625Y-75129375D01*
X119959418Y-74801161D01*
X119526256Y-74715000D01*
X119233744Y-74715000D01*
X118800582Y-74801161D01*
X118309375Y-75129375D01*
X118110000Y-75427761D01*
X117910625Y-75129375D01*
X117419418Y-74801161D01*
X116986256Y-74715000D01*
X116693744Y-74715000D01*
X116260582Y-74801161D01*
X115769375Y-75129375D01*
X115570000Y-75427761D01*
X115370625Y-75129375D01*
X114879418Y-74801161D01*
X114681000Y-74761693D01*
X114681000Y-70549999D01*
X118032560Y-70549999D01*
X118032560Y-71200001D01*
X118100873Y-71543436D01*
X118245001Y-71759137D01*
X118245000Y-73136782D01*
X118310854Y-73467854D01*
X118561711Y-73843289D01*
X118937145Y-74094146D01*
X119380000Y-74182235D01*
X119822854Y-74094146D01*
X120198289Y-73843289D01*
X120449146Y-73467855D01*
X120515000Y-73136783D01*
X120515000Y-72010000D01*
X125823217Y-72010000D01*
X125935000Y-72032235D01*
X126046783Y-72010000D01*
X126377855Y-71944146D01*
X126753289Y-71693289D01*
X126816613Y-71598519D01*
X127723521Y-70691611D01*
X127818289Y-70628289D01*
X128069146Y-70252855D01*
X128135000Y-69921783D01*
X128135000Y-69921782D01*
X128157235Y-69810001D01*
X128135000Y-69698219D01*
X128135000Y-69457440D01*
X128500000Y-69457440D01*
X128747765Y-69408157D01*
X128957809Y-69267809D01*
X129098157Y-69057765D01*
X129147440Y-68810000D01*
X129147440Y-65810000D01*
X129098157Y-65562235D01*
X128957809Y-65352191D01*
X128747765Y-65211843D01*
X128500000Y-65162560D01*
X125500000Y-65162560D01*
X125252235Y-65211843D01*
X125042191Y-65352191D01*
X124901843Y-65562235D01*
X124852560Y-65810000D01*
X124852560Y-68810000D01*
X124901843Y-69057765D01*
X125042191Y-69267809D01*
X125252235Y-69408157D01*
X125500000Y-69457440D01*
X125747428Y-69457440D01*
X125464869Y-69740000D01*
X120202061Y-69740000D01*
X120173436Y-69720873D01*
X119830001Y-69652560D01*
X118929999Y-69652560D01*
X118586564Y-69720873D01*
X118295414Y-69915414D01*
X118100873Y-70206564D01*
X118032560Y-70549999D01*
X114681000Y-70549999D01*
X114681000Y-63500000D01*
X114671333Y-63451399D01*
X114643803Y-63410197D01*
X114602601Y-63382667D01*
X114554000Y-63373000D01*
X114426564Y-63373000D01*
X114513986Y-63314586D01*
X114708527Y-63023436D01*
X114776840Y-62680001D01*
X114776840Y-61779999D01*
X114708527Y-61436564D01*
X114513986Y-61145414D01*
X114426564Y-61087000D01*
X116840000Y-61087000D01*
X116888601Y-61077333D01*
X116929803Y-61049803D01*
X116957333Y-61008601D01*
X116967000Y-60960000D01*
X116967000Y-58663970D01*
X125665635Y-58663970D01*
X125825418Y-58982739D01*
X126616187Y-59292723D01*
X127465387Y-59276497D01*
X128174582Y-58982739D01*
X128334365Y-58663970D01*
X127000000Y-57329605D01*
X125665635Y-58663970D01*
X116967000Y-58663970D01*
X116967000Y-58547000D01*
X118618000Y-58547000D01*
X118666601Y-58537333D01*
X118707803Y-58509803D01*
X118735333Y-58468601D01*
X118745000Y-58420000D01*
X118745000Y-56766187D01*
X124857277Y-56766187D01*
X124873503Y-57615387D01*
X125167261Y-58324582D01*
X125486030Y-58484365D01*
X126820395Y-57150000D01*
X125486030Y-55815635D01*
X125167261Y-55975418D01*
X124857277Y-56766187D01*
X118745000Y-56766187D01*
X118745000Y-55636030D01*
X125665635Y-55636030D01*
X127000000Y-56970395D01*
X128334365Y-55636030D01*
X128174582Y-55317261D01*
X127383813Y-55007277D01*
X126534613Y-55023503D01*
X125825418Y-55317261D01*
X125665635Y-55636030D01*
X118745000Y-55636030D01*
X118745000Y-52856000D01*
X121182765Y-52856000D01*
X121270854Y-53298855D01*
X121521711Y-53674289D01*
X121897145Y-53925146D01*
X122228217Y-53991000D01*
X127950869Y-53991000D01*
X129040000Y-55080132D01*
X129040000Y-56475791D01*
X128832739Y-55975418D01*
X128513970Y-55815635D01*
X127179605Y-57150000D01*
X128513970Y-58484365D01*
X128832739Y-58324582D01*
X129040000Y-57795858D01*
X129040001Y-61095000D01*
X128840775Y-61095000D01*
X128809966Y-61020620D01*
X128209380Y-60420034D01*
X127424678Y-60095000D01*
X126575322Y-60095000D01*
X125790620Y-60420034D01*
X125190034Y-61020620D01*
X125057743Y-61340000D01*
X124780963Y-61340000D01*
X124620475Y-61232765D01*
X124909586Y-61039586D01*
X125104127Y-60748436D01*
X125172440Y-60405001D01*
X125172440Y-59754999D01*
X125104127Y-59411564D01*
X124909586Y-59120414D01*
X124618436Y-58925873D01*
X124275001Y-58857560D01*
X123374999Y-58857560D01*
X123031564Y-58925873D01*
X123016408Y-58936000D01*
X122316217Y-58936000D01*
X121985145Y-59001854D01*
X121609711Y-59252711D01*
X121358854Y-59628145D01*
X121270765Y-60071000D01*
X121358854Y-60513855D01*
X121609711Y-60889289D01*
X121985145Y-61140146D01*
X122316217Y-61206000D01*
X122989469Y-61206000D01*
X123031564Y-61234127D01*
X123249616Y-61277500D01*
X123031564Y-61320873D01*
X122740414Y-61515414D01*
X122545873Y-61806564D01*
X122477560Y-62149999D01*
X122477560Y-62800001D01*
X122545873Y-63143436D01*
X122740414Y-63434586D01*
X123031564Y-63629127D01*
X123374999Y-63697440D01*
X124275001Y-63697440D01*
X124618436Y-63629127D01*
X124647061Y-63610000D01*
X125360654Y-63610000D01*
X125790620Y-64039966D01*
X126575322Y-64365000D01*
X127424678Y-64365000D01*
X128209380Y-64039966D01*
X128809966Y-63439380D01*
X128840775Y-63365000D01*
X130063217Y-63365000D01*
X130175000Y-63387235D01*
X130286783Y-63365000D01*
X130617855Y-63299146D01*
X130993289Y-63048289D01*
X131244146Y-62672855D01*
X131332235Y-62230000D01*
X131310000Y-62118217D01*
X131310000Y-54721783D01*
X131332235Y-54610000D01*
X131244146Y-54167145D01*
X131213313Y-54121000D01*
X130993289Y-53791711D01*
X130898521Y-53728389D01*
X129278608Y-52108477D01*
X129215288Y-52013712D01*
X128839854Y-51762854D01*
X128629439Y-51721000D01*
X128397000Y-51674765D01*
X128396999Y-51674765D01*
X128164560Y-51721000D01*
X122228217Y-51721000D01*
X121897145Y-51786854D01*
X121521711Y-52037711D01*
X121270854Y-52413145D01*
X121182765Y-52856000D01*
X118745000Y-52856000D01*
X118745000Y-49621700D01*
X118800582Y-49658839D01*
X119233744Y-49745000D01*
X119526256Y-49745000D01*
X119959418Y-49658839D01*
X120450625Y-49330625D01*
X120650000Y-49032239D01*
X120849375Y-49330625D01*
X121340582Y-49658839D01*
X121773744Y-49745000D01*
X122066256Y-49745000D01*
X122499418Y-49658839D01*
X122990625Y-49330625D01*
X123318839Y-48839418D01*
X123434092Y-48260000D01*
X123318839Y-47680582D01*
X122990625Y-47189375D01*
X122499418Y-46861161D01*
X122066256Y-46775000D01*
X121773744Y-46775000D01*
X121340582Y-46861161D01*
X120849375Y-47189375D01*
X120650000Y-47487761D01*
X120450625Y-47189375D01*
X119959418Y-46861161D01*
X119526256Y-46775000D01*
X119233744Y-46775000D01*
X118800582Y-46861161D01*
X118309375Y-47189375D01*
X118110000Y-47487761D01*
X117910625Y-47189375D01*
X117419418Y-46861161D01*
X116986256Y-46775000D01*
X116693744Y-46775000D01*
X116260582Y-46861161D01*
X115769375Y-47189375D01*
X115570000Y-47487761D01*
X115370625Y-47189375D01*
X114879418Y-46861161D01*
X114446256Y-46775000D01*
X114153744Y-46775000D01*
X113720582Y-46861161D01*
X113229375Y-47189375D01*
X113030000Y-47487761D01*
X112830625Y-47189375D01*
X112339418Y-46861161D01*
X111906256Y-46775000D01*
X111613744Y-46775000D01*
X111180582Y-46861161D01*
X110689375Y-47189375D01*
X110490000Y-47487761D01*
X110290625Y-47189375D01*
X109799418Y-46861161D01*
X109366256Y-46775000D01*
X109347000Y-46775000D01*
X109347000Y-46430000D01*
X131370001Y-46430000D01*
X131370000Y-78030000D01*
X131370000Y-78030000D01*
G37*
X131370000Y-78030000D02*
X106172000Y-78030000D01*
X106172000Y-77613045D01*
X106533744Y-77685000D01*
X106826256Y-77685000D01*
X107259418Y-77598839D01*
X107750625Y-77270625D01*
X107950000Y-76972239D01*
X108149375Y-77270625D01*
X108640582Y-77598839D01*
X109073744Y-77685000D01*
X109366256Y-77685000D01*
X109799418Y-77598839D01*
X110290625Y-77270625D01*
X110490000Y-76972239D01*
X110689375Y-77270625D01*
X111180582Y-77598839D01*
X111613744Y-77685000D01*
X111906256Y-77685000D01*
X112339418Y-77598839D01*
X112830625Y-77270625D01*
X113030000Y-76972239D01*
X113229375Y-77270625D01*
X113720582Y-77598839D01*
X114153744Y-77685000D01*
X114446256Y-77685000D01*
X114879418Y-77598839D01*
X115370625Y-77270625D01*
X115570000Y-76972239D01*
X115769375Y-77270625D01*
X116260582Y-77598839D01*
X116693744Y-77685000D01*
X116986256Y-77685000D01*
X117419418Y-77598839D01*
X117910625Y-77270625D01*
X118110000Y-76972239D01*
X118309375Y-77270625D01*
X118800582Y-77598839D01*
X119233744Y-77685000D01*
X119526256Y-77685000D01*
X119959418Y-77598839D01*
X120450625Y-77270625D01*
X120650000Y-76972239D01*
X120849375Y-77270625D01*
X121340582Y-77598839D01*
X121773744Y-77685000D01*
X122066256Y-77685000D01*
X122499418Y-77598839D01*
X122990625Y-77270625D01*
X123318839Y-76779418D01*
X123434092Y-76200000D01*
X123318839Y-75620582D01*
X122990625Y-75129375D01*
X122499418Y-74801161D01*
X122066256Y-74715000D01*
X121773744Y-74715000D01*
X121340582Y-74801161D01*
X120849375Y-75129375D01*
X120650000Y-75427761D01*
X120450625Y-75129375D01*
X119959418Y-74801161D01*
X119526256Y-74715000D01*
X119233744Y-74715000D01*
X118800582Y-74801161D01*
X118309375Y-75129375D01*
X118110000Y-75427761D01*
X117910625Y-75129375D01*
X117419418Y-74801161D01*
X116986256Y-74715000D01*
X116693744Y-74715000D01*
X116260582Y-74801161D01*
X115769375Y-75129375D01*
X115570000Y-75427761D01*
X115370625Y-75129375D01*
X114879418Y-74801161D01*
X114681000Y-74761693D01*
X114681000Y-70549999D01*
X118032560Y-70549999D01*
X118032560Y-71200001D01*
X118100873Y-71543436D01*
X118245001Y-71759137D01*
X118245000Y-73136782D01*
X118310854Y-73467854D01*
X118561711Y-73843289D01*
X118937145Y-74094146D01*
X119380000Y-74182235D01*
X119822854Y-74094146D01*
X120198289Y-73843289D01*
X120449146Y-73467855D01*
X120515000Y-73136783D01*
X120515000Y-72010000D01*
X125823217Y-72010000D01*
X125935000Y-72032235D01*
X126046783Y-72010000D01*
X126377855Y-71944146D01*
X126753289Y-71693289D01*
X126816613Y-71598519D01*
X127723521Y-70691611D01*
X127818289Y-70628289D01*
X128069146Y-70252855D01*
X128135000Y-69921783D01*
X128135000Y-69921782D01*
X128157235Y-69810001D01*
X128135000Y-69698219D01*
X128135000Y-69457440D01*
X128500000Y-69457440D01*
X128747765Y-69408157D01*
X128957809Y-69267809D01*
X129098157Y-69057765D01*
X129147440Y-68810000D01*
X129147440Y-65810000D01*
X129098157Y-65562235D01*
X128957809Y-65352191D01*
X128747765Y-65211843D01*
X128500000Y-65162560D01*
X125500000Y-65162560D01*
X125252235Y-65211843D01*
X125042191Y-65352191D01*
X124901843Y-65562235D01*
X124852560Y-65810000D01*
X124852560Y-68810000D01*
X124901843Y-69057765D01*
X125042191Y-69267809D01*
X125252235Y-69408157D01*
X125500000Y-69457440D01*
X125747428Y-69457440D01*
X125464869Y-69740000D01*
X120202061Y-69740000D01*
X120173436Y-69720873D01*
X119830001Y-69652560D01*
X118929999Y-69652560D01*
X118586564Y-69720873D01*
X118295414Y-69915414D01*
X118100873Y-70206564D01*
X118032560Y-70549999D01*
X114681000Y-70549999D01*
X114681000Y-63500000D01*
X114671333Y-63451399D01*
X114643803Y-63410197D01*
X114602601Y-63382667D01*
X114554000Y-63373000D01*
X114426564Y-63373000D01*
X114513986Y-63314586D01*
X114708527Y-63023436D01*
X114776840Y-62680001D01*
X114776840Y-61779999D01*
X114708527Y-61436564D01*
X114513986Y-61145414D01*
X114426564Y-61087000D01*
X116840000Y-61087000D01*
X116888601Y-61077333D01*
X116929803Y-61049803D01*
X116957333Y-61008601D01*
X116967000Y-60960000D01*
X116967000Y-58663970D01*
X125665635Y-58663970D01*
X125825418Y-58982739D01*
X126616187Y-59292723D01*
X127465387Y-59276497D01*
X128174582Y-58982739D01*
X128334365Y-58663970D01*
X127000000Y-57329605D01*
X125665635Y-58663970D01*
X116967000Y-58663970D01*
X116967000Y-58547000D01*
X118618000Y-58547000D01*
X118666601Y-58537333D01*
X118707803Y-58509803D01*
X118735333Y-58468601D01*
X118745000Y-58420000D01*
X118745000Y-56766187D01*
X124857277Y-56766187D01*
X124873503Y-57615387D01*
X125167261Y-58324582D01*
X125486030Y-58484365D01*
X126820395Y-57150000D01*
X125486030Y-55815635D01*
X125167261Y-55975418D01*
X124857277Y-56766187D01*
X118745000Y-56766187D01*
X118745000Y-55636030D01*
X125665635Y-55636030D01*
X127000000Y-56970395D01*
X128334365Y-55636030D01*
X128174582Y-55317261D01*
X127383813Y-55007277D01*
X126534613Y-55023503D01*
X125825418Y-55317261D01*
X125665635Y-55636030D01*
X118745000Y-55636030D01*
X118745000Y-52856000D01*
X121182765Y-52856000D01*
X121270854Y-53298855D01*
X121521711Y-53674289D01*
X121897145Y-53925146D01*
X122228217Y-53991000D01*
X127950869Y-53991000D01*
X129040000Y-55080132D01*
X129040000Y-56475791D01*
X128832739Y-55975418D01*
X128513970Y-55815635D01*
X127179605Y-57150000D01*
X128513970Y-58484365D01*
X128832739Y-58324582D01*
X129040000Y-57795858D01*
X129040001Y-61095000D01*
X128840775Y-61095000D01*
X128809966Y-61020620D01*
X128209380Y-60420034D01*
X127424678Y-60095000D01*
X126575322Y-60095000D01*
X125790620Y-60420034D01*
X125190034Y-61020620D01*
X125057743Y-61340000D01*
X124780963Y-61340000D01*
X124620475Y-61232765D01*
X124909586Y-61039586D01*
X125104127Y-60748436D01*
X125172440Y-60405001D01*
X125172440Y-59754999D01*
X125104127Y-59411564D01*
X124909586Y-59120414D01*
X124618436Y-58925873D01*
X124275001Y-58857560D01*
X123374999Y-58857560D01*
X123031564Y-58925873D01*
X123016408Y-58936000D01*
X122316217Y-58936000D01*
X121985145Y-59001854D01*
X121609711Y-59252711D01*
X121358854Y-59628145D01*
X121270765Y-60071000D01*
X121358854Y-60513855D01*
X121609711Y-60889289D01*
X121985145Y-61140146D01*
X122316217Y-61206000D01*
X122989469Y-61206000D01*
X123031564Y-61234127D01*
X123249616Y-61277500D01*
X123031564Y-61320873D01*
X122740414Y-61515414D01*
X122545873Y-61806564D01*
X122477560Y-62149999D01*
X122477560Y-62800001D01*
X122545873Y-63143436D01*
X122740414Y-63434586D01*
X123031564Y-63629127D01*
X123374999Y-63697440D01*
X124275001Y-63697440D01*
X124618436Y-63629127D01*
X124647061Y-63610000D01*
X125360654Y-63610000D01*
X125790620Y-64039966D01*
X126575322Y-64365000D01*
X127424678Y-64365000D01*
X128209380Y-64039966D01*
X128809966Y-63439380D01*
X128840775Y-63365000D01*
X130063217Y-63365000D01*
X130175000Y-63387235D01*
X130286783Y-63365000D01*
X130617855Y-63299146D01*
X130993289Y-63048289D01*
X131244146Y-62672855D01*
X131332235Y-62230000D01*
X131310000Y-62118217D01*
X131310000Y-54721783D01*
X131332235Y-54610000D01*
X131244146Y-54167145D01*
X131213313Y-54121000D01*
X130993289Y-53791711D01*
X130898521Y-53728389D01*
X129278608Y-52108477D01*
X129215288Y-52013712D01*
X128839854Y-51762854D01*
X128629439Y-51721000D01*
X128397000Y-51674765D01*
X128396999Y-51674765D01*
X128164560Y-51721000D01*
X122228217Y-51721000D01*
X121897145Y-51786854D01*
X121521711Y-52037711D01*
X121270854Y-52413145D01*
X121182765Y-52856000D01*
X118745000Y-52856000D01*
X118745000Y-49621700D01*
X118800582Y-49658839D01*
X119233744Y-49745000D01*
X119526256Y-49745000D01*
X119959418Y-49658839D01*
X120450625Y-49330625D01*
X120650000Y-49032239D01*
X120849375Y-49330625D01*
X121340582Y-49658839D01*
X121773744Y-49745000D01*
X122066256Y-49745000D01*
X122499418Y-49658839D01*
X122990625Y-49330625D01*
X123318839Y-48839418D01*
X123434092Y-48260000D01*
X123318839Y-47680582D01*
X122990625Y-47189375D01*
X122499418Y-46861161D01*
X122066256Y-46775000D01*
X121773744Y-46775000D01*
X121340582Y-46861161D01*
X120849375Y-47189375D01*
X120650000Y-47487761D01*
X120450625Y-47189375D01*
X119959418Y-46861161D01*
X119526256Y-46775000D01*
X119233744Y-46775000D01*
X118800582Y-46861161D01*
X118309375Y-47189375D01*
X118110000Y-47487761D01*
X117910625Y-47189375D01*
X117419418Y-46861161D01*
X116986256Y-46775000D01*
X116693744Y-46775000D01*
X116260582Y-46861161D01*
X115769375Y-47189375D01*
X115570000Y-47487761D01*
X115370625Y-47189375D01*
X114879418Y-46861161D01*
X114446256Y-46775000D01*
X114153744Y-46775000D01*
X113720582Y-46861161D01*
X113229375Y-47189375D01*
X113030000Y-47487761D01*
X112830625Y-47189375D01*
X112339418Y-46861161D01*
X111906256Y-46775000D01*
X111613744Y-46775000D01*
X111180582Y-46861161D01*
X110689375Y-47189375D01*
X110490000Y-47487761D01*
X110290625Y-47189375D01*
X109799418Y-46861161D01*
X109366256Y-46775000D01*
X109347000Y-46775000D01*
X109347000Y-46430000D01*
X131370001Y-46430000D01*
X131370000Y-78030000D01*
G36*
X112670264Y-61095000D02*
X111648217Y-61095000D01*
X111317145Y-61160854D01*
X110941711Y-61411711D01*
X110690854Y-61787145D01*
X110602765Y-62230000D01*
X110690854Y-62672855D01*
X110941711Y-63048289D01*
X111317145Y-63299146D01*
X111648217Y-63365000D01*
X112670264Y-63365000D01*
X112682237Y-63373000D01*
X109347000Y-63373000D01*
X109347000Y-61087000D01*
X112682237Y-61087000D01*
X112670264Y-61095000D01*
X112670264Y-61095000D01*
G37*
X112670264Y-61095000D02*
X111648217Y-61095000D01*
X111317145Y-61160854D01*
X110941711Y-61411711D01*
X110690854Y-61787145D01*
X110602765Y-62230000D01*
X110690854Y-62672855D01*
X110941711Y-63048289D01*
X111317145Y-63299146D01*
X111648217Y-63365000D01*
X112670264Y-63365000D01*
X112682237Y-63373000D01*
X109347000Y-63373000D01*
X109347000Y-61087000D01*
X112682237Y-61087000D01*
X112670264Y-61095000D01*
G04 #@! TO.N,Net-(C_INV2-Pad2)*
G36*
X117983000Y-57658000D02*
X116205000Y-57658000D01*
X116156399Y-57667667D01*
X116115197Y-57695197D01*
X116087667Y-57736399D01*
X116078000Y-57785000D01*
X116078000Y-60198000D01*
X109982000Y-60198000D01*
X109982000Y-50292000D01*
X117983000Y-50292000D01*
X117983000Y-57658000D01*
X117983000Y-57658000D01*
G37*
X117983000Y-57658000D02*
X116205000Y-57658000D01*
X116156399Y-57667667D01*
X116115197Y-57695197D01*
X116087667Y-57736399D01*
X116078000Y-57785000D01*
X116078000Y-60198000D01*
X109982000Y-60198000D01*
X109982000Y-50292000D01*
X117983000Y-50292000D01*
X117983000Y-57658000D01*
G04 #@! TO.N,/GND*
G36*
X113919000Y-74168000D02*
X106807000Y-74168000D01*
X106807000Y-64262000D01*
X113919000Y-64262000D01*
X113919000Y-74168000D01*
X113919000Y-74168000D01*
G37*
X113919000Y-74168000D02*
X106807000Y-74168000D01*
X106807000Y-64262000D01*
X113919000Y-64262000D01*
X113919000Y-74168000D01*
G04 #@! TD*
M02*
